<?xml version="1.0"?>
<!DOCTYPE svg PUBLIC "-//W3C//DTD SVG 1.1//EN" "http://www.w3.org/Graphics/SVG/1.1/DTD/svg11.dtd" >
<!-- SVG content generated using Symbology Configuration Management System (SCMS) -->
<!-- Systematic Software Engineering Ltd. - www.systematic.co.uk - do not remove  -->
<svg id="WA--OD---------" width="400px" height="400px" viewBox="0 0 400 400">
<g >
<svg viewBox="0 0 400 400" id="_0.WA--OD---------" width="400px" height="400px"><g transform="translate(90 20) scale(7 7)"><path d="M18.283 50.25 C21.836 50.25 25.006 49.91 27.791 49.229 L28.223 50.588 C25.438 51.447      22.127 51.875 18.287 51.875 C13.678 51.875 9.67 50.965 6.264 49.141 C2.088      46.84 0 43.578 0 39.355 C0 36.957 0.814 34.726 2.447 32.664 C0.814 30.699      0 28.445 0 25.902 C0 23.504 0.84 21.273 2.52 19.211 C0.84 17.195 0 14.941 0      12.447 C0 10.146 1.248 7.58 3.744 4.748 C6.527 1.584 9.455 0 12.527 0 C13.007      0 13.463 0.045 13.896 0.131 L14.759 1.625 C14.423 1.625 14.085 1.625 13.749      1.625 C11.202 1.625 8.524 2.953 5.714 5.605 C2.904 8.26 1.5 10.527 1.5 12.408      C1.5 14.531 2.17 16.388 3.514 17.98 C6.821 15.078 11.494 13.625 17.534      13.625 C25.011 13.625 28.751 15.396 28.751 18.938 C28.751 21.172 27.435 22.821      24.802 23.887 C22.888 24.713 20.638 25.125 18.052 25.125 C16.04 25.125 13.552      24.705 10.585 23.861 L11.015 22.373 C13.449 23.125 15.788 23.5 18.033 23.5      C24.096 23.5 27.127 21.971 27.127 18.912 C27.127 16.389 23.924 15.125 17.518      15.125 C11.924 15.125 7.645 16.453 4.682 19.107 C5.69 20.072 7.729 21.183      10.801 22.437 L10.297 23.74 C7.27 22.732 5.033 21.582 3.592 20.285 C2.195      21.822 1.5 23.693 1.5 25.9 C1.5 28.06 2.172 29.91 3.518 31.445 C6.834 28.566      11.52 27.125 17.577 27.125 C25.026 27.125 28.751 28.902 28.751 32.453 C28.751      34.66 27.452 36.293 24.858 37.348 C22.936 38.118 20.653 38.5 18.01 38.5      C15.99 38.5 13.514 38.092 10.584 37.275 L10.943 35.908 C13.388 36.553 15.738      36.875 17.992 36.875 C24.08 36.875 27.125 35.381 27.125 32.389 C27.125 29.881      23.936 28.625 17.557 28.625 C11.897 28.625 7.606 29.934 4.68 32.551 C5.639      33.571 7.678 34.686 10.799 35.897 L10.295 37.278 C7.268 36.27 5.031 35.094      3.59 33.749 C2.195 35.279 1.5 37.17 1.5 39.416 C1.5 43.146 3.443 45.992 7.334      47.953 C10.455 49.484 14.104 50.25 18.283 50.25 zM26.855 1.059 L26.496 2.573      C22.943 1.565 19.031 1.288 14.758 1.741 L13.895 0 L19.008 0 C20.447 -0.047      23.063 0.305 26.855 1.059 z" style="fill:rgb(128,98,16)"></path>
</g>
</svg>

</g>
</svg>