<?xml version="1.0"?>
<!DOCTYPE svg PUBLIC "-//W3C//DTD SVG 1.1//EN" "http://www.w3.org/Graphics/SVG/1.1/DTD/svg11.dtd" >
<!-- SVG content generated using Symbology Configuration Management System (SCMS) -->
<!-- Systematic Software Engineering Ltd. - www.systematic.co.uk - do not remove  -->
<svg id="G*MPBCF---****X" width="400px" height="400px" viewBox="0 0 400 400">
<g >
<svg viewBox="0 0 400 400" id="_0.G-MPBCF-------X" width="400px" height="400px"><g transform="translate(-170 -160) scale(1.5 1.5)"><line x1="156" y1="196" x2="300" y2="196" style="fill:rgb(0,0,0);stroke:rgb(0,0,0);stroke-width:2" transform="matrix(1 0 0 1 18.2692 25.9615)"></line>
<polygon points="282,125.108 294,145.892 270,145.892" transform="matrix(6.12303e-017 1 -1.39526 8.54324e-017 522.63 -61.2365)" style="fill:rgb(0,0,0);stroke:rgb(0,0,0);stroke-width:2"></polygon>
<polygon points="282,125.108 294,145.892 270,145.892" transform="matrix(-1.83691e-016 -1 1.39526 -2.56297e-016 -30.091 502.764)" style="fill:rgb(0,0,0);stroke:rgb(0,0,0);stroke-width:2"></polygon>
<g id="PT.%201" transform="translate(6 -51)"><text x="154px" y="320px" transform="matrix(1 0 0 1 0 0)" style="fill:rgb(0,0,0);stroke-width:1;font-size:12;font-family:Arial Black;font-weight:bold;     ">PT. 1</text>
</g>
<g id="PT.%202" transform="translate(48 -75)"><text x="242px" y="339px" transform="matrix(1 0 0 1 0 0)" style="fill:rgb(0,0,0);stroke-width:1;font-size:12;font-family:Arial Black;font-weight:bold;     ">PT. 2</text>
</g>
<line x1="142" y1="232" x2="142" y2="254" transform="matrix(1 0 0 1 0 0)" style="fill:rgb(0,0,0);stroke:rgb(0,0,0);stroke-width:2"></line>
<line x1="141.69" y1="253.25" x2="158" y2="264" transform="matrix(1 0 0 1 0 0)" style="fill:rgb(0,0,0);stroke:rgb(0,0,0);stroke-width:2"></line>
<line x1="350" y1="230" x2="350" y2="248" transform="matrix(1 0 0 1 0 0)" style="fill:rgb(0,0,0);stroke:rgb(0,0,0);stroke-width:2"></line>
<line x1="350.54" y1="247.25" x2="326" y2="260" transform="matrix(1 0 0 1 0 0)" style="fill:rgb(0,0,0);stroke:rgb(0,0,0);stroke-width:2"></line>
<polygon points="65,67.6699 70,76.3301 60,76.3301" transform="matrix(1 0 0 1.1547 0 -11.1384) translate(77 136.832)" style="fill:rgb(0,0,0);stroke:rgb(0,0,0);stroke-width:2"></polygon>
<polygon points="65,67.6699 70,76.3301 60,76.3301" transform="matrix(1 0 0 1.1547 185 167.862) translate(99 -18.1865) translate(1 0)" style="fill:rgb(0,0,0);stroke:rgb(0,0,0);stroke-width:2"></polygon>
</g>
</svg>

</g>
</svg>