<?xml version="1.0"?>
<!DOCTYPE svg PUBLIC "-//W3C//DTD SVG 1.1//EN" "http://www.w3.org/Graphics/SVG/1.1/DTD/svg11.dtd" >
<!-- SVG content generated using Symbology Configuration Management System (SCMS) -->
<!-- Systematic Software Engineering Ltd. - www.systematic.co.uk - do not remove  -->
<svg id="G*MPOWCT--****X" width="400px" height="400px" viewBox="0 0 400 400">
<g >
<svg viewBox="0 0 400 400" id="_0.G-MPOWCT------X" width="400px" height="400px"><g id="PT.%201" transform="matrix(1.25 0 0 1.25 -81.25 -137.5) translate(-16.2667 -0.266667)"><text x="104px" y="306px" transform="matrix(1 0 0 1 0 0)" style="fill:rgb(0,0,0);stroke-width:1;font-family:Arial Black;font-weight:bold;font-size:12;
			">PT. 1</text>
</g>
<g id="PT.%202" transform="matrix(1.25 0 0 1.25 -25 -162.5) translate(18.1333 -0.266667)"><text x="262px" y="327px" transform="matrix(1 0 0 1 0 0)" style="fill:rgb(0,0,0);stroke-width:1;font-family:Arial Black;font-weight:bold;font-size:12;
			">PT. 2</text>
</g>
<line x1="106" y1="253" x2="106" y2="269" transform="matrix(1.25 0 0 1.25 -100 -110) translate(-16.2667 -0.266667)" style="fill:rgb(0,0,0);stroke:rgb(0,0,0);stroke-width:2"></line>
<line x1="105.542" y1="268.209" x2="118" y2="281" transform="matrix(1.25 0 0 1.25 -100 -110) translate(-16.2667 -0.266667)" style="fill:rgb(0,0,0);stroke:rgb(0,0,0);stroke-width:2"></line>
<line x1="372" y1="254" x2="372" y2="270" transform="matrix(1.25 0 0 1.25 -100 -110) translate(18.1333 -0.266667)" style="fill:rgb(0,0,0);stroke:rgb(0,0,0);stroke-width:2"></line>
<line x1="372.399" y1="269.352" x2="358" y2="280" transform="matrix(1.25 0 0 1.25 -100 -110) translate(18.1333 -0.266667)" style="fill:rgb(0,0,0);stroke:rgb(0,0,0);stroke-width:2"></line>
<polygon points="83,67 88.7735,77 77.2265,77" transform="matrix(1.51555 0 0 1.25 -93.2901 116.25) translate(-13.4165 -0.266667)" style="fill:rgb(0,0,0);stroke:rgb(0,0,0);stroke-width:2"></polygon>
<polygon points="83,67 88.7735,77 77.2265,77" transform="matrix(1.51555 0 0 1.25 239.21 118.75) translate(14.9561 -0.266667)" style="fill:rgb(0,0,0);stroke:rgb(0,0,0);stroke-width:2"></polygon>
<text x="20px" y="190px" transform="matrix(1 0 0 1 0 0)" style="fill:rgb(0,0,0);stroke:rgb(0,0,0);font-size:56;font-family:Arial">0 0 0 0 0 0 0 0</text>
<line x1="12" y1="192" x2="389" y2="192" style="fill:none;stroke:rgb(0,0,0);stroke-width:5"></line>
<line x1="12" y1="150" x2="389" y2="150" transform="matrix(1 0 0 1 0 0)" style="fill:none;stroke:rgb(0,0,0);stroke-width:5"></line>
</svg>

</g>
</svg>