<?xml version="1.0"?>
<!DOCTYPE svg PUBLIC "-//W3C//DTD SVG 1.1//EN" "http://www.w3.org/Graphics/SVG/1.1/DTD/svg11.dtd" >
<!-- SVG content generated using Symbology Configuration Management System (SCMS) -->
<!-- Systematic Software Engineering Ltd. - www.systematic.co.uk - do not remove  -->
<svg id="G*TPS-----****X" width="400px" height="400px" viewBox="0 0 400 400">
<g >
<svg viewBox="0 0 400 400" id="_0.G-TPS---------X" width="400px" height="400px"><g transform="translate(-160 -170) scale(1.75 1.75)"><path d="M193.336 206.067 C206.51 101.629 355.935 119.892 351.336 216.467 C347.89 288.819      241.76 316.115 202.136 246.067" style="fill:none;stroke:rgb(0,0,0);stroke-width:2" transform="matrix(1 0 0 1 -39 18)"></path>
<line x1="202" y1="246" x2="202" y2="271" style="fill:rgb(0,0,0);stroke:rgb(0,0,0);stroke-width:2" transform="matrix(1 0 0 1 -39 18)"></line>
<line x1="201.013" y1="245.815" x2="222.416" y2="245.827" style="fill:rgb(0,0,0);stroke:rgb(0,0,0);stroke-width:2" transform="matrix(1 0 0 1 -39 18)"></line>
<ellipse cx="271.5" cy="206" rx="1.5" ry="2" transform="matrix(1.13725 0 0 0.838237 -74.2797 56.2741)" style="fill:rgb(0,0,0);stroke:rgb(0,0,0);stroke-width:1"></ellipse>
<line x1="138" y1="219" x2="120" y2="198" transform="matrix(1 0 0 1 0 0) translate(1 -9)" style="fill:rgb(0,0,0);stroke:rgb(0,0,0);stroke-width:2"></line>
<line x1="118.332" y1="197.648" x2="118" y2="170" transform="matrix(1 0 0 1 0 0) translate(3 -8)" style="fill:rgb(0,0,0);stroke:rgb(0,0,0);stroke-width:2"></line>
<polygon points="49,93.1699 54,101.83 44,101.83" transform="matrix(-0.704052 0.710149 -1.39401 -1.38205 315.416 315.452)" style="fill:rgb(0,0,0);stroke:rgb(0,0,0);stroke-width:2"></polygon>
<g id="PT.%201%20(CENTER%20POINT)" transform="translate(112 168)"><text x="108px" y="75px" transform="matrix(1 0 0 1 0 0)" style="fill:rgb(0,0,0);stroke-width:1;font-family:Arial Black;font-weight:bold;font-size:12;      ">PT. 1</text>
<text x="94px" y="96px" transform="matrix(1 0 0 1 0 0) translate(-23 -7)" style="fill:rgb(0,0,0);stroke-width:1;font-family:Arial Black;font-weight:bold;font-size:12;      ">(CENTER POINT)</text>
</g>
<g id="PT.%202%20(START%20POINT)" transform="translate(-247 25)"><text x="352px" y="103px" transform="matrix(1 0 0 1 0 0)" style="fill:rgb(0,0,0);stroke-width:1;font-family:Arial Black;font-weight:bold;font-size:12;      ">PT. 2</text>
<text x="356px" y="155px" transform="matrix(1 0 0 1 0 0) translate(-11 -26)" style="fill:rgb(0,0,0);stroke-width:1;font-family:Arial Black;font-weight:bold;font-size:12;      ">POINT)</text>
<text x="362px" y="206px" transform="matrix(1 0 0 1 0 0) translate(-19 -91)" style="fill:rgb(0,0,0);stroke-width:1;font-family:Arial Black;font-weight:bold;font-size:12;      ">(START</text>
</g>
</g>
</svg>

</g>
</svg>