<?xml version="1.0"?>
<!DOCTYPE svg PUBLIC "-//W3C//DTD SVG 1.1//EN" "http://www.w3.org/Graphics/SVG/1.1/DTD/svg11.dtd" >
<!-- SVG content generated using Symbology Configuration Management System (SCMS) -->
<!-- Systematic Software Engineering Ltd. - www.systematic.co.uk - do not remove  -->
<svg id="G*GPDPOS--****X" width="400px" height="400px" viewBox="0 0 400 400">
<g >
<svg viewBox="0 0 400 400" id="_0.G-GPDPO-------X" width="400px" height="400px"><polygon points="60,300 200,57.5 340,300" style="fill:none;stroke:rgb(0,0,0);stroke-width:5"></polygon>
</svg>

</g>
<g >
<svg viewBox="0 0 400 400" id="_1.G-GPDPOS------X" width="400px" height="400px"><polygon points="125,222 275,222 250,275 150,275" style="fill:none;stroke:rgb(0,0,0);stroke-width:5"></polygon>
<line x1="89" y1="250" x2="137" y2="250" transform="matrix(1 0 0 1 0 0)" style="fill:none;stroke:rgb(0,0,0);stroke-width:5"></line>
<line x1="263" y1="250" x2="311" y2="250" transform="matrix(1 0 0 1 0 0)" style="fill:none;stroke:rgb(0,0,0);stroke-width:5"></line>
</svg>

</g>
<g >
<svg viewBox="0 0 400 400" id="_2.GAR13---------X" width="400px" height="400px"><line x1="191.57" y1="209.015" x2="89.5" y2="79" style="fill:none;stroke:rgb(0,0,0);stroke-width:3"></line>
<polygon points="196.329,214.84 192.818,205.114 187.397,209.296" style="fill:rgb(0,0,0);stroke:rgb(0,0,0);stroke-width:3"></polygon>
</svg>

</g>
<g transform="translate(-135 -150)" >
<svg viewBox="0 0 400 400" id="_3.GC------------X" width="400px" height="400px"><text x="149px" y="195px" style="fill:rgb(0,0,0);stroke:rgb(0,0,0);font-size:24;font-family:Arial">CENTER</text>
<text x="160px" y="220px" style="fill:rgb(0,0,0);stroke:rgb(0,0,0);font-size:24;font-family:Arial">POINT</text>
</svg>

</g>
</svg>