<?xml version="1.0"?>
<!DOCTYPE svg PUBLIC "-//W3C//DTD SVG 1.1//EN" "http://www.w3.org/Graphics/SVG/1.1/DTD/svg11.dtd" >
<!-- SVG content generated using Symbology Configuration Management System (SCMS) -->
<!-- Systematic Software Engineering Ltd. - www.systematic.co.uk - do not remove  -->
<svg id="G*TPX-----****X" width="400px" height="400px" viewBox="0 0 400 400">
<g >
<svg viewBox="0 0 400 400" id="_0.G-TPX---------X" width="400px" height="400px"><g transform="translate(-120 -60) scale(1.25 1.25)"><line x1="390.55" y1="175.46" x2="390" y2="386" style="fill:none;stroke:rgb(0,0,0);stroke-width:2" transform="matrix(1 0 0 1 -3 -70)"></line>
<line x1="121" y1="258" x2="391" y2="258" transform="matrix(1 0 0 1 -3 -51.9277)" style="fill:none;stroke:rgb(0,0,0);stroke-width:2"></line>
<line x1="389" y1="354" x2="119" y2="354" style="fill:none;stroke:rgb(0,0,0);stroke-width:2" transform="matrix(1 0 0 1 -3 -70)"></line>
<line x1="390" y1="213" x2="121" y2="213" transform="matrix(1 0 0 1 -2.39759 -80.8434)" style="fill:none;stroke:rgb(0,0,0);stroke-width:2"></line>
<line x1="389" y1="353" x2="346" y2="338" style="fill:none;stroke:rgb(0,0,0);stroke-width:2" transform="matrix(1 0 0 1 -3 -70)"></line>
<line x1="389.228" y1="354.674" x2="347" y2="367" style="fill:none;stroke:rgb(0,0,0);stroke-width:2" transform="matrix(1 0 0 1 -3 -70)"></line>
<line x1="389" y1="275" x2="345" y2="257" style="fill:none;stroke:rgb(0,0,0);stroke-width:2" transform="matrix(1 0 0 1 -3 -70)"></line>
<line x1="389" y1="277" x2="347" y2="291" style="fill:none;stroke:rgb(0,0,0);stroke-width:2" transform="matrix(1 0 0 1 -3 -70)"></line>
<line x1="389" y1="202" x2="346" y2="183" style="fill:none;stroke:rgb(0,0,0);stroke-width:2" transform="matrix(1 0 0 1 -3 -70)"></line>
<line x1="390" y1="202" x2="346" y2="219" style="fill:none;stroke:rgb(0,0,0);stroke-width:2" transform="matrix(1 0 0 1 -3 -70)"></line>
<g id="PT.%201" transform="translate(306 -15) translate(-9 3)"><text x="20px" y="89px" transform="matrix(1 0 0 1 0 0)" style="fill:rgb(0,0,0);stroke-width:1;font-family:Arial Black;font-weight:bold;font-size:12;      ">PT. 1</text>
</g>
<g id="PT.%202" transform="translate(239 265)"><text x="82px" y="90px" transform="matrix(1 0 0 1 0 0)" style="fill:rgb(0,0,0);stroke-width:1;font-family:Arial Black;font-weight:bold;font-size:12;      ">PT. 2</text>
</g>
<g id="PT.%203" transform="translate(-24 70)"><text x="148px" y="88px" transform="matrix(1 0 0 1 0 0)" style="fill:rgb(0,0,0);stroke-width:1;font-family:Arial Black;font-weight:bold;font-size:12;      ">PT. 3</text>
</g>
<line x1="122" y1="194" x2="140" y2="164" transform="matrix(1 0 0 1 0 0)" style="fill:rgb(0,0,0);stroke:rgb(0,0,0);stroke-width:2"></line>
<line x1="356" y1="78" x2="382" y2="101" transform="matrix(1 0 0 1 0 0)" style="fill:rgb(0,0,0);stroke:rgb(0,0,0);stroke-width:2"></line>
<line x1="382" y1="325" x2="360" y2="348" transform="matrix(1 0 0 1 0 0)" style="fill:rgb(0,0,0);stroke:rgb(0,0,0);stroke-width:2"></line>
<polygon points="34,132.072 42,145.928 26,145.928" transform="matrix(-0.855233 -0.518244 0.598417 -0.987537 66.8979 348.888)" style="fill:rgb(0,0,0);stroke:rgb(0,0,0);stroke-width:2"></polygon>
<polygon points="34,132.072 42,145.928 26,145.928" transform="matrix(-0.636854 0.770985 -0.890256 -0.735375 525.399 174.004)" style="fill:rgb(0,0,0);stroke:rgb(0,0,0);stroke-width:2"></polygon>
<polygon points="34,132.072 42,145.928 26,145.928" transform="matrix(0.724689 0.689076 -0.795676 0.836798 465.426 185.976)" style="fill:rgb(0,0,0);stroke:rgb(0,0,0);stroke-width:2"></polygon>
</g>
</svg>

</g>
</svg>