<?xml version="1.0"?>
<!DOCTYPE svg PUBLIC "-//W3C//DTD SVG 1.1//EN" "http://www.w3.org/Graphics/SVG/1.1/DTD/svg11.dtd" >
<!-- SVG content generated using Symbology Configuration Management System (SCMS) -->
<!-- Systematic Software Engineering Ltd. - www.systematic.co.uk - do not remove  -->
<svg id="G*FPAP----****X" width="400px" height="400px" viewBox="0 0 400 400">
<g >
<svg viewBox="0 0 400 400" id="_0.G-FPAP--------X" width="400px" height="400px"><g transform="translate(-110 -100) scale(1.25 1.25)"><rect x="138" y="108" width="236" height="232" transform="matrix(1 0 0 1 -6 17)" style="fill:rgb(255,255,255);stroke:rgb(0,0,0);stroke-width:2"></rect>
<rect x="182" y="387" width="50" height="31" transform="matrix(1 0 0 1 36 -277)" style="fill:rgb(255,255,255);stroke:rgb(255,255,255);stroke-width:1"></rect>
<text x="192px" y="406px" transform="matrix(1 0 0 1 36 -277)" style="fill:rgb(0,0,0);font-family:Arial Black;font-weight:bold;font-size:14">PAA</text>
<rect x="225" y="235" width="50" height="31" transform="matrix(1 0 0 1 -119 -14)" style="fill:rgb(255,255,255);stroke:rgb(255,255,255);stroke-width:1"></rect>
<text x="235px" y="254px" transform="matrix(1 0 0 1 -119 -14)" style="fill:rgb(0,0,0);font-family:Arial Black;font-weight:bold;font-size:14">PAA</text>
<rect x="225" y="235" width="50" height="31" transform="matrix(1 0 0 1 112 -20)" style="fill:rgb(255,255,255);stroke:rgb(255,255,255);stroke-width:1"></rect>
<text x="235px" y="254px" transform="matrix(1 0 0 1 112 -20)" style="fill:rgb(0,0,0);font-family:Arial Black;font-weight:bold;font-size:14">PAA</text>
<rect x="225" y="235" width="50" height="31" transform="matrix(1 0 0 1 -2 107)" style="fill:rgb(255,255,255);stroke:rgb(255,255,255);stroke-width:1"></rect>
<text x="235px" y="254px" transform="matrix(1 0 0 1 -2 107)" style="fill:rgb(0,0,0);font-family:Arial Black;font-weight:bold;font-size:14">PAA</text>
<g id="PT.%201" transform="translate(102 122)"><text x="82px" y="66px" transform="matrix(1 0 0 1 0 0)" style="fill:rgb(0,0,0);stroke-width:1;font-family:Arial Black;font-weight:bold;font-size:12;     ">PT. 1</text>
</g>
<g id="PT.%202" transform="translate(9 228)"><text x="252px" y="73px" transform="matrix(1 0 0 1 0 0)" style="fill:rgb(0,0,0);stroke-width:1;font-family:Arial Black;font-weight:bold;font-size:12;     ">PT. 2</text>
</g>
<line x1="144" y1="140" x2="180" y2="177" transform="matrix(1 0 0 1 0 0) translate(0 -1)" style="fill:rgb(0,0,0);stroke:rgb(0,0,0);stroke-width:2"></line>
<line x1="352" y1="344" x2="298" y2="300" transform="matrix(1 0 0 1 0 0)" style="fill:rgb(0,0,0);stroke:rgb(0,0,0);stroke-width:2"></line>
<polygon points="46,102.304 52,112.696 40,112.696" transform="matrix(0.717581 -0.696475 1.27335 1.31194 -26.8937 27.5048)" style="fill:rgb(0,0,0);stroke:rgb(0,0,0);stroke-width:2"></polygon>
<polygon points="46,102.304 52,112.696 40,112.696" transform="matrix(-0.668103 0.744068 -1.36037 -1.22148 528.972 441.582)" style="fill:rgb(0,0,0);stroke:rgb(0,0,0);stroke-width:2"></polygon>
</g>
</svg>

</g>
</svg>