<?xml version="1.0"?>
<!DOCTYPE svg PUBLIC "-//W3C//DTD SVG 1.1//EN" "http://www.w3.org/Graphics/SVG/1.1/DTD/svg11.dtd" >
<!-- SVG content generated using Symbology Configuration Management System (SCMS) -->
<!-- Systematic Software Engineering Ltd. - www.systematic.co.uk - do not remove  -->
<svg id="G*TPK-----****X" width="400px" height="400px" viewBox="0 0 400 400">
<g >
<svg viewBox="0 0 400 400" id="_0.G-TPK---------X" width="400px" height="400px"><g transform="translate(-230 -120) scale(1.5 1.5)"><text x="244px" y="216px" style="fill:rgb(0,0,0);font-size:14;font-family:Arial Black;font-weight:bold;stroke:rgb(0,0,0);     ">CATK</text>
<line x1="178" y1="174" x2="191" y2="174" style="fill:none;stroke:rgb(0,0,0);stroke-width:2"></line>
<line x1="197" y1="174" x2="212" y2="174" style="fill:none;stroke:rgb(0,0,0);stroke-width:2"></line>
<line x1="220" y1="174" x2="236" y2="174" style="fill:none;stroke:rgb(0,0,0);stroke-width:2"></line>
<line x1="244" y1="174" x2="262" y2="174" style="fill:none;stroke:rgb(0,0,0);stroke-width:2"></line>
<line x1="269" y1="174" x2="289" y2="174" style="fill:none;stroke:rgb(0,0,0);stroke-width:2"></line>
<line x1="297" y1="174" x2="314" y2="174" style="fill:none;stroke:rgb(0,0,0);stroke-width:2"></line>
<line x1="321" y1="174" x2="332" y2="174" style="fill:none;stroke:rgb(0,0,0);stroke-width:2"></line>
<line x1="332" y1="170" x2="332" y2="159" style="fill:none;stroke:rgb(0,0,0);stroke-width:2"></line>
<line x1="332" y1="154" x2="332" y2="144" style="fill:none;stroke:rgb(0,0,0);stroke-width:2"></line>
<line x1="332" y1="139" x2="332" y2="124" style="fill:none;stroke:rgb(0,0,0);stroke-width:2"></line>
<line x1="335" y1="127" x2="345" y2="138" style="fill:none;stroke:rgb(0,0,0);stroke-width:2"></line>
<line x1="349" y1="143" x2="361" y2="156" style="fill:none;stroke:rgb(0,0,0);stroke-width:2"></line>
<line x1="368" y1="164" x2="380" y2="178" style="fill:none;stroke:rgb(0,0,0);stroke-width:2"></line>
<line x1="384" y1="182" x2="393" y2="192" style="fill:none;stroke:rgb(0,0,0);stroke-width:2"></line>
<line x1="399" y1="199" x2="408" y2="210" style="fill:none;stroke:rgb(0,0,0);stroke-width:2"></line>
<line x1="408" y1="210" x2="401" y2="218" style="fill:none;stroke:rgb(0,0,0);stroke-width:2"></line>
<line x1="398" y1="222" x2="388.226" y2="233.02" style="fill:none;stroke:rgb(0,0,0);stroke-width:2"></line>
<line x1="385" y1="237" x2="376" y2="247" style="fill:none;stroke:rgb(0,0,0);stroke-width:2"></line>
<line x1="373.726" y1="249.77" x2="365.226" y2="258.77" style="fill:none;stroke:rgb(0,0,0);stroke-width:2"></line>
<line x1="361" y1="264" x2="351.976" y2="273.77" style="fill:none;stroke:rgb(0,0,0);stroke-width:2"></line>
<line x1="345.476" y1="281.27" x2="337.476" y2="289.77" style="fill:none;stroke:rgb(0,0,0);stroke-width:2"></line>
<line x1="335" y1="293" x2="332" y2="296" style="fill:none;stroke:rgb(0,0,0);stroke-width:2"></line>
<line x1="332" y1="282" x2="332" y2="295" style="fill:none;stroke:rgb(0,0,0);stroke-width:2"></line>
<line x1="332" y1="276" x2="332" y2="262" style="fill:none;stroke:rgb(0,0,0);stroke-width:2"></line>
<line x1="332" y1="254" x2="332" y2="243" style="fill:none;stroke:rgb(0,0,0);stroke-width:2"></line>
<line x1="326" y1="244" x2="309" y2="244" style="fill:none;stroke:rgb(0,0,0);stroke-width:2"></line>
<line x1="299" y1="244" x2="278" y2="244" style="fill:none;stroke:rgb(0,0,0);stroke-width:2"></line>
<line x1="268" y1="244" x2="248" y2="244" style="fill:none;stroke:rgb(0,0,0);stroke-width:2"></line>
<line x1="241" y1="244" x2="227" y2="244" style="fill:none;stroke:rgb(0,0,0);stroke-width:2"></line>
<line x1="218" y1="244" x2="199" y2="244" style="fill:none;stroke:rgb(0,0,0);stroke-width:2"></line>
<line x1="189" y1="244" x2="176" y2="244" style="fill:none;stroke:rgb(0,0,0);stroke-width:2"></line>
</g>
</svg>

</g>
</svg>