<?xml version="1.0"?>
<!DOCTYPE svg PUBLIC "-//W3C//DTD SVG 1.1//EN" "http://www.w3.org/Graphics/SVG/1.1/DTD/svg11.dtd" >
<!-- SVG content generated using Symbology Configuration Management System (SCMS) -->
<!-- Systematic Software Engineering Ltd. - www.systematic.co.uk - do not remove  -->
<svg id="G*GPGAZ---****X" width="400px" height="400px" viewBox="0 0 400 400">
<g >
<svg viewBox="0 0 400 400" id="_0.G-GPGAZ-------X" width="400px" height="400px"><g transform="translate(-180 -140) scale(1.5 1.5)"><path d="M235 266.949 C296.855 266.949 377 277.534 342 233.949 C307 190.365 291.855 187.949      230 187.949 C168.145 187.949 118 201.365 118 233.949 C118 266.534 173.145      266.949 235 266.949 z" style="fill:rgb(255,255,255);stroke:rgb(0,0,0);stroke-width:2" transform="matrix(1 0 0 1 21 -9)"></path>
<line x1="158" y1="104" x2="250" y2="104" transform="matrix(1 0 0 1 51 113)" style="fill:rgb(0,0,0);stroke:rgb(0,0,0);stroke-width:2"></line>
<line x1="170" y1="137" x2="232" y2="74" transform="matrix(1 0 0 1 51 113)" style="fill:rgb(0,0,0);stroke:rgb(0,0,0);stroke-width:2"></line>
<g id="N1" transform="translate(50 144)"><rect x="80" y="69" width="22" height="17" transform="matrix(1 0 0 1 0 0) translate(0 -1) translate(0 -1) translate(-1 0)" style="fill:rgb(255,255,255);stroke:rgb(0,0,0);stroke-width:2"></rect>
<text x="84px" y="80px" transform="matrix(1 0 0 1 0 0)" style="fill:rgb(0,0,0);stroke-width:1;font-family:Arial Black;font-weight:bold;font-size:12;      ">N</text>
</g>
<g id="N2" transform="translate(102 -34)"><rect x="80" y="69" width="22" height="17" transform="matrix(1 0 0 1 159 173)" style="fill:rgb(255,255,255);stroke:rgb(0,0,0);stroke-width:2"></rect>
<text x="84px" y="80px" transform="matrix(1 0 0 1 160 175)" style="fill:rgb(0,0,0);stroke-width:1;font-family:Arial Black;font-weight:bold;font-size:12;      ">N</text>
</g>
</g>
</svg>

</g>
</svg>