<?xml version="1.0"?>
<!DOCTYPE svg PUBLIC "-//W3C//DTD SVG 1.1//EN" "http://www.w3.org/Graphics/SVG/1.1/DTD/svg11.dtd" >
<!-- SVG content generated using Symbology Configuration Management System (SCMS) -->
<!-- Systematic Software Engineering Ltd. - www.systematic.co.uk - do not remove  -->
<svg id="G*TPE-----****X" width="400px" height="400px" viewBox="0 0 400 400">
<g >
<svg viewBox="0 0 400 400" id="_0.G-TPE---------X" width="400px" height="400px"><path d="M193.336 206.067 C206.51 101.629 355.935 119.892 351.336 216.467 C347.89 288.819
			241.76 316.115 202.136 246.067" style="fill:none;stroke:rgb(0,0,0);stroke-width:2" transform="matrix(1.75 0 0 1.75 -231.5 -151.75)"></path>
<line x1="202" y1="246" x2="202" y2="271" style="fill:rgb(0,0,0);stroke:rgb(0,0,0);stroke-width:2" transform="matrix(1.75 0 0 1.75 -231.5 -151.75)"></line>
<line x1="201.013" y1="245.815" x2="222.416" y2="245.827" style="fill:rgb(0,0,0);stroke:rgb(0,0,0);stroke-width:2" transform="matrix(1.75 0 0 1.75 -231.5 -151.75)"></line>
<line x1="230.636" y1="179.046" x2="201" y2="179" style="fill:rgb(0,0,0);stroke:rgb(0,0,0);stroke-width:2" transform="matrix(1.75 0 0 1.75 -231.5 -151.75)"></line>
<line x1="229.801" y1="178.655" x2="217" y2="157" style="fill:rgb(0,0,0);stroke:rgb(0,0,0);stroke-width:2" transform="matrix(1.75 0 0 1.75 -231.5 -151.75)"></line>
<line x1="268.629" y1="158.215" x2="256" y2="137" style="fill:rgb(0,0,0);stroke:rgb(0,0,0);stroke-width:2" transform="matrix(1.75 0 0 1.75 -231.5 -151.75)"></line>
<line x1="268.509" y1="159.215" x2="283" y2="137" style="fill:rgb(0,0,0);stroke:rgb(0,0,0);stroke-width:2" transform="matrix(1.75 0 0 1.75 -231.5 -151.75)"></line>
<line x1="310.069" y1="174.511" x2="323" y2="154" style="fill:rgb(0,0,0);stroke:rgb(0,0,0);stroke-width:2" transform="matrix(1.75 0 0 1.75 -231.5 -151.75)"></line>
<line x1="309.189" y1="174.951" x2="342" y2="175" style="fill:rgb(0,0,0);stroke:rgb(0,0,0);stroke-width:2" transform="matrix(1.75 0 0 1.75 -231.5 -151.75)"></line>
<line x1="327.821" y1="212.199" x2="350" y2="197" style="fill:rgb(0,0,0);stroke:rgb(0,0,0);stroke-width:2" transform="matrix(1.75 0 0 1.75 -231.5 -151.75)"></line>
<line x1="328.941" y1="212.159" x2="350" y2="226" style="fill:rgb(0,0,0);stroke:rgb(0,0,0);stroke-width:2" transform="matrix(1.75 0 0 1.75 -231.5 -151.75)"></line>
<line x1="314.736" y1="242.766" x2="344.891" y2="242.756" style="fill:rgb(0,0,0);stroke:rgb(0,0,0);stroke-width:2" transform="matrix(1.75 0 0 1.75 -231.5 -151.75)"></line>
<line x1="315.603" y1="243.099" x2="329" y2="264" style="fill:rgb(0,0,0);stroke:rgb(0,0,0);stroke-width:2" transform="matrix(1.75 0 0 1.75 -231.5 -151.75)"></line>
<line x1="280.329" y1="262.279" x2="293" y2="284" transform="matrix(1.75 0 0 1.75 -216.227 -157.477)" style="fill:rgb(0,0,0);stroke:rgb(0,0,0);stroke-width:2"></line>
<line x1="279.878" y1="260.394" x2="266.021" y2="286.68" transform="matrix(1.75 0 0 1.75 -215.591 -152.386)" style="fill:rgb(0,0,0);stroke:rgb(0,0,0);stroke-width:2"></line>
<line x1="245.561" y1="255.879" x2="247.497" y2="282.489" style="fill:rgb(0,0,0);stroke:rgb(0,0,0);stroke-width:2" transform="matrix(1.75 0 0 1.75 -231.5 -151.75)"></line>
<line x1="245.921" y1="254.999" x2="226" y2="272" style="fill:rgb(0,0,0);stroke:rgb(0,0,0);stroke-width:2" transform="matrix(1.75 0 0 1.75 -231.5 -151.75)"></line>
<ellipse cx="271.5" cy="206" rx="1.5" ry="2" transform="matrix(1.99019 0 0 1.46691 -293.239 -84.7703)" style="fill:rgb(0,0,0);stroke:rgb(0,0,0);stroke-width:1"></ellipse>
<line x1="162" y1="199" x2="144" y2="181" transform="matrix(1.75 0 0 1.75 -200 -150)" style="fill:rgb(0,0,0);stroke:rgb(0,0,0);stroke-width:2"></line>
<line x1="144.278" y1="181.775" x2="144.833" y2="156.442" transform="matrix(1.75 0 0 1.75 -200 -150)" style="fill:rgb(0,0,0);stroke:rgb(0,0,0);stroke-width:2"></line>
<polygon points="51,95.1699 56,103.83 46,103.83" transform="matrix(-1.19129 1.28193 -1.33222 -1.23802 276.812 256.929)" style="fill:rgb(0,0,0);stroke:rgb(0,0,0);stroke-width:2"></polygon>
<text x="148px" y="341px" transform="matrix(1.75 0 0 1.75 -39 -361.75) translate(-0.571429 5.71429)" style="fill:rgb(0,0,0);stroke-width:1;font-family:Arial Black;font-weight:bold;font-size:12;
		">PT. 1</text>
<text x="174px" y="394px" transform="matrix(1.75 0 0 1.75 -158 -423)" style="fill:rgb(0,0,0);stroke-width:1;font-family:Arial Black;font-weight:bold;font-size:12;
		">(CENTER POINT)</text>
<g id="PT.%202%20(START%20POINT)" transform="matrix(1.75 0 0 1.75 -100.25 -27.5)"><text x="72px" y="51px" transform="matrix(1 0 0 1 0 0)" style="fill:rgb(0,0,0);stroke-width:1;font-family:Arial Black;font-weight:bold;font-size:12;
			">PT. 2</text>
<text x="78px" y="72px" transform="matrix(1 0 0 1 0 0) translate(-14 -9)" style="fill:rgb(0,0,0);stroke-width:1;font-family:Arial Black;font-weight:bold;font-size:12;
			">(START</text>
<text x="72px" y="102px" transform="matrix(1 0 0 1 0 0) translate(-7 -24)" style="fill:rgb(0,0,0);stroke-width:1;font-family:Arial Black;font-weight:bold;font-size:12;
			">POINT)</text>
</g>
</svg>

</g>
</svg>