<?xml version="1.0"?>
<!DOCTYPE svg PUBLIC "-//W3C//DTD SVG 1.1//EN" "http://www.w3.org/Graphics/SVG/1.1/DTD/svg11.dtd" >
<!-- SVG content generated using Symbology Configuration Management System (SCMS) -->
<!-- Systematic Software Engineering Ltd. - www.systematic.co.uk - do not remove  -->
<svg id="G*TPE-----****X" width="400px" height="400px" viewBox="0 0 400 400">
<g >
<svg viewBox="0 0 400 400" id="_0.G-TPE---------X" width="400px" height="400px"><g transform="matrix(2 0 0 2 -346 -222)"><path d="M193.336 206.067 C206.51 101.629 355.935 119.892 351.336 216.467 C347.89 288.819
				241.76 316.115 202.136 246.067" style="fill:none;stroke:rgb(0,0,0);stroke-width:2"></path>
<line x1="202" y1="246" x2="202" y2="271" style="fill:rgb(0,0,0);stroke:rgb(0,0,0);stroke-width:2"></line>
<line x1="201.013" y1="245.815" x2="222.416" y2="245.827" style="fill:rgb(0,0,0);stroke:rgb(0,0,0);stroke-width:2"></line>
<line x1="230.636" y1="179.046" x2="201" y2="179" style="fill:rgb(0,0,0);stroke:rgb(0,0,0);stroke-width:2"></line>
<line x1="229.801" y1="178.655" x2="217" y2="157" style="fill:rgb(0,0,0);stroke:rgb(0,0,0);stroke-width:2"></line>
<line x1="268.629" y1="158.215" x2="256" y2="137" style="fill:rgb(0,0,0);stroke:rgb(0,0,0);stroke-width:2"></line>
<line x1="268.509" y1="159.215" x2="283" y2="137" style="fill:rgb(0,0,0);stroke:rgb(0,0,0);stroke-width:2"></line>
<line x1="310.069" y1="174.511" x2="323" y2="154" style="fill:rgb(0,0,0);stroke:rgb(0,0,0);stroke-width:2"></line>
<line x1="309.189" y1="174.951" x2="342" y2="175" style="fill:rgb(0,0,0);stroke:rgb(0,0,0);stroke-width:2"></line>
<line x1="327.821" y1="212.199" x2="350" y2="197" style="fill:rgb(0,0,0);stroke:rgb(0,0,0);stroke-width:2"></line>
<line x1="328.941" y1="212.159" x2="350" y2="226" style="fill:rgb(0,0,0);stroke:rgb(0,0,0);stroke-width:2"></line>
<line x1="314.736" y1="242.766" x2="344.891" y2="242.756" style="fill:rgb(0,0,0);stroke:rgb(0,0,0);stroke-width:2"></line>
<line x1="315.603" y1="243.099" x2="329" y2="264" style="fill:rgb(0,0,0);stroke:rgb(0,0,0);stroke-width:2"></line>
<line x1="280.329" y1="262.279" x2="293" y2="284" transform="translate(8.72727 -3.27273)" style="fill:rgb(0,0,0);stroke:rgb(0,0,0);stroke-width:2"></line>
<line x1="279.878" y1="260.394" x2="266.021" y2="286.68" transform="translate(9.09091 -0.363636)" style="fill:rgb(0,0,0);stroke:rgb(0,0,0);stroke-width:2"></line>
<line x1="245.561" y1="255.879" x2="247.497" y2="282.489" style="fill:rgb(0,0,0);stroke:rgb(0,0,0);stroke-width:2"></line>
<line x1="245.921" y1="254.999" x2="226" y2="272" style="fill:rgb(0,0,0);stroke:rgb(0,0,0);stroke-width:2"></line>
</g>
<g transform="scale(0.4 0.4) translate(299.699 335.843)"><polyline points="200,373 373,200 200,27 27,200 200,373" style="stroke-linecap:square;fill:rgb(255,128,128);stroke:rgb(0,0,0);stroke-width:10"></polyline>
<line x1="304" y1="130" x2="96" y2="270" style="fill:none;stroke:rgb(0,0,0);stroke-width:10"></line>
<line x1="96" y1="130" x2="304" y2="270" style="fill:none;stroke:rgb(0,0,0);stroke-width:10"></line>
<text x="175px" y="15px" style="fill:rgb(0,0,0);font-size:90;font-family:Arial;font-weight:bold">II</text>
</g>
</svg>

</g>
</svg>