<?xml version="1.0"?>
<!DOCTYPE svg PUBLIC "-//W3C//DTD SVG 1.1//EN" "http://www.w3.org/Graphics/SVG/1.1/DTD/svg11.dtd" >
<!-- SVG content generated using Symbology Configuration Management System (SCMS) -->
<!-- Systematic Software Engineering Ltd. - www.systematic.co.uk - do not remove  -->
<svg id="G*GPGPUSC-****X" width="400px" height="400px" viewBox="0 0 400 400">
<g >
<svg viewBox="0 0 400 400" id="_0.G-GPGPUSC-----X" width="400px" height="400px"><g transform="translate(-370 -150) scale(2 2)"><path d="M0 17.635 L22.381 22.315 L0 26.994 zM17.82 44.75 L22.5 22.375 L27.061 44.75 zM27.061      0 L22.5 22.375 L17.881 0 zM44.82 26.994 L22.439 22.314 L44.82 17.695 z" transform="matrix(3.47657 0 0 3.01117 217 102)"></path>
<g transform="rotate(51.933 34 125) translate(198.537 -148.084)"><line x1="34" y1="116" x2="34" y2="144" transform="matrix(1 0 0 0.999998 0.000149054 0.000372154)" style="fill:rgb(0,0,0);stroke:rgb(0,0,0);stroke-width:2"></line>
<polygon points="33,106 39.9282,118 26.0718,118" transform="matrix(1.01036 0 0 0.999998 0.658052 0.000372154)" style="fill:rgb(0,0,0);stroke:rgb(0,0,0);stroke-width:2"></polygon>
</g>
<g id="CENTER%20POINT" transform="translate(114 -25)"><text x="82px" y="239px" transform="matrix(1 0 0 1 0 0)" style="fill:rgb(0,0,0);stroke-width:1;font-family:Arial Black;font-weight:bold;font-size:12;      ">CENTER</text>
<text x="110px" y="279px" transform="matrix(1 0 0 1 0 0) translate(-23 -28)" style="fill:rgb(0,0,0);stroke-width:1;font-family:Arial Black;font-weight:bold;font-size:12;      ">POINT</text>
</g>
</g>
</svg>

</g>
</svg>