<?xml version="1.0"?>
<!DOCTYPE svg PUBLIC "-//W3C//DTD SVG 1.1//EN" "http://www.w3.org/Graphics/SVG/1.1/DTD/svg11.dtd" >
<!-- SVG content generated using Symbology Configuration Management System (SCMS) -->
<!-- Systematic Software Engineering Ltd. - www.systematic.co.uk - do not remove  -->
<svg id="IUAPSRMF----***" width="400px" height="400px" viewBox="0 0 400 400">
<g >
<svg viewBox="0 0 400 400" id="_0.SUA------------" width="400px" height="400px"><path d="M285 320 C410 320 410 115 285 115 C285 -24 115 -24 115 115 C-10 115 -10 320 115 320" style="fill:rgb(255,255,128);stroke:rgb(0,0,0);stroke-width:10"></path>
</svg>

</g>
<g transform="translate(32 50) scale(0.8 0.8) translate(5 0)" >
<svg viewBox="0 0 400 400" id="_1.I---SR---------" width="400px" height="400px"><g transform="translate(-57 -20) scale(1.38 1.38)"><path d="M140 115 C140 170 170 190 220 185" style="fill:none;stroke:rgb(0,0,0);stroke-width:10"></path>
<polyline points="145,150 200,110 200,150 255,110" style="fill:none;stroke:rgb(0,0,0);stroke-width:10"></polyline>
</g>
</svg>

</g>
<g >
<svg viewBox="0 0 400 400" id="_2.I---SRM--------" width="400px" height="400px"><text x="90px" y="221px" transform="matrix(1 0 0 1 0 0)" style="fill:rgb(0,0,0);font-size:60;font-family:Arial">M</text>
<text x="270px" y="221px" transform="matrix(1 0 0 1 0 0)" style="fill:rgb(0,0,0);font-size:60;font-family:Arial">F</text>
</svg>

</g>
</svg>