<?xml version="1.0"?>
<!DOCTYPE svg PUBLIC "-//W3C//DTD SVG 1.1//EN" "http://www.w3.org/Graphics/SVG/1.1/DTD/svg11.dtd" >
<!-- SVG content generated using Symbology Configuration Management System (SCMS) -->
<!-- Systematic Software Engineering Ltd. - www.systematic.co.uk - do not remove  -->
<svg id="G*MPOGF---****X" width="400px" height="400px" viewBox="0 0 400 400">
<g >
<svg viewBox="0 0 400 400" id="_0.G-MPOGF-------X" width="400px" height="400px"><g transform="translate(-110 -100) scale(1.25 1.25)"><polyline points="103.263,181.118 156.5,181 173.946,208.816 190.944,181.667 246.944,181.556 266.466,209.415      283.5,181 334.5,181.333 351.02,208.594 365.056,181.333 396.385,181.159" transform="matrix(-0.974393 -0.224853 0.224853 -0.974393 448.269 551.895)" style="stroke:rgb(0,0,0);stroke-width:2;fill:rgb(255,255,255)"></polyline>
<polyline points="112.389,181 156.5,181 173.833,208.5 190.944,181.667 246.944,181.556 265.741,208.611      283.5,181 334.5,181.333 350.907,206.778 365.056,181.333 397.944,181.333" transform="matrix(1 0 0 1 -9.24929 -37.9046)" style="stroke:rgb(0,0,0);stroke-width:2;fill:rgb(255,255,255)"></polyline>
<polyline points="179.82,313.748 179.768,250.16 209.131,235.614 180.131,221.796 180.131,190.16 208.631,172.933      179.768,159.978 179.768,102.968" transform="matrix(-1 0 0 1 568.829 39.4259)" style="stroke:rgb(0,0,0);stroke-width:2;fill:rgb(255,255,255)"></polyline>
<polyline points="177.416,231.017 205.729,231.017 220.274,259.88 234.093,231.38 265.729,231.38 282.456,260.38      295.911,231.017 322.544,231.017" transform="matrix(-6.12303e-017 1 1 6.12303e-017 -127.632 -35.3282)" style="stroke:rgb(0,0,0);stroke-width:2;fill:rgb(255,255,255)"></polyline>
<g transform="translate(-26 0)"><text x="123px" y="124px" transform="matrix(1 0 0 1 106.522 77)" style="fill:rgb(0,0,0);font-size:18;font-family:Arial Black;font-weight:bold">FREE</text>
<g transform="translate(37 150)"><g id="T"><text x="234px" y="64px" transform="matrix(1 0 0 1 0 0) translate(-41 2)" style="fill:rgb(0,0,0);font-size:18;font-family:Arial Black;font-weight:bold">23 AD</text>
</g>
<g id="W"><text x="192px" y="84px" transform="matrix(1 0 0 1 0 0)" style="fill:rgb(0,0,0);font-size:18;font-family:Arial Black;font-weight:bold">200900-</text>
</g>
<g id="W1"><text x="192px" y="109px" transform="matrix(1 0 0 1 0 0) translate(-1 -7)" style="fill:rgb(0,0,0);font-size:18;font-family:Arial Black;font-weight:bold">272100Z SEP</text>
</g>
</g>
</g>
</g>
</svg>

</g>
</svg>