<?xml version="1.0"?>
<!DOCTYPE svg PUBLIC "-//W3C//DTD SVG 1.1//EN" "http://www.w3.org/Graphics/SVG/1.1/DTD/svg11.dtd" >
<!-- SVG content generated using Symbology Configuration Management System (SCMS) -->
<!-- Systematic Software Engineering Ltd. - www.systematic.co.uk - do not remove  -->
<svg id="WA--IRM--------" width="400px" height="400px" viewBox="0 0 400 400">
<g >
<svg viewBox="0 0 400 400" id="_0.WA--IRM--------" width="400px" height="400px"><g transform="translate(25 90) scale(7 7)" style="fill:rgb(128,98,16)"><path d="M25.313 27.875 C31.852 27.875 37.379 25.611 41.899 21.084 C46.419 16.557 48.678 11.033
				48.678 4.516 L50.625 4.516 C50.625 11.625 48.184 17.629 43.305 22.528
				C38.426 27.427 32.428 29.876 25.313 29.876 C18.245 29.876 12.258 27.427 7.356
				22.528 C2.451 17.629 0 11.625 0 4.516 L1.947 4.516 C1.947 11.034 4.205 16.557
				8.724 21.084 C13.243 25.611 18.773 27.875 25.313 27.875 zM20.125 33 L20.125
				0 L21.875 0 L21.875 33 zM28.75 33 L28.75 0 L30.5 0 L30.5 33 z"></path>
</g>
</svg>

</g>
</svg>