<?xml version="1.0"?>
<!DOCTYPE svg PUBLIC "-//W3C//DTD SVG 1.1//EN" "http://www.w3.org/Graphics/SVG/1.1/DTD/svg11.dtd" >
<!-- SVG content generated using Symbology Configuration Management System (SCMS) -->
<!-- Systematic Software Engineering Ltd. - www.systematic.co.uk - do not remove  -->
<svg id="SHGPEWXM--*****" width="400px" height="400px" viewBox="0 0 400 400">
<g >
<svg viewBox="0 0 400 400" id="_0.SHG-E----------" width="400px" height="400px"><polyline points="200,373 373,200 200,27 27,200 200,373" style="stroke-linecap:square;fill:rgb(255,128,128);stroke:rgb(0,0,0);stroke-width:10"></polyline>
</svg>

</g>
<g transform="translate(151 82) scale(6.5 5.9)" >
<svg viewBox="0 0 400 400" id="_1.S-G-EWXM-------" width="400px" height="400px"><path d="M0 15.625 L2 15.625 L2 27.875 L0 27.875 zM2.586 7.951 L1.008 6.584 L7.488 0 L13.711
			6.326 L12.336 7.902 L7.461 3.057 zM13.004 11.09 L11.688 12.602 L8.375 9.334
			L8.375 39.5 L6.5 39.5 L6.5 9.383 L3.416 12.692 L1.957 11.253 L7.49 5.65 zM6.5
			20.625 L6.5 18.68 L2.25 18.68 L2.25 20.625 zM6.5 24.943 L6.5 22.875 L2.25
			22.875 L2.25 24.943 zM12.25 20.625 L12.25 18.607 L8.375 18.673 L8.375 20.624
			L12.25 20.624 zM12.125 24.941 L12.125 22.875 L8.375 22.875 L8.375 25.016 zM12.25
			15.625 L14.375 15.625 L14.375 27.875 L12.25 27.875 z"></path>
</svg>

</g>
</svg>