<?xml version="1.0"?>
<!DOCTYPE svg PUBLIC "-//W3C//DTD SVG 1.1//EN" "http://www.w3.org/Graphics/SVG/1.1/DTD/svg11.dtd" >
<!-- SVG content generated using Symbology Configuration Management System (SCMS) -->
<!-- Systematic Software Engineering Ltd. - www.systematic.co.uk - do not remove  -->
<svg id="G*MPOFA---****X" width="400px" height="400px" viewBox="0 0 400 400">
<g >
<svg viewBox="0 0 400 400" id="_0.G-MPOFA-------X" width="400px" height="400px"><path d="M30 175 L30 125 C30 95 55 75 100 75 L175 75 M225 75 L300 75 C345 75 370 95 370 125
			L370 175 M370 225 L370 275 C370 305 345 325 300 325 L225 325 M175 325 L100
			325 C55 325 30 305 30 275 L30 225" style="fill:none;stroke:rgb(0,0,0);stroke-width:5"></path>
<text x="186px" y="90px" style="fill:rgb(0,0,0);stroke:rgb(0,0,0);font-size:36;font-family:Arial">M</text>
<text x="356px" y="215px" style="fill:rgb(0,0,0);stroke:rgb(0,0,0);font-size:36;font-family:Arial">M</text>
<text x="16px" y="215px" style="fill:rgb(0,0,0);stroke:rgb(0,0,0);font-size:36;font-family:Arial">M</text>
<text x="186px" y="340px" style="fill:rgb(0,0,0);stroke:rgb(0,0,0);font-size:36;font-family:Arial">M</text>
</svg>

</g>
</svg>