<?xml version="1.0"?>
<!DOCTYPE svg PUBLIC "-//W3C//DTD SVG 1.1//EN" "http://www.w3.org/Graphics/SVG/1.1/DTD/svg11.dtd" >
<!-- SVG content generated using Symbology Configuration Management System (SCMS) -->
<!-- Systematic Software Engineering Ltd. - www.systematic.co.uk - do not remove  -->
<svg id="WA--PFO--------" width="400px" height="400px" viewBox="0 0 400 400">
<g >
<svg viewBox="0 0 400 400" id="_0.WA--PFO--------" width="400px" height="400px"><g transform="translate(0 60) scale(0.8 0.8)"><g style="fill:rgb(226,159,255);stroke:rgb(226,159,255)" transform="translate(-425 -500) scale(2.75 3)"><line x1="156" y1="236" x2="333.145" y2="235.962" style="fill:rgb(226,159,255);stroke:rgb(226,159,255);stroke-width:2"></line>
<path d="M164.692 235.121 C165.15 222.77 193.056 219.461 194.146 235.849" transform="translate(8.91089 0) translate(9.45455 -40.3636) translate(-8.16327 39.7959) translate(-6.12245 -1.02041) translate(0.222222 1.77778) translate(13.7778 -40.8889) translate(-3 28.6923) translate(-9.69231 12.6154)" style="fill:rgb(226,159,255);stroke:rgb(226,159,255);stroke-width:2"></path>
<line x1="182.138" y1="193.803" x2="212.592" y2="194.573" transform="translate(-3 28.6923) translate(-9.69231 12.6154)" style="fill:rgb(226,159,255);stroke:rgb(226,159,255);stroke-width:1"></line>
<path d="M164.692 235.121 C165.15 222.77 193.056 219.461 194.146 235.849" transform="matrix(1 0 0 1 71.3654 20.6364) translate(23.4694 -20.4082) translate(33.0909 -0.727273) translate(-48 0) translate(1.45455 0.363636)" style="fill:rgb(226,159,255);stroke:rgb(226,159,255);stroke-width:2"></path>
<polygon points="238.5,166.041 250,185.959 227,185.959" transform="matrix(1 0 0 1.50613 0 -89.0791) translate(-18.1818 29.4554)" style="fill:rgb(226,159,255);stroke:rgb(226,159,255);stroke-width:1"></polygon>
<polygon points="238.5,166.041 250,185.959 227,185.959" transform="matrix(1 0 0 1.50613 31 -26.0791) translate(36.3636 -12.5548)" style="fill:rgb(226,159,255);stroke:rgb(226,159,255);stroke-width:1"></polygon>
</g>
</g>
</svg>

</g>
</svg>