<?xml version="1.0"?>
<!DOCTYPE svg PUBLIC "-//W3C//DTD SVG 1.1//EN" "http://www.w3.org/Graphics/SVG/1.1/DTD/svg11.dtd" >
<!-- SVG content generated using Symbology Configuration Management System (SCMS) -->
<!-- Systematic Software Engineering Ltd. - www.systematic.co.uk - do not remove  -->
<svg id="G*GPOLT---****X" width="400px" height="400px" viewBox="0 0 400 400">
<g >
<svg viewBox="0 0 400 400" id="_0.G-GPOLT-------X" width="400px" height="400px"><g transform="translate(-160 -150) scale(1.5 1.5)"><line x1="164" y1="205" x2="296" y2="205" style="fill:rgb(0,0,0);stroke:rgb(0,0,0);stroke-width:2" transform="matrix(1 0 0 1 13 0)"></line>
<text x="148px" y="341px" transform="matrix(1 0 0 1 -17 -135) translate(1 0) translate(1 0) translate(1 0) translate(1 0) translate(1 0) translate(1 0) translate(1 0) translate(1 0) translate(1 0) translate(1 0) translate(1 0) translate(1 0) translate(1 0) translate(1 0) translate(1 0) translate(1 0) translate(1 0) translate(1 0)" style="fill:rgb(0,0,0);font-family:Arial Black;font-weight:bold;font-size:12">LD</text>
<text x="236px" y="258px" transform="matrix(1 0 0 1 84 -47)" style="fill:rgb(0,0,0);font-family:Arial Black;font-weight:bold;font-size:12">LD</text>
<text x="98px" y="123px" transform="matrix(1 0 0 1 0 0) translate(12 104)" style="fill:rgb(0,0,0);stroke-width:1;font-family:Arial Black;font-weight:bold;font-size:12;     ">(PL</text>
<g id="T1" transform="translate(-40 -8) translate(12 104)"><rect x="166" y="120" width="16" height="13" transform="matrix(1 0 0 1 0 0) translate(0 -1) translate(3 2) translate(0 1) translate(174 133) scale(1 1.15385) translate(-174 -133) translate(182 126.5) scale(1.375 1) translate(-182 -126.5) translate(174 133) scale(1 1.53333) translate(-174 -133) translate(174 133) scale(1 0.913043) translate(-174 -133) translate(0 0.619048) translate(0 0.619048) translate(0.727273 0) translate(-0.727273 0)" style="fill:rgb(255,255,255);stroke:rgb(0,0,0);stroke-width:2"></rect>
<text x="170px" y="131px" transform="matrix(1 0 0 1 0 0)" style="fill:rgb(0,0,0);stroke-width:1;font-family:Arial Black;font-weight:bold;font-size:12;      ">T</text>
</g>
<text x="184px" y="108px" transform="matrix(1 0 0 1 0 0) translate(-34 13) translate(0 1) translate(0 1) translate(12 104)" style="fill:rgb(0,0,0);stroke-width:1;font-family:Arial Black;font-weight:bold;font-size:12;     ">)</text>
<text x="290px" y="136px" transform="matrix(1 0 0 1 0 0) translate(26 95)" style="fill:rgb(0,0,0);stroke-width:1;font-family:Arial Black;font-weight:bold;font-size:12;     ">(PL</text>
<g id="T2" transform="translate(-10 17) translate(1 0) translate(0 1) translate(0 1) translate(26 95)"><rect x="166" y="120" width="16" height="13" transform="matrix(1.375 0 0 1.61539 10.75 46.1537) translate(61.8182 -85.4285) translate(0 -0.619047) translate(-0.727273 0) translate(0 0.619047)" style="fill:rgb(255,255,255);stroke:rgb(0,0,0);stroke-width:2"></rect>
<text x="330px" y="117px" transform="matrix(1 0 0 1 0 0)" style="fill:rgb(0,0,0);stroke-width:1;font-family:Arial Black;font-weight:bold;font-size:12;      ">T</text>
</g>
<text x="354px" y="116px" transform="matrix(1 0 0 1 0 0) translate(-14 19) translate(0 1) translate(26 95)" style="fill:rgb(0,0,0);stroke-width:1;font-family:Arial Black;font-weight:bold;font-size:12;     ">)</text>
<line x1="176" y1="214" x2="176" y2="232" transform="matrix(1 0 0 1 0 0)" style="fill:rgb(0,0,0);stroke:rgb(0,0,0);stroke-width:2"></line>
<line x1="175.833" y1="231.324" x2="190" y2="244" transform="matrix(1 0 0 1 0 0)" style="fill:rgb(0,0,0);stroke:rgb(0,0,0);stroke-width:2"></line>
<line x1="308" y1="212" x2="308" y2="230" transform="matrix(1 0 0 1 0 0)" style="fill:rgb(0,0,0);stroke:rgb(0,0,0);stroke-width:2"></line>
<line x1="308.476" y1="229.467" x2="292" y2="244" transform="matrix(1 0 0 1 0 0)" style="fill:rgb(0,0,0);stroke:rgb(0,0,0);stroke-width:2"></line>
<g id="PT.%201" transform="translate(119 146)"><text x="74px" y="104px" transform="matrix(1 0 0 1 0 0)" style="fill:rgb(0,0,0);stroke-width:1;font-family:Arial Black;font-weight:bold;font-size:12;      ">PT. 1</text>
</g>
<g id="PT.%202" transform="translate(91 164)"><text x="166px" y="88px" transform="matrix(1 0 0 1 0 0)" style="fill:rgb(0,0,0);stroke-width:1;font-family:Arial Black;font-weight:bold;font-size:12;      ">PT. 2</text>
</g>
<polygon points="105,133.17 110,141.83 100,141.83" transform="matrix(1 0 0 1.50111 0 -68.9027) translate(71 51.9615)" style="fill:rgb(0,0,0);stroke:rgb(0,0,0);stroke-width:2"></polygon>
<polygon points="105,133.17 110,141.83 100,141.83" transform="matrix(1 0 0 1.50111 145 45.0973) translate(57 -23.3161) translate(1 0)" style="fill:rgb(0,0,0);stroke:rgb(0,0,0);stroke-width:2"></polygon>
</g>
</svg>

</g>
</svg>