<?xml version="1.0"?>
<!DOCTYPE svg PUBLIC "-//W3C//DTD SVG 1.1//EN" "http://www.w3.org/Graphics/SVG/1.1/DTD/svg11.dtd" >
<!-- SVG content generated using Symbology Configuration Management System (SCMS) -->
<!-- Systematic Software Engineering Ltd. - www.systematic.co.uk - do not remove  -->
<svg id="ONOPYT----*****" width="400px" height="400px" viewBox="0 0 400 400">
<g >
<svg viewBox="0 0 400 400" id="_0.SNG-U----------" width="400px" height="400px"><rect x="68" y="68" width="264" height="264" style="fill:rgb(170,255,170);stroke:rgb(0,0,0);stroke-width:10"></rect>
</svg>

</g>
<g >
<svg viewBox="0 0 400 400" id="_1.O-O-Y----------" width="400px" height="400px"><polyline points="120,160 120,240 210,240 250,280 250,120 210,160 120,160 120,240" style="fill:rgb(255,255,255);stroke:rgb(0,0,0);stroke-width:10"></polyline>
<line x1="250" y1="217" x2="290" y2="217" style="fill:none;stroke:rgb(0,0,0);stroke-width:10"></line>
<line x1="250" y1="183" x2="290" y2="183" style="fill:none;stroke:rgb(0,0,0);stroke-width:10"></line>
<line x1="250" y1="150" x2="290" y2="150" style="fill:none;stroke:rgb(0,0,0);stroke-width:10" transform="translate(270 150) scale(1 1) translate(-270 -150)"></line>
<line x1="250" y1="250" x2="290" y2="250" style="fill:none;stroke:rgb(0,0,0);stroke-width:10"></line>
</svg>

</g>
<g >
<svg viewBox="0 0 400 400" id="_2.ONO-YT---------" width="400px" height="400px"><line x1="68" y1="68" x2="200" y2="220" style="fill:none;stroke:rgb(0,0,0);stroke-width:10"></line>
<line x1="200" y1="180" x2="332" y2="332" style="fill:none;stroke:rgb(0,0,0);stroke-width:10"></line>
<line x1="200" y1="177" x2="200" y2="223" style="fill:none;stroke:rgb(0,0,0);stroke-width:10"></line>
</svg>

</g>
</svg>