<?xml version="1.0"?>
<!DOCTYPE svg PUBLIC "-//W3C//DTD SVG 1.1//EN" "http://www.w3.org/Graphics/SVG/1.1/DTD/svg11.dtd" >
<!-- SVG content generated using Symbology Configuration Management System (SCMS) -->
<!-- Systematic Software Engineering Ltd. - www.systematic.co.uk - do not remove  -->
<svg id="G*GPOAK---****X" width="400px" height="400px" viewBox="0 0 400 400">
<g >
<svg viewBox="0 0 400 400" id="_0.G-GPOAK-------X" width="400px" height="400px"><g transform="translate(-160 -180) scale(1.5 1.5)"><path d="M273.5 115 C329.004 115 375 101.55 374 184 C373 266.45 329.004 253 273.5 253 C217.996      253 174 279.45 173 184 C172 88.5495 217.996 115 273.5 115 z" style="fill:rgb(255,255,255);stroke:rgb(0,0,0);stroke-width:2" transform="matrix(1 0 0 1 -32 72)"></path>
<text x="248px" y="343px" transform="matrix(1 0 0 1 -35 -81)" style="fill:rgb(0,0,0);font-size:12;font-family:Arial Black;font-weight:bold">ATK</text>
<g id="T" transform="translate(143 161)"><rect x="104" y="85" width="28" height="22" transform="matrix(1 0 0 1 0 0) translate(0 -1)" style="fill:rgb(255,255,255);stroke:rgb(0,0,0);stroke-width:2"></rect>
<text x="114px" y="100px" transform="matrix(1 0 0 1 0 0)" style="fill:rgb(0,0,0);stroke-width:1;font-family:Arial Black;font-weight:bold;font-size:12;      ">T</text>
</g>
</g>
</svg>

</g>
</svg>