<?xml version="1.0"?>
<!DOCTYPE svg PUBLIC "-//W3C//DTD SVG 1.1//EN" "http://www.w3.org/Graphics/SVG/1.1/DTD/svg11.dtd" >
<!-- SVG content generated using Symbology Configuration Management System (SCMS) -->
<!-- Systematic Software Engineering Ltd. - www.systematic.co.uk - do not remove  -->
<svg id="G*GPOLP---****X" width="400px" height="400px" viewBox="0 0 400 400">
<g >
<svg viewBox="0 0 400 400" id="_0.G-GPOLP-------X" width="400px" height="400px"><g transform="translate(-180 -170) scale(1.5 1.5)"><text x="210px" y="343px" transform="matrix(1 0 0 1 -68 -118) translate(1 0) translate(1 0) translate(1 0) translate(1 0) translate(1 0) translate(1 0) translate(1 0) translate(1 0) translate(1 0) translate(1 0) translate(1 0) translate(1 0) translate(0 -1) translate(0 -1) translate(0 -1) translate(1 0) translate(-18 -2)" style="fill:rgb(0,0,0);font-family:Arial Black;font-weight:bold;font-size:12">PLD</text>
<text x="231px" y="257px" transform="matrix(1 0 0 1 97 -33) translate(0 -1) translate(7 -2)" style="fill:rgb(0,0,0);font-family:Arial Black;font-weight:bold;font-size:12">PLD</text>
<line x1="165" y1="205" x2="179" y2="205" style="fill:rgb(0,0,0);stroke:rgb(0,0,0);stroke-width:2" transform="matrix(1 0 0 1 25 14)"></line>
<line x1="187" y1="205" x2="206" y2="205" style="fill:rgb(0,0,0);stroke:rgb(0,0,0);stroke-width:2" transform="matrix(1 0 0 1 25 14)"></line>
<line x1="212" y1="205" x2="227" y2="205" style="fill:rgb(0,0,0);stroke:rgb(0,0,0);stroke-width:2" transform="matrix(1 0 0 1 25 14)"></line>
<line x1="233" y1="205" x2="247" y2="205" style="fill:rgb(0,0,0);stroke:rgb(0,0,0);stroke-width:2" transform="matrix(1 0 0 1 25 14)"></line>
<line x1="255" y1="205" x2="269" y2="205" style="fill:rgb(0,0,0);stroke:rgb(0,0,0);stroke-width:2" transform="matrix(1 0 0 1 25 14)"></line>
<line x1="280" y1="205" x2="295" y2="205" style="fill:rgb(0,0,0);stroke:rgb(0,0,0);stroke-width:2" transform="matrix(1 0 0 1 25 14)"></line>
<text x="140px" y="258px" transform="matrix(1 0 0 1 -14 -20)" style="fill:rgb(0,0,0);stroke-width:1;font-family:Arial Black;font-weight:bold;font-size:12;     ">(PL</text>
<g id="T1" transform="matrix(1 0 0 1 -27 -88)"><rect x="180" y="315" width="12" height="14" transform="matrix(1 0 0 1 0 0) translate(180 315) scale(1 1) translate(-180 -315) translate(1 0) translate(192 322) scale(1.16667 1) translate(-192 -322)" style="fill:rgb(255,255,255);stroke:rgb(0,0,0);stroke-width:2"></rect>
<text x="182px" y="327px" transform="matrix(1 0 0 1 0 0)" style="fill:rgb(0,0,0);stroke-width:1;font-family:Arial Black;font-weight:bold;font-size:12;      ">T</text>
</g>
<text x="204px" y="324px" transform="matrix(1 0 0 1 -34 -86)" style="fill:rgb(0,0,0);stroke-width:1;font-family:Arial Black;font-weight:bold;font-size:12;     ">)</text>
<text x="290px" y="276px" transform="matrix(1 0 0 1 37 -38)" style="fill:rgb(0,0,0);stroke-width:1;font-family:Arial Black;font-weight:bold;font-size:12;     ">(PL</text>
<g id="T2" transform="matrix(1 0 0 1 23 -86)"><rect x="180" y="315" width="12" height="14" transform="matrix(1 0 0 1 64 -72) translate(89 68) translate(0 1) translate(-1 0) translate(0 1) translate(180 322) scale(1.25 1) translate(-180 -322) translate(-0.8 0)" style="fill:rgb(255,255,255);stroke:rgb(0,0,0);stroke-width:2"></rect>
<text x="334px" y="324px" transform="matrix(1 0 0 1 0 0) translate(0 1)" style="fill:rgb(0,0,0);stroke-width:1;font-family:Arial Black;font-weight:bold;font-size:12;      ">T</text>
</g>
<text x="386px" y="320px" transform="matrix(1 0 0 1 -13 -82)" style="fill:rgb(0,0,0);stroke-width:1;font-family:Arial Black;font-weight:bold;font-size:12;     ">)</text>
<g id="PT.%201" transform="translate(-37 -102)"><text x="250px" y="389px" transform="matrix(1 0 0 1 0 0)" style="fill:rgb(0,0,0);stroke-width:1;font-family:Arial Black;font-weight:bold;font-size:12;      ">PT. 1</text>
</g>
<g id="PT.%202" transform="translate(-108 -100)"><text x="374px" y="386px" transform="matrix(1 0 0 1 0 0)" style="fill:rgb(0,0,0);stroke-width:1;font-family:Arial Black;font-weight:bold;font-size:12;      ">PT. 2</text>
</g>
<line x1="190" y1="231" x2="190" y2="262" transform="matrix(1 0 0 1 0 0)" style="fill:rgb(0,0,0);stroke:rgb(0,0,0);stroke-width:2"></line>
<line x1="189.739" y1="261.202" x2="212" y2="280" transform="matrix(1 0 0 1 0 0)" style="fill:rgb(0,0,0);stroke:rgb(0,0,0);stroke-width:2"></line>
<line x1="320" y1="232" x2="320" y2="264" transform="matrix(1 0 0 1 0 0)" style="fill:rgb(0,0,0);stroke:rgb(0,0,0);stroke-width:2"></line>
<line x1="320.448" y1="263.384" x2="302" y2="279" transform="matrix(1 0 0 1 0 0)" style="fill:rgb(0,0,0);stroke:rgb(0,0,0);stroke-width:2"></line>
<polygon points="52,73.5359 56,80.4641 48,80.4641" transform="matrix(1 0 0 2.59808 0 -123.052) translate(138 59.2746) translate(-1 1.1547) translate(1 0)" style="fill:rgb(0,0,0);stroke:rgb(0,0,0);stroke-width:2"></polygon>
<polygon points="52,73.5359 56,80.4641 48,80.4641" transform="matrix(1 0 0 2.59808 267 32.948)" style="fill:rgb(0,0,0);stroke:rgb(0,0,0);stroke-width:2"></polygon>
</g>
</svg>

</g>
</svg>