<?xml version="1.0"?>
<!DOCTYPE svg PUBLIC "-//W3C//DTD SVG 1.1//EN" "http://www.w3.org/Graphics/SVG/1.1/DTD/svg11.dtd" >
<!-- SVG content generated using Symbology Configuration Management System (SCMS) -->
<!-- Systematic Software Engineering Ltd. - www.systematic.co.uk - do not remove  -->
<svg id="G*GPGPO---****X" width="400px" height="400px" viewBox="0 0 400 400">
<g >
<svg viewBox="0 0 400 400" id="_0.G-GPGPO-------X" width="400px" height="400px"><line x1="25" y1="200" x2="375" y2="200" style="fill:none;stroke:rgb(0,0,0);stroke-width:15"></line>
<path d="M25 125 C35 85 85 85 95 125 C105 165 155 165 165 125 C175 85 225 85 235 125 C245
			165 295 165 305 125 C315 85 365 85 375 125" style="fill:none;stroke:rgb(0,0,0);stroke-width:10"></path>
<path transform="translate(0 150)" d="M25 125 C35 85 85 85 95 125 C105 165 155 165 165 125 C175 85 225 85 235 125 C245
			165 295 165 305 125 C315 85 365 85 375 125" style="fill:none;stroke:rgb(0,0,0);stroke-width:10"></path>
</svg>

</g>
<g >
<svg viewBox="0 0 400 400" id="_1.GAR12---------X" width="400px" height="400px"><line x1="200" y1="55" x2="200" y2="175" style="fill:none;stroke:rgb(0,0,0);stroke-width:3"></line>
<polygon points="193,170 207,170 200,187" style="fill:rgb(0,0,0);stroke:rgb(0,0,0);stroke-width:3"></polygon>
</svg>

</g>
<g transform="translate(0 -170)" >
<svg viewBox="0 0 400 400" id="_2.GC------------X" width="400px" height="400px"><text x="149px" y="195px" style="fill:rgb(0,0,0);stroke:rgb(0,0,0);font-size:24;font-family:Arial">CENTER</text>
<text x="160px" y="220px" style="fill:rgb(0,0,0);stroke:rgb(0,0,0);font-size:24;font-family:Arial">POINT</text>
</svg>

</g>
</svg>