<?xml version="1.0"?>
<!DOCTYPE svg PUBLIC "-//W3C//DTD SVG 1.1//EN" "http://www.w3.org/Graphics/SVG/1.1/DTD/svg11.dtd" >
<!-- SVG content generated using Symbology Configuration Management System (SCMS) -->
<!-- Systematic Software Engineering Ltd. - www.systematic.co.uk - do not remove  -->
<svg id="G*MPOAR---****X" width="400px" height="400px" viewBox="0 0 400 400">
<g >
<svg viewBox="0 0 400 400" id="_0.G-MPOAR-------X" width="400px" height="400px"><g transform="scale(0.8 0.8)"><polygon points="115,178.278 132,207.722 98,207.722" transform="matrix(1 0 0 -1.22262 -64.6923 480.283)" style="fill:rgb(0,0,0);stroke:rgb(0,0,0);stroke-width:2"></polygon>
<polygon points="115,178.278 132,207.722 98,207.722" transform="matrix(1 0 0 -1.22262 46.2244 479.782)" style="fill:rgb(0,0,0);stroke:rgb(0,0,0);stroke-width:2"></polygon>
<polygon points="115,178.278 132,207.722 98,207.722" transform="matrix(1 0 0 -1.22262 -7.6923 480.283)" style="fill:rgb(0,0,0);stroke:rgb(0,0,0);stroke-width:2"></polygon>
<polygon points="115,178.278 132,207.722 98,207.722" transform="matrix(1 0 0 -1.22262 95.3077 479.699)" style="fill:rgb(0,0,0);stroke:rgb(0,0,0);stroke-width:2"></polygon>
<polygon points="115,178.278 132,207.722 98,207.722" transform="matrix(1 0 0 -1.22262 145.308 480.283)" style="fill:rgb(0,0,0);stroke:rgb(0,0,0);stroke-width:2"></polygon>
<polygon points="115,178.278 132,207.722 98,207.722" transform="matrix(1 0 0 -1.22262 195.308 480.283)" style="fill:rgb(0,0,0);stroke:rgb(0,0,0);stroke-width:2"></polygon>
<polygon points="115,178.278 132,207.722 98,207.722" transform="matrix(1 0 0 -1.22262 260.308 480.283)" style="fill:rgb(0,0,0);stroke:rgb(0,0,0);stroke-width:2"></polygon>
<polygon points="115,178.278 132,207.722 98,207.722" transform="matrix(1 0 0 -1.22262 329.308 480.283)" style="fill:rgb(0,0,0);stroke:rgb(0,0,0);stroke-width:2"></polygon>
<line x1="2" y1="150" x2="458" y2="150" transform="matrix(1 0 0 1 19.3077 74.5385)" style="fill:rgb(0,0,0);stroke:rgb(0,0,0);stroke-width:2"></line>
<circle cx="62.5" cy="195.5" r="12.5" transform="matrix(1 0 0 1 14.4231 51.9231)" style="fill:rgb(0,0,0);stroke:rgb(0,0,0);stroke-width:2"></circle>
<circle cx="250.5" cy="250.5" r="12.5" transform="matrix(1 0 0 1 222.116 -4.8077)" style="fill:rgb(0,0,0);stroke:rgb(0,0,0);stroke-width:2"></circle>
<circle cx="250.5" cy="250.5" r="12.5" transform="matrix(1 0 0 1 156.731 -3.8461)" style="fill:rgb(0,0,0);stroke:rgb(0,0,0);stroke-width:2"></circle>
<circle cx="250.5" cy="250.5" r="12.5" transform="matrix(1 0 0 1 89.4231 -3.8461)" style="fill:rgb(0,0,0);stroke:rgb(0,0,0);stroke-width:2"></circle>
<circle cx="250.5" cy="250.5" r="12.5" transform="matrix(1 0 0 1 34.6155 -2.88456)" style="fill:rgb(0,0,0);stroke:rgb(0,0,0);stroke-width:2"></circle>
<circle cx="250.5" cy="250.5" r="12.5" transform="matrix(1 0 0 1 -15.3846 -4.8077)" style="fill:rgb(0,0,0);stroke:rgb(0,0,0);stroke-width:2"></circle>
<circle cx="250.5" cy="250.5" r="12.5" transform="matrix(1 0 0 1 -65.3846 -3.8461)" style="fill:rgb(0,0,0);stroke:rgb(0,0,0);stroke-width:2"></circle>
<circle cx="250.5" cy="250.5" r="12.5" transform="matrix(1 0 0 1 -116.346 -3.84615)" style="fill:rgb(0,0,0);stroke:rgb(0,0,0);stroke-width:2"></circle>
<line x1="22" y1="217" x2="22" y2="193" transform="matrix(1 0 0 1 0 0)" style="fill:rgb(0,0,0);stroke:rgb(0,0,0);stroke-width:2"></line>
<line x1="21.5833" y1="193.833" x2="48" y2="180" transform="matrix(1 0 0 1 0 0)" style="fill:rgb(0,0,0);stroke:rgb(0,0,0);stroke-width:2"></line>
<line x1="478" y1="215" x2="478" y2="192" transform="matrix(1 0 0 1 0 0)" style="fill:rgb(0,0,0);stroke:rgb(0,0,0);stroke-width:2"></line>
<line x1="478.333" y1="192.833" x2="452" y2="182" transform="matrix(1 0 0 1 0 0)" style="fill:rgb(0,0,0);stroke:rgb(0,0,0);stroke-width:2"></line>
<polygon points="115,42.4378 122,54.5622 108,54.5622" transform="matrix(1 0 0 -1.40214 0 115.101) translate(-94 -117.678) translate(1 0)" style="fill:rgb(0,0,0);stroke:rgb(0,0,0);stroke-width:2"></polygon>
<polygon points="115,42.4378 122,54.5622 108,54.5622" transform="matrix(1 0 0 -1.40214 135 318.102) translate(226 27.8146) translate(1 0) translate(1 0)" style="fill:rgb(0,0,0);stroke:rgb(0,0,0);stroke-width:2"></polygon>
<g id="PT.%201" transform="translate(-43 113)"><text x="94px" y="71px" transform="matrix(1 0 0 1 0 0)" style="fill:rgb(0,0,0);stroke-width:1;font-family:Arial Black;font-weight:bold;font-size:12;      ">PT. 1</text>
</g>
<g id="PT.%202" transform="translate(138 49)"><text x="276px" y="136px" transform="matrix(1 0 0 1 0 0)" style="fill:rgb(0,0,0);stroke-width:1;font-family:Arial Black;font-weight:bold;font-size:12;      ">PT. 2</text>
</g>
</g>
</svg>

</g>
</svg>