<?xml version="1.0"?>
<!DOCTYPE svg PUBLIC "-//W3C//DTD SVG 1.1//EN" "http://www.w3.org/Graphics/SVG/1.1/DTD/svg11.dtd" >
<!-- SVG content generated using Symbology Configuration Management System (SCMS) -->
<!-- Systematic Software Engineering Ltd. - www.systematic.co.uk - do not remove  -->
<svg id="G*GPAPU---****X" width="400px" height="400px" viewBox="0 0 400 400">
<g transform="translate(-60 0)" >
<svg viewBox="0 0 400 400" id="_0.G-G-AP--------X" width="400px" height="400px"><circle cx="200" cy="200" r="125" transform="matrix(1 0 0 1 0 0)" style="fill:none;stroke:rgb(0,0,0);stroke-width:5"></circle>
</svg>

</g>
<g >
<svg viewBox="0 0 400 400" id="_1.G-G-APU-------X" width="400px" height="400px"><polygon points="75,235 75,165 215,235 215,165" style="fill:none;stroke:rgb(0,0,0);stroke-width:5"></polygon>
<text x="276px" y="222px" style="fill:rgb(0,0,0);stroke:rgb(0,0,0);font-size:60;font-family:Arial">PUP</text>
</svg>

</g>
<g transform="translate(80 130)" >
<svg viewBox="0 0 400 400" id="_2.GC------------X" width="400px" height="400px"><text x="149px" y="195px" style="fill:rgb(0,0,0);stroke:rgb(0,0,0);font-size:24;font-family:Arial">CENTER</text>
<text x="160px" y="220px" style="fill:rgb(0,0,0);stroke:rgb(0,0,0);font-size:24;font-family:Arial">POINT</text>
</svg>

</g>
<g transform="translate(-60 10)" >
<svg viewBox="0 0 400 400" id="_3.GAR6----------X" width="400px" height="400px"><line x1="338" y1="294" x2="205" y2="204" transform="matrix(1 0 0 1 0 0)" style="fill:none;stroke:rgb(0,0,0);stroke-width:3"></line>
<polygon points="208.8,212.545 203.345,202.727 214.436,204.727" transform="matrix(1 0 0 1 0 0)" style="fill:rgb(0,0,0);stroke:rgb(0,0,0);stroke-width:3"></polygon>
</svg>

</g>
</svg>