<?xml version="1.0"?>
<!DOCTYPE svg PUBLIC "-//W3C//DTD SVG 1.1//EN" "http://www.w3.org/Graphics/SVG/1.1/DTD/svg11.dtd" >
<!-- SVG content generated using Symbology Configuration Management System (SCMS) -->
<!-- Systematic Software Engineering Ltd. - www.systematic.co.uk - do not remove  -->
<svg id="G*TPB-----****X" width="400px" height="400px" viewBox="0 0 400 400">
<g >
<svg viewBox="0 0 400 400" id="_0.G-TPB---------X" width="400px" height="400px"><g><g><line x1="87" y1="214" x2="168" y2="214" style="fill:none;stroke:rgb(0,0,0);stroke-width:2" transform="matrix(1.25 0 0 1.25 -102.5 -75)"></line>
<text x="173px" y="219px" style="fill:rgb(0,0,0);font-size:14;font-family:Arial Black;font-weight:bold" transform="matrix(1.25 0 0 1.25 -102.5 -75) translate(0 0)">B</text>
<line x1="190" y1="214" x2="299" y2="214" style="fill:none;stroke:rgb(0,0,0);stroke-width:2" transform="matrix(1.25 0 0 1.25 -102.5 -75)"></line>
<line x1="302" y1="148" x2="302" y2="276" transform="matrix(1.25 0 0 1.25 -106.25 -72.5)" style="fill:none;stroke:rgb(0,0,0);stroke-width:2"></line>
</g>
<g transform="matrix(1.25 0 0 1.25 182.5 75)"><rect x="98" y="73" width="56" height="51" transform="matrix(1 0 0 1 0 0) rotate(48.3169 126 98.5)" style="fill:rgb(255,128,128);stroke:rgb(0,0,0);stroke-width:2"></rect>
<path transform="matrix(1 0 0 1 0 0) translate(0 -3)" d="M125 89 C137.702 89 149 88.3726 148 101 C147 113.627 137.702 113 125 113 C112.298
					113 101 115.627 102 101 C103 86.3726 112.298 89 125 89 z" style="fill:rgb(255,128,128);stroke:rgb(0,0,0);stroke-width:2"></path>
<text x="118px" y="41px" transform="matrix(1 0 0 1 0 0) translate(2 15) translate(1 0)" style="fill:rgb(0,0,0);font-size:14;font-family:Arial Black;font-weight:bold">II</text>
</g>
</g>
</svg>

</g>
</svg>