<?xml version="1.0"?>
<!DOCTYPE svg PUBLIC "-//W3C//DTD SVG 1.1//EN" "http://www.w3.org/Graphics/SVG/1.1/DTD/svg11.dtd" >
<!-- SVG content generated using Symbology Configuration Management System (SCMS) -->
<!-- Systematic Software Engineering Ltd. - www.systematic.co.uk - do not remove  -->
<svg id="G*GPGLL---****X" width="400px" height="400px" viewBox="0 0 400 400">
<g >
<svg viewBox="0 0 400 400" id="_0.G-GPGLL-------X" width="400px" height="400px"><g transform="translate(-180 -170) scale(1.5 1.5)"><line x1="162" y1="225" x2="304" y2="225" style="fill:rgb(0,0,0);stroke:rgb(0,0,0);stroke-width:2" transform="matrix(1 0 0 1 28 1)"></line>
<text x="230px" y="402px" transform="matrix(1 0 0 1 -86 -180) translate(1 0) translate(0 1)" style="fill:rgb(0,0,0);font-family:Arial Black;font-weight:bold;font-size:12">LL</text>
<text x="238px" y="257px" transform="matrix(1 0 0 1 107 -30) translate(1 0) translate(1 0) translate(1 0) translate(1 0) translate(1 0) translate(1 0) translate(1 0) translate(1 0) translate(1 0)" style="fill:rgb(0,0,0);font-family:Arial Black;font-weight:bold;font-size:12">LL</text>
<g id="T1" transform="translate(92 146) translate(-1 0) translate(-1 0) translate(-1 0) translate(-1 0) translate(-1 0) translate(-1 0) translate(-1 0) translate(-1 0) translate(-1 0) translate(-1 0) translate(-104 -77) translate(93 77)"><rect x="80" y="83" width="16" height="17" transform="matrix(1 0 0 1 0 0)" style="fill:rgb(255,255,255);stroke:rgb(0,0,0);stroke-width:2"></rect>
<text x="84px" y="96px" transform="matrix(1 0 0 1 0 0)" style="fill:rgb(0,0,0);stroke-width:1;font-family:Arial Black;font-weight:bold;font-size:12;      ">T</text>
</g>
<g id="T2" transform="translate(140 138) translate(1 0) translate(1 0) translate(1 0) translate(1 0) translate(1 0) translate(1 0) translate(1 0) translate(1 0) translate(1 0) translate(1 0) translate(1 0) translate(1 0) translate(1 0) translate(1 0) translate(1 0) translate(1 0) translate(1 0) translate(1 0) translate(1 0) translate(1 0) translate(1 0) translate(1 0)"><rect x="80" y="83" width="16" height="17" transform="matrix(1 0 0 1 162 159) translate(-62 -151) translate(0 1) translate(0 1)" style="fill:rgb(255,255,255);stroke:rgb(0,0,0);stroke-width:2"></rect>
<text x="184px" y="106px" transform="matrix(1 0 0 1 0 0)" style="fill:rgb(0,0,0);stroke-width:1;font-family:Arial Black;font-weight:bold;font-size:12;      ">T</text>
</g>
<g id="PT.%201" transform="translate(37 131)"><text x="166px" y="150px" transform="matrix(1 0 0 1 0 0)" style="fill:rgb(0,0,0);stroke-width:1;font-family:Arial Black;font-weight:bold;font-size:12;      ">PT. 1</text>
</g>
<g id="PT.%202"><text x="286px" y="155px" transform="matrix(1 0 0 1 -12 126)" style="fill:rgb(0,0,0);stroke-width:1;font-family:Arial Black;font-weight:bold;font-size:12;      ">PT. 2</text>
</g>
<line x1="330" y1="237" x2="330" y2="265" transform="matrix(1 0 0 1 0 0)" style="fill:rgb(0,0,0);stroke:rgb(0,0,0);stroke-width:2"></line>
<line x1="330.484" y1="264.344" x2="312" y2="276" transform="matrix(1 0 0 1 0 0)" style="fill:rgb(0,0,0);stroke:rgb(0,0,0);stroke-width:2"></line>
<line x1="188" y1="232" x2="188" y2="259" transform="matrix(1 0 0 1 0 0)" style="fill:rgb(0,0,0);stroke:rgb(0,0,0);stroke-width:2"></line>
<line x1="187.498" y1="258.201" x2="200" y2="271" transform="matrix(1 0 0 1 0 0)" style="fill:rgb(0,0,0);stroke:rgb(0,0,0);stroke-width:2"></line>
<polygon points="199,184.634 200,186.366 198,186.366" transform="matrix(1 0 0 2.88675 0 -349.992) translate(-10.9091 16.5017) translate(0 0.503869)" style="fill:rgb(0,0,0);stroke:rgb(0,0,0);stroke-width:2"></polygon>
<polygon points="199,184.634 200,186.366 198,186.366" transform="matrix(1 0 0 2.88675 73 -267.992) translate(58.5455 -11.589) translate(-0.727273 0.377902)" style="fill:rgb(0,0,0);stroke:rgb(0,0,0);stroke-width:2"></polygon>
<text x="34px" y="165px" transform="matrix(1 0 0 1 0 0) translate(93 77)" style="fill:rgb(0,0,0);stroke-width:1;font-family:Arial Black;font-weight:bold;font-size:12;     ">(PL</text>
<text x="78px" y="166px" transform="matrix(1 0 0 1 0 0) translate(0 -1) translate(0 -1) translate(93 77)" style="fill:rgb(0,0,0);stroke-width:1;font-size:12;font-family:Arial Black;font-weight:bold;     ">)</text>
<text x="336px" y="243px" transform="matrix(1 0 0 1 0 0) translate(-1 0)" style="fill:rgb(0,0,0);stroke-width:1;font-size:12;font-family:Arial Black;font-weight:bold;     ">(</text>
<text x="362px" y="246px" transform="matrix(1 0 0 1 0 0) translate(0 -1) translate(0 -1)" style="fill:rgb(0,0,0);stroke-width:1;font-size:12;font-family:Arial Black;font-weight:bold;     ">PL)</text>
</g>
</svg>

</g>
</svg>