<?xml version="1.0"?>
<!DOCTYPE svg PUBLIC "-//W3C//DTD SVG 1.1//EN" "http://www.w3.org/Graphics/SVG/1.1/DTD/svg11.dtd" >
<!-- SVG content generated using Symbology Configuration Management System (SCMS) -->
<!-- Systematic Software Engineering Ltd. - www.systematic.co.uk - do not remove  -->
<svg id="SNFPGPA---*****" width="400px" height="400px" viewBox="0 0 400 400">
<g >
<svg viewBox="0 0 400 400" id="_0.SNF------------" width="400px" height="400px"><rect x="68" y="68" width="264" height="264" style="fill:rgb(170,255,170);stroke:rgb(0,0,0);stroke-width:10"></rect>
</svg>

</g>
<g transform="scale(0.8 0.8) translate(50 -30)" >
<svg viewBox="0 0 400 400" id="_1.S-G-UCVF-------" width="400px" height="400px"><path d="M200 200 L145 175 C90 150 90 250 145 225 L200 200 L255 175 C310 150 310 250 255 225     L200 200" style="fill:rgb(0,0,0);stroke:none"></path>
</svg>

</g>
<g transform="scale(0.7 0.7) translate(80 120)" >
<svg viewBox="0 0 400 400" id="_2.O-O-Y----------" width="400px" height="400px"><polyline points="120,160 120,240 210,240 250,280 250,120 210,160 120,160 120,240" style="fill:rgb(255,255,255);stroke:rgb(0,0,0);stroke-width:10"></polyline>
<line x1="250" y1="217" x2="290" y2="217" style="fill:none;stroke:rgb(0,0,0);stroke-width:10"></line>
<line x1="250" y1="183" x2="290" y2="183" style="fill:none;stroke:rgb(0,0,0);stroke-width:10"></line>
<line x1="250" y1="150" x2="290" y2="150" style="fill:none;stroke:rgb(0,0,0);stroke-width:10" transform="translate(270 150) scale(1 1) translate(-270 -150)"></line>
<line x1="250" y1="250" x2="290" y2="250" style="fill:none;stroke:rgb(0,0,0);stroke-width:10"></line>
</svg>

</g>
</svg>