<?xml version="1.0"?>
<!DOCTYPE svg PUBLIC "-//W3C//DTD SVG 1.1//EN" "http://www.w3.org/Graphics/SVG/1.1/DTD/svg11.dtd" >
<!-- SVG content generated using Symbology Configuration Management System (SCMS) -->
<!-- Systematic Software Engineering Ltd. - www.systematic.co.uk - do not remove  -->
<svg id="G*MPOGB---****X" width="400px" height="400px" viewBox="0 0 400 400">
<g >
<svg viewBox="0 0 400 400" id="_0.G-MPOGB-------X" width="400px" height="400px"><g transform="translate(-200 -230) scale(1.75 1.75)"><polyline points="128.519,219.611 136.006,219.611 145.339,194.722 154.797,219.597 189.339,219.611 199.131,192.757     210.228,219.167 241.172,219.167 251.339,193.333 262.061,219.167     302.894,219.236 313.172,194.722 323.97,219.611 334.353,219.556 334.158,238.667     324.45,238.722 314.672,264.5 302.867,238.653 263.45,238.722 252.117,263.611     240.797,238.653 210.228,238.722 200.561,262.722 189.339,238.278 156.644,238.347     146.228,262.278 137.339,239.611 128.603,239.597" style="stroke:rgb(0,0,0);stroke-width:2;fill:rgb(255,255,255)"></polyline>
<line x1="128.999" y1="219.208" x2="128.999" y2="239.958" style="fill:rgb(0,0,0);stroke:rgb(0,0,0);stroke-width:2"></line>
<g id="T" transform="translate(70 121) translate(154 116) scale(1 0.823529) translate(-154 -116) translate(0 -1.21429) translate(0 -1.21429) translate(0 1.21429)"><rect x="146" y="99" width="16" height="17" transform="matrix(1 0 0 1 0 0)" style="fill:rgb(255,255,255);stroke:rgb(0,0,0);stroke-width:2"></rect>
<text x="150px" y="113px" transform="matrix(1 0 0 1 0 0)" style="fill:rgb(0,0,0);stroke-width:1;font-family:Arial Black;font-weight:bold;font-size:12;     ">T</text>
</g>
<g id="PT.%201" transform="translate(17 144)"><text x="130px" y="149px" transform="matrix(1 0 0 1 0 0)" style="fill:rgb(0,0,0);stroke-width:1;font-family:Arial Black;font-weight:bold;font-size:12;     ">PT. 1</text>
</g>
<g id="PT.%202" transform="translate(15 164)"><text x="270px" y="124px" transform="matrix(1 0 0 1 0 0)" style="fill:rgb(0,0,0);stroke-width:1;font-family:Arial Black;font-weight:bold;font-size:12;     ">PT. 2</text>
</g>
<line x1="128" y1="249" x2="128" y2="273" transform="matrix(1 0 0 1 0 0)" style="fill:rgb(0,0,0);stroke:rgb(0,0,0);stroke-width:2"></line>
<line x1="127.667" y1="272.094" x2="144" y2="289" transform="matrix(1 0 0 1 0 0)" style="fill:rgb(0,0,0);stroke:rgb(0,0,0);stroke-width:2"></line>
<line x1="334" y1="247" x2="334" y2="268" transform="matrix(1 0 0 1 0 0)" style="fill:rgb(0,0,0);stroke:rgb(0,0,0);stroke-width:2"></line>
<line x1="334.144" y1="267.316" x2="322" y2="281" transform="matrix(1 0 0 1 0 0)" style="fill:rgb(0,0,0);stroke:rgb(0,0,0);stroke-width:2"></line>
<polygon points="28,38.8038 34,49.1962 22,49.1962" transform="matrix(1 0 0 1.1547 0 -6.80682) translate(99 178.401) translate(1 0)" style="fill:rgb(0,0,0);stroke:rgb(0,0,0);stroke-width:2"></polygon>
<polygon points="28,38.8038 34,49.1962 22,49.1962" transform="matrix(1 0 0 1.1547 222 200.193) translate(81 -3.4641) translate(1 0) translate(1 0)" style="fill:rgb(0,0,0);stroke:rgb(0,0,0);stroke-width:2"></polygon>
</g>
</svg>

</g>
</svg>