<?xml version="1.0"?>
<!DOCTYPE svg PUBLIC "-//W3C//DTD SVG 1.1//EN" "http://www.w3.org/Graphics/SVG/1.1/DTD/svg11.dtd" >
<!-- SVG content generated using Symbology Configuration Management System (SCMS) -->
<!-- Systematic Software Engineering Ltd. - www.systematic.co.uk - do not remove  -->
<svg id="G*MPOGB---****X" width="400px" height="400px" viewBox="0 0 400 400">
<g >
<svg viewBox="0 0 400 400" id="_0.G-MPOGB-------X" width="400px" height="400px"><g transform="translate(-200 -210) scale(1.75 1.75)"><polyline points="128.519,219.611 136.006,219.611 145.339,194.722 154.797,219.597 189.339,219.611 199.131,192.757      210.228,219.167 241.172,219.167 251.339,193.333 262.061,219.167      302.894,219.236 313.172,194.722 323.97,219.611 334.353,219.556 334.158,238.667      324.45,238.722 314.672,264.5 302.867,238.653 263.45,238.722 252.117,263.611      240.797,238.653 210.228,238.722 200.561,262.722 189.339,238.278 156.644,238.347      146.228,262.278 137.339,239.611 128.603,239.597" style="stroke:rgb(0,0,0);stroke-width:2;fill:rgb(255,255,255)"></polyline>
<line x1="128.999" y1="219.208" x2="128.999" y2="239.958" style="fill:rgb(0,0,0);stroke:rgb(0,0,0);stroke-width:2"></line>
<g id="T"><text x="160px" y="84px" transform="matrix(1 0 0 1 0 0) translate(39 150)" style="fill:rgb(0,0,0);font-size:14;font-family:Arial Black;font-weight:bold">3/27 AD</text>
</g>
</g>
</svg>

</g>
</svg>