<?xml version="1.0"?>
<!DOCTYPE svg PUBLIC "-//W3C//DTD SVG 1.1//EN" "http://www.w3.org/Graphics/SVG/1.1/DTD/svg11.dtd" >
<!-- SVG content generated using Symbology Configuration Management System (SCMS) -->
<!-- Systematic Software Engineering Ltd. - www.systematic.co.uk - do not remove  -->
<svg id="G*FPAS----****X" width="400px" height="400px" viewBox="0 0 400 400">
<g >
<svg viewBox="0 0 400 400" id="_0.G-FPAS--------X" width="400px" height="400px"><g transform="translate(-45 -40)"><rect x="140" y="139" width="216" height="112" rx="49.5" ry="44" style="fill:rgb(255,255,255);stroke:rgb(0,0,0);stroke-width:2" transform="matrix(1.49075 0 0 1.82143 -126.706 -119.18)"></rect>
<g transform="translate(44 200) rotate(22.7357 113 50.5)"><rect x="82" y="38" width="62" height="25" transform="matrix(1 0 0 1 0 0)" style="fill:rgb(255,255,255);stroke:rgb(0,0,0);stroke-width:2"></rect>
<text x="88px" y="56px" transform="matrix(1 0 0 1 0 0)" style="fill:rgb(0,0,0);stroke-width:1;font-family:Arial Black;font-weight:bold;font-size:12;     ">AG7005</text>
</g>
<g transform="translate(36 137) rotate(22.4616 281 53.5) rotate(354.862 281 53.5)"><rect x="250" y="43" width="62" height="21" transform="matrix(1 0 0 1 0 0)" style="fill:rgb(255,255,255);stroke:rgb(0,0,0);stroke-width:2"></rect>
<text x="256px" y="57px" transform="matrix(1 0 0 1 0 0)" style="fill:rgb(0,0,0);stroke-width:1;font-family:Arial Black;font-weight:bold;font-size:12;     ">AG7003</text>
</g>
<g transform="translate(-16 196) rotate(20.7933 327 87.5)"><rect x="296" y="78" width="62" height="19" transform="matrix(1 0 0 1 0 0)" style="fill:rgb(255,255,255);stroke:rgb(0,0,0);stroke-width:2"></rect>
<text x="302px" y="92px" transform="matrix(1 0 0 1 0 0)" style="fill:rgb(0,0,0);stroke-width:1;font-family:Arial Black;font-weight:bold;font-size:12;     ">AG7002</text>
</g>
<g id="T" transform="translate(-17 56) translate(1 0) translate(1 0) translate(1 0) translate(1 0) translate(1 0) translate(1 0) translate(1 0) translate(1 0) translate(1 0) translate(0 1) translate(0 1)"><rect x="230" y="124" width="56" height="21" style="fill:rgb(255,255,255);stroke:none;stroke-width:2" transform="matrix(1 0 0 1 -11 -59)"></rect>
<text x="70px" y="50px" transform="matrix(1 0 0 1.34341 157 13.8297) translate(6 0.744376)" style="fill:rgb(0,0,0);stroke-width:1;font-family:Arial Black;font-weight:bold;font-size:12;     ">A2B</text>
</g>
</g>
</svg>

</g>
</svg>