<?xml version="1.0"?>
<!DOCTYPE svg PUBLIC "-//W3C//DTD SVG 1.1//EN" "http://www.w3.org/Graphics/SVG/1.1/DTD/svg11.dtd" >
<!-- SVG content generated using Symbology Configuration Management System (SCMS) -->
<!-- Systematic Software Engineering Ltd. - www.systematic.co.uk - do not remove  -->
<svg id="G*FPLR----****X" width="400px" height="400px" viewBox="0 0 400 400">
<g >
<svg viewBox="0 0 400 400" id="_0.G-FPLR--------X" width="400px" height="400px"><g transform="translate(-130 -110) scale(1.25 1.25)"><text x="202px" y="294px" transform="matrix(1 0 0 1 137 -66) translate(9 1) translate(5 -1)" style="fill:rgb(0,0,0);font-family:Arial Black;font-weight:bold;font-size:12">PL</text>
<text x="238px" y="257px" transform="matrix(1 0 0 1 -102 -29) translate(-9 -1)" style="fill:rgb(0,0,0);font-family:Arial Black;font-weight:bold;font-size:12">PL</text>
<text x="200px" y="307px" transform="matrix(1 0 0 1 -72 -100) translate(12 3) translate(0 -8) translate(26 3) translate(4 2)" style="fill:rgb(0,0,0);font-family:Arial Black;font-weight:bold;font-size:12">RFL</text>
<text x="231px" y="257px" transform="matrix(1 0 0 1 99 -47) translate(5 2) translate(-5 -8) translate(-52 -2) translate(-2 2) translate(4 0)" style="fill:rgb(0,0,0);font-family:Arial Black;font-weight:bold;font-size:12">RFL</text>
<g id="T1" transform="translate(55 113)"><rect x="92" y="100" width="16" height="19" transform="matrix(1 0 0 1 0 0)" style="fill:rgb(255,255,255);stroke:rgb(0,0,0);stroke-width:2"></rect>
<text x="96px" y="114px" transform="matrix(1 0 0 1 0 0)" style="fill:rgb(0,0,0);stroke-width:1;font-family:Arial Black;font-weight:bold;font-size:12;     ">T</text>
</g>
<g id="T2" transform="translate(119 -27) translate(9 0) translate(6 0)"><rect x="92" y="100" width="16" height="19" transform="matrix(1 0 0 1 150 141)" style="fill:rgb(255,255,255);stroke:rgb(0,0,0);stroke-width:2"></rect>
<text x="96px" y="114px" transform="matrix(1 0 0 1 150 141)" style="fill:rgb(0,0,0);stroke-width:1;font-family:Arial Black;font-weight:bold;font-size:12;     ">T</text>
</g>
<g id="W1" transform="translate(-15 -127)"><rect x="192" y="356" width="20" height="22" transform="matrix(1 0 0 1 0 0)" style="fill:rgb(255,255,255);stroke:rgb(0,0,0);stroke-width:2"></rect>
<text x="196px" y="373px" transform="matrix(1 0 0 1 0 0)" style="fill:rgb(0,0,0);stroke-width:1;font-family:Arial Black;font-weight:bold;font-size:12;     ">W</text>
</g>
<g id="W1%201" transform="translate(-38 -121)"><rect x="192" y="356" width="20" height="22" transform="matrix(1 0 0 1 48 -117) translate(19 112) translate(192 367) scale(1.3 1) translate(-192 -367) translate(202 378) scale(1 1.09091) translate(-202 -378) translate(-3.84615 0) translate(0.769231 0) translate(0.769231 0) translate(0.769231 -0.916667) translate(0 0.916667) translate(0 0.916667)" style="fill:rgb(255,255,255);stroke:rgb(0,0,0);stroke-width:2"></rect>
<text x="260px" y="368px" transform="matrix(1 0 0 1 0 0)" style="fill:rgb(0,0,0);stroke-width:1;font-family:Arial Black;font-weight:bold;font-size:12;     ">W1</text>
</g>
<g id="W2" transform="translate(-82 -151)"><g><rect x="192" y="356" width="20" height="22" transform="matrix(1 0 0 1 48 -117) translate(110 141)" style="fill:rgb(255,255,255);stroke:rgb(0,0,0);stroke-width:2"></rect>
<text x="354px" y="397px" transform="matrix(1 0 0 1 0 0)" style="fill:rgb(0,0,0);stroke-width:1;font-family:Arial Black;font-weight:bold;font-size:12;      ">W</text>
</g>
</g>
<g id="W1%202" transform="translate(-82 -156)"><rect x="192" y="356" width="20" height="22" transform="matrix(1 0 0 1 48 -117) translate(156 146) translate(192 367) scale(1.25 1) translate(-192 -367) translate(-0.8 0) translate(-0.8 0) translate(-0.8 0)" style="fill:rgb(255,255,255);stroke:rgb(0,0,0);stroke-width:2"></rect>
<text x="396px" y="400px" transform="matrix(1 0 0 1 0 0)" style="fill:rgb(0,0,0);stroke-width:1;font-family:Arial Black;font-weight:bold;font-size:12;     ">W1</text>
<line x1="200" y1="240" x2="214" y2="240" transform="matrix(1 0 0 1 82 156)" style="fill:rgb(0,0,0);stroke:rgb(0,0,0);stroke-width:2"></line>
<line x1="292" y1="239" x2="306" y2="239" transform="matrix(1 0 0 1 82 156)" style="fill:rgb(0,0,0);stroke:rgb(0,0,0);stroke-width:2"></line>
</g>
<g id="T3" transform="translate(114 99) translate(26 4) translate(4 1)"><rect x="56" y="89" width="20" height="20" transform="matrix(1 0 0 1 0 0) translate(0 -1)" style="fill:rgb(255,255,255);stroke:rgb(0,0,0);stroke-width:2"></rect>
<text x="62px" y="103px" transform="matrix(1 0 0 1 0 0)" style="fill:rgb(0,0,0);stroke-width:1;font-family:Arial Black;font-weight:bold;font-size:12;     ">T</text>
</g>
<g id="T4" transform="translate(121 -51) translate(-48 1)"><rect x="56" y="89" width="20" height="20" transform="matrix(1 0 0 1 184 151)" style="fill:rgb(255,255,255);stroke:rgb(0,0,0);stroke-width:2"></rect>
<text x="62px" y="103px" transform="matrix(1 0 0 1 184 152)" style="fill:rgb(0,0,0);stroke-width:1;font-family:Arial Black;font-weight:bold;font-size:12;     ">T</text>
</g>
<g id="PT.%201" transform="translate(41 -29)"><text x="144px" y="313px" transform="matrix(1 0 0 1 0 0)" style="fill:rgb(0,0,0);stroke-width:1;font-family:Arial Black;font-weight:bold;font-size:12;     ">PT. 1</text>
</g>
<g id="PT.%202" transform="translate(51 -85)"><text x="248px" y="360px" transform="matrix(1 0 0 1 0 0)" style="fill:rgb(0,0,0);stroke-width:1;font-family:Arial Black;font-weight:bold;font-size:12;     ">PT. 2</text>
</g>
<line x1="168" y1="232" x2="168" y2="262" transform="matrix(1 0 0 1 0 0)" style="fill:rgb(0,0,0);stroke:rgb(0,0,0);stroke-width:2"></line>
<line x1="167.69" y1="261.1" x2="182" y2="279" transform="matrix(1 0 0 1 0 0)" style="fill:rgb(0,0,0);stroke:rgb(0,0,0);stroke-width:2"></line>
<line x1="170" y1="220" x2="346" y2="220" transform="matrix(1 0 0 1 0 0) translate(0 1)" style="fill:rgb(0,0,0);stroke:rgb(0,0,0);stroke-width:2"></line>
<line x1="346" y1="230" x2="346" y2="256" transform="matrix(1 0 0 1 0 0)" style="fill:rgb(0,0,0);stroke:rgb(0,0,0);stroke-width:2"></line>
<line x1="346.448" y1="255.243" x2="336" y2="265" transform="matrix(1 0 0 1 0 0)" style="fill:rgb(0,0,0);stroke:rgb(0,0,0);stroke-width:2"></line>
<polygon points="97,66.6699 102,75.3301 92,75.3301" transform="matrix(1 0 0 1.84752 0 -60.174) translate(71 89.3089)" style="fill:rgb(0,0,0);stroke:rgb(0,0,0);stroke-width:2"></polygon>
<polygon points="97,66.6699 102,75.3301 92,75.3301" transform="matrix(1 0 0 1.84752 153 119.826) translate(95 -9.20152) translate(1 0)" style="fill:rgb(0,0,0);stroke:rgb(0,0,0);stroke-width:2"></polygon>
</g>
</svg>

</g>
</svg>