<?xml version="1.0"?>
<!DOCTYPE svg PUBLIC "-//W3C//DTD SVG 1.1//EN" "http://www.w3.org/Graphics/SVG/1.1/DTD/svg11.dtd" >
<!-- SVG content generated using Symbology Configuration Management System (SCMS) -->
<!-- Systematic Software Engineering Ltd. - www.systematic.co.uk - do not remove  -->
<svg id="G*MPBCL---****X" width="400px" height="400px" viewBox="0 0 400 400">
<g >
<svg viewBox="0 0 400 400" id="_0.G-MPBCL-------X" width="400px" height="400px"><g transform="translate(-180 -160) scale(1.5 1.5)"><g><line x1="158" y1="227" x2="350" y2="227" style="fill:rgb(0,0,0);stroke:rgb(0,0,0);stroke-width:2"></line>
<line x1="158.997" y1="226.997" x2="142" y2="213" style="fill:rgb(0,0,0);stroke:rgb(0,0,0);stroke-width:2"></line>
<line x1="159.425" y1="226.855" x2="141.568" y2="235.997" style="fill:rgb(0,0,0);stroke:rgb(0,0,0);stroke-width:2"></line>
<line x1="349.011" y1="226.997" x2="364" y2="217" style="fill:rgb(0,0,0);stroke:rgb(0,0,0);stroke-width:2"></line>
<line x1="349.011" y1="226.997" x2="363.44" y2="238.14" style="fill:rgb(0,0,0);stroke:rgb(0,0,0);stroke-width:2"></line>
</g>
<path d="M227.5 175 C223.778 188.647 228.835 192.698 229.5 206 C231.089 237.777 228.562 285.689      222.5 316" transform="translate(7 -10)" style="fill:none;stroke:rgb(0,0,0);stroke-width:2"></path>
<path d="M270.5 182 C273.841 218.75 269.247 233.058 267.5 268 C266.676 284.487 273.5 301.929      273.5 319" transform="translate(9 -14) translate(-7 0)" style="fill:none;stroke:rgb(0,0,0);stroke-width:2"></path>
</g>
</svg>

</g>
</svg>