<?xml version="1.0"?>
<!DOCTYPE svg PUBLIC "-//W3C//DTD SVG 1.1//EN" "http://www.w3.org/Graphics/SVG/1.1/DTD/svg11.dtd" >
<!-- SVG content generated using Symbology Configuration Management System (SCMS) -->
<!-- Systematic Software Engineering Ltd. - www.systematic.co.uk - do not remove  -->
<svg id="G*OPHO----****X" width="400px" height="400px" viewBox="0 0 400 400">
<g >
<svg viewBox="0 0 400 400" id="_0.G-OPHO--------X" width="400px" height="400px"><g transform="translate(-360 -250) scale(2 2)"><g transform="translate(213 151) translate(26.7 31.75) scale(1 2.54331) translate(-26.7 -31.75) translate(4.77396e-015 15.875) scale(3.43446 1) translate(-4.77396e-015 -15.875) translate(-6.40567 15.7276)"><path d="M0 31.5 L0 16.125 L0.875 16.125 L0.875 31.5 zM0.875 17.125 L53.4 17.125 L53.4 16.125       L0.875 16.125 zM9.48 16.125 L10.38 16.125 L10.38 0 L9.42 0 zM18.721 16.125       L18.721 9.08 L10.381 9.08 L10.381 16.125 zM38 31.75 L38 17.125 L39 17.125       L39 31.75 zM47.875 31.75 L48.84 31.75 L48.84 16.881 L47.875 16.881 z"></path>
<line x1="278" y1="196" x2="278" y2="266" transform="matrix(0.291167 0 0 0.393189 -55.6129 -55.8328) translate(278 196) scale(1 1.15714) translate(-278 -196)" style="fill:rgb(0,0,0);stroke:rgb(0,0,0);stroke-width:2"></line>
<polygon points="70,81.3397 80,98.6603 60,98.6603" transform="matrix(0.291167 0 0 0.408614 -55.6129 -57.2211) translate(207 105.848)" style="fill:rgb(0,0,0);stroke:rgb(0,0,0);stroke-width:2"></polygon>
</g>
<g id="CENTER%20POINT" transform="translate(104 -27)"><text x="146px" y="316px" transform="matrix(1 0 0 1 0 0)" style="fill:rgb(0,0,0);stroke-width:1;font-family:Arial Black;font-weight:bold;font-size:12;      ">CENTER</text>
<text x="156px" y="337px" transform="matrix(1 0 0 1 0 0) translate(-3 -10)" style="fill:rgb(0,0,0);stroke-width:1;font-family:Arial Black;font-weight:bold;font-size:12;      ">POINT</text>
</g>
</g>
</svg>

</g>
</svg>