<?xml version="1.0"?>
<!DOCTYPE svg PUBLIC "-//W3C//DTD SVG 1.1//EN" "http://www.w3.org/Graphics/SVG/1.1/DTD/svg11.dtd" >
<!-- SVG content generated using Symbology Configuration Management System (SCMS) -->
<!-- Systematic Software Engineering Ltd. - www.systematic.co.uk - do not remove  -->
<svg id="SFUPWMG---*****" width="400px" height="400px" viewBox="0 0 400 400">
<g >
<svg viewBox="0 0 400 400" id="_0.SFU-WM---------" width="400px" height="400px"><polygon points="180,130 180,95 220,95 220,130" style="fill:rgb(128,224,255);stroke:rgb(0,0,0);stroke-width:10"></polygon>
<polygon points="180,218 180,183 220,183 220,218" style="fill:rgb(128,224,255);stroke:rgb(0,0,0);stroke-width:10" transform="matrix(1 0 0 1 0 0) translate(-45.4545 -54.9091) translate(-6.4 -6) rotate(315.02 200 200.5) translate(0.282134 -1.98) translate(-0.00121416 -3.39411)"></polygon>
<polygon points="222,227 222,192 262,192 262,227" style="fill:rgb(128,224,255);stroke:rgb(0,0,0);stroke-width:10" transform="matrix(1 0 0 1 0 0) translate(10.4 -71.6) rotate(44.8803 242 209.5) translate(0.0070909 -3.39411)"></polygon>
<circle cx="200" cy="190" r="70" transform="matrix(1 0 0 1 0 0)" style="fill:rgb(128,224,255);stroke:rgb(0,0,0);stroke-width:10"></circle>
</svg>

</g>
<g >
<svg viewBox="0 0 400 400" id="_1.SFU-WMG--------" width="400px" height="400px"><rect x="125" y="252" width="150" height="30" style="fill:rgb(128,224,255);stroke:rgb(0,0,0);stroke-width:10"></rect>
</svg>

</g>
</svg>