<?xml version="1.0"?>
<!DOCTYPE svg PUBLIC "-//W3C//DTD SVG 1.1//EN" "http://www.w3.org/Graphics/SVG/1.1/DTD/svg11.dtd" >
<!-- SVG content generated using Symbology Configuration Management System (SCMS) -->
<!-- Systematic Software Engineering Ltd. - www.systematic.co.uk - do not remove  -->
<svg id="G*GPOLL---****X" width="400px" height="400px" viewBox="0 0 400 400">
<g >
<svg viewBox="0 0 400 400" id="_0.G-GPOLL-------X" width="400px" height="400px"><g transform="translate(-180 -160) scale(1.5 1.5)"><line x1="164" y1="205" x2="296" y2="205" style="fill:rgb(0,0,0);stroke:rgb(0,0,0);stroke-width:2" transform="matrix(1 0 0 1 26 1)"></line>
<text x="206px" y="344px" transform="matrix(1 0 0 1 -51 -134)" style="fill:rgb(0,0,0);font-family:Arial Black;font-weight:bold;font-size:12">LOA</text>
<text x="227px" y="258px" transform="matrix(1 0 0 1 101 -47)" style="fill:rgb(0,0,0);font-family:Arial Black;font-weight:bold;font-size:12">LOA</text>
<g transform="matrix(1 0 0 1 45 127)"><text x="86px" y="99px" transform="matrix(1 0 0 1 0 0)" style="fill:rgb(0,0,0);stroke-width:1;font-family:Arial Black;font-weight:bold;font-size:12;      ">(PL</text>
<g id="T1" transform="translate(-70 -35)"><rect x="182" y="122" width="12" height="14" transform="matrix(1 0 0 1 0 0) translate(1 0) translate(194 129) scale(1.25 1) translate(-194 -129) translate(0.8 0)" style="fill:rgb(255,255,255);stroke:rgb(0,0,0);stroke-width:2"></rect>
<text x="184px" y="134px" transform="matrix(1 0 0 1 0 0)" style="fill:rgb(0,0,0);stroke-width:1;font-family:Arial Black;font-weight:bold;font-size:12;       ">T</text>
</g>
<text x="292px" y="89px" transform="matrix(1 0 0 1 0 0) translate(-161 9) translate(0 1)" style="fill:rgb(0,0,0);stroke-width:1;font-family:Arial Black;font-weight:bold;font-size:12;      ">)</text>
<line x1="322" y1="216" x2="322" y2="247" transform="matrix(1 0 0 1 -45 -127)" style="fill:rgb(0,0,0);stroke:rgb(0,0,0);stroke-width:2"></line>
<line x1="322" y1="247" x2="306" y2="263" transform="matrix(1 0 0 1 -45 -127)" style="fill:rgb(0,0,0);stroke:rgb(0,0,0);stroke-width:2"></line>
<line x1="188" y1="217" x2="188" y2="242" transform="matrix(1 0 0 1 -45 -127)" style="fill:rgb(0,0,0);stroke:rgb(0,0,0);stroke-width:2"></line>
<line x1="188" y1="242" x2="200" y2="257" transform="matrix(1 0 0 1 -45 -127)" style="fill:rgb(0,0,0);stroke:rgb(0,0,0);stroke-width:2"></line>
</g>
<g transform="matrix(1 0 0 1 26 93)"><text x="302px" y="131px" transform="matrix(1 0 0 1 0 0)" style="fill:rgb(0,0,0);stroke-width:1;font-family:Arial Black;font-weight:bold;font-size:12;      ">(PL</text>
<g id="T2" transform="translate(-19 -10) translate(0 1)"><rect x="182" y="122" width="12" height="14" transform="matrix(1.25 0 0 1 15.5 121) translate(81.6 -115)" style="fill:rgb(255,255,255);stroke:rgb(0,0,0);stroke-width:2"></rect>
<text x="348px" y="140px" transform="matrix(1 0 0 1 0 0)" style="fill:rgb(0,0,0);stroke-width:1;font-family:Arial Black;font-weight:bold;font-size:12;       ">T</text>
</g>
<text x="414px" y="126px" transform="matrix(1 0 0 1 0 0) translate(-69 6) translate(2 0) translate(0 -1)" style="fill:rgb(0,0,0);stroke-width:1;font-family:Arial Black;font-weight:bold;font-size:12;      ">)</text>
</g>
<g id="PT.%201" transform="matrix(1 0 0 1 116 -51)"><text x="88px" y="316px" transform="matrix(1 0 0 1 0 0)" style="fill:rgb(0,0,0);stroke-width:1;font-family:Arial Black;font-weight:bold;font-size:12;      ">PT. 1</text>
</g>
<g id="PT.%202" transform="matrix(1 0 0 1 43 -45)"><text x="224px" y="311px" transform="matrix(1 0 0 1 0 0)" style="fill:rgb(0,0,0);stroke-width:1;font-family:Arial Black;font-weight:bold;font-size:12;      ">PT. 2</text>
</g>
<polygon points="68,72.5359 72,79.4641 64,79.4641" transform="matrix(1 0 0 2.3094 0 -99.5145) translate(119 61.4878) translate(1 0)" style="fill:rgb(0,0,0);stroke:rgb(0,0,0);stroke-width:2"></polygon>
<polygon points="68,72.5359 72,79.4641 64,79.4641" transform="matrix(1 0 0 2.3094 183 76.4855) translate(72 -13.8564) translate(-1 0)" style="fill:rgb(0,0,0);stroke:rgb(0,0,0);stroke-width:2"></polygon>
</g>
</svg>

</g>
</svg>