<?xml version="1.0"?>
<!DOCTYPE svg PUBLIC "-//W3C//DTD SVG 1.1//EN" "http://www.w3.org/Graphics/SVG/1.1/DTD/svg11.dtd" >
<!-- SVG content generated using Symbology Configuration Management System (SCMS) -->
<!-- Systematic Software Engineering Ltd. - www.systematic.co.uk - do not remove  -->
<svg id="G*MPOAOF--****X" width="400px" height="400px" viewBox="0 0 400 400">
<g >
<svg viewBox="0 0 400 400" id="_0.G-MPOAOF------X" width="400px" height="400px"><g transform="translate(-780 -760) scale(4 4)"><polygon points="215,146.885 244,197.115 186,197.115" transform="matrix(1 0 0 1.1547 30 24.3915)" style="fill:rgb(0,0,0);stroke:rgb(0,0,0);stroke-width:2"></polygon>
<polygon points="79,69.6699 84,78.3301 74,78.3301" transform="matrix(1 0 0 1.38564 0 -28.5374) translate(166 116.913)" style="fill:rgb(128,128,128);stroke:rgb(128,128,128);stroke-width:2"></polygon>
<line x1="78" y1="81" x2="78" y2="104" transform="matrix(1 0 0 1 0 0) translate(1 0) translate(166 162)" style="fill:rgb(128,128,128);stroke:rgb(128,128,128);stroke-width:2"></line>
<g id="ANCHOR%20POINT" transform="translate(39 -44)"><text x="176px" y="321px" transform="matrix(1 0 0 1 0 0)" style="fill:rgb(0,0,0);stroke-width:1;font-family:Arial Black;font-weight:bold;font-size:12;      ">ANCHOR</text>
<text x="214px" y="359px" transform="matrix(1 0 0 1 0 0) translate(-31 -26)" style="fill:rgb(0,0,0);stroke-width:1;font-family:Arial Black;font-weight:bold;font-size:12;      ">POINT</text>
</g>
</g>
</svg>

</g>
</svg>