<?xml version="1.0"?>
<!DOCTYPE svg PUBLIC "-//W3C//DTD SVG 1.1//EN" "http://www.w3.org/Graphics/SVG/1.1/DTD/svg11.dtd" >
<!-- SVG content generated using Symbology Configuration Management System (SCMS) -->
<!-- Systematic Software Engineering Ltd. - www.systematic.co.uk - do not remove  -->
<svg id="G*MPBCA---****X" width="400px" height="400px" viewBox="0 0 400 400">
<g >
<svg viewBox="0 0 400 400" id="_0.G-MPBCA-------X" width="400px" height="400px"><g transform="translate(-190 -170) scale(1.5 1.5)"><line x1="136" y1="132" x2="177.777" y2="160.353" transform="matrix(1 0 0 1 44.625 8.375)" style="fill:rgb(0,0,0);stroke:rgb(0,0,0);stroke-width:2"></line>
<line x1="229" y1="265" x2="271.131" y2="237.597" transform="matrix(1 0 0 1 -48.6667 84.5556)" style="fill:rgb(0,0,0);stroke:rgb(0,0,0);stroke-width:2"></line>
<line x1="176" y1="159" x2="176" y2="314" style="fill:rgb(0,0,0);stroke:rgb(0,0,0);stroke-width:2" transform="matrix(1 0 0 1 46 9)"></line>
<line x1="136" y1="132" x2="177.777" y2="160.353" transform="matrix(-1 0 0 1 465.686 8.9606)" style="fill:rgb(0,0,0);stroke:rgb(0,0,0);stroke-width:2"></line>
<line x1="229" y1="265" x2="271.131" y2="237.597" transform="matrix(-1 0 0 1 558.977 85.1412)" style="fill:rgb(0,0,0);stroke:rgb(0,0,0);stroke-width:2"></line>
<line x1="228.798" y1="174" x2="228.798" y2="329" transform="matrix(1 0 0 1 59.5135 -5.4144)" style="fill:rgb(0,0,0);stroke:rgb(0,0,0);stroke-width:2"></line>
<g id="PT.%201" transform="translate(286 102)"><text x="66px" y="77px" transform="matrix(1 0 0 1 0 0)" style="fill:rgb(0,0,0);stroke-width:1;font-family:Arial Black;font-weight:bold;font-size:12;      ">PT. 1</text>
</g>
<g id="PT.%202" transform="translate(268 226)"><text x="88px" y="99px" transform="matrix(1 0 0 1 0 0)" style="fill:rgb(0,0,0);stroke-width:1;font-family:Arial Black;font-weight:bold;font-size:12;      ">PT. 2</text>
</g>
<g id="PT.%203" transform="translate(81 11)"><text x="54px" y="165px" transform="matrix(1 0 0 1 0 0)" style="fill:rgb(0,0,0);stroke-width:1;font-family:Arial Black;font-weight:bold;font-size:12;      ">PT. 3</text>
</g>
<g id="PT.%204" transform="translate(79 118)"><text x="48px" y="205px" transform="matrix(1 0 0 1 0 0)" style="fill:rgb(0,0,0);stroke-width:1;font-family:Arial Black;font-weight:bold;font-size:12;      ">PT. 4</text>
</g>
<line x1="298" y1="175" x2="350" y2="175" transform="matrix(1 0 0 1 0 0)" style="fill:rgb(0,0,0);stroke:rgb(0,0,0);stroke-width:2"></line>
<line x1="304" y1="321" x2="354" y2="321" transform="matrix(1 0 0 1 0 0)" style="fill:rgb(0,0,0);stroke:rgb(0,0,0);stroke-width:2"></line>
<line x1="208" y1="319" x2="164" y2="319" transform="matrix(1 0 0 1 0 0)" style="fill:rgb(0,0,0);stroke:rgb(0,0,0);stroke-width:2"></line>
<line x1="210" y1="172" x2="170" y2="172" transform="matrix(1 0 0 1 0 0)" style="fill:rgb(0,0,0);stroke:rgb(0,0,0);stroke-width:2"></line>
<polygon points="132,204.036 136,210.964 128,210.964" transform="matrix(5.51073e-016 1 -2.45374 1.35219e-015 639.924 74.2731) translate(112 -28.9354)" style="fill:rgb(0,0,0);stroke:rgb(0,0,0);stroke-width:2"></polygon>
<polygon points="132,204.036 136,210.964 128,210.964" transform="matrix(-1.83691e-016 -1 2.45374 -4.5073e-016 -257.924 382.273) translate(75 18.7469) translate(0 0.407541) translate(0 0.407541) translate(0 0.407541) translate(0 0.407541) translate(1 0)" style="fill:rgb(0,0,0);stroke:rgb(0,0,0);stroke-width:2"></polygon>
<polygon points="132,204.036 136,210.964 128,210.964" transform="matrix(-1.83691e-016 -1 -2.45374 4.5073e-016 757.924 382.273) translate(78 17.1167)" style="fill:rgb(0,0,0);stroke:rgb(0,0,0);stroke-width:2"></polygon>
<polygon points="132,204.036 136,210.964 128,210.964" transform="matrix(-1.83691e-016 -1 2.45374 -4.5073e-016 -257.924 382.273) translate(-71 22.0072) translate(1 0)" style="fill:rgb(0,0,0);stroke:rgb(0,0,0);stroke-width:2"></polygon>
</g>
</svg>

</g>
</svg>