<?xml version="1.0"?>
<!DOCTYPE svg PUBLIC "-//W3C//DTD SVG 1.1//EN" "http://www.w3.org/Graphics/SVG/1.1/DTD/svg11.dtd" >
<!-- SVG content generated using Symbology Configuration Management System (SCMS) -->
<!-- Systematic Software Engineering Ltd. - www.systematic.co.uk - do not remove  -->
<svg id="G*OPSS----****X" width="400px" height="400px" viewBox="0 0 400 400">
<g transform="scale(1 2) translate(0 -25)" >
<svg viewBox="0 0 400 400" id="_0.GAR3----------X" width="400px" height="400px"><line x1="200" y1="85" x2="200" y2="140" style="fill:none;stroke:rgb(0,0,0);stroke-width:3"></line>
<polygon points="200,143 193,128 207,128" style="fill:rgb(0,0,0);stroke:rgb(0,0,0);stroke-width:1"></polygon>
</svg>

</g>
<g transform="scale(0.5 0.5) translate(200 0)" >
<svg viewBox="0 0 400 400" id="_1.GC------------X" width="400px" height="400px"><text x="149px" y="195px" style="fill:rgb(0,0,0);stroke:rgb(0,0,0);font-size:24;font-family:Arial">CENTER</text>
<text x="160px" y="220px" style="fill:rgb(0,0,0);stroke:rgb(0,0,0);font-size:24;font-family:Arial">POINT</text>
</svg>

</g>
<g >
<svg viewBox="0 0 400 400" id="_2.G-OPSS--------X" width="400px" height="400px"><polyline points="50,175 100,100 200,250 300,100 350,175" transform="matrix(1 0 0 1 0 0)" style="fill:none;stroke:rgb(0,0,0);stroke-width:3"></polyline>
<polyline points="50,225 100,150 200,300 300,150 350,225" transform="matrix(1 0 0 1 0 0)" style="fill:none;stroke:rgb(0,0,0);stroke-width:3"></polyline>
</svg>

</g>
</svg>