<?xml version="1.0"?>
<!DOCTYPE svg PUBLIC "-//W3C//DTD SVG 1.1//EN" "http://www.w3.org/Graphics/SVG/1.1/DTD/svg11.dtd" >
<!-- SVG content generated using Symbology Configuration Management System (SCMS) -->
<!-- Systematic Software Engineering Ltd. - www.systematic.co.uk - do not remove  -->
<svg id="G*FPLC----****X" width="400px" height="400px" viewBox="0 0 400 400">
<g >
<svg viewBox="0 0 400 400" id="_0.G-FPLC--------X" width="400px" height="400px"><g transform="translate(-30 -50)"><path d="M110.5 113.5 C110.5 161.918 109.638 214.227 113.5 262.5 C116.656 301.952 127.48 340.6      119.5 380.5" style="fill:none;stroke:rgb(0,0,0);stroke-width:2"></path>
<path d="M326.5 114.5 C322.401 163.692 318.584 223.418 326.5 272.5 C329.499 291.097 335.992      309.65 337.5 328.5 C339.621 355.018 338.083 380.996 342.5 407.5" transform="matrix(1 0 0 1 26 -3)" style="fill:none;stroke:rgb(0,0,0);stroke-width:2"></path>
<line x1="110" y1="144" x2="130" y2="144" style="fill:rgb(0,0,0);stroke:rgb(0,0,0);stroke-width:2"></line>
<line x1="142" y1="144" x2="168" y2="144" style="fill:rgb(0,0,0);stroke:rgb(0,0,0);stroke-width:2"></line>
<line x1="190" y1="144" x2="216" y2="144" style="fill:rgb(0,0,0);stroke:rgb(0,0,0);stroke-width:2"></line>
<line x1="240" y1="144" x2="264" y2="144" transform="matrix(1 0 0 1 -5 0)" style="fill:rgb(0,0,0);stroke:rgb(0,0,0);stroke-width:2"></line>
<line x1="280" y1="142" x2="308" y2="142" transform="matrix(1 0 0 1 -2 1)" style="fill:rgb(0,0,0);stroke:rgb(0,0,0);stroke-width:2"></line>
<line x1="318" y1="142" x2="349.5" y2="141.5" transform="matrix(1 0 0 1 0 0)" style="fill:rgb(0,0,0);stroke:rgb(0,0,0);stroke-width:2"></line>
<g id="W"><text x="182px" y="168px" transform="matrix(1 0 0 1 -4 -9)" style="fill:rgb(0,0,0);font-size:12;font-family:Arial Black;font-weight:bold">120030Z MAY</text>
</g>
<text x="32px" y="150px" style="fill:rgb(0,0,0);font-size:12;font-family:Arial Black;font-weight:bold" transform="matrix(1 0 0 1 31 39)">PL</text>
<g id="T1%201"><text x="26px" y="164px" transform="matrix(1 0 0 1 24 39)" style="fill:rgb(0,0,0);font-size:12;font-family:Arial Black;font-weight:bold">BRAVO</text>
</g>
<text x="346px" y="160px" transform="matrix(1 0 0 1 24 24)" style="fill:rgb(0,0,0);font-size:12;font-family:Arial Black;font-weight:bold">PL</text>
<g id="T1%202"><text x="336px" y="182px" transform="matrix(1 0 0 1 20 16) translate(0 0)" style="fill:rgb(0,0,0);font-size:12;font-family:Arial Black;font-weight:bold">BRAVO</text>
</g>
<text x="128px" y="190px" style="fill:rgb(0,0,0);font-size:12;font-family:Arial Black;font-weight:bold">52 ID (M)</text>
<text x="162px" y="206px" transform="matrix(1 0 0 1 -4 1)" style="fill:rgb(0,0,0);font-size:12;font-family:Arial Black;font-weight:bold">X</text>
<text x="238px" y="202px" transform="matrix(1 0 0 1 -8 0)" style="fill:rgb(0,0,0);font-size:12;font-family:Arial Black;font-weight:bold">X</text>
<text x="290px" y="202px" style="fill:rgb(0,0,0);font-size:12;font-family:Arial Black;font-weight:bold">X</text>
<text x="164px" y="250px" transform="matrix(1 0 0 1 23 4)" style="fill:rgb(0,0,0);font-size:12;font-family:Arial Black;font-weight:bold">1X2</text>
<text x="266px" y="248px" transform="matrix(1 0 0 1 -7 4)" style="fill:rgb(0,0,0);font-size:12;font-family:Arial Black;font-weight:bold">2X3</text>
<path d="M110.5 201.5 C126.578 196.677 134.667 200.5 151.5 200.5" style="fill:none;stroke:rgb(0,0,0);stroke-width:2"></path>
<path d="M171.5 200.5 C192.089 200.5 204.28 194.456 224.5 198.5" style="fill:none;stroke:rgb(0,0,0);stroke-width:2"></path>
<path d="M248.5 198.5 C248.5 198.5 272.5 198.5 280.5 198.5" style="fill:none;stroke:rgb(0,0,0);stroke-width:2"></path>
<path d="M303.5 196.5 C303.5 196.5 343.75 195.75 346.5 195.5" style="fill:none;stroke:rgb(0,0,0);stroke-width:2"></path>
<path d="M199.5 200.5 C202.305 214.527 199.111 226.611 200.5 240.5" transform="matrix(1 0 0 1 -2 -1)" style="fill:none;stroke:rgb(0,0,0);stroke-width:2"></path>
<path d="M266.5 198.5 C266.5 198.5 267 228.75 267.5 236.5" style="fill:none;stroke:rgb(0,0,0);stroke-width:2"></path>
<g transform="matrix(-1.83691e-016 -1 1 -1.83691e-016 -312.196 425.6)"><rect x="72" y="396" width="50" height="72" transform="matrix(-1.83691e-016 1 -1 -1.83691e-016 529.6 335.196)" style="fill:rgb(255,255,255);stroke:none;stroke-width:2"></rect>
<text x="76px" y="422px" style="fill:rgb(0,0,0);font-size:12;font-family:Arial Black;font-weight:bold">23 AD</text>
<text x="86px" y="436px" style="fill:rgb(0,0,0);font-size:12;font-family:Arial Black;font-weight:bold">XX</text>
<text x="80px" y="460px" transform="translate(-12 -11)" style="fill:rgb(0,0,0);font-size:12;font-family:Arial Black;font-weight:bold">52 ID (M)</text>
</g>
<g transform="matrix(-1.83691e-016 -1 1 -1.83691e-016 -77 703)"><g><rect x="319" y="408" width="78" height="62" style="fill:rgb(255,255,255);stroke:none;stroke-width:2"></rect>
<text x="328px" y="426px" transform="translate(2 5)" style="fill:rgb(0,0,0);font-size:12;font-family:Arial Black;font-weight:bold">52 ID (M)</text>
<text x="350px" y="446px" style="fill:rgb(0,0,0);font-size:12;font-family:Arial Black;font-weight:bold">XX</text>
<text x="332px" y="460px" style="fill:rgb(0,0,0);font-size:12;font-family:Arial Black;font-weight:bold">56 ID (M)</text>
</g>
</g>
<text x="159px" y="125px" transform="matrix(1 0 0 1 0 0) translate(33.7209 13.9535)" style="fill:rgb(0,0,0);stroke-width:1;font-size:12;font-family:Arial Black;font-weight:bold;     ">CFL</text>
<g id="T"><text x="228px" y="125px" transform="matrix(1 0 0 1 0 0) translate(-3.48837 11.6279) translate(0 1) translate(0 1)" style="fill:rgb(0,0,0);stroke-width:1;font-size:12;font-family:Arial Black;font-weight:bold;      ">52ID (M)</text>
</g>
</g>
</svg>

</g>
</svg>