<?xml version="1.0"?>
<!DOCTYPE svg PUBLIC "-//W3C//DTD SVG 1.1//EN" "http://www.w3.org/Graphics/SVG/1.1/DTD/svg11.dtd" >
<!-- SVG content generated using Symbology Configuration Management System (SCMS) -->
<!-- Systematic Software Engineering Ltd. - www.systematic.co.uk - do not remove  -->
<svg id="SUGPUSS9--*****" width="400px" height="400px" viewBox="0 0 400 400">
<g >
<svg viewBox="0 0 400 400" id="_0.SUG-U----------" width="400px" height="400px"><path d="M115 285 C115 400 285 400 285 285 C400 285 400 115 285 115 C285 0 115 0 115 115 C0     115 0 285 115 285 z" style="fill:rgb(255,255,128);stroke:rgb(0,0,0);stroke-width:10"></path>
</svg>

</g>
<g >
<svg viewBox="0 0 400 400" id="_1.SUG-USS--------" width="400px" height="400px"><line x1="40" y1="245" x2="360" y2="245" style="fill:none;stroke:rgb(0,0,0);stroke-width:10"></line>
</svg>

</g>
<g >
<svg viewBox="0 0 400 400" id="_2.S-G-USS9-------" width="400px" height="400px"><ellipse cx="200" cy="160" rx="35" ry="35" style="fill:none;stroke:rgb(0,0,0);stroke-width:10"></ellipse>
<line x1="146" y1="126" x2="173" y2="143" style="fill:none;stroke:rgb(0,0,0);stroke-width:10"></line>
<line x1="227" y1="177" x2="254" y2="194" style="fill:none;stroke:rgb(0,0,0);stroke-width:10"></line>
<line x1="146" y1="194" x2="173" y2="177" style="fill:none;stroke:rgb(0,0,0);stroke-width:10"></line>
<line x1="227" y1="143" x2="254" y2="126" style="fill:none;stroke:rgb(0,0,0);stroke-width:10"></line>
<line x1="200" y1="95" x2="200" y2="125" style="fill:none;stroke:rgb(0,0,0);stroke-width:10"></line>
<line x1="200" y1="225" x2="200" y2="195" style="fill:none;stroke:rgb(0,0,0);stroke-width:10"></line>
</svg>

</g>
</svg>