<?xml version="1.0"?>
<!DOCTYPE svg PUBLIC "-//W3C//DTD SVG 1.1//EN" "http://www.w3.org/Graphics/SVG/1.1/DTD/svg11.dtd" >
<!-- SVG content generated using Symbology Configuration Management System (SCMS) -->
<!-- Systematic Software Engineering Ltd. - www.systematic.co.uk - do not remove  -->
<svg id="OFOPYH----*****" width="400px" height="400px" viewBox="0 0 400 400">
<g >
<svg viewBox="0 0 400 400" id="_0.SFG-U----------" width="400px" height="400px"><rect x="20" y="80" width="360" height="240" style="fill:rgb(128,224,255);stroke:rgb(0,0,0);stroke-width:10"></rect>
</svg>

</g>
<g transform="translate(30 70) scale(0.8 0.8)" >
<svg viewBox="0 0 400 400" id="_1.O-O-Y----------" width="400px" height="400px"><polyline points="120,160 120,240 210,240 250,280 250,120 210,160 120,160 120,240" style="fill:rgb(255,255,255);stroke:rgb(0,0,0);stroke-width:10"></polyline>
<line x1="250" y1="217" x2="290" y2="217" style="fill:none;stroke:rgb(0,0,0);stroke-width:10"></line>
<line x1="250" y1="183" x2="290" y2="183" style="fill:none;stroke:rgb(0,0,0);stroke-width:10"></line>
<line x1="250" y1="150" x2="290" y2="150" style="fill:none;stroke:rgb(0,0,0);stroke-width:10" transform="translate(270 150) scale(1 1) translate(-270 -150)"></line>
<line x1="250" y1="250" x2="290" y2="250" style="fill:none;stroke:rgb(0,0,0);stroke-width:10"></line>
</svg>

</g>
<g >
<svg viewBox="0 0 400 400" id="_2.O-O-YH---------" width="400px" height="400px"><polyline points="130,135 130,180 130,180 180,180 180,135 155,107 130,135 130,180" style="stroke:rgb(0,0,0);fill:rgb(255,255,255);stroke-width:10"></polyline>
<line x1="130" y1="135" x2="180" y2="135" style="fill:none;stroke:rgb(0,0,0);stroke-width:10"></line>
</svg>

</g>
</svg>