<?xml version="1.0"?>
<!DOCTYPE svg PUBLIC "-//W3C//DTD SVG 1.1//EN" "http://www.w3.org/Graphics/SVG/1.1/DTD/svg11.dtd" >
<!-- SVG content generated using Symbology Configuration Management System (SCMS) -->
<!-- Systematic Software Engineering Ltd. - www.systematic.co.uk - do not remove  -->
<svg id="G*GPALS---****X" width="400px" height="400px" viewBox="0 0 400 400">
<g >
<svg viewBox="0 0 400 400" id="_0.G-GPALS-------X" width="400px" height="400px"><g transform="translate(-240 -210) scale(1.75 1.75)"><line x1="142" y1="171" x2="327" y2="171" style="fill:none;stroke:rgb(0,0,0);stroke-width:2" transform="translate(14 69)"></line>
<line x1="158" y1="250" x2="343" y2="250" transform="translate(-14 -22) translate(14 69)" style="fill:none;stroke:rgb(0,0,0);stroke-width:2"></line>
<text x="192px" y="205px" transform="translate(26 0) translate(14 69)" style="fill:rgb(0,0,0);font-size:12;font-family:Arial Black;font-weight:bold">NAME</text>
<text x="150px" y="97px" transform="translate(-4 -1) translate(-2 1) translate(14 69)" style="fill:rgb(0,0,0);font-size:12;font-family:Arial Black;font-weight:bold">NAME</text>
<text x="152px" y="109px" transform="translate(-4 0) translate(-2 1) translate(14 69)" style="fill:rgb(0,0,0);font-size:12;font-family:Arial Black;font-weight:bold">WIDTH</text>
<text x="152px" y="122px" transform="translate(-7 0) translate(3 0) translate(-4 1) translate(14 69)" style="fill:rgb(0,0,0);font-size:12;font-family:Arial Black;font-weight:bold">MIN ALT</text>
<text x="150px" y="136px" transform="translate(-6 0) translate(14 69)" style="fill:rgb(0,0,0);font-size:12;font-family:Arial Black;font-weight:bold">MAX ALT</text>
</g>
<line x1="142" y1="82" x2="339" y2="82" style="fill:none;stroke:rgb(0,0,0);stroke-width:3"></line>
<line x1="142" y1="105" x2="339" y2="105" style="fill:none;stroke:rgb(0,0,0);stroke-width:3"></line>
<line x1="142" y1="128" x2="339" y2="128" style="fill:none;stroke:rgb(0,0,0);stroke-width:3"></line>
<line x1="142" y1="151" x2="339" y2="151" style="fill:none;stroke:rgb(0,0,0);stroke-width:3"></line>
</svg>

</g>
</svg>