<?xml version="1.0"?>
<!DOCTYPE svg PUBLIC "-//W3C//DTD SVG 1.1//EN" "http://www.w3.org/Graphics/SVG/1.1/DTD/svg11.dtd" >
<!-- SVG content generated using Symbology Configuration Management System (SCMS) -->
<!-- Systematic Software Engineering Ltd. - www.systematic.co.uk - do not remove  -->
<svg id="G*MPOME---****X" width="400px" height="400px" viewBox="0 0 400 400">
<g >
<svg viewBox="0 0 400 400" id="_0.G-MPOME-------X" width="400px" height="400px"><g transform="translate(-100 -150) scale(1.5 1.5)"><circle cx="218" cy="204.5" r="34" transform="matrix(1 0 0 1 -19 20)" style="fill:rgb(0,0,0);stroke:rgb(0,0,0);stroke-width:2"></circle>
<line x1="274" y1="182" x2="286" y2="182" style="fill:rgb(0,0,0);stroke:rgb(0,0,0);stroke-width:2" transform="matrix(1 0 0 1 -40 42)"></line>
<line x1="296" y1="182" x2="309" y2="182" style="fill:rgb(0,0,0);stroke:rgb(0,0,0);stroke-width:2" transform="matrix(1 0 0 1 -40 42)"></line>
<line x1="318" y1="182" x2="334" y2="182" style="fill:rgb(0,0,0);stroke:rgb(0,0,0);stroke-width:2" transform="matrix(1 0 0 1 -40 42)"></line>
<line x1="340" y1="182" x2="352" y2="182" style="fill:rgb(0,0,0);stroke:rgb(0,0,0);stroke-width:2" transform="matrix(1 0 0 1 -40 42)"></line>
<line x1="346.595" y1="171.926" x2="354.512" y2="182.342" style="fill:rgb(0,0,0);stroke:rgb(0,0,0);stroke-width:2" transform="matrix(1 0 0 1 -40 42)"></line>
<line x1="355.34" y1="181.739" x2="345.399" y2="189.857" style="fill:rgb(0,0,0);stroke:rgb(0,0,0);stroke-width:2" transform="matrix(1 0 0 1 -40 42)"></line>
<line x1="134" y1="252" x2="186" y2="231" transform="matrix(1 0 0 1 0 0)" style="fill:rgb(128,128,128);stroke:rgb(128,128,128);stroke-width:2"></line>
<polygon points="79,94.9378 86,107.062 72,107.062" transform="matrix(0.393232 0.919439 -1.36501 0.583798 295.059 97.5524)" style="fill:rgb(128,128,128);stroke:rgb(128,128,128);stroke-width:2"></polygon>
<g id="CENTER%20POINT" transform="translate(-31 131)"><text x="110px" y="116px" transform="matrix(1 0 0 1 0 0)" style="fill:rgb(0,0,0);stroke-width:1;font-family:Arial Black;font-weight:bold;font-size:12;     ">CENTER</text>
<text x="124px" y="142px" transform="matrix(1 0 0 1 0 0) translate(-8 -15)" style="fill:rgb(0,0,0);stroke-width:1;font-family:Arial Black;font-weight:bold;font-size:12;     ">POINT</text>
</g>
</g>
</svg>

</g>
</svg>