<?xml version="1.0"?>
<!DOCTYPE svg PUBLIC "-//W3C//DTD SVG 1.1//EN" "http://www.w3.org/Graphics/SVG/1.1/DTD/svg11.dtd" >
<!-- SVG content generated using Symbology Configuration Management System (SCMS) -->
<!-- Systematic Software Engineering Ltd. - www.systematic.co.uk - do not remove  -->
<svg id="G*TPR-----****X" width="400px" height="400px" viewBox="0 0 400 400">
<g >
<svg viewBox="0 0 400 400" id="_0.G-TPR---------X" width="400px" height="400px"><g transform="translate(-110 -80) scale(1.25 1.25)"><path d="M319 171 C399.069 171 417.652 276.535 313 282" style="fill:none;stroke:rgb(0,0,0);stroke-width:2" transform="matrix(1 0 0 1 -19 1)"></path>
<line x1="319" y1="171" x2="166.534" y2="171.087" style="fill:rgb(0,0,0);stroke:rgb(0,0,0);stroke-width:2" transform="matrix(1 0 0 1 -19 1)"></line>
<line x1="314" y1="282" x2="166" y2="282" style="fill:rgb(0,0,0);stroke:rgb(0,0,0);stroke-width:2" transform="matrix(1 0 0 1 -19 1)"></line>
<line x1="166.434" y1="170.487" x2="182" y2="188" style="fill:rgb(0,0,0);stroke:rgb(0,0,0);stroke-width:2" transform="matrix(1 0 0 1 -19 1)"></line>
<line x1="166.234" y1="171.687" x2="182" y2="157" style="fill:rgb(0,0,0);stroke:rgb(0,0,0);stroke-width:2" transform="matrix(1 0 0 1 -19 1)"></line>
<line x1="313.574" y1="281.927" x2="302" y2="267" style="fill:rgb(0,0,0);stroke:rgb(0,0,0);stroke-width:2" transform="matrix(1 0 0 1 -19 1)"></line>
<line x1="313.074" y1="282.227" x2="299.574" y2="295.727" style="fill:rgb(0,0,0);stroke:rgb(0,0,0);stroke-width:2" transform="matrix(1 0 0 1 -19 1)"></line>
<text x="230px" y="224px" transform="matrix(1 0 0 1 -39 20.3333)" style="fill:rgb(0,0,0);font-size:43;font-family:Arial Black;font-weight:bold">RIP</text>
<line x1="42" y1="80" x2="42" y2="97" transform="matrix(1 0 0 1 0 0) translate(106 212)" style="fill:rgb(0,0,0);stroke:rgb(0,0,0);stroke-width:2"></line>
<line x1="41.6034" y1="96.2222" x2="56" y2="109" transform="matrix(1 0 0 1 0 0) translate(106 212)" style="fill:rgb(0,0,0);stroke:rgb(0,0,0);stroke-width:2"></line>
<polygon points="21,35.1699 26,43.8301 16,43.8301" transform="matrix(1 0 0 1.03923 5.32907e-015 -1.5496) translate(21 36.5655) translate(106 203.997)" style="fill:rgb(0,0,0);stroke:rgb(0,0,0);stroke-width:2"></polygon>
<line x1="42" y1="80" x2="42" y2="97" transform="matrix(-1 0 0 1 296.932 160) translate(-42 54)" style="fill:rgb(0,0,0);stroke:rgb(0,0,0);stroke-width:2"></line>
<line x1="41.6034" y1="96.2222" x2="56" y2="109" transform="matrix(-1 0 0 1 296.932 160) translate(-42 54)" style="fill:rgb(0,0,0);stroke:rgb(0,0,0);stroke-width:2"></line>
<polygon points="21,35.1699 26,43.8301 16,43.8301" transform="matrix(-1 0 0 1.03923 275.932 196.45) translate(-42 51.9615)" style="fill:rgb(0,0,0);stroke:rgb(0,0,0);stroke-width:2"></polygon>
<line x1="42" y1="80" x2="42" y2="97" transform="matrix(1 0 0 -1 205 340.669) translate(-101 100)" style="fill:rgb(0,0,0);stroke:rgb(0,0,0);stroke-width:2"></line>
<line x1="41.6034" y1="96.2222" x2="56" y2="109" transform="matrix(1 0 0 -1 205 340.669) translate(-101 100)" style="fill:rgb(0,0,0);stroke:rgb(0,0,0);stroke-width:2"></line>
<polygon points="21,35.1699 26,43.8301 16,43.8301" transform="matrix(1 0 0 -1.03923 226 304.219) translate(-101 96.2251)" style="fill:rgb(0,0,0);stroke:rgb(0,0,0);stroke-width:2"></polygon>
<line x1="42" y1="80" x2="42" y2="97" transform="matrix(-1 0 0 -1 296.932 340.669) translate(-47 102) translate(0 -1) translate(0 -1)" style="fill:rgb(0,0,0);stroke:rgb(0,0,0);stroke-width:2"></line>
<line x1="41.6034" y1="96.2222" x2="56" y2="109" transform="matrix(-1 0 0 -1 296.932 340.669) translate(-47 102) translate(0 -1) translate(0 -1)" style="fill:rgb(0,0,0);stroke:rgb(0,0,0);stroke-width:2"></line>
<polygon points="21,35.1699 26,43.8301 16,43.8301" transform="matrix(-1 0 0 -1.03923 275.932 304.219) translate(-47 98.1496) translate(0 -0.962251) translate(0 -0.962251)" style="fill:rgb(0,0,0);stroke:rgb(0,0,0);stroke-width:2"></polygon>
<g id="PT.%201" transform="translate(65 55)"><text x="78px" y="72px" transform="matrix(1 0 0 1 0 0)" style="fill:rgb(0,0,0);stroke-width:1;font-family:Arial Black;font-weight:bold;font-size:12;      ">PT. 1</text>
</g>
<g id="PT.%202" transform="translate(81 55)"><text x="188px" y="72px" transform="matrix(1 0 0 1 0 0)" style="fill:rgb(0,0,0);stroke-width:1;font-family:Arial Black;font-weight:bold;font-size:12;      ">PT. 2</text>
</g>
<g id="PT.%203" transform="translate(17 270)"><text x="246px" y="65px" transform="matrix(1 0 0 1 0 0)" style="fill:rgb(0,0,0);stroke-width:1;font-family:Arial Black;font-weight:bold;font-size:12;      ">PT. 3</text>
</g>
<g id="PT.%204" transform="translate(-241 266)"><text x="390px" y="67px" transform="matrix(1 0 0 1 0 0)" style="fill:rgb(0,0,0);stroke-width:1;font-family:Arial Black;font-weight:bold;font-size:12;      ">PT. 4</text>
</g>
</g>
</svg>

</g>
</svg>