<?xml version="1.0"?>
<!DOCTYPE svg PUBLIC "-//W3C//DTD SVG 1.1//EN" "http://www.w3.org/Graphics/SVG/1.1/DTD/svg11.dtd" >
<!-- SVG content generated using Symbology Configuration Management System (SCMS) -->
<!-- Systematic Software Engineering Ltd. - www.systematic.co.uk - do not remove  -->
<svg id="G*TPR-----****X" width="400px" height="400px" viewBox="0 0 400 400">
<g >
<svg viewBox="0 0 400 400" id="_0.G-TPR---------X" width="400px" height="400px"><g transform="translate(-60 -50) scale(1 1)"><path d="M319 171 C399.069 171 417.652 276.535 313 282" style="fill:none;stroke:rgb(0,0,0);stroke-width:2" transform="matrix(1 0 0 1 -19 1)"></path>
<line x1="319" y1="171" x2="166.534" y2="171.087" style="fill:rgb(0,0,0);stroke:rgb(0,0,0);stroke-width:2" transform="matrix(1 0 0 1 -19 1)"></line>
<line x1="314" y1="282" x2="166" y2="282" style="fill:rgb(0,0,0);stroke:rgb(0,0,0);stroke-width:2" transform="matrix(1 0 0 1 -19 1)"></line>
<line x1="166.434" y1="170.487" x2="182" y2="188" style="fill:rgb(0,0,0);stroke:rgb(0,0,0);stroke-width:2" transform="matrix(1 0 0 1 -19 1)"></line>
<line x1="166.234" y1="171.687" x2="182" y2="157" style="fill:rgb(0,0,0);stroke:rgb(0,0,0);stroke-width:2" transform="matrix(1 0 0 1 -19 1)"></line>
<line x1="313.574" y1="281.927" x2="302" y2="267" style="fill:rgb(0,0,0);stroke:rgb(0,0,0);stroke-width:2" transform="matrix(1 0 0 1 -19 1)"></line>
<line x1="313.074" y1="282.227" x2="299.574" y2="295.727" style="fill:rgb(0,0,0);stroke:rgb(0,0,0);stroke-width:2" transform="matrix(1 0 0 1 -19 1)"></line>
<text x="230px" y="224px" transform="matrix(1 0 0 1 -39 20.3333)" style="fill:rgb(0,0,0);font-size:43;font-family:Arial Black;font-weight:bold">RIP</text>
<g transform="matrix(1 0 0 1 64 229)" style="font-size:43"><rect x="28" y="38" width="50" height="30" transform="matrix(1 0 0 1 0 0)" style="fill:rgb(128,224,255);stroke:rgb(0,0,0);stroke-width:2"></rect>
<path transform="matrix(1 0 0 1 0 0) translate(-2 3)" d="M53 43 C63.4933 43 73 42.3579 73 50.5 C73 58.6421 63.4933 58 53 58 C42.5067 58 34       58.6421 34 50.5 C34 42.3579 42.5067 43 53 43 z" style="fill:rgb(128,224,255);stroke:rgb(0,0,0);stroke-width:2"></path>
<line x1="28" y1="67" x2="78" y2="39" transform="matrix(1 0 0 1 0 0)" style="fill:rgb(0,0,0);stroke:rgb(0,0,0);stroke-width:2"></line>
<line x1="27.8333" y1="38.2508" x2="78" y2="68" transform="matrix(1 0 0 1 0 0)" style="fill:rgb(0,0,0);stroke:rgb(0,0,0);stroke-width:2"></line>
<text x="46px" y="26px" transform="matrix(1 0 0 1 0 0) translate(0 6) translate(0 1)" style="fill:rgb(0,0,0);font-size:16;font-family:Arial Black;font-weight:bold">X</text>
</g>
<g transform="matrix(1 0 0 1 154 -32)" style="font-size:43"><rect x="28" y="38" width="50" height="30" transform="matrix(1 0 0 1 197 205)" style="fill:rgb(128,224,255);stroke:rgb(0,0,0);stroke-width:2"></rect>
<path transform="matrix(1 0 0 1 195 208)" d="M53 43 C63.4933 43 73 42.3579 73 50.5 C73 58.6421 63.4933 58 53 58 C42.5067 58 34       58.6421 34 50.5 C34 42.3579 42.5067 43 53 43 z" style="fill:rgb(128,224,255);stroke:rgb(0,0,0);stroke-width:2"></path>
<line x1="28" y1="67" x2="78" y2="39" transform="matrix(1 0 0 1 197 205)" style="fill:rgb(0,0,0);stroke:rgb(0,0,0);stroke-width:2"></line>
<line x1="27.8333" y1="38.2508" x2="78" y2="68" transform="matrix(1 0 0 1 197 205)" style="fill:rgb(0,0,0);stroke:rgb(0,0,0);stroke-width:2"></line>
<text x="46px" y="26px" transform="matrix(1 0 0 1 197 212)" style="fill:rgb(0,0,0);font-size:16;font-family:Arial Black;font-weight:bold">X</text>
</g>
</g>
</svg>

</g>
</svg>