<?xml version="1.0"?>
<!DOCTYPE svg PUBLIC "-//W3C//DTD SVG 1.1//EN" "http://www.w3.org/Graphics/SVG/1.1/DTD/svg11.dtd" >
<!-- SVG content generated using Symbology Configuration Management System (SCMS) -->
<!-- Systematic Software Engineering Ltd. - www.systematic.co.uk - do not remove  -->
<svg id="SUGPIB----H****" width="400px" height="400px" viewBox="0 0 400 400">
<g >
<svg viewBox="0 0 400 400" id="_0.SUG-I----------" width="400px" height="400px"><rect x="150" y="10" width="100" height="50" style="fill:rgb(0,0,0);stroke:none"></rect>
<path d="M115 285 C115 400 285 400 285 285 C400 285 400 115 285 115 C285 0 115 0 115 115 C0     115 0 285 115 285 z" style="fill:rgb(255,255,128);stroke:rgb(0,0,0);stroke-width:10"></path>
</svg>

</g>
<g >
<svg viewBox="0 0 400 400" id="_1.S-G-IB----H----" width="400px" height="400px"><g transform="translate(110 138) scale(5 5)"><path d="M19.744 12.305 L35.947 23.03 L34.922 24.749 L18.027 13.574 L1.139 24.459 L0.075 22.766
				L15.971 12.381 L0 1.961 L1.018 0.234 L17.913 11.261 L34.924 0 L36.008
				1.678 z"></path>
</g>
</svg>

</g>
</svg>