<?xml version="1.0"?>
<!DOCTYPE svg PUBLIC "-//W3C//DTD SVG 1.1//EN" "http://www.w3.org/Graphics/SVG/1.1/DTD/svg11.dtd" >
<!-- SVG content generated using Symbology Configuration Management System (SCMS) -->
<!-- Systematic Software Engineering Ltd. - www.systematic.co.uk - do not remove  -->
<svg id="G*GPGPPD--****X" width="400px" height="400px" viewBox="0 0 400 400">
<g >
<svg viewBox="0 0 400 400" id="_0.G-G-GPPD------X" width="400px" height="400px"><polygon points="200,57.3415 235.228,166.574 350,166.323 257,233.581 292.705,342.658 200,274.994 107.295,342.658 143,233.581 50,166.323 164.772,166.574" transform="matrix(1 0 0 1.05146 1.42109e-014 -10.2924)" style="fill:none;stroke:rgb(0,0,0);stroke-width:5"></polygon>
</svg>

</g>
<g transform="translate(0 15)" >
<svg viewBox="0 0 400 400" id="_1.G-----------PTS" width="400px" height="400px"><rect x="175" y="175" width="50" height="50" style="fill:none;stroke:rgb(0,0,0);stroke-width:5" transform="translate(0 0) translate(0 0)"></rect>
<text x="189px" y="213px" style="fill:rgb(0,0,0);stroke:rgb(0,0,0);font-size:36;font-family:Arial">T</text>
</svg>

</g>
<g transform="translate(-90 -90)" >
<svg viewBox="0 0 400 400" id="_2.GC------------X" width="400px" height="400px"><text x="149px" y="195px" style="fill:rgb(0,0,0);stroke:rgb(0,0,0);font-size:24;font-family:Arial">CENTER</text>
<text x="160px" y="220px" style="fill:rgb(0,0,0);stroke:rgb(0,0,0);font-size:24;font-family:Arial">POINT</text>
</svg>

</g>
<g transform="translate(30 -60)" >
<svg viewBox="0 0 400 400" id="_3.GAR2----------X" width="400px" height="400px"><line x1="110" y1="194" x2="155" y2="239" style="fill:none;stroke:rgb(0,0,0);stroke-width:3"></line>
<polygon points="158,242 146,238 154,230" style="fill:rgb(0,0,0);stroke:rgb(0,0,0);stroke-width:2"></polygon>
</svg>

</g>
</svg>