<?xml version="1.0"?>
<!DOCTYPE svg PUBLIC "-//W3C//DTD SVG 1.1//EN" "http://www.w3.org/Graphics/SVG/1.1/DTD/svg11.dtd" >
<!-- SVG content generated using Symbology Configuration Management System (SCMS) -->
<!-- Systematic Software Engineering Ltd. - www.systematic.co.uk - do not remove  -->
<svg id="SHGPEWDL--*****" width="400px" height="400px" viewBox="0 0 400 400">
<g >
<svg viewBox="0 0 400 400" id="_0.SHG-E----------" width="400px" height="400px"><polyline points="200,373 373,200 200,27 27,200 200,373" style="stroke-linecap:square;fill:rgb(255,128,128);stroke:rgb(0,0,0);stroke-width:10"></polyline>
</svg>

</g>
<g transform="translate(156 84) scale(6.5 5.9)" >
<svg viewBox="0 0 400 400" id="_1.S-G-EWDL-------" width="400px" height="400px"><path d="M0 7.625 L1.75 7.625 L1.75 27.625 L0 27.625 zM5.75 16.938 L5.75 14.922 L1.75 14.922
			L1.75 16.938 zM7.625 39.375 L5.75 39.375 L5.75 0 L7.625 0 zM11.5 16.938 L11.5
			14.85 L7.625 14.922 L7.625 17.01 zM11.5 7.625 L13.375 7.625 L13.375 27.625
			L11.5 27.625 z"></path>
</svg>

</g>
</svg>