<?xml version="1.0"?>
<!DOCTYPE svg PUBLIC "-//W3C//DTD SVG 1.1//EN" "http://www.w3.org/Graphics/SVG/1.1/DTD/svg11.dtd" >
<!-- SVG content generated using Symbology Configuration Management System (SCMS) -->
<!-- Systematic Software Engineering Ltd. - www.systematic.co.uk - do not remove  -->
<svg id="WA--PXS--------" width="400px" height="400px" viewBox="0 0 400 400">
<g >
<svg viewBox="0 0 400 400" id="_0.WA--PXS--------" width="400px" height="400px"><g transform="scale(0.8 0.8)"><g transform="translate(-120 -150) scale(1.5 2)"><path d="M100.738 183.479 C106.696 184.892 114.098 188.15 119.421 190.812" style="fill:none;stroke:rgb(0,0,0);stroke-width:2"></path>
<path d="M143.694 201.292 C143.694 201.292 159.844 206.359 164.311 205.825" style="fill:none;stroke:rgb(0,0,0);stroke-width:2"></path>
<path d="M188.861 200.559 C188.861 200.559 198.278 194.509 200.778 191.909" style="fill:none;stroke:rgb(0,0,0);stroke-width:2"></path>
<path d="M223.291 175.355 C228.886 173.397 233.367 171.53 239.874 172.822" style="fill:none;stroke:rgb(0,0,0);stroke-width:2"></path>
<path d="M265.208 184.892 C268.999 187.379 272.123 190.753 275.508 193.292" style="fill:none;stroke:rgb(0,0,0);stroke-width:2"></path>
<path d="M295.221 209.185 C301.044 212.079 303.403 214.019 310.088 215.519" style="fill:none;stroke:rgb(0,0,0);stroke-width:2"></path>
<path d="M332.574 218.085 C332.574 218.085 344.841 217.469 348.458 216.319" style="fill:none;stroke:rgb(0,0,0);stroke-width:2"></path>
<path d="M378.921 205.849 C383.479 203.592 388.957 199.057 391.938 194.799" style="fill:none;stroke:rgb(0,0,0);stroke-width:2"></path>
<path d="M122.76 192.088 C122.76 192.088 128.51 194.624 130.046 195.66" style="fill:none;stroke:rgb(0,0,0);stroke-width:2"></path>
<path d="M133.189 197.088 C133.189 197.088 138.153 199.052 140.331 200.088" style="fill:none;stroke:rgb(0,0,0);stroke-width:2"></path>
<path d="M169.389 205.945 C169.389 205.945 173.889 205.231 175.389 204.945" style="fill:none;stroke:rgb(0,0,0);stroke-width:2"></path>
<path d="M178.246 204.517 C178.246 204.517 182.853 203.017 184.389 202.517" style="fill:none;stroke:rgb(0,0,0);stroke-width:2"></path>
<path d="M204.708 188.836 C204.708 188.836 208.534 185.151 210.103 184.139" style="fill:none;stroke:rgb(0,0,0);stroke-width:2"></path>
<path d="M213.162 181.55 C213.162 181.55 217.34 178.695 218.851 177.861" style="fill:none;stroke:rgb(0,0,0);stroke-width:2"></path>
<path d="M246.49 174.567 C246.49 174.567 250.106 175.746 251.154 176.256" style="fill:none;stroke:rgb(0,0,0);stroke-width:2"></path>
<path d="M254.835 178.113 C254.835 178.113 258.488 180.187 259.667 181.055" style="fill:none;stroke:rgb(0,0,0);stroke-width:2"></path>
<path d="M279.035 196.399 C279.035 196.399 282.18 199.04 283.228 199.979" style="fill:none;stroke:rgb(0,0,0);stroke-width:2"></path>
<path d="M286.287 202.433 C286.287 202.433 289.453 204.945 290.489 205.802" style="fill:none;stroke:rgb(0,0,0);stroke-width:2"></path>
<path d="M315.731 217.031 C315.731 217.031 319.101 217.384 320.421 217.56" style="fill:none;stroke:rgb(0,0,0);stroke-width:2"></path>
<path d="M324.614 217.955 C324.614 217.955 328.053 218.062 329.16 218.098" style="fill:none;stroke:rgb(0,0,0);stroke-width:2"></path>
<path d="M355.287 215.224 C355.287 215.224 361.239 213.344 363.203 212.737" style="fill:none;stroke:rgb(0,0,0);stroke-width:2"></path>
<path d="M368.69 210.728 C371.122 210.03 372.556 209.266 375.161 207.871" style="fill:none;stroke:rgb(0,0,0);stroke-width:2"></path>
</g>
</g>
</svg>

</g>
</svg>