<?xml version="1.0"?>
<!DOCTYPE svg PUBLIC "-//W3C//DTD SVG 1.1//EN" "http://www.w3.org/Graphics/SVG/1.1/DTD/svg11.dtd" >
<!-- SVG content generated using Symbology Configuration Management System (SCMS) -->
<!-- Systematic Software Engineering Ltd. - www.systematic.co.uk - do not remove  -->
<svg id="SUGPUSTA--*****" width="400px" height="400px" viewBox="0 0 400 400">
<g >
<svg viewBox="0 0 400 400" id="_0.SUG-U----------" width="400px" height="400px"><path d="M115 285 C115 400 285 400 285 285 C400 285 400 115 285 115 C285 0 115 0 115 115 C0     115 0 285 115 285 z" style="fill:rgb(255,255,128);stroke:rgb(0,0,0);stroke-width:10"></path>
</svg>

</g>
<g transform="translate(40 72) scale(0.8 0.8)" >
<svg viewBox="0 0 400 400" id="_1.S-G-UST--------" width="400px" height="400px"><ellipse cx="200" cy="200" rx="80" ry="80" style="fill:none;stroke:rgb(0,0,0);stroke-width:10"></ellipse>
<line x1="136" y1="156" x2="264" y2="244" style="fill:none;stroke:rgb(0,0,0);stroke-width:10"></line>
<line x1="136" y1="244" x2="264" y2="156" style="fill:none;stroke:rgb(0,0,0);stroke-width:10"></line>
<line x1="200" y1="120" x2="200" y2="280" style="fill:none;stroke:rgb(0,0,0);stroke-width:10"></line>
</svg>

</g>
<g >
<svg viewBox="0 0 400 400" id="_2.S-G-USTA-------" width="400px" height="400px"><line x1="110" y1="155" x2="290" y2="155" style="fill:none;stroke:rgb(0,0,0);stroke-width:10"></line>
<line x1="110" y1="230" x2="200" y2="90" style="fill:none;stroke:rgb(0,0,0);stroke-width:10"></line>
</svg>

</g>
</svg>