<?xml version="1.0"?>
<!DOCTYPE svg PUBLIC "-//W3C//DTD SVG 1.1//EN" "http://www.w3.org/Graphics/SVG/1.1/DTD/svg11.dtd" >
<!-- SVG content generated using Symbology Configuration Management System (SCMS) -->
<!-- Systematic Software Engineering Ltd. - www.systematic.co.uk - do not remove  -->
<svg id="SUGPEWX---*****" width="400px" height="400px" viewBox="0 0 400 400">
<g >
<svg viewBox="0 0 400 400" id="_0.SUG-E----------" width="400px" height="400px"><path d="M115 285 C115 400 285 400 285 285 C400 285 400 115 285 115 C285 0 115 0 115 115 C0     115 0 285 115 285 z" style="fill:rgb(255,255,128);stroke:rgb(0,0,0);stroke-width:10"></path>
</svg>

</g>
<g transform="translate(153 91) scale(6.5 6)" >
<svg viewBox="0 0 400 400" id="_1.S-G-EWX--------" width="400px" height="400px"><path d="M0 16.75 L2 16.75 L2 28.25 L0 28.25 zM2.301 7.904 L0.863 6.535 L7.271 0 L13.519 6.305
			L12.146 7.883 L7.26 3.008 zM12.84 11.096 L11.436 12.52 L8.125 9.385 L8.125
			36.25 L6.25 36.25 L6.25 9.611 L3.264 12.478 L1.74 11.133 L7.271 5.528 zM11.875
			16.75 L14 16.75 L14 28.25 L11.875 28.25 z"></path>
</svg>

</g>
</svg>