<?xml version="1.0"?>
<!DOCTYPE svg PUBLIC "-//W3C//DTD SVG 1.1//EN" "http://www.w3.org/Graphics/SVG/1.1/DTD/svg11.dtd" >
<!-- SVG content generated using Symbology Configuration Management System (SCMS) -->
<!-- Systematic Software Engineering Ltd. - www.systematic.co.uk - do not remove  -->
<svg id="WA--IML--------" width="400px" height="400px" viewBox="0 0 400 400">
<g >
<svg viewBox="0 0 400 400" id="_0.WA--IML--------" width="400px" height="400px"><g transform="translate(30 90) scale(6 6)"><path d="M14.186 4.875 C10.489 4.875 7.379 6.143 4.86 8.676 C2.34 11.211 1.08 14.318 1.08
				18 L0 18 C0 13.971 1.367 10.588 4.104 7.854 C6.841 5.12 10.201 3.75 14.186 3.75
				C18.217 3.75 21.6 5.119 24.336 7.854 C27.072 10.589 28.441 13.971 28.441
				18 L27.361 18 C27.361 14.318 26.088 11.211 23.545 8.676 C21 6.143 17.881 4.875
				14.186 4.875 zM28.152 0 L26.857 0 L26.857 35 L28.152 35 zM41.473 31.125
				C45.121 31.125 48.217 29.859 50.76 27.324 C53.303 24.791 54.576 21.683 54.576
				18 L55.656 18 C55.656 22.031 54.287 25.414 51.552 28.148 C48.816 30.882 45.456
				32.25 41.472 32.25 C37.488 32.25 34.126 30.871 31.392 28.111 C28.656 25.353
				27.288 21.982 27.288 18 L28.368 18 C28.368 21.684 29.639 24.791 32.182
				27.324 C34.727 29.859 37.824 31.125 41.473 31.125 z" style="fill:rgb(128,98,16)"></path>
<line x1="27.5" y1="5" x2="27.5" y2="27" style="fill:none;stroke:rgb(128,98,16);stroke-width:1.3"></line>
</g>
</svg>

</g>
</svg>