<?xml version="1.0"?>
<!DOCTYPE svg PUBLIC "-//W3C//DTD SVG 1.1//EN" "http://www.w3.org/Graphics/SVG/1.1/DTD/svg11.dtd" >
<!-- SVG content generated using Symbology Configuration Management System (SCMS) -->
<!-- Systematic Software Engineering Ltd. - www.systematic.co.uk - do not remove  -->
<svg id="G*GPGPWP--****X" width="400px" height="400px" viewBox="0 0 400 400">
<g >
<svg viewBox="0 0 400 400" id="_0.G-GPGPWP------X" width="400px" height="400px"><line x1="200" y1="191" x2="225" y2="218" transform="matrix(2 0 0 2 -200 -168) translate(8.5 3)" style="fill:rgb(0,0,0);stroke:rgb(0,0,0);stroke-width:2"></line>
<polygon points="133,137 141.66,152 124.34,152" transform="matrix(1.42782 -1.51041 1.45339 1.37392 -184.916 219.354)" style="fill:rgb(0,0,0);stroke:rgb(0,0,0);stroke-width:2"></polygon>
<g id="CENTER%20POINT" transform="matrix(2 0 0 2 -304 -434)"><text x="286px" y="353px" transform="matrix(1 0 0 1 0 0)" style="fill:rgb(0,0,0);stroke-width:1;font-size:12;font-family:Arial Black;font-weight:bold;
			">CENTER</text>
<text x="314px" y="405px" transform="matrix(1 0 0 1 0 0) translate(-22 -40)" style="fill:rgb(0,0,0);stroke-width:1;font-size:12;font-family:Arial Black;font-weight:bold;
			">POINT</text>
</g>
<polygon points="200,25 230,170 375,200 230,230 200,375 170,230 25,200 170,170" transform="matrix(1 0 0 1 0 0)" style="fill:none;stroke:rgb(0,0,0);stroke-width:5;stroke-dasharray:40 10"></polygon>
</svg>

</g>
</svg>