<?xml version="1.0"?>
<!DOCTYPE svg PUBLIC "-//W3C//DTD SVG 1.1//EN" "http://www.w3.org/Graphics/SVG/1.1/DTD/svg11.dtd" >
<!-- SVG content generated using Symbology Configuration Management System (SCMS) -->
<!-- Systematic Software Engineering Ltd. - www.systematic.co.uk - do not remove  -->
<svg id="SNGPUCAWWR*****" width="400px" height="400px" viewBox="0 0 400 400">
<g >
<svg viewBox="0 0 400 400" id="_0.SNG-U----------" width="400px" height="400px"><rect x="68" y="68" width="264" height="264" style="fill:rgb(170,255,170);stroke:rgb(0,0,0);stroke-width:10"></rect>
</svg>

</g>
<g >
<svg viewBox="0 0 400 400" id="_1.SNG-UCATW------" width="400px" height="400px"><path d="M68 179 C68 178 95 173 95 200 C95 230 137 230 137 200 C137 170 179 170 179 200 C179     230 221 230 221 200 C221 170 263 170 263 200 C263 230 305 229.556 305 200     C305 173 332 178 332 179" style="fill:none;stroke:rgb(0,0,0);stroke-width:10"></path>
</svg>

</g>
<g transform="translate(0 28) scale(1 0.8)" >
<svg viewBox="0 0 400 400" id="_2.S-G-UCA--------" width="400px" height="400px"><path d="M140 140 C80 140 80 260 140 260 L260 260 C320 260 320 140 260 140 z" style="fill:none;stroke:rgb(0,0,0);stroke-width:10"></path>
</svg>

</g>
<g transform="translate(0 5)" >
<svg viewBox="0 0 400 400" id="_3.S-G-UCAW-------" width="400px" height="400px"><ellipse cx="120" cy="245" rx="13" ry="13" style="fill:none;stroke:rgb(0,0,0);stroke-width:10"></ellipse>
<ellipse cx="200" cy="245" rx="13" ry="13" style="fill:none;stroke:rgb(0,0,0);stroke-width:10"></ellipse>
<ellipse cx="280" cy="245" rx="13" ry="13" style="fill:none;stroke:rgb(0,0,0);stroke-width:10"></ellipse>
</svg>

</g>
<g >
<svg viewBox="0 0 400 400" id="_4.S-G-UCATR------" width="400px" height="400px"><line x1="170" y1="283" x2="230" y2="283" style="stroke:rgb(0,0,0);fill:none;stroke-width:10"></line>
<path d="M155 270 C170 270 170 296 155 296" style="fill:none;stroke:rgb(0,0,0);stroke-width:10"></path>
<path d="M245 270 C230 270 230 296 245 296" style="fill:none;stroke:rgb(0,0,0);stroke-width:10"></path>
</svg>

</g>
</svg>