<?xml version="1.0"?>
<!DOCTYPE svg PUBLIC "-//W3C//DTD SVG 1.1//EN" "http://www.w3.org/Graphics/SVG/1.1/DTD/svg11.dtd" >
<!-- SVG content generated using Symbology Configuration Management System (SCMS) -->
<!-- Systematic Software Engineering Ltd. - www.systematic.co.uk - do not remove  -->
<svg id="G*GPOLAGM-****X" width="400px" height="400px" viewBox="0 0 400 400">
<g >
<svg viewBox="0 0 400 400" id="_0.G-GPOLAGM-----X" width="400px" height="400px"><g transform="translate(-100 -70) scale(1.25 1.25)"><path d="M112.5 169.667 C182.796 189.135 266.089 177.282 304.833 169.667" transform="matrix(1 0 0 1 23.6667 23.6667)" style="fill:none;stroke:rgb(0,0,0);stroke-width:2"></path>
<path d="M112.5 169.667 C182.796 189.135 266.089 177.282 304.833 169.667" transform="matrix(1 0 0 -1 23.6667 405.577)" style="fill:none;stroke:rgb(0,0,0);stroke-width:2"></path>
<line x1="346.071" y1="230.296" x2="346.798" y2="219.751" style="fill:rgb(0,0,0);stroke:rgb(0,0,0);stroke-width:2" transform="matrix(1 0 0 1 -18 -36)"></line>
<line x1="346" y1="272" x2="346.253" y2="282.66" style="fill:rgb(0,0,0);stroke:rgb(0,0,0);stroke-width:2" transform="matrix(1 0 0 1 -18 -36)"></line>
<line x1="346.307" y1="281.751" x2="396.489" y2="248.296" style="fill:rgb(0,0,0);stroke:rgb(0,0,0);stroke-width:2" transform="matrix(1 0 0 1 -18 -36)"></line>
<line x1="346" y1="219" x2="397.762" y2="248.478" style="fill:rgb(0,0,0);stroke:rgb(0,0,0);stroke-width:2" transform="matrix(1 0 0 1 -18 -36)"></line>
<line x1="346" y1="230" x2="383.525" y2="248.478" style="fill:rgb(0,0,0);stroke:rgb(0,0,0);stroke-width:2" transform="matrix(1 0 0 1 -18 -36)"></line>
<line x1="346" y1="272" x2="383" y2="248" style="fill:rgb(0,0,0);stroke:rgb(0,0,0);stroke-width:2" transform="matrix(1 0 0 1 -18 -36)"></line>
<g id="PT.%201" transform="translate(127 168)"><text x="196px" y="105px" transform="matrix(1 0 0 1 0 0)" style="fill:rgb(0,0,0);stroke-width:1;font-family:Arial Black;font-weight:bold;font-size:12;      ">PT. 1</text>
</g>
<g id="PT.%202" transform="translate(-144 163)"><text x="252px" y="107px" transform="matrix(1 0 0 1 0 0)" style="fill:rgb(0,0,0);stroke-width:1;font-family:Arial Black;font-weight:bold;font-size:12;      ">PT. 2</text>
</g>
<g id="PT.%203" transform="translate(-43 115)"><text x="312px" y="23px" transform="matrix(1 0 0 1 0 0)" style="fill:rgb(0,0,0);stroke-width:1;font-family:Arial Black;font-weight:bold;font-size:12;      ">PT. 3</text>
</g>
<line x1="124" y1="217" x2="109.507" y2="229.133" transform="matrix(1 0 0 1 0 0)" style="fill:rgb(0,0,0);stroke:rgb(0,0,0);stroke-width:2"></line>
<line x1="109.841" y1="228.466" x2="110" y2="257" transform="matrix(1 0 0 1 0 0)" style="fill:rgb(0,0,0);stroke:rgb(0,0,0);stroke-width:2"></line>
<line x1="330" y1="174" x2="330" y2="145" transform="matrix(1 0 0 1 0 0)" style="fill:rgb(0,0,0);stroke:rgb(0,0,0);stroke-width:2"></line>
<line x1="330.43" y1="145.689" x2="306" y2="134" transform="matrix(1 0 0 1 0 0)" style="fill:rgb(0,0,0);stroke:rgb(0,0,0);stroke-width:2"></line>
<line x1="380" y1="222" x2="380" y2="251" transform="matrix(1 0 0 1 0 0)" style="fill:rgb(0,0,0);stroke:rgb(0,0,0);stroke-width:2"></line>
<line x1="380.207" y1="250.133" x2="360" y2="268" transform="matrix(1 0 0 1 0 0)" style="fill:rgb(0,0,0);stroke:rgb(0,0,0);stroke-width:2"></line>
<polygon points="45,70.4019 48,75.5981 42,75.5981" transform="matrix(0.652784 0.757544 -2.33263 2.01005 264.01 36.3)" style="fill:rgb(0,0,0);stroke:rgb(0,0,0);stroke-width:2"></polygon>
<polygon points="45,70.4019 48,75.5981 42,75.5981" transform="matrix(1 0 0 -3.0792 205 473.702) translate(79 27.6046) translate(1 0) translate(0 -0.32476) translate(0 -0.32476) translate(0 -0.32476)" style="fill:rgb(0,0,0);stroke:rgb(0,0,0);stroke-width:2"></polygon>
<polygon points="45,70.4019 48,75.5981 42,75.5981" transform="matrix(1 0 0 3.0792 205 27.218) translate(128 -9.74279) translate(1 0) translate(0 0.32476) translate(0 0.32476) translate(1 0) translate(0 0.32476)" style="fill:rgb(0,0,0);stroke:rgb(0,0,0);stroke-width:2"></polygon>
</g>
</svg>

</g>
</svg>