<?xml version="1.0"?>
<!DOCTYPE svg PUBLIC "-//W3C//DTD SVG 1.1//EN" "http://www.w3.org/Graphics/SVG/1.1/DTD/svg11.dtd" >
<!-- SVG content generated using Symbology Configuration Management System (SCMS) -->
<!-- Systematic Software Engineering Ltd. - www.systematic.co.uk - do not remove  -->
<svg id="G*GPGPHY--****X" width="400px" height="400px" viewBox="0 0 400 400">
<g >
<svg viewBox="0 0 400 400" id="_0.G-GPGPHY------X" width="400px" height="400px"><g transform="translate(-230 -210) scale(1.75 1.75)"><path d="M0 0 L55.98 0.057 L54.48 1.25 L1.561 1.25 zM0 0 L1.547 1.281 L16.994 41.996 L15.66      42 zM27.75 25.275 L27.75 19.095 L22.201 10.695 L24.541 10.695 C24.941 11.297      25.602 12.336 26.521 13.816 L28.919 17.595 L33.3 10.695 L35.579 10.695 L29.749      19.095 L29.749 25.275 zM55.98 0 L54.48 1.262 L39.061 42 L40.381 42 z" transform="matrix(2.48267 0 0 2.42857 219 179)"></path>
<line x1="192" y1="243" x2="266" y2="232" transform="matrix(1 0 0 1 5 1)" style="fill:rgb(0,0,0);stroke:rgb(0,0,0);stroke-width:2"></line>
<polygon points="79,64.4378 86,76.5622 72,76.5622" transform="matrix(0.209849 0.95643 -1.0717 0.225005 328.977 141.08)" style="fill:rgb(0,0,0);stroke:rgb(0,0,0);stroke-width:2"></polygon>
<g id="CENTER%20POINT" transform="translate(88 84)"><text x="48px" y="157px" transform="matrix(1 0 0 1 0 0)" style="fill:rgb(0,0,0);stroke-width:1;font-family:Arial Black;font-weight:bold;font-size:12;      ">CENTER</text>
<text x="72px" y="188px" transform="matrix(1 0 0 1 0 0) translate(-18 -19)" style="fill:rgb(0,0,0);stroke-width:1;font-family:Arial Black;font-weight:bold;font-size:12;      ">POINT</text>
</g>
</g>
</svg>

</g>
</svg>