<?xml version="1.0"?>
<!DOCTYPE svg PUBLIC "-//W3C//DTD SVG 1.1//EN" "http://www.w3.org/Graphics/SVG/1.1/DTD/svg11.dtd" >
<!-- SVG content generated using Symbology Configuration Management System (SCMS) -->
<!-- Systematic Software Engineering Ltd. - www.systematic.co.uk - do not remove  -->
<svg id="SHGPUSXOT-*****" width="400px" height="400px" viewBox="0 0 400 400">
<g >
<svg viewBox="0 0 400 400" id="_0.SHG-U----------" width="400px" height="400px"><polyline points="200,373 373,200 200,27 27,200 200,373" style="stroke-linecap:square;fill:rgb(255,128,128);stroke:rgb(0,0,0);stroke-width:10"></polyline>
</svg>

</g>
<g >
<svg viewBox="0 0 400 400" id="_1.S-G-USX--------" width="400px" height="400px"><line x1="140" y1="200" x2="260" y2="200" style="fill:none;stroke:rgb(0,0,0);stroke-width:10"></line>
<path d="M285 175 C250 175 250 225 285 225" style="fill:none;stroke:rgb(0,0,0);stroke-width:10"></path>
<path d="M115 175 C150 175 150 225 115 225" style="fill:none;stroke:rgb(0,0,0);stroke-width:10"></path>
</svg>

</g>
<g transform="translate(60 25) scale(0.7 0.7)" >
<svg viewBox="0 0 400 400" id="_2.S-G-USS5-------" width="400px" height="400px"><path d="M160 225 L160 128 C170 93 230 93 240 128 L240 225" style="stroke:rgb(0,0,0);stroke-width:10;fill:none"></path>
<line x1="145" y1="225" x2="255" y2="225" style="fill:none;stroke:rgb(0,0,0);stroke-width:10"></line>
</svg>

</g>
<g >
<svg viewBox="0 0 400 400" id="_3.SHG-UUMSET-----" width="400px" height="400px"><polyline points="70,155 100,200 70,245" style="fill:none;stroke:rgb(0,0,0);stroke-width:10" xmlns="http://www.w3.org/2000/svg"></polyline>
<polyline points="330,155 300,200 330,245" style="fill:none;stroke:rgb(0,0,0);stroke-width:10" xmlns="http://www.w3.org/2000/svg"></polyline>
</svg>

</g>
</svg>