<?xml version="1.0"?>
<!DOCTYPE svg PUBLIC "-//W3C//DTD SVG 1.1//EN" "http://www.w3.org/Graphics/SVG/1.1/DTD/svg11.dtd" >
<!-- SVG content generated using Symbology Configuration Management System (SCMS) -->
<!-- Systematic Software Engineering Ltd. - www.systematic.co.uk - do not remove  -->
<svg id="G*MPOMT---****X" width="400px" height="400px" viewBox="0 0 400 400">
<g >
<svg viewBox="0 0 400 400" id="_0.G-MPOMT-------X" width="400px" height="400px"><g transform="translate(-230 -290) scale(2 2)"><circle cx="218" cy="204.5" r="34" transform="matrix(1 0 0 1 40 27)" style="fill:rgb(0,0,0);stroke:rgb(0,0,0);stroke-width:2"></circle>
<line x1="194" y1="265" x2="254" y2="234" transform="matrix(1 0 0 1 0 0) translate(-11 3) translate(0 1) translate(0 1)" style="fill:rgb(128,128,128);stroke:rgb(128,128,128);stroke-width:2"></line>
<polygon points="147,104.438 154,116.562 140,116.562" transform="matrix(0.440904 0.897554 -1.55461 0.763668 355.971 19.174)" style="fill:rgb(128,128,128);stroke:rgb(128,128,128);stroke-width:2"></polygon>
<g id="CENTER%20POINT" transform="translate(57 131)"><text x="72px" y="129px" transform="matrix(1 0 0 1 0 0)" style="fill:rgb(0,0,0);stroke-width:1;font-family:Arial Black;font-weight:bold;font-size:12;      ">CENTER</text>
<text x="72px" y="183px" transform="matrix(1 0 0 1 0 0) translate(4 -41)" style="fill:rgb(0,0,0);stroke-width:1;font-family:Arial Black;font-weight:bold;font-size:12;      ">POINT</text>
</g>
</g>
</svg>

</g>
</svg>