<?xml version="1.0"?>
<!DOCTYPE svg PUBLIC "-//W3C//DTD SVG 1.1//EN" "http://www.w3.org/Graphics/SVG/1.1/DTD/svg11.dtd" >
<!-- SVG content generated using Symbology Configuration Management System (SCMS) -->
<!-- Systematic Software Engineering Ltd. - www.systematic.co.uk - do not remove  -->
<svg id="G*GPSAB---****X" width="400px" height="400px" viewBox="0 0 400 400">
<g >
<svg viewBox="0 0 400 400" id="_0.G-GPSAB-------X" width="400px" height="400px"><g transform="scale(0.8 0.8)"><path d="M212.898 172.824 C242.531 158.824 271.343 164.777 280.898 182.157 C288.92 196.749      290.209 305.121 284.231 313.49 C270.501 332.712 264.2 341.824 216.231 333.824" style="fill:none;stroke:rgb(0,0,0);stroke-width:2" transform="matrix(-1.83691e-016 -1 1 -1.83691e-016 8.79076 438.557)"></path>
<path d="M156.5 173 C166.225 197.312 183.412 196.891 202.5 211 C220.977 224.657 243.965 249.463      265.5 257 C287.292 264.627 352.693 195.807 368.5 180" style="fill:none;stroke:rgb(0,0,0);stroke-width:2" transform="matrix(1 0 0 1 -8 24)"></path>
<path d="M136.5 206 C158.989 229.988 265.534 314.347 302.5 291 L315.5 270 C335.97 245.692      366.365 230.483 387.5 207" style="fill:none;stroke:rgb(0,0,0);stroke-width:2" transform="matrix(1 0 0 1 -8 24)"></path>
<text x="138px" y="358px" transform="matrix(0.795847 0.605498 -0.605498 0.795847 290.513 -107.986)" style="fill:rgb(0,0,0);font-family:Arial Black;font-weight:bold;font-size:18">RIVER</text>
<text x="126px" y="355px" transform="matrix(1 0 0 1 -109 -172)" style="fill:rgb(0,0,0);font-family:Arial Black;font-weight:bold;font-size:18">BRIDGEHEAD</text>
<text x="156px" y="384px" style="fill:rgb(0,0,0);font-family:Arial Black;font-weight:bold;font-size:18" transform="matrix(1 0 0 1 -105 -183)">LINE</text>
<text x="126px" y="355px" transform="matrix(1 0 0 1 228 -168)" style="fill:rgb(0,0,0);font-family:Arial Black;font-weight:bold;font-size:18">BRIDGEHEAD</text>
<text x="218px" y="256px" transform="matrix(1 0 0 1 170 -51)" style="fill:rgb(0,0,0);font-family:Arial Black;font-weight:bold;font-size:18">LINE</text>
<g transform="matrix(1 0 0 1 147 -146)"><path d="M39.5 286 C41.4155 299.409 38.4448 342.455 45.5 354 C61.0264 379.407 159.493 363.686       171.5 333 C176.845 319.341 168.639 311.554 165.5 299 C163.748 291.99 166.865       272.517 160.5 267 C143.903 252.616 52.9074 270.059 39.5 286.818" transform="translate(39.5 314.141) scale(0.70843 1) translate(-39.5 -314.141) translate(106.379 366.611) scale(1 0.609301) translate(-106.379 -366.611) translate(39.5 314.141) scale(0.883916 1) translate(-39.5 -314.141) translate(106.379 366.611) scale(1 0.906162) translate(-106.379 -366.611) translate(39.5 314.141) scale(0.86867 1) translate(-39.5 -314.141) translate(39.5 314.141) scale(0.93128 1) translate(-39.5 -314.141) translate(106.379 366.611) scale(1 0.896445) translate(-106.379 -366.611)" style="fill:none;stroke:rgb(0,0,0);stroke-width:2"></path>
<text x="158px" y="385px" transform="translate(-106 -43)" style="fill:rgb(0,0,0);font-size:18;font-family:Arial Black;font-weight:bold">OBJ</text>
<text x="170px" y="404px" transform="translate(4 -4) translate(-106 -43)" style="fill:rgb(0,0,0);font-size:18;font-family:Arial Black;font-weight:bold">1</text>
</g>
<g transform="matrix(1 0 0 1 -80 -183)"><text x="242px" y="381px" transform="translate(114 -1)" style="fill:rgb(0,0,0);font-size:18;font-family:Arial Black;font-weight:bold">OBJ</text>
<text x="258px" y="409px" transform="translate(-1 -14) translate(114 -1)" style="fill:rgb(0,0,0);font-size:18;font-family:Arial Black;font-weight:bold">2</text>
<path d="M39.5 286 C41.4155 299.409 38.4448 342.455 45.5 354 C61.0264 379.407 159.493 363.686       171.5 333 C176.845 319.341 168.639 311.554 165.5 299 C163.748 291.99 166.865       272.517 160.5 267 C143.903 252.616 52.9074 270.059 39.5 286.818" transform="matrix(0.506574 0 0 0.49495 196.49 95.1569) translate(252.678 256.592)" style="fill:none;stroke:rgb(0,0,0);stroke-width:2"></path>
</g>
<text x="50px" y="378px" transform="matrix(1 0 0 1 0 0) translate(-45.3488 -146.512) translate(0 -1)" style="fill:rgb(0,0,0);stroke-width:1;font-family:Arial Black;font-weight:bold;font-size:18;     ">(PL</text>
<g id="T1"><text x="98px" y="427px" transform="matrix(1 0 0 1 0 0) translate(-52.3256 -197.674)" style="fill:rgb(0,0,0);stroke-width:1;font-family:Arial Black;font-weight:bold;font-size:18;      ">ALPHA)</text>
</g>
<text x="265px" y="365px" transform="matrix(1 0 0 1 0 0) translate(111.628 -140.698)" style="fill:rgb(0,0,0);stroke-width:1;font-family:Arial Black;font-weight:bold;font-size:18;     ">(PL</text>
<g id="T2"><text x="272px" y="392px" transform="matrix(1 0 0 1 0 0) translate(143.023 -169.767) translate(0 1) translate(0 1)" style="fill:rgb(0,0,0);stroke-width:1;font-family:Arial Black;font-weight:bold;font-size:18;      ">ALPHA)</text>
</g>
</g>
</svg>

</g>
</svg>