<?xml version="1.0"?>
<!DOCTYPE svg PUBLIC "-//W3C//DTD SVG 1.1//EN" "http://www.w3.org/Graphics/SVG/1.1/DTD/svg11.dtd" >
<!-- SVG content generated using Symbology Configuration Management System (SCMS) -->
<!-- Systematic Software Engineering Ltd. - www.systematic.co.uk - do not remove  -->
<svg id="G*GPGPWI--****X" width="400px" height="400px" viewBox="0 0 400 400">
<g >
<svg viewBox="0 0 400 400" id="_0.G-GPGPWI------X" width="400px" height="400px"><polygon points="200,25 230,170 375,200 230,230 200,375 170,230 25,200 170,170" transform="matrix(1 0 0 1 0 0)" style="fill:rgb(0,0,0);stroke:rgb(0,0,0);stroke-width:5"></polygon>
<polygon points="140,61 146.351,72 133.649,72" transform="matrix(0.890781 -2.01644 1.60076 0.707154 -31.411 433.152)" style="fill:rgb(128,128,128);stroke:rgb(128,128,128);stroke-width:2"></polygon>
<line x1="258" y1="205" x2="306" y2="227" transform="matrix(1.75 0 0 1.75 -250 -160)" style="fill:rgb(128,128,128);stroke:rgb(128,128,128);stroke-width:2"></line>
<g id="CENTER%20POINT" transform="matrix(1.75 0 0 1.75 -59.25 -399.75)"><text x="200px" y="363px" transform="matrix(1 0 0 1 0 0)" style="fill:rgb(0,0,0);stroke-width:1;font-family:Arial Black;font-weight:bold;font-size:12;
			">CENTER</text>
<text x="232px" y="382px" transform="matrix(1 0 0 1 0 0) translate(-28 -9)" style="fill:rgb(0,0,0);stroke-width:1;font-family:Arial Black;font-weight:bold;font-size:12;
			">POINT</text>
</g>
</svg>

</g>
</svg>