<?xml version="1.0"?>
<!DOCTYPE svg PUBLIC "-//W3C//DTD SVG 1.1//EN" "http://www.w3.org/Graphics/SVG/1.1/DTD/svg11.dtd" >
<!-- SVG content generated using Symbology Configuration Management System (SCMS) -->
<!-- Systematic Software Engineering Ltd. - www.systematic.co.uk - do not remove  -->
<svg id="G*OPFA----****X" width="400px" height="400px" viewBox="0 0 400 400">
<g transform="scale(0.5 0.5) translate(100 405)" >
<svg viewBox="0 0 400 400" id="_0.GC------------X" width="400px" height="400px"><text x="149px" y="195px" style="fill:rgb(0,0,0);stroke:rgb(0,0,0);font-size:24;font-family:Arial">CENTER</text>
<text x="160px" y="220px" style="fill:rgb(0,0,0);stroke:rgb(0,0,0);font-size:24;font-family:Arial">POINT</text>
</svg>

</g>
<g >
<svg viewBox="0 0 400 400" id="_1.GAR15---------X" width="400px" height="400px"><line x1="199" y1="200" x2="150" y2="290" transform="matrix(1 0 0 1 0 0)" style="stroke:rgb(0,0,0);stroke-width:2"></line>
<polygon points="192,205 198,202 198,210" transform="matrix(1 0 0 1 0 0)" style="fill:rgb(0,0,0);stroke:rgb(0,0,0);stroke-width:2"></polygon>
</svg>

</g>
<g >
<svg viewBox="0 0 400 400" id="_2.G-OPFA--------X" width="400px" height="400px"><line x1="200" y1="50" x2="200" y2="350" transform="matrix(1 0 0 1 0 0)" style="stroke:rgb(0,0,0);stroke-width:3"></line>
<line x1="50" y1="50" x2="350" y2="350" transform="matrix(1 0 0 1 0 0)" style="stroke:rgb(0,0,0);stroke-width:3"></line>
<line x1="350" y1="50" x2="50" y2="350" transform="matrix(1 0 0 1 0 0)" style="stroke:rgb(0,0,0);stroke-width:3"></line>
</svg>

</g>
</svg>