<?xml version="1.0"?>
<!DOCTYPE svg PUBLIC "-//W3C//DTD SVG 1.1//EN" "http://www.w3.org/Graphics/SVG/1.1/DTD/svg11.dtd" >
<!-- SVG content generated using Symbology Configuration Management System (SCMS) -->
<!-- Systematic Software Engineering Ltd. - www.systematic.co.uk - do not remove  -->
<svg id="G*GPSAA---****X" width="400px" height="400px" viewBox="0 0 400 400">
<g >
<svg viewBox="0 0 400 400" id="_0.G-GPSAA-------X" width="400px" height="400px"><g transform="translate(-160 -140) scale(1.5 1.5)"><path d="M138 130 C131.489 146.278 139.513 154.116 138 170 C134.904 202.509 119.063 268.85      148 292 C157.073 299.259 168.364 304.413 180 306 C196.44 308.242 326.375 306.708      335 300 L349 279 C363.646 243.198 341.187 208.267 343 172 C343.462 162.754      349.25 135.35 344 128 C338.578 120.41 160.177 93.1048 137.8 130.4" style="fill:none;stroke:rgb(0,0,0);stroke-width:2"></path>
<text x="206px" y="348px" transform="matrix(1 0 0 1 -44 -22) translate(1 0) translate(1 0) translate(1 0) translate(1 0) translate(1 0) translate(1 0) translate(1 0) translate(1 0) translate(1 0) translate(1 0) translate(1 0) translate(1 0) translate(1 0) translate(1 0) translate(1 0) translate(1 0) translate(1 0) translate(1 0) translate(1 0) translate(1 0) translate(1 0) translate(1 0) translate(1 0) translate(1 0) translate(1 0) translate(1 0) translate(1 0) translate(1 0) translate(1 0) translate(1 0) translate(1 0) translate(1 0) translate(1 0) translate(1 0) translate(1 0) translate(-1 0) translate(-1 0) translate(-1 0) translate(-1 0) translate(-1 0)" style="fill:rgb(0,0,0);font-family:Arial Black;font-weight:bold;font-size:12">AIRHEAD LINE</text>
<text x="184px" y="361px" transform="matrix(1 0 0 1 0 0) translate(29 -17)" style="fill:rgb(0,0,0);stroke-width:1;font-size:12;font-family:Arial Black;font-weight:bold;     ">(PL</text>
<g id="T" transform="translate(-31 -21) translate(29 -17)"><rect x="240" y="370" width="16" height="17" transform="matrix(1 0 0 1 0 0)" style="fill:rgb(255,255,255);stroke:rgb(0,0,0);stroke-width:2"></rect>
<text x="244px" y="383px" transform="matrix(1 0 0 1 0 0)" style="fill:rgb(0,0,0);stroke-width:1;font-size:12;font-family:Arial Black;font-weight:bold;      ">T</text>
</g>
<text x="320px" y="357px" transform="matrix(1 0 0 1 0 0) translate(-91 4) translate(0 1) translate(0 -1) translate(29 -17)" style="fill:rgb(0,0,0);stroke-width:1;font-size:12;font-family:Arial Black;font-weight:bold;     ">)</text>
</g>
</svg>

</g>
</svg>