<?xml version="1.0"?>
<!DOCTYPE svg PUBLIC "-//W3C//DTD SVG 1.1//EN" "http://www.w3.org/Graphics/SVG/1.1/DTD/svg11.dtd" >
<!-- SVG content generated using Symbology Configuration Management System (SCMS) -->
<!-- Systematic Software Engineering Ltd. - www.systematic.co.uk - do not remove  -->
<svg id="G*MPNM----****X" width="400px" height="400px" viewBox="0 0 400 400">
<g >
<svg viewBox="0 0 400 400" id="_0.G-MPNM--------X" width="400px" height="400px"><circle cx="200" cy="200" r="150" transform="matrix(1 0 0 1 0 0)" style="fill:none;stroke:rgb(0,0,0);stroke-width:5"></circle>
<circle cx="200" cy="200" r="100" transform="matrix(1 0 0 1 0 0)" style="fill:none;stroke:rgb(0,0,0);stroke-width:5"></circle>
<circle cx="200" cy="200" r="50" transform="matrix(1 0 0 1 0 0)" style="fill:none;stroke:rgb(0,0,0);stroke-width:5"></circle>
<rect x="235" y="170" width="25" height="25" style="fill:rgb(255,255,255);stroke:rgb(255,255,255);stroke-width:1"></rect>
<text x="238px" y="190px" transform="matrix(1 0 0 1 0 0)" style="fill:rgb(0,0,0);stroke:rgb(0,0,0);font-size:24;font-family:Arial">1</text>
<rect x="285" y="160" width="25" height="25" style="fill:rgb(255,255,255);stroke:rgb(255,255,255);stroke-width:1"></rect>
<text x="288px" y="180px" transform="matrix(1 0 0 1 0 0)" style="fill:rgb(0,0,0);stroke:rgb(0,0,0);font-size:24;font-family:Arial">2</text>
<rect x="335" y="150" width="25" height="25" style="fill:rgb(255,255,255);stroke:rgb(255,255,255);stroke-width:1"></rect>
<text x="338px" y="170px" transform="matrix(1 0 0 1 0 0) translate(0 0)" style="fill:rgb(0,0,0);stroke:rgb(0,0,0);font-size:24;font-family:Arial">3</text>
</svg>

</g>
<g >
<svg viewBox="0 0 400 400" id="_1.G-MPNM-------LX" width="400px" height="400px"><defs><marker id="arrowHead" viewBox="0 0 10 10" refX="0" refY="5" markerUnits="strokeWidth" markerWidth="4" markerHeight="3" orient="auto"><path d="M0 0 L10 5 L0 10 z"></path>
</marker>
</defs>
<line x1="200" y1="200" x2="215" y2="165" style="marker-end:url(#arrowHead);fill:none;stroke:rgb(0,0,0);stroke-width:3"></line>
<line x1="200" y1="200" x2="127.5" y2="150" style="marker-end:url(#arrowHead);fill:none;stroke:rgb(0,0,0);stroke-width:3"></line>
<line x1="200" y1="200" x2="102" y2="297" style="marker-end:url(#arrowHead);fill:none;stroke:rgb(0,0,0);stroke-width:3"></line>
<line x1="325" y1="325" x2="206" y2="206" style="marker-end:url(#arrowHead);fill:none;stroke:rgb(0,0,0);stroke-width:3"></line>
<text x="295px" y="350px" style="fill:rgb(0,0,0);stroke:rgb(0,0,0);font-size:24;font-family:Arial">CENTER</text>
<text x="310px" y="375px" style="fill:rgb(0,0,0);stroke:rgb(0,0,0);font-size:24;font-family:Arial">POINT</text>
<text x="220px" y="150px" style="fill:rgb(0,0,0);stroke:rgb(0,0,0);font-size:16;font-family:Arial">PT.1</text>
<text x="82px" y="140px" style="fill:rgb(0,0,0);stroke:rgb(0,0,0);font-size:16;font-family:Arial">PT.2</text>
<text x="60px" y="320px" style="fill:rgb(0,0,0);stroke:rgb(0,0,0);font-size:16;font-family:Arial">PT.3</text>
</svg>

</g>
</svg>