<?xml version="1.0"?>
<!DOCTYPE svg PUBLIC "-//W3C//DTD SVG 1.1//EN" "http://www.w3.org/Graphics/SVG/1.1/DTD/svg11.dtd" >
<!-- SVG content generated using Symbology Configuration Management System (SCMS) -->
<!-- Systematic Software Engineering Ltd. - www.systematic.co.uk - do not remove  -->
<svg id="G*MPSL----****X" width="400px" height="400px" viewBox="0 0 400 400">
<g >
<svg viewBox="0 0 400 400" id="_0.G-MPSL--------X" width="400px" height="400px"><g transform="translate(-60 -10) scale(1 1)"><polyline points="76.6504,261.3 87.2171,261.3 87.1504,234.567 114.417,234.567 114.417,261.3 125.05,261.267" transform="matrix(1 0 0 1 18 -25)" style="stroke:rgb(0,0,0);stroke-width:2;fill:rgb(255,255,255)"></polyline>
<polyline points="76.6504,261.3 87.2171,261.3 87.1504,234.567 114.417,234.567 114.417,261.3 125.05,261.267" transform="matrix(1 0 0 1 305.333 -25)" style="stroke:rgb(0,0,0);stroke-width:2;fill:rgb(255,255,255)"></polyline>
<polyline points="76.6504,261.3 87.2171,261.3 87.1504,234.567 114.417,234.567 114.417,261.3 125.05,261.267" transform="matrix(1 0 0 1 257 -25)" style="stroke:rgb(0,0,0);stroke-width:2;fill:rgb(255,255,255)"></polyline>
<polyline points="76.6504,261.3 87.2171,261.3 87.1504,234.567 114.417,234.567 114.417,261.3 125.05,261.267" transform="matrix(1 0 0 1 210 -25)" style="stroke:rgb(0,0,0);stroke-width:2;fill:rgb(255,255,255)"></polyline>
<polyline points="76.6504,261.3 87.2171,261.3 87.1504,234.567 114.417,234.567 114.417,261.3 125.05,261.267" transform="matrix(1 0 0 1 162 -25)" style="stroke:rgb(0,0,0);stroke-width:2;fill:rgb(255,255,255)"></polyline>
<polyline points="76.6504,261.3 87.2171,261.3 87.1504,234.567 114.417,234.567 114.417,261.3 125.05,261.267" transform="matrix(1 0 0 1 114 -25)" style="stroke:rgb(0,0,0);stroke-width:2;fill:rgb(255,255,255)"></polyline>
<polyline points="76.6504,261.3 87.2171,261.3 87.1504,234.567 114.417,234.567 114.417,261.3 125.05,261.267" transform="matrix(1 0 0 1 66 -25)" style="stroke:rgb(0,0,0);stroke-width:2;fill:rgb(255,255,255)"></polyline>
<g transform="matrix(0.835224 0 0 0.873478 61.2168 -151.287)"><rect x="212" y="331" width="52" height="51" transform="matrix(0.70269 0.711496 -0.711496 0.70269 324.408 -63.3451)" style="fill:rgb(255,128,128);stroke:rgb(0,0,0);stroke-width:2"></rect>
<line x1="215.875" y1="370.352" x2="257.375" y2="340.602" transform="matrix(1 0 0 1 0 0)" style="fill:rgb(0,0,0);stroke:rgb(0,0,0);stroke-width:2"></line>
<line x1="215.034" y1="341.852" x2="259.284" y2="370.602" transform="matrix(1 0 0 1 1.09091 0)" style="fill:rgb(0,0,0);stroke:rgb(0,0,0);stroke-width:2"></line>
<text x="226px" y="297px" transform="matrix(1 0 0 1 0 0) translate(8 19)" style="fill:rgb(0,0,0);font-size:14;font-family:Arial Black;font-weight:bold">II</text>
</g>
</g>
</svg>

</g>
</svg>