<?xml version="1.0"?>
<!DOCTYPE svg PUBLIC "-//W3C//DTD SVG 1.1//EN" "http://www.w3.org/Graphics/SVG/1.1/DTD/svg11.dtd" >
<!-- SVG content generated using Symbology Configuration Management System (SCMS) -->
<!-- Systematic Software Engineering Ltd. - www.systematic.co.uk - do not remove  -->
<svg id="WA--SST--------" width="400px" height="400px" viewBox="0 0 400 400">
<g >
<svg viewBox="0 0 400 400" id="_0.WA--SST--------" width="400px" height="400px"><g transform="translate(110 20) scale(10 10)"><path d="M8.641 25.25 C6.241 25.25 4.2 24.412 2.52 22.732 C0.84 21.055 0 19.016 0 16.617 C0     8.418 2.832 2.879 8.496 0 C5.793 4.365 4.441 8.729 4.441 13.092 C2.703 14.531     1.931 16.498 2.125 18.992 C2.365 22.158 4.537 24.244 8.641 25.25 zM15.5     18.41 C15.5 20.332 14.828 21.951 13.484 23.271 C12.14 24.591 10.508 25.25 8.59     25.25 C6.717 25.25 5.11 24.578 3.766 23.234 C2.422 21.89 1.75 20.283 1.75     18.41 C1.75 16.492 2.408 14.859 3.729 13.515 C5.05 12.171 6.668 11.5 8.59 11.5     C10.508 11.5 12.141 12.172 13.485 13.516 C14.829 14.86 15.5 16.492 15.5     18.41 zM8.59 12.25 C6.869 12.25 5.424 12.848 4.254 14.041 C3.084 15.236 2.5     16.691 2.5 18.41 C2.5 20.082 3.096 21.515 4.291 22.709 C5.484 23.904 6.918 24.5     8.59 24.5 C10.309 24.5 11.764 23.916 12.959 22.746 C14.152 21.576 14.75     20.131 14.75 18.41 C14.75 16.691 14.152 15.236 12.959 14.041 C11.764 12.848     10.309 12.25 8.59 12.25 zM17 19.857 C17 28.072 14.164 33.619 8.496 36.5 C11.287     31.986 12.684 27.809 12.684 23.965 C14.465 22.283 15.403 20.217 15.5 17.768     C15.018 14.694 12.852 12.606 9 11.5 C11.402 11.5 13.336 12.293 14.801 13.879     C16.266 15.465 17 17.457 17 19.857 z" style="fill:rgb(255,0,0)"></path>
</g>
</svg>

</g>
</svg>