<?xml version="1.0"?>
<!DOCTYPE svg PUBLIC "-//W3C//DTD SVG 1.1//EN" "http://www.w3.org/Graphics/SVG/1.1/DTD/svg11.dtd" >
<!-- SVG content generated using Symbology Configuration Management System (SCMS) -->
<!-- Systematic Software Engineering Ltd. - www.systematic.co.uk - do not remove  -->
<svg id="G*GPGPUUD-****X" width="400px" height="400px" viewBox="0 0 400 400">
<g >
<svg viewBox="0 0 400 400" id="_0.G-GPGPUUD-----X" width="400px" height="400px"><line x1="248" y1="221" x2="326" y2="268" transform="matrix(1.5 0 0 2.08467 -200 -233.116)" style="fill:rgb(0,0,0);stroke:rgb(0,0,0);stroke-width:2"></line>
<polygon points="65,55.4378 72,67.5622 58,67.5622" transform="matrix(0.928926 -1.18768 2.0081 1.59721 -5.8775 209.696)" style="fill:rgb(0,0,0);stroke:rgb(0,0,0);stroke-width:2"></polygon>
<g id="CENTER%20POINT" transform="matrix(1.5 0 0 2.08468 104.5 -341.52)"><text x="122px" y="314px" transform="matrix(1 0 0 1 0 0)" style="fill:rgb(0,0,0);stroke-width:1;font-family:Arial Black;font-weight:bold;font-size:12;
			">CENTER</text>
<text x="140px" y="327px" transform="matrix(1 0 0 1 0 0) translate(-12 -3)" style="fill:rgb(0,0,0);stroke-width:1;font-family:Arial Black;font-weight:bold;font-size:12;
			">POINT</text>
</g>
<g transform="translate(80 80) scale(5 5) translate(-6.6 -0.2) translate(-1.2 0) translate(-1.4 0.4) translate(-1 0)"><path d="M50.52 25.342 C50.52 32.467 48.088 38.463 43.229 43.328 C38.37 48.191 32.379 50.625
				25.26 50.625 C18.221 50.625 12.25 48.172 7.35 43.27 C2.451 38.363 0 32.389
				0 25.342 C0 18.217 2.432 12.211 7.289 7.326 C12.15 2.443 18.141 0 25.26 0
				C32.338 0 38.319 2.453 43.199 7.357 C48.078 12.262 50.52 18.256 50.52 25.342
				zM26.58 48.75 C25.939 48.832 25.279 48.875 24.6 48.875 C18.6 48.875 13.301
				46.521 8.702 41.814 C6.382 39.459 4.712 37.115 3.69 34.783 C2.672 32.447 2.102
				29.644 1.981 26.375 L25.751 26.375 L25.751 48.75 zM25.5 26.125 L25.5 1.875
				C18.918 1.875 13.332 4.176 8.742 8.777 C3.996 13.539 1.781 19.322 2.1 26.125
				zM41.645 9.117 C44.883 12.375 46.942 15.15 47.821 17.443 C48.421 18.931 48.721
				21.306 48.721 24.564 C48.721 25.169 48.688 25.773 48.625 26.375 L25.75
				26.375 L25.75 1.875 C31.627 1.957 36.926 4.371 41.645 9.117 zM48.625 26.375
				L25.98 26.375 L25.98 48.75 C32.027 48.43 37.271 46.15 41.716 41.912 C46.322
				37.512 48.625 32.332 48.625 26.375 z"></path>
</g>
</svg>

</g>
</svg>