<?xml version="1.0"?>
<!DOCTYPE svg PUBLIC "-//W3C//DTD SVG 1.1//EN" "http://www.w3.org/Graphics/SVG/1.1/DTD/svg11.dtd" >
<!-- SVG content generated using Symbology Configuration Management System (SCMS) -->
<!-- Systematic Software Engineering Ltd. - www.systematic.co.uk - do not remove  -->
<svg id="G*GPDABP--****X" width="400px" height="400px" viewBox="0 0 400 400">
<g >
<svg viewBox="0 0 400 400" id="_0.G-GPDABP------X" width="400px" height="400px"><g transform="translate(-180 -160) scale(1.5 1.5)"><text x="276px" y="318px" transform="matrix(1 0 0 1 -37 -77) translate(-105 -141) translate(75 137)" style="fill:rgb(0,0,0);font-family:Arial Black;font-weight:bold;font-size:24">(P)</text>
<path d="M135.545 135.545 C135.545 135.545 128.182 145.182 129.364 146.455" style="fill:none;stroke:rgb(0,0,0);stroke-width:1" transform="matrix(1 0 0 1 19 67)"></path>
<path d="M141.727 130.818 C147.904 127.73 153.964 127.668 160.636 126.455" style="fill:none;stroke:rgb(0,0,0);stroke-width:1" transform="matrix(1 0 0 1 19 67)"></path>
<path d="M173.364 125.727 C173.364 125.727 184.545 126.545 188.273 126.818" style="fill:none;stroke:rgb(0,0,0);stroke-width:1" transform="matrix(1 0 0 1 19 67)"></path>
<path d="M200.273 127.909 C200.273 127.909 212 128.182 215.909 128.273" style="fill:none;stroke:rgb(0,0,0);stroke-width:1" transform="matrix(1 0 0 1 19 67)"></path>
<path d="M228.273 127.545 C228.273 127.545 240.394 125.03 247.545 124.636" style="fill:none;stroke:rgb(0,0,0);stroke-width:1" transform="matrix(1 0 0 1 19 67)"></path>
<path d="M258.455 123.182 C258.455 123.182 269.636 121 273.364 120.273" style="fill:none;stroke:rgb(0,0,0);stroke-width:1" transform="matrix(1 0 0 1 19 67)"></path>
<path d="M290.091 118.818 C290.091 118.818 301.273 117.061 305 117.364" style="fill:none;stroke:rgb(0,0,0);stroke-width:1" transform="matrix(1 0 0 1 19 67)"></path>
<path d="M323.545 120.636 C323.545 120.636 333 123.091 334.818 127.909" style="fill:none;stroke:rgb(0,0,0);stroke-width:1" transform="matrix(1 0 0 1 19 67)"></path>
<path d="M339.909 137 C339.909 137 344.242 145.182 343.909 147.909" style="fill:none;stroke:rgb(0,0,0);stroke-width:1" transform="matrix(1 0 0 1 19 67)"></path>
<path d="M345.727 156.636 C345.727 156.636 348.152 168.03 347.182 172.273" style="fill:none;stroke:rgb(0,0,0);stroke-width:1" transform="matrix(1 0 0 1 19 67)"></path>
<path d="M347.182 187.182 C347.182 187.182 349.03 188.515 342.091 199.182" style="fill:none;stroke:rgb(0,0,0);stroke-width:1" transform="matrix(1 0 0 1 19 67)"></path>
<path d="M336.273 206.455 C336.273 206.455 326.758 210.242 317.364 209.727" style="fill:none;stroke:rgb(0,0,0);stroke-width:1" transform="matrix(1 0 0 1 19 67)"></path>
<path d="M309.364 210.818 C309.364 210.818 298.455 210.273 294.818 210.091" style="fill:none;stroke:rgb(0,0,0);stroke-width:1" transform="matrix(1 0 0 1 19 67)"></path>
<path d="M279.182 209.364 C279.182 209.364 265 207.727 260.273 207.182" style="fill:none;stroke:rgb(0,0,0);stroke-width:1" transform="matrix(1 0 0 1 19 67)"></path>
<path d="M250.818 208.273 C250.818 208.273 239.091 209.636 235.182 210.091" style="fill:none;stroke:rgb(0,0,0);stroke-width:1" transform="matrix(1 0 0 1 19 67)"></path>
<path d="M227.545 213 C227.545 213 215.545 216 211.545 217" style="fill:none;stroke:rgb(0,0,0);stroke-width:1" transform="matrix(1 0 0 1 19 67)"></path>
<path d="M200.636 218.818 C200.636 218.818 186.455 220.182 181.727 220.636" style="fill:none;stroke:rgb(0,0,0);stroke-width:1" transform="matrix(1 0 0 1 19 67)"></path>
<path d="M173.727 222.455 C173.727 222.455 161.545 222.03 158.818 221" style="fill:none;stroke:rgb(0,0,0);stroke-width:1" transform="matrix(1 0 0 1 19 67)"></path>
<path d="M151.545 217.727 C151.545 217.727 142.091 214.97 140.273 212.273" style="fill:none;stroke:rgb(0,0,0);stroke-width:1" transform="matrix(1 0 0 1 19 67)"></path>
<path d="M134.091 205.364 C134.091 205.364 128.061 197.242 128.273 194.091" style="fill:none;stroke:rgb(0,0,0);stroke-width:1" transform="matrix(1 0 0 1 19 67)"></path>
<path d="M126.818 183.909 C126.818 183.909 125.667 174.576 126.061 171.576" style="fill:none;stroke:rgb(0,0,0);stroke-width:1" transform="matrix(1 0 0 1 19 67)"></path>
<path d="M126.091 162.091 C125.629 157.011 126.133 152.321 127.606 150.455" style="fill:none;stroke:rgb(0,0,0);stroke-width:1" transform="matrix(1 0 0 1 19 67)"></path>
<g id="T"><text x="174px" y="95px" transform="translate(-8 8) translate(5 -3) translate(2 2) translate(75 137)" style="fill:rgb(0,0,0);font-size:24;font-family:Arial Black;font-weight:bold">Blue</text>
</g>
<g id="B" transform="translate(96 190) translate(3 4) translate(5 -4) translate(-10 2)"><rect x="140" y="75" width="44" height="22" style="fill:rgb(255,255,255);stroke:none;stroke-width:1"></rect>
<text x="142px" y="95px" style="fill:rgb(0,0,0);font-size:24;font-family:Arial Black;font-weight:bold">XX</text>
</g>
</g>
</svg>

</g>
</svg>