<?xml version="1.0"?>
<!DOCTYPE svg PUBLIC "-//W3C//DTD SVG 1.1//EN" "http://www.w3.org/Graphics/SVG/1.1/DTD/svg11.dtd" >
<!-- SVG content generated using Symbology Configuration Management System (SCMS) -->
<!-- Systematic Software Engineering Ltd. - www.systematic.co.uk - do not remove  -->
<svg id="G*GPDAE---****X" width="400px" height="400px" viewBox="0 0 400 400">
<g >
<svg viewBox="0 0 400 400" id="_0.G-GPDAE-------X" width="400px" height="400px"><g transform="translate(-70 -70)"><path d="M275 145 C342.93 145 421 149.504 398 231 C375 312.496 340.93 289 273 289 C205.07      289 168 333.496 152 231 C136 128.504 207.07 145 275 145 z" style="fill:rgb(255,255,255);stroke:rgb(0,0,0);stroke-width:2" transform="matrix(1 0 0 1 0 0)"></path>
<line x1="269.5" y1="342" x2="374" y2="164" style="fill:rgb(0,0,0);stroke:rgb(0,0,0);stroke-width:2"></line>
<text x="170px" y="159px" transform="matrix(1 0 0 1 -2 5)" style="fill:rgb(0,0,0);font-size:24;font-family:Arial Black;font-weight:bold">+</text>
<text x="370px" y="162px" transform="matrix(1 0 0 1 -4 4)" style="fill:rgb(0,0,0);font-size:24;font-family:Arial Black;font-weight:bold">+</text>
<text x="170px" y="159px" transform="matrix(1 0 0 1 82 2)" style="fill:rgb(0,0,0);font-size:24;font-family:Arial Black;font-weight:bold">+</text>
<ellipse cx="137" cy="244.5" rx="15" ry="31.5" transform="matrix(1 0 0 1 -25 19)" style="fill:rgb(255,255,255);stroke:rgb(0,0,0);stroke-width:2"></ellipse>
<rect x="56" y="208" width="36" height="22" transform="matrix(1 0 0 1 25 47)" style="fill:rgb(255,255,255);stroke:none;stroke-width:1"></rect>
<line x1="54" y1="130" x2="84" y2="116" transform="matrix(1 0 0 1 30 145)" style="fill:rgb(0,0,0);stroke:rgb(0,0,0);stroke-width:2"></line>
<ellipse cx="137" cy="244.5" rx="15" ry="31.5" transform="matrix(-1 0 0 1 559.004 13)" style="fill:rgb(255,255,255);stroke:rgb(0,0,0);stroke-width:2"></ellipse>
<rect x="56" y="208" width="36" height="22" transform="matrix(-1 0 0 1 509.004 41)" style="fill:rgb(255,255,255);stroke:none;stroke-width:1"></rect>
<line x1="54" y1="130" x2="84" y2="116" transform="matrix(-1 0 0 1 504.004 139)" style="fill:rgb(0,0,0);stroke:rgb(0,0,0);stroke-width:2"></line>
<line x1="242.5" y1="231" x2="421.5" y2="288.951" transform="matrix(1 0 0 1 0 0)" style="fill:rgb(0,0,0);stroke:rgb(0,0,0);stroke-width:2"></line>
<line x1="268" y1="156" x2="423.5" y2="225.951" transform="matrix(1 0 0 1 0 0)" style="fill:rgb(0,0,0);stroke:rgb(0,0,0);stroke-width:2"></line>
<line x1="174" y1="172" x2="168" y2="184" style="fill:rgb(0,0,0);stroke:rgb(0,0,0);stroke-width:2"></line>
<line x1="168.174" y1="183.451" x2="172" y2="204" style="fill:rgb(0,0,0);stroke:rgb(0,0,0);stroke-width:2"></line>
<line x1="171.888" y1="202.88" x2="166" y2="220" style="fill:rgb(0,0,0);stroke:rgb(0,0,0);stroke-width:2"></line>
<line x1="166.46" y1="219.051" x2="170" y2="245" style="fill:rgb(0,0,0);stroke:rgb(0,0,0);stroke-width:2"></line>
<line x1="169.888" y1="244.194" x2="170" y2="272" style="fill:rgb(0,0,0);stroke:rgb(0,0,0);stroke-width:2"></line>
<line x1="169.888" y1="271.051" x2="180" y2="290" style="fill:rgb(0,0,0);stroke:rgb(0,0,0);stroke-width:2"></line>
<line x1="179.189" y1="288.151" x2="176" y2="311" style="fill:rgb(0,0,0);stroke:rgb(0,0,0);stroke-width:2"></line>
<text x="150px" y="69px" transform="matrix(1 0 0 1 30 156)" style="fill:rgb(0,0,0);font-family:Arial Black;font-weight:bold;font-size:20">EA ATLANTA</text>
<line x1="110.622" y1="232.284" x2="254" y2="157" style="fill:rgb(0,0,0);stroke:rgb(0,0,0);stroke-width:2"></line>
<line x1="114.289" y1="294.951" x2="254" y2="237" style="fill:rgb(0,0,0);stroke:rgb(0,0,0);stroke-width:2"></line>
<text x="258px" y="245px" transform="matrix(1 0 0 1 -9 12)" style="fill:rgb(0,0,0);font-size:24;font-family:Arial Black;font-weight:bold">+</text>
<text x="298px" y="287px" transform="matrix(1 0 0 1 -13 1)" style="fill:rgb(0,0,0);font-size:24;font-family:Arial Black;font-weight:bold">+</text>
<path d="M146.5 348 C170 314.428 176.977 359.325 194.5 366 C211.343 372.416 259.243 341.349      251.5 382 C243.958 421.594 120.195 420.463 146.667 347.667" transform="matrix(1 0 0 1 16 -26)" style="fill:none;stroke:rgb(0,0,0);stroke-width:2"></path>
<rect x="40" y="339" width="16" height="35" transform="matrix(1 0 0 1 139 17)" style="fill:rgb(255,255,255);stroke:none;stroke-width:1"></rect>
<line x1="46" y1="370" x2="52" y2="342" transform="matrix(1 0 0 1 139 17)" style="fill:rgb(0,0,0);stroke:rgb(0,0,0);stroke-width:2"></line>
<rect x="40" y="339" width="16" height="35" transform="matrix(-1 0 0 1 421.585 14)" style="fill:rgb(255,255,255);stroke:none;stroke-width:1"></rect>
<line x1="46" y1="370" x2="52" y2="342" transform="matrix(-1 0 0 1 421.585 14)" style="fill:rgb(0,0,0);stroke:rgb(0,0,0);stroke-width:2"></line>
<path d="M340.882 386.693 C341.373 380.556 341.174 374.968 348.757 372.318" transform="matrix(1 0 0 1 -49 -40)" style="fill:none;stroke:rgb(0,0,0);stroke-width:2"></path>
<path d="M353.257 371.568 C353.257 371.568 364.288 372.068 368.132 373.568" transform="matrix(1 0 0 1 -49 -40)" style="fill:none;stroke:rgb(0,0,0);stroke-width:2"></path>
<path d="M372.632 374.693 C372.632 374.693 386.445 377.631 391.382 377.943" transform="matrix(1 0 0 1 -49 -40)" style="fill:none;stroke:rgb(0,0,0);stroke-width:2"></path>
<path d="M395.695 377.693 C400.949 377.401 407.279 371.707 409.695 367.443" transform="matrix(1 0 0 1 -49 -40)" style="fill:none;stroke:rgb(0,0,0);stroke-width:2"></path>
<path d="M414.07 361.818 C414.07 361.818 420.101 353.537 422.695 350.818" transform="matrix(1 0 0 1 -49 -40)" style="fill:none;stroke:rgb(0,0,0);stroke-width:2"></path>
<path d="M428.07 347.443 C430.324 346.279 436.793 346.564 440.695 351.943" transform="matrix(1 0 0 1 -49 -40)" style="fill:none;stroke:rgb(0,0,0);stroke-width:2"></path>
<path d="M444.182 355.568 C449.03 359.823 449.335 367.85 449.932 373.443" transform="matrix(1 0 0 1 -49 -40)" style="fill:none;stroke:rgb(0,0,0);stroke-width:2"></path>
<path d="M450.557 379.818 C449.953 386.47 448.699 390.337 445.557 395.943" transform="matrix(1 0 0 1 -49 -40)" style="fill:none;stroke:rgb(0,0,0);stroke-width:2"></path>
<path d="M442.432 400.718 C442.432 400.718 436.87 408.124 431.307 409.593" transform="matrix(1 0 0 1 -49 -40)" style="fill:none;stroke:rgb(0,0,0);stroke-width:2"></path>
<path d="M341.382 390.843 C341.676 394.784 343.805 402.262 350.257 406.093" transform="matrix(1 0 0 1 -49 -40)" style="fill:none;stroke:rgb(0,0,0);stroke-width:2"></path>
<path d="M355.257 410.218 C355.257 410.218 367.757 415.499 372.257 416.093" transform="matrix(1 0 0 1 -49 -40)" style="fill:none;stroke:rgb(0,0,0);stroke-width:2"></path>
<path d="M378.257 417.843 C378.257 417.843 392.382 419.312 397.132 419.093" transform="matrix(1 0 0 1 -49 -40)" style="fill:none;stroke:rgb(0,0,0);stroke-width:2"></path>
<path d="M403.07 418.468 C403.07 418.468 411.601 417.062 414.445 416.593" transform="matrix(1 0 0 1 -49 -40)" style="fill:none;stroke:rgb(0,0,0);stroke-width:2"></path>
</g>
</svg>

</g>
</svg>