<?xml version="1.0"?>
<!DOCTYPE svg PUBLIC "-//W3C//DTD SVG 1.1//EN" "http://www.w3.org/Graphics/SVG/1.1/DTD/svg11.dtd" >
<!-- SVG content generated using Symbology Configuration Management System (SCMS) -->
<!-- Systematic Software Engineering Ltd. - www.systematic.co.uk - do not remove  -->
<svg id="G*MPSP----****X" width="400px" height="400px" viewBox="0 0 400 400">
<g >
<svg viewBox="0 0 400 400" id="_0.G-MPSP--------X" width="400px" height="400px"><g transform="translate(-185 -100) scale(1.5 1.5)"><path d="M246 183 C304.542 183 352 194.491 352 231 C352 267.509 304.542 279 246 279 C187.458      279 138 273.509 140 231 C142 188.491 187.458 183 246 183 z" transform="matrix(1 0 0 1 10 -30)" style="fill:rgb(255,255,255);stroke:rgb(0,0,0);stroke-width:2"></path>
<line x1="240" y1="182" x2="240.033" y2="160.067" transform="matrix(1 0 0 1 10 -30)" style="fill:rgb(0,0,0);stroke:rgb(0,0,0);stroke-width:2"></line>
<line x1="260" y1="183" x2="267.2" y2="160.733" transform="matrix(1 0 0 1 10 -30)" style="fill:rgb(0,0,0);stroke:rgb(0,0,0);stroke-width:2"></line>
<line x1="282" y1="185" x2="294" y2="163" transform="matrix(1 0 0 1 10 -30)" style="fill:rgb(0,0,0);stroke:rgb(0,0,0);stroke-width:2"></line>
<line x1="304" y1="188" x2="316" y2="170" transform="matrix(1 0 0 1 10 -30)" style="fill:rgb(0,0,0);stroke:rgb(0,0,0);stroke-width:2"></line>
<line x1="326" y1="196" x2="341.5" y2="177" transform="matrix(1 0 0 1 10 -30)" style="fill:rgb(0,0,0);stroke:rgb(0,0,0);stroke-width:2"></line>
<line x1="344.467" y1="209.2" x2="365.5" y2="199" transform="matrix(1 0 0 1 10 -30)" style="fill:rgb(0,0,0);stroke:rgb(0,0,0);stroke-width:2"></line>
<line x1="352" y1="227" x2="377.5" y2="225" transform="matrix(1 0 0 1 10 -30)" style="fill:rgb(0,0,0);stroke:rgb(0,0,0);stroke-width:2"></line>
<line x1="348" y1="248" x2="370" y2="259" transform="matrix(1 0 0 1 10 -30)" style="fill:rgb(0,0,0);stroke:rgb(0,0,0);stroke-width:2"></line>
<line x1="332" y1="264" x2="345.8" y2="282.367" transform="matrix(1 0 0 1 10 -30)" style="fill:rgb(0,0,0);stroke:rgb(0,0,0);stroke-width:2"></line>
<line x1="302.334" y1="273.953" x2="309.067" y2="294.7" transform="matrix(1 0 0 1 10 -30)" style="fill:rgb(0,0,0);stroke:rgb(0,0,0);stroke-width:2"></line>
<line x1="272" y1="279" x2="276.4" y2="302.2" transform="matrix(1 0 0 1 10 -30)" style="fill:rgb(0,0,0);stroke:rgb(0,0,0);stroke-width:2"></line>
<line x1="248" y1="279" x2="248" y2="304" transform="matrix(1 0 0 1 10 -30)" style="fill:rgb(0,0,0);stroke:rgb(0,0,0);stroke-width:2"></line>
<line x1="224.5" y1="279" x2="222.5" y2="304" transform="matrix(1 0 0 1 10 -30)" style="fill:rgb(0,0,0);stroke:rgb(0,0,0);stroke-width:2"></line>
<line x1="198.5" y1="277" x2="195.5" y2="302" transform="matrix(1 0 0 1 10 -30)" style="fill:rgb(0,0,0);stroke:rgb(0,0,0);stroke-width:2"></line>
<line x1="174.85" y1="272.2" x2="167.5" y2="296" transform="matrix(1 0 0 1 10 -30)" style="fill:rgb(0,0,0);stroke:rgb(0,0,0);stroke-width:2"></line>
<line x1="156.017" y1="264.2" x2="137.5" y2="279" transform="matrix(1 0 0 1 10 -30)" style="fill:rgb(0,0,0);stroke:rgb(0,0,0);stroke-width:2"></line>
<line x1="143.35" y1="250.033" x2="119.5" y2="255" transform="matrix(1 0 0 1 10 -30)" style="fill:rgb(0,0,0);stroke:rgb(0,0,0);stroke-width:2"></line>
<line x1="140.312" y1="227.398" x2="118" y2="224" transform="matrix(1 0 0 1 10 -30)" style="fill:rgb(0,0,0);stroke:rgb(0,0,0);stroke-width:2"></line>
<line x1="145.183" y1="210.733" x2="128" y2="197" transform="matrix(1 0 0 1 10 -30)" style="fill:rgb(0,0,0);stroke:rgb(0,0,0);stroke-width:2"></line>
<line x1="162" y1="195" x2="152" y2="177" transform="matrix(1 0 0 1 10 -30)" style="fill:rgb(0,0,0);stroke:rgb(0,0,0);stroke-width:2"></line>
<line x1="187.101" y1="187.375" x2="180" y2="165" transform="matrix(1 0 0 1 10 -30)" style="fill:rgb(0,0,0);stroke:rgb(0,0,0);stroke-width:2"></line>
<line x1="210.323" y1="184.264" x2="206" y2="161" transform="matrix(1 0 0 1 10 -30)" style="fill:rgb(0,0,0);stroke:rgb(0,0,0);stroke-width:2"></line>
<line x1="226.079" y1="183.264" x2="224" y2="161" transform="matrix(1 0 0 1 10 -30)" style="fill:rgb(0,0,0);stroke:rgb(0,0,0);stroke-width:2"></line>
<line x1="249.746" y1="183.153" x2="252.5" y2="161" transform="matrix(1 0 0 1 10 -30)" style="fill:rgb(0,0,0);stroke:rgb(0,0,0);stroke-width:2"></line>
<line x1="272" y1="184" x2="282" y2="163" transform="matrix(1 0 0 1 10 -30)" style="fill:rgb(0,0,0);stroke:rgb(0,0,0);stroke-width:2"></line>
<line x1="292.601" y1="185.82" x2="304" y2="167" transform="matrix(1 0 0 1 10 -30)" style="fill:rgb(0,0,0);stroke:rgb(0,0,0);stroke-width:2"></line>
<line x1="316.49" y1="191.82" x2="330" y2="175" transform="matrix(1 0 0 1 10 -30)" style="fill:rgb(0,0,0);stroke:rgb(0,0,0);stroke-width:2"></line>
<line x1="336" y1="202" x2="356" y2="188" transform="matrix(1 0 0 1 10 -30)" style="fill:rgb(0,0,0);stroke:rgb(0,0,0);stroke-width:2"></line>
<line x1="350" y1="218" x2="372" y2="211" transform="matrix(1 0 0 1 10 -30)" style="fill:rgb(0,0,0);stroke:rgb(0,0,0);stroke-width:2"></line>
<line x1="352" y1="238" x2="374.5" y2="240" transform="matrix(1 0 0 1 10 -30)" style="fill:rgb(0,0,0);stroke:rgb(0,0,0);stroke-width:2"></line>
<line x1="340.79" y1="256.731" x2="360.5" y2="271" transform="matrix(1 0 0 1 10 -30)" style="fill:rgb(0,0,0);stroke:rgb(0,0,0);stroke-width:2"></line>
<line x1="316" y1="271" x2="326" y2="291" transform="matrix(1 0 0 1 10 -30)" style="fill:rgb(0,0,0);stroke:rgb(0,0,0);stroke-width:2"></line>
<line x1="285.557" y1="277.175" x2="291.5" y2="301" transform="matrix(1 0 0 1 10 -30)" style="fill:rgb(0,0,0);stroke:rgb(0,0,0);stroke-width:2"></line>
<line x1="260.257" y1="278.953" x2="262" y2="303" transform="matrix(1 0 0 1 10 -30)" style="fill:rgb(0,0,0);stroke:rgb(0,0,0);stroke-width:2"></line>
<line x1="234" y1="279" x2="234" y2="304" transform="matrix(1 0 0 1 10 -30)" style="fill:rgb(0,0,0);stroke:rgb(0,0,0);stroke-width:2"></line>
<line x1="212" y1="279" x2="209.5" y2="304" transform="matrix(1 0 0 1 10 -30)" style="fill:rgb(0,0,0);stroke:rgb(0,0,0);stroke-width:2"></line>
<line x1="187.923" y1="275.398" x2="182.5" y2="300" transform="matrix(1 0 0 1 10 -30)" style="fill:rgb(0,0,0);stroke:rgb(0,0,0);stroke-width:2"></line>
<line x1="164" y1="269" x2="154" y2="288" transform="matrix(1 0 0 1 10 -30)" style="fill:rgb(0,0,0);stroke:rgb(0,0,0);stroke-width:2"></line>
<line x1="147.5" y1="258" x2="128.5" y2="267" transform="matrix(1 0 0 1 10 -30)" style="fill:rgb(0,0,0);stroke:rgb(0,0,0);stroke-width:2"></line>
<line x1="140.423" y1="237.953" x2="118" y2="238" transform="matrix(1 0 0 1 10 -30)" style="fill:rgb(0,0,0);stroke:rgb(0,0,0);stroke-width:2"></line>
<line x1="142.09" y1="219.842" x2="120" y2="209" transform="matrix(1 0 0 1 10 -30)" style="fill:rgb(0,0,0);stroke:rgb(0,0,0);stroke-width:2"></line>
<line x1="152" y1="202" x2="140" y2="184" transform="matrix(1 0 0 1 10 -30)" style="fill:rgb(0,0,0);stroke:rgb(0,0,0);stroke-width:2"></line>
<line x1="176" y1="189" x2="168" y2="169" transform="matrix(1 0 0 1 10 -30)" style="fill:rgb(0,0,0);stroke:rgb(0,0,0);stroke-width:2"></line>
<line x1="200" y1="185" x2="194" y2="162" transform="matrix(1 0 0 1 10 -30)" style="fill:rgb(0,0,0);stroke:rgb(0,0,0);stroke-width:2"></line>
<rect x="222" y="312" width="18" height="26" transform="matrix(1 0 0 1.38462 22 -193)" style="fill:rgb(255,255,255);stroke:none;stroke-width:1"></rect>
<g id="B"><text x="226px" y="335px" transform="matrix(1 0 0 1.38462 22 -193)" style="fill:rgb(0,0,0);font-size:28;font-family:Arial Black;font-weight:bold;stroke-width:0.5;      ">I</text>
</g>
<g id="T" transform="translate(123 -209)"><text x="78px" y="403px" transform="matrix(1 0 0 1 0 0) translate(10 4)" style="fill:rgb(0,0,0);font-size:14;font-family:Arial Black;font-weight:bold">Letter, # or</text>
<text x="106px" y="425px" transform="matrix(1 0 0 1 0 0)" style="fill:rgb(0,0,0);font-size:14;font-family:Arial Black;font-weight:bold">Name</text>
</g>
</g>
</svg>

</g>
</svg>