<?xml version="1.0"?>
<!DOCTYPE svg PUBLIC "-//W3C//DTD SVG 1.1//EN" "http://www.w3.org/Graphics/SVG/1.1/DTD/svg11.dtd" >
<!-- SVG content generated using Symbology Configuration Management System (SCMS) -->
<!-- Systematic Software Engineering Ltd. - www.systematic.co.uk - do not remove  -->
<svg id="ONIPG-----*****" width="400px" height="400px" viewBox="0 0 400 400">
<g >
<svg viewBox="0 0 400 400" id="_0.SNG-U----------" width="400px" height="400px"><rect x="68" y="68" width="264" height="264" style="fill:rgb(170,255,170);stroke:rgb(0,0,0);stroke-width:10"></rect>
</svg>

</g>
<g >
<svg viewBox="0 0 400 400" id="_1.O-I-G----------" width="400px" height="400px"><g transform="translate(370 21) rotate(90)"><path d="M95 200 C95 230 137 230 137 200 C137 170 179 170 179 200 C179 230 221 230 221 200
				C221 170 263 170 263 200" style="fill:none;stroke:rgb(0,0,0);stroke-width:10"></path>
</g>
<g transform="translate(430 21) rotate(90)"><path d="M95 200 C95 230 137 230 137 200 C137 170 179 170 179 200 C179 230 221 230 221 200
				C221 170 263 170 263 200" style="fill:none;stroke:rgb(0,0,0);stroke-width:10"></path>
</g>
</svg>

</g>
</svg>