<?xml version="1.0"?>
<!DOCTYPE svg PUBLIC "-//W3C//DTD SVG 1.1//EN" "http://www.w3.org/Graphics/SVG/1.1/DTD/svg11.dtd" >
<!-- SVG content generated using Symbology Configuration Management System (SCMS) -->
<!-- Systematic Software Engineering Ltd. - www.systematic.co.uk - do not remove  -->
<svg id="SHGPUSS9T-*****" width="400px" height="400px" viewBox="0 0 400 400">
<g >
<svg viewBox="0 0 400 400" id="_0.SHG-U----------" width="400px" height="400px"><polyline points="200,373 373,200 200,27 27,200 200,373" style="stroke-linecap:square;fill:rgb(255,128,128);stroke:rgb(0,0,0);stroke-width:10"></polyline>
</svg>

</g>
<g >
<svg viewBox="0 0 400 400" id="_1.SHG-USST-------" width="400px" height="400px"><line x1="70" y1="245" x2="330" y2="245" style="fill:none;stroke:rgb(0,0,0);stroke-width:10"></line>
<polyline points="70,155 100,200 70,245" style="fill:none;stroke:rgb(0,0,0);stroke-width:10" xmlns="http://www.w3.org/2000/svg"></polyline>
<polyline points="330,155 300,200 330,245" style="fill:none;stroke:rgb(0,0,0);stroke-width:10" xmlns="http://www.w3.org/2000/svg"></polyline>
</svg>

</g>
<g >
<svg viewBox="0 0 400 400" id="_2.S-G-USS9-------" width="400px" height="400px"><ellipse cx="200" cy="160" rx="35" ry="35" style="fill:none;stroke:rgb(0,0,0);stroke-width:10"></ellipse>
<line x1="146" y1="126" x2="173" y2="143" style="fill:none;stroke:rgb(0,0,0);stroke-width:10"></line>
<line x1="227" y1="177" x2="254" y2="194" style="fill:none;stroke:rgb(0,0,0);stroke-width:10"></line>
<line x1="146" y1="194" x2="173" y2="177" style="fill:none;stroke:rgb(0,0,0);stroke-width:10"></line>
<line x1="227" y1="143" x2="254" y2="126" style="fill:none;stroke:rgb(0,0,0);stroke-width:10"></line>
<line x1="200" y1="95" x2="200" y2="125" style="fill:none;stroke:rgb(0,0,0);stroke-width:10"></line>
<line x1="200" y1="225" x2="200" y2="195" style="fill:none;stroke:rgb(0,0,0);stroke-width:10"></line>
</svg>

</g>
</svg>