<?xml version="1.0"?>
<!DOCTYPE svg PUBLIC "-//W3C//DTD SVG 1.1//EN" "http://www.w3.org/Graphics/SVG/1.1/DTD/svg11.dtd" >
<!-- SVG content generated using Symbology Configuration Management System (SCMS) -->
<!-- Systematic Software Engineering Ltd. - www.systematic.co.uk - do not remove  -->
<svg id="G*GPGPWG--****X" width="400px" height="400px" viewBox="0 0 400 400">
<g >
<svg viewBox="0 0 400 400" id="_0.G-G-GPWG------X" width="400px" height="400px"><path d="M125 300 C125 300 59.6926 302.842 75 286 C90.3074 269.158 175 267 175 267 L200 125
			L225 267 C225 267 309.857 269.74 325 286 C340.143 302.26 275 300 275 300 z" style="fill:rgb(0,0,0);stroke:rgb(0,0,0);stroke-width:5"></path>
<path transform="matrix(1 0 0 1 0 0)" d="M200 21 C282.842 21 350 83.579 350 125 C350 154.938 306.098 186.631 270 188 C234.85
			189.333 235.945 125.82 200 125.5 C164.055 125.18 166.857 188.831 131 188 C94.3078
			187.15 50 155.758 50 125 C50 83.579 117.158 21 200 21 z" style="fill:rgb(0,0,0);stroke:rgb(0,0,0);stroke-width:5"></path>
</svg>

</g>
<g transform="translate(120 160)" >
<svg viewBox="0 0 400 400" id="_1.GA------------X" width="400px" height="400px"><text x="148px" y="195px" style="fill:rgb(0,0,0);stroke:rgb(0,0,0);font-size:24;font-family:Arial">ANCHOR</text>
<text x="160px" y="220px" style="fill:rgb(0,0,0);stroke:rgb(0,0,0);font-size:24;font-family:Arial">POINT</text>
</svg>

</g>
<g >
<svg viewBox="0 0 400 400" id="_2.GAR7----------X" width="400px" height="400px"><polyline points="255,360 200,347.5 200,310" transform="matrix(1 0 0 1 0 0)" style="fill:none;stroke:rgb(0,0,0);stroke-width:3"></polyline>
<polygon points="195,318 200,305 205,318" transform="matrix(1 0 0 1 0 0)" style="fill:rgb(0,0,0);stroke:rgb(0,0,0);stroke-width:3"></polygon>
</svg>

</g>
</svg>