<?xml version="1.0"?>
<!DOCTYPE svg PUBLIC "-//W3C//DTD SVG 1.1//EN" "http://www.w3.org/Graphics/SVG/1.1/DTD/svg11.dtd" >
<!-- SVG content generated using Symbology Configuration Management System (SCMS) -->
<!-- Systematic Software Engineering Ltd. - www.systematic.co.uk - do not remove  -->
<svg id="G*TPB-----****X" width="400px" height="400px" viewBox="0 0 400 400">
<g >
<svg viewBox="0 0 400 400" id="_0.G-TPB---------X" width="400px" height="400px"><polygon points="46,95 51.1962,104 40.8038,104" transform="matrix(-1.86112 -0.787096 0.681644 -1.61179 41.488 376.448)" style="fill:rgb(0,0,0);stroke:rgb(0,0,0);stroke-width:2"></polygon>
<g><line x1="87" y1="214" x2="168" y2="214" style="fill:none;stroke:rgb(0,0,0);stroke-width:2" transform="matrix(1.75 0 0 1.75 -135.5 -179)"></line>
<text x="173px" y="219px" style="fill:rgb(0,0,0);font-size:14;font-family:Arial Black;font-weight:bold" transform="matrix(1.75 0 0 1.75 -135.5 -179) translate(0 0)">B</text>
<line x1="190" y1="214" x2="299" y2="214" style="fill:none;stroke:rgb(0,0,0);stroke-width:2" transform="matrix(1.75 0 0 1.75 -135.5 -179)"></line>
<line x1="302" y1="148" x2="302" y2="276" transform="matrix(1.75 0 0 1.75 -140.75 -175.5)" style="fill:none;stroke:rgb(0,0,0);stroke-width:2"></line>
<line x1="314" y1="173" x2="342" y2="166" transform="matrix(1.75 0 0 1.75 -230 -200)" style="fill:rgb(0,0,0);stroke:rgb(0,0,0);stroke-width:2"></line>
<polygon points="73,73.1699 78,81.8301 68,81.8301" transform="matrix(0.619059 1.63685 -1.70106 0.643346 455.774 -79.2803)" style="fill:rgb(0,0,0);stroke:rgb(0,0,0);stroke-width:2"></polygon>
<line x1="314" y1="173" x2="342" y2="166" transform="matrix(1.75 0 0 -1.75 -226.5 588.245)" style="fill:rgb(0,0,0);stroke:rgb(0,0,0);stroke-width:2"></line>
<polygon points="73,73.1699 78,81.8301 68,81.8301" transform="matrix(0.619059 -1.63685 -1.70106 -0.643346 459.274 467.525)" style="fill:rgb(0,0,0);stroke:rgb(0,0,0);stroke-width:2"></polygon>
<line x1="140" y1="220" x2="156" y2="192" transform="matrix(1.75 0 0 1.75 -224.75 -201.75)" style="fill:rgb(0,0,0);stroke:rgb(0,0,0);stroke-width:2"></line>
<g id="PT.%201" transform="matrix(1.75 0 0 1.75 71 38)"><text x="108px" y="42px" transform="matrix(1 0 0 1 0 0)" style="fill:rgb(0,0,0);stroke-width:1;font-family:Arial Black;font-weight:bold;font-size:12;
				">PT. 1</text>
</g>
<g id="PT.%202" transform="matrix(1.75 0 0 1.75 -137.25 136)"><text x="226px" y="87px" transform="matrix(1 0 0 1 0 0)" style="fill:rgb(0,0,0);stroke-width:1;font-family:Arial Black;font-weight:bold;font-size:12;
				">PT. 2</text>
</g>
<g id="PT.%203" transform="matrix(1.75 0 0 1.75 -606.25 45)"><text x="370px" y="48px" transform="matrix(1 0 0 1 0 0)" style="fill:rgb(0,0,0);stroke-width:1;font-family:Arial Black;font-weight:bold;font-size:12;
				">PT. 3</text>
</g>
</g>
</svg>

</g>
</svg>