<?xml version="1.0"?>
<!DOCTYPE svg PUBLIC "-//W3C//DTD SVG 1.1//EN" "http://www.w3.org/Graphics/SVG/1.1/DTD/svg11.dtd" >
<!-- SVG content generated using Symbology Configuration Management System (SCMS) -->
<!-- Systematic Software Engineering Ltd. - www.systematic.co.uk - do not remove  -->
<svg id="G*GPGPH---****X" width="400px" height="400px" viewBox="0 0 400 400">
<g >
<svg viewBox="0 0 400 400" id="_0.G-GPGPH-------X" width="400px" height="400px"><g transform="translate(-250 -150) scale(1.75 1.75)"><path d="M0 0 L55.98 0.057 L54.48 1.25 L1.561 1.25 zM0 0 L1.547 1.281 L16.994 41.996 L15.66      42 zM55.98 0 L54.48 1.262 L39.061 42 L40.381 42 z" transform="matrix(2.26831 0 0 2.35714 232 142)"></path>
<g id="H"><rect x="76" y="177" width="18" height="18" transform="matrix(2.33333 0 0 1.72222 95.6667 -129.833)" style="fill:rgb(255,255,255);stroke:rgb(0,0,0);stroke-width:2"></rect>
<text x="80px" y="190px" transform="matrix(2.33333 0 0 1.72222 95.6667 -129.833)" style="fill:rgb(0,0,0);stroke-width:1;font-family:Arial Black;font-weight:bold;font-size:12;      ">H</text>
</g>
<g transform="matrix(0.897674 -0.44066 0.44066 0.897674 133.455 170.916)"><line x1="46" y1="77" x2="94" y2="77" transform="matrix(1 0 0 1 -8.43769e-015 4.8489e-014)" style="fill:rgb(0,0,0);stroke:rgb(0,0,0);stroke-width:2"></line>
<polygon points="103,39.6699 108,48.3301 98,48.3301" transform="matrix(6.12303e-017 1 -2.07846 1.27265e-016 191.413 -27.0392)" style="fill:rgb(0,0,0);stroke:rgb(0,0,0);stroke-width:2"></polygon>
</g>
<g id="CENTER%20POINT" transform="matrix(1 0 0 1 56 -61)"><text x="98px" y="280px" transform="matrix(1 0 0 1 0 0)" style="fill:rgb(0,0,0);stroke-width:1;font-family:Arial Black;font-weight:bold;font-size:12;      ">CENTER</text>
<text x="142px" y="299px" transform="matrix(1 0 0 1 0 0) translate(-37 -7)" style="fill:rgb(0,0,0);stroke-width:1;font-family:Arial Black;font-weight:bold;font-size:12;      ">POINT</text>
</g>
</g>
</svg>

</g>
</svg>