<?xml version="1.0"?>
<!DOCTYPE svg PUBLIC "-//W3C//DTD SVG 1.1//EN" "http://www.w3.org/Graphics/SVG/1.1/DTD/svg11.dtd" >
<!-- SVG content generated using Symbology Configuration Management System (SCMS) -->
<!-- Systematic Software Engineering Ltd. - www.systematic.co.uk - do not remove  -->
<svg id="G*GPPN----****X" width="400px" height="400px" viewBox="0 0 400 400">
<g >
<svg viewBox="0 0 400 400" id="_0.G-GPPN--------X" width="400px" height="400px"><g transform="translate(-240 -200) scale(1.75 1.75)"><rect x="168" y="192" width="162" height="105" transform="translate(168 244.5) scale(0.992144 1) translate(-168 -244.5) translate(168 244.5) scale(0.998869 1) translate(-168 -244.5) translate(1.00906 26)" style="fill:rgb(255,255,255);stroke:rgb(0,0,0);stroke-width:2"></rect>
<circle cx="107" cy="132" r="13" transform="translate(94 112) translate(1 26)" style="fill:rgb(255,255,255);stroke:rgb(0,0,0);stroke-width:2"></circle>
<circle cx="250" cy="250" r="13" transform="translate(1 -6) translate(1 26)" style="fill:rgb(255,255,255);stroke:rgb(0,0,0);stroke-width:2"></circle>
<circle cx="250" cy="250" r="13" transform="translate(47 -6) translate(1 26)" style="fill:rgb(255,255,255);stroke:rgb(0,0,0);stroke-width:2"></circle>
<line x1="168" y1="191" x2="187.196" y2="170.565" style="fill:rgb(0,0,0);stroke:rgb(0,0,0);stroke-width:2" transform="translate(1 26)"></line>
<line x1="190.65" y1="166.747" x2="209.923" y2="146.201" style="fill:rgb(0,0,0);stroke:rgb(0,0,0);stroke-width:2" transform="translate(1 26)"></line>
<line x1="215.196" y1="140.311" x2="231.741" y2="123.22" style="fill:rgb(0,0,0);stroke:rgb(0,0,0);stroke-width:2" transform="translate(1 26)"></line>
<line x1="237.05" y1="117.22" x2="253.079" y2="100.407" style="fill:rgb(0,0,0);stroke:rgb(0,0,0);stroke-width:2" transform="translate(1 26)"></line>
<line x1="252.012" y1="100.74" x2="266" y2="117" style="fill:rgb(0,0,0);stroke:rgb(0,0,0);stroke-width:2" transform="translate(1 26)"></line>
<line x1="270.687" y1="122.674" x2="284.323" y2="139.038" style="fill:rgb(0,0,0);stroke:rgb(0,0,0);stroke-width:2" transform="translate(1 26)"></line>
<line x1="289.578" y1="145.074" x2="305.396" y2="163.983" style="fill:rgb(0,0,0);stroke:rgb(0,0,0);stroke-width:2" transform="translate(1 26)"></line>
<line x1="312" y1="172" x2="328.864" y2="191.836" style="fill:rgb(0,0,0);stroke:rgb(0,0,0);stroke-width:2" transform="translate(1 26)"></line>
</g>
</svg>

</g>
</svg>