<?xml version="1.0"?>
<!DOCTYPE svg PUBLIC "-//W3C//DTD SVG 1.1//EN" "http://www.w3.org/Graphics/SVG/1.1/DTD/svg11.dtd" >
<!-- SVG content generated using Symbology Configuration Management System (SCMS) -->
<!-- Systematic Software Engineering Ltd. - www.systematic.co.uk - do not remove  -->
<svg id="G*GPOLF---****X" width="400px" height="400px" viewBox="0 0 400 400">
<g >
<svg viewBox="0 0 400 400" id="_0.G-GPOLF-------X" width="400px" height="400px"><g transform="translate(-120 -90) scale(1.25 1.25)"><line x1="164" y1="205" x2="296" y2="205" style="fill:rgb(0,0,0);stroke:rgb(0,0,0);stroke-width:2" transform="matrix(1 0 0 1 26 3)"></line>
<text x="154px" y="308px" transform="matrix(1 0 0 1 -60 -96) translate(24 1)" style="fill:rgb(0,0,0);font-family:Arial Black;font-weight:bold;font-size:12">FINAL CL</text>
<text x="204px" y="257px" transform="matrix(1 0 0 1 123 -44)" style="fill:rgb(0,0,0);font-family:Arial Black;font-weight:bold;font-size:12">FINAL CL</text>
<text x="84px" y="113px" transform="matrix(1 0 0 1 0 0) translate(51 115)" style="fill:rgb(0,0,0);stroke-width:1;font-family:Arial Black;font-weight:bold;font-size:12;     ">(PL</text>
<text x="196px" y="135px" transform="matrix(1 0 0 1 0 0) translate(131 96)" style="fill:rgb(0,0,0);stroke-width:1;font-family:Arial Black;font-weight:bold;font-size:12;     ">(PL</text>
<text x="150px" y="142px" transform="matrix(1 0 0 1 0 0) translate(-22 -29) translate(51 115) translate(0 -1)" style="fill:rgb(0,0,0);stroke-width:1;font-family:Arial Black;font-weight:bold;font-size:12;     ">)</text>
<text x="204px" y="68px" transform="matrix(1 0 0 1 0 0) translate(37 65) translate(0 1) translate(131 96)" style="fill:rgb(0,0,0);stroke-width:1;font-family:Arial Black;font-weight:bold;font-size:12;     ">)</text>
<g id="T1" transform="translate(-138 -2) translate(51 115)"><rect x="246" y="102" width="16" height="15" transform="matrix(1 0 0 1 0 0)" style="fill:rgb(255,255,255);stroke:rgb(0,0,0);stroke-width:2"></rect>
<text x="250px" y="115px" transform="matrix(1 0 0 1 0 0)" style="fill:rgb(0,0,0);stroke-width:1;font-family:Arial Black;font-weight:bold;font-size:12;      ">T</text>
</g>
<g id="T2" transform="translate(-61 56) translate(131 96)"><rect x="246" y="102" width="16" height="15" transform="matrix(1 0 0 1 -4 141) translate(42 -177) translate(0 -1) translate(-1 0) translate(0 1)" style="fill:rgb(255,255,255);stroke:rgb(0,0,0);stroke-width:2"></rect>
<text x="286px" y="79px" transform="matrix(1 0 0 1 0 0)" style="fill:rgb(0,0,0);stroke-width:1;font-family:Arial Black;font-weight:bold;font-size:12;      ">T</text>
</g>
<g id="PT.%201" transform="translate(-106 119)"><text x="312px" y="136px" transform="matrix(1 0 0 1 0 0)" style="fill:rgb(0,0,0);stroke-width:1;font-family:Arial Black;font-weight:bold;font-size:12;      ">PT. 1</text>
</g>
<g id="PT.%202" transform="translate(-85 158) translate(-2 3)"><text x="356px" y="94px" transform="matrix(1 0 0 1 0 0)" style="fill:rgb(0,0,0);stroke-width:1;font-family:Arial Black;font-weight:bold;font-size:12;      ">PT. 2</text>
</g>
<line x1="190" y1="219" x2="190" y2="243" transform="matrix(1 0 0 1 0 0)" style="fill:rgb(0,0,0);stroke:rgb(0,0,0);stroke-width:2"></line>
<line x1="189.43" y1="242.052" x2="204" y2="251" transform="matrix(1 0 0 1 0 0)" style="fill:rgb(0,0,0);stroke:rgb(0,0,0);stroke-width:2"></line>
<line x1="320" y1="217" x2="320" y2="238" transform="matrix(1 0 0 1 0 0)" style="fill:rgb(0,0,0);stroke:rgb(0,0,0);stroke-width:2"></line>
<line x1="320.174" y1="237.285" x2="306" y2="249" transform="matrix(1 0 0 1 0 0)" style="fill:rgb(0,0,0);stroke:rgb(0,0,0);stroke-width:2"></line>
<polygon points="42,66.2679 44,69.7321 40,69.7321" transform="matrix(1 0 0 2.3094 0 -89.0393) translate(148 65.8179)" style="fill:rgb(0,0,0);stroke:rgb(0,0,0);stroke-width:2"></polygon>
<polygon points="42,66.2679 44,69.7321 40,69.7321" transform="matrix(1 0 0 2.3094 208 94.9607) translate(69 -14.2894) translate(0.714286 -0.185577)" style="fill:rgb(0,0,0);stroke:rgb(0,0,0);stroke-width:2"></polygon>
</g>
</svg>

</g>
</svg>