<?xml version="1.0"?>
<!DOCTYPE svg PUBLIC "-//W3C//DTD SVG 1.1//EN" "http://www.w3.org/Graphics/SVG/1.1/DTD/svg11.dtd" >
<!-- SVG content generated using Symbology Configuration Management System (SCMS) -->
<!-- Systematic Software Engineering Ltd. - www.systematic.co.uk - do not remove  -->
<svg id="G*GPGPUUS-****X" width="400px" height="400px" viewBox="0 0 400 400">
<g >
<svg viewBox="0 0 400 400" id="_0.G-GPGPUUS-----X" width="400px" height="400px"><polygon points="200,290 75,205 325,205" style="fill:rgb(0,0,0);stroke:rgb(0,0,0);stroke-width:10"></polygon>
<line x1="200" y1="205" x2="200" y2="85" transform="matrix(1 0 0 1 0 0)" style="fill:none;stroke:rgb(0,0,0);stroke-width:10"></line>
<polyline points="55,85 110,25 200,85 290,25 345,85" style="fill:none;stroke:rgb(0,0,0);stroke-width:10"></polyline>
</svg>

</g>
<g >
<svg viewBox="0 0 400 400" id="_1.GAR7----------X" width="400px" height="400px"><polyline points="255,360 200,347.5 200,310" transform="matrix(1 0 0 1 0 0)" style="fill:none;stroke:rgb(0,0,0);stroke-width:3"></polyline>
<polygon points="195,318 200,305 205,318" transform="matrix(1 0 0 1 0 0)" style="fill:rgb(0,0,0);stroke:rgb(0,0,0);stroke-width:3"></polygon>
</svg>

</g>
<g transform="translate(113 164)" >
<svg viewBox="0 0 400 400" id="_2.GA------------X" width="400px" height="400px"><text x="148px" y="195px" style="fill:rgb(0,0,0);stroke:rgb(0,0,0);font-size:24;font-family:Arial">ANCHOR</text>
<text x="160px" y="220px" style="fill:rgb(0,0,0);stroke:rgb(0,0,0);font-size:24;font-family:Arial">POINT</text>
</svg>

</g>
</svg>