<?xml version="1.0"?>
<!DOCTYPE svg PUBLIC "-//W3C//DTD SVG 1.1//EN" "http://www.w3.org/Graphics/SVG/1.1/DTD/svg11.dtd" >
<!-- SVG content generated using Symbology Configuration Management System (SCMS) -->
<!-- Systematic Software Engineering Ltd. - www.systematic.co.uk - do not remove  -->
<svg id="G*TPT-----****X" width="400px" height="400px" viewBox="0 0 400 400">
<g >
<svg viewBox="0 0 400 400" id="_0.G-TPT---------X" width="400px" height="400px"><g transform="translate(-60 -30) scale(1 1)"><line x1="73.5" y1="257.928" x2="305.725" y2="257.93" transform="matrix(1 0 0 1 27 -38.9277)" style="fill:none;stroke:rgb(0,0,0);stroke-width:2"></line>
<line x1="389" y1="354" x2="121.947" y2="353.78" style="fill:none;stroke:rgb(0,0,0);stroke-width:2" transform="matrix(1 0 0 1 27 -57)"></line>
<line x1="253.122" y1="213.068" x2="121" y2="213" transform="matrix(1 0 0 1 27.6024 -67.8434)" style="fill:none;stroke:rgb(0,0,0);stroke-width:2"></line>
<line x1="389" y1="353" x2="346" y2="338" style="fill:none;stroke:rgb(0,0,0);stroke-width:2" transform="matrix(1 0 0 1 27 -57)"></line>
<line x1="389.228" y1="354.674" x2="347" y2="367" style="fill:none;stroke:rgb(0,0,0);stroke-width:2" transform="matrix(1 0 0 1 27 -57)"></line>
<line x1="389.569" y1="275.558" x2="345" y2="257" style="fill:none;stroke:rgb(0,0,0);stroke-width:2" transform="matrix(1 0 0 1 -58 -57)"></line>
<line x1="390.014" y1="276.891" x2="347" y2="291" style="fill:none;stroke:rgb(0,0,0);stroke-width:2" transform="matrix(1 0 0 1 -58 -57)"></line>
<line x1="390.614" y1="203.225" x2="346" y2="183" style="fill:none;stroke:rgb(0,0,0);stroke-width:2" transform="matrix(1 0 0 1 -109 -58)"></line>
<line x1="390.614" y1="203.114" x2="346" y2="219" style="fill:none;stroke:rgb(0,0,0);stroke-width:2" transform="matrix(1 0 0 1 -109 -57)"></line>
<line x1="122" y1="202" x2="122" y2="354" style="fill:rgb(0,0,0);stroke:rgb(0,0,0);stroke-width:2" transform="matrix(1 0 0 1 27 -57)"></line>
<g id="PT.%201" transform="translate(39 51)"><text x="56px" y="75px" transform="matrix(1 0 0 1 0 0)" style="fill:rgb(0,0,0);stroke-width:1;font-family:Arial Black;font-weight:bold;font-size:12;      ">PT. 1</text>
</g>
<g id="PT.%202" transform="translate(-96 264)"><text x="204px" y="71px" transform="matrix(1 0 0 1 0 0)" style="fill:rgb(0,0,0);stroke-width:1;font-family:Arial Black;font-weight:bold;font-size:12;      ">PT. 2</text>
</g>
<g id="PT.%203" transform="translate(77 277)"><text x="284px" y="67px" transform="matrix(1 0 0 1 0 0)" style="fill:rgb(0,0,0);stroke-width:1;font-family:Arial Black;font-weight:bold;font-size:12;      ">PT. 3</text>
</g>
<line x1="416" y1="312" x2="416" y2="330" transform="matrix(1 0 0 1 0 0)" style="fill:rgb(0,0,0);stroke:rgb(0,0,0);stroke-width:2"></line>
<line x1="416.222" y1="329.212" x2="398" y2="340" transform="matrix(1 0 0 1 0 0)" style="fill:rgb(0,0,0);stroke:rgb(0,0,0);stroke-width:2"></line>
<line x1="142" y1="306" x2="128" y2="323" transform="matrix(1 0 0 1 0 0)" style="fill:rgb(0,0,0);stroke:rgb(0,0,0);stroke-width:2"></line>
<line x1="142" y1="140" x2="128" y2="129" transform="matrix(1 0 0 1 0 0)" style="fill:rgb(0,0,0);stroke:rgb(0,0,0);stroke-width:2"></line>
<polygon points="22,110.304 28,120.696 16,120.696" transform="matrix(-0.491321 0.870978 -0.921909 -0.520051 259.29 180.404)" style="fill:rgb(0,0,0);stroke:rgb(0,0,0);stroke-width:2"></polygon>
<polygon points="22,110.304 28,120.696 16,120.696" transform="matrix(0.771953 0.635679 -0.672854 0.817097 203.152 195.791)" style="fill:rgb(0,0,0);stroke:rgb(0,0,0);stroke-width:2"></polygon>
<polygon points="22,110.304 28,120.696 16,120.696" transform="matrix(1 0 0 1.05848 229 129.246) translate(164 54.7956) translate(1 0)" style="fill:rgb(0,0,0);stroke:rgb(0,0,0);stroke-width:2"></polygon>
</g>
</svg>

</g>
</svg>