<?xml version="1.0"?>
<!DOCTYPE svg PUBLIC "-//W3C//DTD SVG 1.1//EN" "http://www.w3.org/Graphics/SVG/1.1/DTD/svg11.dtd" >
<!-- SVG content generated using Symbology Configuration Management System (SCMS) -->
<!-- Systematic Software Engineering Ltd. - www.systematic.co.uk - do not remove  -->
<svg id="WA--OK---------" width="400px" height="400px" viewBox="0 0 400 400">
<g >
<svg viewBox="0 0 400 400" id="_0.WA--OK---------" width="400px" height="400px"><g transform="translate(60 20) scale(7 7)"><path d="M2.375 1.625 L2.375 51.375 L0 51.23 L0 1.125 zM6.695 3.227 L6.84 3.227 L6.48 3.625      C6.48 3.174 6.527 2.873 6.625 2.723 L7.201 3.264 L6.988 3.625 C6.75 3.625      6.513 3.523 6.279 3.316 L6.207 3.24 C5.07 2.164 3.912 1.625 2.73 1.625 L2.375      1.625 L2.375 0.875 L2.729 0.875 C3.627 0.875 4.395 1.078 5.034 1.48 C5.67      1.883 6.297 2.297 6.912 2.723 C6.863 2.723 6.791 2.7 6.697 2.651 L6.625 2.725      L7.201 3.176 C7.213 3.227 7.219 3.375 7.219 3.625 L7.201 4 L6.125 4 L6.125      3.625 C6.125 3.232 6.34 2.715 6.77 2.074 L6.913 3.131 C6.913 3.461 6.77 3.625      6.487 3.625 C6.344 3.625 6.227 3.574 6.133 3.473 L5.92 3.244 C4.879 2.332      3.814 1.875 2.729 1.875 L2.375 1.875 L2.375 1.125 L2.729 1.125 C4.002 1.125      5.208 1.678 6.34 2.779 L6.553 2.937 L6.48 2.937 C6.432 3.035 6.359 3.082 6.264      3.082 C6.359 3.131 6.504 3.18 6.695 3.227 zM25.129 2.23 L26.375 2.734 C26.387      2.832 26.387 2.951 26.375 3.093 C26.375 4.007 26.863 4.907 27.844 5.794      C28.825 6.681 29.815 7.124 30.819 7.124 C31.965 7.124 32.921 6.692 33.686      5.829 C34.451 4.966 34.834 3.813 34.834 2.374 L36.625 2.374 C36.625 4.327 36.072      5.897 34.967 7.089 C33.862 8.281 32.467 8.874 30.785 8.874 C29.295 8.874      27.9 8.304 26.603 7.161 C25.304 6.018 24.607 4.708 24.511 3.231 C24.077 2.946      23.657 2.647 23.249 2.338 C22.841 2.029 22.228 1.873 21.411 1.873 C19.727      1.873 18.526 2.627 17.806 4.131 C17.759 4.713 17.638 5.272 17.447 5.807 L17.375      6.68 L16.945 6.68 C15.843 8.477 14.195 9.373 11.998 9.373 C10.467 9.373      9.045 8.73 7.73 7.443 C6.415 6.156 5.76 4.607 5.76 2.795 L7.625 2.795 C7.625      4.094 8.104 5.223 9.064 6.184 C10.024 7.145 11.033 7.625 12.091 7.625 C12.859      7.625 13.626 7.398 14.396 6.941 C15.164 6.486 15.621 5.961 15.765 5.367      C15.813 5.094 15.932 4.639 16.125 4 L16.125 2.75 L16.555 2.865 C17.697 0.955      19.342 0 21.486 0 C22.916 0 24.297 0.576 25.632 1.727 C25.632 1.776 25.655      1.825 25.704 1.872 zM36.072 2.723 C36.023 2.723 36 2.676 36 2.578 C35.953 2.443      35.904 2.375 35.857 2.375 L36.074 2.244 C37.224 1.332 38.449 0.875 39.746      0.875 L40.105 0.875 L40.105 1.625 L39.746 1.625 C38.641 1.625 37.584 2.063      36.576 2.936 L36.361 3.153 C36.217 3.25 36.096 3.299 36 3.299 C35.664 3.299      35.496 3.117 35.496 2.75 L35.621 1.715 C36.039 2.352 36.25 2.867 36.25 3.258      L36.25 3.625 L35.125 3.625 L35.125 3.277 C35.137 3.047 35.137 2.908 35.125      2.861 C35.516 2.584 35.713 2.422 35.713 2.375 C35.664 2.375 35.592 2.375 35.496      2.375 L35.568 2.375 C35.806 2.184 36.142 1.893 36.576 1.506 C37.537 0.83      38.594 0.49 39.746 0.49 L40.105 0.49 L40.105 1.125 L39.74 1.125 C38.517 1.125      37.297 1.678 36.078 2.781 C35.883 2.982 35.639 3.082 35.346 3.082 L35.125      2.799 L35.762 2.375 C35.867 2.469 35.92 2.633 35.92 2.865 L36 2.865 L35.641      3.226 C35.641 3.035 35.616 2.913 35.569 2.867 zM35.125 3.625 L35.125 2.75      L36.25 2.75 L36.25 3.625 z" style="fill:rgb(128,98,16)"></path>
</g>
</svg>

</g>
</svg>