<?xml version="1.0"?>
<!DOCTYPE svg PUBLIC "-//W3C//DTD SVG 1.1//EN" "http://www.w3.org/Graphics/SVG/1.1/DTD/svg11.dtd" >
<!-- SVG content generated using Symbology Configuration Management System (SCMS) -->
<!-- Systematic Software Engineering Ltd. - www.systematic.co.uk - do not remove  -->
<svg id="G*GPGAF---****X" width="400px" height="400px" viewBox="0 0 400 400">
<g >
<svg viewBox="0 0 400 400" id="_0.G-G-GAF-------X" width="400px" height="400px"><path d="M185 125 L215 125 L219 100 L244 104 L239 128 L267 137 L281 116 L305 129 L290 148
			L311 166 L330 152 L347 180 L323 188 L323 212 L347 220 L330 248 L311 234 L290
			252 L305 271 L281 284 L267 263 L239 272 L244 296 L219 300 L215 275 L185 275 L181
			300 L156 296 L161 272 L133 263 L119 284 L95 271 L110 252 L89 234 L70 248
			L53 220 L77 212 L77 188 L53 180 L70 152 L89 166 L110 148 L95 129 L119 116 L133
			137 L161 128 L156 104 L181 100 z" style="fill:none;stroke:rgb(0,0,0);stroke-width:5"></path>
<rect x="50" y="185" width="50" height="30" transform="matrix(1 0 0 1 0 0)" style="fill:rgb(255,255,255);stroke:rgb(255,255,255);stroke-width:1"></rect>
<rect x="300" y="185" width="50" height="30" transform="matrix(1 0 0 1 0 0)" style="fill:rgb(255,255,255);stroke:rgb(255,255,255);stroke-width:1"></rect>
</svg>

</g>
<g transform="scale(0.6 0.6) translate(355 134)" >
<svg viewBox="0 0 400 400" id="_1.G-----------PNS" width="400px" height="400px"><rect x="175" y="175" width="50" height="50" style="fill:none;stroke:rgb(0,0,0);stroke-width:5" transform="translate(0 0) translate(0 0)"></rect>
<text x="187px" y="213px" style="fill:rgb(0,0,0);stroke:rgb(0,0,0);font-size:36;font-family:Arial">N</text>
</svg>

</g>
<g transform="scale(0.6 0.6) translate(-88 134)" >
<svg viewBox="0 0 400 400" id="_2.G-----------PNS" width="400px" height="400px"><rect x="175" y="175" width="50" height="50" style="fill:none;stroke:rgb(0,0,0);stroke-width:5" transform="translate(0 0) translate(0 0)"></rect>
<text x="187px" y="213px" style="fill:rgb(0,0,0);stroke:rgb(0,0,0);font-size:36;font-family:Arial">N</text>
</svg>

</g>
</svg>