<?xml version="1.0"?>
<!DOCTYPE svg PUBLIC "-//W3C//DTD SVG 1.1//EN" "http://www.w3.org/Graphics/SVG/1.1/DTD/svg11.dtd" >
<!-- SVG content generated using Symbology Configuration Management System (SCMS) -->
<!-- Systematic Software Engineering Ltd. - www.systematic.co.uk - do not remove  -->
<svg id="G*MPORA---****X" width="400px" height="400px" viewBox="0 0 400 400">
<g >
<svg viewBox="0 0 400 400" id="_0.G-M-ORA-------X" width="400px" height="400px"><line x1="100" y1="300" x2="240" y2="90" style="fill:none;stroke:rgb(0,0,0);stroke-width:3"></line>
<line x1="124" y1="316" x2="264" y2="106" style="fill:none;stroke:rgb(0,0,0);stroke-width:3"></line>
</svg>

</g>
<g >
<svg viewBox="0 0 400 400" id="_1.G-M-OR-------RX" width="400px" height="400px"><path d="M12 179 C43.0574 181.411 61.0776 189.559 89 190 C117.243 190.446 139.641 178.918
			172 179 C205.203 179.084 236.4 189.338 255 189 C290.138 188.361 308.439 178.526
			336.77 178.663 C365.101 178.8 357.237 182.62 388 186" style="fill:none;stroke:rgb(0,0,0);stroke-width:5"></path>
<path transform="translate(0 30)" d="M12 179 C43.0574 181.411 61.0776 189.559 89 190 C117.243 190.446 139.641 178.918
			172 179 C205.203 179.084 236.4 189.338 255 189 C290.138 188.361 308.439 178.526
			336.77 178.663 C365.101 178.8 357.237 182.62 388 186" style="fill:none;stroke:rgb(0,0,0);stroke-width:5"></path>
<text x="65px" y="210px" style="fill:rgb(0,0,0);stroke:rgb(0,0,0);font-size:18;font-family:Arial">ROAD</text>
</svg>

</g>
</svg>