<?xml version="1.0"?>
<!DOCTYPE svg PUBLIC "-//W3C//DTD SVG 1.1//EN" "http://www.w3.org/Graphics/SVG/1.1/DTD/svg11.dtd" >
<!-- SVG content generated using Symbology Configuration Management System (SCMS) -->
<!-- Systematic Software Engineering Ltd. - www.systematic.co.uk - do not remove  -->
<svg id="G*GPDLP---****X" width="400px" height="400px" viewBox="0 0 400 400">
<g >
<svg viewBox="0 0 400 400" id="_0.G-GPDLP-------X" width="400px" height="400px"><g transform="translate(-230 -240) scale(1.75 1.75)"><line x1="219.127" y1="265.988" x2="294.911" y2="166.219" style="fill:rgb(0,0,0);stroke:rgb(0,0,0);stroke-width:2" transform="matrix(1 0 0 1 34 35)"></line>
<line x1="294.521" y1="166.588" x2="275.154" y2="176.422" style="fill:rgb(0,0,0);stroke:rgb(0,0,0);stroke-width:2" transform="matrix(1 0 0 1 34 35)"></line>
<line x1="294.679" y1="166.746" x2="294" y2="186" style="fill:rgb(0,0,0);stroke:rgb(0,0,0);stroke-width:2" transform="matrix(1 0 0 1 34 35)"></line>
<line x1="128.195" y1="167.483" x2="132" y2="183" style="fill:rgb(0,0,0);stroke:rgb(0,0,0);stroke-width:2" transform="matrix(1 0 0 1 34 35)"></line>
<line x1="128.616" y1="167.325" x2="143.663" y2="170.693" style="fill:rgb(0,0,0);stroke:rgb(0,0,0);stroke-width:2" transform="matrix(1 0 0 1 34 35)"></line>
<line x1="143.406" y1="187.423" x2="199.073" y2="248.756" transform="matrix(1 0 0 1 38.619 32)" style="fill:rgb(0,0,0);stroke:rgb(0,0,0);stroke-width:6"></line>
<line x1="128" y1="167" x2="219.406" y2="267.09" style="fill:rgb(0,0,0);stroke:rgb(0,0,0);stroke-width:2" transform="matrix(1 0 0 1 34 35)"></line>
<text x="132px" y="174px" transform="matrix(1 0 0 1 13 9)" style="fill:rgb(0,0,0);font-size:10;font-family:Arial Black;font-weight:bold">(PDF)</text>
<g id="A" transform="translate(3 -53)"><rect x="240" y="358" width="18" height="19" transform="matrix(1 0 0 1 0 0)" style="fill:rgb(255,255,255);stroke:rgb(0,0,0);stroke-width:2"></rect>
<text x="244px" y="372px" transform="matrix(1 0 0 1 0 0)" style="fill:rgb(0,0,0);stroke-width:1;font-family:Arial Black;font-weight:bold;font-size:12;      ">A</text>
</g>
<g id="PT.%201"><text x="46px" y="78px" transform="matrix(1 0 0 1 0 0) translate(193 187)" style="fill:rgb(0,0,0);stroke-width:1;font-family:Arial Black;font-weight:bold;font-size:12;      ">PT. 1</text>
</g>
<g id="PT.%202"><text x="158px" y="87px" transform="matrix(1 0 0 1 0 0) translate(-18 150)" style="fill:rgb(0,0,0);stroke-width:1;font-family:Arial Black;font-weight:bold;font-size:12;      ">PT. 2</text>
</g>
<g id="PT.%203"><text x="292px" y="111px" transform="matrix(1 0 0 1 0 0) translate(17 130) translate(-1.42857 3.42857) translate(4.85714 0.142857)" style="fill:rgb(0,0,0);stroke-width:1;font-family:Arial Black;font-weight:bold;font-size:12;      ">PT. 3</text>
</g>
<line x1="252" y1="268" x2="252" y2="287" transform="matrix(1 0 0 1 0 0) translate(1.14286 0)" style="fill:rgb(0,0,0);stroke:rgb(0,0,0);stroke-width:2"></line>
<line x1="342" y1="229" x2="341.989" y2="209.118" transform="matrix(1 0 0 1 0 0) translate(-0.285714 2.57143) translate(0 2.28571) translate(4 -0.428571)" style="fill:rgb(0,0,0);stroke:rgb(0,0,0);stroke-width:2"></line>
<line x1="342.346" y1="211.118" x2="334" y2="204" transform="matrix(1 0 0 1 0 0) translate(3.85714 3.42857)" style="fill:rgb(0,0,0);stroke:rgb(0,0,0);stroke-width:2"></line>
<line x1="144" y1="225" x2="144" y2="209" transform="matrix(1 0 0 1 0 0)" style="fill:rgb(0,0,0);stroke:rgb(0,0,0);stroke-width:2"></line>
<line x1="143.574" y1="209.775" x2="152" y2="205" transform="matrix(1 0 0 1 0 0)" style="fill:rgb(0,0,0);stroke:rgb(0,0,0);stroke-width:2"></line>
<polygon points="91,37.9019 94,43.0981 88,43.0981" transform="matrix(0.463395 0.886152 -1.87594 0.980984 186.949 84.8446)" style="fill:rgb(0,0,0);stroke:rgb(0,0,0);stroke-width:2"></polygon>
<polygon points="91,37.9019 94,43.0981 88,43.0981" transform="matrix(1 0 0 -2.11695 162.143 373.119)" style="fill:rgb(0,0,0);stroke:rgb(0,0,0);stroke-width:2"></polygon>
<polygon points="91,37.9019 94,43.0981 88,43.0981" transform="matrix(0.54876 -0.83598 1.47732 0.969753 227.744 245.025)" style="fill:rgb(0,0,0);stroke:rgb(0,0,0);stroke-width:2"></polygon>
</g>
</svg>

</g>
</svg>