<?xml version="1.0"?>
<!DOCTYPE svg PUBLIC "-//W3C//DTD SVG 1.1//EN" "http://www.w3.org/Graphics/SVG/1.1/DTD/svg11.dtd" >
<!-- SVG content generated using Symbology Configuration Management System (SCMS) -->
<!-- Systematic Software Engineering Ltd. - www.systematic.co.uk - do not remove  -->
<svg id="WA--STR--------" width="400px" height="400px" viewBox="0 0 400 400">
<g >
<svg viewBox="0 0 400 400" id="_0.WA--STR--------" width="400px" height="400px"><g transform="translate(110 20) scale(7 7)"><path d="M9.846 28.514 L22.051 46.442 L22.125 45.096 L23.625 45.096 L23.625 50.375 L17.369      47.977 L19.713 46.87 L20.527 47.315 L7.863 28.25 L20.537 11.125 L1.5 11.125      L1.5 49.199 L0 49.199 L0 9.5 L23.76 9.5 zM13.75 3.75 C13.75 4.809 13.377 5.697      12.631 6.418 C11.885 7.141 11.008 7.5 10 7.5 C8.941 7.5 8.053 7.141 7.332      6.418 C6.609 5.697 6.25 4.809 6.25 3.75 C6.25 2.742 6.609 1.865 7.332 1.119      C8.053 0.373 8.941 0 10 0 C11.008 0 11.885 0.373 12.631 1.119 C13.377 1.865      13.75 2.742 13.75 3.75 z" style="fill:rgb(255,0,0)"></path>
</g>
</svg>

</g>
</svg>