<?xml version="1.0"?>
<!DOCTYPE svg PUBLIC "-//W3C//DTD SVG 1.1//EN" "http://www.w3.org/Graphics/SVG/1.1/DTD/svg11.dtd" >
<!-- SVG content generated using Symbology Configuration Management System (SCMS) -->
<!-- Systematic Software Engineering Ltd. - www.systematic.co.uk - do not remove  -->
<svg id="SUGPUCAWH-*****" width="400px" height="400px" viewBox="0 0 400 400">
<g >
<svg viewBox="0 0 400 400" id="_0.SUG-U----------" width="400px" height="400px"><path d="M115 285 C115 400 285 400 285 285 C400 285 400 115 285 115 C285 0 115 0 115 115 C0     115 0 285 115 285 z" style="fill:rgb(255,255,128);stroke:rgb(0,0,0);stroke-width:10"></path>
</svg>

</g>
<g transform="translate(20 10) scale(0.9 0.8)" >
<svg viewBox="0 0 400 400" id="_1.S-G-UCA--------" width="400px" height="400px"><path d="M140 140 C80 140 80 260 140 260 L260 260 C320 260 320 140 260 140 z" style="fill:none;stroke:rgb(0,0,0);stroke-width:10"></path>
</svg>

</g>
<g transform="translate(0 -13)" >
<svg viewBox="0 0 400 400" id="_2.S-G-UCAW-------" width="400px" height="400px"><ellipse cx="120" cy="245" rx="13" ry="13" style="fill:none;stroke:rgb(0,0,0);stroke-width:10"></ellipse>
<ellipse cx="200" cy="245" rx="13" ry="13" style="fill:none;stroke:rgb(0,0,0);stroke-width:10"></ellipse>
<ellipse cx="280" cy="245" rx="13" ry="13" style="fill:none;stroke:rgb(0,0,0);stroke-width:10"></ellipse>
</svg>

</g>
<g >
<svg viewBox="0 0 400 400" id="_3.S--------------" width="400px" height="400px"><text x="200" y="307" style="fill:rgb(0,0,0);text-anchor:middle;font-weight:bold;font-size:65;font-family:Arial">H</text>
</svg>

</g>
</svg>