<?xml version="1.0"?>
<!DOCTYPE svg PUBLIC "-//W3C//DTD SVG 1.1//EN" "http://www.w3.org/Graphics/SVG/1.1/DTD/svg11.dtd" >
<!-- SVG content generated using Symbology Configuration Management System (SCMS) -->
<!-- Systematic Software Engineering Ltd. - www.systematic.co.uk - do not remove  -->
<svg id="G*GPSLR---****X" width="400px" height="400px" viewBox="0 0 400 400">
<g >
<svg viewBox="0 0 400 400" id="_0.G-GPSLR-------X" width="400px" height="400px"><g transform="translate(-120 -110) scale(1.25 1.25)"><line x1="151" y1="165" x2="299" y2="165" style="fill:rgb(0,0,0);stroke:rgb(0,0,0);stroke-width:2" transform="matrix(1 0 0 1 31 53)"></line>
<text x="245px" y="262px" transform="matrix(1 0 0 1 92 -40)" style="fill:rgb(0,0,0);font-size:12;font-family:Arial Black;font-weight:bold">RL</text>
<text x="237px" y="257px" transform="matrix(1 0 0 1 -92 -35) translate(1 0) translate(1 0) translate(1 0) translate(1 0) translate(1 0) translate(1 0) translate(1 0) translate(1 0) translate(1 0) translate(1 0) translate(1 0)" style="fill:rgb(0,0,0);font-size:12;font-family:Arial Black;font-weight:bold">RL</text>
<text x="96px" y="264px" transform="matrix(1 0 0 1 0 0) translate(33 -24) translate(-5 0)" style="fill:rgb(0,0,0);stroke-width:1;font-family:Arial Black;font-weight:bold;font-size:12;     ">(PL</text>
<g id="T1" transform="translate(7 -75) translate(4 -2) translate(0 1) translate(33 -24) translate(-5 0)"><rect x="112" y="328" width="16" height="16" transform="matrix(1 0 0 1 0 0)" style="fill:rgb(255,255,255);stroke:rgb(0,0,0);stroke-width:2"></rect>
<text x="116px" y="341px" transform="matrix(1 0 0 1 0 0)" style="fill:rgb(0,0,0);stroke-width:1;font-family:Arial Black;font-weight:bold;font-size:12;      ">T</text>
</g>
<text x="138px" y="306px" transform="matrix(1 0 0 1 0 0) translate(5 -42) translate(33 -24) translate(-5 0)" style="fill:rgb(0,0,0);stroke-width:1;font-family:Arial Black;font-weight:bold;font-size:12;     ">)</text>
<text x="178px" y="283px" transform="matrix(1 0 0 1 0 0) translate(159 -47)" style="fill:rgb(0,0,0);stroke-width:1;font-family:Arial Black;font-weight:bold;font-size:12;     ">(PL</text>
<g id="T2" transform="translate(-38 0) translate(159 -47)"><rect x="112" y="328" width="16" height="16" transform="matrix(1 0 0 1 130 -86) translate(-1 29)" style="fill:rgb(255,255,255);stroke:rgb(0,0,0);stroke-width:2"></rect>
<text x="244px" y="284px" transform="matrix(1 0 0 1 0 0)" style="fill:rgb(0,0,0);stroke-width:1;font-family:Arial Black;font-weight:bold;font-size:12;      ">T</text>
</g>
<text x="280px" y="290px" transform="matrix(1 0 0 1 0 0) translate(-55 -8) translate(159 -47)" style="fill:rgb(0,0,0);stroke-width:1;font-family:Arial Black;font-weight:bold;font-size:12;     ">)</text>
<g id="PT.%201" transform="translate(-19 -107)"><text x="220px" y="380px" transform="matrix(1 0 0 1 0 0)" style="fill:rgb(0,0,0);stroke-width:1;font-family:Arial Black;font-weight:bold;font-size:12;      ">PT. 1</text>
</g>
<g id="PT.%202" transform="translate(-33 -99)"><text x="308px" y="366px" transform="matrix(1 0 0 1 0 0)" style="fill:rgb(0,0,0);stroke-width:1;font-family:Arial Black;font-weight:bold;font-size:12;      ">PT. 2</text>
</g>
<line x1="184" y1="225" x2="184" y2="252" transform="matrix(1 0 0 1 0 0)" style="fill:rgb(0,0,0);stroke:rgb(0,0,0);stroke-width:2"></line>
<line x1="183.667" y1="251.222" x2="200" y2="264" transform="matrix(1 0 0 1 0 0)" style="fill:rgb(0,0,0);stroke:rgb(0,0,0);stroke-width:2"></line>
<line x1="328" y1="228" x2="328" y2="248" transform="matrix(1 0 0 1 0 0)" style="fill:rgb(0,0,0);stroke:rgb(0,0,0);stroke-width:2"></line>
<line x1="328.556" y1="247.111" x2="310" y2="258" transform="matrix(1 0 0 1 0 0)" style="fill:rgb(0,0,0);stroke:rgb(0,0,0);stroke-width:2"></line>
<polygon points="97,96.6699 102,105.33 92,105.33" transform="matrix(1 0 0 1.84752 0 -85.5996) translate(87 67.6582) translate(20 -29.7696) translate(-20 31.3934) translate(0 0.541266) translate(0 0.541266)" style="fill:rgb(0,0,0);stroke:rgb(0,0,0);stroke-width:2"></polygon>
<polygon points="97,96.6699 102,105.33 92,105.33" transform="matrix(1 0 0 1.84752 153 64.4004) translate(78 -12.4491) translate(0 0.541266) translate(0 0.541266) translate(0 0.541266)" style="fill:rgb(0,0,0);stroke:rgb(0,0,0);stroke-width:2"></polygon>
</g>
</svg>

</g>
</svg>