<?xml version="1.0"?>
<!DOCTYPE svg PUBLIC "-//W3C//DTD SVG 1.1//EN" "http://www.w3.org/Graphics/SVG/1.1/DTD/svg11.dtd" >
<!-- SVG content generated using Symbology Configuration Management System (SCMS) -->
<!-- Systematic Software Engineering Ltd. - www.systematic.co.uk - do not remove  -->
<svg id="G*GPPA----****X" width="400px" height="400px" viewBox="0 0 400 400">
<g >
<svg viewBox="0 0 400 400" id="_0.G-GPPA--------X" width="400px" height="400px"><path d="M112.5 169.667 C182.796 189.135 266.089 177.282 304.833 169.667" transform="matrix(1.25 0 0 1.25 -86.6666 -49.1666)" style="fill:none;stroke:rgb(0,0,0);stroke-width:2"></path>
<path d="M112.5 169.667 C182.796 189.135 266.089 177.282 304.833 169.667" transform="matrix(1.25 0 0 -1.25 -86.6666 428.221)" style="fill:none;stroke:rgb(0,0,0);stroke-width:2"></path>
<line x1="303.644" y1="170.006" x2="302.2" y2="140.673" transform="matrix(1.25 0 0 1.25 -86.6666 -50)" style="fill:rgb(0,0,0);stroke:rgb(0,0,0);stroke-width:2"></line>
<line x1="303.856" y1="212.561" x2="303" y2="243" transform="matrix(1.25 0 0 1.25 -86.6666 -50)" style="fill:rgb(0,0,0);stroke:rgb(0,0,0);stroke-width:2"></line>
<line x1="302" y1="140" x2="353" y2="191" transform="matrix(1.25 0 0 1.25 -86.6666 -50)" style="fill:rgb(0,0,0);stroke:rgb(0,0,0);stroke-width:2"></line>
<line x1="353.856" y1="190.361" x2="303.189" y2="242.228" transform="matrix(1.25 0 0 1.25 -86.6666 -50)" style="fill:rgb(0,0,0);stroke:rgb(0,0,0);stroke-width:2"></line>
<line x1="250.778" y1="135.228" x2="258.889" y2="143.339" style="fill:rgb(0,0,0);stroke:rgb(0,0,0);stroke-width:1" transform="matrix(1.25 0 0 1.25 -2.5 -52.5)"></line>
<line x1="262.778" y1="147.339" x2="270.889" y2="155.45" style="fill:rgb(0,0,0);stroke:rgb(0,0,0);stroke-width:1" transform="matrix(1.25 0 0 1.25 -2.5 -52.5)"></line>
<line x1="275.889" y1="160.228" x2="281.889" y2="166.117" style="fill:rgb(0,0,0);stroke:rgb(0,0,0);stroke-width:1" transform="matrix(1.25 0 0 1.25 -2.5 -52.5)"></line>
<line x1="285.767" y1="170.139" x2="291.878" y2="176.25" style="fill:rgb(0,0,0);stroke:rgb(0,0,0);stroke-width:1" transform="matrix(1.25 0 0 1.25 -2.5 -52.5)"></line>
<line x1="297.767" y1="182.139" x2="304.878" y2="189.25" style="fill:rgb(0,0,0);stroke:rgb(0,0,0);stroke-width:1" transform="matrix(1.25 0 0 1.25 -2.5 -52.5)"></line>
<line x1="306.2" y1="190.673" x2="309.062" y2="193.45" style="fill:rgb(0,0,0);stroke:rgb(0,0,0);stroke-width:1" transform="matrix(1.25 0 0 1.25 -2.5 -52.5)"></line>
<line x1="308.901" y1="193.169" x2="305.644" y2="195.895" style="fill:rgb(0,0,0);stroke:rgb(0,0,0);stroke-width:1" transform="matrix(1.25 0 0 1.25 -2.5 -52.5)"></line>
<line x1="303.311" y1="198.339" x2="295.311" y2="206.339" style="fill:rgb(0,0,0);stroke:rgb(0,0,0);stroke-width:1" transform="matrix(1.25 0 0 1.25 -2.5 -52.5)"></line>
<line x1="291.2" y1="210.45" x2="283.644" y2="218.006" style="fill:rgb(0,0,0);stroke:rgb(0,0,0);stroke-width:1" transform="matrix(1.25 0 0 1.25 -2.5 -52.5)"></line>
<line x1="280.856" y1="220.561" x2="275.411" y2="226.006" style="fill:rgb(0,0,0);stroke:rgb(0,0,0);stroke-width:1" transform="matrix(1.25 0 0 1.25 -2.5 -52.5)"></line>
<line x1="271.633" y1="230.006" x2="266.078" y2="235.339" style="fill:rgb(0,0,0);stroke:rgb(0,0,0);stroke-width:1" transform="matrix(1.25 0 0 1.25 -2.5 -52.5)"></line>
<line x1="261.3" y1="240.117" x2="255.744" y2="245.673" style="fill:rgb(0,0,0);stroke:rgb(0,0,0);stroke-width:1" transform="matrix(1.25 0 0 1.25 -2.5 -52.5)"></line>
<line x1="256.99" y1="244.452" x2="249.967" y2="251.561" style="fill:rgb(0,0,0);stroke:rgb(0,0,0);stroke-width:1" transform="matrix(1.25 0 0 1.25 -2.5 -52.5)"></line>
<g id="PT.%202" transform="matrix(1.25 0 0 1.25 -90 -110)"><text x="120px" y="72px" transform="matrix(1 0 0 1 -25 119)" style="fill:rgb(0,0,0);stroke-width:1;font-family:Arial Black;font-weight:bold;font-size:12;
			">PT. 2</text>
</g>
<g id="PT.%201" transform="matrix(1.25 0 0 1.25 -90 -110)"><text x="264px" y="79px" transform="matrix(1 0 0 1 72 241)" style="fill:rgb(0,0,0);stroke-width:1;font-family:Arial Black;font-weight:bold;font-size:12;
			">PT. 1</text>
</g>
<g id="T" transform="matrix(1.25 0 0 1.25 -90 -110)"><rect x="168" y="135" width="16" height="16" transform="matrix(1 0 0 1 -40 96)" style="fill:rgb(255,255,255);stroke:rgb(0,0,0);stroke-width:2"></rect>
<text x="172px" y="148px" transform="matrix(1 0 0 1 -40 96)" style="fill:rgb(0,0,0);stroke-width:1;font-family:Arial Black;font-weight:bold;font-size:12;
			">T</text>
</g>
<g id="PT.%203" transform="matrix(1.25 0 0 1.25 -90 -110)"><text x="350px" y="133px" transform="matrix(1 0 0 1 -110 182)" style="fill:rgb(0,0,0);stroke-width:1;font-family:Arial Black;font-weight:bold;font-size:12;
			">PT. 3</text>
</g>
<line x1="101" y1="195" x2="81.5444" y2="241.909" transform="matrix(1.25 0 0 1.25 -90 -110)" style="fill:rgb(0,0,0);stroke:rgb(0,0,0);stroke-width:2"></line>
<line x1="81.1" y1="241.465" x2="112" y2="241" transform="matrix(1.25 0 0 1.25 -90 -110)" style="fill:rgb(0,0,0);stroke:rgb(0,0,0);stroke-width:2"></line>
<line x1="278" y1="311" x2="302.576" y2="293.593" transform="matrix(1.25 0 0 1.25 -90 -110)" style="fill:rgb(0,0,0);stroke:rgb(0,0,0);stroke-width:2"></line>
<line x1="369" y1="310" x2="377" y2="305" transform="matrix(1.25 0 0 1.25 -90 -110)" style="fill:rgb(0,0,0);stroke:rgb(0,0,0);stroke-width:2"></line>
<line x1="376.642" y1="305.798" x2="380" y2="243" transform="matrix(1.25 0 0 1.25 -90 -110)" style="fill:rgb(0,0,0);stroke:rgb(0,0,0);stroke-width:2"></line>
<polygon points="300,56.5359 304,63.4641 296,63.4641" transform="matrix(0.898438 0 0 1.66891 115 94.3976)" style="fill:rgb(0,0,0);stroke:rgb(0,0,0);stroke-width:2"></polygon>
<polygon points="300,56.5359 304,63.4641 296,63.4641" transform="matrix(0.509361 0.740095 -1.37478 0.946172 214.92 -20.2611)" style="fill:rgb(0,0,0);stroke:rgb(0,0,0);stroke-width:2"></polygon>
<g transform="matrix(-0.117732 1.24444 -1.24444 -0.117732 380.346 -168.125)"><g transform="matrix(1 7.17064e-007 -7.17064e-007 1 -9.76824 -33.4305)"><polygon points="300,56.5359 304,63.4641 296,63.4641" transform="matrix(0.71875 0 0 1.33512 106 190.518)" style="fill:rgb(0,0,0);stroke:rgb(0,0,0);stroke-width:2"></polygon>
</g>
</g>
</svg>

</g>
</svg>