<?xml version="1.0"?>
<!DOCTYPE svg PUBLIC "-//W3C//DTD SVG 1.1//EN" "http://www.w3.org/Graphics/SVG/1.1/DTD/svg11.dtd" >
<!-- SVG content generated using Symbology Configuration Management System (SCMS) -->
<!-- Systematic Software Engineering Ltd. - www.systematic.co.uk - do not remove  -->
<svg id="G*GPGPWE--****X" width="400px" height="400px" viewBox="0 0 400 400">
<g >
<svg viewBox="0 0 400 400" id="_0.G-GPGPWE------X" width="400px" height="400px"><line x1="10" y1="300" x2="390" y2="300" transform="matrix(1 0 0 1 0 0)" style="fill:none;stroke:rgb(0,0,0);stroke-width:10"></line>
<line x1="200" y1="300" x2="200" y2="65" transform="matrix(1 0 0 1 0 0)" style="fill:none;stroke:rgb(0,0,0);stroke-width:10"></line>
<line x1="200" y1="300" x2="365" y2="135" transform="matrix(1 0 0 1 0 0)" style="fill:none;stroke:rgb(0,0,0);stroke-width:10"></line>
<line x1="200" y1="300" x2="35" y2="135" transform="matrix(1 0 0 1 0 0)" style="fill:none;stroke:rgb(0,0,0);stroke-width:10"></line>
<g id="ANCHOR%20POINT" transform="matrix(2 0 0 2 -28 -290) translate(4.5 14.5)"><text x="140px" y="304px" transform="matrix(1 0 0 1 0 0)" style="fill:rgb(0,0,0);stroke-width:1;font-size:12;font-family:Arial Black;font-weight:bold;
			">ANCHOR </text>
<text x="152px" y="320px" transform="matrix(1 0 0 1 -5 -5)" style="fill:rgb(0,0,0);stroke-width:1;font-size:12;font-family:Arial Black;font-weight:bold;
			">POINT</text>
</g>
<line x1="272" y1="217" x2="271.948" y2="232.897" transform="matrix(2 0 0 2 -354 -136) translate(4.5 14.5)" style="fill:rgb(0,0,0);stroke:rgb(0,0,0);stroke-width:2"></line>
<line x1="272.215" y1="232.03" x2="304" y2="232" transform="matrix(2 0 0 2 -354 -136) translate(4.5 14.5)" style="fill:rgb(0,0,0);stroke:rgb(0,0,0);stroke-width:2"></line>
<polygon points="68,89.8038 74,100.196 62,100.196" transform="matrix(2 0 0 2.3094 54 78.606) translate(4.5 12.5574)" style="fill:rgb(0,0,0);stroke:rgb(0,0,0);stroke-width:2"></polygon>
</svg>

</g>
</svg>