<?xml version="1.0"?>
<!DOCTYPE svg PUBLIC "-//W3C//DTD SVG 1.1//EN" "http://www.w3.org/Graphics/SVG/1.1/DTD/svg11.dtd" >
<!-- SVG content generated using Symbology Configuration Management System (SCMS) -->
<!-- Systematic Software Engineering Ltd. - www.systematic.co.uk - do not remove  -->
<svg id="G*GPGPHA--****X" width="400px" height="400px" viewBox="0 0 400 400">
<g >
<svg viewBox="0 0 400 400" id="_0.G-GPGPHA------X" width="400px" height="400px"><g transform="translate(-250 -140) scale(1.75 1.75)"><g transform="translate(292 162) translate(27.99 42) scale(1 2.66667) translate(-27.99 -42) translate(0 21) scale(2.48267 1) translate(0 -21) translate(-28.1954 17.25)"><path d="M0 0 L55.98 0.057 L54.48 1.25 L1.561 1.25 zM0 0 L1.547 1.281 L16.994 41.996 L15.66       42 zM31.92 23.955 L30.66 20.375 L26.221 20.375 L25.02 23.955 L22.74 23.955       L27.301 11.75 L29.401 11.75 L34.381 23.955 zM28.381 14.355 L26.941 18.5 L29.88       18.5 zM55.98 0 L54.48 1.262 L39.061 42 L40.381 42 z"></path>
</g>
<line x1="124" y1="215" x2="178" y2="203" transform="matrix(1 0 0 1 82.0001 -13.0006)" style="fill:rgb(0,0,0);stroke:rgb(0,0,0);stroke-width:2"></line>
<polygon points="142,144.804 148,155.196 136,155.196" transform="matrix(0.147805 1.02424 -1.47033 0.227561 462.561 8.4236)" style="fill:rgb(0,0,0);stroke:rgb(0,0,0);stroke-width:2"></polygon>
<g id="CENTER%20POINT" transform="matrix(1 0 0 1 82 -53)"><text x="70px" y="251px" transform="matrix(1 0 0 1 0 0)" style="fill:rgb(0,0,0);stroke-width:1;font-family:Arial Black;font-weight:bold;font-size:12;      ">CENTER</text>
<text x="94px" y="283px" transform="matrix(1 0 0 1 0 0) translate(-15 -18)" style="fill:rgb(0,0,0);stroke-width:1;font-family:Arial Black;font-weight:bold;font-size:12;      ">POINT</text>
</g>
</g>
</svg>

</g>
</svg>