<?xml version="1.0"?>
<!DOCTYPE svg PUBLIC "-//W3C//DTD SVG 1.1//EN" "http://www.w3.org/Graphics/SVG/1.1/DTD/svg11.dtd" >
<!-- SVG content generated using Symbology Configuration Management System (SCMS) -->
<!-- Systematic Software Engineering Ltd. - www.systematic.co.uk - do not remove  -->
<svg id="G*GPOPP---****X" width="400px" height="400px" viewBox="0 0 400 400">
<g >
<svg viewBox="0 0 400 400" id="_0.G-GPOPP-------X" width="400px" height="400px"><g transform="translate(-60 -35) scale(0.9 0.9)"><g transform="matrix(2 0 0 2 316 162)" style="fill:rgb(0,0,0);stroke:rgb(0,0,0);stroke-width:1"><path d="M0 0 L21.375 0 L21.375 32.125 L0 32.125 zM21.375 32.125 L10.5 43.125 L0 32.125 zM20.375       1.125 L1 1.125 L1 31.125 L20.375 31.125 zM19.617 32.125 L1.553 32.125       L10.516 41.332 zM6.625 8.625 L4.75 8.625 L4.75 11.625 L3.625 11.625 L3.625       4 L6.564 4 C7.26 4 7.646 4.021 7.727 4.061 C8.993 4.221 9.625 4.942 9.625       6.223 C9.625 7.824 8.625 8.625 6.625 8.625 zM7.5 5.184 L6.563 5.125 L4.75       5.125 L4.75 7.5 L6.625 7.5 C7.709 7.5 8.25 7.105 8.25 6.312 C8.25 5.719 8 5.344       7.5 5.184 zM13.598 11.375 L10.86 11.375 L10.86 4 L13.475 4 C14.205 4 14.651       4.02 14.813 4.059 C16.354 4.418 17.126 5.608 17.126 7.629 C17.125 10.127       15.949 11.375 13.598 11.375 zM15.455 6.01 C15.238 5.656 14.982 5.42 14.687       5.303 C14.392 5.186 13.99 5.125 13.48 5.125 L12.125 5.125 L12.125 10.25       L13.48 10.25 C15.011 10.25 15.779 9.387 15.779 7.658 C15.779 6.912 15.67 6.363       15.455 6.01 z"></path>
</g>
<g id="T"><text x="234px" y="228px" transform="matrix(2 0 0 2 -100 -270)" style="fill:rgb(0,0,0);stroke-width:1;font-size:12;font-family:Arial Black;font-weight:bold;      ">8</text>
</g>
<g id="H2"><text x="170px" y="284px" transform="matrix(2 0 0 2 -138 -118)" style="fill:rgb(0,0,0);stroke-width:1;font-size:12;font-family:Arial Black;font-weight:bold;      ">LD</text>
<text x="172px" y="298px" transform="matrix(2 0 0 2 -144 -124)" style="fill:rgb(0,0,0);stroke-width:1;font-size:12;font-family:Arial Black;font-weight:bold;      ">(PL CHARLIE)</text>
</g>
<g id="H1"><text x="170px" y="284px" transform="matrix(2 0 0 2 -140 -506)" style="fill:rgb(0,0,0);stroke-width:1;font-size:12;font-family:Arial Black;font-weight:bold;      ">LD</text>
<text x="172px" y="298px" transform="matrix(2 0 0 2 -148 -508)" style="fill:rgb(0,0,0);stroke-width:1;font-size:12;font-family:Arial Black;font-weight:bold;      ">(PL CHARLIE)</text>
</g>
<line x1="218" y1="258" x2="218.75" y2="268.973" transform="matrix(2 0 0 2 -100 -270)" style="fill:rgb(0,0,0);stroke:rgb(0,0,0);stroke-width:2"></line>
<line x1="219.5" y1="267.973" x2="160.25" y2="289.223" transform="matrix(2 0 0 2 -100 -270)" style="fill:rgb(0,0,0);stroke:rgb(0,0,0);stroke-width:2"></line>
<path d="M163.5 195.5 C153.222 216.056 162.5 314.296 162.5 344.5" transform="matrix(2 0 0 2 -100 -270)" style="fill:none;stroke:rgb(0,0,0);stroke-width:2"></path>
</g>
</svg>

</g>
</svg>