<?xml version="1.0"?>
<!DOCTYPE svg PUBLIC "-//W3C//DTD SVG 1.1//EN" "http://www.w3.org/Graphics/SVG/1.1/DTD/svg11.dtd" >
<!-- SVG content generated using Symbology Configuration Management System (SCMS) -->
<!-- Systematic Software Engineering Ltd. - www.systematic.co.uk - do not remove  -->
<svg id="WA--CW---------" width="400px" height="400px" viewBox="0 0 400 400">
<g >
<svg viewBox="0 0 400 400" id="_0.WA--CW---------" width="400px" height="400px"><g transform="translate(25 25) scale(10 10)"><path d="M34.375 17.152 C34.375 21.908 32.695 25.966 29.34 29.33 C25.985 32.694 21.934 34.375      17.188 34.375 C12.442 34.375 8.389 32.693 5.033 29.33 C1.677 25.967 0 21.908      0 17.152 C0 12.445 1.678 8.408 5.033 5.045 C8.388 1.682 12.441 0 17.188      0 C21.935 0 25.985 1.682 29.34 5.045 C32.695 8.408 34.375 12.445 34.375 17.152      zM21.875 1.904 C20.492 1.134 18.945 0.75 17.232 0.75 C15.564 0.75 13.945      1.088 12.375 1.76 L12.375 32.541 C13.898 33.311 15.469 33.695 17.09 33.695      C18.852 33.695 20.445 33.287 21.875 32.47 z"></path>
</g>
</svg>

</g>
</svg>