<?xml version="1.0"?>
<!DOCTYPE svg PUBLIC "-//W3C//DTD SVG 1.1//EN" "http://www.w3.org/Graphics/SVG/1.1/DTD/svg11.dtd" >
<!-- SVG content generated using Symbology Configuration Management System (SCMS) -->
<!-- Systematic Software Engineering Ltd. - www.systematic.co.uk - do not remove  -->
<svg id="G*GPSAE---****X" width="400px" height="400px" viewBox="0 0 400 400">
<g >
<svg viewBox="0 0 400 400" id="_0.G-GPSAE-------X" width="400px" height="400px"><path d="M185 125 L215 125 L231.5 102 L239 128 L267 137 L293 122.5 L290 148 L311 166 L338.5
			166 L323 188 L323 212 L338.5 234 L311 234 L290 252 L291 277.5 L267 263 L239
			272 L231.5 298 L215 275 L185 275 L168.5 298 L161 272 L133 263 L107 277.5 L110
			252 L89 234 L61.5 234 L77 212 L77 188 L61.5 166 L89 166 L110 148 L107 122.5
			L133 137 L161 128 L168.5 102 z" style="fill:none;stroke:rgb(0,0,0);stroke-width:5"></path>
<ellipse cx="200" cy="200" rx="125" ry="75" transform="matrix(1 0 0 1 0 0)" style="fill:rgb(255,255,255);stroke:rgb(0,0,0);stroke-width:5"></ellipse>
<g transform="scale(0.6 0.6) translate(337 134)"><rect x="175" y="175" width="50" height="50" style="fill:rgb(255,255,255);stroke:rgb(0,0,0);stroke-width:5" transform="translate(0 0) translate(0 0)"></rect>
<text x="187px" y="213px" style="fill:rgb(0,0,0);stroke:rgb(0,0,0);font-size:36;font-family:Arial">N</text>
</g>
<g transform="scale(0.6 0.6) translate(-73 134)"><rect x="175" y="175" width="50" height="50" style="fill:rgb(255,255,255);stroke:rgb(0,0,0);stroke-width:5" transform="translate(0 0) translate(0 0)"></rect>
<text x="187px" y="213px" style="fill:rgb(0,0,0);stroke:rgb(0,0,0);font-size:36;font-family:Arial">N</text>
</g>
</svg>

</g>
</svg>