<?xml version="1.0"?>
<!DOCTYPE svg PUBLIC "-//W3C//DTD SVG 1.1//EN" "http://www.w3.org/Graphics/SVG/1.1/DTD/svg11.dtd" >
<!-- SVG content generated using Symbology Configuration Management System (SCMS) -->
<!-- Systematic Software Engineering Ltd. - www.systematic.co.uk - do not remove  -->
<svg id="G*SPLCM---****X" width="400px" height="400px" viewBox="0 0 400 400">
<g transform="translate(-40 5)" >
<svg viewBox="0 0 400 400" id="_0.GAR20---------X" width="400px" height="400px"><polyline points="390,200 390,275 370,295" style="fill:none;stroke:rgb(0,0,0);stroke-width:3"></polyline>
<polygon points="390,200 385,214 395,214" transform="matrix(1 0 0 1 0 0)" style="fill:rgb(0,0,0);stroke:rgb(0,0,0);stroke-width:2"></polygon>
</svg>

</g>
<g transform="translate(15 28)" >
<svg viewBox="0 0 400 400" id="_1.GAR16---------X" width="400px" height="400px"><polyline points="10,215 10,260 30,280" style="fill:none;stroke:rgb(0,0,0);stroke-width:3"></polyline>
<polygon points="6,225 10,212 14,225" style="fill:rgb(0,0,0);stroke:rgb(0,0,0);stroke-width:3"></polygon>
</svg>

</g>
<g transform="scale(0.75 0.75) translate(208 209.333)" >
<svg viewBox="0 0 400 400" id="_2.G-O1----------X" width="400px" height="400px"><text x="200px" y="200px" transform="matrix(1 0 0 1 -27.396 8.628)" style="fill:rgb(0,0,0);font-size:24;font-family:Arial">PT. 1</text>
</svg>

</g>
<g transform="scale(0.75 0.75) translate(-104 210.667)" >
<svg viewBox="0 0 400 400" id="_3.G-O2----------X" width="400px" height="400px"><text x="320px" y="140px" transform="matrix(1 0 0 1 -148.968 68.628)" style="fill:rgb(0,0,0);font-size:24;font-family:Arial">PT. 2</text>
</svg>

</g>
<g transform="scale(0.75 0.75) translate(68 158)" >
<svg viewBox="0 0 400 400" id="_4.G-----------PW1" width="400px" height="400px"><rect x="160" y="175" width="80" height="50" transform="matrix(1 0 0 1 0 0) translate(0 0) translate(0 0)" style="fill:none;stroke:rgb(0,0,0);stroke-width:5"></rect>
<text x="176px" y="213px" transform="matrix(1 0 0 1 0 0)" style="fill:rgb(0,0,0);stroke:rgb(0,0,0);font-size:36;font-family:Arial">W1</text>
</svg>

</g>
<g transform="scale(0.75 0.75) translate(-44 158)" >
<svg viewBox="0 0 400 400" id="_5.G-----------PWS" width="400px" height="400px"><rect x="175" y="175" width="50" height="50" transform="matrix(1 0 0 1 0 0) translate(0 0) translate(0 0) translate(0 0)" style="fill:none;stroke:rgb(0,0,0);stroke-width:5"></rect>
<text x="187px" y="213px" transform="matrix(1 0 0 1 -4.01335 -0.112)" style="fill:rgb(0,0,0);stroke:rgb(0,0,0);font-size:36;font-family:Arial">W</text>
</svg>

</g>
<g transform="scale(0.75 0.75) translate(96 66)" >
<svg viewBox="0 0 400 400" id="_6.G----------PH1S" width="400px" height="400px"><rect x="170" y="175" width="60" height="50" transform="matrix(1 0 0 1 0 0) translate(0 0) translate(0 0) translate(0 0)" style="fill:none;stroke:rgb(0,0,0);stroke-width:5"></rect>
<text x="179px" y="213px" transform="matrix(1 0 0 1 0 0)" style="fill:rgb(0,0,0);stroke:rgb(0,0,0);font-size:36;font-family:Arial">H1</text>
</svg>

</g>
<g transform="scale(0.75 0.75) translate(5 66)" >
<svg viewBox="0 0 400 400" id="_7.G-----------PAS" width="400px" height="400px"><rect x="175" y="175" width="50" height="50" transform="matrix(1 0 0 1 0 0) translate(0 0) translate(0 0) translate(0 0)" style="fill:none;stroke:rgb(0,0,0);stroke-width:5"></rect>
<text x="187px" y="213px" transform="matrix(1 0 0 1 0.979169 -0.112)" style="fill:rgb(0,0,0);stroke:rgb(0,0,0);font-size:36;font-family:Arial">A</text>
</svg>

</g>
<g transform="scale(0.75 0.75) translate(-82 66)" >
<svg viewBox="0 0 400 400" id="_8.G-----------PHS" width="400px" height="400px"><rect x="175" y="175" width="50" height="50" transform="matrix(1 0 0 1 0 0) translate(0 0) translate(0 0) translate(0 0)" style="fill:none;stroke:rgb(0,0,0);stroke-width:5"></rect>
<text x="187px" y="213px" transform="matrix(1 0 0 1 0 0)" style="fill:rgb(0,0,0);stroke:rgb(0,0,0);font-size:36;font-family:Arial">H</text>
</svg>

</g>
<g transform="scale(0.75 0.75) translate(5 165)" >
<svg viewBox="0 0 400 400" id="_9.G-SPLCM-------D" width="400px" height="400px"><line x1="185" y1="200" x2="215" y2="200" transform="matrix(1 0 0 1 0 0)" style="stroke:rgb(0,0,0);stroke-width:5"></line>
</svg>

</g>
<g >
<svg viewBox="0 0 400 400" id="_10.G-SPLCM-------X" width="400px" height="400px"><polygon points="25,165 25,235 275,235 275,255 350,200 275,145 275,165" transform="matrix(1 0 0 1 0 0)" style="fill:none;stroke:rgb(0,0,0);stroke-width:3"></polygon>
</svg>

</g>
</svg>