<?xml version="1.0"?>
<!DOCTYPE svg PUBLIC "-//W3C//DTD SVG 1.1//EN" "http://www.w3.org/Graphics/SVG/1.1/DTD/svg11.dtd" >
<!-- SVG content generated using Symbology Configuration Management System (SCMS) -->
<!-- Systematic Software Engineering Ltd. - www.systematic.co.uk - do not remove  -->
<svg id="G*OPED----****X" width="400px" height="400px" viewBox="0 0 400 400">
<g >
<svg viewBox="0 0 400 400" id="_0.G-O-E---------W" width="400px" height="400px"><polyline points="50,300 100,250 150,300 200,250 250,300 300,250 350,300" style="stroke-linecap:square;fill:none;stroke:rgb(0,0,0);stroke-width:10"></polyline>
</svg>

</g>
<g >
<svg viewBox="0 0 400 400" id="_1.G-O-ED--------X" width="400px" height="400px"><polygon points="141.833,287.793 260.333,146.833 233,92.1666 249.5,74.5 294.333,130 250,300 200,250
			150,300" style="fill:rgb(0,0,0);stroke:rgb(0,0,0);stroke-width:5"></polygon>
</svg>

</g>
<g transform="translate(120 170)" >
<svg viewBox="0 0 400 400" id="_2.GA------------X" width="400px" height="400px"><text x="148px" y="195px" style="fill:rgb(0,0,0);stroke:rgb(0,0,0);font-size:24;font-family:Arial">ANCHOR</text>
<text x="160px" y="220px" style="fill:rgb(0,0,0);stroke:rgb(0,0,0);font-size:24;font-family:Arial">POINT</text>
</svg>

</g>
<g >
<svg viewBox="0 0 400 400" id="_3.GAR7----------X" width="400px" height="400px"><polyline points="255,360 200,347.5 200,310" transform="matrix(1 0 0 1 0 0)" style="fill:none;stroke:rgb(0,0,0);stroke-width:3"></polyline>
<polygon points="195,318 200,305 205,318" transform="matrix(1 0 0 1 0 0)" style="fill:rgb(0,0,0);stroke:rgb(0,0,0);stroke-width:3"></polygon>
</svg>

</g>
</svg>