<?xml version="1.0"?>
<!DOCTYPE svg PUBLIC "-//W3C//DTD SVG 1.1//EN" "http://www.w3.org/Graphics/SVG/1.1/DTD/svg11.dtd" >
<!-- SVG content generated using Symbology Configuration Management System (SCMS) -->
<!-- Systematic Software Engineering Ltd. - www.systematic.co.uk - do not remove  -->
<svg id="G*OPHN----****X" width="400px" height="400px" viewBox="0 0 400 400">
<g transform="matrix(-0.5 6.12303e-017 -8.57224e-017 -0.7 200 376.352) translate(-500 23)" >
<svg viewBox="0 0 400 400" id="_0.GAR8----------X" width="400px" height="400px"><line x1="200" y1="306" x2="200" y2="234" transform="matrix(1 0 0 1 0 0)" style="fill:none;stroke:rgb(0,0,0);stroke-width:3"></line>
<polygon points="195,245 200,235 205,245" transform="matrix(1 0 0 1 0 0)" style="fill:rgb(0,0,0);stroke:rgb(0,0,0);stroke-width:3"></polygon>
</svg>

</g>
<g transform="translate(150 -68)" >
<svg viewBox="0 0 400 400" id="_1.G-O2----------X" width="400px" height="400px"><text x="320px" y="140px" transform="matrix(1 0 0 1 -148.968 68.628)" style="fill:rgb(0,0,0);font-size:24;font-family:Arial">PT. 2</text>
</svg>

</g>
<g transform="translate(-150 68) translate(-3 1)" >
<svg viewBox="0 0 400 400" id="_2.G-O1----------X" width="400px" height="400px"><text x="200px" y="200px" transform="matrix(1 0 0 1 -27.396 8.628)" style="fill:rgb(0,0,0);font-size:24;font-family:Arial">PT. 1</text>
</svg>

</g>
<g transform="scale(0.5 0.7) translate(-100 57)" >
<svg viewBox="0 0 400 400" id="_3.GAR8----------X" width="400px" height="400px"><line x1="200" y1="306" x2="200" y2="234" transform="matrix(1 0 0 1 0 0)" style="fill:none;stroke:rgb(0,0,0);stroke-width:3"></line>
<polygon points="195,245 200,235 205,245" transform="matrix(1 0 0 1 0 0)" style="fill:rgb(0,0,0);stroke:rgb(0,0,0);stroke-width:3"></polygon>
</svg>

</g>
<g >
<svg viewBox="0 0 400 400" id="_4.G-OPHN--------X" width="400px" height="400px"><polyline points="110,140 50,200 350,200 290,260" style="fill:none;stroke:rgb(0,0,0);stroke-width:5"></polyline>
</svg>

</g>
</svg>