<?xml version="1.0"?>
<!DOCTYPE svg PUBLIC "-//W3C//DTD SVG 1.1//EN" "http://www.w3.org/Graphics/SVG/1.1/DTD/svg11.dtd" >
<!-- SVG content generated using Symbology Configuration Management System (SCMS) -->
<!-- Systematic Software Engineering Ltd. - www.systematic.co.uk - do not remove  -->
<svg id="G*GPOAF---****X" width="400px" height="400px" viewBox="0 0 400 400">
<g >
<svg viewBox="0 0 400 400" id="_0.G-GPOAF-------X" width="400px" height="400px"><g transform="translate(-190 -130) scale(1.5 1.5)"><g><line x1="228" y1="157" x2="228" y2="288" style="fill:rgb(0,0,0);stroke:rgb(0,0,0);stroke-width:2"></line>
<line x1="228.414" y1="157.441" x2="196" y2="125" style="fill:rgb(0,0,0);stroke:rgb(0,0,0);stroke-width:2"></line>
<line x1="268.248" y1="234.207" x2="234" y2="267" transform="translate(-40 53)" style="fill:rgb(0,0,0);stroke:rgb(0,0,0);stroke-width:2"></line>
<line x1="228" y1="215" x2="356" y2="215" style="fill:rgb(0,0,0);stroke:rgb(0,0,0);stroke-width:2"></line>
<line x1="355.298" y1="214.607" x2="332" y2="195" style="fill:rgb(0,0,0);stroke:rgb(0,0,0);stroke-width:2"></line>
<line x1="355.381" y1="215.274" x2="330.131" y2="235.107" style="fill:rgb(0,0,0);stroke:rgb(0,0,0);stroke-width:2"></line>
</g>
<g id="PT.%201" transform="translate(270 96)"><text x="74px" y="65px" transform="matrix(1 0 0 1 0 0)" style="fill:rgb(0,0,0);stroke-width:1;font-family:Arial Black;font-weight:bold;font-size:12;      ">PT. 1</text>
</g>
<g id="PT.%202" transform="translate(-25 115)"><text x="166px" y="69px" transform="matrix(1 0 0 1 0 0)" style="fill:rgb(0,0,0);stroke-width:1;font-family:Arial Black;font-weight:bold;font-size:12;      ">PT. 2</text>
</g>
<g id="PT.%203" transform="translate(-95 205)"><text x="234px" y="59px" transform="matrix(1 0 0 1 0 0)" style="fill:rgb(0,0,0);stroke-width:1;font-family:Arial Black;font-weight:bold;font-size:12;      ">PT. 3</text>
</g>
<line x1="360" y1="210" x2="360" y2="167" transform="matrix(1 0 0 1 0 0)" style="fill:rgb(0,0,0);stroke:rgb(0,0,0);stroke-width:2"></line>
<line x1="218" y1="284" x2="178" y2="269" transform="matrix(1 0 0 1 0 0) translate(0 -1) translate(0 -1) translate(0 -1) translate(0 -1) translate(-1 0) translate(0 -1)" style="fill:rgb(0,0,0);stroke:rgb(0,0,0);stroke-width:2"></line>
<line x1="218" y1="162" x2="180" y2="177" transform="matrix(1 0 0 1 0 0)" style="fill:rgb(0,0,0);stroke:rgb(0,0,0);stroke-width:2"></line>
<g transform="rotate(65.6622 56 114) translate(109.261 -125.088)"><polygon points="56,110.536 60,117.464 52,117.464" transform="matrix(1 0 0 2.02073 0 -116.363)" style="fill:rgb(0,0,0);stroke:rgb(0,0,0);stroke-width:2"></polygon>
</g>
<g transform="rotate(120.7 250 252) translate(41.2731 12.7096) rotate(347.239 249.043 253.756) rotate(7.88711 248.379 253.172) translate(-0.90012 0.435643) translate(0.435643 0.90012)"><polygon points="56,110.536 60,117.464 52,117.464" transform="matrix(1 0 0 2.02073 194 21.637)" style="fill:rgb(0,0,0);stroke:rgb(0,0,0);stroke-width:2"></polygon>
</g>
<polygon points="56,110.536 60,117.464 52,117.464" transform="matrix(1 0 0 -2.02073 304 430.343)" style="fill:rgb(0,0,0);stroke:rgb(0,0,0);stroke-width:2"></polygon>
</g>
</svg>

</g>
</svg>