<?xml version="1.0"?>
<!DOCTYPE svg PUBLIC "-//W3C//DTD SVG 1.1//EN" "http://www.w3.org/Graphics/SVG/1.1/DTD/svg11.dtd" >
<!-- SVG content generated using Symbology Configuration Management System (SCMS) -->
<!-- Systematic Software Engineering Ltd. - www.systematic.co.uk - do not remove  -->
<svg id="G*MPNEB---****X"
     width="400px"
     height="400px"
     viewBox="0 0 400 400">
  <g transform="translate(45 0)">
    <svg viewBox="0 0 400 400"
         id="_0.G-M-B---------X"
         width="400px"
         height="400px">
      <path d="M185 125 L215 125 L215 200 L250 275 L150 275 L185 200 z"
            style="fill:rgb(255,255,128);stroke:rgb(0,0,0);stroke-width:5"></path>
      <text x="189px"
            y="250px"
            transform="matrix(1 0 0 1 0 0)"
            style="fill:rgb(0,0,0);stroke:rgb(0,0,0);font-size:32;font-family:Arial">B</text>
    </svg>
  </g>
  <g transform="translate(40 0)">
    <svg viewBox="0 0 400 400"
         id="_1.G-M-B--------LX"
         width="400px"
         height="400px">
      <rect x="67"
            y="184"
            width="66"
            height="32"
            style="fill:rgb(255,255,255);stroke:rgb(255,255,255);stroke-width:1"></rect>
      <text x="69px"
            y="213px"
            style="fill:rgb(0,0,0);stroke:rgb(0,0,0);font-size:36;font-family:Arial">BIO</text>
    </svg>
  </g>
  <g>
    <svg viewBox="0 0 400 400"
         id="_2.G-M-B--------EX"
         width="400px"
         height="400px">
      <text x="5px"
            y="157px"
            transform="matrix(1 0 0 1 0 0) translate(0 0) translate(0 0)"
            style="fill:rgb(0,0,0);stroke:rgb(0,0,0);font-size:20;font-family:Arial">10095900ZJAN92</text>
      <text x="119px"
            y="257px"
            transform="matrix(1 0 0 1 0 0)"
            style="fill:rgb(0,0,0);stroke:rgb(0,0,0);font-size:20;font-family:Arial">X469</text>
      <text x="168px"
            y="307px"
            transform="matrix(1 0 0 1 0 0)"
            style="fill:rgb(0,0,0);stroke:rgb(0,0,0);font-size:20;font-family:Arial">45 31"N009 59"E</text>
      <polyline points="245,315 245,390 295,340"
                style="fill:none;stroke:rgb(0,0,0);stroke-width:3"></polyline>
      <polygon points="287.84,340.441 298.965,335.441 294.59,346.691"
               style="fill:rgb(0,0,0);stroke:rgb(0,0,0);stroke-width:3"></polygon>
      <text x="191px"
            y="295px"
            style="fill:rgb(0,0,0);stroke:rgb(0,0,0);font-size:8;font-family:Arial">o</text>
      <text x="273px"
            y="295px"
            style="fill:rgb(0,0,0);stroke:rgb(0,0,0);font-size:8;font-family:Arial">o</text>
      <text x="290px"
            y="147px"
            transform="matrix(1 0 0 1 0 0)"
            style="fill:rgb(0,0,0);stroke:rgb(0,0,0);font-size:20;font-family:Arial">ANTHRAX</text>
      <text x="275px"
            y="168px"
            transform="matrix(1 0 0 1 0 0)"
            style="fill:rgb(0,0,0);stroke:rgb(0,0,0);font-size:20;font-family:Arial">SUSPECTED</text>
    </svg>
  </g>
</svg>
