<?xml version="1.0"?>
<!DOCTYPE svg PUBLIC "-//W3C//DTD SVG 1.1//EN" "http://www.w3.org/Graphics/SVG/1.1/DTD/svg11.dtd" >
<!-- SVG content generated using Symbology Configuration Management System (SCMS) -->
<!-- Systematic Software Engineering Ltd. - www.systematic.co.uk - do not remove  -->
<svg id="G*MPNZ----****X"
     width="400px"
     height="400px"
     viewBox="0 0 400 400">
  <g transform="translate(75 0)">
    <svg viewBox="0 0 400 400"
         id="_0.G-M-N---------X"
         width="400px"
         height="400px">
      <rect x="182"
            y="175"
            width="36"
            height="100"
            transform="matrix(1 0 0 1 0 0)"
            style="fill:rgb(255,255,128);stroke:rgb(0,0,0);stroke-width:5"></rect>
      <text x="188px"
            y="235px"
            transform="matrix(1 0 0 1 0 0) translate(0 0)"
            style="fill:rgb(0,0,0);stroke:rgb(0,0,0);font-size:32;font-family:Arial">N</text>
      <path d="M200 175 L150 175 C150 175 150 125 200 125 C250 125 250 175 250 175 z"
            style="fill:rgb(255,255,128);stroke:rgb(0,0,0);stroke-width:5"></path>
    </svg>
  </g>
  <g>
    <svg viewBox="0 0 400 400"
         id="_1.G-M-N--------EX"
         width="400px"
         height="400px">
      <text x="35px"
            y="157px"
            transform="matrix(1 0 0 1 0 0) translate(0 0)"
            style="fill:rgb(0,0,0);stroke:rgb(0,0,0);font-size:20;font-family:Arial">10095900ZJAN92</text>
      <text x="160px"
            y="207px"
            transform="matrix(1 0 0 1 0 0)"
            style="fill:rgb(0,0,0);stroke:rgb(0,0,0);font-size:20;font-family:Arial">B83</text>
      <text x="152px"
            y="257px"
            transform="matrix(1 0 0 1 0 0)"
            style="fill:rgb(0,0,0);stroke:rgb(0,0,0);font-size:20;font-family:Arial">X691</text>
      <text x="173px"
            y="307px"
            transform="matrix(1 0 0 1 0 0)"
            style="fill:rgb(0,0,0);stroke:rgb(0,0,0);font-size:20;font-family:Arial">453100.0N0095900.0E</text>
      <text x="254px"
            y="157px"
            transform="matrix(1 0 0 1 0 0)"
            style="fill:rgb(0,0,0);stroke:rgb(0,0,0);font-size:20;font-family:Arial">ENY</text>
      <text x="262px"
            y="107px"
            transform="matrix(1 0 0 1 0 0)"
            style="fill:rgb(0,0,0);stroke:rgb(0,0,0);font-size:20;font-family:Arial">15</text>
      <polyline points="275,315 275,390 325,340"
                style="fill:none;stroke:rgb(0,0,0);stroke-width:3"></polyline>
      <polygon points="317.84,340.441 328.965,335.441 324.59,346.691"
               transform="matrix(1 0 0 1 0 0)"
               style="fill:rgb(0,0,0);stroke:rgb(0,0,0);stroke-width:3"></polygon>
    </svg>
  </g>
</svg>
