<?xml version="1.0"?>
<!DOCTYPE svg PUBLIC "-//W3C//DTD SVG 1.1//EN" "http://www.w3.org/Graphics/SVG/1.1/DTD/svg11.dtd" >
<!-- SVG content generated using Symbology Configuration Management System (SCMS) -->
<!-- Systematic Software Engineering Ltd. - www.systematic.co.uk - do not remove  -->
<svg id="G*MPSF----****X" width="400px" height="400px" viewBox="0 0 400 400">
<g >
<svg viewBox="0 0 400 400" id="_0.G-MPSF--------X" width="400px" height="400px"><rect x="160" y="170" width="52" height="53" transform="matrix(2 0 0 2 -98 -196)" style="fill:rgb(255,255,255);stroke:rgb(0,0,0);stroke-width:2"></rect>
<line x1="272" y1="197" x2="288" y2="180" transform="matrix(2 0 0 2 -218 -250)" style="fill:rgb(0,0,0);stroke:rgb(0,0,0);stroke-width:2"></line>
<line x1="258" y1="259" x2="242" y2="242" transform="matrix(2 0 0 2 -295.333 -375.333)" style="fill:rgb(0,0,0);stroke:rgb(0,0,0);stroke-width:2"></line>
<line x1="258" y1="259" x2="242" y2="242" transform="matrix(2 0 0 2 -159.333 -235.333)" style="fill:rgb(0,0,0);stroke:rgb(0,0,0);stroke-width:2"></line>
<line x1="242" y1="259" x2="258" y2="242" transform="matrix(2 0 0 2 -294 -235.333)" style="fill:rgb(0,0,0);stroke:rgb(0,0,0);stroke-width:2"></line>
<g id="CENTER%20POINT" transform="matrix(2 0 0 2 -56 -38)"><text x="38px" y="89px" transform="matrix(1 0 0 1 0 0)" style="fill:rgb(0,0,0);stroke-width:1;font-family:Arial Black;font-weight:bold;font-size:12;
			">CENTER</text>
<text x="54px" y="113px" transform="matrix(1 0 0 1 0 0) translate(-9 -12)" style="fill:rgb(0,0,0);stroke-width:1;font-family:Arial Black;font-weight:bold;font-size:12;
			">POINT</text>
</g>
<line x1="92" y1="229" x2="144" y2="218" transform="matrix(1.76009 0.949774 -0.949774 1.76009 187.518 -336.63)" style="fill:rgb(0,0,0);stroke:rgb(0,0,0);stroke-width:2"></line>
<polygon points="84,157.304 90,167.696 78,167.696" transform="matrix(-0.702642 1.87251 -3.0631 -1.1494 804.752 217.718)" style="fill:rgb(0,0,0);stroke:rgb(0,0,0);stroke-width:2"></polygon>
</svg>

</g>
</svg>