<?xml version="1.0"?>
<!DOCTYPE svg PUBLIC "-//W3C//DTD SVG 1.1//EN" "http://www.w3.org/Graphics/SVG/1.1/DTD/svg11.dtd" >
<!-- SVG content generated using Symbology Configuration Management System (SCMS) -->
<!-- Systematic Software Engineering Ltd. - www.systematic.co.uk - do not remove  -->
<svg id="WA--RRD--------" width="400px" height="400px" viewBox="0 0 400 400">
<g >
<svg viewBox="0 0 400 400" id="_0.WA--RRD--------" width="400px" height="400px"><g transform="translate(80 20) scale(12 12)"><path d="M17.25 8.652 C17.25 11.054 16.41 13.109 14.734 14.816 C13.056 16.523 11.019 17.375      8.625 17.375 C6.229 17.375 4.191 16.523 2.516 14.816 C0.838 13.109 0 11.055      0 8.652 C0 6.249 0.838 4.207 2.516 2.523 C4.191 0.842 6.229 0 8.625 0 C11.02      0 13.057 0.842 14.734 2.523 C16.41 4.207 17.25 6.25 17.25 8.652 zM8.639 0      C11.51 0 13.977 1.035 16.035 3.104 C18.094 5.174 19.125 7.653 19.125 10.54      C19.125 14.198 18.551 17.591 17.402 20.718 C15.677 25.386 12.828 28.732 8.855      30.751 C10.679 27.72 11.951 25.267 12.671 23.388 C13.534 21.079 13.966 18.552      13.966 15.81 z" style="fill:rgb(0,255,0)"></path>
</g>
</svg>

</g>
</svg>