<?xml version="1.0"?>
<!DOCTYPE svg PUBLIC "-//W3C//DTD SVG 1.1//EN" "http://www.w3.org/Graphics/SVG/1.1/DTD/svg11.dtd" >
<!-- SVG content generated using Symbology Configuration Management System (SCMS) -->
<!-- Systematic Software Engineering Ltd. - www.systematic.co.uk - do not remove  -->
<svg id="SUGPIUED--H****" width="400px" height="400px" viewBox="0 0 400 400">
<g >
<svg viewBox="0 0 400 400" id="_0.SUG-I----------" width="400px" height="400px"><rect x="150" y="10" width="100" height="50" style="fill:rgb(0,0,0);stroke:none"></rect>
<path d="M115 285 C115 400 285 400 285 285 C400 285 400 115 285 115 C285 0 115 0 115 115 C0     115 0 285 115 285 z" style="fill:rgb(255,255,128);stroke:rgb(0,0,0);stroke-width:10"></path>
</svg>

</g>
<g >
<svg viewBox="0 0 400 400" id="_1.S-G-IUE---H----" width="400px" height="400px"><path d="M200 305 C190 305 170 300 170 295 L170 260 C70 220 120 95 200 100" style="fill:none;stroke:rgb(0,0,0);stroke-width:10"></path>
<g transform="translate(85 0)"><path d="M200 305 C190 305 170 300 170 295 L170 260 C70 220 120 95 200 100" style="fill:none;stroke:rgb(0,0,0);stroke-width:10" transform="matrix(-1 0 0 1 310 0)"></path>
</g>
</svg>

</g>
<g transform="translate(-102 -240) scale(1.5 1.5)" >
<svg viewBox="0 0 400 400" id="_2.S--------------" width="400px" height="400px"><text x="200" y="307" style="fill:rgb(0,0,0);text-anchor:middle;font-weight:bold;font-size:65;font-family:Arial">H</text>
</svg>

</g>
</svg>