<?xml version="1.0"?>
<!DOCTYPE svg PUBLIC "-//W3C//DTD SVG 1.1//EN" "http://www.w3.org/Graphics/SVG/1.1/DTD/svg11.dtd" >
<!-- SVG content generated using Symbology Configuration Management System (SCMS) -->
<!-- Systematic Software Engineering Ltd. - www.systematic.co.uk - do not remove  -->
<svg id="G*GPAAW---****X" width="400px" height="400px" viewBox="0 0 400 400">
<g >
<svg viewBox="0 0 400 400" id="_0.G-GPAAW-------X" width="400px" height="400px"><g transform="translate(-330 -290) scale(2 2)"><line x1="123.209" y1="146.975" x2="124" y2="268" style="fill:none;stroke:rgb(0,0,0);stroke-width:2" transform="matrix(1 0 0 1 69 24)"></line>
<line x1="122" y1="151" x2="241" y2="151" transform="matrix(1.02017 0 0 1 67.3393 21.2)" style="fill:none;stroke:rgb(0,0,0);stroke-width:2"></line>
<line x1="239" y1="151" x2="273" y2="193" transform="matrix(0.870588 0 0 1.05714 104.33 12.1714)" style="fill:none;stroke:rgb(0,0,0);stroke-width:2"></line>
<line x1="272.733" y1="192.27" x2="272.066" y2="253.309" transform="matrix(1 0 0 1.02666 69 18.0538)" style="fill:none;stroke:rgb(0,0,0);stroke-width:2"></line>
<line x1="272" y1="254" x2="150.755" y2="303.542" transform="matrix(1.00991 0 0 1.00816 67.1038 21.5275)" style="fill:none;stroke:rgb(0,0,0);stroke-width:2"></line>
<line x1="149" y1="303" x2="123.364" y2="266.451" transform="matrix(1.04616 0 0 1.02162 63.7229 19.0493)" style="fill:none;stroke:rgb(0,0,0);stroke-width:2"></line>
<line x1="123" y1="162" x2="137" y2="148" style="fill:none;stroke:rgb(0,0,0);stroke-width:2" transform="matrix(1 0 0 1 69 24)"></line>
<line x1="123.186" y1="174.668" x2="150" y2="148" style="fill:none;stroke:rgb(0,0,0);stroke-width:2" transform="matrix(1 0 0 1 69 24)"></line>
<line x1="124" y1="188" x2="162.615" y2="148.383" style="fill:none;stroke:rgb(0,0,0);stroke-width:2" transform="matrix(1 0 0 1 69 24)"></line>
<line x1="123.758" y1="200.954" x2="176.901" y2="148.097" style="fill:none;stroke:rgb(0,0,0);stroke-width:2" transform="matrix(1 0 0 1 69 24)"></line>
<line x1="124.044" y1="218.954" x2="194.901" y2="148.097" style="fill:none;stroke:rgb(0,0,0);stroke-width:2" transform="matrix(1 0 0 1 69 24)"></line>
<line x1="124" y1="232" x2="207.664" y2="148.382" style="fill:none;stroke:rgb(0,0,0);stroke-width:2" transform="matrix(1 0 0 1 69 24)"></line>
<line x1="124" y1="249" x2="224.755" y2="148.382" style="fill:none;stroke:rgb(0,0,0);stroke-width:2" transform="matrix(1 0 0 1 69 24)"></line>
<line x1="125" y1="269" x2="244.391" y2="149.473" style="fill:none;stroke:rgb(0,0,0);stroke-width:2" transform="matrix(1 0 0 1 69 24)"></line>
<line x1="133" y1="280" x2="252.209" y2="161.473" style="fill:none;stroke:rgb(0,0,0);stroke-width:2" transform="matrix(1 0 0 1 69 24)"></line>
<line x1="140" y1="289" x2="258.209" y2="170.927" style="fill:none;stroke:rgb(0,0,0);stroke-width:2" transform="matrix(1 0 0 1 69 24)"></line>
<line x1="147" y1="300" x2="265.482" y2="181.109" style="fill:none;stroke:rgb(0,0,0);stroke-width:2" transform="matrix(1 0 0 1 69 24)"></line>
<line x1="175.472" y1="293.24" x2="272.615" y2="195.811" style="fill:none;stroke:rgb(0,0,0);stroke-width:2" transform="matrix(1 0 0 1 69 24)"></line>
<line x1="212" y1="278" x2="272" y2="218" style="fill:none;stroke:rgb(0,0,0);stroke-width:2" transform="matrix(1 0 0 1 69 24)"></line>
<line x1="249" y1="263" x2="272" y2="239" style="fill:none;stroke:rgb(0,0,0);stroke-width:2" transform="matrix(1 0 0 1 69 24)"></line>
<rect x="32" y="390" width="88" height="17" transform="matrix(1 0 0 1 179 -133)" style="fill:rgb(255,255,255)"></rect>
<text x="231px" y="305px" transform="matrix(1 0 0 1 -16.1111 -34.3333)" style="fill:rgb(0,0,0);font-family:Arial Black;font-weight:bold;font-size:12">TIME FROM:</text>
<rect x="64" y="218" width="38" height="18" transform="matrix(1 0 0 1 144 -31)" style="fill:rgb(255,255,255)"></rect>
<text x="154px" y="176px" transform="matrix(1 0 0 1 60 25.3333)" style="fill:rgb(0,0,0);font-size:12;font-family:Arial Black;font-weight:bold">WFZ</text>
<rect x="92" y="304" width="72" height="23" transform="matrix(1 0 0 1 115 -72)" style="fill:rgb(255,255,255)"></rect>
<text x="231px" y="313px" transform="matrix(1 0 0 1 -17.6667 -65)" style="fill:rgb(0,0,0);font-family:Arial Black;font-weight:bold;font-size:12">TIME TO:</text>
<g id="T" transform="translate(141 140) translate(-1 0) translate(-1 0) translate(-1 0) translate(-1 0)"><rect x="314" y="66" width="26" height="18" transform="matrix(1 0 0 1 -77 175) translate(-157 -173) translate(0 1)" style="fill:rgb(255,255,255);stroke:rgb(0,0,0);stroke-width:2"></rect>
<text x="88px" y="83px" transform="matrix(1 0 0 1 0 0)" style="fill:rgb(0,0,0);stroke-width:1;font-size:12;font-family:Arial Black;font-weight:bold;     ">T</text>
</g>
<g id="W" transform="translate(86 165) translate(1 0) translate(1 0)"><rect x="314" y="66" width="26" height="18" transform="matrix(1 0 0 1 -77 175) translate(-45 -173) translate(0 1)" style="fill:rgb(255,255,255);stroke:rgb(0,0,0);stroke-width:2"></rect>
<text x="200px" y="83px" transform="matrix(1 0 0 1 0 0)" style="fill:rgb(0,0,0);stroke-width:1;font-size:12;font-family:Arial Black;font-weight:bold;     ">W</text>
</g>
<g id="W1" transform="translate(-16 193) translate(1 0) translate(1 0)"><rect x="314" y="66" width="26" height="18" transform="matrix(1 0 0 1 0 0) translate(0 -1) translate(1 0)" style="fill:rgb(255,255,255);stroke:rgb(0,0,0);stroke-width:2"></rect>
<text x="318px" y="78px" transform="matrix(1 0 0 1 0 0)" style="fill:rgb(0,0,0);stroke-width:1;font-size:12;font-family:Arial Black;font-weight:bold;     ">W1</text>
</g>
</g>
</svg>

</g>
</svg>