<?xml version="1.0"?>
<!DOCTYPE svg PUBLIC "-//W3C//DTD SVG 1.1//EN" "http://www.w3.org/Graphics/SVG/1.1/DTD/svg11.dtd" >
<!-- SVG content generated using Symbology Configuration Management System (SCMS) -->
<!-- Systematic Software Engineering Ltd. - www.systematic.co.uk - do not remove  -->
<svg id="G*GPAAW---****X" width="400px" height="400px" viewBox="0 0 400 400">
<g >
<svg viewBox="0 0 400 400" id="_0.G-GPAAW-------X" width="400px" height="400px"><g transform="translate(-330 -290) scale(2 2)"><line x1="123.209" y1="146.975" x2="124" y2="268" style="fill:none;stroke:rgb(0,0,0);stroke-width:2" transform="matrix(1 0 0 1 69 24)"></line>
<line x1="122" y1="151" x2="241" y2="151" transform="matrix(1.02017 0 0 1 67.3393 21.2)" style="fill:none;stroke:rgb(0,0,0);stroke-width:2"></line>
<line x1="239" y1="151" x2="273" y2="193" transform="matrix(0.870588 0 0 1.05714 104.33 12.1714)" style="fill:none;stroke:rgb(0,0,0);stroke-width:2"></line>
<line x1="272.733" y1="192.27" x2="272.066" y2="253.309" transform="matrix(1 0 0 1.02666 69 18.0538)" style="fill:none;stroke:rgb(0,0,0);stroke-width:2"></line>
<line x1="272" y1="254" x2="150.755" y2="303.542" transform="matrix(1.00991 0 0 1.00816 67.1038 21.5275)" style="fill:none;stroke:rgb(0,0,0);stroke-width:2"></line>
<line x1="149" y1="303" x2="123.364" y2="266.451" transform="matrix(1.04616 0 0 1.02162 63.7229 19.0493)" style="fill:none;stroke:rgb(0,0,0);stroke-width:2"></line>
<line x1="123" y1="162" x2="137" y2="148" style="fill:none;stroke:rgb(0,0,0);stroke-width:2" transform="matrix(1 0 0 1 69 24)"></line>
<line x1="123.186" y1="174.668" x2="150" y2="148" style="fill:none;stroke:rgb(0,0,0);stroke-width:2" transform="matrix(1 0 0 1 69 24)"></line>
<line x1="124" y1="188" x2="162.615" y2="148.383" style="fill:none;stroke:rgb(0,0,0);stroke-width:2" transform="matrix(1 0 0 1 69 24)"></line>
<line x1="123.758" y1="200.954" x2="176.901" y2="148.097" style="fill:none;stroke:rgb(0,0,0);stroke-width:2" transform="matrix(1 0 0 1 69 24)"></line>
<line x1="124.044" y1="218.954" x2="194.901" y2="148.097" style="fill:none;stroke:rgb(0,0,0);stroke-width:2" transform="matrix(1 0 0 1 69 24)"></line>
<line x1="124" y1="232" x2="157" y2="199" style="fill:none;stroke:rgb(0,0,0);stroke-width:2" transform="matrix(1 0 0 1 69 24)"></line>
<line x1="170" y1="186" x2="207.758" y2="148.097" style="fill:none;stroke:rgb(0,0,0);stroke-width:2" transform="matrix(1 0 0 1 69 24)"></line>
<line x1="124" y1="249" x2="159" y2="214" style="fill:none;stroke:rgb(0,0,0);stroke-width:2" transform="matrix(1 0 0 1 69 24)"></line>
<line x1="190" y1="188" x2="230.044" y2="147.811" style="fill:none;stroke:rgb(0,0,0);stroke-width:2" transform="matrix(1 0 0 1 69 24)"></line>
<line x1="125" y1="269" x2="163" y2="232" style="fill:none;stroke:rgb(0,0,0);stroke-width:2" transform="matrix(1 0 0 1 69 24)"></line>
<line x1="199" y1="201" x2="247" y2="154" style="fill:none;stroke:rgb(0,0,0);stroke-width:2" transform="matrix(1 0 0 1 69 24)"></line>
<line x1="133" y1="280" x2="178" y2="235" style="fill:none;stroke:rgb(0,0,0);stroke-width:2" transform="matrix(1 0 0 1 69 24)"></line>
<line x1="140" y1="289" x2="196" y2="232" style="fill:none;stroke:rgb(0,0,0);stroke-width:2" transform="matrix(1 0 0 1 69 24)"></line>
<line x1="147" y1="300" x2="215.629" y2="230.806" style="fill:none;stroke:rgb(0,0,0);stroke-width:2" transform="matrix(1 0 0 1 69 24)"></line>
<line x1="175.472" y1="293.24" x2="272.615" y2="195.811" style="fill:none;stroke:rgb(0,0,0);stroke-width:2" transform="matrix(1 0 0 1 69 24)"></line>
<line x1="212" y1="278" x2="272" y2="218" style="fill:none;stroke:rgb(0,0,0);stroke-width:2" transform="matrix(1 0 0 1 69 24)"></line>
<line x1="249" y1="263" x2="272" y2="239" style="fill:none;stroke:rgb(0,0,0);stroke-width:2" transform="matrix(1 0 0 1 69 24)"></line>
<line x1="220" y1="203" x2="256" y2="167" style="fill:none;stroke:rgb(0,0,0);stroke-width:2" transform="matrix(1 0 0 1 69 24)"></line>
<line x1="239" y1="205" x2="264" y2="180" style="fill:none;stroke:rgb(0,0,0);stroke-width:2" transform="matrix(1 0 0 1 69 24)"></line>
<rect x="96" y="58" width="166" height="80" transform="matrix(0.825301 0 0 0.7875 35.7711 22.325) translate(101.781 182.857) translate(262 98) scale(0.956204 1) translate(-262 -98) translate(-7.60305 0)" style="fill:rgb(255,255,255);stroke:none;stroke-width:1"></rect>
<g transform="translate(85 137) translate(-73 -147) translate(71 148) translate(-3 0) translate(0 4)"><text x="154px" y="176px" transform="matrix(1 0 0 1 -29 -91.6667)" style="fill:rgb(0,0,0);font-size:12;font-family:Arial Black;font-weight:bold">WFZ</text>
<text x="231px" y="305px" transform="matrix(1 0 0 1 -107.111 -194.333)" style="fill:rgb(0,0,0);font-family:Arial Black;font-weight:bold;font-size:12">TIME FROM:</text>
<text x="231px" y="313px" transform="matrix(1 0 0 1 -107.667 -188)" style="fill:rgb(0,0,0);font-family:Arial Black;font-weight:bold;font-size:12">TIME TO:</text>
<g id="T"><text x="110px" y="123px" transform="matrix(1 0 0 1 14 -26)" style="fill:rgb(0,0,0);font-family:Arial Black;font-weight:bold;font-size:12">(Unit ID)</text>
</g>
<g id="W1"><text x="120px" y="208px" transform="matrix(1 0 0 1 70 -83)" style="fill:rgb(0,0,0);font-size:12;font-family:Arial Black;font-weight:bold">1300Z</text>
</g>
<g id="W"><text x="340px" y="130px" transform="matrix(1 0 0 1 -133 -18)" style="fill:rgb(0,0,0);font-size:12;font-family:Arial Black;font-weight:bold">1000Z</text>
</g>
</g>
</g>
</svg>

</g>
</svg>