<?xml version="1.0"?>
<!DOCTYPE svg PUBLIC "-//W3C//DTD SVG 1.1//EN" "http://www.w3.org/Graphics/SVG/1.1/DTD/svg11.dtd" >
<!-- SVG content generated using Symbology Configuration Management System (SCMS) -->
<!-- Systematic Software Engineering Ltd. - www.systematic.co.uk - do not remove  -->
<svg id="WA--SSH--------" width="400px" height="400px" viewBox="0 0 400 400">
<g >
<svg viewBox="0 0 400 400" id="_0.WA--SSH--------" width="400px" height="400px"><g transform="translate(110 20) scale(10 10)"><path d="M8.641 25.375 C6.241 25.375 4.2 24.533 2.52 22.846 C0.84 21.159 0 19.109 0 16.699      C0 8.459 2.832 2.893 8.496 0 C5.832 4.387 4.5 8.771 4.5 13.158 zM15.5 18.535      C15.5 20.457 14.828 22.076 13.484 23.396 C12.14 24.716 10.507 25.375 8.589      25.375 C6.716 25.375 5.109 24.703 3.765 23.359 C2.421 22.015 1.75 20.408 1.75      18.535 C1.75 16.617 2.408 14.984 3.729 13.64 C5.05 12.296 6.668 11.624 8.59      11.624 C10.508 11.624 12.141 12.296 13.485 13.64 C14.829 14.984 15.5 16.617      15.5 18.535 zM17 19.941 C17 28.113 14.164 33.632 8.496 36.5 C11.287 32.008      12.684 27.852 12.684 24.027 C14.465 22.355 15.403 20.298 15.5 17.861 C15.018      14.802 12.852 12.724 9 11.625 C11.402 11.625 13.336 12.414 14.801 13.99 C16.266      15.568 17 17.551 17 19.941 z" style="fill:rgb(255,0,0)"></path>
</g>
</svg>

</g>
</svg>