<?xml version="1.0"?>
<!DOCTYPE svg PUBLIC "-//W3C//DTD SVG 1.1//EN" "http://www.w3.org/Graphics/SVG/1.1/DTD/svg11.dtd" >
<!-- SVG content generated using Symbology Configuration Management System (SCMS) -->
<!-- Systematic Software Engineering Ltd. - www.systematic.co.uk - do not remove  -->
<svg id="SUGPUCDC--*****" width="400px" height="400px" viewBox="0 0 400 400">
<g >
<svg viewBox="0 0 400 400" id="_0.SUG-U----------" width="400px" height="400px"><path d="M115 285 C115 400 285 400 285 285 C400 285 400 115 285 115 C285 0 115 0 115 115 C0     115 0 285 115 285 z" style="fill:rgb(255,255,128);stroke:rgb(0,0,0);stroke-width:10"></path>
</svg>

</g>
<g >
<svg viewBox="0 0 400 400" id="_1.S-G-UCDC-------" width="400px" height="400px"><path d="M180 190 L180 108 C180 83 220 83 220 108 L220 190" style="stroke:rgb(0,0,0);stroke-width:10;fill:none" transform="translate(0 0)"></path>
<line x1="200" y1="90" x2="200" y2="180" style="stroke:rgb(0,0,0);stroke-width:10;fill:none"></line>
<path d="M165 205 C165 175 235 175 235 205" style="stroke:rgb(0,0,0);stroke-width:10;fill:none"></path>
</svg>

</g>
<g >
<svg viewBox="0 0 400 400" id="_2.SUG-UCD--------" width="400px" height="400px"><path d="M59 266 C100 180 300 180 341 266" style="fill:rgb(255,255,128);stroke:rgb(0,0,0);stroke-width:10"></path>
</svg>

</g>
</svg>