<?xml version="1.0"?>
<!DOCTYPE svg PUBLIC "-//W3C//DTD SVG 1.1//EN" "http://www.w3.org/Graphics/SVG/1.1/DTD/svg11.dtd" >
<!-- SVG content generated using Symbology Configuration Management System (SCMS) -->
<!-- Systematic Software Engineering Ltd. - www.systematic.co.uk - do not remove  -->
<svg id="G*GPGLP---****X" width="400px" height="400px" viewBox="0 0 400 400">
<g >
<svg viewBox="0 0 400 400" id="_0.G-GPGLP-------X" width="400px" height="400px"><g transform="translate(-200 -200) scale(1.5 1.5)"><line x1="162" y1="225" x2="304" y2="225" style="fill:rgb(0,0,0);stroke:rgb(0,0,0);stroke-width:2" transform="matrix(1 0 0 1 36 27)"></line>
<text x="224px" y="289px" transform="matrix(1 0 0 1 -80 -31)" style="fill:rgb(0,0,0);font-size:12;font-family:Arial Black;font-weight:bold">PL</text>
<text x="238px" y="257px" transform="matrix(1 0 0 1 111 1)" style="fill:rgb(0,0,0);font-size:12;font-family:Arial Black;font-weight:bold">PL</text>
<g id="T1" transform="matrix(1 0 0 1 84 114) translate(-4 4)" style="font-size:12"><rect x="88" y="127" width="20" height="20" transform="matrix(1 0 0 1 0 0) translate(0 -1)" style="fill:rgb(255,255,255);stroke:rgb(0,0,0);stroke-width:2"></rect>
<text x="94px" y="141px" transform="matrix(1 0 0 1 0 0)" style="fill:rgb(0,0,0);stroke-width:1;font-family:Arial Black;font-weight:bold;font-size:12;      ">T</text>
</g>
<g id="T2" transform="matrix(1 0 0 1 141 -1) translate(-10 4)" style="font-size:12"><rect x="88" y="127" width="20" height="20" transform="matrix(1 0 0 1 152 113)" style="fill:rgb(255,255,255);stroke:rgb(0,0,0);stroke-width:2"></rect>
<text x="94px" y="141px" transform="matrix(1 0 0 1 152 114)" style="fill:rgb(0,0,0);stroke-width:1;font-family:Arial Black;font-weight:bold;font-size:12;      ">T</text>
</g>
<g id="PT.%201" transform="matrix(1 0 0 1 65 -50)" style="font-size:12"><text x="158px" y="355px" transform="matrix(1 0 0 1 0 0)" style="fill:rgb(0,0,0);stroke-width:1;font-family:Arial Black;font-weight:bold;font-size:12;      ">PT. 1</text>
</g>
<g id="PT.%202" transform="matrix(1 0 0 1 -98 -56)" style="font-size:12"><text x="384px" y="358px" transform="matrix(1 0 0 1 0 0)" style="fill:rgb(0,0,0);stroke-width:1;font-family:Arial Black;font-weight:bold;font-size:12;      ">PT. 2</text>
</g>
<line x1="198" y1="265" x2="198" y2="288" transform="matrix(1 0 0 1 0 0)" style="fill:rgb(0,0,0);stroke:rgb(0,0,0);stroke-width:2"></line>
<line x1="198" y1="288" x2="218" y2="298" transform="matrix(1 0 0 1 0 0)" style="fill:rgb(0,0,0);stroke:rgb(0,0,0);stroke-width:2"></line>
<line x1="340" y1="267" x2="340" y2="285" transform="matrix(1 0 0 1 0 0)" style="fill:rgb(0,0,0);stroke:rgb(0,0,0);stroke-width:2"></line>
<line x1="340" y1="285" x2="322" y2="294" transform="matrix(1 0 0 1 0 0)" style="fill:rgb(0,0,0);stroke:rgb(0,0,0);stroke-width:2"></line>
<polygon points="68,86.0359 72,92.9641 64,92.9641" transform="matrix(1 0 0 2.45374 0 -130.11) translate(130 70.9122) translate(0 0.407541)" style="fill:rgb(0,0,0);stroke:rgb(0,0,0);stroke-width:2"></polygon>
<polygon points="68,86.0359 72,92.9641 64,92.9641" transform="matrix(1 0 0 2.45374 183 31.89) translate(88 5.29803) translate(1 0)" style="fill:rgb(0,0,0);stroke:rgb(0,0,0);stroke-width:2"></polygon>
</g>
</svg>

</g>
</svg>