<?xml version="1.0"?>
<!DOCTYPE svg PUBLIC "-//W3C//DTD SVG 1.1//EN" "http://www.w3.org/Graphics/SVG/1.1/DTD/svg11.dtd" >
<!-- SVG content generated using Symbology Configuration Management System (SCMS) -->
<!-- Systematic Software Engineering Ltd. - www.systematic.co.uk - do not remove  -->
<svg id="G*MPOWA---****X" width="400px" height="400px" viewBox="0 0 400 400">
<g >
<svg viewBox="0 0 400 400" id="_0.G-MPOWA-------X" width="400px" height="400px"><g id="PT.%201" transform="matrix(1.25 0 0 1.25 -28.75 -143.75) translate(-21.9429 0)"><text x="68px" y="299px" transform="matrix(1 0 0 1 0 0)" style="fill:rgb(0,0,0);stroke-width:1;font-family:Arial Black;font-weight:bold;font-size:12;
			">PT. 1</text>
</g>
<g id="PT.%202" transform="matrix(1.25 0 0 1.25 -28.75 -172.5) translate(20.3429 1.6) translate(-2.28571 2.74286)"><text x="264px" y="316px" transform="matrix(1 0 0 1 0 0)" style="fill:rgb(0,0,0);stroke-width:1;font-family:Arial Black;font-weight:bold;font-size:12;
			">PT. 2</text>
</g>
<line x1="118" y1="244" x2="118" y2="260" transform="matrix(1.25 0 0 1.25 -110 -120) translate(-21.9429 0)" style="fill:rgb(0,0,0);stroke:rgb(0,0,0);stroke-width:2"></line>
<line x1="117.661" y1="259.277" x2="130" y2="275" transform="matrix(1.25 0 0 1.25 -110 -120) translate(-21.9429 0)" style="fill:rgb(0,0,0);stroke:rgb(0,0,0);stroke-width:2"></line>
<line x1="382" y1="244" x2="382" y2="259" transform="matrix(1.25 0 0 1.25 -110 -120) translate(20.3429 1.6) translate(-2.28571 2.74286)" style="fill:rgb(0,0,0);stroke:rgb(0,0,0);stroke-width:2"></line>
<line x1="382.348" y1="258.277" x2="368" y2="269" transform="matrix(1.25 0 0 1.25 -110 -120) translate(20.3429 1.6) translate(-2.28571 2.74286)" style="fill:rgb(0,0,0);stroke:rgb(0,0,0);stroke-width:2"></line>
<polygon points="62,68.3038 68,78.6962 56,78.6962" transform="matrix(1.25 0 0 1.56366 -40 71.9467) translate(-21.9429 0)" style="fill:rgb(0,0,0);stroke:rgb(0,0,0);stroke-width:2"></polygon>
<polygon points="62,68.3038 68,78.6962 56,78.6962" transform="matrix(1.25 0 0 1.56366 288.75 73.1962) translate(20.3429 1.27905) translate(-2.28571 2.19265)" style="fill:rgb(0,0,0);stroke:rgb(0,0,0);stroke-width:2"></polygon>
<text x="22px" y="190px" transform="matrix(1 0 0 1 0 0)" style="fill:rgb(0,0,0);stroke:rgb(0,0,0);font-size:60;font-family:Arial">x x x x x x x x</text>
<line x1="12" y1="174" x2="389" y2="174" transform="matrix(1 0 0 1 0 0)" style="fill:none;stroke:rgb(0,0,0);stroke-width:5"></line>
</svg>

</g>
</svg>