<?xml version="1.0"?>
<!DOCTYPE svg PUBLIC "-//W3C//DTD SVG 1.1//EN" "http://www.w3.org/Graphics/SVG/1.1/DTD/svg11.dtd" >
<!-- SVG content generated using Symbology Configuration Management System (SCMS) -->
<!-- Systematic Software Engineering Ltd. - www.systematic.co.uk - do not remove  -->
<svg id="G*MPBCB---****X" width="400px" height="400px" viewBox="0 0 400 400">
<g >
<svg viewBox="0 0 400 400" id="_0.G-MPBCB-------X" width="400px" height="400px"><g transform="translate(-150 -150) scale(1.5 1.5)"><line x1="136" y1="132" x2="177.777" y2="160.353" transform="matrix(-1.83691e-016 -1 1 -1.83691e-016 -7.0122 444.091)" style="fill:rgb(0,0,0);stroke:rgb(0,0,0);stroke-width:2"></line>
<line x1="229" y1="265" x2="271.131" y2="237.597" transform="matrix(-1.83691e-016 -1 1 -1.83691e-016 69.1684 537.383)" style="fill:rgb(0,0,0);stroke:rgb(0,0,0);stroke-width:2"></line>
<line x1="176" y1="159" x2="176" y2="314" style="fill:rgb(0,0,0);stroke:rgb(0,0,0);stroke-width:2" transform="matrix(-1.83691e-016 -1 1 -1.83691e-016 -6.3872 442.716)"></line>
<line x1="136" y1="132" x2="177.777" y2="160.353" transform="matrix(1.83691e-016 1 1 -1.83691e-016 -6.4266 23.0298)" style="fill:rgb(0,0,0);stroke:rgb(0,0,0);stroke-width:2"></line>
<line x1="229" y1="265" x2="271.131" y2="237.597" transform="matrix(1.83691e-016 1 1 -1.83691e-016 69.754 -70.2612)" style="fill:rgb(0,0,0);stroke:rgb(0,0,0);stroke-width:2"></line>
<line x1="228.798" y1="174" x2="228.798" y2="329" transform="matrix(-1.83691e-016 -1 1 -1.83691e-016 -20.8016 429.203)" style="fill:rgb(0,0,0);stroke:rgb(0,0,0);stroke-width:2"></line>
<g id="PT.%201" transform="translate(60 170)"><text x="52px" y="98px" transform="matrix(1 0 0 1 0 0)" style="fill:rgb(0,0,0);stroke-width:1;font-family:Arial Black;font-weight:bold;font-size:12;     ">PT. 1</text>
</g>
<g id="PT.%202" transform="translate(125 159)"><text x="198px" y="100px" transform="matrix(1 0 0 1 0 0)" style="fill:rgb(0,0,0);stroke-width:1;font-family:Arial Black;font-weight:bold;font-size:12;     ">PT. 2</text>
</g>
<g id="PT.%203" transform="translate(-123 28)"><text x="334px" y="130px" transform="matrix(1 0 0 1 0 0)" style="fill:rgb(0,0,0);stroke-width:1;font-family:Arial Black;font-weight:bold;font-size:12;     ">PT. 3</text>
</g>
<line x1="228" y1="192" x2="228" y2="162" transform="matrix(1 0 0 1 0 0)" style="fill:rgb(0,0,0);stroke:rgb(0,0,0);stroke-width:2"></line>
<line x1="128" y1="240" x2="128" y2="256" transform="matrix(1 0 0 1 0 0)" style="fill:rgb(0,0,0);stroke:rgb(0,0,0);stroke-width:2"></line>
<line x1="338" y1="232" x2="337.5" y2="253" transform="matrix(1 0 0 1 0 0) translate(338 232) scale(-1 0.761905) translate(-338 -232)" style="fill:rgb(0,0,0);stroke:rgb(0,0,0);stroke-width:2"></line>
<polygon points="67,194.67 72,203.33 62,203.33" transform="matrix(1 0 0 -1.1547 0 427.631) translate(160 6.9282) translate(1 0)" style="fill:rgb(0,0,0);stroke:rgb(0,0,0);stroke-width:2"></polygon>
<polygon points="67,194.67 72,203.33 62,203.33" transform="matrix(1 0 0 1.1547 184 21.2146) translate(-123 -12.9904)" style="fill:rgb(0,0,0);stroke:rgb(0,0,0);stroke-width:2"></polygon>
<polygon points="67,194.67 72,203.33 62,203.33" transform="matrix(1 0 0 1.1547 184 21.2146) translate(86 -20.7846) translate(1 0)" style="fill:rgb(0,0,0);stroke:rgb(0,0,0);stroke-width:2"></polygon>
</g>
</svg>

</g>
</svg>