<?xml version="1.0"?>
<!DOCTYPE svg PUBLIC "-//W3C//DTD SVG 1.1//EN" "http://www.w3.org/Graphics/SVG/1.1/DTD/svg11.dtd" >
<!-- SVG content generated using Symbology Configuration Management System (SCMS) -->
<!-- Systematic Software Engineering Ltd. - www.systematic.co.uk - do not remove  -->
<svg id="G*GPPA----****X" width="400px" height="400px" viewBox="0 0 400 400">
<g >
<svg viewBox="0 0 400 400" id="_0.G-GPPA--------X" width="400px" height="400px"><g transform="translate(-110 -110) scale(1.25 1.25)"><path d="M112.5 169.667 C182.796 189.135 266.089 177.282 304.833 169.667" transform="matrix(1 0 0 1 2.6667 48.6667)" style="fill:none;stroke:rgb(0,0,0);stroke-width:2"></path>
<path d="M112.5 169.667 C182.796 189.135 266.089 177.282 304.833 169.667" transform="matrix(1 0 0 -1 2.6667 430.577)" style="fill:none;stroke:rgb(0,0,0);stroke-width:2"></path>
<line x1="303.644" y1="170.006" x2="302.2" y2="140.673" transform="matrix(1 0 0 1 2.6667 48)" style="fill:rgb(0,0,0);stroke:rgb(0,0,0);stroke-width:2"></line>
<line x1="303.856" y1="212.561" x2="303" y2="243" transform="matrix(1 0 0 1 2.6667 48)" style="fill:rgb(0,0,0);stroke:rgb(0,0,0);stroke-width:2"></line>
<line x1="302" y1="140" x2="353" y2="191" transform="matrix(1 0 0 1 2.6667 48)" style="fill:rgb(0,0,0);stroke:rgb(0,0,0);stroke-width:2"></line>
<line x1="353.856" y1="190.361" x2="303.189" y2="242.228" transform="matrix(1 0 0 1 2.6667 48)" style="fill:rgb(0,0,0);stroke:rgb(0,0,0);stroke-width:2"></line>
<line x1="250.778" y1="135.228" x2="258.889" y2="143.339" style="fill:rgb(0,0,0);stroke:rgb(0,0,0);stroke-width:1" transform="matrix(1 0 0 1 70 46)"></line>
<line x1="262.778" y1="147.339" x2="270.889" y2="155.45" style="fill:rgb(0,0,0);stroke:rgb(0,0,0);stroke-width:1" transform="matrix(1 0 0 1 70 46)"></line>
<line x1="275.889" y1="160.228" x2="281.889" y2="166.117" style="fill:rgb(0,0,0);stroke:rgb(0,0,0);stroke-width:1" transform="matrix(1 0 0 1 70 46)"></line>
<line x1="285.767" y1="170.139" x2="291.878" y2="176.25" style="fill:rgb(0,0,0);stroke:rgb(0,0,0);stroke-width:1" transform="matrix(1 0 0 1 70 46)"></line>
<line x1="297.767" y1="182.139" x2="304.878" y2="189.25" style="fill:rgb(0,0,0);stroke:rgb(0,0,0);stroke-width:1" transform="matrix(1 0 0 1 70 46)"></line>
<line x1="306.2" y1="190.673" x2="309.062" y2="193.45" style="fill:rgb(0,0,0);stroke:rgb(0,0,0);stroke-width:1" transform="matrix(1 0 0 1 70 46)"></line>
<line x1="308.901" y1="193.169" x2="305.644" y2="195.895" style="fill:rgb(0,0,0);stroke:rgb(0,0,0);stroke-width:1" transform="matrix(1 0 0 1 70 46)"></line>
<line x1="303.311" y1="198.339" x2="295.311" y2="206.339" style="fill:rgb(0,0,0);stroke:rgb(0,0,0);stroke-width:1" transform="matrix(1 0 0 1 70 46)"></line>
<line x1="291.2" y1="210.45" x2="283.644" y2="218.006" style="fill:rgb(0,0,0);stroke:rgb(0,0,0);stroke-width:1" transform="matrix(1 0 0 1 70 46)"></line>
<line x1="280.856" y1="220.561" x2="275.411" y2="226.006" style="fill:rgb(0,0,0);stroke:rgb(0,0,0);stroke-width:1" transform="matrix(1 0 0 1 70 46)"></line>
<line x1="271.633" y1="230.006" x2="266.078" y2="235.339" style="fill:rgb(0,0,0);stroke:rgb(0,0,0);stroke-width:1" transform="matrix(1 0 0 1 70 46)"></line>
<line x1="261.3" y1="240.117" x2="255.744" y2="245.673" style="fill:rgb(0,0,0);stroke:rgb(0,0,0);stroke-width:1" transform="matrix(1 0 0 1 70 46)"></line>
<line x1="256.99" y1="244.452" x2="249.967" y2="251.561" style="fill:rgb(0,0,0);stroke:rgb(0,0,0);stroke-width:1" transform="matrix(1 0 0 1 70 46)"></line>
<g id="T"><text x="76px" y="128px" transform="translate(53 116)" style="fill:rgb(0,0,0);font-family:Arial Black;font-weight:bold;font-size:12">GOLIATH</text>
</g>
</g>
</svg>

</g>
</svg>