<?xml version="1.0"?>
<!DOCTYPE svg PUBLIC "-//W3C//DTD SVG 1.1//EN" "http://www.w3.org/Graphics/SVG/1.1/DTD/svg11.dtd" >
<!-- SVG content generated using Symbology Configuration Management System (SCMS) -->
<!-- Systematic Software Engineering Ltd. - www.systematic.co.uk - do not remove  -->
<svg id="G*MPOAOM--****X" width="400px" height="400px" viewBox="0 0 400 400">
<g >
<svg viewBox="0 0 400 400" id="_0.G-MPOAOM------X" width="400px" height="400px"><g transform="translate(-410 -460) scale(2.5 2.5)"><line x1="216" y1="253" x2="244.718" y2="192.941" style="fill:rgb(0,0,0);stroke:rgb(0,0,0);stroke-width:2"></line>
<line x1="244.625" y1="192.129" x2="275" y2="253" style="fill:rgb(0,0,0);stroke:rgb(0,0,0);stroke-width:2"></line>
<g id="ANCHOR%20POINT" transform="translate(-15 -8) translate(1 0) translate(1 0)"><text x="110px" y="383px" transform="matrix(1 0 0 1 119 -52)" style="fill:rgb(0,0,0);stroke-width:1;font-family:Arial Black;font-weight:bold;font-size:12;      ">ANCHOR</text>
<text x="134px" y="397px" transform="matrix(1 0 0 1 101 -55)" style="fill:rgb(0,0,0);stroke-width:1;font-family:Arial Black;font-weight:bold;font-size:12;      ">POINT</text>
</g>
<line x1="248" y1="262" x2="248" y2="291" transform="matrix(1 0 0 1 -4 19)" style="fill:rgb(0,0,0);stroke:rgb(0,0,0);stroke-width:2"></line>
<polygon points="64,87.0718 72,100.928 56,100.928" transform="matrix(1 0 0 1.87639 180 100.619)" style="fill:rgb(0,0,0);stroke:rgb(0,0,0);stroke-width:2"></polygon>
</g>
</svg>

</g>
</svg>