<?xml version="1.0"?>
<!DOCTYPE svg PUBLIC "-//W3C//DTD SVG 1.1//EN" "http://www.w3.org/Graphics/SVG/1.1/DTD/svg11.dtd" >
<!-- SVG content generated using Symbology Configuration Management System (SCMS) -->
<!-- Systematic Software Engineering Ltd. - www.systematic.co.uk - do not remove  -->
<svg id="G*TPH-----****X" width="400px" height="400px" viewBox="0 0 400 400">
<g >
<svg viewBox="0 0 400 400" id="_0.G-TPH---------X" width="400px" height="400px"><g transform="translate(-160 -120) scale(1.5 1.5)"><line x1="172.086" y1="153.528" x2="171.836" y2="289.878" style="fill:none;stroke:rgb(0,0,0);stroke-width:2" transform="matrix(1 0 0 1 -42 -6)"></line>
<line x1="172" y1="289" x2="395" y2="289" style="fill:none;stroke:rgb(0,0,0);stroke-width:2" transform="matrix(1 0 0 1 -42 -6)"></line>
<line x1="171.461" y1="153.828" x2="393.588" y2="153.978" style="fill:none;stroke:rgb(0,0,0);stroke-width:2" transform="matrix(1 0 0 1 -42 -6)"></line>
<line x1="391.838" y1="142.478" x2="401.588" y2="165.478" transform="matrix(1 0 0 1 -44.5 -6)" style="fill:none;stroke:rgb(0,0,0);stroke-width:2"></line>
<line x1="390.588" y1="298.478" x2="399.088" y2="280.978" style="fill:none;stroke:rgb(0,0,0);stroke-width:2" transform="matrix(1 0 0 1 -42 -6)"></line>
<ellipse cx="172" cy="220.5" rx="4" ry="4.5" transform="matrix(1 0 0 1 -42 -1.2)" style="fill:rgb(0,0,0);stroke:rgb(0,0,0);stroke-width:1"></ellipse>
<line x1="142" y1="219" x2="186" y2="219" transform="matrix(1 0 0 1 0 0)" style="fill:rgb(0,0,0);stroke:rgb(0,0,0);stroke-width:2"></line>
<line x1="340" y1="160" x2="306" y2="178" transform="matrix(1 0 0 1 0 0)" style="fill:rgb(0,0,0);stroke:rgb(0,0,0);stroke-width:2"></line>
<polygon points="49,50.1699 54,58.8301 44,58.8301" transform="matrix(-1.83691e-016 -1 1.73205 -3.18162e-016 -44.5307 102.634) translate(-165 51.9615) translate(0 0.57735) translate(0 0.57735) translate(0 0.57735) translate(0 0.57735)" style="fill:rgb(0,0,0);stroke:rgb(0,0,0);stroke-width:2"></polygon>
<polygon points="49,50.1699 54,58.8301 44,58.8301" transform="matrix(0.553192 0.833054 -1.44289 0.958157 392.531 65.4609)" style="fill:rgb(0,0,0);stroke:rgb(0,0,0);stroke-width:2"></polygon>
<line x1="340" y1="160" x2="306" y2="178" transform="matrix(1 0 0 -1 -77 416.319) translate(78 -16)" style="fill:rgb(0,0,0);stroke:rgb(0,0,0);stroke-width:2"></line>
<polygon points="49,50.1699 54,58.8301 44,58.8301" transform="matrix(0.553192 -0.833054 -1.44289 -0.958157 315.531 350.858) translate(29.8202 -42.6254)" style="fill:rgb(0,0,0);stroke:rgb(0,0,0);stroke-width:2"></polygon>
<g id="PT.%201" transform="translate(101 -191)"><text x="168px" y="373px" transform="matrix(1 0 0 1 0 0)" style="fill:rgb(0,0,0);stroke-width:1;font-family:Arial Black;font-weight:bold;font-size:12;      ">PT. 1</text>
</g>
<g id="PT.%202" transform="translate(40 -135)"><text x="230px" y="393px" transform="matrix(1 0 0 1 0 0)" style="fill:rgb(0,0,0);stroke-width:1;font-family:Arial Black;font-weight:bold;font-size:12;      ">PT. 2</text>
</g>
<g id="PT.%203" transform="translate(-92 -150)"><text x="280px" y="374px" transform="matrix(1 0 0 1 0 0)" style="fill:rgb(0,0,0);stroke-width:1;font-family:Arial Black;font-weight:bold;font-size:12;      ">PT. 3</text>
</g>
</g>
</svg>

</g>
</svg>