<?xml version="1.0"?>
<!DOCTYPE svg PUBLIC "-//W3C//DTD SVG 1.1//EN" "http://www.w3.org/Graphics/SVG/1.1/DTD/svg11.dtd" >
<!-- SVG content generated using Symbology Configuration Management System (SCMS) -->
<!-- Systematic Software Engineering Ltd. - www.systematic.co.uk - do not remove  -->
<svg id="SUGPUUMS--*****" width="400px" height="400px" viewBox="0 0 400 400">
<g >
<svg viewBox="0 0 400 400" id="_0.SUG-U----------" width="400px" height="400px"><path d="M115 285 C115 400 285 400 285 285 C400 285 400 115 285 115 C285 0 115 0 115 115 C0     115 0 285 115 285 z" style="fill:rgb(255,255,128);stroke:rgb(0,0,0);stroke-width:10"></path>
</svg>

</g>
<g transform="translate(0 65)" >
<svg viewBox="0 0 400 400" id="_1.S-G-UUM--------" width="400px" height="400px"><text x="200" y="232" style="fill:rgb(0,0,0);text-anchor:middle;font-weight:bold;font-size:90;font-family:Arial">MI</text>
</svg>

</g>
<g >
<svg viewBox="0 0 400 400" id="_2.S-G-UUMS-------" width="400px" height="400px"><line x1="125" y1="133" x2="153" y2="107" style="fill:none;stroke:rgb(0,0,0);stroke-width:10"></line>
<line x1="147" y1="107" x2="178" y2="133" style="fill:none;stroke:rgb(0,0,0);stroke-width:10"></line>
<line x1="172" y1="133" x2="203" y2="107" style="fill:none;stroke:rgb(0,0,0);stroke-width:10"></line>
<line x1="197" y1="107" x2="228" y2="133" style="fill:none;stroke:rgb(0,0,0);stroke-width:10"></line>
<line x1="222" y1="133" x2="253" y2="107" style="fill:none;stroke:rgb(0,0,0);stroke-width:10"></line>
<line x1="247" y1="107" x2="275" y2="133" style="fill:none;stroke:rgb(0,0,0);stroke-width:10"></line>
<line x1="200" y1="110" x2="200" y2="220" style="fill:none;stroke:rgb(0,0,0);stroke-width:10"></line>
</svg>

</g>
</svg>