<?xml version="1.0"?>
<!DOCTYPE svg PUBLIC "-//W3C//DTD SVG 1.1//EN" "http://www.w3.org/Graphics/SVG/1.1/DTD/svg11.dtd" >
<!-- SVG content generated using Symbology Configuration Management System (SCMS) -->
<!-- Systematic Software Engineering Ltd. - www.systematic.co.uk - do not remove  -->
<svg id="SFAPMHQ---*****" width="400px" height="400px" viewBox="0 0 400 400">
<g >
<svg viewBox="0 0 400 400" id="_0.S-A-MH---------" width="400px" height="400px"><polyline points="200,200 110,150 110,250 200,200 290,150 290,250 200,200" style="fill:rgb(0,0,0)"></polyline>
</svg>

</g>
<g >
<svg viewBox="0 0 400 400" id="_1.SFA------------" width="400px" height="400px"><path d="M332 320 C332 -61 68 -61 68 320" style="fill:rgb(128,224,255);stroke:rgb(0,0,0);stroke-width:10"></path>
</svg>

</g>
<g >
<svg viewBox="0 0 400 400" id="_2.S-A-MH---------" width="400px" height="400px"><polyline points="200,200 110,150 110,250 200,200 290,150 290,250 200,200" style="fill:rgb(0,0,0)"></polyline>
</svg>

</g>
<g transform="translate(60 15) scale(0.7 0.6)" >
<svg viewBox="0 0 400 400" id="_3.S-A-MFQ--------" width="400px" height="400px"><polyline points="100,160 100,200 200,260 300,200 300,160 200,220" style="fill:rgb(0,0,0)"></polyline>
</svg>

</g>
</svg>