<?xml version="1.0"?>
<!DOCTYPE svg PUBLIC "-//W3C//DTD SVG 1.1//EN" "http://www.w3.org/Graphics/SVG/1.1/DTD/svg11.dtd" >
<!-- SVG content generated using Symbology Configuration Management System (SCMS) -->
<!-- Systematic Software Engineering Ltd. - www.systematic.co.uk - do not remove  -->
<svg id="G*GPGAS---****X" width="400px" height="400px" viewBox="0 0 400 400">
<g >
<svg viewBox="0 0 400 400" id="_0.G-GPGAS-------X" width="400px" height="400px"><line x1="50" y1="99" x2="468" y2="99" transform="matrix(0.9 0 0 0.9 -31.4 -17.8) translate(-1.48148 50.3704)" style="fill:rgb(0,0,0);stroke:rgb(0,0,0);stroke-width:2"></line>
<line x1="50" y1="99" x2="468" y2="99" transform="matrix(0.9 0 0 0.9 -35 236) translate(0 -54.8148)" style="fill:rgb(0,0,0);stroke:rgb(0,0,0);stroke-width:2"></line>
<g id="A" transform="matrix(0.9 0 0 0.9 -35 -25) translate(-22.2222 0)"><rect x="80" y="230" width="84" height="31" transform="matrix(1 0 0 0.963134 0 9.62203)" style="fill:rgb(255,255,255);stroke:rgb(0,0,0);stroke-width:2"></rect>
<line x1="80.7976" y1="260.033" x2="163.91" y2="231.867" style="fill:rgb(0,0,0);stroke:rgb(0,0,0);stroke-width:2"></line>
<text x="114px" y="212px" transform="matrix(1 0 0 1 -1 14)" style="fill:rgb(0,0,0);font-size:18;font-family:Arial Black;font-weight:bold">II</text>
</g>
<rect x="74" y="316" width="42" height="22" transform="matrix(0.9 0 0 0.9 263.8 29.9) translate(0 -54.8148)" style="fill:rgb(255,255,255);stroke:none;stroke-width:2"></rect>
<text x="82px" y="334px" transform="matrix(0.9 0 0 0.9 263.8 29.9) translate(0 -54.8148)" style="fill:rgb(0,0,0);font-size:18;font-family:Arial Black;font-weight:bold">XX</text>
<g transform="matrix(0.9 0 0 0.9 74.8 -154.6) translate(-1.48148 50.3704)"><rect x="229" y="239" width="42" height="22" style="fill:rgb(255,255,255);stroke:none;stroke-width:2"></rect>
<text x="237px" y="257px" style="fill:rgb(0,0,0);font-size:18;font-family:Arial Black;font-weight:bold">XX</text>
</g>
<line x1="248.393" y1="261.255" x2="203.825" y2="292.216" transform="matrix(1.25 0 0 1.25 -115.5 -203.5) translate(8 -3.2) translate(-29.0909 20.0727) translate(-16 0)" style="fill:rgb(0,0,0);stroke:rgb(0,0,0);stroke-width:2;stroke-linejoin:miter"></line>
<line x1="158" y1="118" x2="158" y2="158" transform="matrix(1 0 0 1 37 4) translate(10 -4) translate(-36.3636 25.0909) translate(-20 0)" style="fill:none;stroke:rgb(0,0,0);stroke-width:2"></line>
<line x1="317.026" y1="193.907" x2="245.993" y2="238.955" transform="matrix(1.25 0 0 1.25 -112.5 -137.5) translate(8 -3.2) translate(-29.0909 20.0727) translate(-16 0)" style="fill:rgb(0,0,0);stroke:rgb(0,0,0);stroke-width:2;stroke-linejoin:miter"></line>
<polygon points="342.494,100.612 349.077,111.533 336.869,109.982" transform="matrix(1.28872 3.15637e-016 3.06151e-016 -1.25 -153.922 236.79) translate(7.75964 3.2) translate(-28.2169 -20.0727) translate(-15.5193 0)" style="fill:rgb(0,0,0);stroke:rgb(0,0,0);stroke-width:1;stroke-linejoin:miter"></polygon>
<line x1="223.682" y1="113.75" x2="179.116" y2="82.4703" transform="matrix(1.25 0 0 1.25 -84.25 136.5) translate(8 -3.2) translate(-29.76 -20.48) translate(-16 0)" style="fill:rgb(0,0,0);stroke:rgb(0,0,0);stroke-width:2;stroke-linejoin:miter"></line>
<line x1="157.951" y1="274.478" x2="158" y2="234" transform="matrix(1 0 0 1 37 4) translate(10 -4) translate(-37.2 -25.6) translate(-20 0)" style="fill:none;stroke:rgb(0,0,0);stroke-width:2"></line>
<line x1="293.637" y1="179.499" x2="222.694" y2="134.782" transform="matrix(1.25 0 0 1.25 -83.25 70.5) translate(8 -3.2) translate(-29.76 -20.48) translate(-16 0)" style="fill:rgb(0,0,0);stroke:rgb(0,0,0);stroke-width:2;stroke-linejoin:miter"></line>
<polygon points="343.468,98.76 352.042,111.12 336.95,108.8" transform="matrix(1.28872 -3.15637e-016 3.06151e-016 1.25 -155.922 164.25) translate(7.75964 -3.2) translate(-28.8659 -20.48) translate(-15.5193 0)" style="fill:rgb(0,0,0);stroke:rgb(0,0,0);stroke-width:1;stroke-linejoin:miter"></polygon>
</svg>

</g>
</svg>