<?xml version="1.0"?>
<!DOCTYPE svg PUBLIC "-//W3C//DTD SVG 1.1//EN" "http://www.w3.org/Graphics/SVG/1.1/DTD/svg11.dtd" >
<!-- SVG content generated using Symbology Configuration Management System (SCMS) -->
<!-- Systematic Software Engineering Ltd. - www.systematic.co.uk - do not remove  -->
<svg id="SUGPEVEE--*****" width="400px" height="400px" viewBox="0 0 400 400">
<g >
<svg viewBox="0 0 400 400" id="_0.SUG-E----------" width="400px" height="400px"><path d="M115 285 C115 400 285 400 285 285 C400 285 400 115 285 115 C285 0 115 0 115 115 C0     115 0 285 115 285 z" style="fill:rgb(255,255,128);stroke:rgb(0,0,0);stroke-width:10"></path>
</svg>

</g>
<g >
<svg viewBox="0 0 400 400" id="_1.S-G-EVEE-------" width="400px" height="400px"><polyline points="137,120 155,107 245,107 263,120" style="fill:none;stroke:rgb(0,0,0);stroke-width:10"></polyline>
<line x1="200" y1="107" x2="200" y2="160" style="fill:none;stroke:rgb(0,0,0);stroke-width:10"></line>
<line x1="140" y1="135" x2="140" y2="290" style="fill:none;stroke:rgb(0,0,0);stroke-width:10"></line>
<line x1="260" y1="135" x2="260" y2="290" style="fill:none;stroke:rgb(0,0,0);stroke-width:10"></line>
<line x1="140" y1="160" x2="260" y2="160" style="fill:none;stroke:rgb(0,0,0);stroke-width:10"></line>
<line x1="140" y1="265" x2="260" y2="265" style="fill:none;stroke:rgb(0,0,0);stroke-width:10"></line>
</svg>

</g>
</svg>