<?xml version="1.0"?>
<!DOCTYPE svg PUBLIC "-//W3C//DTD SVG 1.1//EN" "http://www.w3.org/Graphics/SVG/1.1/DTD/svg11.dtd" >
<!-- SVG content generated using Symbology Configuration Management System (SCMS) -->
<!-- Systematic Software Engineering Ltd. - www.systematic.co.uk - do not remove  -->
<svg id="G*MPOAOP--****X" width="400px" height="400px" viewBox="0 0 400 400">
<g >
<svg viewBox="0 0 400 400" id="_0.G-MPOAOP------X" width="400px" height="400px"><g transform="translate(-530 -560) scale(3 3)"><polygon points="215,146.885 244,197.115 186,197.115" transform="matrix(1 0 0 1.1547 30 24.3915)" style="fill:rgb(255,255,255);stroke:rgb(0,0,0);stroke-width:2"></polygon>
<line x1="244" y1="265" x2="244" y2="291" transform="matrix(1 0 0 1 0 0)" style="fill:rgb(0,0,0);stroke:rgb(0,0,0);stroke-width:2"></line>
<polygon points="53,51.2058 62,66.7942 44,66.7942" transform="matrix(1 0 0 1.283 0 -16.697) translate(193 159.782) translate(-1 0) translate(-1 0)" style="fill:rgb(0,0,0);stroke:rgb(0,0,0);stroke-width:2"></polygon>
<g id="ANCHOR%20POINT" transform="translate(105 -79)"><text x="110px" y="383px" transform="matrix(1 0 0 1 0 0)" style="fill:rgb(0,0,0);stroke-width:1;font-family:Arial Black;font-weight:bold;font-size:12;      ">ANCHOR</text>
<text x="134px" y="397px" transform="matrix(1 0 0 1 0 0) translate(-19 -3) translate(1 0)" style="fill:rgb(0,0,0);stroke-width:1;font-family:Arial Black;font-weight:bold;font-size:12;      ">POINT</text>
</g>
</g>
</svg>

</g>
</svg>