<?xml version="1.0"?>
<!DOCTYPE svg PUBLIC "-//W3C//DTD SVG 1.1//EN" "http://www.w3.org/Graphics/SVG/1.1/DTD/svg11.dtd" >
<!-- SVG content generated using Symbology Configuration Management System (SCMS) -->
<!-- Systematic Software Engineering Ltd. - www.systematic.co.uk - do not remove  -->
<svg id="SUGPEVATLR*****" width="400px" height="400px" viewBox="0 0 400 400">
<g >
<svg viewBox="0 0 400 400" id="_0.SUG-E----------" width="400px" height="400px"><path d="M115 285 C115 400 285 400 285 285 C400 285 400 115 285 115 C285 0 115 0 115 115 C0     115 0 285 115 285 z" style="fill:rgb(255,255,128);stroke:rgb(0,0,0);stroke-width:10"></path>
</svg>

</g>
<g >
<svg viewBox="0 0 400 400" id="_1.S-G-EVAT-------" width="400px" height="400px"><line x1="130" y1="130" x2="130" y2="270" style="fill:none;stroke:rgb(0,0,0);stroke-width:10"></line>
<line x1="270" y1="130" x2="270" y2="270" style="fill:none;stroke:rgb(0,0,0);stroke-width:10"></line>
<line x1="130" y1="150" x2="270" y2="150" style="fill:none;stroke:rgb(0,0,0);stroke-width:10"></line>
<line x1="130" y1="250" x2="270" y2="250" style="fill:none;stroke:rgb(0,0,0);stroke-width:10"></line>
</svg>

</g>
<g >
<svg viewBox="0 0 400 400" id="_2.S-G-EVATL------" width="400px" height="400px"><line x1="200" y1="150" x2="200" y2="250" style="fill:none;stroke:rgb(0,0,0);stroke-width:10"></line>
</svg>

</g>
<g transform="translate(-40 -83) scale(1.2 1)" >
<svg viewBox="0 0 400 400" id="_3.S-G-UCATR------" width="400px" height="400px"><line x1="170" y1="283" x2="230" y2="283" style="stroke:rgb(0,0,0);fill:none;stroke-width:10"></line>
<path d="M155 270 C170 270 170 296 155 296" style="fill:none;stroke:rgb(0,0,0);stroke-width:10"></path>
<path d="M245 270 C230 270 230 296 245 296" style="fill:none;stroke:rgb(0,0,0);stroke-width:10"></path>
</svg>

</g>
</svg>