<?xml version="1.0"?>
<!DOCTYPE svg PUBLIC "-//W3C//DTD SVG 1.1//EN" "http://www.w3.org/Graphics/SVG/1.1/DTD/svg11.dtd" >
<!-- SVG content generated using Symbology Configuration Management System (SCMS) -->
<!-- Systematic Software Engineering Ltd. - www.systematic.co.uk - do not remove  -->
<svg id="G*SPAD----****X" width="400px" height="400px" viewBox="0 0 400 400">
<g >
<svg viewBox="0 0 400 400" id="_0.G-SPAD--------X" width="400px" height="400px"><path d="M271 102 C381.558 93 423 34.8618 407 195.5 C391 356.138 345.558 289 271 289 C196.442
			289 164 292.138 136 195.5 C108 98.862 160.442 111 271 102 z" style="fill:rgb(255,255,255);stroke:rgb(0,0,0);stroke-width:2" transform="matrix(1 0 0 1 -69.4346 6.36928)"></path>
<text x="171px" y="155px" transform="matrix(1 0 0 1 -31.3341 0)" style="fill:rgb(0,0,0);font-size:24;font-family:Arial;font-weight:bold">DETAINEE</text>
<text x="177px" y="185px" transform="matrix(1 0 0 1 -31.8634 0)" style="fill:rgb(0,0,0);font-size:24;font-family:Arial;font-weight:bold">HOLDING</text>
<text x="194px" y="215px" transform="matrix(1 0 0 1 -26.676 0)" style="fill:rgb(0,0,0);font-size:24;font-family:Arial;font-weight:bold">AREA</text>
</svg>

</g>
<g transform="translate(0 40)" >
<svg viewBox="0 0 400 400" id="_1.T1ES-----------" width="400px" height="400px"><text x="188px" y="175px" transform="matrix(1 0 0 1 6.336 33.64)" style="fill:rgb(0,0,0);font-size:24;font-family:Arial;font-weight:bold">1</text>
</svg>

</g>
</svg>