<?xml version="1.0"?>
<!DOCTYPE svg PUBLIC "-//W3C//DTD SVG 1.1//EN" "http://www.w3.org/Graphics/SVG/1.1/DTD/svg11.dtd" >
<!-- SVG content generated using Symbology Configuration Management System (SCMS) -->
<!-- Systematic Software Engineering Ltd. - www.systematic.co.uk - do not remove  -->
<svg id="SUGPUSSWC-*****" width="400px" height="400px" viewBox="0 0 400 400">
<g >
<svg viewBox="0 0 400 400" id="_0.SUG-U----------" width="400px" height="400px"><path d="M115 285 C115 400 285 400 285 285 C400 285 400 115 285 115 C285 0 115 0 115 115 C0     115 0 285 115 285 z" style="fill:rgb(255,255,128);stroke:rgb(0,0,0);stroke-width:10"></path>
</svg>

</g>
<g >
<svg viewBox="0 0 400 400" id="_1.SUG-USSC-------" width="400px" height="400px"><line x1="40" y1="245" x2="340" y2="245" style="fill:none;stroke:rgb(0,0,0);stroke-width:10"></line>
<polyline points="350,140 310,200 350,260" style="fill:none;stroke:rgb(0,0,0);stroke-width:10"></polyline>
</svg>

</g>
<g >
<svg viewBox="0 0 400 400" id="_2.S-G-USSW-------" width="400px" height="400px"><line x1="185" y1="130" x2="235" y2="130" style="fill:none;stroke:rgb(0,0,0);stroke-width:10"></line>
<line x1="210" y1="155" x2="210" y2="130" style="fill:none;stroke:rgb(0,0,0);stroke-width:10"></line>
<path d="M110 155 L230 155 C270 155 278 200 280 230" style="fill:none;stroke:rgb(0,0,0);stroke-width:10"></path>
</svg>

</g>
</svg>