<?xml version="1.0"?>
<!DOCTYPE svg PUBLIC "-//W3C//DTD SVG 1.1//EN" "http://www.w3.org/Graphics/SVG/1.1/DTD/svg11.dtd" >
<!-- SVG content generated using Symbology Configuration Management System (SCMS) -->
<!-- Systematic Software Engineering Ltd. - www.systematic.co.uk - do not remove  -->
<svg id="G*OPB-----****X" width="400px" height="400px" viewBox="0 0 400 400">
<g >
<svg viewBox="0 0 400 400" id="_0.G-OPB---------X" width="400px" height="400px"><g transform="translate(-105 -150) scale(1.5 1.5)"><line x1="86" y1="293" x2="186" y2="234" style="fill:rgb(0,0,0);stroke:rgb(0,0,0);stroke-width:2"></line>
<line x1="216" y1="218" x2="306" y2="162" transform="translate(0 -1)" style="fill:rgb(0,0,0);stroke:rgb(0,0,0);stroke-width:2"></line>
<text x="196px" y="226px" transform="translate(-2 2) translate(200.86 226) scale(1 1.69832) translate(-200.86 -226) translate(196.888 221.704) scale(2.00705 1) translate(-196.888 -221.704) translate(-1.99298 3.53289) translate(0 -0.588816) translate(0.498244 0)" style="fill:rgb(0,0,0);stroke-width:1;font-size:12;font-family:Arial Black;font-weight:bold;     ">B</text>
<line x1="90" y1="296" x2="117" y2="296" transform="translate(15 14) translate(103.5 296) scale(1 1) translate(-103.5 -296) translate(0 -1) translate(0 -1) translate(0 -1) translate(0 -1) translate(0 -1) translate(0 -1) translate(0 -1) translate(0 -1) translate(0 -1) translate(0 -1) translate(0 -1) translate(0 -1) translate(-1 0) translate(-1 0) translate(-1 0) translate(-1 0) translate(103.5 296) scale(1 1) translate(-103.5 -296) translate(0 -1) translate(0 -1) translate(0 1)" style="fill:rgb(0,0,0);stroke:rgb(0,0,0);stroke-width:2"></line>
<line x1="310" y1="165" x2="310" y2="182" transform="translate(0 1) translate(0 1) translate(0 1) translate(0 1) translate(0 1) translate(0 1) translate(0 1) translate(0 1) translate(0 1) translate(0 1) translate(0 1) translate(0 1) translate(0 1) translate(0 1) translate(0 1) translate(0 1) translate(0 1) translate(0 1) translate(0 1) translate(0 1) translate(0 1) translate(0 1) translate(0 1) translate(0 1) translate(-1 0) translate(-1 0) translate(-1 0) translate(-1 0) translate(0 -1) translate(0 -1) translate(0 -1) translate(0 -1) translate(0 -1) translate(0 -1) translate(0 -1) translate(0 -1)" style="fill:rgb(0,0,0);stroke:rgb(0,0,0);stroke-width:2"></line>
<polygon points="309,158.536 313,165.464 305,165.464" transform="matrix(1 0 0 1.44338 0 -71.8269) translate(0 0.69282) translate(0 0.69282) translate(0 0.69282) translate(0 0.69282) translate(0 0.69282) translate(0 0.69282) translate(0 0.69282) translate(0 0.69282) translate(0 0.69282) translate(0 0.69282) translate(0 0.69282) translate(0 0.69282) translate(0 0.69282) translate(-1 0) translate(-1 0) translate(-1 0)" style="fill:rgb(0,0,0);stroke:rgb(0,0,0);stroke-width:2"></polygon>
<polygon points="309,158.536 313,165.464 305,165.464" transform="matrix(1.83691e-016 1 1.44338 -2.65136e-016 -51.1059 -58.721) translate(45 -64.4321) translate(1 4.15691)" style="fill:rgb(0,0,0);stroke:rgb(0,0,0);stroke-width:2"></polygon>
<g id="PT.%201"><text x="146px" y="317px" transform="translate(-16 -16)" style="fill:rgb(0,0,0);stroke-width:1;font-family:Arial Black;font-weight:bold;font-size:12;      ">PT. 1</text>
</g>
<g id="PT.%202"><text x="300px" y="213px" transform="translate(-11 -2)" style="fill:rgb(0,0,0);stroke-width:1;font-family:Arial Black;font-weight:bold;font-size:12;      ">PT. 2</text>
</g>
</g>
</svg>

</g>
</svg>