<?xml version="1.0"?>
<!DOCTYPE svg PUBLIC "-//W3C//DTD SVG 1.1//EN" "http://www.w3.org/Graphics/SVG/1.1/DTD/svg11.dtd" >
<!-- SVG content generated using Symbology Configuration Management System (SCMS) -->
<!-- Systematic Software Engineering Ltd. - www.systematic.co.uk - do not remove  -->
<svg id="G*MPNL----****X" width="400px" height="400px" viewBox="0 0 400 400">
<g >
<svg viewBox="0 0 400 400" id="_0.G-MPNL--------X" width="400px" height="400px"><g transform="translate(-115 -100) scale(1.25 1.25)"><path d="M104.417 230.167 C104.309 217.819 120.171 203.946 131 195 C163.363 168.266 340.623     130.361 376 159 C408.169 185.042 396.952 261.852 385 296 C344.599 411.431     102.439 308.412 104.439 230.091" style="fill:none;stroke:rgb(0,0,0);stroke-width:2"></path>
<path d="M104.417 232.167 C104.309 219.819 120.171 205.946 131 197 C163.363 170.266 340.623     132.361 376 161 C408.169 187.042 396.952 263.852 385 298 C344.599 413.431     102.439 310.412 104.439 232.091" style="fill:none;stroke:rgb(0,0,0);stroke-width:2" transform="translate(10 -119) translate(250.731 349.638) scale(1 0.899424) translate(-250.731 -349.638) translate(104.417 250.211) scale(0.917985 1) translate(-104.417 -250.211) translate(5.44671 117.853) translate(104.417 250.211) scale(0.955329 1) translate(-104.417 -250.211) translate(250.731 349.638) scale(1 0.977635) translate(-250.731 -349.638) translate(6.84168 -2.27451) translate(104.417 250.211) scale(0.925963 1) translate(-104.417 -250.211) translate(250.731 349.638) scale(1 0.925652) translate(-250.731 -349.638) translate(18.4718 -8.6002) translate(-2.46291 -1.2286)"></path>
<path d="M104.417 232.167 C104.309 219.819 120.171 205.946 131 197 C163.363 170.266 340.623     132.361 376 161 C408.169 187.042 396.952 263.852 385 298 C344.599 413.431     102.439 310.412 104.439 232.091" style="fill:none;stroke:rgb(0,0,0);stroke-width:2" transform="translate(12 -155) translate(250.731 349.638) scale(1 0.844107) translate(-250.731 -349.638) translate(104.417 250.211) scale(0.897481 1) translate(-104.417 -250.211) translate(4.45692 -13.0315) translate(250.731 349.638) scale(1 0.898722) translate(-250.731 -349.638) translate(104.417 250.211) scale(0.93527 1) translate(-104.417 -250.211) translate(11.9135 181.91) translate(104.417 250.211) scale(0.943003 1) translate(-104.417 -250.211) translate(11.3702 -1.31819) translate(104.417 250.211) scale(0.930924 1) translate(-104.417 -250.211) translate(250.731 349.638) scale(1 0.927082) translate(-250.731 -349.638) translate(104.417 250.211) scale(0.916523 1) translate(-104.417 -250.211) translate(250.731 349.638) scale(1 0.921347) translate(-250.731 -349.638) translate(28.1333 -13.8892)"></path>
<g id="T1" transform="translate(-103 -10) translate(159 112) rotate(352.624 188 52.5) translate(-50.777 10.5687) rotate(354.426 188 52.5) translate(0.224098 -0.974567) translate(0.224098 -0.974567) translate(0.224098 -0.974567) translate(0.224098 -0.974567)"><rect x="213" y="242" width="74" height="17" transform="translate(-62 -198)" style="fill:rgb(255,255,255);stroke:none;stroke-width:2"></rect>
<text x="164px" y="58px" style="fill:rgb(0,0,0);font-family:Arial Black;font-weight:bold;font-size:12">20 cGY</text>
</g>
<g id="T2" transform="translate(7 -32) translate(131 72) translate(-76 65) rotate(351.489 187 75.5) rotate(358.144 187 75.5) translate(0.179944 -0.983677) translate(0.179944 -0.983677) translate(0.179944 -0.983677) translate(0.179944 -0.983677) translate(0.179944 -0.983677) translate(0.179944 -0.983677) translate(0.179944 -0.983677)"><rect x="213" y="242" width="74" height="17" transform="translate(-63 -175)" style="fill:rgb(255,255,255);stroke:none;stroke-width:2"></rect>
<text x="158px" y="80px" style="fill:rgb(0,0,0);font-family:Arial Black;font-weight:bold;font-size:12">100 cGY</text>
</g>
<g id="T3" transform="rotate(346.445 181 100.5) translate(106.457 113.102) rotate(10.6662 181 100.5)"><rect x="144" y="92" width="74" height="17" style="fill:rgb(255,255,255);stroke:none;stroke-width:2"></rect>
<text x="156px" y="104px" style="fill:rgb(0,0,0);font-family:Arial Black;font-weight:bold;font-size:12">300 cGY</text>
</g>
</g>
</svg>

</g>
</svg>