<?xml version="1.0"?>
<!DOCTYPE svg PUBLIC "-//W3C//DTD SVG 1.1//EN" "http://www.w3.org/Graphics/SVG/1.1/DTD/svg11.dtd" >
<!-- SVG content generated using Symbology Configuration Management System (SCMS) -->
<!-- Systematic Software Engineering Ltd. - www.systematic.co.uk - do not remove  -->
<svg id="G*GPPD----****X" width="400px" height="400px" viewBox="0 0 400 400">
<g >
<svg viewBox="0 0 400 400" id="_0.G-GPPD--------X" width="400px" height="400px"><g transform="translate(-275 -290) scale(2 2)"><line x1="118" y1="219" x2="128.615" y2="211.196" style="fill:rgb(0,0,0);stroke:rgb(0,0,0);stroke-width:2" transform="matrix(1 0 0 1 37 37)"></line>
<line x1="131.295" y1="209.196" x2="147.562" y2="197.263" style="fill:rgb(0,0,0);stroke:rgb(0,0,0);stroke-width:2" transform="matrix(1 0 0 1 37 37)"></line>
<line x1="153.835" y1="192.756" x2="168.302" y2="182.156" style="fill:rgb(0,0,0);stroke:rgb(0,0,0);stroke-width:2" transform="matrix(1 0 0 1 37 37)"></line>
<line x1="176.695" y1="175.89" x2="191.428" y2="165.156" style="fill:rgb(0,0,0);stroke:rgb(0,0,0);stroke-width:2" transform="matrix(1 0 0 1 37 37)"></line>
<line x1="198.695" y1="159.73" x2="207.295" y2="153.463" style="fill:rgb(0,0,0);stroke:rgb(0,0,0);stroke-width:2" transform="matrix(1 0 0 1 37 37)"></line>
<line x1="209" y1="154" x2="217.562" y2="161.93" style="fill:rgb(0,0,0);stroke:rgb(0,0,0);stroke-width:2" transform="matrix(1 0 0 1 37 37)"></line>
<line x1="222.462" y1="166.37" x2="237.062" y2="179.836" style="fill:rgb(0,0,0);stroke:rgb(0,0,0);stroke-width:2" transform="matrix(1 0 0 1 37 37)"></line>
<line x1="242.895" y1="185.236" x2="256.028" y2="197.303" style="fill:rgb(0,0,0);stroke:rgb(0,0,0);stroke-width:2" transform="matrix(1 0 0 1 37 37)"></line>
<line x1="262" y1="203" x2="270.995" y2="211.25" style="fill:rgb(0,0,0);stroke:rgb(0,0,0);stroke-width:2" transform="matrix(1 0 0 1 37 37)"></line>
<line x1="274.462" y1="214.383" x2="284.395" y2="223.583" style="fill:rgb(0,0,0);stroke:rgb(0,0,0);stroke-width:2" transform="matrix(1 0 0 1 37 37)"></line>
<g id="PT.%201"><text x="100px" y="94px" transform="matrix(1 0 0 1 128 139)" style="fill:rgb(0,0,0);stroke-width:1;font-family:Arial Black;font-weight:bold;font-size:12;     ">PT. 1</text>
</g>
<line x1="244" y1="220" x2="244" y2="203" transform="matrix(1 0 0 1 0 0) translate(0.666667 -0.222222)" style="fill:rgb(0,0,0);stroke:rgb(0,0,0);stroke-width:2"></line>
<line x1="176" y1="283" x2="157.599" y2="283.043" transform="matrix(1 0 0 1 0 0) translate(168 283) scale(1 1) translate(-168 -283) translate(-3.55556 -0.222222)" style="fill:rgb(0,0,0);stroke:rgb(0,0,0);stroke-width:2"></line>
<line x1="157.821" y1="283.043" x2="158" y2="266" transform="matrix(1 0 0 1 0 0) translate(-2.88889 0.444444)" style="fill:rgb(0,0,0);stroke:rgb(0,0,0);stroke-width:2"></line>
<line x1="294" y1="285" x2="320.332" y2="285.043" transform="matrix(1 0 0 1 0 0) translate(2.66667 1.55556)" style="fill:rgb(0,0,0);stroke:rgb(0,0,0);stroke-width:2"></line>
<line x1="320.11" y1="283.487" x2="320" y2="271" transform="matrix(1 0 0 1 0 0) translate(1.77778 2.22222)" style="fill:rgb(0,0,0);stroke:rgb(0,0,0);stroke-width:2"></line>
<polygon points="96,70.7679 98,74.2321 94,74.2321" transform="matrix(1 0 0 2.02073 59.1429 115.283)" style="fill:rgb(0,0,0);stroke:rgb(0,0,0);stroke-width:2"></polygon>
<polygon points="96,70.7679 98,74.2321 94,74.2321" transform="matrix(1.5 0 0 2.02073 100.444 52.7748)" style="fill:rgb(0,0,0);stroke:rgb(0,0,0);stroke-width:2"></polygon>
<polygon points="96,70.7679 98,74.2321 94,74.2321" transform="matrix(1 0 0 2.02073 225.667 122.553)" style="fill:rgb(0,0,0);stroke:rgb(0,0,0);stroke-width:2"></polygon>
<g id="PT.%202"><text x="262px" y="103px" transform="matrix(1 0 0 1 -83 187)" style="fill:rgb(0,0,0);stroke-width:1;font-family:Arial Black;font-weight:bold;font-size:12;     ">PT. 2</text>
</g>
<g id="PT.%203"><text x="156px" y="148px" transform="matrix(1 0 0 1 100 142)" style="fill:rgb(0,0,0);stroke-width:1;font-family:Arial Black;font-weight:bold;font-size:12;     ">PT. 3</text>
</g>
</g>
</svg>

</g>
</svg>