<?xml version="1.0"?>
<!DOCTYPE svg PUBLIC "-//W3C//DTD SVG 1.1//EN" "http://www.w3.org/Graphics/SVG/1.1/DTD/svg11.dtd" >
<!-- SVG content generated using Symbology Configuration Management System (SCMS) -->
<!-- Systematic Software Engineering Ltd. - www.systematic.co.uk - do not remove  -->
<svg id="G*GPOLT---****X" width="400px" height="400px" viewBox="0 0 400 400">
<g >
<svg viewBox="0 0 400 400" id="_0.G-GPOLT-------X" width="400px" height="400px"><g transform="translate(-10 0) scale(0.8 0.8)"><path d="M139.5 142 C186.536 138.382 229.237 147.203 275.5 145 C307.373 143.482 309.575 139.392      343.5 136" transform="matrix(1 0 0 1 19 -3)" style="fill:none;stroke:rgb(0,0,0);stroke-width:2"></path>
<path d="M379.5 91 C379.5 122.4 371.119 159.336 375.5 190 C378.799 213.092 387.637 234.116      386.5 258 C384.458 300.874 375.108 338.076 379.5 382" transform="matrix(1 0 0 1 -17 16)" style="fill:none;stroke:rgb(0,0,0);stroke-width:2"></path>
<path d="M129.5 95 C129.5 127.928 132.599 161.212 128.5 194 C126.328 211.378 120.5 229.388      120.5 247 C120.5 296.157 129.314 344.928 119.5 394" transform="matrix(1 0 0 1 27 4)" style="fill:none;stroke:rgb(0,0,0);stroke-width:2"></path>
<text x="208px" y="353px" transform="matrix(1 0 0 1 -139 -224)" style="fill:rgb(0,0,0);font-family:Arial Black;font-weight:bold;font-size:18">LD</text>
<text x="170px" y="417px" transform="matrix(-1.83691e-016 -1 1 -1.83691e-016 -285.1 513.594)" style="fill:rgb(0,0,0);font-family:Arial Black;font-weight:bold;font-size:18">21 ID (L)</text>
<text x="208px" y="448px" transform="matrix(-1.83691e-016 -1 1 -1.83691e-016 -108.544 554.15)" style="fill:rgb(0,0,0);font-family:Arial Black;font-weight:bold;font-size:18">54 ID (M)</text>
<text x="206px" y="466px" transform="matrix(-1.83691e-016 -1 1 -1.83691e-016 -65.961 592.733)" style="fill:rgb(0,0,0);font-family:Arial Black;font-weight:bold;font-size:18">65 ID (M)(SA)</text>
<g transform="matrix(1 0 0 1 88 -36)"><rect x="52" y="329" width="22" height="38" style="fill:rgb(255,255,255);stroke:none;stroke-width:2"></rect>
<text x="48px" y="354px" transform="matrix(-1.83691e-016 -1 1 -1.83691e-016 -285.516 409.596)" style="fill:rgb(0,0,0);font-family:Arial Black;font-weight:bold;font-size:18">XX</text>
</g>
<text x="208px" y="353px" transform="matrix(1 0 0 1 212 -232)" style="fill:rgb(0,0,0);font-family:Arial Black;font-weight:bold;font-size:18">LD</text>
<text x="208px" y="448px" transform="matrix(-1.83691e-016 -1 1 -1.83691e-016 -264.544 553.15)" style="fill:rgb(0,0,0);font-family:Arial Black;font-weight:bold;font-size:18">54 ID (M)</text>
<g transform="matrix(1 0 0 1 117 61)"><rect x="239" y="231" width="22" height="38" style="fill:rgb(255,255,255);stroke:none;stroke-width:2"></rect>
<text x="48px" y="354px" transform="matrix(-1.83691e-016 -1 1 -1.83691e-016 -98.516 311.596)" style="fill:rgb(0,0,0);font-family:Arial Black;font-weight:bold;font-size:18">XX</text>
</g>
<text x="36px" y="53px" transform="matrix(1 0 0 1 0 0) translate(-15.1163 93.0233) translate(0 1) translate(0 1)" style="fill:rgb(0,0,0);stroke-width:1;font-family:Arial Black;font-weight:bold;font-size:18;     ">(PL</text>
<g id="T1"><text x="45px" y="74px" transform="matrix(1 0 0 1 0 0) translate(10.4651 74.4186)" style="fill:rgb(0,0,0);stroke-width:1;font-family:Arial Black;font-weight:bold;font-size:18;      ">CHARLIE)</text>
</g>
<text x="202px" y="55px" transform="matrix(1 0 0 1 0 0) translate(166.279 84.8837) translate(-1 0)" style="fill:rgb(0,0,0);stroke-width:1;font-family:Arial Black;font-weight:bold;font-size:18;     ">(PL</text>
<g id="T2"><text x="210px" y="73px" transform="matrix(1 0 0 1 0 0) translate(194.186 63.9535) translate(0 1) translate(0 1) translate(0 1) translate(-1 0)" style="fill:rgb(0,0,0);stroke-width:1;font-family:Arial Black;font-weight:bold;font-size:18;      ">CHARLIE)</text>
</g>
</g>
</svg>

</g>
</svg>