<?xml version="1.0"?>
<!DOCTYPE svg PUBLIC "-//W3C//DTD SVG 1.1//EN" "http://www.w3.org/Graphics/SVG/1.1/DTD/svg11.dtd" >
<!-- SVG content generated using Symbology Configuration Management System (SCMS) -->
<!-- Systematic Software Engineering Ltd. - www.systematic.co.uk - do not remove  -->
<svg id="SFGPIE----H****" width="400px" height="400px" viewBox="0 0 400 400">
<g >
<svg viewBox="0 0 400 400" id="_0.SFG-I----------" width="400px" height="400px"><rect x="150" y="40" width="100" height="40" style="fill:rgb(0,0,0);stroke:none"></rect>
<rect x="20" y="80" width="360" height="240" style="fill:rgb(128,224,255);stroke:rgb(0,0,0);stroke-width:10"></rect>
</svg>

</g>
<g >
<svg viewBox="0 0 400 400" id="_1.S-G-IE----H----" width="400px" height="400px"><ellipse cx="200" cy="200" rx="60" ry="60" style="fill:none;stroke:rgb(0,0,0);stroke-width:10"></ellipse>
<g transform="translate(200 200) rotate(0)"><line x1="60" y1="0" x2="110" y2="0" style="fill:none;stroke:rgb(0,0,0);stroke-width:10"></line>
</g>
<g transform="translate(200 200) rotate(315)"><line x1="60" y1="0" x2="110" y2="0" style="fill:none;stroke:rgb(0,0,0);stroke-width:10"></line>
</g>
<g transform="translate(200 200) rotate(270)"><line x1="60" y1="0" x2="110" y2="0" style="fill:none;stroke:rgb(0,0,0);stroke-width:10"></line>
</g>
<g transform="translate(200 200) rotate(225)"><line x1="60" y1="0" x2="110" y2="0" style="fill:none;stroke:rgb(0,0,0);stroke-width:10"></line>
</g>
<g transform="translate(200 200) rotate(180)"><line x1="60" y1="0" x2="110" y2="0" style="fill:none;stroke:rgb(0,0,0);stroke-width:10"></line>
</g>
<g transform="translate(200 200) rotate(135)"><line x1="60" y1="0" x2="110" y2="0" style="fill:none;stroke:rgb(0,0,0);stroke-width:10"></line>
</g>
<g transform="translate(200 200) rotate(90)"><line x1="60" y1="0" x2="110" y2="0" style="fill:none;stroke:rgb(0,0,0);stroke-width:10"></line>
</g>
<g transform="translate(200 200) rotate(45)"><line x1="60" y1="0" x2="110" y2="0" style="fill:none;stroke:rgb(0,0,0);stroke-width:10"></line>
</g>
</svg>

</g>
</svg>