<?xml version="1.0"?>
<!DOCTYPE svg PUBLIC "-//W3C//DTD SVG 1.1//EN" "http://www.w3.org/Graphics/SVG/1.1/DTD/svg11.dtd" >
<!-- SVG content generated using Symbology Configuration Management System (SCMS) -->
<!-- Systematic Software Engineering Ltd. - www.systematic.co.uk - do not remove  -->
<svg id="SUGPUCECA-*****" width="400px" height="400px" viewBox="0 0 400 400">
<g >
<svg viewBox="0 0 400 400" id="_0.SUG-U----------" width="400px" height="400px"><path d="M115 285 C115 400 285 400 285 285 C400 285 400 115 285 115 C285 0 115 0 115 115 C0     115 0 285 115 285 z" style="fill:rgb(255,255,128);stroke:rgb(0,0,0);stroke-width:10"></path>
</svg>

</g>
<g transform="translate(20 -5) scale(0.9 0.9)" >
<svg viewBox="0 0 400 400" id="_1.S-G-UCE--------" width="400px" height="400px"><line x1="200" y1="155" x2="200" y2="225" style="fill:none;stroke:rgb(0,0,0);stroke-width:10"></line>
<line x1="110" y1="155" x2="110" y2="255" style="fill:none;stroke:rgb(0,0,0);stroke-width:10"></line>
<line x1="290" y1="155" x2="290" y2="255" style="fill:none;stroke:rgb(0,0,0);stroke-width:10"></line>
<line x1="105" y1="155" x2="295" y2="155" style="fill:none;stroke:rgb(0,0,0);stroke-width:10"></line>
</svg>

</g>
<g transform="translate(20 25) scale(0.9 0.9)" >
<svg viewBox="0 0 400 400" id="_2.S-G-UCATA------" width="400px" height="400px"><path d="M120 270 C120 230 200 230 200 270 C200 230 280 230 280 270" style="fill:none;stroke:rgb(0,0,0);stroke-width:10"></path>
</svg>

</g>
</svg>