<?xml version="1.0"?>
<!DOCTYPE svg PUBLIC "-//W3C//DTD SVG 1.1//EN" "http://www.w3.org/Graphics/SVG/1.1/DTD/svg11.dtd" >
<!-- SVG content generated using Symbology Configuration Management System (SCMS) -->
<!-- Systematic Software Engineering Ltd. - www.systematic.co.uk - do not remove  -->
<svg id="IUSPSCP-----***" width="400px" height="400px" viewBox="0 0 400 400">
<g >
<svg viewBox="0 0 400 400" id="_0.SUS------------" width="400px" height="400px"><path d="M115 285 C115 400 285 400 285 285 C400 285 400 115 285 115 C285 0 115 0 115 115 C0     115 0 285 115 285 z" style="fill:rgb(255,255,128);stroke:rgb(0,0,0);stroke-width:10"></path>
</svg>

</g>
<g >
<svg viewBox="0 0 400 400" id="_1.I---SC---------" width="400px" height="400px"><line x1="173" y1="305" x2="226" y2="305" style="fill:none;stroke:rgb(0,0,0);stroke-width:10"></line>
<line x1="200" y1="305" x2="200" y2="180" style="fill:none;stroke:rgb(0,0,0);stroke-width:10"></line>
<path d="M190 161 L152 148 L163 131 L128 120" style="fill:none;stroke:rgb(0,0,0);stroke-width:10"></path>
<path d="M210 161 L248 148 L237 131 L272 120" style="fill:none;stroke:rgb(0,0,0);stroke-width:10"></path>
<path d="M190 175 L152 189 L163 205 L128 217" style="fill:none;stroke:rgb(0,0,0);stroke-width:10"></path>
<path d="M210 175 L248 189 L237 205 L272 217" style="fill:none;stroke:rgb(0,0,0);stroke-width:10"></path>
</svg>

</g>
<g >
<svg viewBox="0 0 400 400" id="_2.I-A-SCP--------" width="400px" height="400px"><text x="140px" y="280px" style="fill:rgb(0,0,0);font-size:60;font-family:Arial">P</text>
<text x="220px" y="280px" style="fill:rgb(0,0,0);font-size:60;font-family:Arial">P</text>
</svg>

</g>
</svg>