<?xml version="1.0"?>
<!DOCTYPE svg PUBLIC "-//W3C//DTD SVG 1.1//EN" "http://www.w3.org/Graphics/SVG/1.1/DTD/svg11.dtd" >
<!-- SVG content generated using Symbology Configuration Management System (SCMS) -->
<!-- Systematic Software Engineering Ltd. - www.systematic.co.uk - do not remove  -->
<svg id="G*FPAN----****X" width="400px" height="400px" viewBox="0 0 400 400">
<g >
<svg viewBox="0 0 400 400" id="_0.G-FPAN--------X" width="400px" height="400px"><g transform="translate(-125 -100) scale(1.25 1.25)"><path d="M144.5 111 C206.536 100.661 280.419 101.215 320.5 160 C348.145 200.546 350.089 331.082      294.5 348 C274.556 354.07 168.953 360.694 152.5 350 C136.577 339.65 130.967      315.607 129.5 298 C127.243 270.919 143.392 247.594 144.5 221 C146.102      182.544 93.6895 128.572 144.681 110.951" style="fill:none;stroke:rgb(0,0,0);stroke-width:2" transform="matrix(1 0 0 1 28 10)"></path>
<line x1="124" y1="150" x2="167" y2="108" style="fill:rgb(0,0,0);stroke:rgb(0,0,0);stroke-width:1" transform="matrix(1 0 0 1 28 10)"></line>
<line x1="128" y1="164" x2="184" y2="107" style="fill:rgb(0,0,0);stroke:rgb(0,0,0);stroke-width:1" transform="matrix(1 0 0 1 28 10)"></line>
<line x1="131" y1="173" x2="198.942" y2="106.114" style="fill:rgb(0,0,0);stroke:rgb(0,0,0);stroke-width:1" transform="matrix(1 0 0 1 28 10)"></line>
<line x1="136" y1="185" x2="214" y2="107" style="fill:rgb(0,0,0);stroke:rgb(0,0,0);stroke-width:1" transform="matrix(1 0 0 1 28 10)"></line>
<line x1="140" y1="198" x2="230" y2="108" style="fill:rgb(0,0,0);stroke:rgb(0,0,0);stroke-width:1" transform="matrix(1 0 0 1 28 10)"></line>
<line x1="122" y1="136" x2="148" y2="110" style="fill:rgb(0,0,0);stroke:rgb(0,0,0);stroke-width:1" transform="matrix(1 0 0 1 28 10)"></line>
<line x1="144" y1="215" x2="248.005" y2="110.864" style="fill:rgb(0,0,0);stroke:rgb(0,0,0);stroke-width:1" transform="matrix(1 0 0 1 28 10)"></line>
<line x1="143" y1="232" x2="260" y2="115" style="fill:rgb(0,0,0);stroke:rgb(0,0,0);stroke-width:1" transform="matrix(1 0 0 1 28 10)"></line>
<line x1="137" y1="256" x2="272" y2="120" style="fill:rgb(0,0,0);stroke:rgb(0,0,0);stroke-width:1" transform="matrix(1 0 0 1 28 10)"></line>
<line x1="130" y1="286" x2="286.786" y2="127.995" style="fill:rgb(0,0,0);stroke:rgb(0,0,0);stroke-width:1" transform="matrix(1 0 0 1 28 10)"></line>
<line x1="131" y1="308" x2="300.929" y2="137.995" style="fill:rgb(0,0,0);stroke:rgb(0,0,0);stroke-width:1" transform="matrix(1 0 0 1 28 10)"></line>
<line x1="136" y1="326" x2="312" y2="150" style="fill:rgb(0,0,0);stroke:rgb(0,0,0);stroke-width:1" transform="matrix(1 0 0 1 28 10)"></line>
<line x1="144" y1="343" x2="323" y2="164" style="fill:rgb(0,0,0);stroke:rgb(0,0,0);stroke-width:1" transform="matrix(1 0 0 1 28 10)"></line>
<line x1="159" y1="353" x2="330" y2="181" style="fill:rgb(0,0,0);stroke:rgb(0,0,0);stroke-width:1" transform="matrix(1 0 0 1 28 10)"></line>
<line x1="188" y1="355" x2="336" y2="207" style="fill:rgb(0,0,0);stroke:rgb(0,0,0);stroke-width:1" transform="matrix(1 0 0 1 28 10)"></line>
<line x1="212" y1="356" x2="338" y2="229" style="fill:rgb(0,0,0);stroke:rgb(0,0,0);stroke-width:1" transform="matrix(1 0 0 1 28 10)"></line>
<line x1="235" y1="355" x2="339" y2="252" style="fill:rgb(0,0,0);stroke:rgb(0,0,0);stroke-width:1" transform="matrix(1 0 0 1 28 10)"></line>
<line x1="265" y1="352" x2="337" y2="280" style="fill:rgb(0,0,0);stroke:rgb(0,0,0);stroke-width:1" transform="matrix(1 0 0 1 28 10)"></line>
<line x1="292" y1="348" x2="327.58" y2="312.339" style="fill:rgb(0,0,0);stroke:rgb(0,0,0);stroke-width:1" transform="matrix(1 0 0 1 28 10)"></line>
<g id="T" transform="translate(156 -10) translate(30 174)"><rect x="82" y="116" width="28" height="20" transform="matrix(1 0 0 1 154 124) translate(-175 -197)" style="fill:rgb(255,255,255);stroke:rgb(0,0,0);stroke-width:2"></rect>
<text x="72px" y="58px" transform="matrix(1 0 0 1 0 0)" style="fill:rgb(0,0,0);stroke-width:1;font-family:Arial Black;font-weight:bold;font-size:12;      ">T</text>
</g>
<g id="W" transform="translate(145 -67) translate(9 0) translate(30 174)"><rect x="82" y="116" width="28" height="20" transform="matrix(1 0 0 1 154 124) translate(-196 -116)" style="fill:rgb(255,255,255);stroke:rgb(0,0,0);stroke-width:2"></rect>
<text x="48px" y="139px" transform="matrix(1 0 0 1 0 0)" style="fill:rgb(0,0,0);stroke-width:1;font-family:Arial Black;font-weight:bold;font-size:12;      ">W</text>
</g>
<g id="W1" transform="translate(150 -59) translate(30 174)"><rect x="82" y="116" width="28" height="20" transform="matrix(1 0 0 1 0 0)" style="fill:rgb(255,255,255);stroke:rgb(0,0,0);stroke-width:2"></rect>
<text x="88px" y="130px" transform="matrix(1 0 0 1 0 0)" style="fill:rgb(0,0,0);stroke-width:1;font-family:Arial Black;font-weight:bold;font-size:12;      ">W1</text>
</g>
<rect x="218" y="48" width="34" height="18" transform="matrix(1 0 0 1 0 0) translate(26 136)" style="fill:rgb(255,255,255);stroke-width:2"></rect>
<text x="214px" y="388px" transform="matrix(1 0 0 1 23.0385 -174.5) translate(1 0) translate(1 0) translate(1 0) translate(1 0) translate(1 0) translate(1 0) translate(1 0) translate(1 0) translate(1 0) translate(1 0) translate(1 0) translate(66 -132) translate(-97 -53) translate(30 174) translate(-26 -142) translate(26 136)" style="fill:rgb(0,0,0);font-family:Arial Black;font-weight:bold;font-size:12">NFA</text>
</g>
</svg>

</g>
</svg>