<?xml version="1.0"?>
<!DOCTYPE svg PUBLIC "-//W3C//DTD SVG 1.1//EN" "http://www.w3.org/Graphics/SVG/1.1/DTD/svg11.dtd" >
<!-- SVG content generated using Symbology Configuration Management System (SCMS) -->
<!-- Systematic Software Engineering Ltd. - www.systematic.co.uk - do not remove  -->
<svg id="G*GPOLAGS-****X" width="400px" height="400px" viewBox="0 0 400 400">
<g >
<svg viewBox="0 0 400 400" id="_0.G-GPOLAGS-----X" width="400px" height="400px"><g transform="translate(-100 -100) scale(1.25 1.25)"><path d="M112.5 169.667 C182.796 189.135 266.089 177.282 304.833 169.667" transform="matrix(1 0 0 1 16.6667 59.6667)" style="fill:none;stroke:rgb(0,0,0);stroke-width:2"></path>
<path d="M112.5 169.667 C182.796 189.135 266.089 177.282 304.833 169.667" transform="matrix(1 0 0 -1 16.6667 441.577)" style="fill:none;stroke:rgb(0,0,0);stroke-width:2"></path>
<line x1="303.644" y1="170.006" x2="302.2" y2="140.673" transform="matrix(1 0 0 1 16.6667 59)" style="fill:rgb(0,0,0);stroke:rgb(0,0,0);stroke-width:2"></line>
<line x1="303.856" y1="212.561" x2="303" y2="243" transform="matrix(1 0 0 1 16.6667 59)" style="fill:rgb(0,0,0);stroke:rgb(0,0,0);stroke-width:2"></line>
<line x1="302" y1="140" x2="353" y2="191" transform="matrix(1 0 0 1 16.6667 59)" style="fill:rgb(0,0,0);stroke:rgb(0,0,0);stroke-width:2"></line>
<line x1="353.856" y1="190.361" x2="303.189" y2="242.228" transform="matrix(1 0 0 1 16.6667 59)" style="fill:rgb(0,0,0);stroke:rgb(0,0,0);stroke-width:2"></line>
<g id="PT.%201" transform="translate(126 217)"><text x="186px" y="98px" transform="matrix(1 0 0 1 0 0)" style="fill:rgb(0,0,0);stroke-width:1;font-family:Arial Black;font-weight:bold;font-size:12;      ">PT. 1</text>
</g>
<g id="PT.%202" transform="translate(-125 220)"><text x="248px" y="90px" transform="matrix(1 0 0 1 0 0)" style="fill:rgb(0,0,0);stroke-width:1;font-family:Arial Black;font-weight:bold;font-size:12;      ">PT. 2</text>
</g>
<g id="PT.%203" transform="translate(-9 15)"><text x="266px" y="138px" transform="matrix(1 0 0 1 0 0)" style="fill:rgb(0,0,0);stroke-width:1;font-family:Arial Black;font-weight:bold;font-size:12;      ">PT. 3</text>
</g>
<line x1="124" y1="255" x2="100" y2="277" transform="matrix(1 0 0 1 0 0) translate(0 0) rotate(0.269879 112 266)" style="fill:rgb(0,0,0);stroke:rgb(0,0,0);stroke-width:2"></line>
<line x1="99.3651" y1="276.301" x2="120" y2="304" transform="matrix(1 0 0 1 0 0)" style="fill:rgb(0,0,0);stroke:rgb(0,0,0);stroke-width:2"></line>
<line x1="292" y1="164" x2="316" y2="176" transform="matrix(1 0 0 1 0 0) translate(-49 -15) translate(53 1)" style="fill:rgb(0,0,0);stroke:rgb(0,0,0);stroke-width:2"></line>
<line x1="374" y1="265" x2="374" y2="293" transform="matrix(1 0 0 1 0 0)" style="fill:rgb(0,0,0);stroke:rgb(0,0,0);stroke-width:2"></line>
<line x1="374.287" y1="292.079" x2="350" y2="310" transform="matrix(1 0 0 1 0 0)" style="fill:rgb(0,0,0);stroke:rgb(0,0,0);stroke-width:2"></line>
<polygon points="82,141.536 86,148.464 78,148.464" transform="matrix(0.598042 0.801465 -1.8509 1.38112 341.205 -8.06095)" style="fill:rgb(0,0,0);stroke:rgb(0,0,0);stroke-width:2"></polygon>
<polygon points="82,141.536 86,148.464 78,148.464" transform="matrix(1 0 0 -2.3094 168 584.554) translate(65 28.1458) translate(4 -1.29904) translate(45 3.4641) translate(-45 -3.4641) translate(78 145) scale(1 1) translate(-78 -145)" style="fill:rgb(0,0,0);stroke:rgb(0,0,0);stroke-width:2"></polygon>
<polygon points="82,141.536 86,148.464 78,148.464" transform="matrix(1 0 0 2.3094 292 -69.863)" style="fill:rgb(0,0,0);stroke:rgb(0,0,0);stroke-width:2"></polygon>
<line x1="318" y1="180" x2="318.587" y2="161.235" transform="matrix(1 0 0 1 0 0) translate(1 0)" style="fill:rgb(0,0,0);stroke:rgb(0,0,0);stroke-width:2"></line>
</g>
</svg>

</g>
</svg>