<?xml version="1.0"?>
<!DOCTYPE svg PUBLIC "-//W3C//DTD SVG 1.1//EN" "http://www.w3.org/Graphics/SVG/1.1/DTD/svg11.dtd" >
<!-- SVG content generated using Symbology Configuration Management System (SCMS) -->
<!-- Systematic Software Engineering Ltd. - www.systematic.co.uk - do not remove  -->
<svg id="WA--OB---------" width="400px" height="400px" viewBox="0 0 400 400">
<g >
<svg viewBox="0 0 400 400" id="_0.WA--OB---------" width="400px" height="400px"><g transform="translate(130 20) scale(7 7)" style="fill:rgb(128,98,16)"><path d="M10.871 29.168 L17.209 36.57 L16.344 37.293 C14.362 35.035 11.946 32.322 9.094 29.152      C9.106 29.152 9.106 29.152 9.094 29.152 L8.135 27.859 C7.99 27.716 6.239      25.775 2.879 22.035 C0.959 19.879 0 17.84 0 15.922 C0 14.725 0.432 13.43 1.295      12.039 C2.158 10.648 3.238 9.594 4.535 8.875 L5.111 9.879 C2.537 11.457      1.25 13.467 1.25 15.906 C1.25 17.246 1.875 18.703 3.127 20.281 C4.232 21.525      5.34 22.769 6.447 24.011 C7.158 24.837 8.248 26.124 9.718 27.874 C9.73 27.874      9.73 27.874 9.718 27.874 zM9.859 49.625 C8.084 49.625 5.972 48.949 3.527      47.596 L4.101 46.653 C6.206 47.801 8.122 48.376 9.847 48.376 C12.097 48.376      13.978 47.634 15.486 46.146 C16.994 44.658 17.75 43.003 17.75 41.179 C17.75      40.22 17.328 38.949 16.488 37.365 L17.492 36.789 C18.496 38.713 19 40.18 19      41.189 C19 43.449 18.1 45.419 16.301 47.103 C14.502 48.787 12.355 49.625 9.859      49.625 zM5.111 9.859 L4.535 8.852 L8.424 7.7 L8.424 8.997 zM10.152 8.893      L7.847 8.823 L6.84 7.625 L10.367 7.625 C11.135 7.674 12.107 7.951 13.283 8.455      C14.459 8.959 15.238 9.451 15.623 9.932 L14.76 10.653 C14.471 10.278 13.787      9.903 12.707 9.528 C11.627 9.153 10.775 8.939 10.152 8.893 zM9.719 0 L7.416      6.404 L13.031 6.404 zM11 6.375 L11 52.25 L9.195 52.105 L9.125 6.375 z"></path>
</g>
</svg>

</g>
</svg>