<?xml version="1.0"?>
<!DOCTYPE svg PUBLIC "-//W3C//DTD SVG 1.1//EN" "http://www.w3.org/Graphics/SVG/1.1/DTD/svg11.dtd" >
<!-- SVG content generated using Symbology Configuration Management System (SCMS) -->
<!-- Systematic Software Engineering Ltd. - www.systematic.co.uk - do not remove  -->
<svg id="WA--IMS--------" width="400px" height="400px" viewBox="0 0 400 400">
<g >
<svg viewBox="0 0 400 400" id="_0.WA--IMS--------" width="400px" height="400px"><g transform="translate(30 90) scale(6 6)" style="fill:rgb(128,98,16)"><path d="M14.186 3.744 C10.489 3.744 7.379 5.017 4.86 7.56 C2.34 10.105 1.08 13.225 1.08 16.92
				L0 16.92 C0 12.889 1.367 9.506 4.104 6.77 C6.841 4.034 10.202 2.665 14.186
				2.665 C18.217 2.665 21.6 4.034 24.336 6.77 C27.072 9.506 28.441 12.889 28.441
				16.92 L27.361 16.92 C27.361 13.225 26.088 10.106 23.545 7.561 C21 5.018
				17.881 3.744 14.186 3.744 zM9.576 33.336 L9.576 0.289 L10.801 0.289 L10.801
				33.336 zM13.537 33.336 L13.537 0.289 L14.762 0.289 L14.762 33.336 zM17.496
				33.336 L17.496 0.289 L18.721 0.289 L18.721 33.336 zM41.473 30.098 C45.121 30.098
				48.217 28.827 50.76 26.282 C53.303 23.739 54.576 20.618 54.576 16.921
				L55.656 16.921 C55.656 20.954 54.287 24.339 51.552 27.073 C48.816 29.809 45.456
				31.177 41.472 31.177 C37.488 31.177 34.126 29.798 31.392 27.038 C28.656
				24.278 27.288 20.905 27.288 16.921 L28.368 16.921 C28.368 20.618 29.639 23.739
				32.182 26.282 C34.727 28.826 37.824 30.098 41.473 30.098 zM36.793 33.049
				L36.793 0 L38.018 0 L38.018 33.049 zM40.754 33.049 L40.754 0 L41.977 0 L41.977
				33.049 zM44.713 33.049 L44.713 0 L45.938 0 L45.938 33.049 z"></path>
</g>
</svg>

</g>
</svg>