<?xml version="1.0"?>
<!DOCTYPE svg PUBLIC "-//W3C//DTD SVG 1.1//EN" "http://www.w3.org/Graphics/SVG/1.1/DTD/svg11.dtd" >
<!-- SVG content generated using Symbology Configuration Management System (SCMS) -->
<!-- Systematic Software Engineering Ltd. - www.systematic.co.uk - do not remove  -->
<svg id="G*MPOFS---****X" width="400px" height="400px" viewBox="0 0 400 400">
<g >
<svg viewBox="0 0 400 400" id="_0.G-MPOFS-------X" width="400px" height="400px"><g transform="translate(-160 -150) scale(1.5 1.5)"><rect x="116" y="178" width="190" height="105" transform="matrix(1 0 0 1 29.7308 -3.73077)" style="fill:rgb(255,255,255);stroke:rgb(0,0,0);stroke-width:2"></rect>
<circle cx="205" cy="240.5" r="19" transform="matrix(1 0 0 1 -25.2692 -13.7308)" style="fill:rgb(255,255,255);stroke:rgb(0,0,0);stroke-width:2"></circle>
<circle cx="250" cy="250.5" r="19" transform="matrix(1 0 0 1 -8.2692 -23.7308)" style="fill:rgb(255,255,255);stroke:rgb(0,0,0);stroke-width:2"></circle>
<circle cx="250" cy="250.5" r="19" transform="matrix(1 0 0 1 50.5769 -25.6923)" style="fill:rgb(255,255,255);stroke:rgb(0,0,0);stroke-width:2"></circle>
<g id="N2" transform="translate(324 136) translate(-10 0)"><rect x="64" y="164" width="24" height="19" transform="matrix(1 0 0 1 174 77) translate(-226 -164) translate(0 1)" style="fill:rgb(255,255,255);stroke:rgb(0,0,0);stroke-width:2"></rect>
<text x="20px" y="92px" transform="matrix(1 0 0 1 0 0)" style="fill:rgb(0,0,0);stroke-width:1;font-family:Arial Black;font-weight:bold;font-size:12;     ">N</text>
</g>
<g id="H" transform="translate(86 71)"><rect x="64" y="164" width="24" height="19" transform="matrix(1 0 0 1 174 77) translate(-94 -158)" style="fill:rgb(255,255,255);stroke:rgb(0,0,0);stroke-width:2"></rect>
<text x="150px" y="97px" transform="matrix(1 0 0 1 0 0)" style="fill:rgb(0,0,0);stroke-width:1;font-family:Arial Black;font-weight:bold;font-size:12;     ">H</text>
</g>
<g id="N1" transform="translate(48 93) translate(9 2)"><rect x="64" y="164" width="24" height="19" transform="matrix(1 0 0 1 174 77) translate(-166 -121) translate(0 1) translate(1 0)" style="fill:rgb(255,255,255);stroke:rgb(0,0,0);stroke-width:2"></rect>
<text x="80px" y="135px" transform="matrix(1 0 0 1 0 0)" style="fill:rgb(0,0,0);stroke-width:1;font-family:Arial Black;font-weight:bold;font-size:12;     ">N</text>
</g>
<g id="W" transform="translate(167 116)"><rect x="64" y="164" width="24" height="19" transform="matrix(1 0 0 1 0 0)" style="fill:rgb(255,255,255);stroke:rgb(0,0,0);stroke-width:2"></rect>
<text x="70px" y="178px" transform="matrix(1 0 0 1 0 0)" style="fill:rgb(0,0,0);stroke-width:1;font-family:Arial Black;font-weight:bold;font-size:12;     ">W</text>
</g>
</g>
</svg>

</g>
</svg>