<?xml version="1.0"?>
<!DOCTYPE svg PUBLIC "-//W3C//DTD SVG 1.1//EN" "http://www.w3.org/Graphics/SVG/1.1/DTD/svg11.dtd" >
<!-- SVG content generated using Symbology Configuration Management System (SCMS) -->
<!-- Systematic Software Engineering Ltd. - www.systematic.co.uk - do not remove  -->
<svg id="GFMAOFS---****X" width="400px" height="400px" viewBox="0 0 400 400">
<g >
<svg viewBox="0 0 400 400" id="_0.GFMAOFS-------X" width="400px" height="400px"><g transform="translate(-230 -200) scale(1.75 1.75)"><circle cx="205" cy="240.5" r="19" transform="matrix(1 0 0 1 -20.1025 -14.0641)" style="fill:rgb(255,255,255);stroke:rgb(0,0,0);stroke-width:2"></circle>
<circle cx="250" cy="250.5" r="19" transform="matrix(1 0 0 1 -3.10253 -24.0641)" style="fill:rgb(255,255,255);stroke:rgb(0,0,0);stroke-width:2"></circle>
<circle cx="250" cy="250.5" r="19" transform="matrix(1 0 0 1 55.7436 -26.0256)" style="fill:rgb(255,255,255);stroke:rgb(0,0,0);stroke-width:2"></circle>
<line x1="145" y1="174" x2="168" y2="174" transform="matrix(1 0 0 1 5.16667 -0.333333)" style="fill:rgb(0,0,0);stroke:rgb(0,0,0);stroke-width:2"></line>
<line x1="180" y1="174" x2="204" y2="174" transform="matrix(1 0 0 1 5.16667 -0.333333)" style="fill:rgb(0,0,0);stroke:rgb(0,0,0);stroke-width:2"></line>
<line x1="216" y1="174" x2="246" y2="174" transform="matrix(1 0 0 1 5.16667 -0.333333)" style="fill:rgb(0,0,0);stroke:rgb(0,0,0);stroke-width:2"></line>
<line x1="258" y1="174" x2="281" y2="174" transform="matrix(1 0 0 1 5.16667 -0.333333)" style="fill:rgb(0,0,0);stroke:rgb(0,0,0);stroke-width:2"></line>
<line x1="293" y1="174" x2="318" y2="174" transform="matrix(1 0 0 1 5.16667 -0.333333)" style="fill:rgb(0,0,0);stroke:rgb(0,0,0);stroke-width:2"></line>
<line x1="326" y1="174" x2="336" y2="174" transform="matrix(1 0 0 1 5.16667 -0.333333)" style="fill:rgb(0,0,0);stroke:rgb(0,0,0);stroke-width:2"></line>
<line x1="336" y1="174" x2="336" y2="192" transform="matrix(1 0 0 1 5.16667 -0.333333)" style="fill:rgb(0,0,0);stroke:rgb(0,0,0);stroke-width:2"></line>
<line x1="335" y1="198" x2="335" y2="214" transform="matrix(1 0 0 1 5.16667 -0.333333) translate(335 206) scale(1 1) translate(-335 -206) translate(1 0)" style="fill:rgb(0,0,0);stroke:rgb(0,0,0);stroke-width:2"></line>
<line x1="336" y1="236" x2="336" y2="252" transform="matrix(1 0 0 1 5.16667 -0.333333)" style="fill:rgb(0,0,0);stroke:rgb(0,0,0);stroke-width:2"></line>
<line x1="335.589" y1="260.408" x2="335.756" y2="279.574" transform="matrix(1 0 0 1 5.16667 -0.333333)" style="fill:rgb(0,0,0);stroke:rgb(0,0,0);stroke-width:2"></line>
<line x1="145" y1="174" x2="145" y2="191" transform="matrix(1 0 0 1 5.16667 -0.333333) translate(0 0.5) translate(1 0)" style="fill:rgb(0,0,0);stroke:rgb(0,0,0);stroke-width:2"></line>
<line x1="145" y1="198" x2="145" y2="215" transform="matrix(1 0 0 1 5.16667 -0.333333) translate(1 0)" style="fill:rgb(0,0,0);stroke:rgb(0,0,0);stroke-width:2"></line>
<line x1="145" y1="238" x2="145" y2="254" transform="matrix(1 0 0 1 5.16667 -0.333333) translate(1 0)" style="fill:rgb(0,0,0);stroke:rgb(0,0,0);stroke-width:2"></line>
<line x1="145" y1="260" x2="145" y2="280" transform="matrix(1 0 0 1 5.16667 -0.333333) translate(1 0)" style="fill:rgb(0,0,0);stroke:rgb(0,0,0);stroke-width:2"></line>
<line x1="150.272" y1="279.574" x2="173.439" y2="279.574" transform="matrix(1 0 0 1 5.16667 -0.333333)" style="fill:rgb(0,0,0);stroke:rgb(0,0,0);stroke-width:2"></line>
<line x1="184.606" y1="279.408" x2="208.939" y2="279.408" transform="matrix(1 0 0 1 5.16667 -0.333333)" style="fill:rgb(0,0,0);stroke:rgb(0,0,0);stroke-width:2"></line>
<line x1="221.306" y1="279.408" x2="247.139" y2="279.408" transform="matrix(1 0 0 1 5.16667 -0.333333)" style="fill:rgb(0,0,0);stroke:rgb(0,0,0);stroke-width:2"></line>
<line x1="261.789" y1="279.408" x2="291.956" y2="279.241" transform="matrix(1 0 0 1 5.16667 -0.333333)" style="fill:rgb(0,0,0);stroke:rgb(0,0,0);stroke-width:2"></line>
<line x1="303.922" y1="279.408" x2="329.922" y2="279.408" transform="matrix(1 0 0 1 5.16667 -0.333333)" style="fill:rgb(0,0,0);stroke:rgb(0,0,0);stroke-width:2"></line>
</g>
</svg>

</g>
</svg>