<?xml version="1.0"?>
<!DOCTYPE svg PUBLIC "-//W3C//DTD SVG 1.1//EN" "http://www.w3.org/Graphics/SVG/1.1/DTD/svg11.dtd" >
<!-- SVG content generated using Symbology Configuration Management System (SCMS) -->
<!-- Systematic Software Engineering Ltd. - www.systematic.co.uk - do not remove  -->
<svg id="WA--IRS--------" width="400px" height="400px" viewBox="0 0 400 400">
<g >
<svg viewBox="0 0 400 400" id="_0.WA--IRS--------" width="400px" height="400px"><g transform="translate(25 80) scale(7 7)" style="fill:rgb(128,98,16)"><path d="M25.271 27.875 C31.751 27.875 37.259 25.611 41.794 21.084 C46.329 16.557 48.6 11.033     48.6 4.516 L50.543 4.516 C50.543 11.625 48.094 17.629 43.199 22.528 C38.303     27.426 32.326 29.876 25.271 29.876 C18.263 29.876 12.298 27.415 7.378 22.491     C2.459 17.568 0 11.576 0 4.516 L1.943 4.516 C1.943 11.034 4.211 16.557     8.746 21.084 C13.281 25.611 18.791 27.875 25.271 27.875 zM18.625 33 L18.625     0 L20.375 0 L20.375 33 zM24.375 33 L24.375 0 L26.125 0 L26.125 33 zM30.125 33     L30.125 0 L31.875 0 L31.875 33 z"></path>
</g>
</svg>

</g>
</svg>