<?xml version="1.0"?>
<!DOCTYPE svg PUBLIC "-//W3C//DTD SVG 1.1//EN" "http://www.w3.org/Graphics/SVG/1.1/DTD/svg11.dtd" >
<!-- SVG content generated using Symbology Configuration Management System (SCMS) -->
<!-- Systematic Software Engineering Ltd. - www.systematic.co.uk - do not remove  -->
<svg id="G*TPF-----****X" width="400px" height="400px" viewBox="0 0 400 400">
<g >
<svg viewBox="0 0 400 400" id="_0.G-TPF---------X" width="400px" height="400px"><g transform="translate(-180 -180) scale(1.75 1.75)"><line x1="144" y1="211" x2="152" y2="233" style="fill:rgb(0,0,0);stroke:rgb(0,0,0);stroke-width:2"></line>
<line x1="152" y1="233" x2="168" y2="193" style="fill:rgb(0,0,0);stroke:rgb(0,0,0);stroke-width:2"></line>
<line x1="168" y1="193" x2="176" y2="233" style="fill:rgb(0,0,0);stroke:rgb(0,0,0);stroke-width:2"></line>
<line x1="176" y1="233" x2="190" y2="194" style="fill:rgb(0,0,0);stroke:rgb(0,0,0);stroke-width:2"></line>
<line x1="190" y1="194" x2="198" y2="232" style="fill:rgb(0,0,0);stroke:rgb(0,0,0);stroke-width:2"></line>
<line x1="198" y1="232" x2="212" y2="194" style="fill:rgb(0,0,0);stroke:rgb(0,0,0);stroke-width:2"></line>
<line x1="212" y1="195" x2="222" y2="232" style="fill:rgb(0,0,0);stroke:rgb(0,0,0);stroke-width:2"></line>
<line x1="222" y1="232" x2="236" y2="194" style="fill:rgb(0,0,0);stroke:rgb(0,0,0);stroke-width:2"></line>
<line x1="236" y1="194" x2="246" y2="233" style="fill:rgb(0,0,0);stroke:rgb(0,0,0);stroke-width:2"></line>
<line x1="246" y1="234" x2="264" y2="194" style="fill:rgb(0,0,0);stroke:rgb(0,0,0);stroke-width:2"></line>
<line x1="264" y1="194" x2="272" y2="232" style="fill:rgb(0,0,0);stroke:rgb(0,0,0);stroke-width:2"></line>
<line x1="272" y1="232" x2="284" y2="211" style="fill:rgb(0,0,0);stroke:rgb(0,0,0);stroke-width:2"></line>
<line x1="144" y1="212" x2="116" y2="212" style="fill:rgb(0,0,0);stroke:rgb(0,0,0);stroke-width:2"></line>
<line x1="283.542" y1="211.114" x2="318" y2="211" style="fill:rgb(0,0,0);stroke:rgb(0,0,0);stroke-width:2"></line>
<line x1="317.261" y1="211.114" x2="298" y2="192" style="fill:rgb(0,0,0);stroke:rgb(0,0,0);stroke-width:2"></line>
<line x1="317.528" y1="211.099" x2="298.528" y2="228.099" style="fill:rgb(0,0,0);stroke:rgb(0,0,0);stroke-width:2"></line>
</g>
</svg>

</g>
</svg>