<?xml version="1.0"?>
<!DOCTYPE svg PUBLIC "-//W3C//DTD SVG 1.1//EN" "http://www.w3.org/Graphics/SVG/1.1/DTD/svg11.dtd" >
<!-- SVG content generated using Symbology Configuration Management System (SCMS) -->
<!-- Systematic Software Engineering Ltd. - www.systematic.co.uk - do not remove  -->
<svg id="G*MPORC---****X" width="400px" height="400px" viewBox="0 0 400 400">
<g >
<svg viewBox="0 0 400 400" id="_0.G-M-ORC-------X" width="400px" height="400px"><g><line x1="100" y1="300" x2="240" y2="90" style="fill:none;stroke:rgb(0,0,0);stroke-width:3"></line>
<line x1="124" y1="316" x2="264" y2="106" style="fill:none;stroke:rgb(0,0,0);stroke-width:3"></line>
</g>
<g transform="matrix(-1 0 0 1 364 0)"><line x1="100" y1="300" x2="240" y2="90" style="fill:none;stroke:rgb(0,0,0);stroke-width:3"></line>
<line x1="124" y1="316" x2="264" y2="106" style="fill:none;stroke:rgb(0,0,0);stroke-width:3"></line>
</g>
</svg>

</g>
<g >
<svg viewBox="0 0 400 400" id="_1.G-M-OR------L2X" width="400px" height="400px"><text x="15px" y="332px" style="fill:rgb(0,0,0);stroke:rgb(0,0,0);font-size:24;font-family:Arial">PT.2</text>
<text x="305px" y="75px" style="fill:rgb(0,0,0);stroke:rgb(0,0,0);font-size:24;font-family:Arial">PT.1</text>
<text x="65px" y="210px" style="fill:rgb(0,0,0);stroke:rgb(0,0,0);font-size:24;font-family:Arial">PT.3</text>
<line x1="69" y1="323" x2="105.963" y2="309.423" style="fill:none;stroke:rgb(0,0,0);stroke-width:3"></line>
<line x1="257.787" y1="94.3942" x2="301" y2="69" style="fill:none;stroke:rgb(0,0,0);stroke-width:3"></line>
<line x1="119.131" y1="203.202" x2="151.833" y2="203.189" style="fill:none;stroke:rgb(0,0,0);stroke-width:3"></line>
<polygon points="100.722,308.833 108.222,308.833 102.222,313.333" style="fill:rgb(0,0,0);stroke:rgb(0,0,0);stroke-width:3"></polygon>
<polygon points="261.06,94.9396 254.878,96.0305 258.878,91.1214" style="fill:rgb(0,0,0);stroke:rgb(0,0,0);stroke-width:3"></polygon>
<polygon points="148.548,205.331 148.548,200.903 154.833,203.189" style="fill:rgb(0,0,0);stroke:rgb(0,0,0);stroke-width:3"></polygon>
</svg>

</g>
</svg>