<?xml version="1.0"?>
<!DOCTYPE svg PUBLIC "-//W3C//DTD SVG 1.1//EN" "http://www.w3.org/Graphics/SVG/1.1/DTD/svg11.dtd" >
<!-- SVG content generated using Symbology Configuration Management System (SCMS) -->
<!-- Systematic Software Engineering Ltd. - www.systematic.co.uk - do not remove  -->
<svg id="G*GPOLI---****X" width="400px" height="400px" viewBox="0 0 400 400">
<g >
<svg viewBox="0 0 400 400" id="_0.G-GPOLI-------X" width="400px" height="400px"><g transform="translate(-120 -90) scale(1.25 1.25)"><text x="192px" y="228px" transform="matrix(0.857266 -0.514874 0.514874 0.857266 -100.148 191.235) translate(52.996 -6.6651) translate(-3.94651 4.62872)" style="fill:rgb(0,0,0);font-size:12;font-family:Arial Black;font-weight:bold">LANE NAME</text>
<path d="M145.5 265 C167.072 229.047 210.637 229.575 244.5 207 C267.861 191.426 278.833 162.833      304.5 150 C343.427 130.537 346.656 155.406 377.5 104" style="fill:none;stroke:rgb(0,0,0);stroke-width:1" transform="matrix(1 0 0 1 -22 30)"></path>
<path d="M134.5 331 C156.072 295.047 199.637 295.575 233.5 273 C256.861 257.426 267.833 228.833      293.5 216 C332.427 196.537 335.656 221.406 366.5 170" transform="matrix(1 0 0 1 16 -5)" style="fill:none;stroke:rgb(0,0,0);stroke-width:1"></path>
<g id="PT.%201" transform="translate(211 43)"><text x="96px" y="78px" transform="matrix(1 0 0 1 0 0)" style="fill:rgb(0,0,0);stroke-width:1;font-family:Arial Black;font-weight:bold;font-size:12;      ">PT. 1</text>
</g>
<g id="PT.%202" transform="translate(19 277)"><text x="158px" y="79px" transform="matrix(1 0 0 1 0 0)" style="fill:rgb(0,0,0);stroke-width:1;font-family:Arial Black;font-weight:bold;font-size:12;      ">PT. 2</text>
</g>
<g id="PT.%203" transform="translate(-81 135)"><text x="214px" y="71px" transform="matrix(1 0 0 1 0 0)" style="fill:rgb(0,0,0);stroke-width:1;font-family:Arial Black;font-weight:bold;font-size:12;      ">PT. 3</text>
</g>
<line x1="344" y1="117" x2="390" y2="117" transform="matrix(1 0 0 1 0 0)" style="fill:rgb(0,0,0);stroke:rgb(0,0,0);stroke-width:2"></line>
<line x1="389.186" y1="116.797" x2="378" y2="141" transform="matrix(1 0 0 1 0 0)" style="fill:rgb(0,0,0);stroke:rgb(0,0,0);stroke-width:2"></line>
<line x1="172" y1="350" x2="123.208" y2="350.125" transform="matrix(1 0 0 1 0 0) translate(1 0)" style="fill:rgb(0,0,0);stroke:rgb(0,0,0);stroke-width:2"></line>
<line x1="124" y1="350" x2="134" y2="323" transform="matrix(1 0 0 1 0 0)" style="fill:rgb(0,0,0);stroke:rgb(0,0,0);stroke-width:2"></line>
<line x1="170" y1="206" x2="224" y2="227" transform="matrix(1 0 0 1 0 0)" style="fill:rgb(0,0,0);stroke:rgb(0,0,0);stroke-width:2"></line>
<g transform="translate(75 194) rotate(30.7034 55 132) translate(0.859822 -0.510594) translate(0.859822 -0.510594) translate(0.859822 -0.510594) rotate(353.036 54.2821 133.317) translate(0.915386 -0.402577) rotate(355.413 53.9862 133.106) translate(-0.944651 0.328077)"><polygon points="55,129.402 58,134.598 52,134.598" transform="matrix(1 0 0 3.4641 0 -325.261)" style="fill:rgb(0,0,0);stroke:rgb(0,0,0);stroke-width:2"></polygon>
</g>
<g transform="rotate(108.445 250 252) translate(-16.4372 39.215) rotate(3.56123 248.8 252.901) translate(0.374702 0.927145) translate(0.927145 -0.374702) translate(0.374702 0.927145) translate(-0.927145 0.374702)"><polygon points="55,129.402 58,134.598 52,134.598" transform="matrix(1 0 0 3.4641 195 -205.261)" style="fill:rgb(0,0,0);stroke:rgb(0,0,0);stroke-width:2"></polygon>
</g>
<g transform="translate(127 -116) rotate(202.936 250 252) translate(253.458 251.172) skewY(5.70855) translate(-253.458 -251.172) translate(-4.32163 -2.08266) rotate(4.93324 249.063 253.275) translate(0.876101 -0.559174) translate(0.876101 -0.559174) translate(0.464104 0.845206)"><polygon points="55,129.402 58,134.598 52,134.598" transform="matrix(1 0 0 3.4641 195 -205.261)" style="fill:rgb(0,0,0);stroke:rgb(0,0,0);stroke-width:2"></polygon>
</g>
</g>
</svg>

</g>
</svg>