<?xml version="1.0"?>
<!DOCTYPE svg PUBLIC "-//W3C//DTD SVG 1.1//EN" "http://www.w3.org/Graphics/SVG/1.1/DTD/svg11.dtd" >
<!-- SVG content generated using Symbology Configuration Management System (SCMS) -->
<!-- Systematic Software Engineering Ltd. - www.systematic.co.uk - do not remove  -->
<svg id="G*MPOWD---****X" width="400px" height="400px" viewBox="0 0 400 400">
<g >
<svg viewBox="0 0 400 400" id="_0.G-MPOWD-------X" width="400px" height="400px"><g transform="translate(-110 -120) scale(1.25 1.25)"><line x1="120" y1="209" x2="366" y2="209" style="fill:rgb(0,0,0);stroke:rgb(0,0,0);stroke-width:2" transform="matrix(1 0 0 1 1 24)"></line>
<text x="138px" y="283px" transform="matrix(1 0 0 1 -5 -42)" style="fill:rgb(0,0,0);font-family:Arial Black;font-weight:bold;font-size:26">XX</text>
<text x="230px" y="260px" transform="matrix(1 0 0 1 80 -19)" style="fill:rgb(0,0,0);font-family:Arial Black;font-weight:bold;font-size:26">XX</text>
<text x="230px" y="260px" transform="matrix(1 0 0 1 -12 -19)" style="fill:rgb(0,0,0);font-family:Arial Black;font-weight:bold;font-size:26">XX</text>
<g id="PT.%201" transform="translate(7 -33)"><text x="130px" y="308px" transform="matrix(1 0 0 1 0 0)" style="fill:rgb(0,0,0);stroke-width:1;font-family:Arial Black;font-weight:bold;font-size:12;      ">PT. 1</text>
</g>
<g id="PT.%202" transform="translate(30 -24)"><text x="286px" y="293px" transform="matrix(1 0 0 1 0 0)" style="fill:rgb(0,0,0);stroke-width:1;font-family:Arial Black;font-weight:bold;font-size:12;      ">PT. 2</text>
</g>
<line x1="120" y1="243" x2="120" y2="260" transform="matrix(1 0 0 1 0 0)" style="fill:rgb(0,0,0);stroke:rgb(0,0,0);stroke-width:2"></line>
<line x1="119.773" y1="259.023" x2="134" y2="271" transform="matrix(1 0 0 1 0 0)" style="fill:rgb(0,0,0);stroke:rgb(0,0,0);stroke-width:2"></line>
<line x1="366" y1="243" x2="366" y2="255" transform="matrix(1 0 0 1 0 0)" style="fill:rgb(0,0,0);stroke:rgb(0,0,0);stroke-width:2"></line>
<line x1="366.245" y1="254.295" x2="352" y2="263" transform="matrix(1 0 0 1 0 0)" style="fill:rgb(0,0,0);stroke:rgb(0,0,0);stroke-width:2"></line>
<polygon points="65,63.4378 72,75.5622 58,75.5622" transform="matrix(1 0 0 1.07222 0 -5.01942) translate(55 163.212)" style="fill:rgb(0,0,0);stroke:rgb(0,0,0);stroke-width:2"></polygon>
<polygon points="65,63.4378 72,75.5622 58,75.5622" transform="matrix(1 0 0 1.07222 186 176.981) translate(112 -9.32644) translate(1 0) translate(1 0)" style="fill:rgb(0,0,0);stroke:rgb(0,0,0);stroke-width:2"></polygon>
</g>
</svg>

</g>
</svg>