<?xml version="1.0"?>
<!DOCTYPE svg PUBLIC "-//W3C//DTD SVG 1.1//EN" "http://www.w3.org/Graphics/SVG/1.1/DTD/svg11.dtd" >
<!-- SVG content generated using Symbology Configuration Management System (SCMS) -->
<!-- Systematic Software Engineering Ltd. - www.systematic.co.uk - do not remove  -->
<svg id="WA--CB---------" width="400px" height="400px" viewBox="0 0 400 400">
<g >
<svg viewBox="0 0 400 400" id="_0.WA--CB---------" width="400px" height="400px"><g transform="translate(25 25) scale(10 10)"><path d="M0 17.598 C0 12.696 1.691 8.535 5.076 5.121 C8.461 1.707 12.602 0 17.5 0 C22.445      0 26.598 1.695 29.959 5.086 C33.318 8.477 35 12.646 35 17.598 C35 22.504 33.307      26.651 29.922 30.041 C26.537 33.431 22.397 35.125 17.5 35.125 C12.555 35.125      8.4 33.443 5.041 30.076 C1.68 26.711 0 22.551 0 17.598 zM17.5 17.75 L17.5      1 C12.699 1 8.809 2.572 5.832 5.713 C2.855 8.855 1.246 12.867 1.008 17.75 z"></path>
</g>
</svg>

</g>
</svg>