<?xml version="1.0"?>
<!DOCTYPE svg PUBLIC "-//W3C//DTD SVG 1.1//EN" "http://www.w3.org/Graphics/SVG/1.1/DTD/svg11.dtd" >
<!-- SVG content generated using Symbology Configuration Management System (SCMS) -->
<!-- Systematic Software Engineering Ltd. - www.systematic.co.uk - do not remove  -->
<svg id="G*TPJ-----****X" width="400px" height="400px" viewBox="0 0 400 400">
<g >
<svg viewBox="0 0 400 400" id="_0.G-TPJ---------X" width="400px" height="400px"><g transform="translate(-120 -100) scale(1.25 1.25)"><path d="M246.667 179.333 C116.291 183.275 126.957 341.718 245.778 343.333" style="fill:none;stroke:rgb(0,0,0);stroke-width:2" transform="matrix(1 0 0 1 -42 -26)"></path>
<line x1="249.378" y1="353.729" x2="249.452" y2="326.985" transform="matrix(1 0 0 1 -46.4444 -37.1111)" style="fill:none;stroke:rgb(0,0,0);stroke-width:2"></line>
<line x1="199" y1="339" x2="213" y2="316" transform="matrix(1 0 0 1 -39.7778 -32.2222)" style="fill:none;stroke:rgb(0,0,0);stroke-width:2"></line>
<line x1="166" y1="306" x2="192" y2="292" transform="matrix(1 0 0 1 -45.1111 -32.2222)" style="fill:none;stroke:rgb(0,0,0);stroke-width:2"></line>
<line x1="156" y1="270" x2="187" y2="267" transform="matrix(1 0 0 1 -44.6667 -26.8889)" style="fill:none;stroke:rgb(0,0,0);stroke-width:2"></line>
<line x1="162.45" y1="230.751" x2="190.45" y2="240.529" transform="matrix(1 0 0 1 -48.2222 -17.5556)" style="fill:none;stroke:rgb(0,0,0);stroke-width:2"></line>
<line x1="189.727" y1="197.493" x2="206.394" y2="223.715" transform="matrix(1 0 0 1 -43.7778 -27.7778)" style="fill:none;stroke:rgb(0,0,0);stroke-width:2"></line>
<line x1="217" y1="184" x2="225.737" y2="212.928" style="fill:none;stroke:rgb(0,0,0);stroke-width:2" transform="matrix(1 0 0 1 -42 -26)"></line>
<line x1="245.452" y1="179.5" x2="245.452" y2="208.642" style="fill:none;stroke:rgb(0,0,0);stroke-width:2" transform="matrix(1 0 0 1 -42 -26)"></line>
<line x1="220.394" y1="349.938" x2="231" y2="323" transform="matrix(1 0 0 1 -40.2222 -35.7778)" style="fill:none;stroke:rgb(0,0,0);stroke-width:2"></line>
<line x1="181" y1="325" x2="200" y2="307" transform="matrix(1 0 0 1 -43.7778 -32.2222)" style="fill:none;stroke:rgb(0,0,0);stroke-width:2"></line>
<line x1="171.783" y1="216.973" x2="195.339" y2="236.084" transform="matrix(1 0 0 1 -45.1111 -28.2222)" style="fill:none;stroke:rgb(0,0,0);stroke-width:2"></line>
<line x1="252" y1="260" x2="336" y2="260" style="fill:none;stroke:rgb(0,0,0);stroke-width:2" transform="matrix(1 0 0 1 -42 -26)"></line>
<line x1="253.028" y1="259.841" x2="274" y2="248" style="fill:none;stroke:rgb(0,0,0);stroke-width:2" transform="matrix(1 0 0 1 -42 -26)"></line>
<line x1="252.805" y1="260.285" x2="274" y2="273" style="fill:none;stroke:rgb(0,0,0);stroke-width:2" transform="matrix(1 0 0 1 -42 -26)"></line>
<text x="350px" y="269px" transform="matrix(1 0 0 1 -51 -30)" style="fill:rgb(0,0,0);font-size:12;font-family:Arial Black;font-weight:bold">ENY</text>
<line x1="376" y1="260" x2="444" y2="260" style="fill:none;stroke:rgb(0,0,0);stroke-width:2" transform="matrix(1 0 0 1 -42 -26)"></line>
</g>
</svg>

</g>
</svg>