<?xml version="1.0"?>
<!DOCTYPE svg PUBLIC "-//W3C//DTD SVG 1.1//EN" "http://www.w3.org/Graphics/SVG/1.1/DTD/svg11.dtd" >
<!-- SVG content generated using Symbology Configuration Management System (SCMS) -->
<!-- Systematic Software Engineering Ltd. - www.systematic.co.uk - do not remove  -->
<svg id="G*GPSAA---****X" width="400px" height="400px" viewBox="0 0 400 400">
<g >
<svg viewBox="0 0 400 400" id="_0.G-GPSAA-------X" width="400px" height="400px"><g transform="translate(-30 -20) scale(0.9 0.9)"><path d="M138 130 C131.489 146.278 139.513 154.116 138 170 C134.904 202.509 119.063 268.85      148 292 C157.073 299.259 168.364 304.413 180 306 C196.44 308.242 326.375 306.708      335 300 L349 279 C363.646 243.198 341.187 208.267 343 172 C343.462 162.754      349.25 135.35 344 128 C338.578 120.41 160.177 93.1048 137.8 130.4" style="fill:none;stroke:rgb(0,0,0);stroke-width:2" transform="matrix(1.73094 0 0 1.59274 -165.744 -103.942)"></path>
<text x="206px" y="348px" transform="matrix(1 0 0 1 -30 62)" style="fill:rgb(0,0,0);font-family:Arial Black;font-weight:bold;font-size:18">AIRHEAD LINE</text>
<g transform="matrix(1 0 0 1 12 -35)"><polyline points="33.6515,46.5455 32.5909,59.0909 33.6818,67.0909 39.5,70.7273 51.1364,70 63.5,70 71.5,67.0909       72.2273,56.9091 71.1364,48.5455 66.0455,44.1818 59.1364,44.5455       49.6818,47.4545 32.9545,47.0909" transform="matrix(1.80734 0 0 2.01713 155.688 135.061) translate(-33.7512 3.47028) translate(130.025 -60.9778) translate(-100.7 60.9778) translate(32.5909 57.4545) scale(1.60025 1) translate(-32.5909 -57.4545) translate(72.2273 57.4545) scale(1.30531 1) translate(-72.2273 -57.4545)" style="stroke:rgb(0,0,0);stroke-width:2;fill:none"></polyline>
<text x="184px" y="266px" style="fill:rgb(0,0,0);font-size:18;font-family:Arial Black;font-weight:bold">DA BOSTON</text>
</g>
<g transform="matrix(1 0 0 1 72 236)"><polyline points="33.6515,46.5455 32.5909,59.0909 33.6818,67.0909 39.5,70.7273 51.1364,70 63.5,70 71.5,67.0909       72.2273,56.9091 71.1364,48.5455 66.0455,44.1818 59.1364,44.5455       49.6818,47.4545 32.9545,47.0909" transform="translate(52.4091 44.1818) scale(1 1.60274) translate(-52.4091 -44.1818) translate(32.5909 57.4545) scale(1.50459 1) translate(-32.5909 -57.4545) translate(32.5909 57.4545) scale(1.20122 1) translate(-32.5909 -57.4545) translate(52.4091 44.1818) scale(1 1.25855) translate(-52.4091 -44.1818)" style="stroke:rgb(0,0,0);stroke-width:2;fill:none"></polyline>
<g transform="translate(32 -113)"><text x="230px" y="257px" transform="translate(-218 -71)" style="fill:rgb(0,0,0);font-size:18;font-family:Arial Black;font-weight:bold">OBJ</text>
<text x="28px" y="196px" transform="translate(0 7)" style="fill:rgb(0,0,0);font-size:18;font-family:Arial Black;font-weight:bold">A</text>
</g>
</g>
<g transform="matrix(1 0 0 1 -21 59)"><polyline points="33.6515,46.5455 32.5909,59.0909 33.6818,67.0909 39.5,70.7273 51.1364,70 63.5,70 71.5,67.0909       72.2273,56.9091 71.1364,48.5455 66.0455,44.1818 59.1364,44.5455       49.6818,47.4545 32.9545,47.0909" transform="matrix(1.80734 0 0 2.01713 155.688 135.061) translate(-44.2639 -87.2527)" style="stroke:rgb(0,0,0);stroke-width:2;fill:none"></polyline>
<g transform="translate(105 -388)"><text x="42px" y="465px" style="fill:rgb(0,0,0);font-size:18;font-family:Arial Black;font-weight:bold">OBJ</text>
<text x="58px" y="482px" style="fill:rgb(0,0,0);font-size:18;font-family:Arial Black;font-weight:bold">B</text>
</g>
</g>
<g transform="matrix(1 0 0 1 69 69)"><polyline points="33.6515,46.5455 32.5909,59.0909 33.6818,67.0909 39.5,70.7273 51.1364,70 63.5,70 71.5,67.0909       72.2273,56.9091 71.1364,48.5455 66.0455,44.1818 59.1364,44.5455       49.6818,47.4545 32.9545,47.0909" transform="matrix(1.80734 0 0 2.01713 155.688 135.061) translate(24.8984 -44.6179) translate(-6.08628 -47.0967)" style="stroke:rgb(0,0,0);stroke-width:2;fill:none"></polyline>
<text x="230px" y="257px" transform="matrix(1 0 0 1 36 -192)" style="fill:rgb(0,0,0);font-size:18;font-family:Arial Black;font-weight:bold">OBJ</text>
<text x="458px" y="186px" transform="matrix(1 0 0 1 -176 -102) translate(-3 0)" style="fill:rgb(0,0,0);font-size:18;font-family:Arial Black;font-weight:bold">C</text>
</g>
<g transform="matrix(1 0 0 1 -37 244)"><polyline points="33.6515,46.5455 32.5909,59.0909 33.6818,67.0909 39.5,70.7273 51.1364,70 63.5,70 71.5,67.0909       72.2273,56.9091 71.1364,48.5455 66.0455,44.1818 59.1364,44.5455       49.6818,47.4545 32.9545,47.0909" transform="matrix(1.80734 0 0 2.01713 155.688 135.061) translate(26.5583 6.44481) translate(52.5633 -98.6551)" style="stroke:rgb(0,0,0);stroke-width:2;fill:none"></polyline>
<g transform="translate(-79 -362)"><text x="230px" y="257px" transform="translate(221 171)" style="fill:rgb(0,0,0);font-size:18;font-family:Arial Black;font-weight:bold">OBJ</text>
<text x="468px" y="440px" transform="translate(-2 6)" style="fill:rgb(0,0,0);font-size:18;font-family:Arial Black;font-weight:bold">D</text>
</g>
</g>
<path d="M253.5 286 C240.716 333.939 263.909 373.76 254.5 420.807" style="fill:none;stroke:rgb(0,0,0);stroke-width:2" transform="matrix(1 0 0 1 -2 -37)"></path>
<path d="M334.5 261 C350.287 261 361.614 254.835 376.5 252 C398.311 247.846 416.275 259 437.5      259" style="fill:none;stroke:rgb(0,0,0);stroke-width:2" transform="matrix(1 0 0 1 -2 -37)"></path>
<path d="M182.5 262 C146.895 251.045 104.778 262.749 67.2831 259" style="fill:none;stroke:rgb(0,0,0);stroke-width:2" transform="matrix(1 0 0 1 -2 -37)"></path>
<path d="M256.5 240 C247.727 199.057 248.5 152.709 248.5 112" style="fill:none;stroke:rgb(0,0,0);stroke-width:2" transform="matrix(1 0 0 1 -2 -37)"></path>
<g transform="matrix(1 0 0 1 174 287)"><rect x="44" y="11" width="64" height="17" style="fill:rgb(255,255,255);stroke:none;stroke-width:2"></rect>
<g><text x="22px" y="194px" transform="translate(28 -168)" style="fill:rgb(0,0,0);font-size:18;font-family:Arial Black;font-weight:bold">A</text>
<text x="54px" y="188px" transform="translate(0 8) translate(-3 -2) translate(40 -168)" style="fill:rgb(0,0,0);font-size:18;font-family:Arial Black;font-weight:bold">D</text>
<line x1="66" y1="20" x2="86" y2="20" style="fill:rgb(0,0,0);stroke:rgb(0,0,0);stroke-width:2"></line>
</g>
</g>
<g transform="matrix(1 0 0 1 96 -151)"><rect x="16" y="340" width="26" height="64" style="fill:rgb(255,255,255);stroke:none;stroke-width:2"></rect>
<g><text x="30px" y="405px" transform="translate(-8 -51) translate(0 6)" style="fill:rgb(0,0,0);font-size:18;font-family:Arial Black;font-weight:bold">B</text>
<text x="34px" y="428px" transform="translate(-11 -33) translate(-2 2)" style="fill:rgb(0,0,0);font-size:18;font-family:Arial Black;font-weight:bold">A</text>
<line x1="28" y1="363" x2="28" y2="380" style="fill:rgb(0,0,0);stroke:rgb(0,0,0);stroke-width:2"></line>
</g>
</g>
<g transform="matrix(1 0 0 1 -92 -51)"><rect x="460" y="231" width="32" height="70" style="fill:rgb(255,255,255);stroke:none;stroke-width:2"></rect>
<g><text x="460px" y="253px" transform="translate(11 -14) translate(-3 13)" style="fill:rgb(0,0,0);font-size:18;font-family:Arial Black;font-weight:bold">C</text>
<text x="472px" y="289px" transform="translate(-6 17) translate(4 -11)" style="fill:rgb(0,0,0);font-size:18;font-family:Arial Black;font-weight:bold">D</text>
<line x1="476" y1="257" x2="476" y2="277" style="fill:rgb(0,0,0);stroke:rgb(0,0,0);stroke-width:2"></line>
</g>
</g>
<g transform="matrix(1 0 0 1 -221 7)"><rect x="428" y="107" width="72" height="24" style="fill:rgb(255,255,255);stroke:none;stroke-width:2"></rect>
<g><text x="448px" y="125px" transform="translate(-6 2)" style="fill:rgb(0,0,0);font-size:18;font-family:Arial Black;font-weight:bold">B</text>
<text x="486px" y="123px" transform="translate(-1 3)" style="fill:rgb(0,0,0);font-size:18;font-family:Arial Black;font-weight:bold">C</text>
<line x1="458" y1="121" x2="482" y2="121" style="fill:rgb(0,0,0);stroke:rgb(0,0,0);stroke-width:2"></line>
</g>
</g>
<text x="134px" y="462px" transform="matrix(1 0 0 1 0 0) translate(48.8372 -33.7209) translate(0 1)" style="fill:rgb(0,0,0);stroke-width:1;font-family:Arial Black;font-weight:bold;font-size:18;     ">(PL</text>
<g id="T"><text x="259px" y="470px" transform="matrix(1 0 0 1 0 0) translate(-36.0465 -43.0233) translate(0 1) translate(0 1)" style="fill:rgb(0,0,0);stroke-width:1;font-family:Arial Black;font-weight:bold;font-size:18;      ">DELTA)</text>
</g>
</g>
</svg>

</g>
</svg>