<?xml version="1.0"?>
<!DOCTYPE svg PUBLIC "-//W3C//DTD SVG 1.1//EN" "http://www.w3.org/Graphics/SVG/1.1/DTD/svg11.dtd" >
<!-- SVG content generated using Symbology Configuration Management System (SCMS) -->
<!-- Systematic Software Engineering Ltd. - www.systematic.co.uk - do not remove  -->
<svg id="G*FPLF----****X" width="400px" height="400px" viewBox="0 0 400 400">
<g >
<svg viewBox="0 0 400 400" id="_0.G-FPLF--------X" width="400px" height="400px"><g transform="translate(-40 -40) scale(0.9 0.9)"><path d="M157.5 202.5 C215.934 202.5 351.712 193.942 409.5 205.5" style="fill:none;stroke:rgb(0,0,0);stroke-width:2" transform="matrix(1 0 0 1 -18 2)"></path>
<path d="M339.5 151.5 C336.966 184.446 340.911 215.893 333.5 248.5 C331.687 256.476 328.69     261.172 330.5 269.5 C338.636 306.927 342.5 340.908 342.5 379.5" transform="matrix(1 0 0 1 53 3)" style="fill:none;stroke:rgb(0,0,0);stroke-width:2"></path>
<path d="M156.5 134.5 C157.393 163.517 155.15 192.967 160.5 221.5 C163.598 238.023 176.898     252.051 177.5 269.5 C178.874 309.337 158.623 338.115 167.5 382.5" style="fill:none;stroke:rgb(0,0,0);stroke-width:2" transform="matrix(1 0 0 1 -18 2)"></path>
<g id="W1"><text x="184px" y="226px" transform="matrix(1 0 0 1 -18 3)" style="fill:rgb(0,0,0);font-size:12;font-family:Arial Black;font-weight:bold">202100Z-</text>
</g>
<g id="W1%201"><text x="184px" y="242px" transform="matrix(1 0 0 1 -29 2)" style="fill:rgb(0,0,0);font-size:12;font-family:Arial Black;font-weight:bold">270800Z SEP</text>
</g>
<g id="W2"><text x="184px" y="226px" transform="matrix(1 0 0 1 118 3)" style="fill:rgb(0,0,0);font-size:12;font-family:Arial Black;font-weight:bold">202100Z-</text>
</g>
<g id="W1%202"><text x="184px" y="242px" transform="matrix(1 0 0 1 107 2)" style="fill:rgb(0,0,0);font-size:12;font-family:Arial Black;font-weight:bold">270800Z SEP</text>
</g>
<g transform="matrix(-1.83691e-016 -1 1 -1.83691e-016 -240.884 184.912)"><text x="44px" y="368px" style="fill:rgb(0,0,0);font-family:Arial Black;font-weight:bold;font-size:12">XIX (NO)</text>
<text x="56px" y="382px" style="fill:rgb(0,0,0);font-family:Arial Black;font-weight:bold;font-size:12">XXX</text>
<text x="48px" y="398px" transform="matrix(1 0 0 1 3 -4)" style="fill:rgb(0,0,0);font-size:12;font-family:Arial Black;font-weight:bold">X (US)</text>
</g>
<g transform="matrix(-1.83691e-016 -1 1 -1.83691e-016 -100.884 655.912)"><text x="48px" y="398px" transform="matrix(1 0 0 1 181 -131)" style="fill:rgb(0,0,0);font-size:12;font-family:Arial Black;font-weight:bold">X (US)</text>
<text x="234px" y="255px" style="fill:rgb(0,0,0);font-family:Arial Black;font-weight:bold;font-size:12">XXX</text>
<text x="222px" y="241px" style="fill:rgb(0,0,0);font-family:Arial Black;font-weight:bold;font-size:12">XIX (NO)</text>
</g>
<g transform="matrix(-1.83691e-016 -1 1 -1.83691e-016 -35.386 675.41)"><text x="248px" y="420px" transform="translate(3 3)" style="fill:rgb(0,0,0);font-family:Arial Black;font-weight:bold;font-size:12">X (US)</text>
<text x="258px" y="438px" style="fill:rgb(0,0,0);font-family:Arial Black;font-weight:bold;font-size:12">XXX</text>
<text x="246px" y="450px" transform="translate(7 2)" style="fill:rgb(0,0,0);font-family:Arial Black;font-weight:bold;font-size:12">V (UK)</text>
</g>
<g transform="matrix(-1.83691e-016 -1 1 -1.83691e-016 141.614 381.41)"><text x="248px" y="420px" transform="matrix(1 0 0 1 -20 -181)" style="fill:rgb(0,0,0);font-family:Arial Black;font-weight:bold;font-size:12">X (US)</text>
<text x="235px" y="254px" style="fill:rgb(0,0,0);font-family:Arial Black;font-weight:bold;font-size:12">XXX</text>
<text x="246px" y="450px" transform="matrix(1 0 0 1 -16 -182)" style="fill:rgb(0,0,0);font-family:Arial Black;font-weight:bold;font-size:12">V (UK)</text>
</g>
<text x="6px" y="40px" transform="matrix(1 0 0 1 0 0) translate(61.6279 168.605)" style="fill:rgb(0,0,0);stroke-width:1;font-family:Arial Black;font-weight:bold;font-size:12;    ">PL</text>
<g id="T1%201"><text x="75px" y="47px" transform="matrix(1 0 0 1 0 0) translate(13.9535 161.628)" style="fill:rgb(0,0,0);stroke-width:1;font-family:Arial Black;font-weight:bold;font-size:12;     ">ALPHA</text>
</g>
<text x="239px" y="52px" transform="matrix(1 0 0 1 0 0) translate(158.14 160.465)" style="fill:rgb(0,0,0);stroke-width:1;font-family:Arial Black;font-weight:bold;font-size:12;    ">PL</text>
<g id="T1%202"><text x="302px" y="50px" transform="matrix(1 0 0 1 0 0) translate(116.279 162.791)" style="fill:rgb(0,0,0);stroke-width:1;font-family:Arial Black;font-weight:bold;font-size:12;     ">ALPHA</text>
</g>
<g id="T1"><text x="149px" y="190px" transform="matrix(1 0 0 1 0 0) translate(-2.32558 4.65116)" style="fill:rgb(0,0,0);stroke-width:1;font-size:12;font-family:Arial Black;font-weight:bold;     ">X CORPS</text>
</g>
<text x="226px" y="191px" transform="matrix(1 0 0 1 0 0) translate(-15.1163 3.48837)" style="fill:rgb(0,0,0);stroke-width:1;font-size:12;font-family:Arial Black;font-weight:bold;    ">FSCL</text>
<g id="T2" transform="translate(0 1)"><text x="308px" y="186px" transform="matrix(1 0 0 1 0 0) translate(-22.093 5.81395)" style="fill:rgb(0,0,0);stroke-width:1;font-size:12;font-family:Arial Black;font-weight:bold;     ">X CORPS</text>
</g>
<text x="272px" y="115px" transform="matrix(1 0 0 1 0 0) translate(81.3953 76.7442) translate(0 1)" style="fill:rgb(0,0,0);stroke-width:1;font-size:12;font-family:Arial Black;font-weight:bold;    ">FSCL</text>
</g>
</svg>

</g>
</svg>