<?xml version="1.0"?>
<!DOCTYPE svg PUBLIC "-//W3C//DTD SVG 1.1//EN" "http://www.w3.org/Graphics/SVG/1.1/DTD/svg11.dtd" >
<!-- SVG content generated using Symbology Configuration Management System (SCMS) -->
<!-- Systematic Software Engineering Ltd. - www.systematic.co.uk - do not remove  -->
<svg id="G*GPDLF---****X" width="400px" height="400px" viewBox="0 0 400 400">
<g >
<svg viewBox="0 0 400 400" id="_0.G-GPDLF-------X" width="400px" height="400px"><g transform="translate(-60 -30)"><text x="148px" y="227px" transform="matrix(1 0 0 1 -55 -24)" style="fill:rgb(0,0,0);font-family:Arial Black;font-weight:bold;font-size:20">FEBA</text>
<text x="220px" y="258px" transform="matrix(1 0 0 1 152 -58)" style="fill:rgb(0,0,0);font-family:Arial Black;font-weight:bold;font-size:20">FEBA</text>
<circle cx="113" cy="107" r="17" transform="matrix(1 0 0 1 59.4167 88.417)" style="fill:rgb(255,255,255);stroke:rgb(0,0,0);stroke-width:2"></circle>
<line x1="99" y1="118" x2="124.669" y2="94.899" transform="matrix(1 0 0 1 60.1667 89.167)" style="fill:rgb(0,0,0);stroke:rgb(0,0,0);stroke-width:2"></line>
<line x1="99.6692" y1="94.5657" x2="124.669" y2="117.899" transform="matrix(1 0 0 1 60.1667 89.167)" style="fill:rgb(0,0,0);stroke:rgb(0,0,0);stroke-width:2"></line>
<circle cx="113" cy="107" r="17" transform="matrix(1 0 0 1 237.417 85.083)" style="fill:rgb(255,255,255);stroke:rgb(0,0,0);stroke-width:2"></circle>
<line x1="99" y1="118" x2="124.669" y2="94.899" transform="matrix(1 0 0 1 238.167 85.833)" style="fill:rgb(0,0,0);stroke:rgb(0,0,0);stroke-width:2"></line>
<line x1="99.6692" y1="94.5657" x2="124.669" y2="117.899" transform="matrix(1 0 0 1 238.167 85.833)" style="fill:rgb(0,0,0);stroke:rgb(0,0,0);stroke-width:2"></line>
<g id="PT.%202"><text x="350px" y="294px" transform="matrix(1 0 0 1 0 0) translate(-67 -34)" style="fill:rgb(0,0,0);stroke-width:1;font-family:Arial Black;font-weight:bold;font-size:12;     ">PT. 2</text>
</g>
<g id="PT.%201"><text x="120px" y="265px" transform="matrix(1 0 0 1 0 0) translate(77 -4)" style="fill:rgb(0,0,0);stroke-width:1;font-family:Arial Black;font-weight:bold;font-size:12;     ">PT. 1</text>
</g>
<line x1="320" y1="252" x2="348.508" y2="236.608" transform="matrix(1 0 0 1 0 0)" style="fill:rgb(0,0,0);stroke:rgb(0,0,0);stroke-width:2"></line>
<line x1="348" y1="237" x2="348" y2="218" transform="matrix(1 0 0 1 0 0)" style="fill:rgb(0,0,0);stroke:rgb(0,0,0);stroke-width:2"></line>
<line x1="194" y1="253" x2="171.658" y2="241.442" transform="matrix(1 0 0 1 0 0)" style="fill:rgb(0,0,0);stroke:rgb(0,0,0);stroke-width:2"></line>
<line x1="172" y1="242" x2="172" y2="224" transform="matrix(1 0 0 1 0 0)" style="fill:rgb(0,0,0);stroke:rgb(0,0,0);stroke-width:2"></line>
<polygon points="62,69.7679 64,73.2321 60,73.2321" transform="matrix(1 0 0 3.17543 0 -155.543) translate(110 46.9228) translate(0 0.629837) translate(0 0.909764)" style="fill:rgb(0,0,0);stroke:rgb(0,0,0);stroke-width:2"></polygon>
<polygon points="62,69.7679 64,73.2321 60,73.2321" transform="matrix(1 0 0 3.17543 188 25.457) translate(98 -10.7072) translate(0 0.7698) translate(0 0.559854)" style="fill:rgb(0,0,0);stroke:rgb(0,0,0);stroke-width:2"></polygon>
</g>
</svg>

</g>
</svg>