<?xml version="1.0"?>
<!DOCTYPE svg PUBLIC "-//W3C//DTD SVG 1.1//EN" "http://www.w3.org/Graphics/SVG/1.1/DTD/svg11.dtd" >
<!-- SVG content generated using Symbology Configuration Management System (SCMS) -->
<!-- Systematic Software Engineering Ltd. - www.systematic.co.uk - do not remove  -->
<svg id="G*GPDLF---****X" width="400px" height="400px" viewBox="0 0 400 400">
<g >
<svg viewBox="0 0 400 400" id="_0.G-GPDLF-------X" width="400px" height="400px"><g transform="translate(-50 -10)"><text x="220px" y="258px" transform="matrix(1 0 0 1 152 -58)" style="fill:rgb(0,0,0);font-family:Arial Black;font-weight:bold;font-size:20">FEBA</text>
<g transform="translate(-41 -4) translate(13 -3) translate(-2 4)"><text x="148px" y="227px" transform="matrix(1 0 0 1 -55 -24)" style="fill:rgb(0,0,0);font-family:Arial Black;font-weight:bold;font-size:20">FEBA</text>
<g id="PT.%201"><circle cx="113" cy="107" r="17" transform="matrix(1 0 0 1 59.4167 88.417)" style="fill:rgb(255,255,255);stroke:rgb(0,0,0);stroke-width:2"></circle>
</g>
<line x1="99" y1="118" x2="124.669" y2="94.899" transform="matrix(1 0 0 1 60.1667 89.167)" style="fill:rgb(0,0,0);stroke:rgb(0,0,0);stroke-width:2"></line>
<line x1="99.6692" y1="94.5657" x2="124.669" y2="117.899" transform="matrix(1 0 0 1 60.1667 89.167)" style="fill:rgb(0,0,0);stroke:rgb(0,0,0);stroke-width:2"></line>
</g>
<g id="PT.%202"><circle cx="113" cy="107" r="17" transform="matrix(1 0 0 1 237.417 85.083)" style="fill:rgb(255,255,255);stroke:rgb(0,0,0);stroke-width:2"></circle>
</g>
<line x1="99" y1="118" x2="124.669" y2="94.899" transform="matrix(1 0 0 1 238.167 85.833)" style="fill:rgb(0,0,0);stroke:rgb(0,0,0);stroke-width:2"></line>
<line x1="99.6692" y1="94.5657" x2="124.669" y2="117.899" transform="matrix(1 0 0 1 238.167 85.833)" style="fill:rgb(0,0,0);stroke:rgb(0,0,0);stroke-width:2"></line>
<g transform="translate(-3 65)"><path d="M156 104.75 C154.714 129.388 200.01 125.383 198.25 104.5" transform="matrix(1 0 0 1 18 51.5) translate(-3 -57)" style="fill:none;stroke:rgb(0,0,0);stroke-width:2"></path>
<path d="M229 241.75 C227.714 266.388 273.01 262.383 271.25 241.5" transform="matrix(1 0 0 1 -13 -86) translate(-3 -57)" style="fill:none;stroke:rgb(0,0,0);stroke-width:2"></path>
<path d="M229 241.75 C227.714 266.388 273.01 262.383 271.25 241.5" transform="matrix(1 0 0 1 29 -86) translate(-3 -57)" style="fill:none;stroke:rgb(0,0,0);stroke-width:2"></path>
<path d="M229 241.75 C227.714 266.388 273.01 262.383 271.25 241.5" transform="matrix(1 0 0 1 71.5 -85.5) translate(-3 -57)" style="fill:none;stroke:rgb(0,0,0);stroke-width:2"></path>
</g>
<g transform="matrix(1 0 0 -1 7 396.65) translate(-2 -72) translate(0 151)"><path d="M156 104.75 C154.714 129.388 200.01 125.383 198.25 104.5" transform="translate(4 0) translate(-1 0.5)" style="fill:none;stroke:rgb(0,0,0);stroke-width:2"></path>
<path d="M229 241.75 C227.714 266.388 273.01 262.383 271.25 241.5" transform="translate(-32 -137) translate(4 0)" style="fill:none;stroke:rgb(0,0,0);stroke-width:2"></path>
<path d="M229 241.75 C227.714 266.388 273.01 262.383 271.25 241.5" transform="translate(10 -137) translate(4 0)" style="fill:none;stroke:rgb(0,0,0);stroke-width:2"></path>
<path d="M229 241.75 C227.714 266.388 273.01 262.383 271.25 241.5" transform="translate(53 -136) translate(4 0) translate(-0.5 -0.5)" style="fill:none;stroke:rgb(0,0,0);stroke-width:2"></path>
</g>
</g>
</svg>

</g>
</svg>