<?xml version="1.0"?>
<!DOCTYPE svg PUBLIC "-//W3C//DTD SVG 1.1//EN" "http://www.w3.org/Graphics/SVG/1.1/DTD/svg11.dtd" >
<!-- SVG content generated using Symbology Configuration Management System (SCMS) -->
<!-- Systematic Software Engineering Ltd. - www.systematic.co.uk - do not remove  -->
<svg id="G*MPOMW---****X" width="400px" height="400px" viewBox="0 0 400 400">
<g >
<svg viewBox="0 0 400 400" id="_0.G-MPOMW-------X" width="400px" height="400px"><g transform="translate(-290 -260) scale(2 2)"><circle cx="218" cy="204.5" r="34" transform="matrix(1 0 0 1 42 9.3168)" style="fill:rgb(0,0,0);stroke:rgb(0,0,0);stroke-width:2"></circle>
<line x1="254" y1="279" x2="234" y2="333" transform="matrix(1 0 0 1 -12.8713 -34.6535)" style="fill:rgb(0,0,0);stroke:rgb(0,0,0);stroke-width:2"></line>
<line x1="234" y1="332.211" x2="196" y2="264" transform="matrix(1 0 0 1 -12.8713 -34.6535)" style="fill:rgb(0,0,0);stroke:rgb(0,0,0);stroke-width:2"></line>
<line x1="279" y1="231" x2="259" y2="285" transform="matrix(-1 0 0 1 557.49 11.8808)" style="fill:rgb(0,0,0);stroke:rgb(0,0,0);stroke-width:2"></line>
<line x1="259" y1="284.211" x2="221" y2="216" transform="matrix(-1 0 0 1 557.49 11.8808)" style="fill:rgb(0,0,0);stroke:rgb(0,0,0);stroke-width:2"></line>
<line x1="204" y1="181" x2="258" y2="215" transform="matrix(1 0 0 1 0 0) translate(-5 -3)" style="fill:rgb(128,128,128);stroke:rgb(128,128,128);stroke-width:2"></line>
<polygon points="118,73.8038 124,84.1962 112,84.1962" transform="matrix(-0.460009 0.887914 -1.53791 -0.796759 460.776 82.1701) translate(93.1883 -11.618) translate(-0.791601 4.13817)" style="fill:rgb(128,128,128);stroke:rgb(128,128,128);stroke-width:2"></polygon>
<g id="CENTER%20POINT" transform="translate(43 67)"><text x="104px" y="106px" transform="matrix(1 0 0 1 0 0)" style="fill:rgb(0,0,0);stroke-width:1;font-family:Arial Black;font-weight:bold;font-size:12;      ">CENTER</text>
<text x="104px" y="128px" transform="matrix(1 0 0 1 0 0) translate(4 -12)" style="fill:rgb(0,0,0);stroke-width:1;font-family:Arial Black;font-weight:bold;font-size:12;      ">POINT</text>
</g>
</g>
</svg>

</g>
</svg>