<?xml version="1.0"?>
<!DOCTYPE svg PUBLIC "-//W3C//DTD SVG 1.1//EN" "http://www.w3.org/Graphics/SVG/1.1/DTD/svg11.dtd" >
<!-- SVG content generated using Symbology Configuration Management System (SCMS) -->
<!-- Systematic Software Engineering Ltd. - www.systematic.co.uk - do not remove  -->
<svg id="WA--RRS--------" width="400px" height="400px" viewBox="0 0 400 400">
<g >
<svg viewBox="0 0 400 400" id="_0.WA--RRS--------" width="400px" height="400px"><g transform="translate(70 10) scale(12 12)"><path d="M11.086 31.25 L0 12.75 L21.383 12.75 zM1.996 13.875 L11.113 28.891 L19.328 13.875      zM15.604 5.25 C15.604 6.689 15.088 7.924 14.057 8.955 C13.026 9.986 11.791      10.5 10.354 10.5 C8.915 10.5 7.68 9.986 6.649 8.955 C5.618 7.924 5.104 6.689      5.104 5.25 C5.104 3.812 5.618 2.578 6.649 1.547 C7.68 0.516 8.914 0 10.354      0 C11.792 0 13.026 0.516 14.057 1.547 C15.088 2.578 15.604 3.813 15.604 5.25      z" style="fill:rgb(0,255,0)"></path>
</g>
</svg>

</g>
</svg>