<?xml version="1.0"?>
<!DOCTYPE svg PUBLIC "-//W3C//DTD SVG 1.1//EN" "http://www.w3.org/Graphics/SVG/1.1/DTD/svg11.dtd" >
<!-- SVG content generated using Symbology Configuration Management System (SCMS) -->
<!-- Systematic Software Engineering Ltd. - www.systematic.co.uk - do not remove  -->
<svg id="G*MPNEC---****X" width="400px" height="400px" viewBox="0 0 400 400">
<g >
<svg viewBox="0 0 400 400" id="_0.G-M-C---------X" width="400px" height="400px"><circle cx="200" cy="235" r="40" transform="matrix(1 0 0 1 0 0) translate(160 220) scale(1 1) translate(-160 -220)" style="fill:rgb(255,255,128);stroke:rgb(0,0,0);stroke-width:5"></circle>
<polyline points="185,199.75 185,125 215,125 215,199.75" style="fill:rgb(255,255,128);stroke:rgb(0,0,0);stroke-width:5"></polyline>
<text x="188px" y="245px" transform="matrix(1 0 0 1 0 0) translate(0 0)" style="fill:rgb(0,0,0);stroke:rgb(0,0,0);font-size:32;font-family:Arial">C</text>
</svg>

</g>
<g >
<svg viewBox="0 0 400 400" id="_1.G-M-C--------LX" width="400px" height="400px"><rect x="60" y="184" width="80" height="32" style="fill:rgb(255,255,255);stroke:rgb(255,255,255);stroke-width:1" transform="translate(67 200) scale(1 1) translate(-67 -200)"></rect>
<text x="62px" y="213px" style="fill:rgb(0,0,0);stroke:rgb(0,0,0);font-size:36;font-family:Arial">CML</text>
</svg>

</g>
<g transform="translate(-100 -50)" >
<svg viewBox="0 0 400 400" id="_2.G-----------PWW" width="400px" height="400px"><rect x="150" y="175" width="100" height="50" transform="matrix(1 0 0 1 0 0) translate(0 0) translate(0 0) translate(0 0)" style="fill:none;stroke:rgb(0,0,0);stroke-width:5"></rect>
<text x="184px" y="213px" transform="matrix(1 0 0 1 0 0)" style="fill:rgb(0,0,0);stroke:rgb(0,0,0);font-size:36;font-family:Arial">W</text>
</svg>

</g>
<g transform="translate(100 -50)" >
<svg viewBox="0 0 400 400" id="_3.G-----------PHW" width="400px" height="400px"><rect x="150" y="175" width="100" height="50" transform="matrix(1 0 0 1 0 0) translate(0 0) translate(0 0) translate(0 0)" style="fill:none;stroke:rgb(0,0,0);stroke-width:5"></rect>
<text x="187px" y="213px" transform="matrix(1 0 0 1 0 0)" style="fill:rgb(0,0,0);stroke:rgb(0,0,0);font-size:36;font-family:Arial">H</text>
</svg>

</g>
<g transform="translate(100 50)" >
<svg viewBox="0 0 400 400" id="_4.G-----------PNW" width="400px" height="400px"><rect x="150" y="175" width="100" height="50" transform="matrix(1 0 0 1 0 0) translate(0 0) translate(0 0) translate(0 0)" style="fill:none;stroke:rgb(0,0,0);stroke-width:5"></rect>
<text x="187px" y="213px" transform="matrix(1 0 0 1 0 0) translate(0 0)" style="fill:rgb(0,0,0);stroke:rgb(0,0,0);font-size:36;font-family:Arial">N</text>
</svg>

</g>
<g transform="translate(-100 50)" >
<svg viewBox="0 0 400 400" id="_5.G-----------PTW" width="400px" height="400px"><rect x="150" y="175" width="100" height="50" transform="matrix(1 0 0 1 0 0) translate(0 0) translate(0 0) translate(0 0)" style="fill:none;stroke:rgb(0,0,0);stroke-width:5"></rect>
<text x="189px" y="213px" transform="matrix(1 0 0 1 0 0)" style="fill:rgb(0,0,0);stroke:rgb(0,0,0);font-size:36;font-family:Arial">T</text>
</svg>

</g>
<g transform="translate(0 100)" >
<svg viewBox="0 0 400 400" id="_6.G-----------PYW" width="400px" height="400px"><rect x="150" y="175" width="100" height="50" transform="matrix(1 0 0 1 0 0) translate(0 0) translate(0 0) translate(0 0)" style="fill:none;stroke:rgb(0,0,0);stroke-width:5"></rect>
<text x="188px" y="213px" transform="matrix(1 0 0 1 0 0)" style="fill:rgb(0,0,0);stroke:rgb(0,0,0);font-size:36;font-family:Arial">Y</text>
</svg>

</g>
<g transform="translate(0 150)" >
<svg viewBox="0 0 400 400" id="_7.G-----------PQW" width="400px" height="400px"><rect x="150" y="175" width="100" height="50" transform="matrix(1 0 0 1 0 0) translate(0 0) translate(0 0) translate(0 0)" style="fill:none;stroke:rgb(0,0,0);stroke-width:5"></rect>
<text x="186px" y="213px" transform="matrix(1 0 0 1 0 0)" style="fill:rgb(0,0,0);stroke:rgb(0,0,0);font-size:36;font-family:Arial">Q</text>
</svg>

</g>
<g transform="translate(120 0)" >
<svg viewBox="0 0 400 400" id="_8.GA1-----------X" width="400px" height="400px"><text x="128px" y="207px" style="fill:rgb(0,0,0);stroke:rgb(0,0,0);font-size:24;font-family:Arial">ANCHOR PT.</text>
</svg>

</g>
<g >
<svg viewBox="0 0 400 400" id="_9.GAR9----------X" width="400px" height="400px"><line x1="243" y1="208" x2="201" y2="268" style="fill:none;stroke:rgb(0,0,0);stroke-width:3"></line>
<polygon points="200.823,268.419 203.68,257.693 209.264,261.824" style="fill:rgb(0,0,0);stroke:rgb(0,0,0);stroke-width:3"></polygon>
</svg>

</g>
</svg>