<?xml version="1.0"?>
<!DOCTYPE svg PUBLIC "-//W3C//DTD SVG 1.1//EN" "http://www.w3.org/Graphics/SVG/1.1/DTD/svg11.dtd" >
<!-- SVG content generated using Symbology Configuration Management System (SCMS) -->
<!-- Systematic Software Engineering Ltd. - www.systematic.co.uk - do not remove  -->
<svg id="G*MPOED---****X" width="400px" height="400px" viewBox="0 0 400 400">
<g >
<svg viewBox="0 0 400 400" id="_0.G-MPOED-------X" width="400px" height="400px"><g transform="translate(-60 -10) scale(1 1)"><line x1="382" y1="199" x2="192" y2="199" style="fill:rgb(0,0,0);stroke:rgb(0,0,0);stroke-width:2"></line>
<line x1="384" y1="139" x2="134" y2="139" style="fill:rgb(0,0,0);stroke:rgb(0,0,0);stroke-width:2"></line>
<line x1="384" y1="261" x2="236" y2="261" style="fill:rgb(0,0,0);stroke:rgb(0,0,0);stroke-width:2"></line>
<line x1="383.35" y1="170" x2="416" y2="170" style="fill:rgb(0,0,0);stroke:rgb(0,0,0);stroke-width:2"></line>
<line x1="382.975" y1="139.5" x2="382.975" y2="261.5" style="fill:rgb(0,0,0);stroke:rgb(0,0,0);stroke-width:2"></line>
<polygon points="65,66.2417 78,88.7583 52,88.7583" transform="matrix(-1.83691e-016 -1 1.73205 -3.18162e-016 -68.3679 141.634) translate(-63 27.1355)" style="fill:rgb(0,0,0);stroke:rgb(0,0,0);stroke-width:2"></polygon>
<polygon points="65,66.2417 78,88.7583 52,88.7583" transform="matrix(-1.83691e-016 -1 1.73205 -3.18162e-016 117.632 315.634) translate(-11 -21.362)" style="fill:rgb(0,0,0);stroke:rgb(0,0,0);stroke-width:2"></polygon>
<polygon points="65,66.2417 78,88.7583 52,88.7583" transform="matrix(-1.83691e-016 -1 1.73205 -3.18162e-016 117.632 315.634) translate(-73 -93.5308) translate(126 46.7654)" style="fill:rgb(0,0,0);stroke:rgb(0,0,0);stroke-width:2"></polygon>
</g>
</svg>

</g>
</svg>