<?xml version="1.0"?>
<!DOCTYPE svg PUBLIC "-//W3C//DTD SVG 1.1//EN" "http://www.w3.org/Graphics/SVG/1.1/DTD/svg11.dtd" >
<!-- SVG content generated using Symbology Configuration Management System (SCMS) -->
<!-- Systematic Software Engineering Ltd. - www.systematic.co.uk - do not remove  -->
<svg id="G*MPOGZ---****X" width="400px" height="400px" viewBox="0 0 400 400">
<g >
<svg viewBox="0 0 400 400" id="_0.G-MPOGZ-------X" width="400px" height="400px"><g transform="translate(-170 -110) scale(1.5 1.5)"><polyline points="148.097,237.104 155.986,237.104 165.319,261.266 174.572,237.185 208.764,237.185 219.453,263.044      230.208,237.266 260.43,237.266 271.097,262.155 283.016,237.104      322.208,237.104 332.875,260.377 343.986,237.549 353.4,237.549" style="stroke:rgb(0,0,0);stroke-width:2;fill:rgb(255,255,255)" transform="matrix(1 0 0 1 -4.88462 39.7308)"></polyline>
<polyline points="144.592,264.52 155.7,264.651 165.033,240.489 174.286,264.57 208.478,264.57 219.167,238.711      229.922,264.489 260.144,264.489 270.811,239.6 282.73,264.651 321.922,264.651      332.589,241.378 343.7,264.206 356.686,264.249" style="stroke:rgb(0,0,0);stroke-width:2;fill:rgb(255,255,255)" transform="matrix(0.970045 0.242924 -0.242924 0.970045 66.0909 -166.605)"></polyline>
<polyline points="141.957,127.671 150.451,127.671 159.905,103.671 168.996,128.035 203.178,128.035 213.723,101.853      223.905,126.58 254.814,126.58 265.36,102.58 276.996,126.58 295.594,126.58" transform="matrix(-1.83691e-016 -1 1 -1.83691e-016 15.7107 419.703)" style="stroke:rgb(0,0,0);stroke-width:2;fill:rgb(255,255,255)"></polyline>
<polyline points="141.542,127.671 150.633,127.671 159.723,104.035 169.178,127.671 202.996,127.671 213.905,101.853      225.178,126.944 242.918,126.944" transform="matrix(6.12303e-017 1 -1 6.12303e-017 474.701 34.6301)" style="stroke:rgb(0,0,0);stroke-width:2;fill:rgb(255,255,255)"></polyline>
<g id="T"><text x="264px" y="376px" transform="matrix(1 0 0 1 0 0) translate(-50 -159)" style="fill:rgb(0,0,0);font-size:18;font-family:Arial Black;font-weight:bold">27 AD</text>
</g>
</g>
</svg>

</g>
</svg>