<?xml version="1.0"?>
<!DOCTYPE svg PUBLIC "-//W3C//DTD SVG 1.1//EN" "http://www.w3.org/Graphics/SVG/1.1/DTD/svg11.dtd" >
<!-- SVG content generated using Symbology Configuration Management System (SCMS) -->
<!-- Systematic Software Engineering Ltd. - www.systematic.co.uk - do not remove  -->
<svg id="G*GPOLC---****X" width="400px" height="400px" viewBox="0 0 400 400">
<g >
<svg viewBox="0 0 400 400" id="_0.G-GPOLC-------X" width="400px" height="400px"><g transform="translate(-10 20) scale(0.8 0.8)"><path d="M145.25 172.5 C176.468 149.796 204.65 108.364 240.5 93 C276.524 77.5612 322.658 83.1908      366.75 84" style="fill:none;stroke:rgb(0,0,0);stroke-width:2"></path>
<path d="M368.5 47 C361.366 125.472 369.619 219.033 366.5 297 C366.5 297 362 369 360.5 393" style="fill:none;stroke:rgb(0,0,0);stroke-width:2"></path>
<path d="M147.5 123 C148.995 148.42 143.16 185.107 141.5 210 C137.186 274.715 141.5 342.02      141.5 407" style="fill:none;stroke:rgb(0,0,0);stroke-width:2"></path>
<text x="224px" y="299px" transform="matrix(1 0 0 1 -172 -133)" style="fill:rgb(0,0,0);font-size:18;font-family:Arial Black;font-weight:bold">LD/LC</text>
<text x="138px" y="455px" transform="matrix(-1.83691e-016 -1 1 -1.83691e-016 -343.1 498.594)" style="fill:rgb(0,0,0);font-size:18;font-family:Arial Black;font-weight:bold">21 ID (L)</text>
<text x="176px" y="414px" transform="matrix(-1.83691e-016 -1 1 -1.83691e-016 -244.544 537.15)" style="fill:rgb(0,0,0);font-size:18;font-family:Arial Black;font-weight:bold">54 ID (M)</text>
<text x="298px" y="443px" transform="matrix(-1.83691e-016 -1 1 -1.83691e-016 -40.961 692.733)" style="fill:rgb(0,0,0);font-size:18;font-family:Arial Black;font-weight:bold">65 ID (M)(SA)</text>
<g transform="matrix(1 0 0 1 -39 -99)"><rect x="168" y="401" width="20" height="37" style="fill:rgb(255,255,255);stroke:none;stroke-width:2"></rect>
<text x="342px" y="483px" transform="matrix(-1.83691e-016 -1 1 -1.83691e-016 -120.516 832.596) translate(57 -178)" style="fill:rgb(0,0,0);font-size:18;font-family:Arial Black;font-weight:bold">XX</text>
</g>
<text x="224px" y="299px" transform="matrix(1 0 0 1 175 -225)" style="fill:rgb(0,0,0);font-size:18;font-family:Arial Black;font-weight:bold">LD/LC</text>
<text x="176px" y="414px" transform="matrix(-1.83691e-016 -1 1 -1.83691e-016 -66.544 533.15)" style="fill:rgb(0,0,0);font-size:18;font-family:Arial Black;font-weight:bold">54 ID (M)</text>
<g transform="matrix(1 0 0 1 117 62)"><rect x="240" y="232" width="20" height="37" style="fill:rgb(255,255,255);stroke:none;stroke-width:2"></rect>
<text x="342px" y="483px" transform="matrix(-1.83691e-016 -1 1 -1.83691e-016 -226.516 606.596)" style="fill:rgb(0,0,0);font-size:18;font-family:Arial Black;font-weight:bold">XX</text>
</g>
<text x="23px" y="69px" transform="matrix(1 0 0 1 0 0) translate(10.4651 113.953) translate(0 1) translate(-1 0) translate(0 1)" style="fill:rgb(0,0,0);stroke-width:1;font-family:Arial Black;font-weight:bold;font-size:18;     ">(PL</text>
<g id="T1"><text x="91px" y="87px" transform="matrix(1 0 0 1 0 0) translate(-24.4186 97.6744)" style="fill:rgb(0,0,0);stroke-width:1;font-family:Arial Black;font-weight:bold;font-size:18;      ">DELTA)</text>
</g>
<text x="234px" y="26px" transform="matrix(1 0 0 1 0 0) translate(138.372 68.6047)" style="fill:rgb(0,0,0);stroke-width:1;font-family:Arial Black;font-weight:bold;font-size:18;     ">(PL</text>
<g id="T2"><text x="228px" y="62px" transform="matrix(1 0 0 1 0 0) translate(180.233 30.2326) translate(0 1) translate(0 1)" style="fill:rgb(0,0,0);stroke-width:1;font-family:Arial Black;font-weight:bold;font-size:18;      ">DELTA)</text>
</g>
</g>
</svg>

</g>
</svg>