<?xml version="1.0"?>
<!DOCTYPE svg PUBLIC "-//W3C//DTD SVG 1.1//EN" "http://www.w3.org/Graphics/SVG/1.1/DTD/svg11.dtd" >
<!-- SVG content generated using Symbology Configuration Management System (SCMS) -->
<!-- Systematic Software Engineering Ltd. - www.systematic.co.uk - do not remove  -->
<svg id="G*MPOED---****X" width="400px" height="400px" viewBox="0 0 400 400">
<g >
<svg viewBox="0 0 400 400" id="_0.G-MPOED-------X" width="400px" height="400px"><g transform="translate(-70 -30) scale(1 1)"><line x1="382" y1="199" x2="192" y2="199" style="fill:rgb(0,0,0);stroke:rgb(0,0,0);stroke-width:2" transform="matrix(1 0 0 1 2 23)"></line>
<line x1="384" y1="139" x2="134" y2="139" style="fill:rgb(0,0,0);stroke:rgb(0,0,0);stroke-width:2" transform="matrix(1 0 0 1 2 23)"></line>
<line x1="384" y1="261" x2="236" y2="261" style="fill:rgb(0,0,0);stroke:rgb(0,0,0);stroke-width:2" transform="matrix(1 0 0 1 2 23)"></line>
<line x1="383.35" y1="170" x2="416" y2="170" style="fill:rgb(0,0,0);stroke:rgb(0,0,0);stroke-width:2" transform="matrix(1 0 0 1 2 23)"></line>
<line x1="382.975" y1="139.5" x2="382.975" y2="261.5" style="fill:rgb(0,0,0);stroke:rgb(0,0,0);stroke-width:2" transform="matrix(1 0 0 1 2 23)"></line>
<polygon points="65,66.2417 78,88.7583 52,88.7583" transform="matrix(-1.83691e-016 -1 1.73205 -3.18162e-016 -19.3679 227.634)" style="fill:rgb(0,0,0);stroke:rgb(0,0,0);stroke-width:2"></polygon>
<polygon points="65,66.2417 78,88.7583 52,88.7583" transform="matrix(-1.83691e-016 -1 1.73205 -3.18162e-016 82.6319 349.634)" style="fill:rgb(0,0,0);stroke:rgb(0,0,0);stroke-width:2"></polygon>
<polygon points="65,66.2417 78,88.7583 52,88.7583" transform="matrix(-1.83691e-016 -1 1.73205 -3.18162e-016 38.632 285.634)" style="fill:rgb(0,0,0);stroke:rgb(0,0,0);stroke-width:2"></polygon>
<g id="PT.%201" transform="translate(367 107) translate(-6 -7)"><text x="64px" y="91px" transform="matrix(1 0 0 1 0 0)" style="fill:rgb(0,0,0);stroke-width:1;font-family:Arial Black;font-weight:bold;font-size:12;      ">PT. 1</text>
</g>
<g id="PT.%202" transform="translate(166 188)"><text x="258px" y="74px" transform="matrix(1 0 0 1 0 0)" style="fill:rgb(0,0,0);stroke-width:1;font-family:Arial Black;font-weight:bold;font-size:12;      ">PT. 2</text>
</g>
<g id="PT.%203" transform="translate(-156 94)"><text x="234px" y="121px" transform="matrix(1 0 0 1 0 0)" style="fill:rgb(0,0,0);stroke-width:1;font-family:Arial Black;font-weight:bold;font-size:12;      ">PT. 3</text>
</g>
<line x1="92" y1="176" x2="92" y2="201" transform="matrix(1 0 0 1 0 0)" style="fill:rgb(0,0,0);stroke:rgb(0,0,0);stroke-width:2"></line>
<line x1="394" y1="161" x2="434" y2="161" transform="matrix(1 0 0 1 0 0)" style="fill:rgb(0,0,0);stroke:rgb(0,0,0);stroke-width:2"></line>
<line x1="433.11" y1="160.803" x2="437.5" y2="178" transform="matrix(1 0 0 1 0 0)" style="fill:rgb(0,0,0);stroke:rgb(0,0,0);stroke-width:2"></line>
<line x1="396" y1="284" x2="426" y2="284" transform="matrix(1 0 0 1 0 0)" style="fill:rgb(0,0,0);stroke:rgb(0,0,0);stroke-width:2"></line>
<line x1="425.277" y1="284.303" x2="440" y2="267" transform="matrix(1 0 0 1 0 0)" style="fill:rgb(0,0,0);stroke:rgb(0,0,0);stroke-width:2"></line>
<polygon points="43,151.17 48,159.83 38,159.83" transform="matrix(1 0 0 1.27017 0 -42.0115) translate(49 14.9586)" style="fill:rgb(0,0,0);stroke:rgb(0,0,0);stroke-width:2"></polygon>
<polygon points="43,151.17 48,159.83 38,159.83" transform="matrix(-1.83691e-016 -1 1.27017 -2.33319e-016 53.1236 293.865) translate(88 113.371) translate(1 0) translate(1 0)" style="fill:rgb(0,0,0);stroke:rgb(0,0,0);stroke-width:2"></polygon>
<polygon points="43,151.17 48,159.83 38,159.83" transform="matrix(-1.83691e-016 -1 1.27017 -2.33319e-016 53.1236 293.865) translate(-33 111.796)" style="fill:rgb(0,0,0);stroke:rgb(0,0,0);stroke-width:2"></polygon>
</g>
</svg>

</g>
</svg>