<?xml version="1.0"?>
<!DOCTYPE svg PUBLIC "-//W3C//DTD SVG 1.1//EN" "http://www.w3.org/Graphics/SVG/1.1/DTD/svg11.dtd" >
<!-- SVG content generated using Symbology Configuration Management System (SCMS) -->
<!-- Systematic Software Engineering Ltd. - www.systematic.co.uk - do not remove  -->
<svg id="WA--RRDF-------" width="400px" height="400px" viewBox="0 0 400 400">
<g >
<svg viewBox="0 0 400 400" id="_0.WA--RRDF-------" width="400px" height="400px"><g transform="translate(25 110) scale(7 7)"><path d="M12.689 1 C9.391 1 6.605 2.152 4.336 4.453 C2.067 6.754 0.932 9.558 0.932 12.865      L0 12.865 C0 9.271 1.225 6.23 3.674 3.738 C6.123 1.246 9.148 0 12.75 0 C16.398      0 19.436 1.246 21.861 3.738 C24.286 6.23 25.5 9.297 25.5 12.938 L24.375 12.938      C24.375 9.536 23.264 6.694 21.041 4.417 C18.818 2.14 16.033 1 12.689 1      zM17.5 8.938 C17.5 10.28 17.029 11.417 16.088 12.35 C15.147 13.283 14.002 13.75      12.65 13.75 C11.298 13.75 10.166 13.283 9.25 12.35 C8.332 11.416 7.875      10.28 7.875 8.938 C7.875 7.598 8.332 6.459 9.25 5.526 C10.166 4.592 11.299 4.126      12.65 4.126 C14.001 4.126 15.146 4.593 16.088 5.526 C17.03 6.459 17.5 7.598      17.5 8.938 zM12.672 4.125 C14.303 4.125 15.682 4.691 16.809 5.82 C17.936      6.951 18.5 8.334 18.5 9.967 C18.5 15.498 16.605 19.225 12.816 21.147 C14.687      18.12 15.625 15.377 15.625 12.924 zM37.309 24.75 C40.622 24.75 43.416 23.598      45.698 21.293 C47.977 18.988 49.118 16.18 49.118 12.865 L50.126 12.865 C50.126      16.451 48.884 19.472 46.401 21.933 C43.917 24.394 40.868 25.624 37.251      25.624 C33.683 25.624 30.646 24.382 28.138 21.897 C25.63 19.412 24.376 16.401      24.376 12.864 L25.5 12.864 C25.5 16.178 26.639 18.987 28.92 21.292 C31.199      23.598 33.996 24.75 37.309 24.75 zM42 8.938 C42 10.28 41.533 11.417 40.6      12.35 C39.667 13.283 38.528 13.75 37.188 13.75 C35.846 13.75 34.709 13.283 33.776      12.35 C32.843 11.417 32.376 10.28 32.376 8.938 C32.376 7.598 32.843 6.459      33.776 5.526 C34.709 4.593 35.846 4.126 37.188 4.126 C38.528 4.126 39.667      4.593 40.6 5.526 C41.533 6.459 42 7.598 42 8.938 zM37.225 4.125 C38.793 4.125      40.149 4.703 41.289 5.857 C42.429 7.011 43 8.381 43 9.967 C43 15.498 41.123      19.225 37.369 21.147 C39.205 18.12 40.125 15.377 40.125 12.924 z" style="fill:rgb(255,0,0)"></path>
</g>
</svg>

</g>
</svg>