<?xml version="1.0"?>
<!DOCTYPE svg PUBLIC "-//W3C//DTD SVG 1.1//EN" "http://www.w3.org/Graphics/SVG/1.1/DTD/svg11.dtd" >
<!-- SVG content generated using Symbology Configuration Management System (SCMS) -->
<!-- Systematic Software Engineering Ltd. - www.systematic.co.uk - do not remove  -->
<svg id="SFGPUCFHX-*****" width="400px" height="400px" viewBox="0 0 400 400">
<g >
<svg viewBox="0 0 400 400" id="_0.SFG-U----------" width="400px" height="400px"><rect x="20" y="80" width="360" height="240" style="fill:rgb(128,224,255);stroke:rgb(0,0,0);stroke-width:10"></rect>
</svg>

</g>
<g >
<svg viewBox="0 0 400 400" id="_1.S-G-UCF--------" width="400px" height="400px"><ellipse cx="200" cy="200" rx="18" ry="18" style="fill:rgb(0,0,0);stroke:rgb(0,0,0);stroke-width:10"></ellipse>
</svg>

</g>
<g >
<svg viewBox="0 0 400 400" id="_2.SFG-UCATW------" width="400px" height="400px"><path d="M20 219 C20 222 53 230 53 200 C53 170 95 170 95 200 C95 230 137 230 137 200 C137     170 179 170 179 200 C179 230 221 230 221 200 C221 170 263 170 263 200 C263 230     305 230 305 200 C305 170 347 170 347 200 C347 230 380 222 380 219" style="fill:none;stroke:rgb(0,0,0);stroke-width:10"></path>
</svg>

</g>
</svg>