<?xml version="1.0"?>
<!DOCTYPE svg PUBLIC "-//W3C//DTD SVG 1.1//EN" "http://www.w3.org/Graphics/SVG/1.1/DTD/svg11.dtd" >
<!-- SVG content generated using Symbology Configuration Management System (SCMS) -->
<!-- Systematic Software Engineering Ltd. - www.systematic.co.uk - do not remove  -->
<svg id="G*MPOAW---****X" width="400px" height="400px" viewBox="0 0 400 400">
<g >
<svg viewBox="0 0 400 400" id="_0.G-MPOAW-------X" width="400px" height="400px"><g transform="translate(-230 -180) scale(1.5 1.5)"><polyline points="129.557,127.671 150.451,127.671 159.905,103.671 168.996,128.035 203.178,128.035 213.723,101.853      223.905,126.58 254.814,126.58 265.36,102.58 276.996,126.58 295.594,126.58" transform="matrix(-1 3.67382e-016 -3.67382e-016 -1 464.605 312.046)" style="stroke:rgb(0,0,0);stroke-width:2;fill:rgb(255,255,255)"></polyline>
<g transform="translate(98 -3)"><g><rect x="118" y="262" width="64" height="62" transform="rotate(46.9884 150 293)" style="fill:rgb(255,128,128);stroke:rgb(0,0,0);stroke-width:2"></rect>
<path d="M148 286 C162.359 286 175 283.925 174 297 C173 310.075 162.359 308 148 308 C133.641        308 122 311.075 122 297 C122 282.925 133.641 286 148 286 z" transform="translate(1 -4)" style="fill:rgb(255,128,128);stroke:rgb(0,0,0);stroke-width:2"></path>
<text x="138px" y="235px" transform="translate(8 9)" style="fill:rgb(0,0,0);font-size:12;font-family:Arial Black;font-weight:bold">II</text>
</g>
</g>
<g transform="translate(-3 -13)"><line x1="388" y1="223" x2="388" y2="326" style="fill:rgb(0,0,0);stroke:rgb(0,0,0);stroke-width:2"></line>
<line x1="387.564" y1="325.111" x2="372" y2="302" style="fill:rgb(0,0,0);stroke:rgb(0,0,0);stroke-width:2"></line>
<line x1="388.231" y1="325.111" x2="406.5" y2="302" style="fill:rgb(0,0,0);stroke:rgb(0,0,0);stroke-width:2"></line>
</g>
<text x="366px" y="187px" transform="translate(-4 1)" style="fill:rgb(0,0,0);font-size:12;font-family:Arial Black;font-weight:bold">Toward</text>
<text x="364px" y="200px" style="fill:rgb(0,0,0);font-size:12;font-family:Arial Black;font-weight:bold">Enemy</text>
</g>
</svg>

</g>
</svg>