<?xml version="1.0"?>
<!DOCTYPE svg PUBLIC "-//W3C//DTD SVG 1.1//EN" "http://www.w3.org/Graphics/SVG/1.1/DTD/svg11.dtd" >
<!-- SVG content generated using Symbology Configuration Management System (SCMS) -->
<!-- Systematic Software Engineering Ltd. - www.systematic.co.uk - do not remove  -->
<svg id="G*MPBCA---****X" width="400px" height="400px" viewBox="0 0 400 400">
<g >
<svg viewBox="0 0 400 400" id="_0.G-MPBCA-------X" width="400px" height="400px"><g transform="translate(-120 -110) scale(1.25 1.25)"><line x1="136" y1="132" x2="177.777" y2="160.353" transform="matrix(1 0 0 1 44.625 8.375)" style="fill:rgb(0,0,0);stroke:rgb(0,0,0);stroke-width:2"></line>
<line x1="229" y1="265" x2="271.131" y2="237.597" transform="matrix(1 0 0 1 -48.6667 84.5556)" style="fill:rgb(0,0,0);stroke:rgb(0,0,0);stroke-width:2"></line>
<line x1="176" y1="159" x2="176" y2="314" style="fill:rgb(0,0,0);stroke:rgb(0,0,0);stroke-width:2" transform="matrix(1 0 0 1 46 9)"></line>
<line x1="136" y1="132" x2="177.777" y2="160.353" transform="matrix(-1 0 0 1 465.686 8.9606)" style="fill:rgb(0,0,0);stroke:rgb(0,0,0);stroke-width:2"></line>
<line x1="229" y1="265" x2="271.131" y2="237.597" transform="matrix(-1 0 0 1 558.977 85.1412)" style="fill:rgb(0,0,0);stroke:rgb(0,0,0);stroke-width:2"></line>
<line x1="228.798" y1="174" x2="228.798" y2="329" transform="matrix(1 0 0 1 59.5135 -5.4144)" style="fill:rgb(0,0,0);stroke:rgb(0,0,0);stroke-width:2"></line>
<path d="M232.5 118 C235.055 133.331 233.15 137.085 230.5 151 C227.627 166.083 236.5 184.545      236.5 200 C236.5 256.189 234.698 317.811 225.5 373" style="fill:none;stroke:rgb(0,0,0);stroke-width:2"></path>
<path d="M279.5 119 C266.449 158.152 261.036 244.598 267.5 285 C270.633 304.581 281.262 318.854      279.5 340 C278.002 357.972 265.608 366.08 267.5 385" style="fill:none;stroke:rgb(0,0,0);stroke-width:2"></path>
<text x="78px" y="98px" transform="matrix(-1.83691e-016 -1 1 -1.83691e-016 18.151 201.263) translate(-156 142)" style="fill:rgb(0,0,0);font-family:Arial Black;font-weight:bold;font-size:18">RIVER</text>
</g>
</svg>

</g>
</svg>