<?xml version="1.0"?>
<!DOCTYPE svg PUBLIC "-//W3C//DTD SVG 1.1//EN" "http://www.w3.org/Graphics/SVG/1.1/DTD/svg11.dtd" >
<!-- SVG content generated using Symbology Configuration Management System (SCMS) -->
<!-- Systematic Software Engineering Ltd. - www.systematic.co.uk - do not remove  -->
<svg id="G*MPBCR---****X" width="400px" height="400px" viewBox="0 0 400 400">
<g >
<svg viewBox="0 0 400 400" id="_0.G-MPBCR-------X" width="400px" height="400px"><g transform="translate(-180 -160) scale(1.5 1.5)"><line x1="158" y1="227" x2="350" y2="227" style="fill:rgb(0,0,0);stroke:rgb(0,0,0);stroke-width:2" transform="matrix(1 0 0 1 0 0)"></line>
<line x1="158.997" y1="226.997" x2="135.129" y2="182.143" style="fill:rgb(0,0,0);stroke:rgb(0,0,0);stroke-width:2" transform="matrix(1 0 0 1 0 0)"></line>
<line x1="159.425" y1="226.855" x2="134.986" y2="271.857" style="fill:rgb(0,0,0);stroke:rgb(0,0,0);stroke-width:2" transform="matrix(1 0 0 1 0 0)"></line>
<line x1="349.011" y1="226.997" x2="368.914" y2="182.286" style="fill:rgb(0,0,0);stroke:rgb(0,0,0);stroke-width:2" transform="matrix(1 0 0 1 0 0)"></line>
<line x1="349.011" y1="226.997" x2="368.629" y2="271.743" style="fill:rgb(0,0,0);stroke:rgb(0,0,0);stroke-width:2" transform="matrix(1 0 0 1 0 0)"></line>
<path d="M220.5 149 C217.963 174.368 224.604 198.601 223.5 224 C222.2 253.911 207.995 282.936      210.5 313" style="fill:none;stroke:rgb(0,0,0);stroke-width:2" transform="translate(1 0) translate(1 0) translate(1 0) translate(1 0) translate(1 0) translate(1 0) translate(1 0)"></path>
<path d="M260.5 152 C260.5 178.058 259.698 201.651 263.5 227 C268.047 257.315 246.632 288.264      261.5 318" style="fill:none;stroke:rgb(0,0,0);stroke-width:2" transform="translate(1 0) translate(1 0) translate(1 0) translate(1 0) translate(1 0) translate(1 0) translate(1 0) translate(1 0)"></path>
</g>
</svg>

</g>
</svg>