<?xml version="1.0"?>
<!DOCTYPE svg PUBLIC "-//W3C//DTD SVG 1.1//EN" "http://www.w3.org/Graphics/SVG/1.1/DTD/svg11.dtd" >
<!-- SVG content generated using Symbology Configuration Management System (SCMS) -->
<!-- Systematic Software Engineering Ltd. - www.systematic.co.uk - do not remove  -->
<svg id="G*TPW-----****X" width="400px" height="400px" viewBox="0 0 400 400">
<g >
<svg viewBox="0 0 400 400" id="_0.G-TPW---------X" width="400px" height="400px"><g transform="translate(-120 -80) scale(1.25 1.25)"><path d="M319 171 C399.069 171 417.652 276.535 313 282" style="fill:none;stroke:rgb(0,0,0);stroke-width:2" transform="matrix(1 0 0 1 0 -15)"></path>
<line x1="313" y1="282" x2="230" y2="282" style="fill:none;stroke:rgb(0,0,0);stroke-width:2" transform="matrix(1 0 0 1 0 -15)"></line>
<line x1="205" y1="282" x2="126" y2="282" style="fill:none;stroke:rgb(0,0,0);stroke-width:2" transform="matrix(1 0 0 1 0 -15)"></line>
<line x1="127" y1="282" x2="141" y2="270" style="fill:none;stroke:rgb(0,0,0);stroke-width:2" transform="matrix(1 0 0 1 0 -15)"></line>
<line x1="126.987" y1="282.733" x2="139.387" y2="295.533" style="fill:none;stroke:rgb(0,0,0);stroke-width:2" transform="matrix(1 0 0 1 0 -15)"></line>
<text x="220px" y="131px" transform="matrix(1 0 0 1 -12.8 143.4)" style="fill:rgb(0,0,0);font-family:Arial Black;font-weight:bold;font-size:20">W</text>
<g id="PT.%201" transform="translate(47 211)"><text x="92px" y="101px" transform="matrix(1 0 0 1 0 0)" style="fill:rgb(0,0,0);stroke-width:1;font-family:Arial Black;font-weight:bold;font-size:12;     ">PT. 1</text>
</g>
<g id="PT.%202" transform="translate(69 199)"><text x="196px" y="119px" transform="matrix(1 0 0 1 0 0)" style="fill:rgb(0,0,0);stroke-width:1;font-family:Arial Black;font-weight:bold;font-size:12;     ">PT. 2</text>
</g>
<g id="PT.%203" transform="translate(-8 63)"><text x="224px" y="78px" transform="matrix(1 0 0 1 0 0)" style="fill:rgb(0,0,0);stroke-width:1;font-family:Arial Black;font-weight:bold;font-size:12;     ">PT. 3</text>
</g>
<line x1="124" y1="281" x2="124" y2="300" transform="matrix(1 0 0 1 0 0)" style="fill:rgb(0,0,0);stroke:rgb(0,0,0);stroke-width:2"></line>
<line x1="123.978" y1="299.018" x2="136" y2="308" transform="matrix(1 0 0 1 0 0)" style="fill:rgb(0,0,0);stroke:rgb(0,0,0);stroke-width:2"></line>
<line x1="316" y1="284" x2="316" y2="303" transform="matrix(1 0 0 1 0 0)" style="fill:rgb(0,0,0);stroke:rgb(0,0,0);stroke-width:2"></line>
<line x1="316" y1="302.129" x2="302" y2="313" transform="matrix(1 0 0 1 0 0)" style="fill:rgb(0,0,0);stroke:rgb(0,0,0);stroke-width:2"></line>
<line x1="310" y1="152" x2="290" y2="139" transform="matrix(1 0 0 1 0 0)" style="fill:rgb(0,0,0);stroke:rgb(0,0,0);stroke-width:2"></line>
<line x1="290.445" y1="138.974" x2="254" y2="139" transform="matrix(1 0 0 1 0 0)" style="fill:rgb(0,0,0);stroke:rgb(0,0,0);stroke-width:2"></line>
<polygon points="62,123.804 68,134.196 56,134.196" transform="matrix(-0.574769 0.818316 -1.25988 -0.884915 506.16 213.418)" style="fill:rgb(0,0,0);stroke:rgb(0,0,0);stroke-width:2"></polygon>
<polygon points="62,123.804 68,134.196 56,134.196" transform="matrix(1 0 0 1.5396 188 52.3915) translate(66 20.1351)" style="fill:rgb(0,0,0);stroke:rgb(0,0,0);stroke-width:2"></polygon>
<polygon points="62,123.804 68,134.196 56,134.196" transform="matrix(1 0 0 1.5396 188 52.3915) translate(-127 18.8361) translate(1 0)" style="fill:rgb(0,0,0);stroke:rgb(0,0,0);stroke-width:2"></polygon>
</g>
</svg>

</g>
</svg>