<?xml version="1.0"?>
<!DOCTYPE svg PUBLIC "-//W3C//DTD SVG 1.1//EN" "http://www.w3.org/Graphics/SVG/1.1/DTD/svg11.dtd" >
<!-- SVG content generated using Symbology Configuration Management System (SCMS) -->
<!-- Systematic Software Engineering Ltd. - www.systematic.co.uk - do not remove  -->
<svg id="SNSPCM----*****" width="400px" height="400px" viewBox="0 0 400 400">
<g >
<svg viewBox="0 0 400 400" id="_0.SNS------------" width="400px" height="400px"><rect x="68" y="68" width="264" height="264" style="fill:rgb(170,255,170);stroke:rgb(0,0,0);stroke-width:10"></rect>
</svg>

</g>
<g >
<svg viewBox="0 0 400 400" id="_1.S-S-CM---------" width="400px" height="400px"><polygon points="200,305 100,210 300,210" transform="matrix(1 0 0 1 0 0)" style="fill:rgb(0,0,0);stroke:rgb(0,0,0);stroke-width:1"></polygon>
<rect x="85" y="185" width="230" height="30" transform="matrix(1 0 0 1 0 0)" style="fill:rgb(0,0,0);stroke:rgb(0,0,0);stroke-width:1"></rect>
<ellipse cx="200" cy="200" rx="65" ry="65" transform="matrix(1 0 0 1 0 0)" style="fill:rgb(0,0,0);stroke:rgb(0,0,0);stroke-width:1"></ellipse>
<line x1="200" y1="200" x2="130" y2="130" transform="matrix(1 0 0 1 0 0)" style="fill:rgb(0,0,0);stroke:rgb(0,0,0);stroke-width:25"></line>
<line x1="200" y1="200" x2="200" y2="100" transform="matrix(1 0 0 1 0 0)" style="fill:rgb(0,0,0);stroke:rgb(0,0,0);stroke-width:25"></line>
<line x1="200" y1="200" x2="270" y2="130" transform="matrix(1 0 0 1 0 0)" style="fill:rgb(0,0,0);stroke:rgb(0,0,0);stroke-width:25"></line>
</svg>

</g>
</svg>