<?xml version="1.0"?>
<!DOCTYPE svg PUBLIC "-//W3C//DTD SVG 1.1//EN" "http://www.w3.org/Graphics/SVG/1.1/DTD/svg11.dtd" >
<!-- SVG content generated using Symbology Configuration Management System (SCMS) -->
<!-- Systematic Software Engineering Ltd. - www.systematic.co.uk - do not remove  -->
<svg id="G*MPSW----****X" width="400px" height="400px" viewBox="0 0 400 400">
<g >
<svg viewBox="0 0 400 400" id="_0.G-MPSW--------X" width="400px" height="400px"><g transform="translate(-320 -270) scale(2 2)"><line x1="146.179" y1="191.933" x2="328" y2="192" style="fill:rgb(0,0,0);stroke:rgb(0,0,0);stroke-width:2" transform="matrix(1 0 0 1 23 8)"></line>
<line x1="328" y1="191" x2="328" y2="246" style="fill:rgb(0,0,0);stroke:rgb(0,0,0);stroke-width:2" transform="matrix(1 0 0 1 23 8)"></line>
<line x1="249.893" y1="221.933" x2="250" y2="278" transform="matrix(1 0 0 1 -80 -23)" style="fill:rgb(0,0,0);stroke:rgb(0,0,0);stroke-width:2"></line>
<g id="PT.%201" transform="translate(140 150)"><text x="54px" y="95px" transform="matrix(1 0 0 1 0 0)" style="fill:rgb(0,0,0);stroke-width:1;font-family:Arial Black;font-weight:bold;font-size:12;     ">PT. 1</text>
</g>
<g id="PT.%202" transform="translate(104 103)"><text x="182px" y="146px" transform="matrix(1 0 0 1 0 0)" style="fill:rgb(0,0,0);stroke-width:1;font-family:Arial Black;font-weight:bold;font-size:12;     ">PT. 2</text>
</g>
<line x1="34" y1="143" x2="56" y2="163" transform="matrix(1 0 0 1 0 0) translate(153 71)" style="fill:rgb(0,0,0);stroke:rgb(0,0,0);stroke-width:2"></line>
<polygon points="28,95.3038 34,105.696 22,105.696" transform="matrix(0.668868 -0.743381 1.21604 1.09415 -112.765 48.2259) translate(49.5567 98.56)" style="fill:rgb(0,0,0);stroke:rgb(0,0,0);stroke-width:2"></polygon>
<line x1="34" y1="143" x2="56" y2="163" transform="matrix(-1 0 0 1 288.097 104) translate(-79 -32)" style="fill:rgb(0,0,0);stroke:rgb(0,0,0);stroke-width:2"></line>
<polygon points="28,95.3038 34,105.696 22,105.696" transform="matrix(-0.668868 -0.743381 -1.21604 1.09415 400.862 152.226) translate(-29.0524 -48.9851)" style="fill:rgb(0,0,0);stroke:rgb(0,0,0);stroke-width:2"></polygon>
</g>
</svg>

</g>
</svg>