<?xml version="1.0"?>
<!DOCTYPE svg PUBLIC "-//W3C//DTD SVG 1.1//EN" "http://www.w3.org/Graphics/SVG/1.1/DTD/svg11.dtd" >
<!-- SVG content generated using Symbology Configuration Management System (SCMS) -->
<!-- Systematic Software Engineering Ltd. - www.systematic.co.uk - do not remove  -->
<svg id="G*GPGLC---****X"
     width="400px"
     height="400px"
     viewBox="0 0 400 400"
     xmlns:xlink="http://www.w3.org/1999/xlink"
     xmlns="http://www.w3.org/2000/svg">
  <g>
    <svg viewBox="0 0 400 400"
         id="_0.G-GPGLC-------X"
         width="400px"
         height="400px">
      <defs>
        <path id="semiCircle"
              d="M175 200 C175 175 225 175 225 200"
              style="fill:none;stroke:rgb(0,0,0);stroke-width:5"></path>
        <g id="semiCirclePair">
          <use transform="translate(0 21)"
               xlink:href="#semiCircle"></use>
          <use transform="rotate(180 200 200) translate(0 21)"
               xlink:href="#semiCircle"></use>
        </g>
      </defs>
      <use xlink:href="#semiCirclePair"
           transform="translate(13 -42) rotate(92.0229 200 200) translate(2.99813 -0.105894) translate(14.4965 -14.5208)"></use>
      <use xlink:href="#semiCirclePair"
           transform="translate(16 -103) rotate(85.0729 200 200) translate(7.5 3.6) translate(16.147 -12.6599)"></use>
      <use xlink:href="#semiCirclePair"
           transform="translate(9 13) rotate(95.5282 200 200) translate(3.08238 0.70634) translate(13.5815 -15.3799)"></use>
      <use xlink:href="#semiCirclePair"
           transform="translate(-1 72) rotate(100.446 200 200) translate(12.2131 -16.4876)"></use>
      <path d="M16.5 89.5 C50.963 95.766 91.8433 100.313 129.167 96.9667 M156.9 95.6333 C195.917 93.6175 186.631 91.8404 223.9 89.1 C273.662 85.441 340.821 86.8333 390.5 86.8333"
            style="fill:none;stroke:rgb(0,0,0);stroke-width:5"></path>
      <text x="107px"
            y="79px"
            style="fill:rgb(0,0,0);stroke:rgb(0,0,0);font-size:18;font-family:Arial">2-66 IN(L)</text>
      <text x="136px"
            y="103px"
            style="fill:rgb(0,0,0);stroke:rgb(0,0,0);font-size:18;font-family:Arial">III</text>
      <text x="107px"
            y="124px"
            style="fill:rgb(0,0,0);stroke:rgb(0,0,0);font-size:18;font-family:Arial">1-94 IN(M)</text>
      <path d="M14 316.4 C51.0124 316.4 99.1962 313.632 130.841 313.05 M155.023 312.505 C186.668 311.923 178.257 311.865 200.4 314.8 C248.707 321.204 235.151 337.77 382.8 326"
            transform="matrix(1 0 0 1 0 0)"
            style="fill:none;stroke:rgb(0,0,0);stroke-width:5"></path>
      <text x="138px"
            y="319px"
            transform="matrix(1 0 0 1 0 0)"
            style="fill:rgb(0,0,0);stroke:rgb(0,0,0);font-size:18;font-family:Arial">X</text>
      <text x="139px"
            y="296px"
            transform="matrix(1 0 0 1 0 0) translate(0 0)"
            style="fill:rgb(0,0,0);stroke:rgb(0,0,0);font-size:18;font-family:Arial">3</text>
      <text x="139px"
            y="342px"
            transform="matrix(1 0 0 1 0 0)"
            style="fill:rgb(0,0,0);stroke:rgb(0,0,0);font-size:18;font-family:Arial">2</text>
      <g transform="scale(0.25 0.25) translate(1100 600)">
        <polyline points="200,373 373,200 200,27 27,200 200,373"
                  style="stroke-linecap:square;fill:rgb(255,128,128);stroke:rgb(0,0,0);stroke-width:10"></polyline>
        <line x1="304"
              y1="130"
              x2="96"
              y2="270"
              style="fill:none;stroke:rgb(0,0,0);stroke-width:10"></line>
        <line x1="96"
              y1="130"
              x2="304"
              y2="270"
              style="fill:none;stroke:rgb(0,0,0);stroke-width:10"></line>
        <text x="175px"
              y="15px"
              style="fill:rgb(0,0,0);font-size:90;font-family:Arial;font-weight:bold">II</text>
      </g>
      <g transform="scale(0.25 0.25) translate(104 600)">
        <rect x="20"
              y="80"
              width="360"
              height="240"
              style="fill:rgb(128,224,255);stroke:rgb(0,0,0);stroke-width:10"></rect>
        <line x1="380"
              y1="80"
              x2="20"
              y2="320"
              style="fill:none;stroke:rgb(0,0,0);stroke-width:10"></line>
        <path d="M140 140 C80 140 80 260 140 260 L260 260 C320 260 320 140 260 140 z"
              style="fill:none;stroke:rgb(0,0,0);stroke-width:10"></path>
        <text x="175px"
              y="55px"
              style="fill:rgb(0,0,0);font-size:90;font-family:Arial;font-weight:bold">II</text>
      </g>
    </svg>
  </g>
</svg>
