<?xml version="1.0"?>
<!DOCTYPE svg PUBLIC "-//W3C//DTD SVG 1.1//EN" "http://www.w3.org/Graphics/SVG/1.1/DTD/svg11.dtd" >
<!-- SVG content generated using Symbology Configuration Management System (SCMS) -->
<!-- Systematic Software Engineering Ltd. - www.systematic.co.uk - do not remove  -->
<svg id="G*GPGLP---****X" width="400px" height="400px" viewBox="0 0 400 400">
<g >
<svg viewBox="0 0 400 400" id="_0.G-GPGLP-------X" width="400px" height="400px"><g transform="translate(-30 -10) scale(0.9 0.9)"><path d="M154.5 163 C204.816 166.87 255.55 166 305.5 166 C320.009 166 333.541 159 348.5 159" transform="matrix(1 0 0 1 1 -35)" style="fill:none;stroke:rgb(0,0,0);stroke-width:2"></path>
<path d="M349.5 98 C349.5 130.149 340.5 170.142 340.5 202 C340.5 234.516 353.523 266.746 350.5      300 C348.302 324.18 346.942 323.418 349.5 349" transform="matrix(1 0 0 1 2 -5)" style="fill:none;stroke:rgb(0,0,0);stroke-width:2"></path>
<path d="M145.5 95 C146.806 111.981 140.978 137.263 142.5 154 C148.24 217.139 141.5 278 141.5      342" transform="matrix(1 0 0 1 11 1)" style="fill:none;stroke:rgb(0,0,0);stroke-width:2"></path>
<g transform="matrix(-1.83691e-016 -1 1 -1.83691e-016 -227.5 407.5)"><rect x="100" y="372" width="40" height="21" style="fill:rgb(255,255,255);stroke:none;stroke-width:2"></rect>
<text x="106px" y="388px" style="fill:rgb(0,0,0);font-family:Arial Black;font-weight:bold;font-size:18">XX</text>
</g>
<g transform="matrix(-1.83691e-016 -1 1 -1.83691e-016 101.5 535.5)"><rect x="230" y="240" width="40" height="21" style="fill:rgb(255,255,255);stroke:none;stroke-width:2"></rect>
<text x="236px" y="256px" style="fill:rgb(0,0,0);font-family:Arial Black;font-weight:bold;font-size:18">XX</text>
</g>
<text x="125px" y="57px" transform="matrix(1 0 0 1 0 0) translate(-75.5814 75.5814) translate(0 1)" style="fill:rgb(0,0,0);stroke-width:1;font-size:18;font-family:Arial Black;font-weight:bold;     ">PL</text>
<text x="233px" y="54px" transform="matrix(1 0 0 1 0 0) translate(123.256 76.7442)" style="fill:rgb(0,0,0);stroke-width:1;font-size:18;font-family:Arial Black;font-weight:bold;     ">PL</text>
<g id="T1"><text x="227px" y="88px" transform="matrix(1 0 0 1 0 0) translate(-148.837 45.3488)" style="fill:rgb(0,0,0);stroke-width:1;font-size:18;font-family:Arial Black;font-weight:bold;      ">ALPHA</text>
</g>
<g id="T2"><text x="385px" y="55px" transform="matrix(1 0 0 1 0 0) translate(0 75.5814)" style="fill:rgb(0,0,0);stroke-width:1;font-size:18;font-family:Arial Black;font-weight:bold;      ">ALPHA</text>
</g>
</g>
</svg>

</g>
</svg>