<?xml version="1.0"?>
<!DOCTYPE svg PUBLIC "-//W3C//DTD SVG 1.1//EN" "http://www.w3.org/Graphics/SVG/1.1/DTD/svg11.dtd" >
<!-- SVG content generated using Symbology Configuration Management System (SCMS) -->
<!-- Systematic Software Engineering Ltd. - www.systematic.co.uk - do not remove  -->
<svg id="G*MPOWS---****X" width="400px" height="400px" viewBox="0 0 400 400">
<g >
<svg viewBox="0 0 400 400" id="_0.G-MPOWS-------X" width="400px" height="400px"><g transform="translate(-440 -340) scale(2.5 2.5)"><line x1="166" y1="221" x2="294" y2="221" style="fill:rgb(0,0,0);stroke:rgb(0,0,0);stroke-width:2" transform="matrix(1 0 0 1 26 -20)"></line>
<text x="178px" y="308px" transform="matrix(1 0 0 1 112 -97)" style="fill:rgb(0,0,0);font-family:Arial Black;font-weight:bold;font-size:26">X</text>
<text x="240px" y="260px" transform="matrix(1 0 0 1 4 -49)" style="fill:rgb(0,0,0);font-family:Arial Black;font-weight:bold;font-size:26">X</text>
<text x="240px" y="260px" transform="matrix(1 0 0 1 -39 -49)" style="fill:rgb(0,0,0);font-family:Arial Black;font-weight:bold;font-size:26">X</text>
<g id="PT.%201" transform="translate(66 -24)"><text x="146px" y="267px" transform="matrix(1 0 0 1 0 0)" style="fill:rgb(0,0,0);stroke-width:1;font-family:Arial Black;font-weight:bold;font-size:12;     ">PT. 1</text>
</g>
<g id="PT.%202" transform="translate(5 -68)"><text x="268px" y="310px" transform="matrix(1 0 0 1 0 0)" style="fill:rgb(0,0,0);stroke-width:1;font-family:Arial Black;font-weight:bold;font-size:12;     ">PT. 2</text>
</g>
<line x1="192" y1="212" x2="192" y2="225" transform="matrix(1 0 0 1 0 0)" style="fill:rgb(0,0,0);stroke:rgb(0,0,0);stroke-width:2"></line>
<line x1="191.786" y1="224.557" x2="208" y2="237" transform="matrix(1 0 0 1 0 0)" style="fill:rgb(0,0,0);stroke:rgb(0,0,0);stroke-width:2"></line>
<line x1="320" y1="210" x2="320" y2="224" transform="matrix(1 0 0 1 0 0)" style="fill:rgb(0,0,0);stroke:rgb(0,0,0);stroke-width:2"></line>
<line x1="320.204" y1="223.284" x2="308" y2="233" transform="matrix(1 0 0 1 0 0)" style="fill:rgb(0,0,0);stroke:rgb(0,0,0);stroke-width:2"></line>
<polygon points="68,49.3038 74,59.6962 62,59.6962" transform="matrix(1 0 0 1.05848 0 -3.18691) translate(125 149.271) translate(-1 0)" style="fill:rgb(0,0,0);stroke:rgb(0,0,0);stroke-width:2"></polygon>
<polygon points="68,49.3038 74,59.6962 62,59.6962" transform="matrix(1 0 0 1.05848 182 193.813) translate(71 -39.6795) translate(-1 0)" style="fill:rgb(0,0,0);stroke:rgb(0,0,0);stroke-width:2"></polygon>
</g>
</svg>

</g>
</svg>