<?xml version="1.0"?>
<!DOCTYPE svg PUBLIC "-//W3C//DTD SVG 1.1//EN" "http://www.w3.org/Graphics/SVG/1.1/DTD/svg11.dtd" >
<!-- SVG content generated using Symbology Configuration Management System (SCMS) -->
<!-- Systematic Software Engineering Ltd. - www.systematic.co.uk - do not remove  -->
<svg id="SUSPCA----*****" width="400px" height="400px" viewBox="0 0 400 400">
<g >
<svg viewBox="0 0 400 400" id="_0.SUS------------" width="400px" height="400px"><path d="M115 285 C115 400 285 400 285 285 C400 285 400 115 285 115 C285 0 115 0 115 115 C0     115 0 285 115 285 z" style="fill:rgb(255,255,128);stroke:rgb(0,0,0);stroke-width:10"></path>
</svg>

</g>
<g >
<svg viewBox="0 0 400 400" id="_1.S-S-CA---------" width="400px" height="400px"><path d="M200 265 L100 170 L160 180 L160 130 L240 130 L240 180 L300 170 z" style="fill:rgb(0,0,0);stroke:rgb(0,0,0);stroke-width:0"></path>
<line x1="200" y1="260" x2="290" y2="260" transform="matrix(1 0 0 1 0 0) translate(245 261) scale(1 1) translate(-245 -261)" style="fill:none;stroke:rgb(0,0,0);stroke-width:10"></line>
</svg>

</g>
</svg>