<?xml version="1.0"?>
<!DOCTYPE svg PUBLIC "-//W3C//DTD SVG 1.1//EN" "http://www.w3.org/Graphics/SVG/1.1/DTD/svg11.dtd" >
<!-- SVG content generated using Symbology Configuration Management System (SCMS) -->
<!-- Systematic Software Engineering Ltd. - www.systematic.co.uk - do not remove  -->
<svg id="WA--RI---------" width="400px" height="400px" viewBox="0 0 400 400">
<g >
<svg viewBox="0 0 400 400" id="_0.WA--RI---------" width="400px" height="400px"><g transform="translate(25 50) scale(10 10)"><path d="M0 29.75 L16.777 0 L34.631 29.75 zM16.824 3.48 L3.07 28.125 L31.468 28.125 zM20.625      19.9 C20.625 20.867 20.301 21.687 19.654 22.363 C19.007 23.039 18.207 23.375      17.25 23.375 C16.293 23.375 15.49 23.039 14.844 22.363 C14.198 21.687 13.875      20.867 13.875 19.9 C13.875 18.935 14.197 18.129 14.844 17.476 C15.49 16.826      16.293 16.499 17.25 16.499 C18.207 16.499 19.008 16.825 19.654 17.476 C20.301      18.129 20.625 18.936 20.625 19.9 z" style="fill:rgb(255,0,0)"></path>
</g>
</svg>

</g>
</svg>