<?xml version="1.0"?>
<!DOCTYPE svg PUBLIC "-//W3C//DTD SVG 1.1//EN" "http://www.w3.org/Graphics/SVG/1.1/DTD/svg11.dtd" >
<!-- SVG content generated using Symbology Configuration Management System (SCMS) -->
<!-- Systematic Software Engineering Ltd. - www.systematic.co.uk - do not remove  -->
<svg id="G*GPGLL---****X" width="400px" height="400px" viewBox="0 0 400 400">
<g >
<svg viewBox="0 0 400 400" id="_0.G-GPGLL-------X" width="400px" height="400px"><g transform="translate(-55 -30)"><path d="M154.5 114 C154.5 140.92 162.896 171.622 158.5 198 C152.207 235.756 158.401 273.426      153.5 311 C151.922 323.094 147.5 332.695 147.5 345" transform="matrix(1 0 0 1 -4 1)" style="fill:none;stroke:rgb(0,0,0);stroke-width:2"></path>
<rect x="148" y="386" width="34" height="19" transform="matrix(-3.71339e-018 -1 1 -3.71339e-018 -244.5 450.5)" style="fill:rgb(255,255,255);stroke:none;stroke-width:1"></rect>
<path d="M156.5 174 C183.079 174 208.913 165.468 235.5 168 C277.515 172.001 316.045 180.491      358.5 172" transform="matrix(1 0 0 1 -5 -40)" style="fill:none;stroke:rgb(0,0,0);stroke-width:2"></path>
<path d="M354.5 101 C357.362 152.519 345.514 204.179 349.5 256 C351.821 286.173 358.563 312.37      355.5 343" style="fill:none;stroke:rgb(0,0,0);stroke-width:2"></path>
<text x="118px" y="424px" transform="matrix(1 0 0 1 3 -294)" style="fill:rgb(0,0,0);font-size:18;font-family:Arial Black;font-weight:bold">LL</text>
<text x="118px" y="424px" transform="matrix(1 0 0 1 242 -304)" style="fill:rgb(0,0,0);font-size:18;font-family:Arial Black;font-weight:bold">LL</text>
<text x="226px" y="409px" transform="matrix(0.000436332 -1 1 0.000436332 -289.217 561.417)" style="fill:rgb(0,0,0);font-family:Arial Black;font-weight:bold;font-size:18">21 ID (L)</text>
<text x="204px" y="386px" transform="matrix(-0.00354301 -0.999994 0.999994 -0.00354301 -54.6635 549.5)" style="fill:rgb(0,0,0);font-family:Arial Black;font-weight:bold;font-size:18">54 ID (M)</text>
<text x="204px" y="386px" transform="matrix(-0.00354301 -0.999994 0.999994 -0.00354301 -199.664 545.5)" style="fill:rgb(0,0,0);font-family:Arial Black;font-weight:bold;font-size:18">54 ID (M)</text>
<text x="194px" y="406px" transform="matrix(0.00837748 -0.999965 0.999965 0.00837748 -21.1117 538.362)" style="fill:rgb(0,0,0);font-size:18;font-family:Arial Black;font-weight:bold">65 ID (M)(SA)</text>
<text x="150px" y="402px" transform="matrix(-3.71339e-018 -1 1 -3.71339e-018 -244.5 450.5)" style="fill:rgb(0,0,0);font-size:18;font-family:Arial Black;font-weight:bold">XX</text>
<rect x="233" y="241" width="34" height="19" transform="matrix(-0.0196162 -0.999808 0.999808 -0.0196162 109.452 548.366)" style="fill:rgb(255,255,255);stroke:none;stroke-width:1"></rect>
<text x="235px" y="257px" transform="matrix(-0.0196162 -0.999808 0.999808 -0.0196162 109.452 549.366)" style="fill:rgb(0,0,0);font-size:18;font-family:Arial Black;font-weight:bold">XX</text>
<text x="115px" y="66px" transform="matrix(1 0 0 1 0 0) translate(243.023 73.2558)" style="fill:rgb(0,0,0);stroke-width:1;font-family:Arial Black;font-weight:bold;font-size:18;     ">(PL</text>
<g id="T1" transform="translate(12 -3) translate(1 3) translate(407.583 141.113) scale(1 1.53786) translate(-407.583 -141.113) translate(-1.51515 0.985234)" style="font-size:18"><text x="171px" y="62px" transform="matrix(1 0 0 1 0 0) translate(210.465 75.5814) translate(0 1)" style="fill:rgb(0,0,0);stroke-width:1;font-family:Arial Black;font-weight:bold;font-size:12;      ">BRAVO)</text>
</g>
<text x="303px" y="68px" transform="matrix(1 0 0 1 0 0) translate(-236.047 77.907) translate(0 -1) translate(0 -1) translate(0 -1) translate(0 1.16279) translate(0 1) translate(1 0) translate(0 -1) translate(1 0) translate(1 0) translate(0 1) translate(-16 1) translate(11 -3) translate(0 1) translate(0 1)" style="fill:rgb(0,0,0);stroke-width:1;font-family:Arial Black;font-weight:bold;font-size:16;     ">(PL</text>
<g id="T2" transform="translate(7 -2) translate(-8 2) translate(0 28.7879) translate(3.0303 -33.3333) translate(0 1) translate(0 1) translate(119.885 135.334) scale(1 1.53786) translate(-119.885 -135.334) translate(119.885 135.334) scale(1 0.912564) translate(-119.885 -135.334) translate(0 0.712558)" style="font-size:18;font-family:Arial Black"><text x="374px" y="65px" transform="matrix(1 0 0 1 0 0) translate(-280.233 79.0698)" style="fill:rgb(0,0,0);stroke-width:1;font-family:Arial Black;font-weight:bold;font-size:12;      ">BRAVO)</text>
</g>
</g>
</svg>

</g>
</svg>