<?xml version="1.0"?>
<!DOCTYPE svg PUBLIC "-//W3C//DTD SVG 1.1//EN" "http://www.w3.org/Graphics/SVG/1.1/DTD/svg11.dtd" >
<!-- SVG content generated using Symbology Configuration Management System (SCMS) -->
<!-- Systematic Software Engineering Ltd. - www.systematic.co.uk - do not remove  -->
<svg id="G*MPBCB---****X" width="400px" height="400px" viewBox="0 0 400 400">
<g >
<svg viewBox="0 0 400 400" id="_0.G-MPBCB-------X" width="400px" height="400px"><g transform="translate(610 -170) scale(1.75 1.75) rotate(90)"><line x1="136" y1="132" x2="177.777" y2="160.353" transform="translate(-1.375 -0.625)" style="fill:rgb(0,0,0);stroke:rgb(0,0,0);stroke-width:2"></line>
<line x1="229" y1="265" x2="271.131" y2="237.597" transform="translate(-100 40) translate(5.33333 35.5556)" style="fill:rgb(0,0,0);stroke:rgb(0,0,0);stroke-width:2"></line>
<line x1="176" y1="159" x2="176" y2="314" style="fill:rgb(0,0,0);stroke:rgb(0,0,0);stroke-width:2"></line>
<line x1="136" y1="132" x2="177.777" y2="160.353" transform="matrix(-1 0 0 1 406.173 14.375) translate(-16.2162 -16.2162) translate(0.900901 2.7027) translate(1.8018 -0.900901)" style="fill:rgb(0,0,0);stroke:rgb(0,0,0);stroke-width:2"></line>
<line x1="229" y1="265" x2="271.131" y2="237.597" transform="matrix(-1 0 0 1 499.464 90.5556) translate(-16.2162 -16.2162) translate(0.900901 2.7027) translate(1.8018 -0.900901)" style="fill:rgb(0,0,0);stroke:rgb(0,0,0);stroke-width:2"></line>
<line x1="228.798" y1="174" x2="228.798" y2="329" transform="translate(16.2162 -16.2162) translate(-0.900901 2.7027) translate(-1.8018 -0.900901)" style="fill:rgb(0,0,0);stroke:rgb(0,0,0);stroke-width:2"></line>
</g>
</svg>

</g>
</svg>