<?xml version="1.0"?>
<!DOCTYPE svg PUBLIC "-//W3C//DTD SVG 1.1//EN" "http://www.w3.org/Graphics/SVG/1.1/DTD/svg11.dtd" >
<!-- SVG content generated using Symbology Configuration Management System (SCMS) -->
<!-- Systematic Software Engineering Ltd. - www.systematic.co.uk - do not remove  -->
<svg id="G*SPLRM---****X" width="400px" height="400px" viewBox="0 0 400 400">
<g transform="scale(0.6 0.6) translate(206 58)" >
<svg viewBox="0 0 400 400" id="_0.G-----------PTS" width="400px" height="400px"><rect x="175" y="175" width="50" height="50" style="fill:none;stroke:rgb(0,0,0);stroke-width:5" transform="translate(0 0) translate(0 0)"></rect>
<text x="189px" y="213px" style="fill:rgb(0,0,0);stroke:rgb(0,0,0);font-size:36;font-family:Arial">T</text>
</svg>

</g>
<g transform="scale(0.75 0.75) translate(-116 166)" >
<svg viewBox="0 0 400 400" id="_1.G-O1----------X" width="400px" height="400px"><text x="200px" y="200px" transform="matrix(1 0 0 1 -27.396 8.628)" style="fill:rgb(0,0,0);font-size:24;font-family:Arial">PT. 1</text>
</svg>

</g>
<g transform="scale(0.75 0.75) translate(246 166)" >
<svg viewBox="0 0 400 400" id="_2.G-O2----------X" width="400px" height="400px"><text x="320px" y="140px" transform="matrix(1 0 0 1 -148.968 68.628)" style="fill:rgb(0,0,0);font-size:24;font-family:Arial">PT. 2</text>
</svg>

</g>
<g transform="scale(1 1.1) translate(-12 -42.7273)" >
<svg viewBox="0 0 400 400" id="_3.GAR17---------X" width="400px" height="400px"><polyline points="390,230 390,275 370,295" style="fill:none;stroke:rgb(0,0,0);stroke-width:3"></polyline>
<polygon points="386,240 390,227 394,240" style="fill:rgb(0,0,0);stroke:rgb(0,0,0);stroke-width:3"></polygon>
</svg>

</g>
<g transform="translate(10 -3)" >
<svg viewBox="0 0 400 400" id="_4.GAR16---------X" width="400px" height="400px"><polyline points="10,215 10,260 30,280" style="fill:none;stroke:rgb(0,0,0);stroke-width:3"></polyline>
<polygon points="6,225 10,212 14,225" style="fill:rgb(0,0,0);stroke:rgb(0,0,0);stroke-width:3"></polygon>
</svg>

</g>
<g transform="translate(-23 -45)" >
<svg viewBox="0 0 400 400" id="_5.MSR------------" width="400px" height="400px"><text x="172px" y="169px" transform="matrix(1 0 0 1 -13.184 43.888)" style="fill:rgb(0,0,0);font-size:36;font-family:Arial;font-weight:bold">MSR</text>
</svg>

</g>
<g >
<svg viewBox="0 0 400 400" id="_6.G-SPLRM-------X" width="400px" height="400px"><g transform="scale(0.8 0.8) translate(48 48)"><path d="M109.5 174 C141.362 180.372 146.381 179.301 179.5 172 C196.424 168.269 235.202 163.871
				253.5 163 C285.336 161.484 301.609 172.189 333.5 169" style="fill:none;stroke:rgb(0,0,0);stroke-width:2" transform="matrix(2 0 0 2 -242 -141)"></path>
</g>
</svg>

</g>
</svg>