<?xml version="1.0"?>
<!DOCTYPE svg PUBLIC "-//W3C//DTD SVG 1.1//EN" "http://www.w3.org/Graphics/SVG/1.1/DTD/svg11.dtd" >
<!-- SVG content generated using Symbology Configuration Management System (SCMS) -->
<!-- Systematic Software Engineering Ltd. - www.systematic.co.uk - do not remove  -->
<svg id="WA--CS---------" width="400px" height="400px" viewBox="0 0 400 400">
<g >
<svg viewBox="0 0 400 400" id="_0.WA--CS---------" width="400px" height="400px"><g transform="translate(25 25) scale(10 10)"><path d="M35 17.598 C35 22.551 33.318 26.711 29.959 30.077 C26.598 33.444 22.445 35.126 17.5      35.126 C12.602 35.126 8.461 33.433 5.076 30.042 C1.691 26.651 0 22.504 0      17.598 C0 12.647 1.68 8.477 5.041 5.086 C8.4 1.695 12.555 0 17.5 0 C22.396 0      26.537 1.707 29.922 5.121 C33.307 8.535 35 12.695 35 17.598 zM34 17.6 C33.76      12.854 32.127 8.942 29.102 5.866 C26.077 2.79 22.211 1.25 17.508 1.25 C12.945      1.25 9.117 2.824 6.02 5.973 C2.923 9.122 1.375 12.998 1.375 17.6 C1.375      22.155 2.936 26.004 6.057 29.153 C9.178 32.302 12.995 33.876 17.508 33.876 C21.973      33.876 25.789 32.278 28.959 29.081 C32.559 25.447 34.238 21.619 34 17.6      zM17.125 1.25 L17.777 1.25 C18.113 1.25 18.548 1.25 19.08 1.25 C20.963 1.25      22.857 1.707 24.766 2.619 C26.672 3.531 28.159 4.707 29.221 6.146 C30.717      7.492 31.586 8.357 31.828 8.74 C33.035 10.613 33.758 13.566 34 17.597 L34 18.749      L17.125 18.749 z"></path>
</g>
</svg>

</g>
</svg>