<?xml version="1.0"?>
<!DOCTYPE svg PUBLIC "-//W3C//DTD SVG 1.1//EN" "http://www.w3.org/Graphics/SVG/1.1/DTD/svg11.dtd" >
<!-- SVG content generated using Symbology Configuration Management System (SCMS) -->
<!-- Systematic Software Engineering Ltd. - www.systematic.co.uk - do not remove  -->
<svg id="SNGPEWRH--*****" width="400px" height="400px" viewBox="0 0 400 400">
<g transform="translate(167 91) scale(6 5.5)" >
<svg viewBox="0 0 400 400" id="_0.SNG-EWRH-------" width="400px" height="400px"><path style="fill:rgb(170,255,170)" d="M11.027 5.572 L9.328 7.055 L6.26 3.795 L6.26 39.75 L4.385 39.75 L4.385 3.988 L1.365
			7.025 L0 5.654 L5.482 0 zM4.385 26.813 L4.385 24.75 L0.155 24.75 L0.155 26.813
			zM4.385 17.5 L4.385 15.436 L0.299 15.436 L0.299 17.5 zM4.385 22 L4.385 20
			L0.299 20 L0.299 22 zM10.379 17.5 L10.379 15.508 L6.26 15.508 L6.26 17.5 zM10.379
			22 L10.379 20 L6.26 20 L6.26 22 zM10.379 26.885 L10.379 24.75 L6.26 24.75
			L6.26 26.885 z"></path>
</svg>

</g>
</svg>