<?xml version="1.0"?>
<!DOCTYPE svg PUBLIC "-//W3C//DTD SVG 1.1//EN" "http://www.w3.org/Graphics/SVG/1.1/DTD/svg11.dtd" >
<!-- SVG content generated using Symbology Configuration Management System (SCMS) -->
<!-- Systematic Software Engineering Ltd. - www.systematic.co.uk - do not remove  -->
<svg id="G*GPOLAGS-****X" width="400px" height="400px" viewBox="0 0 400 400">
<g >
<svg viewBox="0 0 400 400" id="_0.G-GPOLAGS-----X" width="400px" height="400px"><g transform="translate(-170 -180) scale(1.5 1.5)"><path d="M112.5 169.667 C182.796 189.135 266.089 177.282 304.833 169.667" transform="matrix(1 0 0 1 16.6667 59.6667)" style="fill:none;stroke:rgb(0,0,0);stroke-width:2"></path>
<path d="M112.5 169.667 C182.796 189.135 266.089 177.282 304.833 169.667" transform="matrix(1 0 0 -1 16.6667 441.577)" style="fill:none;stroke:rgb(0,0,0);stroke-width:2"></path>
<line x1="303.644" y1="170.006" x2="302.2" y2="140.673" transform="matrix(1 0 0 1 16.6667 59)" style="fill:rgb(0,0,0);stroke:rgb(0,0,0);stroke-width:2"></line>
<line x1="303.856" y1="212.561" x2="303" y2="243" transform="matrix(1 0 0 1 16.6667 59)" style="fill:rgb(0,0,0);stroke:rgb(0,0,0);stroke-width:2"></line>
<line x1="302" y1="140" x2="353" y2="191" transform="matrix(1 0 0 1 16.6667 59)" style="fill:rgb(0,0,0);stroke:rgb(0,0,0);stroke-width:2"></line>
<line x1="353.856" y1="190.361" x2="303.189" y2="242.228" transform="matrix(1 0 0 1 16.6667 59)" style="fill:rgb(0,0,0);stroke:rgb(0,0,0);stroke-width:2"></line>
</g>
</svg>

</g>
</svg>