<?xml version="1.0"?>
<!DOCTYPE svg PUBLIC "-//W3C//DTD SVG 1.1//EN" "http://www.w3.org/Graphics/SVG/1.1/DTD/svg11.dtd" >
<!-- SVG content generated using Symbology Configuration Management System (SCMS) -->
<!-- Systematic Software Engineering Ltd. - www.systematic.co.uk - do not remove  -->
<svg id="SFGPEWGM--*****" width="400px" height="400px" viewBox="0 0 400 400">
<g transform="translate(158 91) scale(6.5 6)" >
<svg viewBox="0 0 400 400" id="_0.SFG-EWGM-------" width="400px" height="400px"><path style="fill:rgb(128,224,255)" d="M0 7.75 L1.75 7.75 L1.75 21 L0 21 zM12.178 33.297 L10.801 34.75 L6.77 30.623 L2.592
			34.75 L1.233 33.457 L6.704 27.877 zM6 13.375 L6 11.344 L1.75 11.344 L1.75
			13.375 zM6 17.68 L6 15.625 L1.75 15.625 L1.75 17.68 zM7.625 0 L7.625 28.75 L5.75
			28.75 L5.75 0 C6.305 -0.047 6.93 -0.047 7.625 0 zM11.5 13.375 L11.5 11.271
			L7.625 11.341 L7.625 13.374 L11.5 13.374 zM11.5 17.682 L11.5 15.625 L7.625
			15.625 L7.625 17.752 zM11.5 7.75 L13.375 7.75 L13.375 21 L11.5 21 z"></path>
</svg>

</g>
</svg>