<?xml version="1.0" encoding="UTF-8"?>
<!DOCTYPE svg PUBLIC "-//W3C//DTD SVG 1.0//EN"
                     "http://www.w3.org/TR/2001/REC-SVG-20010904/DTD/svg10.dtd">
<?template type="TWO_POINT_TEMPLATE"?>
<?AnchorPoint x="0.0" y="0.0" index="1"?>
<?AnchorPoint x="-150.0" y="-90.0" index="2"?>
<?variable name="var-cm-color" type="java.awt.Color" default="black"?>
<svg height="400.0" template-transform-x="scale" template-transform-y="scale"
  viewBox="-200.0,-200.0,400.0,400.0" width="400.0"
  xmlns="http://www.w3.org/2000/svg" xmlns:xlink="http://www.w3.org/1999/xlink">
  <path
    d="M -174.92855684535903,-2.8421709430404007E-14 A 174.92855684535903,174.92855684535903 0  1 0 -149.99999999999997,-90.00000000000003"
    fill="none" stroke="var-cm-color" stroke-width="3.0"/>
  <polyline fill="none"
    points="-145.0,-100.0 -80.0,-80.0 -95.0,-145.0 -100.0,-145.0 -100.0,-145.0"
    stroke="var-cm-color" stroke-width="3.0"/>
  <polyline fill="none"
    points="-30.0,-170.0 0.0,-115.0 30.0,-170.0 30.0,-170.0 30.0,-170.0"
    stroke="var-cm-color" stroke-width="3.0"/>
  <polyline fill="none"
    points="110.0,-135.0 85.0,-80.0 145.0,-95.0 145.0,-95.0 145.0,-95.0"
    stroke="var-cm-color" stroke-width="3.0"/>
  <polyline fill="none"
    points="175.0,-25.0 115.0,0.0 175.0,25.0 175.0,25.0 175.0,25.0"
    stroke="var-cm-color" stroke-width="3.0"/>
  <polyline fill="none"
    points="145.0,100.0 85.0,80.0 95.0,145.0 95.0,145.0 95.0,145.0"
    stroke="var-cm-color" stroke-width="3.0"/>
  <polyline fill="none"
    points="30.0,170.0 0.0,115.0 -30.0,170.0 -30.0,170.0 -30.0,170.0"
    stroke="var-cm-color" stroke-width="3.0"/>
  <polyline fill="none"
    points="-110.0,135.0 -85.0,75.0 -145.0,95.0 -145.0,95.0 -145.0,95.0"
    stroke="var-cm-color" stroke-width="3.0"/>
  <polyline fill="none" points="-195.0,25.0 -175.0,0.0 -150.0,25.0 "
    stroke="var-cm-color" stroke-width="3.0"/>
</svg>
