<?xml version="1.0" encoding="UTF-8"?>
<!DOCTYPE svg PUBLIC "-//W3C//DTD SVG 1.0//EN"
                     "http://www.w3.org/TR/2001/REC-SVG-20010904/DTD/svg10.dtd">
<?variable name="var-cm-color" type="java.awt.Color" default="black"?>
<svg height="400.0" viewBox="-200.0,-200.0,400.0,400.0" width="400.0"
  xmlns="http://www.w3.org/2000/svg" xmlns:xlink="http://www.w3.org/1999/xlink">
  <polyline fill="none"
    points="-115.0,-45.0 -115.0,-55.0 -110.0,-65.0 -100.0,-70.0 -85.0,-70.0 -75.0,-65.0 -70.0,-55.0 -70.0,-35.0 -65.0,-25.0 -55.0,-20.0 -40.0,-20.0 -30.0,-25.0 -25.0,-35.0 -25.0,-55.0 -20.0,-65.0 -10.0,-70.0 10.0,-70.0 20.0,-65.0 25.0,-55.0 25.0,-35.0 30.0,-25.0 40.0,-20.0 55.0,-20.0 65.0,-25.0 70.0,-35.0 70.0,-55.0 75.0,-65.0 85.0,-70.0 100.0,-70.0 110.0,-65.0 115.0,-55.0 115.0,-45.0"
    stroke="var-cm-color" stroke-width="2.5"/>
  <polyline fill="none"
    points="-115.0,45.0 -115.0,35.0 -110.0,25.0 -100.0,20.0 -85.0,20.0 -75.0,25.0 -70.0,35.0 -70.0,55.0 -65.0,65.0 -55.0,70.0 -40.0,70.0 -30.0,65.0 -25.0,55.0 -25.0,35.0 -20.0,25.0 -10.0,20.0 10.0,20.0 20.0,25.0 25.0,35.0 25.0,55.0 30.0,65.0 40.0,70.0 55.0,70.0 65.0,65.0 70.0,55.0 70.0,35.0 75.0,25.0 85.0,20.0 100.0,20.0 110.0,25.0 115.0,35.0 115.0,45.0"
    stroke="var-cm-color" stroke-width="2.5"/>
  <line fill="none" stroke="var-cm-color" stroke-width="4.5" x1="-115.0"
    x2="115.0" y1="0.0" y2="0.0"/>
</svg>
