<?xml version="1.0" encoding="UTF-8"?>
<!DOCTYPE svg PUBLIC "-//W3C//DTD SVG 1.0//EN"
                     "http://www.w3.org/TR/2001/REC-SVG-20010904/DTD/svg10.dtd">
<?template type="TWO_POINT_TEMPLATE"?>
<?AnchorPoint x="0.0" y="0.0" index="1"?>
<?AnchorPoint x="-140.0" y="-50.0" index="2"?>
<?variable name="var-cm-color" type="java.awt.Color" default="black"?>
<svg height="400.0" template-transform-x="scale" template-transform-y="scale"
  viewBox="-200.0,-200.0,400.0,400.0" width="400.0"
  xmlns="http://www.w3.org/2000/svg" xmlns:xlink="http://www.w3.org/1999/xlink">
  <path
    d="M -148.660685574363,-1.2151703288054705E-6 A 148.660685574363,148.660685574363 0  1 0 -140.00000000000003,-49.999999999999986"
    fill="none" stroke="var-cm-color" stroke-width="3.0"/>
  <polyline fill="none"
    points="-170.0,25.0 -150.0,0.0 -125.0,25.0 -125.0,25.0 -125.0,25.0 -125.0,25.0 -125.0,25.0 "
    stroke="var-cm-color" stroke-width="3.0"/>
  <line fill="none" stroke="var-cm-color" stroke-width="3.0" x1="-135.0"
    x2="-160.0" y1="-60.0" y2="-75.0"/>
  <line fill="none" stroke="var-cm-color" stroke-width="3.0" x1="-125.0"
    x2="-145.0" y1="-80.0" y2="-95.0"/>
  <line fill="none" stroke="var-cm-color" stroke-width="3.0" x1="-110.0"
    x2="-130.0" y1="-100.0" y2="-115.0"/>
  <line fill="none" stroke="var-cm-color" stroke-width="3.0" x1="-95.0"
    x2="-115.0" y1="-115.0" y2="-135.0"/>
  <line fill="none" stroke="var-cm-color" stroke-width="3.0" x1="-80.0"
    x2="-95.0" y1="-125.0" y2="-145.0"/>
  <line fill="none" stroke="var-cm-color" stroke-width="3.0" x1="-60.0"
    x2="-70.0" y1="-135.0" y2="-160.0"/>
  <line fill="none" stroke="var-cm-color" stroke-width="3.0" x1="-40.0"
    x2="-50.0" y1="-145.0" y2="-170.0"/>
  <line fill="none" stroke="var-cm-color" stroke-width="3.0" x1="-20.0"
    x2="-25.0" y1="-150.0" y2="-175.0"/>
  <line fill="none" stroke="var-cm-color" stroke-width="3.0" x1="0.0" x2="0.0"
    y1="-150.0" y2="-175.0"/>
  <line fill="none" stroke="var-cm-color" stroke-width="3.0" x1="20.0"
    x2="25.0" y1="-150.0" y2="-175.0"/>
  <line fill="none" stroke="var-cm-color" stroke-width="3.0" x1="0.0" x2="0.0"
    y1="175.0" y2="150.0"/>
  <line fill="none" stroke="var-cm-color" stroke-width="3.0" x1="-25.0"
    x2="-20.0" y1="175.0" y2="150.0"/>
  <line fill="none" stroke="var-cm-color" stroke-width="3.0" x1="25.0"
    x2="20.0" y1="175.0" y2="150.0"/>
  <line fill="none" stroke="var-cm-color" stroke-width="3.0" x1="50.0"
    x2="40.0" y1="170.0" y2="145.0"/>
  <line fill="none" stroke="var-cm-color" stroke-width="3.0" x1="70.0"
    x2="60.0" y1="160.0" y2="135.0"/>
  <line fill="none" stroke="var-cm-color" stroke-width="3.0" x1="95.0"
    x2="80.0" y1="145.0" y2="125.0"/>
  <line fill="none" stroke="var-cm-color" stroke-width="3.0" x1="115.0"
    x2="95.0" y1="135.0" y2="115.0"/>
  <line fill="none" stroke="var-cm-color" stroke-width="3.0" x1="130.0"
    x2="110.0" y1="115.0" y2="100.0"/>
  <line fill="none" stroke="var-cm-color" stroke-width="3.0" x1="145.0"
    x2="125.0" y1="95.0" y2="80.0"/>
  <line fill="none" stroke="var-cm-color" stroke-width="3.0" x1="160.0"
    x2="135.0" y1="75.0" y2="60.0"/>
  <line fill="none" stroke="var-cm-color" stroke-width="3.0" x1="50.0"
    x2="40.0" y1="-170.0" y2="-145.0"/>
  <line fill="none" stroke="var-cm-color" stroke-width="3.0" x1="-40.0"
    x2="-50.0" y1="145.0" y2="170.0"/>
  <line fill="none" stroke="var-cm-color" stroke-width="3.0" x1="70.0"
    x2="60.0" y1="-160.0" y2="-135.0"/>
  <line fill="none" stroke="var-cm-color" stroke-width="3.0" x1="-60.0"
    x2="-70.0" y1="135.0" y2="160.0"/>
  <line fill="none" stroke="var-cm-color" stroke-width="3.0" x1="95.0"
    x2="80.0" y1="-145.0" y2="-125.0"/>
  <line fill="none" stroke="var-cm-color" stroke-width="3.0" x1="-80.0"
    x2="-95.0" y1="125.0" y2="145.0"/>
  <line fill="none" stroke="var-cm-color" stroke-width="3.0" x1="115.0"
    x2="95.0" y1="-135.0" y2="-115.0"/>
  <line fill="none" stroke="var-cm-color" stroke-width="3.0" x1="-95.0"
    x2="-115.0" y1="115.0" y2="135.0"/>
  <line fill="none" stroke="var-cm-color" stroke-width="3.0" x1="130.0"
    x2="110.0" y1="-115.0" y2="-100.0"/>
  <line fill="none" stroke="var-cm-color" stroke-width="3.0" x1="-110.0"
    x2="-130.0" y1="100.0" y2="115.0"/>
  <line fill="none" stroke="var-cm-color" stroke-width="3.0" x1="145.0"
    x2="125.0" y1="-95.0" y2="-80.0"/>
  <line fill="none" stroke="var-cm-color" stroke-width="3.0" x1="-125.0"
    x2="-145.0" y1="80.0" y2="95.0"/>
  <line fill="none" stroke="var-cm-color" stroke-width="3.0" x1="160.0"
    x2="135.0" y1="-75.0" y2="-60.0"/>
  <line fill="none" stroke="var-cm-color" stroke-width="3.0" x1="-135.0"
    x2="-160.0" y1="60.0" y2="75.0"/>
  <line fill="none" stroke="var-cm-color" stroke-width="3.0" x1="170.0"
    x2="145.0" y1="-50.0" y2="-40.0"/>
  <line fill="none" stroke="var-cm-color" stroke-width="3.0" x1="-140.0"
    x2="-170.0" y1="45.0" y2="50.0"/>
  <line fill="none" stroke="var-cm-color" stroke-width="3.0" x1="175.0"
    x2="145.0" y1="-25.0" y2="-20.0"/>
  <line fill="none" stroke="var-cm-color" stroke-width="3.0" x1="175.0"
    x2="145.0" y1="25.0" y2="20.0"/>
  <line fill="none" stroke="var-cm-color" stroke-width="3.0" x1="175.0"
    x2="150.0" y1="0.0" y2="0.0"/>
  <line fill="none" stroke="var-cm-color" stroke-width="3.0" x1="170.0"
    x2="145.0" y1="50.0" y2="40.0"/>
</svg>
