<?xml version="1.0" encoding="UTF-8"?>
<!DOCTYPE svg PUBLIC "-//W3C//DTD SVG 1.0//EN"
                     "http://www.w3.org/TR/2001/REC-SVG-20010904/DTD/svg10.dtd">
<?variable name="var-cm-color" type="java.awt.Color" default="black"?>
<svg height="400.0" viewBox="-200.0,-350.0,400.0,400.0" width="400.0"
  xmlns="http://www.w3.org/2000/svg" xmlns:xlink="http://www.w3.org/1999/xlink">
  <polygon
    points="-120.0,-225.0 -120.0,-235.0 -115.0,-245.0 -110.0,-255.0 -100.0,-265.0 -90.0,-275.0 -80.0,-280.0 -70.0,-285.0 -60.0,-290.0 -45.0,-295.0 -20.0,-300.0 -10.0,-300.0 5.0,-300.0 20.0,-300.0 45.0,-295.0 65.0,-290.0 75.0,-285.0 90.0,-275.0 95.0,-270.0 100.0,-265.0 115.0,-250.0 120.0,-235.0 120.0,-225.0 115.0,-205.0 110.0,-195.0 100.0,-185.0 90.0,-175.0 75.0,-175.0 55.0,-200.0 20.0,-215.0 -20.0,-215.0 -55.0,-200.0 -75.0,-175.0 -90.0,-175.0 -100.0,-185.0 -110.0,-195.0 -115.0,-205.0" stroke="var-cm-color"/>
  <polygon
    points="-45.0,-25.0 -65.0,-20.0 -80.0,-15.0 -75.0,-5.0 -55.0,0.0 55.0,0.0 75.0,-5.0 80.0,-15.0 65.0,-20.0 45.0,-25.0" stroke="var-cm-color"/>
  <polygon points="-25.0,-25.0 0.0,-215.0 25.0,-25.0" stroke="var-cm-color"/>
</svg>
