<?xml version="1.0"?>
<!DOCTYPE svg PUBLIC "-//W3C//DTD SVG 1.1//EN" "http://www.w3.org/Graphics/SVG/1.1/DTD/svg11.dtd" >
<!-- SVG content generated using Symbology Configuration Management System (SCMS) -->
<!-- Systematic Software Engineering Ltd. - www.systematic.co.uk - do not remove  -->
<svg id="G*GPOAA---****X" width="400px" height="400px" viewBox="0 0 400 400">
<g >
<svg viewBox="0 0 400 400" id="_0.G-GPOAA-------X" width="400px" height="400px"><g transform="translate(-110 -90) scale(1.25 1.25)"><path d="M158.551 136.378 C177.181 133.682 266.264 139.252 313.038 157.962 C325.119 162.794      334.74 174.604 339.038 186.962 C352.998 227.098 303.15 221.034 292.038 246.962      C279.375 276.508 338.581 281.005 299.038 327.962 C275.842 355.507 214.029      374.385 180.038 354.962 C168.132 348.158 162.314 333.855 149.939 327.962      C123.131 315.196 34.0087 332.618 61.8403 299.061 C153.823 188.156 95.6104 215.674      123.995 140.306 C128.943 135.173 156.086 138.388 158.752 136.021" style="fill:none;stroke:rgb(0,0,0);stroke-width:2" transform="matrix(1 0 0 1 49 -17)"></path>
<text x="156px" y="438px" transform="matrix(1 0 0 1 75 -221) translate(-16 -169) translate(10 154)" style="fill:rgb(0,0,0);font-family:Arial Black;font-weight:bold;font-size:18">ASLT</text>
<text x="292px" y="432px" transform="matrix(1 0 0 1 -57 -194) translate(-16 -169) translate(10 154)" style="fill:rgb(0,0,0);font-family:Arial Black;font-weight:bold;font-size:18">PSN</text>
<g id="T"><text x="204px" y="83px" transform="translate(-10 4) translate(10 154)" style="fill:rgb(0,0,0);font-size:18;font-family:Arial Black;font-weight:bold">ATLANTA</text>
</g>
</g>
</svg>

</g>
</svg>