<?xml version="1.0"?>
<!DOCTYPE svg PUBLIC "-//W3C//DTD SVG 1.1//EN" "http://www.w3.org/Graphics/SVG/1.1/DTD/svg11.dtd" >
<!-- SVG content generated using Symbology Configuration Management System (SCMS) -->
<!-- Systematic Software Engineering Ltd. - www.systematic.co.uk - do not remove  -->
<svg id="G*GPOAO---****X" width="400px" height="400px" viewBox="0 0 400 400">
<g >
<svg viewBox="0 0 400 400" id="_0.G-GPOAO-------X" width="400px" height="400px"><g transform="translate(-60 -40) scale(1 1)"><path d="M127.684 150.803 C157.762 145.955 191.07 138.578 219 149.75 C234.011 155.754 245.278      170.007 261 173.75 C295.656 182.001 335.857 161.546 369 175.75 C418.336      196.894 404.749 251.898 357 262.75 C275.152 281.352 252.965 230.039 193 235.75      C174.72 237.491 166.02 248.936 152 258.75 C132.165 272.635 86.539 271.827      65 263.75 C2.31764 240.244 96.5172 160.195 128 150.75" style="fill:none;stroke:rgb(0,0,0);stroke-width:2" transform="matrix(1 0 0 1 37 9)"></path>
<text x="140px" y="40px" transform="matrix(1 0 0 1 0 0) translate(59.3023 170.93) translate(-1 0) translate(-1 0) translate(-1 0) translate(-1 0)" style="fill:rgb(0,0,0);stroke-width:1;font-family:Arial Black;font-weight:bold;font-size:18;     ">OBJ</text>
<g id="T"><text x="242px" y="72px" transform="matrix(1 0 0 1 0 0) translate(1.16279 138.372)" style="fill:rgb(0,0,0);stroke-width:1;font-family:Arial Black;font-weight:bold;font-size:18;      ">BOSTON</text>
</g>
</g>
</svg>

</g>
</svg>