<?xml version="1.0"?>
<!DOCTYPE svg PUBLIC "-//W3C//DTD SVG 1.1//EN" "http://www.w3.org/Graphics/SVG/1.1/DTD/svg11.dtd" >
<!-- SVG content generated using Symbology Configuration Management System (SCMS) -->
<!-- Systematic Software Engineering Ltd. - www.systematic.co.uk - do not remove  -->
<svg id="G*GPGPHQ--****X" width="400px" height="400px" viewBox="0 0 400 400">
<g >
<svg viewBox="0 0 400 400" id="_0.G-GPGPHQ------X" width="400px" height="400px"><polyline points="127,320 35,75 360,75 273,320" transform="matrix(1 0 0 1 0 0)" style="fill:none;stroke:rgb(0,0,0);stroke-width:5"></polyline>
<text x="150px" y="240px" transform="matrix(1 0 0 1 0 0)" style="fill:rgb(0,0,0);stroke:rgb(0,0,0);font-size:120;font-family:Arial">Q</text>
<g id="CENTER%20POINT" transform="matrix(1.75 0 0 1.75 -100.5 -232.75) translate(-6.85714 84)"><text x="70px" y="251px" transform="matrix(1 0 0 1 0 0)" style="fill:rgb(0,0,0);stroke-width:1;font-family:Arial Black;font-weight:bold;font-size:12;
			">CENTER</text>
<text x="94px" y="283px" transform="matrix(1 0 0 1 0 0) translate(-15 -18)" style="fill:rgb(0,0,0);stroke-width:1;font-family:Arial Black;font-weight:bold;font-size:12;
			">POINT</text>
</g>
<line x1="70" y1="330" x2="150" y2="250" transform="matrix(1 0 0 1 0 0)" style="fill:none;stroke:rgb(0,0,0);stroke-width:3"></line>
<polygon points="138,250 158,242.333 149,263" transform="matrix(1 0 0 1 0 0)" style="fill:rgb(0,0,0);stroke:rgb(0,0,0);stroke-width:1"></polygon>
</svg>

</g>
</svg>