<?xml version="1.0"?>
<!DOCTYPE svg PUBLIC "-//W3C//DTD SVG 1.1//EN" "http://www.w3.org/Graphics/SVG/1.1/DTD/svg11.dtd" >
<!-- SVG content generated using Symbology Configuration Management System (SCMS) -->
<!-- Systematic Software Engineering Ltd. - www.systematic.co.uk - do not remove  -->
<svg id="SUGPUUSRT-*****" width="400px" height="400px" viewBox="0 0 400 400">
<g >
<svg viewBox="0 0 400 400" id="_0.SUG-U----------" width="400px" height="400px"><path d="M115 285 C115 400 285 400 285 285 C400 285 400 115 285 115 C285 0 115 0 115 115 C0     115 0 285 115 285 z" style="fill:rgb(255,255,128);stroke:rgb(0,0,0);stroke-width:10"></path>
</svg>

</g>
<g >
<svg viewBox="0 0 400 400" id="_1.SUG-UUS--------" width="400px" height="400px"><polyline points="80,121 200,220 200,180 320,279" style="fill:none;stroke:rgb(0,0,0);stroke-width:10"></polyline>
</svg>

</g>
<g >
<svg viewBox="0 0 400 400" id="_2.S-G-UUSRT------" width="400px" height="400px"><line x1="200" y1="110" x2="200" y2="305" style="fill:none;stroke:rgb(0,0,0);stroke-width:10"></line>
<line x1="135" y1="115" x2="265" y2="115" style="fill:none;stroke:rgb(0,0,0);stroke-width:10"></line>
<line x1="155" y1="140" x2="245" y2="140" style="fill:none;stroke:rgb(0,0,0);stroke-width:10"></line>
</svg>

</g>
<g transform="translate(80 160) scale(0.6 0.6)" >
<svg viewBox="0 0 400 400" id="_3.S-A-MFC--------" width="400px" height="400px"><text x="200" y="230" style="fill:rgb(0,0,0);text-anchor:middle;font-weight:bold;font-size:150;font-family:Arial">C</text>
</svg>

</g>
</svg>