<?xml version="1.0"?>
<!DOCTYPE svg PUBLIC "-//W3C//DTD SVG 1.1//EN" "http://www.w3.org/Graphics/SVG/1.1/DTD/svg11.dtd" >
<!-- SVG content generated using Symbology Configuration Management System (SCMS) -->
<!-- Systematic Software Engineering Ltd. - www.systematic.co.uk - do not remove  -->
<svg id="SFGPUSXOMC*****" width="400px" height="400px" viewBox="0 0 400 400">
<g >
<svg viewBox="0 0 400 400" id="_0.SFG-U----------" width="400px" height="400px"><rect x="20" y="80" width="360" height="240" style="fill:rgb(128,224,255);stroke:rgb(0,0,0);stroke-width:10"></rect>
</svg>

</g>
<g >
<svg viewBox="0 0 400 400" id="_1.S-G-USX--------" width="400px" height="400px"><line x1="140" y1="200" x2="260" y2="200" style="fill:none;stroke:rgb(0,0,0);stroke-width:10"></line>
<path d="M285 175 C250 175 250 225 285 225" style="fill:none;stroke:rgb(0,0,0);stroke-width:10"></path>
<path d="M115 175 C150 175 150 225 115 225" style="fill:none;stroke:rgb(0,0,0);stroke-width:10"></path>
</svg>

</g>
<g transform="translate(80 21) scale(0.6 0.6)" >
<svg viewBox="0 0 400 400" id="_2.S-G-UCM--------" width="400px" height="400px"><path d="M170 276 L170 144 C170 119 230 119 230 144 L230 276" style="stroke:rgb(0,0,0);stroke-width:10;fill:none" transform="translate(0 0) translate(0 0)"></path>
<line x1="200" y1="276" x2="200" y2="124" style="fill:none;stroke:rgb(0,0,0);stroke-width:10" transform="translate(200 184) scale(1 1) translate(-200 -184)"></line>
</svg>

</g>
<g >
<svg viewBox="0 0 400 400" id="_3.SFG-UUMSEC-----" width="400px" height="400px"><polyline points="380,80 330,200 380,320" style="fill:none;stroke:rgb(0,0,0);stroke-width:10" xmlns="http://www.w3.org/2000/svg"></polyline>
</svg>

</g>
</svg>