<?xml version="1.0"?>
<!DOCTYPE svg PUBLIC "-//W3C//DTD SVG 1.1//EN" "http://www.w3.org/Graphics/SVG/1.1/DTD/svg11.dtd" >
<!-- SVG content generated using Symbology Configuration Management System (SCMS) -->
<!-- Systematic Software Engineering Ltd. - www.systematic.co.uk - do not remove  -->
<svg id="G*GPSAO---****X" width="400px" height="400px" viewBox="0 0 400 400">
<g >
<svg viewBox="0 0 400 400" id="_0.G-GPSAO-------X" width="400px" height="400px"><g transform="translate(-130 -40) scale(1.25 1.25)"><path d="M130.686 141.198 L152.252 182.432 C156.224 190.026 172.005 182.343 179.279 186.937     C192.202 195.099 194.718 212.244 208.108 221.171 C218.98 228.419 235.755 235.885     245.045 244.595 C260.222 258.823 240.56 276.769 260.36 289.64 C263.418     291.627 363.297 294.239 370.27 293.243 L398.198 287.838 C404.641 276.026 371.138     268.78 367.568 262.613 C366.055 260.001 368.531 255.977 366.667 253.604     C359.365 244.311 356.718 254.247 348.649 250 C332.454 241.477 347.057 223.494     329.73 213.964 C320.671 208.982 311.524 214.677 302.703 205.856 C291.838     194.991 301.38 199.607 295.495 187.838 C289.813 176.472 276.677 177.661 272.973     165.315 C270.804 158.085 279.047 145.123 274.775 138.288 C266.661 125.307     246.11 138.945 241.441 120.27 C239.834 113.84 247.687 99.1877 245.045 93.2432     C238.633 78.816 193.562 81.2389 180.18 80.6306 C173.873 80.344 164.51     74.316 161.261 79.7297 C159.597 82.5031 165.839 85.6545 164.865 88.7387 L151.351     114.865 C146.213 125.713 134.559 128.796 130.631 141.892" style="fill:none;stroke:rgb(0,0,0);stroke-width:2"></path>
<text x="232px" y="407px" transform="matrix(1 0 0 1 -55 -253)" style="fill:rgb(0,0,0);font-family:Arial Black;font-weight:bold;font-size:12">AO</text>
<g id="T" transform="translate(173 63)"><rect x="26" y="77" width="22" height="21" transform="matrix(1 0 0 1 0 0)" style="fill:rgb(255,255,255);stroke:rgb(0,0,0);stroke-width:2"></rect>
<text x="32px" y="92px" transform="matrix(1 0 0 1 0 0)" style="fill:rgb(0,0,0);stroke-width:1;font-family:Arial Black;font-weight:bold;font-size:12;     ">T</text>
</g>
</g>
</svg>

</g>
</svg>