<?xml version="1.0"?>
<!DOCTYPE svg PUBLIC "-//W3C//DTD SVG 1.1//EN" "http://www.w3.org/Graphics/SVG/1.1/DTD/svg11.dtd" >
<!-- SVG content generated using Symbology Configuration Management System (SCMS) -->
<!-- Systematic Software Engineering Ltd. - www.systematic.co.uk - do not remove  -->
<svg id="G*FPAC----****X" width="400px" height="400px" viewBox="0 0 400 400">
<g >
<svg viewBox="0 0 400 400" id="_0.G-FPAC--------X" width="400px" height="400px"><g transform="translate(-195 -220) scale(1.75 1.75)"><line x1="160" y1="182" x2="160" y2="330" style="fill:rgb(0,0,0);stroke:rgb(0,0,0);stroke-width:2" transform="matrix(1 0 0 1 -26 -3)"></line>
<line x1="249.94" y1="150.408" x2="249.98" y2="325.12" transform="matrix(1 0 0 1 65.4444 -1.11111)" style="fill:rgb(0,0,0);stroke:rgb(0,0,0);stroke-width:2"></line>
<line x1="121.2" y1="331.4" x2="303" y2="329" style="fill:rgb(0,0,0);stroke:rgb(0,0,0);stroke-width:2" transform="matrix(1 0 0 1 13 -6)"></line>
<line x1="121.2" y1="186.333" x2="302.064" y2="156.297" style="fill:rgb(0,0,0);stroke:rgb(0,0,0);stroke-width:2" transform="matrix(1 0 0 1 13 -6)"></line>
<text x="80px" y="68px" transform="matrix(1 0 0 1 65 136)" style="fill:rgb(0,0,0);font-size:12;font-family:Arial Black;font-weight:bold">ACA</text>
<g id="T" transform="matrix(1 0 0 1 -1 -15)"><text x="82px" y="84px" transform="translate(62 148) translate(0 1) translate(0 1) translate(1 0)" style="fill:rgb(0,0,0);font-size:12;font-family:Arial Black;font-weight:bold">53ID (M)</text>
</g>
<g id="W1"><text x="362px" y="94px" transform="matrix(1 0 0 1 -219 203) translate(31.3953 -18.6047)" style="fill:rgb(0,0,0);font-size:12;font-family:Arial Black;font-weight:bold">281530ZAPR</text>
</g>
<text x="164px" y="122px" transform="matrix(1 0 0 1 0 0) translate(-22.093 109.302)" style="fill:rgb(0,0,0);stroke-width:1;font-size:12;font-family:Arial Black;font-weight:bold;    ">MIN ALT:</text>
<text x="149px" y="140px" transform="matrix(1 0 0 1 0 0) translate(-8.13953 103.488) translate(1 0)" style="fill:rgb(0,0,0);stroke-width:1;font-size:12;font-family:Arial Black;font-weight:bold;    ">MAX ALT:</text>
<text x="159px" y="54px" transform="matrix(1 0 0 1 0 0) translate(-17.4419 201.163) translate(-1 0)" style="fill:rgb(0,0,0);stroke-width:1;font-size:12;font-family:Arial Black;font-weight:bold;    ">GRIDS</text>
<text x="248px" y="93px" transform="matrix(1 0 0 1 0 0) translate(-105.814 173.256)" style="fill:rgb(0,0,0);stroke-width:1;font-size:12;font-family:Arial Black;font-weight:bold;    ">EFF:</text>
<g id="H"><text x="77px" y="95px" transform="matrix(1 0 0 1 0 0) translate(130.233 137.209)" style="fill:rgb(0,0,0);stroke-width:1;font-family:Arial Black;font-weight:bold;font-size:12;     ">500</text>
</g>
<g id="H1"><text x="185px" y="78px" transform="matrix(1 0 0 1 0 0) translate(24.4186 166.279)" style="fill:rgb(0,0,0);stroke-width:1;font-family:Arial Black;font-weight:bold;font-size:12;     ">3000</text>
</g>
<g id="H2"><text x="147px" y="134px" transform="matrix(1 0 0 1 0 0) translate(37.2093 120.93) translate(1.16279 0) translate(0 0) translate(-1 0)" style="fill:rgb(0,0,0);stroke-width:1;font-family:Arial Black;font-weight:bold;font-size:12;     ">NK2320 to NK 3013</text>
</g>
<g id="W"><text x="365px" y="147px" transform="matrix(1 0 0 1 0 0) translate(-190.698 119.767) translate(1.16279 0)" style="fill:rgb(0,0,0);stroke-width:1;font-family:Arial Black;font-weight:bold;font-size:12;     ">281400ZAPR</text>
</g>
<text x="262px" y="265px" transform="matrix(1 0 0 1 0 0) translate(0 1) translate(0 1) translate(-1 0) translate(-1 0)" style="fill:rgb(0,0,0);stroke-width:1;font-size:12;font-family:Arial Black;font-weight:bold;    ">-</text>
</g>
</svg>

</g>
</svg>