<?xml version="1.0"?>
<!DOCTYPE svg PUBLIC "-//W3C//DTD SVG 1.1//EN" "http://www.w3.org/Graphics/SVG/1.1/DTD/svg11.dtd" >
<!-- SVG content generated using Symbology Configuration Management System (SCMS) -->
<!-- Systematic Software Engineering Ltd. - www.systematic.co.uk - do not remove  -->
<svg id="G*FPAS----****X" width="400px" height="400px" viewBox="0 0 400 400">
<g >
<svg viewBox="0 0 400 400" id="_0.G-FPAS--------X" width="400px" height="400px"><g transform="translate(-80 0)"><rect x="140" y="139" width="216" height="112" rx="49.5" ry="44" style="fill:rgb(255,255,255);stroke:rgb(0,0,0);stroke-width:2" transform="matrix(1 0 0 1 6 45) translate(248 251) scale(1 1.54464) translate(-248 -251) translate(140 195) scale(1.38426 1) translate(-140 -195) translate(248 251) scale(1 1.26012) translate(-248 -251) translate(356 195) scale(1.19064 1) translate(-356 -195) translate(248 139) scale(1 1.27982) translate(-248 -139) translate(-1.82022 -0.401434) translate(248 139) scale(1 0.845878) translate(-248 -139) translate(0 0) translate(356 195) scale(0.904494 1) translate(-356 -195) translate(248 139) scale(1 0.915254) translate(-248 -139) translate(248 251) scale(1 0.944444) translate(-248 -251)"></rect>
<text x="182px" y="347px" transform="translate(-20 -199) translate(27 0)" style="fill:rgb(0,0,0);font-size:12;font-family:Arial Black;font-weight:bold">AG7007</text>
<text x="212px" y="390px" transform="translate(59 -151)" style="fill:rgb(0,0,0);font-size:12;font-family:Arial Black;font-weight:bold">AG7006</text>
<text x="290px" y="334px" transform="translate(51 -192) translate(3 4)" style="fill:rgb(0,0,0);font-size:12;font-family:Arial Black;font-weight:bold">AG7004</text>
<g transform="translate(126 94) translate(-51 -16) translate(3 0) translate(22 -1)"><line x1="78" y1="54" x2="78" y2="113" style="fill:rgb(0,0,0);stroke:rgb(0,0,0);stroke-width:2"></line>
<line x1="46.5" y1="80" x2="104" y2="80" transform="matrix(1 0 0 1 3 0)" style="fill:rgb(0,0,0);stroke:rgb(0,0,0);stroke-width:2"></line>
</g>
<g transform="translate(101 -61) translate(-13 -34)"><line x1="46.5" y1="80" x2="104" y2="80" transform="matrix(1 0 0 1 175 167)" style="fill:rgb(0,0,0);stroke:rgb(0,0,0);stroke-width:2"></line>
<line x1="250" y1="221" x2="250" y2="280" style="fill:rgb(0,0,0);stroke:rgb(0,0,0);stroke-width:2"></line>
</g>
<g transform="translate(38 4) translate(-27 44) translate(0 -47)"><line x1="250" y1="221" x2="250" y2="280" style="fill:rgb(0,0,0);stroke:rgb(0,0,0);stroke-width:2"></line>
<line x1="46.5" y1="80" x2="104" y2="80" transform="matrix(1 0 0 1 175 167)" style="fill:rgb(0,0,0);stroke:rgb(0,0,0);stroke-width:2"></line>
</g>
<g id="T" transform="translate(133 -99) translate(-111 53)"><rect x="230" y="124" width="56" height="21" style="fill:rgb(255,255,255);stroke:none;stroke-width:2"></rect>
<text x="234px" y="141px" style="fill:rgb(0,0,0);font-family:Arial Black;font-weight:bold;font-size:18">JEFF</text>
</g>
</g>
</svg>

</g>
</svg>