<?xml version="1.0"?>
<!DOCTYPE svg PUBLIC "-//W3C//DTD SVG 1.1//EN" "http://www.w3.org/Graphics/SVG/1.1/DTD/svg11.dtd" >
<!-- SVG content generated using Symbology Configuration Management System (SCMS) -->
<!-- Systematic Software Engineering Ltd. - www.systematic.co.uk - do not remove  -->
<svg id="G*MPOS----****X" width="400px" height="400px" viewBox="0 0 400 400">
<g >
<svg viewBox="0 0 400 400" id="_0.G-MPOS--------X" width="400px" height="400px"><g transform="translate(-180 -170) scale(1.5 1.5)"><polyline points="105.5,223 125.5,179 146.5,222 315.5,222" style="stroke:rgb(0,0,0);stroke-width:2;fill:rgb(255,255,255)" transform="matrix(1 0 0 1 47 23)"></polyline>
<g id="PT.%201" transform="translate(-5 -24)"><text x="170px" y="316px" transform="matrix(1 0 0 1 0 0)" style="fill:rgb(0,0,0);stroke-width:1;font-family:Arial Black;font-weight:bold;font-size:12;      ">PT. 1</text>
</g>
<g id="PT.%202" transform="translate(21 -36)"><text x="294px" y="323px" transform="matrix(1 0 0 1 0 0)" style="fill:rgb(0,0,0);stroke-width:1;font-family:Arial Black;font-weight:bold;font-size:12;      ">PT. 2</text>
</g>
<line x1="152" y1="255" x2="152" y2="273" transform="matrix(1 0 0 1 0 0)" style="fill:rgb(0,0,0);stroke:rgb(0,0,0);stroke-width:2"></line>
<line x1="151.748" y1="272.381" x2="164" y2="289" transform="matrix(1 0 0 1 0 0)" style="fill:rgb(0,0,0);stroke:rgb(0,0,0);stroke-width:2"></line>
<line x1="362" y1="254" x2="362" y2="271" transform="matrix(1 0 0 1 0 0)" style="fill:rgb(0,0,0);stroke:rgb(0,0,0);stroke-width:2"></line>
<line x1="362.298" y1="270.506" x2="352" y2="282" transform="matrix(1 0 0 1 0 0)" style="fill:rgb(0,0,0);stroke:rgb(0,0,0);stroke-width:2"></line>
<polygon points="63,43 71.0829,57 54.9171,57" transform="matrix(1.11346 0 0 1 -7.14806 0) translate(79.0328 206) translate(0.8981 0)" style="fill:rgb(0,0,0);stroke:rgb(0,0,0);stroke-width:2"></polygon>
<polygon points="63,43 71.0829,57 54.9171,57" transform="matrix(1.11346 0 0 1 180.852 201) translate(99.6893 6)" style="fill:rgb(0,0,0);stroke:rgb(0,0,0);stroke-width:2"></polygon>
</g>
</svg>

</g>
</svg>