<?xml version="1.0"?>
<!DOCTYPE svg PUBLIC "-//W3C//DTD SVG 1.1//EN" "http://www.w3.org/Graphics/SVG/1.1/DTD/svg11.dtd" >
<!-- SVG content generated using Symbology Configuration Management System (SCMS) -->
<!-- Systematic Software Engineering Ltd. - www.systematic.co.uk - do not remove  -->
<svg id="G*TPA-----****X" width="400px" height="400px" viewBox="0 0 400 400">
<g >
<svg viewBox="0 0 400 400" id="_0.G-TPA---------X" width="400px" height="400px"><g transform="translate(-80 -120) scale(1.25 1.25)"><line x1="272.074" y1="190.109" x2="231.647" y2="151.232" style="fill:rgb(0,0,0);stroke:rgb(0,0,0);stroke-width:2" transform="matrix(1 0 0 1 72 48)"></line>
<line x1="271.208" y1="189.642" x2="229.745" y2="218.91" style="fill:rgb(0,0,0);stroke:rgb(0,0,0);stroke-width:2" transform="matrix(1 0 0 1 72 48)"></line>
<line x1="232" y1="152" x2="232" y2="141" style="fill:rgb(0,0,0);stroke:rgb(0,0,0);stroke-width:2" transform="matrix(1 0 0 1 72 48)"></line>
<line x1="230.157" y1="218.028" x2="229.879" y2="227.734" style="fill:rgb(0,0,0);stroke:rgb(0,0,0);stroke-width:2" transform="matrix(1 0 0 1 72 48)"></line>
<line x1="230.098" y1="226.969" x2="281.208" y2="189.109" style="fill:rgb(0,0,0);stroke:rgb(0,0,0);stroke-width:2" transform="matrix(1 0 0 1 72 48)"></line>
<line x1="232.314" y1="141.712" x2="280.608" y2="189.842" style="fill:rgb(0,0,0);stroke:rgb(0,0,0);stroke-width:2" transform="matrix(1 0 0 1 72 48)"></line>
<line x1="68" y1="171" x2="68" y2="213" style="fill:rgb(0,0,0);stroke:rgb(0,0,0);stroke-width:2" transform="matrix(1 0 0 1 72 48)"></line>
<line x1="67.0436" y1="170.773" x2="119.659" y2="170.729" style="fill:rgb(0,0,0);stroke:rgb(0,0,0);stroke-width:2" transform="matrix(1 0 0 1 72 48)"></line>
<line x1="68" y1="212" x2="120.77" y2="212.063" style="fill:rgb(0,0,0);stroke:rgb(0,0,0);stroke-width:2" transform="matrix(1 0 0 1 72 48)"></line>
<line x1="162.992" y1="212.952" x2="181.437" y2="190.952" transform="matrix(1 0 0 1 29.1111 47.3333)" style="fill:rgb(0,0,0);stroke:rgb(0,0,0);stroke-width:2"></line>
<line x1="181.437" y1="190.952" x2="161.437" y2="171.618" transform="matrix(1 0 0 1 29.5556 47.1111)" style="fill:rgb(0,0,0);stroke:rgb(0,0,0);stroke-width:2"></line>
<line x1="181" y1="190" x2="200" y2="190" style="fill:rgb(0,0,0);stroke:rgb(0,0,0);stroke-width:2" transform="matrix(1 0 0 1 72 48)"></line>
<line x1="206" y1="190" x2="223" y2="190" style="fill:rgb(0,0,0);stroke:rgb(0,0,0);stroke-width:2" transform="matrix(1 0 0 1 72 48)"></line>
<line x1="230.81" y1="189.94" x2="249.91" y2="189.94" style="fill:rgb(0,0,0);stroke:rgb(0,0,0);stroke-width:2" transform="matrix(1 0 0 1 72 48)"></line>
<line x1="255.577" y1="189.94" x2="270.798" y2="189.935" style="fill:rgb(0,0,0);stroke:rgb(0,0,0);stroke-width:2" transform="matrix(1 0 0 1 72 48)"></line>
<line x1="139" y1="190" x2="152" y2="190" style="fill:rgb(0,0,0);stroke:rgb(0,0,0);stroke-width:2" transform="matrix(1 0 0 1 72 48)"></line>
<line x1="157" y1="190" x2="176" y2="190" style="fill:rgb(0,0,0);stroke:rgb(0,0,0);stroke-width:2" transform="matrix(1 0 0 1 72 48)"></line>
<g id="T" transform="translate(63 147)"><rect x="98" y="83" width="16" height="16" transform="matrix(1 0 0 1 0 0)" style="fill:rgb(255,255,255);stroke:rgb(0,0,0);stroke-width:2"></rect>
<text x="102px" y="96px" transform="matrix(1 0 0 1 0 0)" style="fill:rgb(0,0,0);stroke-width:1;font-family:Arial Black;font-weight:bold;font-size:12;      ">T</text>
</g>
<g id="PT.%201" transform="translate(118 217)"><text x="166px" y="102px" transform="matrix(1 0 0 1 0 0)" style="fill:rgb(0,0,0);stroke-width:1;font-family:Arial Black;font-weight:bold;font-size:12;      ">PT. 1</text>
</g>
<g id="PT.%202" transform="translate(-204 194)"><text x="320px" y="91px" transform="matrix(1 0 0 1 0 0)" style="fill:rgb(0,0,0);stroke-width:1;font-family:Arial Black;font-weight:bold;font-size:12;      ">PT. 2</text>
</g>
<line x1="108" y1="316" x2="87.2802" y2="278.429" transform="matrix(1 0 0 1 0 0) translate(5 -36)" style="fill:rgb(0,0,0);stroke:rgb(0,0,0);stroke-width:2"></line>
<line x1="88" y1="279" x2="118" y2="280" transform="matrix(1 0 0 1 0 0) translate(5 -36)" style="fill:rgb(0,0,0);stroke:rgb(0,0,0);stroke-width:2"></line>
<line x1="318" y1="316" x2="354.25" y2="280.411" transform="matrix(1 0 0 1 0 0)" style="fill:rgb(0,0,0);stroke:rgb(0,0,0);stroke-width:2"></line>
<line x1="354" y1="281" x2="354" y2="256" transform="matrix(1 0 0 1 0 0)" style="fill:rgb(0,0,0);stroke:rgb(0,0,0);stroke-width:2"></line>
<polygon points="198,325.536 202,332.464 194,332.464" transform="matrix(1 0 0 1.73205 0 -240.845) translate(155 -43.8786)" style="fill:rgb(0,0,0);stroke:rgb(0,0,0);stroke-width:2"></polygon>
<polygon points="198,325.536 202,332.464 194,332.464" transform="matrix(6.12303e-017 1 -1.73205 1.06054e-016 818.978 52.1335) translate(29 73.3235) translate(-36 -2.88675)" style="fill:rgb(0,0,0);stroke:rgb(0,0,0);stroke-width:2"></polygon>
</g>
</svg>

</g>
</svg>