<?xml version="1.0"?>
<!DOCTYPE svg PUBLIC "-//W3C//DTD SVG 1.1//EN" "http://www.w3.org/Graphics/SVG/1.1/DTD/svg11.dtd" >
<!-- SVG content generated using Symbology Configuration Management System (SCMS) -->
<!-- Systematic Software Engineering Ltd. - www.systematic.co.uk - do not remove  -->
<svg id="WA--TE---------" width="400px" height="400px" viewBox="0 0 400 400">
<g >
<svg viewBox="0 0 400 400" id="_0.WA--TE---------" width="400px" height="400px"><g transform="translate(10 80) scale(7 7)"><path d="M0 30.875 L0 29.625 L6.984 29.625 L8.584 30.699 zM8.533 30.744 L27.24 14.209 L45.475      30.73 L46.871 29.55 L27.213 11.549 L7.055 29.551 zM12.135 15.627 L27.23      2.635 L41.904 15.582 L43.271 14.428 L27.215 0 L10.656 14.43 zM12.135 21.387      L27.196 8.457 L41.834 21.42 L43.272 20.19 L27.215 5.79 L10.656 20.19 zM54.072      30.875 L54.072 29.625 L46.951 29.625 L45.504 30.678 z" style="fill:rgb(0,0,255)"></path>
</g>
</svg>

</g>
</svg>