<?xml version="1.0"?>
<!DOCTYPE svg PUBLIC "-//W3C//DTD SVG 1.1//EN" "http://www.w3.org/Graphics/SVG/1.1/DTD/svg11.dtd" >
<!-- SVG content generated using Symbology Configuration Management System (SCMS) -->
<!-- Systematic Software Engineering Ltd. - www.systematic.co.uk - do not remove  -->
<svg id="SUFPGR----*****" width="400px" height="400px" viewBox="0 0 400 400">
<g >
<svg viewBox="0 0 400 400" id="_0.SUF------------" width="400px" height="400px"><path d="M115 285 C115 400 285 400 285 285 C400 285 400 115 285 115 C285 0 115 0 115 115 C0     115 0 285 115 285 z" style="fill:rgb(255,255,128);stroke:rgb(0,0,0);stroke-width:10"></path>
</svg>

</g>
<g >
<svg viewBox="0 0 400 400" id="_1.SUG-UCI--------" width="400px" height="400px"><line x1="320" y1="121" x2="80" y2="279" style="fill:none;stroke:rgb(0,0,0);stroke-width:10"></line>
<line x1="80" y1="121" x2="320" y2="279" style="fill:none;stroke:rgb(0,0,0);stroke-width:10"></line>
</svg>

</g>
<g >
<svg viewBox="0 0 400 400" id="_2.S-F-GR---------" width="400px" height="400px"><text x="168px" y="158px" transform="matrix(1 0 0 1 0 0)" style="fill:rgb(0,0,0);stroke:rgb(0,0,0);font-size:90;font-family:Arial">R</text>
</svg>

</g>
<g transform="scale(0.8 0.8) translate(50 100)" >
<svg viewBox="0 0 400 400" id="_3.S-G-UCATA------" width="400px" height="400px"><path d="M120 270 C120 230 200 230 200 270 C200 230 280 230 280 270" style="fill:none;stroke:rgb(0,0,0);stroke-width:10"></path>
</svg>

</g>
</svg>