<?xml version="1.0"?>
<!DOCTYPE svg PUBLIC "-//W3C//DTD SVG 1.1//EN" "http://www.w3.org/Graphics/SVG/1.1/DTD/svg11.dtd" >
<!-- SVG content generated using Symbology Configuration Management System (SCMS) -->
<!-- Systematic Software Engineering Ltd. - www.systematic.co.uk - do not remove  -->
<svg id="G*MPOAW---****X" width="400px" height="400px" viewBox="0 0 400 400">
<g >
<svg viewBox="0 0 400 400" id="_0.G-MPOAW-------X" width="400px" height="400px"><g transform="translate(-300 -160) scale(2 2)"><polyline points="129.557,127.671 150.451,127.671 159.905,103.671 168.996,128.035 203.178,128.035 213.723,101.853      223.905,126.58 254.814,126.58 265.36,102.58 276.996,126.58 295.594,126.58" transform="matrix(-1 3.67382e-016 -3.67382e-016 -1 464.605 312.046)" style="stroke:rgb(0,0,0);stroke-width:2;fill:rgb(255,255,255)"></polyline>
<g id="PT.%201" transform="translate(97 63)"><text x="90px" y="85px" transform="matrix(1 0 0 1 0 0)" style="fill:rgb(0,0,0);stroke-width:1;font-family:Arial Black;font-weight:bold;font-size:12;      ">PT. 1</text>
</g>
<g id="PT.%202" transform="translate(42 57)"><text x="232px" y="87px" transform="matrix(1 0 0 1 0 0)" style="fill:rgb(0,0,0);stroke-width:1;font-family:Arial Black;font-weight:bold;font-size:12;      ">PT. 2</text>
</g>
<line x1="168" y1="180" x2="168" y2="157" transform="matrix(1 0 0 1 0 0)" style="fill:rgb(0,0,0);stroke:rgb(0,0,0);stroke-width:2"></line>
<line x1="167.757" y1="157.868" x2="184" y2="146" transform="matrix(1 0 0 1 0 0)" style="fill:rgb(0,0,0);stroke:rgb(0,0,0);stroke-width:2"></line>
<line x1="334" y1="176" x2="334" y2="150" transform="matrix(1 0 0 1 0 0)" style="fill:rgb(0,0,0);stroke:rgb(0,0,0);stroke-width:2"></line>
<line x1="334.441" y1="150.868" x2="310" y2="141" transform="matrix(1 0 0 1 0 0)" style="fill:rgb(0,0,0);stroke:rgb(0,0,0);stroke-width:2"></line>
<polygon points="22,68.5359 26,75.4641 18,75.4641" transform="matrix(1 0 0 -2.02073 0 215.472) translate(147 -51.9615) translate(-1 0)" style="fill:rgb(0,0,0);stroke:rgb(0,0,0);stroke-width:2"></polygon>
<polygon points="22,68.5359 26,75.4641 18,75.4641" transform="matrix(1 0 0 -2.02073 228 395.472) translate(85 39.0948) translate(-1 0)" style="fill:rgb(0,0,0);stroke:rgb(0,0,0);stroke-width:2"></polygon>
</g>
</svg>

</g>
</svg>