<?xml version="1.0"?>
<!DOCTYPE svg PUBLIC "-//W3C//DTD SVG 1.1//EN" "http://www.w3.org/Graphics/SVG/1.1/DTD/svg11.dtd" >
<!-- SVG content generated using Symbology Configuration Management System (SCMS) -->
<!-- Systematic Software Engineering Ltd. - www.systematic.co.uk - do not remove  -->
<svg id="G*GPOLKGM-****X" width="400px" height="400px" viewBox="0 0 400 400">
<g >
<svg viewBox="0 0 400 400" id="_0.G-GPOLKGM-----X" width="400px" height="400px"><g transform="translate(-45 -70) scale(1 1)"><line x1="346.071" y1="230.296" x2="346.798" y2="219.751" style="fill:rgb(0,0,0);stroke:rgb(0,0,0);stroke-width:2" transform="matrix(1 0 0 1 29 0)"></line>
<line x1="346" y1="272" x2="346.253" y2="282.66" style="fill:rgb(0,0,0);stroke:rgb(0,0,0);stroke-width:2" transform="matrix(1 0 0 1 29 0)"></line>
<line x1="346.307" y1="281.751" x2="396.489" y2="248.296" style="fill:rgb(0,0,0);stroke:rgb(0,0,0);stroke-width:2" transform="matrix(1 0 0 1 29 0)"></line>
<line x1="346" y1="219" x2="397.762" y2="248.478" style="fill:rgb(0,0,0);stroke:rgb(0,0,0);stroke-width:2" transform="matrix(1 0 0 1 29 0)"></line>
<line x1="346" y1="230" x2="383.525" y2="248.478" style="fill:rgb(0,0,0);stroke:rgb(0,0,0);stroke-width:2" transform="matrix(1 0 0 1 29 0)"></line>
<line x1="346" y1="272" x2="383" y2="248" style="fill:rgb(0,0,0);stroke:rgb(0,0,0);stroke-width:2" transform="matrix(1 0 0 1 29 0)"></line>
<line x1="382" y1="248" x2="30" y2="248" style="fill:rgb(0,0,0);stroke:rgb(0,0,0);stroke-width:2" transform="matrix(1 0 0 1 29 0)"></line>
<g id="PT.%201" transform="translate(270 222)"><text x="98px" y="97px" transform="matrix(1 0 0 1 0 0)" style="fill:rgb(0,0,0);stroke-width:1;font-family:Arial Black;font-weight:bold;font-size:12;      ">PT. 1</text>
</g>
<g id="PT.%202" transform="translate(-91 180)"><text x="168px" y="130px" transform="matrix(1 0 0 1 0 0)" style="fill:rgb(0,0,0);stroke-width:1;font-family:Arial Black;font-weight:bold;font-size:12;      ">PT. 2</text>
</g>
<line x1="60" y1="261" x2="60" y2="293" transform="matrix(1 0 0 1 0 0)" style="fill:rgb(0,0,0);stroke:rgb(0,0,0);stroke-width:2"></line>
<line x1="428" y1="264" x2="428" y2="293" transform="matrix(1 0 0 1 0 0)" style="fill:rgb(0,0,0);stroke:rgb(0,0,0);stroke-width:2"></line>
<line x1="428" y1="293" x2="404" y2="312" transform="matrix(1 0 0 1 0 0)" style="fill:rgb(0,0,0);stroke:rgb(0,0,0);stroke-width:2"></line>
<line x1="60" y1="292" x2="74" y2="307" transform="matrix(1 0 0 1 0 0)" style="fill:rgb(0,0,0);stroke:rgb(0,0,0);stroke-width:2"></line>
<polygon points="64,149.036 68,155.964 60,155.964" transform="matrix(1 0 0 2.74241 0 -265.718) translate(-4 40.4753)" style="fill:rgb(0,0,0);stroke:rgb(0,0,0);stroke-width:2"></polygon>
<polygon points="64,149.036 68,155.964 60,155.964" transform="matrix(1 0 0 2.74241 186 -166.718) translate(176 2.91714) translate(1 0) translate(1 0) translate(0 0.364643) translate(0 0.364643) translate(0 0.364643)" style="fill:rgb(0,0,0);stroke:rgb(0,0,0);stroke-width:2"></polygon>
</g>
</svg>

</g>
</svg>