<?xml version="1.0"?>
<!DOCTYPE svg PUBLIC "-//W3C//DTD SVG 1.1//EN" "http://www.w3.org/Graphics/SVG/1.1/DTD/svg11.dtd" >
<!-- SVG content generated using Symbology Configuration Management System (SCMS) -->
<!-- Systematic Software Engineering Ltd. - www.systematic.co.uk - do not remove  -->
<svg id="G*MPOU----****X" width="400px" height="400px" viewBox="0 0 400 400">
<g >
<svg viewBox="0 0 400 400" id="_0.G-MPOU--------X" width="400px" height="400px"><g transform="translate(-60 -50)"><path d="M283 239 C364.185 239 429 143.276 428 292 C427 440.724 357.185 358 276 358 C194.815      358 128 454.724 134 292 C140 129.276 201.815 239 283 239 z" transform="matrix(1 0 0 1 -25 -48)" style="fill:rgb(255,255,255);stroke:rgb(0,0,0);stroke-width:2"></path>
<rect x="116" y="68" width="54" height="23" transform="matrix(1 0 0 1 -33 169)" style="fill:rgb(255,255,255);stroke:rgb(255,255,255);stroke-width:1"></rect>
<text x="122px" y="86px" transform="matrix(1 0 0 1 -33 169)" style="fill:rgb(0,0,0);font-family:Arial Black;font-weight:bold;font-size:18">UXO</text>
<rect x="223" y="239" width="54" height="23" transform="matrix(1 0 0 1 151 -7)" style="fill:rgb(255,255,255);stroke:rgb(255,255,255);stroke-width:1"></rect>
<text x="229px" y="257px" transform="matrix(1 0 0 1 151 -7)" style="fill:rgb(0,0,0);font-family:Arial Black;font-weight:bold;font-size:18">UXO</text>
</g>
</svg>

</g>
</svg>