<?xml version="1.0"?>
<!DOCTYPE svg PUBLIC "-//W3C//DTD SVG 1.1//EN" "http://www.w3.org/Graphics/SVG/1.1/DTD/svg11.dtd" >
<!-- SVG content generated using Symbology Configuration Management System (SCMS) -->
<!-- Systematic Software Engineering Ltd. - www.systematic.co.uk - do not remove  -->
<svg id="G*MPOMP---****X" width="400px" height="400px" viewBox="0 0 400 400">
<g >
<svg viewBox="0 0 400 400" id="_0.G-MPOMP-------X" width="400px" height="400px"><g transform="translate(-240 -280) scale(2 2)"><circle cx="218" cy="204.5" r="34" transform="matrix(1 0 0 1 42 41)" style="fill:rgb(0,0,0);stroke:rgb(0,0,0);stroke-width:2"></circle>
<line x1="178" y1="198" x2="146.5" y2="160" style="fill:rgb(0,0,0);stroke:rgb(0,0,0);stroke-width:2" transform="matrix(1 0 0 1 61 21)"></line>
<line x1="260" y1="272" x2="229.5" y2="235" transform="matrix(-1 0 0 1 539 -54)" style="fill:rgb(0,0,0);stroke:rgb(0,0,0);stroke-width:2"></line>
<line x1="190" y1="291" x2="250" y2="257" transform="matrix(1 0 0 1 0 0) translate(-1 -5)" style="fill:rgb(128,128,128);stroke:rgb(128,128,128);stroke-width:2"></line>
<polygon points="75,78.7058 84,94.2942 66,94.2942" transform="matrix(0.504146 0.863618 -1.05262 0.614479 305.682 132.458)" style="fill:rgb(128,128,128);stroke:rgb(128,128,128);stroke-width:2"></polygon>
<g id="CENTER%20POINT" transform="translate(60 181)"><text x="72px" y="98px" transform="matrix(1 0 0 1 0 0)" style="fill:rgb(0,0,0);stroke-width:1;font-family:Arial Black;font-weight:bold;font-size:12;      ">CENTER</text>
<text x="140px" y="152px" transform="matrix(1 0 0 1 0 0) translate(-60 -42)" style="fill:rgb(0,0,0);stroke-width:1;font-family:Arial Black;font-weight:bold;font-size:12;      ">POINT</text>
</g>
</g>
</svg>

</g>
</svg>