<?xml version="1.0"?>
<!DOCTYPE svg PUBLIC "-//W3C//DTD SVG 1.1//EN" "http://www.w3.org/Graphics/SVG/1.1/DTD/svg11.dtd" >
<!-- SVG content generated using Symbology Configuration Management System (SCMS) -->
<!-- Systematic Software Engineering Ltd. - www.systematic.co.uk - do not remove  -->
<svg id="G*GPOAP---****X" width="400px" height="400px" viewBox="0 0 400 400">
<g >
<svg viewBox="0 0 400 400" id="_0.G-GPOAP-------X" width="400px" height="400px"><g transform="scale(0.8 0.8)"><path d="M123.5 122 C148.732 122 302.552 134.491 315.5 146 C342.418 169.927 330.911 299.942      301.5 322 C268.015 347.113 246.875 302.019 215.5 313 C185.681 323.437 184.501      352 142.5 354 C66.5712 357.616 88.4283 265.351 86.5 221 C85.4882 197.728      80.9483 159.003 92.5 138 C98.9157 126.335 111.655 122.369 123.5 121.833" style="fill:none;stroke:rgb(0,0,0);stroke-width:2" transform="matrix(1 0 0 1 48 7)"></path>
<path d="M83.5 66 C159.685 91.3949 239.435 56 316.5 56 C348.222 56 379.379 68.2121 411.5 65" style="fill:none;stroke:rgb(0,0,0);stroke-width:2"></path>
<path d="M86.5 251 C162.685 276.395 242.435 241 319.5 241 C351.222 241 382.379 253.212 414.5      250" transform="translate(4 159)" style="fill:none;stroke:rgb(0,0,0);stroke-width:2"></path>
<text x="98px" y="278px" transform="translate(-50 -208)" style="fill:rgb(0,0,0);font-family:Arial Black;font-weight:bold;font-size:18">XX</text>
<text x="98px" y="278px" transform="matrix(1 0 0 1 138 -21) translate(180 -187)" style="fill:rgb(0,0,0);font-family:Arial Black;font-weight:bold;font-size:18">XX</text>
<text x="98px" y="278px" transform="matrix(1 0 0 1 138 -21) translate(-182 158)" style="fill:rgb(0,0,0);font-family:Arial Black;font-weight:bold;font-size:18">XX</text>
<text x="98px" y="278px" transform="matrix(1 0 0 1 138 -21) translate(190 159)" style="fill:rgb(0,0,0);font-family:Arial Black;font-weight:bold;font-size:18">XX</text>
<g><path d="M36.9206 152.592 C36.9206 152.592 40.2388 146.91 44.557 144.774" transform="matrix(0.0888319 0.996047 -0.996047 0.0888319 395.371 -16.4784)" style="fill:none;stroke:rgb(0,0,0);stroke-width:2"></path>
<path d="M50.7388 141.501 C50.7388 141.501 59.6024 139.092 62.557 138.956" transform="matrix(0.0888319 0.996047 -0.996047 0.0888319 395.371 -16.4784)" style="fill:none;stroke:rgb(0,0,0);stroke-width:2"></path>
<path d="M70.7388 137.865 C70.7388 137.865 79.9206 138.319 82.7388 138.956" transform="matrix(0.0888319 0.996047 -0.996047 0.0888319 395.371 -16.4784)" style="fill:none;stroke:rgb(0,0,0);stroke-width:2"></path>
<path d="M88.1933 140.046 C88.1933 140.046 97.2842 142.91 99.1024 144.592" transform="matrix(0.0888319 0.996047 -0.996047 0.0888319 395.371 -16.4784)" style="fill:none;stroke:rgb(0,0,0);stroke-width:2"></path>
<path d="M104.375 148.774 C108.028 154.6 108.757 156.682 106.739 162.228" transform="matrix(0.0888319 0.996047 -0.996047 0.0888319 395.371 -16.4784)" style="fill:none;stroke:rgb(0,0,0);stroke-width:2"></path>
<path d="M104.557 166.046 C104.557 166.046 96.7842 172.183 92.557 173.501" transform="matrix(0.0888319 0.996047 -0.996047 0.0888319 395.371 -16.4784)" style="fill:none;stroke:rgb(0,0,0);stroke-width:2"></path>
<path d="M83.6479 176.046 C83.6479 176.046 72.557 177.546 69.466 176.956" transform="matrix(0.0888319 0.996047 -0.996047 0.0888319 395.371 -16.4784)" style="fill:none;stroke:rgb(0,0,0);stroke-width:2"></path>
<path d="M62.3751 176.41 C62.3751 176.41 54.6024 175.092 52.0115 174.046" transform="matrix(0.0888319 0.996047 -0.996047 0.0888319 395.371 -16.4784)" style="fill:none;stroke:rgb(0,0,0);stroke-width:2"></path>
<path d="M46.9206 171.501 C46.9206 171.501 41.3751 167.637 39.6479 166.228" transform="matrix(0.0888319 0.996047 -0.996047 0.0888319 395.371 -16.4784)" style="fill:none;stroke:rgb(0,0,0);stroke-width:2"></path>
<path d="M36.7388 162.046 C36.7388 162.046 35.7388 157.956 36.0115 155.865" transform="matrix(0.0888319 0.996047 -0.996047 0.0888319 395.371 -16.4784)" style="fill:none;stroke:rgb(0,0,0);stroke-width:2"></path>
<text x="20px" y="264px" transform="matrix(0.0888319 0.996047 -0.996047 0.0888319 496.734 5.60472)" style="fill:rgb(0,0,0);font-family:Arial Black;font-weight:bold;font-size:18">ENY</text>
<rect x="64" y="99" width="22" height="20" transform="matrix(0.0888319 0.996047 -0.996047 0.0888319 370.204 -17.2457)" style="fill:rgb(255,255,255);stroke:none;stroke-width:2"></rect>
<text x="36px" y="263px" transform="matrix(0.0888319 0.996047 -0.996047 0.0888319 520.372 0.484613)" style="fill:rgb(0,0,0);font-family:Arial Black;font-weight:bold;font-size:18">X</text>
</g>
<path d="M36.9206 152.592 C36.9206 152.592 40.2388 146.91 44.557 144.774" transform="matrix(0.0888319 0.996047 -0.996047 0.0888319 402.371 56.5216)" style="fill:none;stroke:rgb(0,0,0);stroke-width:2"></path>
<path d="M50.7388 141.501 C50.7388 141.501 59.6024 139.092 62.557 138.956" transform="matrix(0.0888319 0.996047 -0.996047 0.0888319 402.371 56.5216)" style="fill:none;stroke:rgb(0,0,0);stroke-width:2"></path>
<path d="M70.7388 137.865 C70.7388 137.865 79.9206 138.319 82.7388 138.956" transform="matrix(0.0888319 0.996047 -0.996047 0.0888319 402.371 56.5216)" style="fill:none;stroke:rgb(0,0,0);stroke-width:2"></path>
<path d="M88.1933 140.046 C88.1933 140.046 97.2842 142.91 99.1024 144.592" transform="matrix(0.0888319 0.996047 -0.996047 0.0888319 402.371 56.5216)" style="fill:none;stroke:rgb(0,0,0);stroke-width:2"></path>
<path d="M104.375 148.774 C108.028 154.6 108.757 156.682 106.739 162.228" transform="matrix(0.0888319 0.996047 -0.996047 0.0888319 402.371 56.5216)" style="fill:none;stroke:rgb(0,0,0);stroke-width:2"></path>
<path d="M104.557 166.046 C104.557 166.046 96.7842 172.183 92.557 173.501" transform="matrix(0.0888319 0.996047 -0.996047 0.0888319 402.371 56.5216)" style="fill:none;stroke:rgb(0,0,0);stroke-width:2"></path>
<path d="M83.6479 176.046 C83.6479 176.046 72.557 177.546 69.466 176.956" transform="matrix(0.0888319 0.996047 -0.996047 0.0888319 402.371 56.5216)" style="fill:none;stroke:rgb(0,0,0);stroke-width:2"></path>
<path d="M62.3751 176.41 C62.3751 176.41 54.6024 175.092 52.0115 174.046" transform="matrix(0.0888319 0.996047 -0.996047 0.0888319 402.371 56.5216)" style="fill:none;stroke:rgb(0,0,0);stroke-width:2"></path>
<path d="M46.9206 171.501 C46.9206 171.501 41.3751 167.637 39.6479 166.228" transform="matrix(0.0888319 0.996047 -0.996047 0.0888319 402.371 56.5216)" style="fill:none;stroke:rgb(0,0,0);stroke-width:2"></path>
<path d="M36.7388 162.046 C36.7388 162.046 35.7388 157.956 36.0115 155.865" transform="matrix(0.0888319 0.996047 -0.996047 0.0888319 402.371 56.5216)" style="fill:none;stroke:rgb(0,0,0);stroke-width:2"></path>
<text x="20px" y="264px" transform="matrix(0.0888319 0.996047 -0.996047 0.0888319 503.734 78.6047)" style="fill:rgb(0,0,0);font-family:Arial Black;font-weight:bold;font-size:18">ENY</text>
<rect x="64" y="99" width="22" height="20" transform="matrix(0.0888319 0.996047 -0.996047 0.0888319 377.204 55.7543)" style="fill:rgb(255,255,255);stroke:none;stroke-width:2"></rect>
<text x="36px" y="263px" transform="matrix(0.0888319 0.996047 -0.996047 0.0888319 527.372 73.4846)" style="fill:rgb(0,0,0);font-family:Arial Black;font-weight:bold;font-size:18">X</text>
<path d="M36.9206 152.592 C36.9206 152.592 40.2388 146.91 44.557 144.774" transform="matrix(0.0888319 0.996047 -0.996047 0.0888319 394.371 164.522) translate(-32.7108 -15.9689)" style="fill:none;stroke:rgb(0,0,0);stroke-width:2"></path>
<path d="M50.7388 141.501 C50.7388 141.501 59.6024 139.092 62.557 138.956" transform="matrix(0.0888319 0.996047 -0.996047 0.0888319 394.371 164.522) translate(-32.7108 -15.9689)" style="fill:none;stroke:rgb(0,0,0);stroke-width:2"></path>
<path d="M70.7388 137.865 C70.7388 137.865 79.9206 138.319 82.7388 138.956" transform="matrix(0.0888319 0.996047 -0.996047 0.0888319 394.371 164.522) translate(-32.7108 -15.9689)" style="fill:none;stroke:rgb(0,0,0);stroke-width:2"></path>
<path d="M88.1933 140.046 C88.1933 140.046 97.2842 142.91 99.1024 144.592" transform="matrix(0.0888319 0.996047 -0.996047 0.0888319 394.371 164.522) translate(-32.7108 -15.9689)" style="fill:none;stroke:rgb(0,0,0);stroke-width:2"></path>
<path d="M104.375 148.774 C108.028 154.6 108.757 156.682 106.739 162.228" transform="matrix(0.0888319 0.996047 -0.996047 0.0888319 394.371 164.522) translate(-32.7108 -15.9689)" style="fill:none;stroke:rgb(0,0,0);stroke-width:2"></path>
<path d="M104.557 166.046 C104.557 166.046 96.7842 172.183 92.557 173.501" transform="matrix(0.0888319 0.996047 -0.996047 0.0888319 394.371 164.522) translate(-32.7108 -15.9689)" style="fill:none;stroke:rgb(0,0,0);stroke-width:2"></path>
<path d="M83.6479 176.046 C83.6479 176.046 72.557 177.546 69.466 176.956" transform="matrix(0.0888319 0.996047 -0.996047 0.0888319 394.371 164.522) translate(-32.7108 -15.9689)" style="fill:none;stroke:rgb(0,0,0);stroke-width:2"></path>
<path d="M62.3751 176.41 C62.3751 176.41 54.6024 175.092 52.0115 174.046" transform="matrix(0.0888319 0.996047 -0.996047 0.0888319 394.371 164.522) translate(-32.7108 -15.9689)" style="fill:none;stroke:rgb(0,0,0);stroke-width:2"></path>
<path d="M46.9206 171.501 C46.9206 171.501 41.3751 167.637 39.6479 166.228" transform="matrix(0.0888319 0.996047 -0.996047 0.0888319 394.371 164.522) translate(-32.7108 -15.9689)" style="fill:none;stroke:rgb(0,0,0);stroke-width:2"></path>
<path d="M36.7388 162.046 C36.7388 162.046 35.7388 157.956 36.0115 155.865" transform="matrix(0.0888319 0.996047 -0.996047 0.0888319 394.371 164.522) translate(-32.7108 -15.9689)" style="fill:none;stroke:rgb(0,0,0);stroke-width:2"></path>
<text x="20px" y="264px" transform="matrix(0.0888319 0.996047 -0.996047 0.0888319 495.734 186.605) translate(-32.7108 -15.9689)" style="fill:rgb(0,0,0);font-family:Arial Black;font-weight:bold;font-size:18">ENY</text>
<rect x="64" y="99" width="22" height="20" transform="matrix(0.0888319 0.996047 -0.996047 0.0888319 369.204 163.754) translate(-32.7108 -15.9689)" style="fill:rgb(255,255,255);stroke:none;stroke-width:2"></rect>
<text x="36px" y="263px" transform="matrix(0.0888319 0.996047 -0.996047 0.0888319 519.372 181.485) translate(-32.7108 -15.9689)" style="fill:rgb(0,0,0);font-family:Arial Black;font-weight:bold;font-size:18">X</text>
<path d="M36.9206 152.592 C36.9206 152.592 40.2388 146.91 44.557 144.774" transform="matrix(0.0888319 0.996047 -0.996047 0.0888319 394.371 164.522) translate(41.352 -13.3795)" style="fill:none;stroke:rgb(0,0,0);stroke-width:2"></path>
<path d="M50.7388 141.501 C50.7388 141.501 59.6024 139.092 62.557 138.956" transform="matrix(0.0888319 0.996047 -0.996047 0.0888319 394.371 164.522) translate(41.352 -13.3795)" style="fill:none;stroke:rgb(0,0,0);stroke-width:2"></path>
<path d="M70.7388 137.865 C70.7388 137.865 79.9206 138.319 82.7388 138.956" transform="matrix(0.0888319 0.996047 -0.996047 0.0888319 394.371 164.522) translate(41.352 -13.3795)" style="fill:none;stroke:rgb(0,0,0);stroke-width:2"></path>
<path d="M88.1933 140.046 C88.1933 140.046 97.2842 142.91 99.1024 144.592" transform="matrix(0.0888319 0.996047 -0.996047 0.0888319 394.371 164.522) translate(41.352 -13.3795)" style="fill:none;stroke:rgb(0,0,0);stroke-width:2"></path>
<path d="M104.375 148.774 C108.028 154.6 108.757 156.682 106.739 162.228" transform="matrix(0.0888319 0.996047 -0.996047 0.0888319 394.371 164.522) translate(41.352 -13.3795)" style="fill:none;stroke:rgb(0,0,0);stroke-width:2"></path>
<path d="M104.557 166.046 C104.557 166.046 96.7842 172.183 92.557 173.501" transform="matrix(0.0888319 0.996047 -0.996047 0.0888319 394.371 164.522) translate(41.352 -13.3795)" style="fill:none;stroke:rgb(0,0,0);stroke-width:2"></path>
<path d="M83.6479 176.046 C83.6479 176.046 72.557 177.546 69.466 176.956" transform="matrix(0.0888319 0.996047 -0.996047 0.0888319 394.371 164.522) translate(41.352 -13.3795)" style="fill:none;stroke:rgb(0,0,0);stroke-width:2"></path>
<path d="M62.3751 176.41 C62.3751 176.41 54.6024 175.092 52.0115 174.046" transform="matrix(0.0888319 0.996047 -0.996047 0.0888319 394.371 164.522) translate(41.352 -13.3795)" style="fill:none;stroke:rgb(0,0,0);stroke-width:2"></path>
<path d="M46.9206 171.501 C46.9206 171.501 41.3751 167.637 39.6479 166.228" transform="matrix(0.0888319 0.996047 -0.996047 0.0888319 394.371 164.522) translate(41.352 -13.3795)" style="fill:none;stroke:rgb(0,0,0);stroke-width:2"></path>
<path d="M36.7388 162.046 C36.7388 162.046 35.7388 157.956 36.0115 155.865" transform="matrix(0.0888319 0.996047 -0.996047 0.0888319 394.371 164.522) translate(41.352 -13.3795)" style="fill:none;stroke:rgb(0,0,0);stroke-width:2"></path>
<text x="20px" y="264px" transform="matrix(0.0888319 0.996047 -0.996047 0.0888319 495.734 186.605) translate(41.352 -13.3795)" style="fill:rgb(0,0,0);font-family:Arial Black;font-weight:bold;font-size:18">ENY</text>
<rect x="64" y="99" width="22" height="20" transform="matrix(0.0888319 0.996047 -0.996047 0.0888319 369.204 163.754) translate(41.352 -13.3795)" style="fill:rgb(255,255,255);stroke:none;stroke-width:2"></rect>
<text x="36px" y="263px" transform="matrix(0.0888319 0.996047 -0.996047 0.0888319 519.372 181.485) translate(41.352 -13.3795)" style="fill:rgb(0,0,0);font-family:Arial Black;font-weight:bold;font-size:18">X</text>
<path d="M36.9206 152.592 C36.9206 152.592 40.2388 146.91 44.557 144.774" transform="matrix(0.0888319 0.996047 -0.996047 0.0888319 394.371 164.522) translate(114.508 -11.875)" style="fill:none;stroke:rgb(0,0,0);stroke-width:2"></path>
<path d="M50.7388 141.501 C50.7388 141.501 59.6024 139.092 62.557 138.956" transform="matrix(0.0888319 0.996047 -0.996047 0.0888319 394.371 164.522) translate(114.508 -11.875)" style="fill:none;stroke:rgb(0,0,0);stroke-width:2"></path>
<path d="M70.7388 137.865 C70.7388 137.865 79.9206 138.319 82.7388 138.956" transform="matrix(0.0888319 0.996047 -0.996047 0.0888319 394.371 164.522) translate(114.508 -11.875)" style="fill:none;stroke:rgb(0,0,0);stroke-width:2"></path>
<path d="M88.1933 140.046 C88.1933 140.046 97.2842 142.91 99.1024 144.592" transform="matrix(0.0888319 0.996047 -0.996047 0.0888319 394.371 164.522) translate(114.508 -11.875)" style="fill:none;stroke:rgb(0,0,0);stroke-width:2"></path>
<path d="M104.375 148.774 C108.028 154.6 108.757 156.682 106.739 162.228" transform="matrix(0.0888319 0.996047 -0.996047 0.0888319 394.371 164.522) translate(114.508 -11.875)" style="fill:none;stroke:rgb(0,0,0);stroke-width:2"></path>
<path d="M104.557 166.046 C104.557 166.046 96.7842 172.183 92.557 173.501" transform="matrix(0.0888319 0.996047 -0.996047 0.0888319 394.371 164.522) translate(114.508 -11.875)" style="fill:none;stroke:rgb(0,0,0);stroke-width:2"></path>
<path d="M83.6479 176.046 C83.6479 176.046 72.557 177.546 69.466 176.956" transform="matrix(0.0888319 0.996047 -0.996047 0.0888319 394.371 164.522) translate(114.508 -11.875)" style="fill:none;stroke:rgb(0,0,0);stroke-width:2"></path>
<path d="M62.3751 176.41 C62.3751 176.41 54.6024 175.092 52.0115 174.046" transform="matrix(0.0888319 0.996047 -0.996047 0.0888319 394.371 164.522) translate(114.508 -11.875)" style="fill:none;stroke:rgb(0,0,0);stroke-width:2"></path>
<path d="M46.9206 171.501 C46.9206 171.501 41.3751 167.637 39.6479 166.228" transform="matrix(0.0888319 0.996047 -0.996047 0.0888319 394.371 164.522) translate(114.508 -11.875)" style="fill:none;stroke:rgb(0,0,0);stroke-width:2"></path>
<path d="M36.7388 162.046 C36.7388 162.046 35.7388 157.956 36.0115 155.865" transform="matrix(0.0888319 0.996047 -0.996047 0.0888319 394.371 164.522) translate(114.508 -11.875)" style="fill:none;stroke:rgb(0,0,0);stroke-width:2"></path>
<text x="20px" y="264px" transform="matrix(0.0888319 0.996047 -0.996047 0.0888319 495.734 186.605) translate(114.508 -11.875)" style="fill:rgb(0,0,0);font-family:Arial Black;font-weight:bold;font-size:18">ENY</text>
<rect x="64" y="99" width="22" height="20" transform="matrix(0.0888319 0.996047 -0.996047 0.0888319 369.204 163.754) translate(114.508 -11.875)" style="fill:rgb(255,255,255);stroke:none;stroke-width:2"></rect>
<text x="36px" y="263px" transform="matrix(0.0888319 0.996047 -0.996047 0.0888319 519.372 181.485) translate(114.508 -11.875)" style="fill:rgb(0,0,0);font-family:Arial Black;font-weight:bold;font-size:18">X</text>
<g><path d="M36.9206 152.592 C36.9206 152.592 40.2388 146.91 44.557 144.774" transform="matrix(0.0888319 0.996047 -0.996047 0.0888319 394.371 164.522) translate(185.671 -10.5482)" style="fill:none;stroke:rgb(0,0,0);stroke-width:2"></path>
<path d="M50.7388 141.501 C50.7388 141.501 59.6024 139.092 62.557 138.956" transform="matrix(0.0888319 0.996047 -0.996047 0.0888319 394.371 164.522) translate(185.671 -10.5482)" style="fill:none;stroke:rgb(0,0,0);stroke-width:2"></path>
<path d="M70.7388 137.865 C70.7388 137.865 79.9206 138.319 82.7388 138.956" transform="matrix(0.0888319 0.996047 -0.996047 0.0888319 394.371 164.522) translate(185.671 -10.5482)" style="fill:none;stroke:rgb(0,0,0);stroke-width:2"></path>
<path d="M88.1933 140.046 C88.1933 140.046 97.2842 142.91 99.1024 144.592" transform="matrix(0.0888319 0.996047 -0.996047 0.0888319 394.371 164.522) translate(185.671 -10.5482)" style="fill:none;stroke:rgb(0,0,0);stroke-width:2"></path>
<path d="M104.375 148.774 C108.028 154.6 108.757 156.682 106.739 162.228" transform="matrix(0.0888319 0.996047 -0.996047 0.0888319 394.371 164.522) translate(185.671 -10.5482)" style="fill:none;stroke:rgb(0,0,0);stroke-width:2"></path>
<path d="M104.557 166.046 C104.557 166.046 96.7842 172.183 92.557 173.501" transform="matrix(0.0888319 0.996047 -0.996047 0.0888319 394.371 164.522) translate(185.671 -10.5482)" style="fill:none;stroke:rgb(0,0,0);stroke-width:2"></path>
<path d="M83.6479 176.046 C83.6479 176.046 72.557 177.546 69.466 176.956" transform="matrix(0.0888319 0.996047 -0.996047 0.0888319 394.371 164.522) translate(185.671 -10.5482)" style="fill:none;stroke:rgb(0,0,0);stroke-width:2"></path>
<path d="M62.3751 176.41 C62.3751 176.41 54.6024 175.092 52.0115 174.046" transform="matrix(0.0888319 0.996047 -0.996047 0.0888319 394.371 164.522) translate(185.671 -10.5482)" style="fill:none;stroke:rgb(0,0,0);stroke-width:2"></path>
<path d="M46.9206 171.501 C46.9206 171.501 41.3751 167.637 39.6479 166.228" transform="matrix(0.0888319 0.996047 -0.996047 0.0888319 394.371 164.522) translate(185.671 -10.5482)" style="fill:none;stroke:rgb(0,0,0);stroke-width:2"></path>
<path d="M36.7388 162.046 C36.7388 162.046 35.7388 157.956 36.0115 155.865" transform="matrix(0.0888319 0.996047 -0.996047 0.0888319 394.371 164.522) translate(185.671 -10.5482)" style="fill:none;stroke:rgb(0,0,0);stroke-width:2"></path>
<text x="20px" y="264px" transform="matrix(0.0888319 0.996047 -0.996047 0.0888319 495.734 186.605) translate(185.671 -10.5482)" style="fill:rgb(0,0,0);font-family:Arial Black;font-weight:bold;font-size:18">ENY</text>
<rect x="64" y="99" width="22" height="20" transform="matrix(0.0888319 0.996047 -0.996047 0.0888319 369.204 163.754) translate(185.671 -10.5482)" style="fill:rgb(255,255,255);stroke:none;stroke-width:2"></rect>
<text x="36px" y="263px" transform="matrix(0.0888319 0.996047 -0.996047 0.0888319 519.372 181.485) translate(185.671 -10.5482)" style="fill:rgb(0,0,0);font-family:Arial Black;font-weight:bold;font-size:18">X</text>
</g>
</g>
</svg>

</g>
</svg>