<?xml version="1.0"?>
<!DOCTYPE svg PUBLIC "-//W3C//DTD SVG 1.1//EN" "http://www.w3.org/Graphics/SVG/1.1/DTD/svg11.dtd" >
<!-- SVG content generated using Symbology Configuration Management System (SCMS) -->
<!-- Systematic Software Engineering Ltd. - www.systematic.co.uk - do not remove  -->
<svg id="SHGPEWGH--*****" width="400px" height="400px" viewBox="0 0 400 400">
<g transform="translate(158 91) scale(6.5 6)" >
<svg viewBox="0 0 400 400" id="_0.SHG-EWGH-------" width="400px" height="400px"><path style="fill:rgb(255,128,128)" d="M0 4.465 L1.729 4.465 L1.729 24.266 L0 24.266 zM12.168 33.266 L10.801 34.705 L6.768
			30.529 L2.592 34.705 L1.153 33.338 L6.698 27.721 zM5.977 11.16 L5.977 9.145
			L1.873 9.145 L1.873 11.161 L5.977 11.161 zM5.977 15.48 L5.977 13.464 L1.873
			13.464 L1.873 15.48 zM5.977 19.801 L5.977 17.785 L1.873 17.785 L1.873 19.801
			zM7.705 0 L7.633 28.801 L5.76 28.801 L5.76 0 C6.336 -0.047 6.984 -0.047 7.705
			0 zM11.664 11.16 L11.664 9.072 L7.848 9.145 L7.848 11.233 zM11.664 15.48 L11.664
			13.392 L7.848 13.464 L7.848 15.552 zM11.664 19.801 L11.664 17.713 L7.848
			17.785 L7.848 19.873 zM11.52 4.393 L13.393 4.393 L13.393 24.194 L11.52 24.194
			z"></path>
</svg>

</g>
</svg>