<?xml version="1.0"?>
<!DOCTYPE svg PUBLIC "-//W3C//DTD SVG 1.1//EN" "http://www.w3.org/Graphics/SVG/1.1/DTD/svg11.dtd" >
<!-- SVG content generated using Symbology Configuration Management System (SCMS) -->
<!-- Systematic Software Engineering Ltd. - www.systematic.co.uk - do not remove  -->
<svg id="G*MPOFG---****X" width="400px" height="400px" viewBox="0 0 400 400">
<g >
<svg viewBox="0 0 400 400" id="_0.G-MPOFG-------X" width="400px" height="400px"><g transform="translate(-120 -160) scale(1.5 1.5)"><line x1="174" y1="158" x2="174" y2="325" style="fill:rgb(0,0,0);stroke:rgb(0,0,0);stroke-width:2" transform="matrix(1 0 0 1 5.88235 -13.4454)"></line>
<line x1="174.344" y1="158.867" x2="136" y2="132" style="fill:rgb(0,0,0);stroke:rgb(0,0,0);stroke-width:2" transform="matrix(1 0 0 1 5.88235 -13.4454)"></line>
<line x1="270.289" y1="236.311" x2="231" y2="265" transform="matrix(1 0 0 1 -90.1176 74.5546)" style="fill:rgb(0,0,0);stroke:rgb(0,0,0);stroke-width:2"></line>
<line x1="196" y1="165" x2="196" y2="332" transform="matrix(-1 0 0 1 427.36 -21.0084)" style="fill:rgb(0,0,0);stroke:rgb(0,0,0);stroke-width:2"></line>
<line x1="196.344" y1="165.867" x2="158" y2="139" transform="matrix(-1 0 0 1 427.36 -21.0084)" style="fill:rgb(0,0,0);stroke:rgb(0,0,0);stroke-width:2"></line>
<line x1="270.289" y1="236.311" x2="231" y2="265" transform="matrix(-1 0 0 1 501.36 73.9916)" style="fill:rgb(0,0,0);stroke:rgb(0,0,0);stroke-width:2"></line>
<g id="W"><text x="129px" y="361px" transform="matrix(1 0 0 1 0 0)" style="fill:rgb(0,0,0);stroke-width:1;font-size:12;font-family:Arial Black;font-weight:bold;      ">272100ZSEP-</text>
</g>
<g id="W1" transform="translate(-26.4 -3.2)"><text x="246px" y="364px" transform="matrix(1 0 0 1 0 0)" style="fill:rgb(0,0,0);stroke-width:1;font-size:12;font-family:Arial Black;font-weight:bold;      ">300400ZSEP</text>
</g>
</g>
</svg>

</g>
</svg>