<?xml version="1.0"?>
<!DOCTYPE svg PUBLIC "-//W3C//DTD SVG 1.1//EN" "http://www.w3.org/Graphics/SVG/1.1/DTD/svg11.dtd" >
<!-- SVG content generated using Symbology Configuration Management System (SCMS) -->
<!-- Systematic Software Engineering Ltd. - www.systematic.co.uk - do not remove  -->
<svg id="SUGPUCDSC-*****" width="400px" height="400px" viewBox="0 0 400 400">
<g >
<svg viewBox="0 0 400 400" id="_0.SUG-U----------" width="400px" height="400px"><path d="M115 285 C115 400 285 400 285 285 C400 285 400 115 285 115 C285 0 115 0 115 115 C0     115 0 285 115 285 z" style="fill:rgb(255,255,128);stroke:rgb(0,0,0);stroke-width:10"></path>
</svg>

</g>
<g >
<svg viewBox="0 0 400 400" id="_1.S-G-UCDM-------" width="400px" height="400px"><path d="M170 260 L170 128 C170 103 230 103 230 128 L230 260" style="stroke:rgb(0,0,0);stroke-width:10;fill:none"></path>
</svg>

</g>
<g >
<svg viewBox="0 0 400 400" id="_2.S-G-UCDSC------" width="400px" height="400px"><path d="M250 109 C285 109 285 175 250 175 L150 175 C115 175 115 109 150 109 z" style="fill:none;stroke:rgb(0,0,0);stroke-width:10"></path>
<text x="200" y="165" style="fill:rgb(0,0,0);text-anchor:middle;font-weight:bold;font-size:60;font-family:Arial">C</text>
</svg>

</g>
<g >
<svg viewBox="0 0 400 400" id="_3.SUG-UCD--------" width="400px" height="400px"><path d="M59 266 C100 180 300 180 341 266" style="fill:rgb(255,255,128);stroke:rgb(0,0,0);stroke-width:10"></path>
</svg>

</g>
</svg>