<?xml version="1.0"?>
<!DOCTYPE svg PUBLIC "-//W3C//DTD SVG 1.1//EN" "http://www.w3.org/Graphics/SVG/1.1/DTD/svg11.dtd" >
<!-- SVG content generated using Symbology Configuration Management System (SCMS) -->
<!-- Systematic Software Engineering Ltd. - www.systematic.co.uk - do not remove  -->
<svg id="G*MPOGL---****X" width="400px" height="400px" viewBox="0 0 400 400">
<g >
<svg viewBox="0 0 400 400" id="_0.G-MPOGL-------X" width="400px" height="400px"><g transform="translate(-200 -200) scale(1.75 1.75)"><polyline points="127.811,218.651 135.7,218.651 145.033,194.489 154.286,218.57 188.478,218.57 199.167,192.711      209.922,218.489 240.144,218.489 250.811,193.6 262.73,218.651 301.922,218.651      312.589,195.378 323.7,218.206 333.114,218.206" style="stroke:rgb(0,0,0);stroke-width:2;fill:rgb(255,255,255)"></polyline>
<g id="PT.%201" transform="translate(63 -16)"><text x="82px" y="277px" transform="matrix(1 0 0 1 0 0)" style="fill:rgb(0,0,0);stroke-width:1;font-family:Arial Black;font-weight:bold;font-size:12;      ">PT. 1</text>
</g>
<g id="PT.%202" transform="translate(-28 -44)"><text x="306px" y="304px" transform="matrix(1 0 0 1 0 0)" style="fill:rgb(0,0,0);stroke-width:1;font-family:Arial Black;font-weight:bold;font-size:12;      ">PT. 2</text>
</g>
<line x1="126" y1="229" x2="126" y2="247" transform="matrix(1 0 0 1 0 0)" style="fill:rgb(0,0,0);stroke:rgb(0,0,0);stroke-width:2"></line>
<line x1="125.735" y1="246.125" x2="140" y2="257" transform="matrix(1 0 0 1 0 0)" style="fill:rgb(0,0,0);stroke:rgb(0,0,0);stroke-width:2"></line>
<line x1="332" y1="228" x2="332" y2="244" transform="matrix(1 0 0 1 0 0)" style="fill:rgb(0,0,0);stroke:rgb(0,0,0);stroke-width:2"></line>
<line x1="332.46" y1="243" x2="316" y2="255" transform="matrix(1 0 0 1 0 0)" style="fill:rgb(0,0,0);stroke:rgb(0,0,0);stroke-width:2"></line>
<polygon points="58,73.3038 64,83.6962 52,83.6962" transform="matrix(1 0 0 1.25093 0 -19.6977) translate(67 120.711) translate(1 0)" style="fill:rgb(0,0,0);stroke:rgb(0,0,0);stroke-width:2"></polygon>
<polygon points="58,73.3038 64,83.6962 52,83.6962" transform="matrix(1 0 0 1.25093 192 153.302) translate(81 -17.5869)" style="fill:rgb(0,0,0);stroke:rgb(0,0,0);stroke-width:2"></polygon>
</g>
</svg>

</g>
</svg>