<?xml version="1.0"?>
<!DOCTYPE svg PUBLIC "-//W3C//DTD SVG 1.1//EN" "http://www.w3.org/Graphics/SVG/1.1/DTD/svg11.dtd" >
<!-- SVG content generated using Symbology Configuration Management System (SCMS) -->
<!-- Systematic Software Engineering Ltd. - www.systematic.co.uk - do not remove  -->
<svg id="SNGPUUACRS*****" width="400px" height="400px" viewBox="0 0 400 400">
<g >
<svg viewBox="0 0 400 400" id="_0.SNG-U----------" width="400px" height="400px"><rect x="68" y="68" width="264" height="264" style="fill:rgb(170,255,170);stroke:rgb(0,0,0);stroke-width:10"></rect>
</svg>

</g>
<g transform="translate(100 106) scale(0.5 0.4)" >
<svg viewBox="0 0 400 400" id="_1.S-G-UUA--------" width="400px" height="400px"><ellipse cx="130" cy="160" rx="18" ry="18" style="fill:rgb(0,0,0);stroke:rgb(0,0,0);stroke-width:10"></ellipse>
<ellipse cx="270" cy="160" rx="18" ry="18" style="fill:rgb(0,0,0);stroke:rgb(0,0,0);stroke-width:10"></ellipse>
<path d="M140 145 C200 180 210 200 235 290" style="fill:none;stroke:rgb(0,0,0);stroke-width:10"></path>
<path d="M260 145 C200 180 190 200 165 290" style="fill:none;stroke:rgb(0,0,0);stroke-width:10"></path>
</svg>

</g>
<g >
<svg viewBox="0 0 400 400" id="_2.SNG-UCECR------" width="400px" height="400px"><line x1="332" y1="68" x2="68" y2="332" style="fill:none;stroke:rgb(0,0,0);stroke-width:10"></line>
</svg>

</g>
<g transform="translate(10 0) scale(0.95 0.88)" >
<svg viewBox="0 0 400 400" id="_3.S-G-UCA--------" width="400px" height="400px"><path d="M140 140 C80 140 80 260 140 260 L260 260 C320 260 320 140 260 140 z" style="fill:none;stroke:rgb(0,0,0);stroke-width:10"></path>
</svg>

</g>
<g >
<svg viewBox="0 0 400 400" id="_4.S-G-UCAW-------" width="400px" height="400px"><ellipse cx="120" cy="245" rx="13" ry="13" style="fill:none;stroke:rgb(0,0,0);stroke-width:10"></ellipse>
<ellipse cx="200" cy="245" rx="13" ry="13" style="fill:none;stroke:rgb(0,0,0);stroke-width:10"></ellipse>
<ellipse cx="280" cy="245" rx="13" ry="13" style="fill:none;stroke:rgb(0,0,0);stroke-width:10"></ellipse>
</svg>

</g>
<g transform="translate(141 93) scale(0.3 0.3)" >
<svg viewBox="0 0 400 400" id="_5.S-G-UUACRS-----" width="400px" height="400px"><text x="200" y="230" style="fill:rgb(0,0,0);text-anchor:middle;font-weight:bold;font-size:150;font-family:Arial;    ">RS</text>
</svg>

</g>
</svg>