<?xml version="1.0"?>
<!DOCTYPE svg PUBLIC "-//W3C//DTD SVG 1.1//EN" "http://www.w3.org/Graphics/SVG/1.1/DTD/svg11.dtd" >
<!-- SVG content generated using Symbology Configuration Management System (SCMS) -->
<!-- Systematic Software Engineering Ltd. - www.systematic.co.uk - do not remove  -->
<svg id="WA--IMM--------" width="400px" height="400px" viewBox="0 0 400 400">
<g >
<svg viewBox="0 0 400 400" id="_0.WA--IMM--------" width="400px" height="400px"><g transform="translate(40 100) scale(6 6)" style="fill:rgb(128,98,16)"><path d="M14.186 3.311 C10.489 3.311 7.379 4.584 4.86 7.127 C2.34 9.672 1.08 12.791 1.08 16.486
				L0 16.486 C0 12.455 1.367 9.072 4.104 6.336 C6.841 3.6 10.201 2.23 14.186
				2.23 C18.217 2.23 21.6 3.599 24.336 6.335 C27.072 9.071 28.441 12.454 28.441
				16.485 L27.361 16.485 C27.361 12.79 26.088 9.671 23.545 7.126 C21 4.584
				17.881 3.311 14.186 3.311 zM13.393 0.215 L13.393 33.264 L12.457 33.264 L12.385
				0.215 zM16.633 0.215 L16.633 33.264 L15.625 33.264 L15.625 0.215 zM41.473
				29.664 C45.121 29.664 48.217 28.393 50.76 25.848 C53.303 23.305 54.576 20.184
				54.576 16.487 L55.656 16.487 C55.656 20.52 54.287 23.905 51.552 26.639 C48.816
				29.375 45.456 30.743 41.472 30.743 C37.488 30.743 34.126 29.364 31.392
				26.604 C28.656 23.844 27.288 20.471 27.288 16.487 L28.368 16.487 C28.368 20.184
				29.639 23.305 32.182 25.848 C34.727 28.393 37.824 29.664 41.473 29.664
				zM40.178 0 L40.178 33.047 L39.24 33.047 L39.17 0 zM43.416 0 L43.416 33.047
				L42.408 33.047 L42.408 0 z"></path>
</g>
</svg>

</g>
</svg>