<?xml version="1.0"?>
<!DOCTYPE svg PUBLIC "-//W3C//DTD SVG 1.1//EN" "http://www.w3.org/Graphics/SVG/1.1/DTD/svg11.dtd" >
<!-- SVG content generated using Symbology Configuration Management System (SCMS) -->
<!-- Systematic Software Engineering Ltd. - www.systematic.co.uk - do not remove  -->
<svg id="G*GPPY----****X" width="400px" height="400px" viewBox="0 0 400 400">
<g >
<svg viewBox="0 0 400 400" id="_0.G-GPPY--------X" width="400px" height="400px"><g transform="translate(-60 -30)"><rect x="106" y="378" width="38" height="38" transform="matrix(0.950181 0.3117 -0.3117 0.950181 161.972 -108.184)" style="fill:rgb(255,255,255);stroke:rgb(255,255,255);stroke-width:1"></rect>
<ellipse cx="250" cy="313.5" rx="162" ry="104.5" transform="matrix(1 0 0 1 7 -84)" style="fill:rgb(255,255,255);stroke:rgb(0,0,0);stroke-width:2"></ellipse>
<rect x="216" y="191" width="30" height="26" transform="matrix(1 0 0 1 28 126)" style="fill:rgb(255,255,255);stroke:rgb(255,255,255);stroke-width:1"></rect>
<text x="222px" y="212px" transform="matrix(1 0 0 1 28 126)" style="fill:rgb(0,0,0);font-size:24;font-family:Arial Black;font-weight:bold">M</text>
<rect x="235" y="237" width="30" height="26" transform="matrix(1 0 0 1 -154 -28)" style="fill:rgb(255,255,255);stroke:rgb(255,255,255);stroke-width:1"></rect>
<text x="241px" y="258px" transform="matrix(1 0 0 1 -154 -28)" style="fill:rgb(0,0,0);font-size:24;font-family:Arial Black;font-weight:bold">M</text>
<rect x="235" y="237" width="30" height="26" transform="matrix(1 0 0 1 169 -28)" style="fill:rgb(255,255,255);stroke:rgb(255,255,255);stroke-width:1"></rect>
<text x="241px" y="258px" transform="matrix(1 0 0 1 169 -28)" style="fill:rgb(0,0,0);font-size:24;font-family:Arial Black;font-weight:bold">M</text>
<rect x="235" y="237" width="30" height="26" transform="matrix(1 0 0 1 9 -126)" style="fill:rgb(255,255,255);stroke:rgb(255,255,255);stroke-width:1"></rect>
<text x="241px" y="258px" transform="matrix(1 0 0 1 9 -126)" style="fill:rgb(0,0,0);font-size:24;font-family:Arial Black;font-weight:bold">M</text>
<line x1="167" y1="281" x2="177.615" y2="273.196" style="fill:rgb(0,0,0);stroke:rgb(0,0,0);stroke-width:2" transform="matrix(1 0 0 1 -1 -37)"></line>
<line x1="180.295" y1="271.196" x2="196.562" y2="259.263" style="fill:rgb(0,0,0);stroke:rgb(0,0,0);stroke-width:2" transform="matrix(1 0 0 1 -1 -37)"></line>
<line x1="202.835" y1="254.756" x2="217.302" y2="244.156" style="fill:rgb(0,0,0);stroke:rgb(0,0,0);stroke-width:2" transform="matrix(1 0 0 1 -1 -37)"></line>
<line x1="225.695" y1="237.89" x2="240.428" y2="227.156" style="fill:rgb(0,0,0);stroke:rgb(0,0,0);stroke-width:2" transform="matrix(1 0 0 1 -1 -37)"></line>
<line x1="247.695" y1="221.73" x2="256.295" y2="215.463" style="fill:rgb(0,0,0);stroke:rgb(0,0,0);stroke-width:2" transform="matrix(1 0 0 1 -1 -37)"></line>
<line x1="258" y1="216" x2="266.562" y2="223.93" style="fill:rgb(0,0,0);stroke:rgb(0,0,0);stroke-width:2" transform="matrix(1 0 0 1 -1 -37)"></line>
<line x1="271.462" y1="228.37" x2="286.062" y2="241.836" style="fill:rgb(0,0,0);stroke:rgb(0,0,0);stroke-width:2" transform="matrix(1 0 0 1 -1 -37)"></line>
<line x1="291.895" y1="247.236" x2="305.028" y2="259.303" style="fill:rgb(0,0,0);stroke:rgb(0,0,0);stroke-width:2" transform="matrix(1 0 0 1 -1 -37)"></line>
<line x1="311" y1="265" x2="319.995" y2="273.25" style="fill:rgb(0,0,0);stroke:rgb(0,0,0);stroke-width:2" transform="matrix(1 0 0 1 -1 -37)"></line>
<line x1="323.462" y1="276.383" x2="333.395" y2="285.583" style="fill:rgb(0,0,0);stroke:rgb(0,0,0);stroke-width:2" transform="matrix(1 0 0 1 -1 -37)"></line>
<rect x="234" y="235" width="32" height="31" transform="matrix(0.866325 0.49948 -0.49948 0.866325 27.5384 -59.3848)" style="fill:rgb(255,255,255);stroke:rgb(255,255,255);stroke-width:1"></rect>
<text x="242px" y="260px" transform="matrix(0.813305 0.581838 -0.581838 0.813305 59.8811 -67.8722)" style="fill:rgb(0,0,0);font-family:Arial Black;font-weight:bold;font-size:24">X</text>
<rect x="134" y="386" width="32" height="31" transform="matrix(0.994017 0.109225 -0.109225 0.994017 109.751 -85.9815)" style="fill:rgb(255,255,255);stroke:rgb(255,255,255);stroke-width:1"></rect>
<text x="142px" y="411px" transform="matrix(0.998338 0.0576444 -0.0576444 0.998338 87.9729 -81.6797)" style="fill:rgb(0,0,0);font-family:Arial Black;font-weight:bold;font-size:24">X</text>
<rect x="134" y="386" width="32" height="31" transform="matrix(0.929477 0.368881 -0.368881 0.929477 174.684 -116.017)" style="fill:rgb(255,255,255);stroke:rgb(255,255,255);stroke-width:1"></rect>
<text x="142px" y="411px" transform="matrix(0.929477 0.368881 -0.368881 0.929477 174.684 -117.017)" style="fill:rgb(0,0,0);font-family:Arial Black;font-weight:bold;font-size:24">X</text>
<rect x="134" y="386" width="32" height="31" transform="matrix(0.929477 0.368881 -0.368881 0.929477 322.684 -100.017)" style="fill:rgb(255,255,255);stroke:rgb(255,255,255);stroke-width:1"></rect>
<rect x="134" y="386" width="32" height="31" transform="matrix(0.929477 0.368881 -0.368881 0.929477 378.684 -130.016)" style="fill:rgb(255,255,255);stroke:rgb(255,255,255);stroke-width:1"></rect>
<rect x="134" y="386" width="32" height="31" transform="matrix(0.929477 0.368881 -0.368881 0.929477 417.684 -171.017)" style="fill:rgb(255,255,255);stroke:rgb(255,255,255);stroke-width:1"></rect>
<rect x="134" y="386" width="32" height="31" transform="matrix(0.929477 0.368881 -0.368881 0.929477 404.684 -251.017)" style="fill:rgb(255,255,255);stroke:rgb(255,255,255);stroke-width:1"></rect>
<rect x="134" y="386" width="32" height="31" transform="matrix(0.929477 0.368881 -0.368881 0.929477 312.684 -301.017)" style="fill:rgb(255,255,255);stroke:rgb(255,255,255);stroke-width:1"></rect>
<rect x="134" y="386" width="32" height="31" transform="matrix(0.929477 0.368881 -0.368881 0.929477 218.684 -299.017)" style="fill:rgb(255,255,255);stroke:rgb(255,255,255);stroke-width:1"></rect>
<rect x="134" y="386" width="32" height="31" transform="matrix(0.929477 0.368881 -0.368881 0.929477 122.684 -251.017)" style="fill:rgb(255,255,255);stroke:rgb(255,255,255);stroke-width:1"></rect>
<text x="242px" y="260px" transform="matrix(0.550727 -0.834686 0.834686 0.550727 -232.602 249.188)" style="fill:rgb(0,0,0);font-family:Arial Black;font-weight:bold;font-size:24">X</text>
<text x="242px" y="260px" transform="matrix(0.977023 -0.213134 0.213134 0.977023 -92.3192 -61.2901)" style="fill:rgb(0,0,0);font-family:Arial Black;font-weight:bold;font-size:24">X</text>
<text x="242px" y="260px" transform="matrix(0.981498 0.191476 -0.191476 0.981498 106.378 -166.097)" style="fill:rgb(0,0,0);font-family:Arial Black;font-weight:bold;font-size:24">X</text>
<text x="242px" y="260px" transform="matrix(0.693558 0.720401 -0.720401 0.693558 401.844 -177.56)" style="fill:rgb(0,0,0);font-family:Arial Black;font-weight:bold;font-size:24">X</text>
<text x="242px" y="260px" transform="matrix(0.521842 -0.853042 0.853042 0.521842 65.0374 342.071)" style="fill:rgb(0,0,0);font-family:Arial Black;font-weight:bold;font-size:24">X</text>
<text x="242px" y="260px" transform="matrix(0.775914 -0.63084 0.63084 0.775914 21.1049 263.292)" style="fill:rgb(0,0,0);font-family:Arial Black;font-weight:bold;font-size:24">X</text>
<text x="242px" y="260px" transform="matrix(0.936249 -0.351337 0.351337 0.936249 -8.85103 176.702)" style="fill:rgb(0,0,0);font-family:Arial Black;font-weight:bold;font-size:24">X</text>
<g id="N1" transform="translate(53 65) rotate(355.614 104.593 77.8507) translate(2.7618 3.22063)"><rect x="94" y="45" width="34" height="37" transform="matrix(0.999909 0.0134938 -0.0134938 0.999909 9.46033 -2.14128) translate(40.076 79.4665) rotate(338.075 111 63.5) translate(4.15241 5.89555) translate(-31.0598 -86.0017)" style="fill:rgb(255,255,255);stroke:none;stroke-width:1"></rect>
<text x="102px" y="72px" transform="matrix(0.999909 0.0134938 -0.0134938 0.999909 9.46033 -2.14128) translate(40.076 79.4665) rotate(338.075 111 63.5) translate(2.64799 4.24124) rotate(357.248 111.581 63.5816) translate(-25.4714 -85.6692)" style="fill:rgb(0,0,0);font-size:24;font-family:Arial Black;font-weight:bold">X</text>
</g>
<g id="N2" transform="matrix(0.9091 0.416579 -0.416579 0.9091 283.021 43.1003) rotate(6.59675 111 63.5)"><rect x="94" y="45" width="34" height="37" style="fill:rgb(255,255,255);stroke:none;stroke-width:1"></rect>
<text x="102px" y="72px" style="fill:rgb(0,0,0);font-size:24;font-family:Arial Black;font-weight:bold">X</text>
</g>
</g>
</svg>

</g>
</svg>