<?xml version="1.0"?>
<!DOCTYPE svg PUBLIC "-//W3C//DTD SVG 1.1//EN" "http://www.w3.org/Graphics/SVG/1.1/DTD/svg11.dtd" >
<!-- SVG content generated using Symbology Configuration Management System (SCMS) -->
<!-- Systematic Software Engineering Ltd. - www.systematic.co.uk - do not remove  -->
<svg id="SUGPUCVUR-*****" width="400px" height="400px" viewBox="0 0 400 400">
<g >
<svg viewBox="0 0 400 400" id="_0.SUG-U----------" width="400px" height="400px"><path d="M115 285 C115 400 285 400 285 285 C400 285 400 115 285 115 C285 0 115 0 115 115 C0     115 0 285 115 285 z" style="fill:rgb(255,255,128);stroke:rgb(0,0,0);stroke-width:10"></path>
</svg>

</g>
<g >
<svg viewBox="0 0 400 400" id="_1.S-A-MH---------" width="400px" height="400px"><polyline points="200,200 110,150 110,250 200,200 290,150 290,250 200,200" style="fill:rgb(0,0,0)"></polyline>
</svg>

</g>
<g transform="translate(60 15) scale(0.7 0.6)" >
<svg viewBox="0 0 400 400" id="_2.S-G-UCVU-------" width="400px" height="400px"><polyline points="100,170 100,200 200,260 300,200 300,170 200,220" style="fill:rgb(0,0,0)"></polyline>
</svg>

</g>
</svg>