<?xml version="1.0"?>
<!DOCTYPE svg PUBLIC "-//W3C//DTD SVG 1.1//EN" "http://www.w3.org/Graphics/SVG/1.1/DTD/svg11.dtd" >
<!-- SVG content generated using Symbology Configuration Management System (SCMS) -->
<!-- Systematic Software Engineering Ltd. - www.systematic.co.uk - do not remove  -->
<svg id="G*SPLCH---****X" width="400px" height="400px" viewBox="0 0 400 400">
<g transform="translate(-200 0)" >
<svg viewBox="0 0 400 400" id="_0.GAR18---------X" width="400px" height="400px"><polyline points="225,125 200,200 225,200" transform="matrix(1 0 0 1 0 0)" style="fill:none;stroke:rgb(0,0,0);stroke-width:2"></polyline>
<polygon points="220,195 220,205 225,200" transform="matrix(1 0 0 1 0 0)" style="fill:rgb(0,0,0);stroke:rgb(0,0,0);stroke-width:2"></polygon>
</svg>

</g>
<g transform="translate(78 0)" >
<svg viewBox="0 0 400 400" id="_1.GAR19---------X" width="400px" height="400px"><line x1="227" y1="120" x2="200" y2="200" transform="matrix(1 0 0 1 0 0)" style="stroke:rgb(0,0,0);stroke-width:2"></line>
<polygon points="200,188 200,200 207,192" transform="matrix(1 0 0 1 0 0)" style="fill:rgb(0,0,0);stroke:rgb(0,0,0);stroke-width:2"></polygon>
</svg>

</g>
<g transform="scale(0.75 0.75) translate(225 -50)" >
<svg viewBox="0 0 400 400" id="_2.G-O1----------X" width="400px" height="400px"><text x="200px" y="200px" transform="matrix(1 0 0 1 -27.396 8.628)" style="fill:rgb(0,0,0);font-size:24;font-family:Arial">PT. 1</text>
</svg>

</g>
<g transform="scale(0.75 0.75) translate(-157 -45)" >
<svg viewBox="0 0 400 400" id="_3.G-O2----------X" width="400px" height="400px"><text x="320px" y="140px" transform="matrix(1 0 0 1 -148.968 68.628)" style="fill:rgb(0,0,0);font-size:24;font-family:Arial">PT. 2</text>
</svg>

</g>
<g transform="scale(0.75 0.75) translate(5 165)" >
<svg viewBox="0 0 400 400" id="_4.G-SPLCH-------D" width="400px" height="400px"><line x1="185" y1="200" x2="215" y2="200" transform="matrix(1 0 0 1 0 0)" style="stroke:rgb(0,0,0);stroke-width:5"></line>
</svg>

</g>
<g transform="scale(0.75 0.75) translate(68 158)" >
<svg viewBox="0 0 400 400" id="_5.G-----------PW1" width="400px" height="400px"><rect x="160" y="175" width="80" height="50" transform="matrix(1 0 0 1 0 0) translate(0 0) translate(0 0)" style="fill:none;stroke:rgb(0,0,0);stroke-width:5"></rect>
<text x="176px" y="213px" transform="matrix(1 0 0 1 0 0)" style="fill:rgb(0,0,0);stroke:rgb(0,0,0);font-size:36;font-family:Arial">W1</text>
</svg>

</g>
<g transform="scale(0.75 0.75) translate(-44 158)" >
<svg viewBox="0 0 400 400" id="_6.G-----------PWS" width="400px" height="400px"><rect x="175" y="175" width="50" height="50" transform="matrix(1 0 0 1 0 0) translate(0 0) translate(0 0) translate(0 0)" style="fill:none;stroke:rgb(0,0,0);stroke-width:5"></rect>
<text x="187px" y="213px" transform="matrix(1 0 0 1 -4.01335 -0.112)" style="fill:rgb(0,0,0);stroke:rgb(0,0,0);font-size:36;font-family:Arial">W</text>
</svg>

</g>
<g transform="scale(0.75 0.75) translate(5 66)" >
<svg viewBox="0 0 400 400" id="_7.G-----------PAS" width="400px" height="400px"><rect x="175" y="175" width="50" height="50" transform="matrix(1 0 0 1 0 0) translate(0 0) translate(0 0) translate(0 0)" style="fill:none;stroke:rgb(0,0,0);stroke-width:5"></rect>
<text x="187px" y="213px" transform="matrix(1 0 0 1 0.979169 -0.112)" style="fill:rgb(0,0,0);stroke:rgb(0,0,0);font-size:36;font-family:Arial">A</text>
</svg>

</g>
<g transform="scale(0.75 0.75) translate(96 66)" >
<svg viewBox="0 0 400 400" id="_8.G----------PH1S" width="400px" height="400px"><rect x="170" y="175" width="60" height="50" transform="matrix(1 0 0 1 0 0) translate(0 0) translate(0 0) translate(0 0)" style="fill:none;stroke:rgb(0,0,0);stroke-width:5"></rect>
<text x="179px" y="213px" transform="matrix(1 0 0 1 0 0)" style="fill:rgb(0,0,0);stroke:rgb(0,0,0);font-size:36;font-family:Arial">H1</text>
</svg>

</g>
<g transform="scale(0.75 0.75) translate(-82 66)" >
<svg viewBox="0 0 400 400" id="_9.G-----------PHS" width="400px" height="400px"><rect x="175" y="175" width="50" height="50" transform="matrix(1 0 0 1 0 0) translate(0 0) translate(0 0) translate(0 0)" style="fill:none;stroke:rgb(0,0,0);stroke-width:5"></rect>
<text x="187px" y="213px" transform="matrix(1 0 0 1 0 0)" style="fill:rgb(0,0,0);stroke:rgb(0,0,0);font-size:36;font-family:Arial">H</text>
</svg>

</g>
<g >
<svg viewBox="0 0 400 400" id="_10.G-SPLCH-------X" width="400px" height="400px"><rect x="25" y="163" width="250" height="75" transform="matrix(1 0 0 1 0 0) translate(0 0)" style="fill:none;stroke:rgb(0,0,0);stroke-width:3"></rect>
<polygon points="283,200 350,130 350,270" transform="matrix(1 0 0 1 0 0)" style="fill:none;stroke:rgb(0,0,0);stroke-width:3"></polygon>
</svg>

</g>
</svg>