<?xml version="1.0"?>
<!DOCTYPE svg PUBLIC "-//W3C//DTD SVG 1.1//EN" "http://www.w3.org/Graphics/SVG/1.1/DTD/svg11.dtd" >
<!-- SVG content generated using Symbology Configuration Management System (SCMS) -->
<!-- Systematic Software Engineering Ltd. - www.systematic.co.uk - do not remove  -->
<svg id="G*GPOLAV--****X" width="400px" height="400px" viewBox="0 0 400 400">
<g >
<svg viewBox="0 0 400 400" id="_0.G-GPOLAV------X" width="400px" height="400px"><g transform="translate(-30 -20)"><line x1="110.022" y1="260.733" x2="334" y2="197" style="fill:rgb(0,0,0);stroke:rgb(0,0,0);stroke-width:2"></line>
<line x1="104.689" y1="188.4" x2="334" y2="256" style="fill:rgb(0,0,0);stroke:rgb(0,0,0);stroke-width:2"></line>
<line x1="333.017" y1="197.226" x2="332.35" y2="168.393" style="fill:rgb(0,0,0);stroke:rgb(0,0,0);stroke-width:2"></line>
<line x1="249.867" y1="255.811" x2="250" y2="233.426" transform="matrix(1 0 0 1 83 22)" style="fill:rgb(0,0,0);stroke:rgb(0,0,0);stroke-width:2"></line>
<line x1="333.333" y1="277.093" x2="407.15" y2="225.193" style="fill:rgb(0,0,0);stroke:rgb(0,0,0);stroke-width:2"></line>
<line x1="406.817" y1="225.693" x2="332.683" y2="169.059" style="fill:rgb(0,0,0);stroke:rgb(0,0,0);stroke-width:2"></line>
<g id="PT.%201"><text x="90px" y="50px" transform="matrix(1 0 0 1 264 251) translate(-19 -6) translate(0 0)" style="fill:rgb(0,0,0);stroke-width:1;font-family:Arial Black;font-weight:bold;font-size:12;      ">PT. 1</text>
</g>
<line x1="70" y1="252" x2="69.9014" y2="230.996" transform="matrix(1 0 0 1 0 0)" style="fill:rgb(0,0,0);stroke:rgb(0,0,0);stroke-width:2"></line>
<line x1="70" y1="232" x2="96" y2="229" transform="matrix(1 0 0 1 0 0)" style="fill:rgb(0,0,0);stroke:rgb(0,0,0);stroke-width:2"></line>
<line x1="310" y1="138" x2="328" y2="150" transform="matrix(1 0 0 1 0 0) translate(-9 -9)" style="fill:rgb(0,0,0);stroke:rgb(0,0,0);stroke-width:2"></line>
<line x1="328.66" y1="149.562" x2="335.191" y2="160.703" transform="matrix(1 0 0 1 0 0) translate(-10 -9) translate(0 0)" style="fill:rgb(0,0,0);stroke:rgb(0,0,0);stroke-width:2"></line>
<line x1="374" y1="286" x2="406.543" y2="270.196" transform="matrix(1 0 0 1 0 0)" style="fill:rgb(0,0,0);stroke:rgb(0,0,0);stroke-width:2"></line>
<line x1="406" y1="271" x2="406" y2="237" transform="matrix(1 0 0 1 0 0)" style="fill:rgb(0,0,0);stroke:rgb(0,0,0);stroke-width:2"></line>
<polygon points="145,61.4019 148,66.5981 142,66.5981" transform="matrix(0.0910011 0.995851 -2.68312 0.245184 249.343 69.819)" style="fill:rgb(0,0,0);stroke:rgb(0,0,0);stroke-width:2"></polygon>
<polygon points="145,61.4019 148,66.5981 142,66.5981" transform="matrix(1 0 0 2.6943 261 68.565)" style="fill:rgb(0,0,0);stroke:rgb(0,0,0);stroke-width:2"></polygon>
<g id="PT.%202"><text x="222px" y="97px" transform="matrix(1 0 0 1 -170 170)" style="fill:rgb(0,0,0);stroke-width:1;font-family:Arial Black;font-weight:bold;font-size:12;      ">PT. 2</text>
</g>
<g id="PT.%203"><text x="318px" y="102px" transform="matrix(1 0 0 1 -57 29)" style="fill:rgb(0,0,0);stroke-width:1;font-family:Arial Black;font-weight:bold;font-size:12;      ">PT. 3</text>
</g>
<polygon points="145,61.4019 148,66.5981 142,66.5981" transform="matrix(-0.895139 0.445786 -1.20108 -2.41177 532.602 244.369)" style="fill:rgb(0,0,0);stroke:rgb(0,0,0);stroke-width:2"></polygon>
</g>
</svg>

</g>
</svg>