<?xml version="1.0"?>
<!DOCTYPE svg PUBLIC "-//W3C//DTD SVG 1.1//EN" "http://www.w3.org/Graphics/SVG/1.1/DTD/svg11.dtd" >
<!-- SVG content generated using Symbology Configuration Management System (SCMS) -->
<!-- Systematic Software Engineering Ltd. - www.systematic.co.uk - do not remove  -->
<svg id="G*GPALL---****X" width="400px" height="400px" viewBox="0 0 400 400">
<g >
<svg viewBox="0 0 400 400" id="_0.G-GPALL-------X" width="400px" height="400px"><g transform="translate(-130 -100) scale(1.25 1.25)"><line x1="139.389" y1="171.222" x2="336.578" y2="171.253" style="fill:none;stroke:rgb(0,0,0);stroke-width:2" transform="matrix(1 0 0 1 23 22)"></line>
<line x1="150.056" y1="250.556" x2="351.022" y2="250.586" transform="matrix(1 0 0 1 9 0)" style="fill:none;stroke:rgb(0,0,0);stroke-width:2"></line>
<line x1="168" y1="199" x2="303" y2="199" style="fill:none;stroke:rgb(0,0,0);stroke-width:2" transform="matrix(1 0 0 1 23 22)"></line>
<text x="198px" y="190px" transform="matrix(1 0 0 1 39 22)" style="fill:rgb(0,0,0);font-family:Arial Black;font-weight:bold;font-size:12">LLTR</text>
<circle cx="365" cy="222.5" r="33" transform="matrix(1 0 0 0.872053 -5.33334 27.8015)" style="fill:rgb(255,255,255);stroke:rgb(0,0,0);stroke-width:2"></circle>
<circle cx="365" cy="222.5" r="33" transform="matrix(1 0 0 0.872053 -204.921 27.7231)" style="fill:rgb(255,255,255);stroke:rgb(0,0,0);stroke-width:2"></circle>
<g id="PT.1" transform="translate(-11 -98)"><text x="142px" y="116px" transform="matrix(1 0 0 1 4 106) translate(11 97)" style="fill:rgb(0,0,0);font-size:12;font-family:Arial Black;font-weight:bold">ACP</text>
<text x="154px" y="128px" transform="matrix(1 0 0 1 1 106) translate(13 100)" style="fill:rgb(0,0,0);font-size:12;font-family:Arial Black;font-weight:bold">1</text>
</g>
<g id="PT.2" transform="translate(6 -87)"><text x="142px" y="116px" transform="matrix(1 0 0 1 204 106) translate(-5 87)" style="fill:rgb(0,0,0);font-size:12;font-family:Arial Black;font-weight:bold">ACP</text>
<text x="306px" y="122px" transform="matrix(1 0 0 1 49 111) translate(-5 90)" style="fill:rgb(0,0,0);font-size:12;font-family:Arial Black;font-weight:bold">2</text>
</g>
<g id="W" transform="matrix(1 0 0 1 0 0)"><text x="124px" y="374px" transform="matrix(1 0 0 1 0 0) translate(72 -133)" style="fill:rgb(0,0,0);stroke-width:1;font-family:Arial Black;font-weight:bold;font-size:12;      ">270600Z-</text>
</g>
<g id="W1" transform="matrix(1 0 0 1 0 0)"><text x="294px" y="366px" transform="matrix(1 0 0 1 0 0) translate(-35 -126)" style="fill:rgb(0,0,0);stroke-width:1;font-family:Arial Black;font-weight:bold;font-size:12;      ">280600Z</text>
</g>
</g>
</svg>

</g>
</svg>