<?xml version="1.0"?>
<!DOCTYPE svg PUBLIC "-//W3C//DTD SVG 1.1//EN" "http://www.w3.org/Graphics/SVG/1.1/DTD/svg11.dtd" >
<!-- SVG content generated using Symbology Configuration Management System (SCMS) -->
<!-- Systematic Software Engineering Ltd. - www.systematic.co.uk - do not remove  -->
<svg id="G*GPGPRS--****X" width="400px" height="400px" viewBox="0 0 400 400">
<g >
<svg viewBox="0 0 400 400" id="_0.G-GPGPRS------X" width="400px" height="400px"><g transform="translate(30 30) scale(8 8)"><path d="M40.141 40.475 L20.879 21.275 L0.539 41.5 L0 41.08 L20.699 20.449 L0.539 0.301 L0.898      0 L20.76 19.654 C25.559 14.974 32.039 8.535 40.199 0.336 L40.76 0.834 L20.988      20.482 L40.68 40.115 zM29.875 20.467 C29.875 23.061 28.986 25.235 27.211      26.992 C25.436 28.746 23.252 29.625 20.658 29.625 C18.103 29.625 15.939      28.736 14.162 26.963 C12.389 25.186 11.5 23.022 11.5 20.467 C11.5 17.873 12.379      15.69 14.133 13.914 C15.891 12.139 18.065 11.25 20.658 11.25 C23.211 11.25      25.385 12.148 27.181 13.943 C28.977 15.74 29.875 17.914 29.875 20.467 z"></path>
</g>
</svg>

</g>
</svg>