<?xml version="1.0"?>
<!DOCTYPE svg PUBLIC "-//W3C//DTD SVG 1.1//EN" "http://www.w3.org/Graphics/SVG/1.1/DTD/svg11.dtd" >
<!-- SVG content generated using Symbology Configuration Management System (SCMS) -->
<!-- Systematic Software Engineering Ltd. - www.systematic.co.uk - do not remove  -->
<svg id="G*OPHM----****X" width="400px" height="400px" viewBox="0 0 400 400">
<g >
<svg viewBox="0 0 400 400" id="_0.G-OPHM--------X" width="400px" height="400px"><g transform="translate(-350 -190) scale(2 2)"><path d="M0 5.506 L8.1 13.606 L7.379 14.446 L0 7.125 zM21.121 10.125 L27.961 16.957 L27.961      26.668 L21.121 33.5 L11.459 33.5 L4.439 26.727 L4.439 17.018 L11.22 10.305      zM16.75 10.125 L16.75 0 L15.5 0 L15.5 10.125 zM32.58 5.445 L32.58 6.945 L25.199      14.324 L24.42 13.664 z" transform="matrix(4.407 0 0 4.34328 225 118)"></path>
<g transform="rotate(322.674 140.841 265.683) translate(117.59 51.9375)"><line x1="110" y1="266" x2="156" y2="266" transform="matrix(1 0 0 1 -0.0002664 -3.62543e-005)" style="fill:rgb(128,128,128);stroke:rgb(128,128,128);stroke-width:2"></line>
<polygon points="62,117.304 68,127.696 56,127.696" transform="matrix(6.12304e-017 1 -1.63583 1.00162e-016 363.571 203.683)" style="fill:rgb(128,128,128);stroke:rgb(128,128,128);stroke-width:2"></polygon>
</g>
<g id="CENTER%20POINT" transform="translate(64 -54)"><text x="120px" y="306px" transform="matrix(1 0 0 1 0 0)" style="fill:rgb(0,0,0);stroke-width:1;font-family:Arial Black;font-weight:bold;font-size:12;      ">CENTER</text>
<text x="120px" y="339px" transform="matrix(1 0 0 1 0 0) translate(7 -21)" style="fill:rgb(0,0,0);stroke-width:1;font-family:Arial Black;font-weight:bold;font-size:12;      ">POINT</text>
</g>
</g>
</svg>

</g>
</svg>