<?xml version="1.0"?>
<!DOCTYPE svg PUBLIC "-//W3C//DTD SVG 1.1//EN" "http://www.w3.org/Graphics/SVG/1.1/DTD/svg11.dtd" >
<!-- SVG content generated using Symbology Configuration Management System (SCMS) -->
<!-- Systematic Software Engineering Ltd. - www.systematic.co.uk - do not remove  -->
<svg id="G*OPBE----****X" width="400px" height="400px" viewBox="0 0 400 400">
<g >
<svg viewBox="0 0 400 400" id="_0.G-OPBE--------X" width="400px" height="400px"><g transform="translate(-250 -200) scale(1.75 1.75)"><line x1="86" y1="293" x2="186" y2="234" style="fill:rgb(0,0,0);stroke:rgb(0,0,0);stroke-width:2" transform="matrix(1 0 0 1 60 1)"></line>
<line x1="216" y1="218" x2="306" y2="162" transform="matrix(1 0 0 1 60 0)" style="fill:rgb(0,0,0);stroke:rgb(0,0,0);stroke-width:2"></line>
<text x="254px" y="231px" transform="translate(258.494 231) scale(1 1.9311) translate(-258.494 -231) translate(254.876 226.704) scale(3.07297 1) translate(-254.876 -226.704) translate(-0.976255 2.5892) translate(254.876 226.704) scale(0.775139 1) translate(-254.876 -226.704) translate(258.494 231) scale(1 0.87946) translate(-258.494 -231) translate(0 -0.588816) translate(0.419819 0)" style="fill:rgb(0,0,0);stroke-width:1;font-size:12;font-family:Arial Black;font-weight:bold;     ">E</text>
</g>
</svg>

</g>
</svg>