<?xml version="1.0"?>
<!DOCTYPE svg PUBLIC "-//W3C//DTD SVG 1.1//EN" "http://www.w3.org/Graphics/SVG/1.1/DTD/svg11.dtd" >
<!-- SVG content generated using Symbology Configuration Management System (SCMS) -->
<!-- Systematic Software Engineering Ltd. - www.systematic.co.uk - do not remove  -->
<svg id="SUGPUCFMT-*****" width="400px" height="400px" viewBox="0 0 400 400">
<g >
<svg viewBox="0 0 400 400" id="_0.SUG-U----------" width="400px" height="400px"><path d="M115 285 C115 400 285 400 285 285 C400 285 400 115 285 115 C285 0 115 0 115 115 C0     115 0 285 115 285 z" style="fill:rgb(255,255,128);stroke:rgb(0,0,0);stroke-width:10"></path>
</svg>

</g>
<g transform="translate(80 37) scale(0.6 0.6)" >
<svg viewBox="0 0 400 400" id="_1.S-G-UCFM-------" width="400px" height="400px"><path d="M190 126 L200 100 L210 126 z" style="stroke-width:10;stroke:rgb(0,0,0);fill:none"></path>
<line x1="200" y1="100" x2="200" y2="280" style="fill:none;stroke:rgb(0,0,0);stroke-width:10"></line>
<ellipse cx="200" cy="295" rx="13" ry="13" style="fill:none;stroke:rgb(0,0,0);stroke-width:10"></ellipse>
</svg>

</g>
<g >
<svg viewBox="0 0 400 400" id="_2.S-G-UCFRST-----" width="400px" height="400px"><ellipse cx="120" cy="228" rx="13" ry="13" style="fill:none;stroke:rgb(0,0,0);stroke-width:10"></ellipse>
<ellipse cx="280" cy="228" rx="13" ry="13" style="fill:none;stroke:rgb(0,0,0);stroke-width:10"></ellipse>
<line x1="133" y1="228" x2="267" y2="228" style="fill:none;stroke:rgb(0,0,0);stroke-width:10"></line>
</svg>

</g>
</svg>