<?xml version="1.0"?>
<!DOCTYPE svg PUBLIC "-//W3C//DTD SVG 1.1//EN" "http://www.w3.org/Graphics/SVG/1.1/DTD/svg11.dtd" >
<!-- SVG content generated using Symbology Configuration Management System (SCMS) -->
<!-- Systematic Software Engineering Ltd. - www.systematic.co.uk - do not remove  -->
<svg id="SHGPUSTR--*****" width="400px" height="400px" viewBox="0 0 400 400">
<g >
<svg viewBox="0 0 400 400" id="_0.SHG-U----------" width="400px" height="400px"><polyline points="200,373 373,200 200,27 27,200 200,373" style="stroke-linecap:square;fill:rgb(255,128,128);stroke:rgb(0,0,0);stroke-width:10"></polyline>
</svg>

</g>
<g transform="translate(20 50) scale(0.9 0.9)" >
<svg viewBox="0 0 400 400" id="_1.S-G-UST--------" width="400px" height="400px"><ellipse cx="200" cy="200" rx="80" ry="80" style="fill:none;stroke:rgb(0,0,0);stroke-width:10"></ellipse>
<line x1="136" y1="156" x2="264" y2="244" style="fill:none;stroke:rgb(0,0,0);stroke-width:10"></line>
<line x1="136" y1="244" x2="264" y2="156" style="fill:none;stroke:rgb(0,0,0);stroke-width:10"></line>
<line x1="200" y1="120" x2="200" y2="280" style="fill:none;stroke:rgb(0,0,0);stroke-width:10"></line>
</svg>

</g>
<g transform="translate(40 -30) scale(0.8 0.7)" >
<svg viewBox="0 0 400 400" id="_2.S-G-UCSR-------" width="400px" height="400px"><ellipse cx="120" cy="245" rx="13" ry="13" style="fill:none;stroke:rgb(0,0,0);stroke-width:10"></ellipse>
<ellipse cx="156" cy="245" rx="13" ry="13" style="fill:none;stroke:rgb(0,0,0);stroke-width:10"></ellipse>
<ellipse cx="280" cy="245" rx="13" ry="13" style="fill:none;stroke:rgb(0,0,0);stroke-width:10"></ellipse>
<ellipse cx="244" cy="245" rx="13" ry="13" style="fill:none;stroke:rgb(0,0,0);stroke-width:10"></ellipse>
<line x1="102" y1="228" x2="298" y2="228" style="fill:none;stroke:rgb(0,0,0);stroke-width:10"></line>
</svg>

</g>
</svg>