<?xml version="1.0"?>
<!DOCTYPE svg PUBLIC "-//W3C//DTD SVG 1.1//EN" "http://www.w3.org/Graphics/SVG/1.1/DTD/svg11.dtd" >
<!-- SVG content generated using Symbology Configuration Management System (SCMS) -->
<!-- Systematic Software Engineering Ltd. - www.systematic.co.uk - do not remove  -->
<svg id="SNGPUCFTA-*****" width="400px" height="400px" viewBox="0 0 400 400">
<g >
<svg viewBox="0 0 400 400" id="_0.SNG-U----------" width="400px" height="400px"><rect x="68" y="68" width="264" height="264" style="fill:rgb(170,255,170);stroke:rgb(0,0,0);stroke-width:10"></rect>
</svg>

</g>
<g >
<svg viewBox="0 0 400 400" id="_1.S-G-UCF--------" width="400px" height="400px"><ellipse cx="200" cy="200" rx="18" ry="18" style="fill:rgb(0,0,0);stroke:rgb(0,0,0);stroke-width:10"></ellipse>
</svg>

</g>
<g >
<svg viewBox="0 0 400 400" id="_2.SNG-UCECR------" width="400px" height="400px"><line x1="332" y1="68" x2="68" y2="332" style="fill:none;stroke:rgb(0,0,0);stroke-width:10"></line>
</svg>

</g>
<g >
<svg viewBox="0 0 400 400" id="_3.S-A-MH---------" width="400px" height="400px"><polyline points="200,200 110,150 110,250 200,200 290,150 290,250 200,200" style="fill:rgb(0,0,0)"></polyline>
</svg>

</g>
<g transform="translate(120 51) scale(0.4 0.4)" >
<svg viewBox="0 0 400 400" id="_4.S-G-UCFTA------" width="400px" height="400px"><ellipse cx="200" cy="104" rx="16" ry="16" style="fill:none;stroke:rgb(0,0,0);stroke-width:18"></ellipse>
<line x1="200" y1="120" x2="200" y2="280" style="fill:none;stroke:rgb(0,0,0);stroke-width:18"></line>
<line x1="120" y1="130" x2="280" y2="130" style="fill:none;stroke:rgb(0,0,0);stroke-width:18"></line>
<path d="M100 200 C150 300 250 300 300 200 C250 315 150 315 100 200" style="fill:rgb(0,0,0);stroke:rgb(0,0,0);stroke-width:18"></path>
<path d="M100 200 C108 245 113 245 113 245 L128 225 C115 220 110 210 103 203" style="fill:rgb(0,0,0);stroke:rgb(0,0,0);stroke-width:18"></path>
<path d="M300 200 C292 245 287 245 287 245 L272 225 C285 220 290 210 297 203" style="fill:rgb(0,0,0);stroke:rgb(0,0,0);stroke-width:18"></path>
</svg>

</g>
</svg>