<?xml version="1.0"?>
<!DOCTYPE svg PUBLIC "-//W3C//DTD SVG 1.1//EN" "http://www.w3.org/Graphics/SVG/1.1/DTD/svg11.dtd" >
<!-- SVG content generated using Symbology Configuration Management System (SCMS) -->
<!-- Systematic Software Engineering Ltd. - www.systematic.co.uk - do not remove  -->
<svg id="SUSPNH----*****" width="400px" height="400px" viewBox="0 0 400 400">
<g >
<svg viewBox="0 0 400 400" id="_0.SUS------------" width="400px" height="400px"><path d="M115 285 C115 400 285 400 285 285 C400 285 400 115 285 115 C285 0 115 0 115 115 C0     115 0 285 115 285 z" style="fill:rgb(255,255,128);stroke:rgb(0,0,0);stroke-width:10"></path>
</svg>

</g>
<g >
<svg viewBox="0 0 400 400" id="_1.S-S-NC---------" width="400px" height="400px"><polygon points="310,200 280,265 120,265 90,200 110,200 110,145 120,175 280,175 290,145 290,200" style="fill:rgb(0,0,0);stroke:rgb(0,0,0);stroke-width:1"></polygon>
<text x="155px" y="250px" transform="matrix(1 0 0 1 0 0)" style="fill:rgb(255,255,255);font-size:60;font-family:Arial;stroke:rgb(255,255,255)">NC</text>
</svg>

</g>
</svg>