<?xml version="1.0"?>
<!DOCTYPE svg PUBLIC "-//W3C//DTD SVG 1.1//EN" "http://www.w3.org/Graphics/SVG/1.1/DTD/svg11.dtd" >
<!-- SVG content generated using Symbology Configuration Management System (SCMS) -->
<!-- Systematic Software Engineering Ltd. - www.systematic.co.uk - do not remove  -->
<svg id="WA--W----------" width="400px" height="400px" viewBox="0 0 400 400">
<g >
<svg viewBox="0 0 400 400" id="_0.WA--W----------" width="400px" height="400px"><g transform="translate(30 20) scale(12 12)"><path d="M0 0.072 L1.25 0 L1.25 7.635 L0 8.428 zM0 8.428 L1.229 7.631 L22.793 23.733 C22.652      23.827 22.352 24.172 21.889 24.772 zM20.75 26.063 C20.75 24.952 21.148 23.997      21.947 23.198 C22.744 22.4 23.699 22 24.813 22 C25.924 22 26.879 22.4 27.678      23.197 C28.475 23.996 28.875 24.951 28.875 26.062 C28.875 27.175 28.475      28.13 27.678 28.927 C26.879 29.726 25.924 30.124 24.813 30.124 C23.7 30.124      22.745 29.726 21.948 28.927 C21.148 28.131 20.75 27.176 20.75 26.063 z"></path>
</g>
</svg>

</g>
</svg>