<?xml version="1.0"?>
<!DOCTYPE svg PUBLIC "-//W3C//DTD SVG 1.1//EN" "http://www.w3.org/Graphics/SVG/1.1/DTD/svg11.dtd" >
<!-- SVG content generated using Symbology Configuration Management System (SCMS) -->
<!-- Systematic Software Engineering Ltd. - www.systematic.co.uk - do not remove  -->
<svg id="G*GPOLF---****X" width="400px" height="400px" viewBox="0 0 400 400">
<g >
<svg viewBox="0 0 400 400" id="_0.G-GPOLF-------X" width="400px" height="400px"><g transform="translate(-5 5) scale(0.8 0.8)"><path d="M146.5 112 C218.379 112 294.25 105.875 365.5 113" style="fill:none;stroke:rgb(0,0,0);stroke-width:2"></path>
<path d="M147.5 75 C150.104 108.854 142.334 142.234 145.5 176 C146.87 190.617 154.559 201.763      156.5 216 C159.869 240.707 143.515 388.28 136.5 414" style="fill:none;stroke:rgb(0,0,0);stroke-width:2"></path>
<path d="M365.5 71 C365.5 112.123 362.345 149.631 358.5 190 C355.791 218.443 363.5 246.021      363.5 274 C363.5 297.608 352.463 387.408 361.5 410" style="fill:none;stroke:rgb(0,0,0);stroke-width:2"></path>
<text x="172px" y="405px" transform="matrix(1 0 0 1 -137 -307)" style="fill:rgb(0,0,0);font-family:Arial Black;font-weight:bold;font-size:18">FINAL CL</text>
<text x="306px" y="449px" transform="matrix(-1.83691e-016 -1 1 -1.83691e-016 -321.1 638.594)" style="fill:rgb(0,0,0);font-family:Arial Black;font-weight:bold;font-size:18">21 ID (L)</text>
<text x="38px" y="357px" transform="matrix(-1.83691e-016 -1 1 -1.83691e-016 -12.544 377.15)" style="fill:rgb(0,0,0);font-family:Arial Black;font-weight:bold;font-size:18">54 ID (M)</text>
<text x="362px" y="392px" transform="matrix(-1.83691e-016 -1 1 -1.83691e-016 3.039 741.733)" style="fill:rgb(0,0,0);font-family:Arial Black;font-weight:bold;font-size:18">65 ID (M)(SA)</text>
<g transform="matrix(1 0 0 1 92 -127)"><rect x="46" y="401" width="24" height="36" style="fill:rgb(255,255,255);stroke:none;stroke-width:2"></rect>
<text x="44px" y="426px" transform="matrix(-1.83691e-016 -1 1 -1.83691e-016 -361.516 477.596)" style="fill:rgb(0,0,0);font-family:Arial Black;font-weight:bold;font-size:18">XX</text>
</g>
<text x="172px" y="405px" transform="matrix(1 0 0 1 213 -309)" style="fill:rgb(0,0,0);font-family:Arial Black;font-weight:bold;font-size:18">FINAL CL</text>
<text x="38px" y="357px" transform="matrix(-1.83691e-016 -1 1 -1.83691e-016 -175.544 372.15)" style="fill:rgb(0,0,0);font-family:Arial Black;font-weight:bold;font-size:18">54 ID (M)</text>
<g transform="matrix(1 0 0 1 113 49)"><rect x="238" y="232" width="24" height="36" style="fill:rgb(255,255,255);stroke:none;stroke-width:2"></rect>
<text x="44px" y="426px" transform="matrix(-1.83691e-016 -1 1 -1.83691e-016 -169.516 308.596)" style="fill:rgb(0,0,0);font-family:Arial Black;font-weight:bold;font-size:18">XX</text>
</g>
<text x="42px" y="48px" transform="matrix(1 0 0 1 0 0) translate(-11.6279 67.4419) translate(0 1) translate(0 1)" style="fill:rgb(0,0,0);stroke-width:1;font-family:Arial Black;font-weight:bold;font-size:18;     ">(PL</text>
<g id="T1"><text x="141px" y="54px" transform="matrix(1 0 0 1 0 0) translate(-73.2558 63.9535)" style="fill:rgb(0,0,0);stroke-width:1;font-family:Arial Black;font-weight:bold;font-size:18;      ">ALPHA)</text>
</g>
<text x="288px" y="25px" transform="matrix(1 0 0 1 0 0) translate(80.2326 93.0233)" style="fill:rgb(0,0,0);stroke-width:1;font-family:Arial Black;font-weight:bold;font-size:18;     ">(PL</text>
<g id="T2"><text x="290px" y="61px" transform="matrix(1 0 0 1 0 0) translate(115.116 55.814) translate(0 1)" style="fill:rgb(0,0,0);stroke-width:1;font-family:Arial Black;font-weight:bold;font-size:18;      ">ALPHA)</text>
</g>
</g>
</svg>

</g>
</svg>