<?xml version="1.0"?>
<!DOCTYPE svg PUBLIC "-//W3C//DTD SVG 1.1//EN" "http://www.w3.org/Graphics/SVG/1.1/DTD/svg11.dtd" >
<!-- SVG content generated using Symbology Configuration Management System (SCMS) -->
<!-- Systematic Software Engineering Ltd. - www.systematic.co.uk - do not remove  -->
<svg id="G*GPOLI---****X" width="400px" height="400px" viewBox="0 0 400 400">
<g >
<svg viewBox="0 0 400 400" id="_0.G-GPOLI-------X" width="400px" height="400px"><g transform="translate(-40 -30)"><g><path d="M145.5 265 C167.072 229.047 210.637 229.575 244.5 207 C267.861 191.426 278.833 162.833       304.5 150 C343.427 130.537 346.656 155.406 377.5 104" style="fill:none;stroke:rgb(0,0,0);stroke-width:1" transform="matrix(1 0 0 1 -22 30)"></path>
<path d="M134.5 331 C156.072 295.047 199.637 295.575 233.5 273 C256.861 257.426 267.833 228.833       293.5 216 C332.427 196.537 335.656 221.406 366.5 170" transform="matrix(1 0 0 1 16 -5)" style="fill:none;stroke:rgb(0,0,0);stroke-width:1"></path>
<text x="157px" y="85px" transform="rotate(320.004 201.514 78.556) translate(-71.9961 150.538)" style="fill:rgb(0,0,0);font-family:Arial Black;font-weight:bold;font-size:18">CHARLIE</text>
<path d="M219.3 238.6 L207.1 224.8 L236.7 196 L200.7 155.2 L168.7 184 L139.9 156.8 L175.9       124 L135.9 84.8 L96.7 118.4 L103.1 124.8 L135.9 95.2 L164.7 124.8 L130.3 155.2       L169.5 193.6 L200.7 167.2 L227.1 196.8 L197.5 225.6 L212.333 242.7" transform="rotate(1.47872 166.7 163.75) rotate(2.48893 166.874 163.937) translate(7.63486 -5.54156)" style="stroke:rgb(0,0,0);stroke-width:2;fill:none"></path>
<path d="M268.567 250.833 L279.5 242.4 L309.9 284 L275.5 307.2 L299.5 336 L331.5 311.2 L362.7       349.6 L324.3 378.4 L319.8 372.033 L353.667 347.6 L331.1 319.767 L298.7       345.6 L265.167 305.267 L300.3 280.8 L280.3 252.8 L242.5 279.6 L237.9 275.2" style="stroke:rgb(0,0,0);stroke-width:2;fill:none"></path>
</g>
<text x="34px" y="79px" transform="matrix(1 0 0 1 0 0) translate(54 4)" style="fill:rgb(0,0,0);font-family:Arial Black;font-weight:bold;font-size:18">ENY</text>
<text x="34px" y="79px" transform="matrix(1 0 0 1 195 178) translate(99 134)" style="fill:rgb(0,0,0);font-family:Arial Black;font-weight:bold;font-size:18">ENY</text>
</g>
</svg>

</g>
</svg>