<?xml version="1.0"?>
<!DOCTYPE svg PUBLIC "-//W3C//DTD SVG 1.1//EN" "http://www.w3.org/Graphics/SVG/1.1/DTD/svg11.dtd" >
<!-- SVG content generated using Symbology Configuration Management System (SCMS) -->
<!-- Systematic Software Engineering Ltd. - www.systematic.co.uk - do not remove  -->
<svg id="G*GPOLL---****X" width="400px" height="400px" viewBox="0 0 400 400">
<g >
<svg viewBox="0 0 400 400" id="_0.G-GPOLL-------X" width="400px" height="400px"><g transform="translate(-40 0) scale(0.9 0.9)"><path d="M122.5 199 C216.057 147.969 217.259 149 320.5 149" transform="matrix(1 0 0 1 43 -50)" style="fill:none;stroke:rgb(0,0,0);stroke-width:2"></path>
<path d="M321.5 93 C329.403 136.467 313.13 181.987 311.5 226 C310.09 264.08 314.96 353.94      311.5 392" transform="matrix(1 0 0 1 41 -23)" style="fill:none;stroke:rgb(0,0,0);stroke-width:2"></path>
<path d="M116.5 93 C122.697 179.753 113.5 263.325 113.5 350" transform="matrix(1 0 0 1 46 23)" style="fill:none;stroke:rgb(0,0,0);stroke-width:2"></path>
<text x="188px" y="431px" transform="matrix(1 0 0 1 -110 -272)" style="fill:rgb(0,0,0);font-family:Arial Black;font-weight:bold;font-size:18">LOA</text>
<text x="262px" y="473px" transform="matrix(-1.83691e-016 -1 1 -1.83691e-016 -92.961 605.733)" style="fill:rgb(0,0,0);font-family:Arial Black;font-weight:bold;font-size:18">65 ID (M)(SA)</text>
<text x="294px" y="383px" transform="matrix(-1.83691e-016 -1 1 -1.83691e-016 -240.1 625.594)" style="fill:rgb(0,0,0);font-size:18;font-family:Arial Black;font-weight:bold">21 ID (L)</text>
<text x="302px" y="411px" transform="matrix(-1.83691e-016 -1 1 -1.83691e-016 -74.544 607.15)" style="fill:rgb(0,0,0);font-size:18;font-family:Arial Black;font-weight:bold">54 ID (M)</text>
<text x="188px" y="431px" transform="matrix(1 0 0 1 218 -347)" style="fill:rgb(0,0,0);font-family:Arial Black;font-weight:bold;font-size:18">LOA</text>
<text x="302px" y="411px" transform="matrix(-1.83691e-016 -1 1 -1.83691e-016 -218.544 635.15)" style="fill:rgb(0,0,0);font-size:18;font-family:Arial Black;font-weight:bold">54 ID (M)</text>
<g transform="matrix(1 0 0 1 -28 -137)"><rect x="176" y="410" width="24" height="36" style="fill:rgb(255,255,255);stroke:none;stroke-width:2"></rect>
<text x="174px" y="433px" transform="matrix(-1.83691e-016 -1 1 -1.83691e-016 -238.516 614.596)" style="fill:rgb(0,0,0);font-family:Arial Black;font-weight:bold;font-size:18">XX</text>
</g>
<g transform="matrix(1 0 0 1 101 25)"><rect x="238" y="232" width="24" height="36" style="fill:rgb(255,255,255);stroke:none;stroke-width:2"></rect>
<text x="174px" y="433px" transform="matrix(-1.83691e-016 -1 1 -1.83691e-016 -176.516 436.596)" style="fill:rgb(0,0,0);font-family:Arial Black;font-weight:bold;font-size:18">XX</text>
</g>
<text x="75px" y="26px" transform="matrix(1 0 0 1 0 0) translate(-29.0698 148.837) translate(0 1)" style="fill:rgb(0,0,0);stroke-width:1;font-family:Arial Black;font-weight:bold;font-size:18;     ">(PL</text>
<g id="T1"><text x="103px" y="72px" transform="matrix(1 0 0 1 0 0) translate(-19.7674 103.488)" style="fill:rgb(0,0,0);stroke-width:1;font-family:Arial Black;font-weight:bold;font-size:18;      ">BRAVO)</text>
</g>
<text x="280px" y="47px" transform="matrix(1 0 0 1 0 0) translate(90.6977 56.9767)" style="fill:rgb(0,0,0);stroke-width:1;font-family:Arial Black;font-weight:bold;font-size:18;     ">(PL</text>
<g id="T2"><text x="382px" y="30px" transform="matrix(1 0 0 1 0 0) translate(25.5814 73.2558)" style="fill:rgb(0,0,0);stroke-width:1;font-family:Arial Black;font-weight:bold;font-size:18;      ">BRAVO)</text>
</g>
</g>
</svg>

</g>
</svg>