<?xml version="1.0"?>
<!DOCTYPE svg PUBLIC "-//W3C//DTD SVG 1.1//EN" "http://www.w3.org/Graphics/SVG/1.1/DTD/svg11.dtd" >
<!-- SVG content generated using Symbology Configuration Management System (SCMS) -->
<!-- Systematic Software Engineering Ltd. - www.systematic.co.uk - do not remove  -->
<svg id="G*GPGAE---****X" width="400px" height="400px" viewBox="0 0 400 400">
<g >
<svg viewBox="0 0 400 400" id="_0.G-GPGA--------X" width="400px" height="400px"><path style="fill:none;stroke:rgb(0,0,0);stroke-width:5" d="M316 85 C349.137 85 375 111.863 375 145 L368 254 C368 287.137 348.137 315 315 315
			C315 315 249.959 312.333 226.5 316 C203.041 319.667 85 314 85 314 C51.8632 314
			30 289.137 30 256 L25 145 C25 111.863 51.8632 85 85 85 C85 85 153.615 78 193.5
			82 C233.385 86 316 85 316 85 z"></path>
</svg>

</g>
<g >
<svg viewBox="0 0 400 400" id="_1.G-GPGAE-------X" width="400px" height="400px"><text x="172px" y="170px" style="fill:rgb(0,0,0);stroke:rgb(0,0,0);font-size:40;font-family:Arial">EA</text>
</svg>

</g>
<g transform="translate(163 0)" >
<svg viewBox="0 0 400 400" id="_2.G-----------PNF" width="400px" height="400px"><rect x="175" y="175" width="50" height="50" style="fill:rgb(255,255,255);stroke:rgb(0,0,0);stroke-width:5" transform="translate(0 0) translate(0 0)"></rect>
<text x="187px" y="213px" style="fill:rgb(0,0,0);stroke:rgb(0,0,0);font-size:36;font-family:Arial">N</text>
</svg>

</g>
<g transform="translate(-166 0)" >
<svg viewBox="0 0 400 400" id="_3.G-----------PNF" width="400px" height="400px"><rect x="175" y="175" width="50" height="50" style="fill:rgb(255,255,255);stroke:rgb(0,0,0);stroke-width:5" transform="translate(0 0) translate(0 0)"></rect>
<text x="187px" y="213px" style="fill:rgb(0,0,0);stroke:rgb(0,0,0);font-size:36;font-family:Arial">N</text>
</svg>

</g>
<g transform="translate(0 10)" >
<svg viewBox="0 0 400 400" id="_4.G-----------PTS" width="400px" height="400px"><rect x="175" y="175" width="50" height="50" style="fill:none;stroke:rgb(0,0,0);stroke-width:5" transform="translate(0 0) translate(0 0)"></rect>
<text x="189px" y="213px" style="fill:rgb(0,0,0);stroke:rgb(0,0,0);font-size:36;font-family:Arial">T</text>
</svg>

</g>
</svg>