<?xml version="1.0"?>
<!DOCTYPE svg PUBLIC "-//W3C//DTD SVG 1.1//EN" "http://www.w3.org/Graphics/SVG/1.1/DTD/svg11.dtd" >
<!-- SVG content generated using Symbology Configuration Management System (SCMS) -->
<!-- Systematic Software Engineering Ltd. - www.systematic.co.uk - do not remove  -->
<svg id="G*FPAP----****X" width="400px" height="400px" viewBox="0 0 400 400">
<g >
<svg viewBox="0 0 400 400" id="_0.G-FPAP--------X" width="400px" height="400px"><g transform="translate(-145 -60) scale(1.25 1.25)"><rect x="138" y="108" width="236" height="232" transform="translate(-2 0) translate(-156 -137) translate(178 122)" style="fill:rgb(255,255,255);stroke:rgb(0,0,0);stroke-width:2"></rect>
<rect x="182" y="387" width="50" height="31" transform="translate(62 -309)" style="fill:rgb(255,255,255);stroke:rgb(255,255,255);stroke-width:1"></rect>
<text x="192px" y="406px" transform="translate(62 -309)" style="fill:rgb(0,0,0);font-family:Arial Black;font-weight:bold;font-size:14">PAA</text>
<rect x="225" y="235" width="50" height="31" transform="translate(17 149) translate(-110 -195)" style="fill:rgb(255,255,255);stroke:rgb(255,255,255);stroke-width:1"></rect>
<text x="235px" y="254px" transform="translate(17 149) translate(-110 -195)" style="fill:rgb(0,0,0);font-family:Arial Black;font-weight:bold;font-size:14">PAA</text>
<rect x="225" y="235" width="50" height="31" transform="translate(102 155) translate(36 -207)" style="fill:rgb(255,255,255);stroke:rgb(255,255,255);stroke-width:1"></rect>
<text x="235px" y="254px" transform="translate(102 155) translate(36 -207)" style="fill:rgb(0,0,0);font-family:Arial Black;font-weight:bold;font-size:14">PAA</text>
<rect x="225" y="235" width="50" height="31" transform="translate(174 155) translate(-150 -80)" style="fill:rgb(255,255,255);stroke:rgb(255,255,255);stroke-width:1"></rect>
<text x="235px" y="254px" transform="translate(174 155) translate(-150 -80)" style="fill:rgb(0,0,0);font-family:Arial Black;font-weight:bold;font-size:14">PAA</text>
</g>
</svg>

</g>
</svg>