<?xml version="1.0"?>
<!DOCTYPE svg PUBLIC "-//W3C//DTD SVG 1.1//EN" "http://www.w3.org/Graphics/SVG/1.1/DTD/svg11.dtd" >
<!-- SVG content generated using Symbology Configuration Management System (SCMS) -->
<!-- Systematic Software Engineering Ltd. - www.systematic.co.uk - do not remove  -->
<svg id="G*GPDLP---****X" width="400px" height="400px" viewBox="0 0 400 400">
<g >
<svg viewBox="0 0 400 400" id="_0.G-GPDLP-------X" width="400px" height="400px"><g transform="translate(-230 -260) scale(1.75 1.75)"><g><line x1="219.127" y1="265.988" x2="294.911" y2="166.219" style="fill:rgb(0,0,0);stroke:rgb(0,0,0);stroke-width:2" transform="matrix(1 0 0 1 34 35)"></line>
<line x1="294.521" y1="166.588" x2="275.154" y2="176.422" style="fill:rgb(0,0,0);stroke:rgb(0,0,0);stroke-width:2" transform="matrix(1 0 0 1 34 35)"></line>
<line x1="294.679" y1="166.746" x2="294" y2="186" style="fill:rgb(0,0,0);stroke:rgb(0,0,0);stroke-width:2" transform="matrix(1 0 0 1 34 35)"></line>
<line x1="128.195" y1="167.483" x2="132" y2="183" style="fill:rgb(0,0,0);stroke:rgb(0,0,0);stroke-width:2" transform="matrix(1 0 0 1 34 35)"></line>
<line x1="128.616" y1="167.325" x2="143.663" y2="170.693" style="fill:rgb(0,0,0);stroke:rgb(0,0,0);stroke-width:2" transform="matrix(1 0 0 1 34 35)"></line>
<line x1="143.406" y1="187.423" x2="199.073" y2="248.756" transform="matrix(1 0 0 1 38.619 32)" style="fill:rgb(0,0,0);stroke:rgb(0,0,0);stroke-width:6"></line>
<line x1="128" y1="167" x2="219.406" y2="267.09" style="fill:rgb(0,0,0);stroke:rgb(0,0,0);stroke-width:2" transform="matrix(1 0 0 1 34 35)"></line>
<text x="132px" y="174px" transform="matrix(1 0 0 1 13 9)" style="fill:rgb(0,0,0);font-size:10;font-family:Arial Black;font-weight:bold">(PDF)</text>
</g>
<g id="A" transform="translate(54 238)"><circle cx="200" cy="83" r="18" style="fill:rgb(128,224,255);stroke:rgb(0,0,0);stroke-width:2"></circle>
<line x1="199.966" y1="71.1753" x2="199.966" y2="96.2864" style="fill:rgb(0,0,0);stroke:rgb(0,0,0);stroke-width:2"></line>
<line x1="200.411" y1="71.8419" x2="207.3" y2="79.1753" style="fill:rgb(0,0,0);stroke:rgb(0,0,0);stroke-width:2"></line>
<line x1="199.522" y1="71.8419" x2="191.189" y2="79.1753" style="fill:rgb(0,0,0);stroke:rgb(0,0,0);stroke-width:2"></line>
<line x1="195" y1="83" x2="205" y2="83" style="fill:rgb(0,0,0);stroke:rgb(0,0,0);stroke-width:2"></line>
<line x1="217" y1="122" x2="227" y2="122" transform="translate(-22 -35.1111)" style="fill:rgb(0,0,0);stroke:rgb(0,0,0);stroke-width:2"></line>
<line x1="217" y1="122" x2="227" y2="122" transform="matrix(1 0 0 1 0 0.8889) translate(-22 -32.8889)" style="fill:rgb(0,0,0);stroke:rgb(0,0,0);stroke-width:2"></line>
</g>
</g>
</svg>

</g>
</svg>