<?xml version="1.0"?>
<!DOCTYPE svg PUBLIC "-//W3C//DTD SVG 1.1//EN" "http://www.w3.org/Graphics/SVG/1.1/DTD/svg11.dtd" >
<!-- SVG content generated using Symbology Configuration Management System (SCMS) -->
<!-- Systematic Software Engineering Ltd. - www.systematic.co.uk - do not remove  -->
<svg id="G*GPPM----****X" width="400px" height="400px" viewBox="0 0 400 400">
<g >
<svg viewBox="0 0 400 400" id="_0.G-GPPM--------X" width="400px" height="400px"><g transform="translate(-115 -105) scale(1.25 1.25)"><path d="M271 128 C363.26 115 439 113.591 431 262.5 C423 411.409 353.26 404 266 404 C178.74      404 120 441.409 115 262.5 C110 83.591 178.74 141 271 128 z" transform="matrix(0.797865 0 0 0.76109 34.2281 43.2885)" style="fill:rgb(255,255,255);stroke:rgb(0,0,0);stroke-width:2"></path>
<rect x="50" y="172" width="34" height="29" rx="1.7" ry="1.45" transform="matrix(1 0 0 1 58 58)" style="fill:rgb(255,255,255);stroke:rgb(255,255,255);stroke-width:1"></rect>
<line x1="167" y1="281" x2="177.615" y2="273.196" style="fill:rgb(0,0,0);stroke:rgb(0,0,0);stroke-width:2" transform="matrix(1 0 0 1 0 -15)"></line>
<line x1="180.295" y1="271.196" x2="196.562" y2="259.263" style="fill:rgb(0,0,0);stroke:rgb(0,0,0);stroke-width:2" transform="matrix(1 0 0 1 0 -15)"></line>
<line x1="202.835" y1="254.756" x2="217.302" y2="244.156" style="fill:rgb(0,0,0);stroke:rgb(0,0,0);stroke-width:2" transform="matrix(1 0 0 1 0 -15)"></line>
<line x1="225.695" y1="237.89" x2="240.428" y2="227.156" style="fill:rgb(0,0,0);stroke:rgb(0,0,0);stroke-width:2" transform="matrix(1 0 0 1 0 -15)"></line>
<line x1="247.695" y1="221.73" x2="256.295" y2="215.463" style="fill:rgb(0,0,0);stroke:rgb(0,0,0);stroke-width:2" transform="matrix(1 0 0 1 0 -15)"></line>
<line x1="258" y1="216" x2="266.562" y2="223.93" style="fill:rgb(0,0,0);stroke:rgb(0,0,0);stroke-width:2" transform="matrix(1 0 0 1 0 -15)"></line>
<line x1="271.462" y1="228.37" x2="286.062" y2="241.836" style="fill:rgb(0,0,0);stroke:rgb(0,0,0);stroke-width:2" transform="matrix(1 0 0 1 0 -15)"></line>
<line x1="291.895" y1="247.236" x2="305.028" y2="259.303" style="fill:rgb(0,0,0);stroke:rgb(0,0,0);stroke-width:2" transform="matrix(1 0 0 1 0 -15)"></line>
<line x1="311" y1="265" x2="319.995" y2="273.25" style="fill:rgb(0,0,0);stroke:rgb(0,0,0);stroke-width:2" transform="matrix(1 0 0 1 0 -15)"></line>
<line x1="323.462" y1="276.383" x2="333.395" y2="285.583" style="fill:rgb(0,0,0);stroke:rgb(0,0,0);stroke-width:2" transform="matrix(1 0 0 1 0 -15)"></line>
<text x="241px" y="258px" transform="matrix(1 0 0 1 -124 -6) translate(1 0) translate(1 0) translate(1 0)" style="fill:rgb(0,0,0);font-size:12;font-family:Arial Black;font-weight:bold">M</text>
<rect x="233" y="236" width="34" height="29" rx="1.7" ry="1.45" transform="matrix(1 0 0 1 -4 -110)" style="fill:rgb(255,255,255);stroke:rgb(255,255,255);stroke-width:1"></rect>
<text x="241px" y="258px" transform="matrix(1 0 0 1 -4 -110) translate(0 -1)" style="fill:rgb(0,0,0);font-size:12;font-family:Arial Black;font-weight:bold">M</text>
<rect x="233" y="236" width="34" height="29" rx="1.7" ry="1.45" transform="matrix(1 0 0 1 2 101)" style="fill:rgb(255,255,255);stroke:rgb(255,255,255);stroke-width:1"></rect>
<text x="241px" y="258px" transform="matrix(1 0 0 1 3 101) translate(0 -1) translate(0 -1) translate(0 -1) translate(0 -1) translate(0 -1) translate(0 -1) translate(0 1)" style="fill:rgb(0,0,0);font-size:12;font-family:Arial Black;font-weight:bold">M</text>
<rect x="233" y="236" width="34" height="29" rx="1.7" ry="1.45" transform="matrix(1 0 0 1 127 -14)" style="fill:rgb(255,255,255);stroke:rgb(255,255,255);stroke-width:1"></rect>
<text x="241px" y="258px" transform="matrix(1 0 0 1 128 -14) translate(1 0) translate(1 0) translate(1 0) translate(1 0)" style="fill:rgb(0,0,0);font-size:12;font-family:Arial Black;font-weight:bold">M</text>
<g id="N1"><rect x="88" y="58" width="20" height="19" transform="matrix(1 0 0 1 43 86)" style="fill:rgb(255,255,255);stroke:rgb(0,0,0);stroke-width:2"></rect>
<text x="94px" y="72px" transform="matrix(1 0 0 1 42 86)" style="fill:rgb(0,0,0);stroke-width:1;font-size:12;font-family:Arial Black;font-weight:bold;      ">N</text>
</g>
<g id="N2"><rect x="88" y="58" width="20" height="19" transform="matrix(1 0 0 1 249 79)" style="fill:rgb(255,255,255);stroke:rgb(0,0,0);stroke-width:2"></rect>
<text x="94px" y="72px" transform="matrix(1 0 0 1 248 79)" style="fill:rgb(0,0,0);stroke-width:1;font-size:12;font-family:Arial Black;font-weight:bold;      ">N</text>
</g>
</g>
</svg>

</g>
</svg>