<?xml version="1.0"?>
<!DOCTYPE svg PUBLIC "-//W3C//DTD SVG 1.1//EN" "http://www.w3.org/Graphics/SVG/1.1/DTD/svg11.dtd" >
<!-- SVG content generated using Symbology Configuration Management System (SCMS) -->
<!-- Systematic Software Engineering Ltd. - www.systematic.co.uk - do not remove  -->
<svg id="G*FPAK----****X" width="400px" height="400px" viewBox="0 0 400 400">
<g >
<svg viewBox="0 0 400 400" id="_0.G-FPAK--------X" width="400px" height="400px"><g transform="translate(-160 -150) scale(1.5 1.5)"><rect x="140" y="139" width="216" height="112" rx="49.5" ry="44" style="fill:rgb(255,255,255);stroke:rgb(0,0,0);stroke-width:2" transform="matrix(1 0 0 1 -8 35)"></rect>
<text x="224px" y="347px" transform="matrix(1 0 0 1 -33 -111) translate(23 -18)" style="fill:rgb(0,0,0);font-family:Arial Black;font-weight:bold;font-size:12">SMOKE</text>
<g id="W" transform="translate(147 166) translate(3 -18) translate(11 -1) translate(0 1) translate(0 1)"><rect x="118" y="75" width="34" height="26" transform="matrix(1 0 0 1 -89 -2)" style="fill:rgb(255,255,255);stroke:rgb(0,0,0);stroke-width:2"></rect>
<text x="40px" y="93px" transform="matrix(1 0 0 1 0 0)" style="fill:rgb(0,0,0);stroke-width:1;font-family:Arial Black;font-weight:bold;font-size:12;     ">W</text>
<line x1="232" y1="232" x2="244" y2="232" transform="matrix(1 0 0 1 -161 -147)" style="fill:rgb(0,0,0);stroke:rgb(0,0,0);stroke-width:2"></line>
</g>
<g id="W1" transform="translate(128 144) translate(6 3)"><rect x="118" y="75" width="34" height="26" transform="matrix(1 0 0 1 0 0)" style="fill:rgb(255,255,255);stroke:rgb(0,0,0);stroke-width:2"></rect>
<text x="128px" y="94px" transform="matrix(1 0 0 1 0 0)" style="fill:rgb(0,0,0);stroke-width:1;font-family:Arial Black;font-weight:bold;font-size:12;     ">W1</text>
</g>
</g>
</svg>

</g>
</svg>