<?xml version="1.0"?>
<!DOCTYPE svg PUBLIC "-//W3C//DTD SVG 1.1//EN" "http://www.w3.org/Graphics/SVG/1.1/DTD/svg11.dtd" >
<!-- SVG content generated using Symbology Configuration Management System (SCMS) -->
<!-- Systematic Software Engineering Ltd. - www.systematic.co.uk - do not remove  -->
<svg id="G*MPNZ----****X" width="400px" height="400px" viewBox="0 0 400 400">
<g >
<svg viewBox="0 0 400 400" id="_0.G-M-N---------X" width="400px" height="400px"><rect x="182" y="175" width="36" height="100" transform="matrix(1 0 0 1 0 0)" style="fill:rgb(255,255,128);stroke:rgb(0,0,0);stroke-width:5"></rect>
<text x="188px" y="235px" transform="matrix(1 0 0 1 0 0) translate(0 0)" style="fill:rgb(0,0,0);stroke:rgb(0,0,0);font-size:32;font-family:Arial">N</text>
<path d="M200 175 L150 175 C150 175 150 125 200 125 C250 125 250 175 250 175 z" style="fill:rgb(255,255,128);stroke:rgb(0,0,0);stroke-width:5"></path>
</svg>

</g>
<g transform="scale(0.5 0.5) translate(200 100)" >
<svg viewBox="0 0 400 400" id="_1.G-----------PNS" width="400px" height="400px"><rect x="175" y="175" width="50" height="50" style="fill:none;stroke:rgb(0,0,0);stroke-width:5" transform="translate(0 0) translate(0 0)"></rect>
<text x="187px" y="213px" style="fill:rgb(0,0,0);stroke:rgb(0,0,0);font-size:36;font-family:Arial">N</text>
</svg>

</g>
<g transform="translate(100 -50)" >
<svg viewBox="0 0 400 400" id="_2.G-----------PHW" width="400px" height="400px"><rect x="150" y="175" width="100" height="50" transform="matrix(1 0 0 1 0 0) translate(0 0) translate(0 0) translate(0 0)" style="fill:none;stroke:rgb(0,0,0);stroke-width:5"></rect>
<text x="187px" y="213px" transform="matrix(1 0 0 1 0 0)" style="fill:rgb(0,0,0);stroke:rgb(0,0,0);font-size:36;font-family:Arial">H</text>
</svg>

</g>
<g transform="translate(0 -100)" >
<svg viewBox="0 0 400 400" id="_3.G-----------PCW" width="400px" height="400px"><rect x="150" y="175" width="100" height="50" transform="matrix(1 0 0 1 0 0) translate(0 0) translate(0 0) translate(0 0)" style="fill:none;stroke:rgb(0,0,0);stroke-width:5"></rect>
<text x="187px" y="213px" transform="matrix(1 0 0 1 0 0)" style="fill:rgb(0,0,0);stroke:rgb(0,0,0);font-size:36;font-family:Arial">C</text>
</svg>

</g>
<g transform="translate(-100 -50)" >
<svg viewBox="0 0 400 400" id="_4.G-----------PWW" width="400px" height="400px"><rect x="150" y="175" width="100" height="50" transform="matrix(1 0 0 1 0 0) translate(0 0) translate(0 0) translate(0 0)" style="fill:none;stroke:rgb(0,0,0);stroke-width:5"></rect>
<text x="184px" y="213px" transform="matrix(1 0 0 1 0 0)" style="fill:rgb(0,0,0);stroke:rgb(0,0,0);font-size:36;font-family:Arial">W</text>
</svg>

</g>
<g transform="translate(-100 0)" >
<svg viewBox="0 0 400 400" id="_5.G-----------PVW" width="400px" height="400px"><rect x="150" y="175" width="100" height="50" transform="matrix(1 0 0 1 0 0) translate(0 0) translate(0 0) translate(0 0)" style="fill:none;stroke:rgb(0,0,0);stroke-width:5"></rect>
<text x="189px" y="213px" transform="matrix(1 0 0 1 0 0)" style="fill:rgb(0,0,0);stroke:rgb(0,0,0);font-size:36;font-family:Arial">V</text>
</svg>

</g>
<g transform="translate(-100 50)" >
<svg viewBox="0 0 400 400" id="_6.G-----------PTW" width="400px" height="400px"><rect x="150" y="175" width="100" height="50" transform="matrix(1 0 0 1 0 0) translate(0 0) translate(0 0) translate(0 0)" style="fill:none;stroke:rgb(0,0,0);stroke-width:5"></rect>
<text x="189px" y="213px" transform="matrix(1 0 0 1 0 0)" style="fill:rgb(0,0,0);stroke:rgb(0,0,0);font-size:36;font-family:Arial">T</text>
</svg>

</g>
<g transform="translate(100 50)" >
<svg viewBox="0 0 400 400" id="_7.G-----------PNW" width="400px" height="400px"><rect x="150" y="175" width="100" height="50" transform="matrix(1 0 0 1 0 0) translate(0 0) translate(0 0) translate(0 0)" style="fill:none;stroke:rgb(0,0,0);stroke-width:5"></rect>
<text x="187px" y="213px" transform="matrix(1 0 0 1 0 0) translate(0 0)" style="fill:rgb(0,0,0);stroke:rgb(0,0,0);font-size:36;font-family:Arial">N</text>
</svg>

</g>
<g transform="translate(0 100)" >
<svg viewBox="0 0 400 400" id="_8.G-----------PYW" width="400px" height="400px"><rect x="150" y="175" width="100" height="50" transform="matrix(1 0 0 1 0 0) translate(0 0) translate(0 0) translate(0 0)" style="fill:none;stroke:rgb(0,0,0);stroke-width:5"></rect>
<text x="188px" y="213px" transform="matrix(1 0 0 1 0 0)" style="fill:rgb(0,0,0);stroke:rgb(0,0,0);font-size:36;font-family:Arial">Y</text>
</svg>

</g>
<g transform="translate(0 150)" >
<svg viewBox="0 0 400 400" id="_9.G-----------PQW" width="400px" height="400px"><rect x="150" y="175" width="100" height="50" transform="matrix(1 0 0 1 0 0) translate(0 0) translate(0 0) translate(0 0)" style="fill:none;stroke:rgb(0,0,0);stroke-width:5"></rect>
<text x="186px" y="213px" transform="matrix(1 0 0 1 0 0)" style="fill:rgb(0,0,0);stroke:rgb(0,0,0);font-size:36;font-family:Arial">Q</text>
</svg>

</g>
<g transform="translate(120 0)" >
<svg viewBox="0 0 400 400" id="_10.GA1-----------X" width="400px" height="400px"><text x="128px" y="207px" style="fill:rgb(0,0,0);stroke:rgb(0,0,0);font-size:24;font-family:Arial">ANCHOR PT.</text>
</svg>

</g>
<g >
<svg viewBox="0 0 400 400" id="_11.GAR9----------X" width="400px" height="400px"><line x1="243" y1="208" x2="201" y2="268" style="fill:none;stroke:rgb(0,0,0);stroke-width:3"></line>
<polygon points="200.823,268.419 203.68,257.693 209.264,261.824" style="fill:rgb(0,0,0);stroke:rgb(0,0,0);stroke-width:3"></polygon>
</svg>

</g>
</svg>