<?xml version="1.0"?>
<!DOCTYPE svg PUBLIC "-//W3C//DTD SVG 1.1//EN" "http://www.w3.org/Graphics/SVG/1.1/DTD/svg11.dtd" >
<!-- SVG content generated using Symbology Configuration Management System (SCMS) -->
<!-- Systematic Software Engineering Ltd. - www.systematic.co.uk - do not remove  -->
<svg id="OUOPF-----*****" width="400px" height="400px" viewBox="0 0 400 400">
<g >
<svg viewBox="0 0 400 400" id="_0.SUG-U----------" width="400px" height="400px"><path d="M115 285 C115 400 285 400 285 285 C400 285 400 115 285 115 C285 0 115 0 115 115 C0     115 0 285 115 285 z" style="fill:rgb(255,255,128);stroke:rgb(0,0,0);stroke-width:10"></path>
</svg>

</g>
<g >
<svg viewBox="0 0 400 400" id="_1.O-O-F----------" width="400px" height="400px"><g transform="translate(-80 0) scale(1.3 1)"><path d="M137 200 C137 170 179 170 179 200 C179 230 221 230 221 200 C221 170 263 170 263 200
				C263 210 270 210 270 210 L290 210" style="fill:none;stroke:rgb(0,0,0);stroke-width:10"></path>
</g>
<line x1="275" y1="190" x2="300" y2="213" style="fill:none;stroke:rgb(0,0,0);stroke-width:10"></line>
<line x1="275" y1="230" x2="300" y2="207" style="fill:none;stroke:rgb(0,0,0);stroke-width:10"></line>
</svg>

</g>
</svg>