<?xml version="1.0"?>
<!DOCTYPE svg PUBLIC "-//W3C//DTD SVG 1.1//EN" "http://www.w3.org/Graphics/SVG/1.1/DTD/svg11.dtd" >
<!-- SVG content generated using Symbology Configuration Management System (SCMS) -->
<!-- Systematic Software Engineering Ltd. - www.systematic.co.uk - do not remove  -->
<svg id="G*GPDAB---****X" width="400px" height="400px" viewBox="0 0 400 400">
<g >
<svg viewBox="0 0 400 400" id="_0.G-GPDAB-------X" width="400px" height="400px"><g transform="translate(-150 -80) scale(1.5 1.5)"><path d="M243 126 C308.303 115 341 102.327 348 170 C355 237.673 283.303 199 237 211 C190.697     223 124 240.673 126 170 C128 99.327 177.697 137 243 126 z" style="fill:rgb(255,255,255);stroke:rgb(0,0,0);stroke-width:2"></path>
<g id="T" transform="translate(38 -172)"><rect x="304" y="272" width="14" height="15" transform="matrix(1 0 0 1 -61 -29) translate(-58 87) translate(1 0) translate(0 1) translate(1 0) translate(0 1)" style="fill:rgb(255,255,255);stroke:rgb(0,0,0);stroke-width:2"></rect>
<text x="190px" y="344px" transform="matrix(1 0 0 1 0 0)" style="fill:rgb(0,0,0);stroke-width:1;font-family:Arial Black;font-weight:bold;font-size:12;     ">T</text>
</g>
<g id="N1" transform="translate(-52 -216)"><rect x="304" y="272" width="14" height="15" transform="matrix(1 0 0 1 -61 -29) translate(-74 135) translate(1 0)" style="fill:rgb(255,255,255);stroke:rgb(0,0,0);stroke-width:2"></rect>
<text x="172px" y="390px" transform="matrix(1 0 0 1 0 0)" style="fill:rgb(0,0,0);stroke-width:1;font-family:Arial Black;font-weight:bold;font-size:12;     ">N</text>
</g>
<g id="N2" transform="translate(47 -202)"><rect x="304" y="272" width="14" height="15" transform="matrix(1 0 0 1 -61 -29) translate(49 113) translate(0 1)" style="fill:rgb(255,255,255);stroke:rgb(0,0,0);stroke-width:2"></rect>
<text x="294px" y="369px" transform="matrix(1 0 0 1 0 0)" style="fill:rgb(0,0,0);stroke-width:1;font-family:Arial Black;font-weight:bold;font-size:12;     ">N</text>
</g>
<g id="B" transform="translate(-77 -67)"><rect x="304" y="272" width="14" height="15" transform="matrix(1 0 0 1 0 0)" style="fill:rgb(255,255,255);stroke:rgb(0,0,0);stroke-width:2"></rect>
<text x="306px" y="284px" transform="matrix(1 0 0 1 0 0)" style="fill:rgb(0,0,0);stroke-width:1;font-family:Arial Black;font-weight:bold;font-size:12;     ">B</text>
</g>
</g>
</svg>

</g>
</svg>