<?xml version="1.0"?>
<!DOCTYPE svg PUBLIC "-//W3C//DTD SVG 1.1//EN" "http://www.w3.org/Graphics/SVG/1.1/DTD/svg11.dtd" >
<!-- SVG content generated using Symbology Configuration Management System (SCMS) -->
<!-- Systematic Software Engineering Ltd. - www.systematic.co.uk - do not remove  -->
<svg id="GFGADAB---****X" width="400px" height="400px" viewBox="0 0 400 400">
<g >
<svg viewBox="0 0 400 400" id="_0.GFGADAB-------X" width="400px" height="400px"><g transform="translate(-160 -70) scale(1.5 1.5)"><g id="B"><text x="160px" y="328px" transform="matrix(1 0 0 1 0 0) translate(169.36 328) scale(1 1.69832) translate(-169.36 -328) translate(160.024 323.704) scale(1.53556 1) translate(-160.024 -323.704) translate(42.981 -65.9474)" style="fill:rgb(0,0,0);stroke-width:1;font-family:Arial Black;font-weight:bold;font-size:12;     ">XX</text>
</g>
<g id="T"><text x="278px" y="300px" transform="matrix(1 0 0 1 0 0) translate(291.866 300) scale(1 2.8622) translate(-291.866 -300) translate(278.912 295.704) scale(1.73336 1) translate(-278.912 -295.704) translate(-38.0762 -42.2752)" style="fill:rgb(0,0,0);stroke-width:1;font-family:Arial Black;font-weight:bold;font-size:12;     ">RED</text>
</g>
<path d="M127.517 153.488 C127.517 153.488 133.892 132.321 140.683 131.488" transform="matrix(1 0 0 1 0 0)" style="fill:none;stroke:rgb(0,0,0);stroke-width:2"></path>
<path d="M146.683 127.988 C158.636 124.004 170.74 126.321 183.017 126.321" transform="matrix(1 0 0 1 0 0)" style="fill:none;stroke:rgb(0,0,0);stroke-width:2"></path>
<path d="M191.983 127.321 C191.983 127.321 215.692 128.155 223.15 127.988" transform="matrix(1 0 0 1 0 0)" style="fill:none;stroke:rgb(0,0,0);stroke-width:2"></path>
<path d="M234.683 127.155 C234.683 127.155 257.933 123.28 265.683 121.988" transform="matrix(1 0 0 1 0 0)" style="fill:none;stroke:rgb(0,0,0);stroke-width:2"></path>
<path d="M275.1 120.155 C275.1 120.155 300.308 116.696 304.6 117.321" transform="matrix(1 0 0 1 0 0)" style="fill:none;stroke:rgb(0,0,0);stroke-width:2"></path>
<path d="M317.6 118.488 C330.171 122.023 338.593 130.887 340.933 140.488" transform="matrix(1 0 0 1 0 0)" style="fill:none;stroke:rgb(0,0,0);stroke-width:2"></path>
<path d="M344.6 150.321 C346.955 160.538 350.378 174.098 347.433 188.155" transform="matrix(1 0 0 1 0 0)" style="fill:none;stroke:rgb(0,0,0);stroke-width:2"></path>
<path d="M345.6 196.021 C338.617 206.917 329.58 211.355 310.933 211.021" transform="matrix(1 0 0 1 0 0)" style="fill:none;stroke:rgb(0,0,0);stroke-width:2"></path>
<path d="M300.617 211.021 C300.617 211.021 281.367 209.188 274.117 208.855" transform="matrix(1 0 0 1 0 0)" style="fill:none;stroke:rgb(0,0,0);stroke-width:2"></path>
<path d="M265.95 208.688 C265.95 208.688 256.325 208.271 253.617 208.855" transform="matrix(1 0 0 1 0 0)" style="fill:none;stroke:rgb(0,0,0);stroke-width:2"></path>
<path d="M223.717 214.355 C212.679 216.833 200.863 220.355 188.883 221.021" transform="matrix(1 0 0 1 0 0)" style="fill:none;stroke:rgb(0,0,0);stroke-width:2"></path>
<path d="M179.017 222.188 C177.574 220.134 161.916 226.861 141.517 212.688" transform="matrix(1 0 0 1 0 0)" style="fill:none;stroke:rgb(0,0,0);stroke-width:2"></path>
<path d="M133.85 205.855 C125.291 190.439 126.043 180.288 126.017 165.188" transform="matrix(1 0 0 1 0 0)" style="fill:none;stroke:rgb(0,0,0);stroke-width:2"></path>
</g>
</svg>

</g>
</svg>