<?xml version="1.0"?>
<!DOCTYPE svg PUBLIC "-//W3C//DTD SVG 1.1//EN" "http://www.w3.org/Graphics/SVG/1.1/DTD/svg11.dtd" >
<!-- SVG content generated using Symbology Configuration Management System (SCMS) -->
<!-- Systematic Software Engineering Ltd. - www.systematic.co.uk - do not remove  -->
<svg id="G*OPBT----****X" width="400px" height="400px" viewBox="0 0 400 400">
<g >
<svg viewBox="0 0 400 400" id="_0.G-OPBT--------X" width="400px" height="400px"><g transform="translate(-200 -150) scale(1.5 1.5)"><line x1="86" y1="293" x2="186" y2="234" style="fill:rgb(0,0,0);stroke:rgb(0,0,0);stroke-width:2" transform="matrix(1 0 0 1 60 1)"></line>
<line x1="216" y1="218" x2="306" y2="162" transform="matrix(1 0 0 1 60 0)" style="fill:rgb(0,0,0);stroke:rgb(0,0,0);stroke-width:2"></line>
<line x1="90" y1="296" x2="117" y2="296" transform="matrix(1 0 0 1 71 2)" style="fill:rgb(0,0,0);stroke:rgb(0,0,0);stroke-width:2"></line>
<line x1="310" y1="165" x2="310" y2="182" transform="matrix(1 0 0 1 56 17)" style="fill:rgb(0,0,0);stroke:rgb(0,0,0);stroke-width:2"></line>
<polygon points="309,158.536 313,165.464 305,165.464" transform="matrix(1 0 0 1.44338 57 -57.8269)" style="fill:rgb(0,0,0);stroke:rgb(0,0,0);stroke-width:2"></polygon>
<polygon points="309,158.536 313,165.464 305,165.464" transform="matrix(1.83691e-016 1 1.44338 -2.65136e-016 -78.1059 -11.721)" style="fill:rgb(0,0,0);stroke:rgb(0,0,0);stroke-width:2"></polygon>
<g id="PT.%201" transform="matrix(1 0 0 1 60 1)"><text x="146px" y="317px" transform="translate(-16 -16)" style="fill:rgb(0,0,0);stroke-width:1;font-family:Arial Black;font-weight:bold;font-size:12;     ">PT. 1</text>
</g>
<g id="PT.%202" transform="matrix(1 0 0 1 60 1)"><text x="300px" y="213px" transform="translate(-11 -2)" style="fill:rgb(0,0,0);stroke-width:1;font-family:Arial Black;font-weight:bold;font-size:12;     ">PT. 2</text>
</g>
<text x="256px" y="229px" transform="translate(260.314 229) scale(1 2.04749) translate(-260.314 -229) translate(256.276 224.704) scale(1.86677 1) translate(-256.276 -224.704) translate(-0.535686 2.93042) translate(-0.535686 0) translate(0 0.488404) translate(-0.535686 0) translate(-0.535686 0) translate(0 0.488404)" style="fill:rgb(0,0,0);stroke-width:1;font-size:12;font-family:Arial Black;font-weight:bold;    ">T</text>
</g>
</svg>

</g>
</svg>