<?xml version="1.0"?>
<!DOCTYPE svg PUBLIC "-//W3C//DTD SVG 1.1//EN" "http://www.w3.org/Graphics/SVG/1.1/DTD/svg11.dtd" >
<!-- SVG content generated using Symbology Configuration Management System (SCMS) -->
<!-- Systematic Software Engineering Ltd. - www.systematic.co.uk - do not remove  -->
<svg id="SUGPUUMSEJ*****" width="400px" height="400px" viewBox="0 0 400 400">
<g >
<svg viewBox="0 0 400 400" id="_0.SUG-U----------" width="400px" height="400px"><path d="M115 285 C115 400 285 400 285 285 C400 285 400 115 285 115 C285 0 115 0 115 115 C0     115 0 285 115 285 z" style="fill:rgb(255,255,128);stroke:rgb(0,0,0);stroke-width:10"></path>
</svg>

</g>
<g transform="translate(0 40)" >
<svg viewBox="0 0 400 400" id="_1.S-G-UUMSE------" width="400px" height="400px"><text x="200" y="232" style="fill:rgb(0,0,0);text-anchor:middle;font-weight:bold;font-size:90;font-family:Arial">EW</text>
</svg>

</g>
<g >
<svg viewBox="0 0 400 400" id="_2.SUG-UUMSEJ-----" width="400px" height="400px"><g style="fill:none;stroke:rgb(0,0,0);stroke-width:1;clip-rule:nonzero"><clipPath id="FrameClip"><path d="M115 285 C115 400 285 400 285 285 C400 285 400 115 285 115 C285 0 115 0 115 115 C0      115 0 285 115 285 z"></path>
</clipPath>
<g style="clip-path:url(#FrameClip)"><path d="M20 159 C20 162 53 170 53 140 C53 110 95 110 95 140 C95 170 137 170 137 140 C137      110 179 110 179 140 C179 170 221 170 221 140 C221 110 263 110 263 140 C263      170 305 170 305 140 C305 110 347 110 347 140 C347 170 380 162 380 159" style="fill:none;stroke:rgb(0,0,0);stroke-width:10" transform="translate(200 117.5) scale(1 0.644444) translate(-200 -117.5) translate(20 140) scale(0.866667 1) translate(-20 -140) translate(20 140) scale(0.900641 1) translate(-20 -140) translate(20 140) scale(0.879004 1) translate(-20 -140) translate(200 117.5) scale(1 0.896552) translate(-200 -117.5) translate(40.8097 -22.5) translate(20 140) scale(0.935223 1) translate(-20 -140) translate(15.5844 -10.3846) translate(-86.1727 -2.0362) translate(-1.83346 14.2534) translate(4.67532 -1.73077)"></path>
<path d="M20 159 C20 162 53 170 53 140 C53 110 95 110 95 140 C95 170 137 170 137 140 C137      110 179 110 179 140 C179 170 221 170 221 140 C221 110 263 110 263 140 C263      170 305 170 305 140 C305 110 347 110 347 140 C347 170 380 162 380 159" style="fill:none;stroke:rgb(0,0,0);stroke-width:10" transform="matrix(0.641667 0 0 0.577778 71.696 119.67) translate(214.026 -143.077)"></path>
<path d="M20 159 C20 162 53 170 53 140 C53 110 95 110 95 140 C95 170 137 170 137 140 C137      110 179 110 179 140 C179 170 221 170 221 140 C221 110 263 110 263 140 C263      170 305 170 305 140 C305 110 347 110 347 140 C347 170 380 162 380 159" style="fill:none;stroke:rgb(0,0,0);stroke-width:10" transform="matrix(0.641667 0 0 0.577778 -36.304 119.67) translate(42.0779 -96.9231) translate(0 6.92308)"></path>
<path d="M20 159 C20 162 53 170 53 140 C53 110 95 110 95 140 C95 170 137 170 137 140 C137      110 179 110 179 140 C179 170 221 170 221 140 C221 110 263 110 263 140 C263      170 305 170 305 140 C305 110 347 110 347 140 C347 170 380 162 380 159" style="fill:none;stroke:rgb(0,0,0);stroke-width:10" transform="matrix(0.641667 0 0 0.577778 181.029 120.003) translate(42.0779 -96.923) translate(0 6.92307)"></path>
</g>
</g>
</svg>

</g>
</svg>