<?xml version="1.0"?>
<!DOCTYPE svg PUBLIC "-//W3C//DTD SVG 1.1//EN" "http://www.w3.org/Graphics/SVG/1.1/DTD/svg11.dtd" >
<!-- SVG content generated using Symbology Configuration Management System (SCMS) -->
<!-- Systematic Software Engineering Ltd. - www.systematic.co.uk - do not remove  -->
<svg id="G*GPGAA---****X"
     width="400px"
     height="400px"
     viewBox="0 0 400 400">
  <g>
    <svg viewBox="0 0 400 400"
         id="_0.G-GPGAG-------X"
         width="400px"
         height="400px">
      <path d="M258.5 286.5 C115.865 348.404 33.5 336.5 32.5 225.5 C31.5 114.5 48.5 93.5 97.5 95.5 C146.5 97.5 202.5 127.5 233.5 124.5 C264.5 121.5 271.5 81.5 306.5 81.5 C341.5 81.5 371.502 91.278 365.5 195.5 C359.498 299.722 289.597 273.004 258.5 286.5 z"
            style="fill:none;stroke:rgb(0,0,0);stroke-width:5"></path>
    </svg>
  </g>
  <g transform="translate(85 -13)">
    <svg viewBox="0 0 400 400"
         id="_1.G-GPGAA-------X"
         width="400px"
         height="400px">
      <text x="180px"
            y="185px"
            transform="matrix(1 0 0 1 0 0)"
            style="fill:rgb(0,0,0);stroke:rgb(0,0,0);font-size:32;font-family:Arial">AA</text>
    </svg>
  </g>
  <g transform="scale(0.8 0.8) translate(155 32.5)">
    <svg viewBox="0 0 400 400"
         id="_2.G-GPGA-------AX"
         width="400px"
         height="400px">
      <text x="110px"
            y="220px"
            style="fill:rgb(0,0,0);stroke:rgb(0,0,0);font-size:40;font-family:Arial">ATLANTA</text>
    </svg>
  </g>
  <g>
    <svg viewBox="0 0 400 400"
         id="_3.G-GPGAA------XX"
         width="400px"
         height="400px">
      <rect x="85"
            y="215"
            width="75"
            height="55"
            transform="matrix(1 0 0 1 0 0)"
            style="fill:none;stroke:rgb(0,0,0);stroke-width:5"></rect>
      <rect x="100"
            y="230"
            width="45"
            height="25"
            rx="10"
            ry="12"
            transform="matrix(1 0 0 1 0 0) translate(0 0)"
            style="fill:none;stroke:rgb(0,0,0);stroke-width:5"></rect>
      <line x1="117"
            y1="215"
            x2="117"
            y2="197"
            transform="matrix(1 0 0 1 0 0)"
            style="fill:none;stroke:rgb(0,0,0);stroke-width:5"></line>
      <line x1="128"
            y1="215"
            x2="128"
            y2="197"
            transform="matrix(1 0 0 1 0 0) translate(130 208) scale(1 1) translate(-130 -208) translate(127 207.5) scale(1 1) translate(-127 -207.5)"
            style="fill:none;stroke:rgb(0,0,0);stroke-width:5"></line>
      <text x="69px"
            y="272px"
            transform="matrix(1 0 0 1 0 0) translate(0 0)"
            style="fill:rgb(0,0,0);stroke:rgb(0,0,0);font-size:16;font-family:Arial">2</text>
      <text x="167px"
            y="272px"
            transform="matrix(1 0 0 1 0 0)"
            style="fill:rgb(0,0,0);stroke:rgb(0,0,0);font-size:16;font-family:Arial">77</text>
    </svg>
  </g>
</svg>
