<?xml version="1.0"?>
<!DOCTYPE svg PUBLIC "-//W3C//DTD SVG 1.1//EN" "http://www.w3.org/Graphics/SVG/1.1/DTD/svg11.dtd" >
<!-- SVG content generated using Symbology Configuration Management System (SCMS) -->
<!-- Systematic Software Engineering Ltd. - www.systematic.co.uk - do not remove  -->
<svg id="G*GPGAF---****X" width="400px" height="400px" viewBox="0 0 400 400">
<g >
<svg viewBox="0 0 400 400" id="_0.G-G-GAF-------X" width="400px" height="400px"><path d="M185 125 L215 125 L219 100 L244 104 L239 128 L267 137 L281 116 L305 129 L290 148
			L311 166 L330 152 L347 180 L323 188 L323 212 L347 220 L330 248 L311 234 L290
			252 L305 271 L281 284 L267 263 L239 272 L244 296 L219 300 L215 275 L185 275 L181
			300 L156 296 L161 272 L133 263 L119 284 L95 271 L110 252 L89 234 L70 248
			L53 220 L77 212 L77 188 L53 180 L70 152 L89 166 L110 148 L95 129 L119 116 L133
			137 L161 128 L156 104 L181 100 z" style="fill:none;stroke:rgb(0,0,0);stroke-width:5"></path>
<rect x="50" y="185" width="50" height="30" transform="matrix(1 0 0 1 0 0)" style="fill:rgb(255,255,255);stroke:rgb(255,255,255);stroke-width:1"></rect>
<rect x="300" y="185" width="50" height="30" transform="matrix(1 0 0 1 0 0)" style="fill:rgb(255,255,255);stroke:rgb(255,255,255);stroke-width:1"></rect>
</svg>

</g>
<g transform="translate(135 0)" >
<svg viewBox="0 0 400 400" id="_1.GENY-----------" width="400px" height="400px"><text x="174px" y="209px" transform="matrix(1 0 0 1 0 0)" style="fill:rgb(0,0,0);stroke:rgb(0,0,0);font-size:24;font-family:Arial">ENY</text>
</svg>

</g>
<g transform="translate(-135 0)" >
<svg viewBox="0 0 400 400" id="_2.GENY-----------" width="400px" height="400px"><text x="174px" y="209px" transform="matrix(1 0 0 1 0 0)" style="fill:rgb(0,0,0);stroke:rgb(0,0,0);font-size:24;font-family:Arial">ENY</text>
</svg>

</g>
<g >
<svg viewBox="0 0 400 400" id="_3.SHGPEWGM-------" width="400px" height="400px"><g transform="scale(0.3 0.3) translate(467 467)"><g><svg id="_0.SHG-E----------" viewBox="0 0 400 400" width="400px" height="400px"><polyline points="200,373 373,200 200,27 27,200 200,373" style="stroke-linecap:square;fill:rgb(255,128,128);stroke:rgb(0,0,0);stroke-width:10"></polyline>
</svg>
</g>
<g transform="translate(158 91) scale(6.5 6)"><svg id="_1.S-G-EWGM-------" viewBox="0 0 400 400" width="400px" height="400px"><path d="M0 7.75 L1.75 7.75 L1.75 21 L0 21 zM12.178 33.297 L10.801 34.75 L6.77 30.623 L2.592
				34.75 L1.233 33.457 L6.704 27.877 zM6 13.375 L6 11.344 L1.75 11.344 L1.75
				13.375 zM6 17.68 L6 15.625 L1.75 15.625 L1.75 17.68 zM7.625 0 L7.625 28.75
				L5.75 28.75 L5.75 0 C6.305 -0.047 6.93 -0.047 7.625 0 zM11.5 13.375 L11.5 11.271
				L7.625 11.341 L7.625 13.374 L11.5 13.374 zM11.5 17.682 L11.5 15.625 L7.625
				15.625 L7.625 17.752 zM11.5 7.75 L13.375 7.75 L13.375 21 L11.5 21 z"></path>
</svg>
</g>
</g>
</svg>

</g>
</svg>