<?xml version="1.0"?>
<!DOCTYPE svg PUBLIC "-//W3C//DTD SVG 1.1//EN" "http://www.w3.org/Graphics/SVG/1.1/DTD/svg11.dtd" >
<!-- SVG content generated using Symbology Configuration Management System (SCMS) -->
<!-- Systematic Software Engineering Ltd. - www.systematic.co.uk - do not remove  -->
<svg id="G*MPOT----****X" width="400px" height="400px" viewBox="0 0 400 400">
<g >
<svg viewBox="0 0 400 400" id="_0.G-MPOT--------X" width="400px" height="400px"><g transform="translate(-330 -220) scale(2 2)"><line x1="216" y1="165" x2="216" y2="273" style="fill:rgb(0,0,0);stroke:rgb(0,0,0);stroke-width:2" transform="matrix(1 0 0 1 4 -14)"></line>
<line x1="184" y1="190" x2="250" y2="190" style="fill:rgb(0,0,0);stroke:rgb(0,0,0);stroke-width:2" transform="matrix(1 0 0 1 4 -14)"></line>
<path d="M215.993 272.821 C215.993 297.89 231.247 311.355 255.7 313.8" style="fill:none;stroke:rgb(0,0,0);stroke-width:2" transform="matrix(1 0 0 1 4 -14)"></path>
<g id="PT.%201" transform="translate(166 -216)"><text x="114px" y="345px" transform="matrix(1 0 0 1 0 0)" style="fill:rgb(0,0,0);stroke-width:1;font-family:Arial Black;font-weight:bold;font-size:12;      ">PT. 1</text>
</g>
<g id="PT.%202" transform="translate(89 -170)"><text x="190px" y="413px" transform="matrix(1 0 0 1 0 0)" style="fill:rgb(0,0,0);stroke-width:1;font-family:Arial Black;font-weight:bold;font-size:12;      ">PT. 2</text>
</g>
<g id="PT.%203" transform="translate(10 -247)"><text x="302px" y="403px" transform="matrix(1 0 0 1 0 0)" style="fill:rgb(0,0,0);stroke-width:1;font-family:Arial Black;font-weight:bold;font-size:12;      ">PT. 3</text>
</g>
<line x1="258" y1="120" x2="300" y2="103" transform="matrix(1 0 0 1 0 0) translate(-23 26)" style="fill:rgb(0,0,0);stroke:rgb(0,0,0);stroke-width:2"></line>
<polygon points="94,43.8038 100,54.1962 88,54.1962" transform="matrix(-0.410519 -0.911852 1.40389 -0.632036 225.037 237.761) translate(-14.2662 -20.5547)" style="fill:rgb(0,0,0);stroke:rgb(0,0,0);stroke-width:2"></polygon>
<line x1="258" y1="120" x2="300" y2="103" transform="matrix(1 0 0 1 -22 137) translate(37 36) translate(-38 -33)" style="fill:rgb(0,0,0);stroke:rgb(0,0,0);stroke-width:2"></line>
<polygon points="94,43.8038 100,54.1962 88,54.1962" transform="matrix(-0.410519 -0.911852 1.40389 -0.632036 203.037 374.761) translate(-48.0159 12.3148) translate(45.6908 -13.7069)" style="fill:rgb(0,0,0);stroke:rgb(0,0,0);stroke-width:2"></polygon>
<line x1="258" y1="120" x2="300" y2="103" transform="matrix(1 0 0 1 -22 137) translate(33 -86)" style="fill:rgb(0,0,0);stroke:rgb(0,0,0);stroke-width:2"></line>
<polygon points="94,43.8038 100,54.1962 88,54.1962" transform="matrix(-0.410519 -0.911852 1.40389 -0.632036 203.037 374.761) translate(64.8722 42.4757)" style="fill:rgb(0,0,0);stroke:rgb(0,0,0);stroke-width:2"></polygon>
</g>
</svg>

</g>
</svg>