<?xml version="1.0"?>
<!DOCTYPE svg PUBLIC "-//W3C//DTD SVG 1.1//EN" "http://www.w3.org/Graphics/SVG/1.1/DTD/svg11.dtd" >
<!-- SVG content generated using Symbology Configuration Management System (SCMS) -->
<!-- Systematic Software Engineering Ltd. - www.systematic.co.uk - do not remove  -->
<svg id="G*GPSLA---****X" width="400px" height="400px" viewBox="0 0 400 400">
<g >
<svg viewBox="0 0 400 400" id="_0.G-GPSLA-------X" width="400px" height="400px"><g transform="translate(-320 -250) scale(2 2)"><path d="M239.75 128 C271.086 155.002 272.68 248.07 241.75 274.5" style="fill:none;stroke:rgb(0,0,0);stroke-width:2" transform="matrix(1 0 0 1 -39 21)"></path>
<line x1="264" y1="200" x2="373" y2="200" style="fill:rgb(0,0,0);stroke:rgb(0,0,0);stroke-width:2" transform="matrix(1 0 0 1 -39 21)"></line>
<line x1="372.192" y1="199.861" x2="349" y2="186" style="fill:rgb(0,0,0);stroke:rgb(0,0,0);stroke-width:2" transform="matrix(1 0 0 1 -39 21)"></line>
<line x1="372.192" y1="199.861" x2="347.081" y2="213.639" style="fill:rgb(0,0,0);stroke:rgb(0,0,0);stroke-width:2" transform="matrix(1 0 0 1 -39 21)"></line>
<line x1="208" y1="143" x2="251.125" y2="142.972" style="fill:rgb(0,0,0);stroke:rgb(0,0,0);stroke-width:2" transform="matrix(1 0 0 1 -39 21)"></line>
<line x1="217" y1="166" x2="259" y2="166" style="fill:rgb(0,0,0);stroke:rgb(0,0,0);stroke-width:2" transform="matrix(1 0 0 1 -39 21)"></line>
<line x1="221" y1="188" x2="262.903" y2="187.95" style="fill:rgb(0,0,0);stroke:rgb(0,0,0);stroke-width:2" transform="matrix(1 0 0 1 -39 21)"></line>
<line x1="221" y1="212" x2="264" y2="212" style="fill:rgb(0,0,0);stroke:rgb(0,0,0);stroke-width:2" transform="matrix(1 0 0 1 -39 21)"></line>
<line x1="218" y1="232" x2="260" y2="232" transform="matrix(1 0 0 1 -39 25.5)" style="fill:rgb(0,0,0);stroke:rgb(0,0,0);stroke-width:2"></line>
<line x1="212" y1="252" x2="256" y2="252" transform="matrix(1 0 0 1 -41 26.5)" style="fill:rgb(0,0,0);stroke:rgb(0,0,0);stroke-width:2"></line>
<g id="PT.%201" transform="translate(247 202)"><text x="70px" y="63px" transform="matrix(1 0 0 1 0 0)" style="fill:rgb(0,0,0);stroke-width:1;font-family:Arial Black;font-weight:bold;font-size:12;      ">PT. 1</text>
</g>
<g id="PT.%202" transform="translate(87 111)"><text x="158px" y="39px" transform="matrix(1 0 0 1 0 0)" style="fill:rgb(0,0,0);stroke-width:1;font-family:Arial Black;font-weight:bold;font-size:12;      ">PT. 2</text>
</g>
<g id="PT.%203" transform="translate(13 235)"><text x="242px" y="68px" transform="matrix(1 0 0 1 0 0)" style="fill:rgb(0,0,0);stroke-width:1;font-family:Arial Black;font-weight:bold;font-size:12;      ">PT. 3</text>
</g>
<line x1="210" y1="147" x2="242" y2="147" transform="matrix(1 0 0 1 0 0)" style="fill:rgb(0,0,0);stroke:rgb(0,0,0);stroke-width:2"></line>
<line x1="214" y1="298" x2="252" y2="298" transform="matrix(1 0 0 1 0 0)" style="fill:rgb(0,0,0);stroke:rgb(0,0,0);stroke-width:2"></line>
<line x1="334" y1="231" x2="334" y2="253" transform="matrix(1 0 0 1 0 0)" style="fill:rgb(0,0,0);stroke:rgb(0,0,0);stroke-width:2"></line>
<polygon points="193,87.4378 200,99.5622 186,99.5622" transform="matrix(-1.83691e-016 -1 1.07222 -1.96957e-016 93.2834 285.964) translate(-53 13.9896)" style="fill:rgb(0,0,0);stroke:rgb(0,0,0);stroke-width:2"></polygon>
<polygon points="193,87.4378 200,99.5622 186,99.5622" transform="matrix(-1.83691e-016 -1 1.07222 -1.96957e-016 150.284 443.964) translate(-47 -35.4405)" style="fill:rgb(0,0,0);stroke:rgb(0,0,0);stroke-width:2"></polygon>
<polygon points="193,87.4378 200,99.5622 186,99.5622" transform="matrix(1 0 0 1.07222 57 151.247) translate(82 -15.855) translate(1 0) translate(1 0)" style="fill:rgb(0,0,0);stroke:rgb(0,0,0);stroke-width:2"></polygon>
</g>
</svg>

</g>
</svg>