<?xml version="1.0"?>
<!DOCTYPE svg PUBLIC "-//W3C//DTD SVG 1.1//EN" "http://www.w3.org/Graphics/SVG/1.1/DTD/svg11.dtd" >
<!-- SVG content generated using Symbology Configuration Management System (SCMS) -->
<!-- Systematic Software Engineering Ltd. - www.systematic.co.uk - do not remove  -->
<svg id="G*GPOLAR--****X" width="400px" height="400px" viewBox="0 0 400 400">
<g >
<svg viewBox="0 0 400 400" id="_0.G-GPOLAR------X" width="400px" height="400px"><g transform="translate(-50 -30)"><line x1="110.022" y1="260.733" x2="334" y2="197" style="fill:rgb(0,0,0);stroke:rgb(0,0,0);stroke-width:2"></line>
<line x1="104.689" y1="188.4" x2="334" y2="256" style="fill:rgb(0,0,0);stroke:rgb(0,0,0);stroke-width:2"></line>
<line x1="333.017" y1="197.226" x2="332.35" y2="168.393" style="fill:rgb(0,0,0);stroke:rgb(0,0,0);stroke-width:2"></line>
<line x1="249.867" y1="255.811" x2="250" y2="233.426" transform="matrix(1 0 0 1 83 22)" style="fill:rgb(0,0,0);stroke:rgb(0,0,0);stroke-width:2"></line>
<line x1="333.333" y1="277.093" x2="407.15" y2="225.193" style="fill:rgb(0,0,0);stroke:rgb(0,0,0);stroke-width:2"></line>
<line x1="406.817" y1="225.693" x2="332.683" y2="169.059" style="fill:rgb(0,0,0);stroke:rgb(0,0,0);stroke-width:2"></line>
<line x1="186" y1="212" x2="186" y2="239" style="fill:rgb(0,0,0);stroke:rgb(0,0,0);stroke-width:2"></line>
<line x1="275" y1="214" x2="275" y2="238" style="fill:rgb(0,0,0);stroke:rgb(0,0,0);stroke-width:2"></line>
<line x1="231" y1="189" x2="231" y2="254" style="fill:rgb(0,0,0);stroke:rgb(0,0,0);stroke-width:2"></line>
<line x1="230.946" y1="189.626" x2="225" y2="201" style="fill:rgb(0,0,0);stroke:rgb(0,0,0);stroke-width:2"></line>
<line x1="231.146" y1="189.726" x2="237" y2="201" style="fill:rgb(0,0,0);stroke:rgb(0,0,0);stroke-width:2"></line>
<line x1="218.666" y1="254.017" x2="242" y2="254" style="fill:rgb(0,0,0);stroke:rgb(0,0,0);stroke-width:2"></line>
<g id="PT.%201" transform="translate(296 215)"><text x="52px" y="82px" transform="matrix(1 0 0 1 0 0) translate(0 0)" style="fill:rgb(0,0,0);stroke-width:1;font-family:Arial Black;font-weight:bold;font-size:12;      ">PT. 1</text>
</g>
<g id="PT.%202" transform="translate(-60 223)"><text x="158px" y="75px" transform="matrix(1 0 0 1 0 0)" style="fill:rgb(0,0,0);stroke-width:1;font-family:Arial Black;font-weight:bold;font-size:12;      ">PT. 2</text>
</g>
<g id="PT.%203" transform="translate(23 77)"><text x="248px" y="46px" transform="matrix(1 0 0 1 0 0)" style="fill:rgb(0,0,0);stroke-width:1;font-family:Arial Black;font-weight:bold;font-size:12;      ">PT.3</text>
</g>
<line x1="98" y1="231" x2="82" y2="255" transform="matrix(1 0 0 1 0 0)" style="fill:rgb(0,0,0);stroke:rgb(0,0,0);stroke-width:2"></line>
<line x1="81.8988" y1="254.183" x2="100" y2="285" transform="matrix(1 0 0 1 0 0)" style="fill:rgb(0,0,0);stroke:rgb(0,0,0);stroke-width:2"></line>
<line x1="408" y1="239" x2="408" y2="276" transform="matrix(1 0 0 1 0 0)" style="fill:rgb(0,0,0);stroke:rgb(0,0,0);stroke-width:2"></line>
<line x1="408.489" y1="275.123" x2="384" y2="292" transform="matrix(1 0 0 1 0 0)" style="fill:rgb(0,0,0);stroke:rgb(0,0,0);stroke-width:2"></line>
<line x1="331.949" y1="160.143" x2="331.449" y2="130.243" transform="matrix(1 0 0 1 0 0)" style="fill:rgb(0,0,0);stroke:rgb(0,0,0);stroke-width:2"></line>
<line x1="332" y1="131" x2="304" y2="120" transform="matrix(1 0 0 1 0 0)" style="fill:rgb(0,0,0);stroke:rgb(0,0,0);stroke-width:2"></line>
<polygon points="69,118.902 72,124.098 66,124.098" transform="matrix(0.796042 0.605242 -1.98014 2.60437 281.879 -124.867)" style="fill:rgb(0,0,0);stroke:rgb(0,0,0);stroke-width:2"></polygon>
<polygon points="69,118.902 72,124.098 66,124.098" transform="matrix(1 0 0 -3.27165 181 646.733) translate(80 29.0373) translate(0 0.305656) translate(0 0.305656) translate(1 0) translate(1 0) translate(0 0)" style="fill:rgb(0,0,0);stroke:rgb(0,0,0);stroke-width:2"></polygon>
<polygon points="69,118.902 72,124.098 66,124.098" transform="matrix(1 0 0 3.27165 339 -154.006)" style="fill:rgb(0,0,0);stroke:rgb(0,0,0);stroke-width:2"></polygon>
</g>
</svg>

</g>
</svg>