<?xml version="1.0"?>
<!DOCTYPE svg PUBLIC "-//W3C//DTD SVG 1.1//EN" "http://www.w3.org/Graphics/SVG/1.1/DTD/svg11.dtd" >
<!-- SVG content generated using Symbology Configuration Management System (SCMS) -->
<!-- Systematic Software Engineering Ltd. - www.systematic.co.uk - do not remove  -->
<svg id="G*MPNM----****X"
     width="400px"
     height="400px"
     viewBox="0 0 400 400">
  <g>
    <svg viewBox="0 0 400 400"
         id="_0.G-MPNM--------X"
         width="400px"
         height="400px">
      <circle cx="200"
              cy="200"
              r="150"
              transform="matrix(1 0 0 1 0 0)"
              style="fill:none;stroke:rgb(0,0,0);stroke-width:5"></circle>
      <circle cx="200"
              cy="200"
              r="100"
              transform="matrix(1 0 0 1 0 0)"
              style="fill:none;stroke:rgb(0,0,0);stroke-width:5"></circle>
      <circle cx="200"
              cy="200"
              r="50"
              transform="matrix(1 0 0 1 0 0)"
              style="fill:none;stroke:rgb(0,0,0);stroke-width:5"></circle>
      <rect x="235"
            y="170"
            width="25"
            height="25"
            style="fill:rgb(255,255,255);stroke:rgb(255,255,255);stroke-width:1"></rect>
      <text x="238px"
            y="190px"
            transform="matrix(1 0 0 1 0 0)"
            style="fill:rgb(0,0,0);stroke:rgb(0,0,0);font-size:24;font-family:Arial">1</text>
      <rect x="285"
            y="160"
            width="25"
            height="25"
            style="fill:rgb(255,255,255);stroke:rgb(255,255,255);stroke-width:1"></rect>
      <text x="288px"
            y="180px"
            transform="matrix(1 0 0 1 0 0)"
            style="fill:rgb(0,0,0);stroke:rgb(0,0,0);font-size:24;font-family:Arial">2</text>
      <rect x="335"
            y="150"
            width="25"
            height="25"
            style="fill:rgb(255,255,255);stroke:rgb(255,255,255);stroke-width:1"></rect>
      <text x="338px"
            y="170px"
            transform="matrix(1 0 0 1 0 0) translate(0 0)"
            style="fill:rgb(0,0,0);stroke:rgb(0,0,0);font-size:24;font-family:Arial">3</text>
    </svg>
  </g>
</svg>
