<?xml version="1.0"?>
<!DOCTYPE svg PUBLIC "-//W3C//DTD SVG 1.1//EN" "http://www.w3.org/Graphics/SVG/1.1/DTD/svg11.dtd" >
<!-- SVG content generated using Symbology Configuration Management System (SCMS) -->
<!-- Systematic Software Engineering Ltd. - www.systematic.co.uk - do not remove  -->
<svg id="SNGPUUP---*****" width="400px" height="400px" viewBox="0 0 400 400">
<g >
<svg viewBox="0 0 400 400" id="_0.SNG-U----------" width="400px" height="400px"><rect x="68" y="68" width="264" height="264" style="fill:rgb(170,255,170);stroke:rgb(0,0,0);stroke-width:10"></rect>
</svg>

</g>
<g >
<svg viewBox="0 0 400 400" id="_1.S-G-UUP--------" width="400px" height="400px"><text x="198" y="160" style="fill:rgb(0,0,0);text-anchor:middle;font-weight:bold;font-size:65;font-family:Arial;    " transform="translate(0 0)">LS</text>
</svg>

</g>
<g >
<svg viewBox="0 0 400 400" id="_2.SNG-UCATW------" width="400px" height="400px"><path d="M68 179 C68 178 95 173 95 200 C95 230 137 230 137 200 C137 170 179 170 179 200 C179     230 221 230 221 200 C221 170 263 170 263 200 C263 230 305 229.556 305 200     C305 173 332 178 332 179" style="fill:none;stroke:rgb(0,0,0);stroke-width:10"></path>
</svg>

</g>
</svg>