<?xml version="1.0"?>
<!DOCTYPE svg PUBLIC "-//W3C//DTD SVG 1.1//EN" "http://www.w3.org/Graphics/SVG/1.1/DTD/svg11.dtd" >
<!-- SVG content generated using Symbology Configuration Management System (SCMS) -->
<!-- Systematic Software Engineering Ltd. - www.systematic.co.uk - do not remove  -->
<svg id="G*TPAS----****X" width="400px" height="400px" viewBox="0 0 400 400">
<g >
<svg viewBox="0 0 400 400" id="_0.G-TPAS--------X" width="400px" height="400px"><g transform="translate(-50 -40)"><line x1="111.16" y1="231.177" x2="196.493" y2="231.177" style="fill:rgb(0,0,0);stroke:rgb(0,0,0);stroke-width:2" transform="matrix(1 0 0 1 1 -47)"></line>
<line x1="111.503" y1="278.105" x2="196.77" y2="278.063" style="fill:rgb(0,0,0);stroke:rgb(0,0,0);stroke-width:2" transform="matrix(1 0 0 1 1 -47)"></line>
<line x1="162.992" y1="212.952" x2="181.437" y2="190.952" transform="matrix(1 0 0 1 34.1111 18.3333)" style="fill:rgb(0,0,0);stroke:rgb(0,0,0);stroke-width:2"></line>
<line x1="181.437" y1="190.952" x2="162.271" y2="166.066" transform="matrix(1 0 0 1 34.5556 18.1111)" style="fill:rgb(0,0,0);stroke:rgb(0,0,0);stroke-width:2"></line>
<line x1="112" y1="278" x2="139.715" y2="254.398" style="fill:rgb(0,0,0);stroke:rgb(0,0,0);stroke-width:2" transform="matrix(1 0 0 1 1 -47)"></line>
<line x1="139.965" y1="255.648" x2="111.156" y2="231.178" style="fill:rgb(0,0,0);stroke:rgb(0,0,0);stroke-width:2" transform="matrix(1 0 0 1 1 -47)"></line>
<polygon points="386.5,169.148 410,209.852 363,209.852" transform="matrix(3.06152e-016 1 -1.49865 4.58815e-016 662.084 -177.507)" style="fill:rgb(0,0,0);stroke:rgb(0,0,0);stroke-width:1"></polygon>
<line x1="215" y1="209" x2="347" y2="209" style="fill:rgb(0,0,0);stroke:rgb(0,0,0);stroke-width:2"></line>
<g id="T" transform="translate(96 118)"><rect x="62" y="82" width="18" height="16" transform="matrix(1 0 0 1 0 0) translate(0 -1)" style="fill:rgb(255,255,255);stroke:rgb(0,0,0);stroke-width:2"></rect>
<text x="66px" y="94px" transform="matrix(1 0 0 1 0 0)" style="fill:rgb(0,0,0);stroke-width:1;font-family:Arial Black;font-weight:bold;font-size:12;      ">T</text>
</g>
<g id="PT.%202" transform="translate(-58 185)"><text x="160px" y="99px" transform="matrix(1 0 0 1 0 0)" style="fill:rgb(0,0,0);stroke-width:1;font-family:Arial Black;font-weight:bold;font-size:12;      ">PT. 2</text>
</g>
<g id="PT.%201" transform="translate(109 137)"><text x="234px" y="136px" transform="matrix(1 0 0 1 0 0)" style="fill:rgb(0,0,0);stroke-width:1;font-family:Arial Black;font-weight:bold;font-size:12;      ">PT. 1</text>
</g>
<line x1="79.0375" y1="251.271" x2="116" y2="309" transform="matrix(1 0 0 1 0 0) translate(0 -38)" style="fill:rgb(0,0,0);stroke:rgb(0,0,0);stroke-width:2"></line>
<line x1="78.2875" y1="251.021" x2="106" y2="251" transform="matrix(1 0 0 1 0 0) translate(0 -38)" style="fill:rgb(0,0,0);stroke:rgb(0,0,0);stroke-width:2"></line>
<line x1="410" y1="221" x2="410" y2="253" transform="matrix(1 0 0 1 0 0)" style="fill:rgb(0,0,0);stroke:rgb(0,0,0);stroke-width:2"></line>
<line x1="410.525" y1="252.271" x2="380" y2="269" transform="matrix(1 0 0 1 0 0)" style="fill:rgb(0,0,0);stroke:rgb(0,0,0);stroke-width:2"></line>
<polygon points="42,136.304 48,146.696 36,146.696" transform="matrix(6.12303e-017 1 -1.44338 8.83784e-017 245.516 98.7783) translate(109 -49.8831) translate(-38 0)" style="fill:rgb(0,0,0);stroke:rgb(0,0,0);stroke-width:2"></polygon>
<polygon points="42,136.304 48,146.696 36,146.696" transform="matrix(1 0 0 1.44338 208 47.2623) translate(160 -22.1702)" style="fill:rgb(0,0,0);stroke:rgb(0,0,0);stroke-width:2"></polygon>
</g>
</svg>

</g>
</svg>