<?xml version="1.0"?>
<!DOCTYPE svg PUBLIC "-//W3C//DTD SVG 1.1//EN" "http://www.w3.org/Graphics/SVG/1.1/DTD/svg11.dtd" >
<!-- SVG content generated using Symbology Configuration Management System (SCMS) -->
<!-- Systematic Software Engineering Ltd. - www.systematic.co.uk - do not remove  -->
<svg id="WA--ICS--------" width="400px" height="400px" viewBox="0 0 400 400">
<g >
<svg viewBox="0 0 400 400" id="_0.WA--ICS--------" width="400px" height="400px"><g transform="translate(25 80) scale(7 7)" style="fill:rgb(128,98,16)"><path d="M25.271 5.125 C18.744 5.125 13.222 7.391 8.71 11.922 C4.198 16.453 1.943 21.98 1.943
				28.5 L0 28.5 C0 21.387 2.436 15.381 7.307 10.479 C12.178 5.577 18.166 3.125
				25.272 3.125 C32.327 3.125 38.303 5.576 43.2 10.479 C48.095 15.381 50.544
				21.387 50.544 28.5 L48.6 28.5 C48.6 21.98 46.342 16.453 41.83 11.922 C37.318
				7.391 31.799 5.125 25.271 5.125 zM20.375 0 L20.375 33 L18.625 33 L18.625
				0 zM26.125 0 L26.125 33 L24.375 33 L24.375 0 zM31.875 0 L31.875 33 L30.125 33
				L30.125 0 z"></path>
</g>
</svg>

</g>
</svg>