<?xml version="1.0"?>
<!DOCTYPE svg PUBLIC "-//W3C//DTD SVG 1.1//EN" "http://www.w3.org/Graphics/SVG/1.1/DTD/svg11.dtd" >
<!-- SVG content generated using Symbology Configuration Management System (SCMS) -->
<!-- Systematic Software Engineering Ltd. - www.systematic.co.uk - do not remove  -->
<svg id="G*MPOB----****X" width="400px" height="400px" viewBox="0 0 400 400">
<g >
<svg viewBox="0 0 400 400" id="_0.G-MPOB--------X" width="400px" height="400px"><line x1="216" y1="253" x2="244.718" y2="192.941" style="fill:rgb(0,0,0);stroke:rgb(0,0,0);stroke-width:2" transform="matrix(2 0 0 2 -200 -290)"></line>
<line x1="244.625" y1="192.129" x2="275" y2="253" style="fill:rgb(0,0,0);stroke:rgb(0,0,0);stroke-width:2" transform="matrix(2 0 0 2 -200 -290)"></line>
<ellipse cx="256" cy="281" rx="48" ry="33" transform="matrix(1.60417 0 0 1.63636 -117.667 -211.818)" style="fill:rgb(255,255,255);stroke:rgb(0,0,0);stroke-width:2"></ellipse>
<line x1="162" y1="226" x2="232" y2="263" transform="matrix(2 0 0 2 -200 -290)" style="fill:rgb(0,0,0);stroke:rgb(0,0,0);stroke-width:2"></line>
<polygon points="71,71.4378 78,83.5622 64,83.5622" transform="matrix(-0.981644 1.74252 -3.01814 -1.70026 564.104 242.672)" style="fill:rgb(0,0,0);stroke:rgb(0,0,0);stroke-width:2"></polygon>
<g id="CENTER%20POINT" transform="matrix(2 0 0 2 -160 -58)"><text x="88px" y="106px" transform="matrix(1 0 0 1 0 0)" style="fill:rgb(0,0,0);stroke-width:1;font-family:Arial Black;font-weight:bold;font-size:12;
			">CENTER</text>
<text x="102px" y="135px" transform="matrix(1 0 0 1 0 0) translate(-8 -18)" style="fill:rgb(0,0,0);stroke-width:1;font-family:Arial Black;font-weight:bold;font-size:12;
			">POINT</text>
</g>
</svg>

</g>
</svg>