<?xml version="1.0"?>
<!DOCTYPE svg PUBLIC "-//W3C//DTD SVG 1.1//EN" "http://www.w3.org/Graphics/SVG/1.1/DTD/svg11.dtd" >
<!-- SVG content generated using Symbology Configuration Management System (SCMS) -->
<!-- Systematic Software Engineering Ltd. - www.systematic.co.uk - do not remove  -->
<svg id="SUGPEWMAL-*****" width="400px" height="400px" viewBox="0 0 400 400">
<g >
<svg viewBox="0 0 400 400" id="_0.SUG-E----------" width="400px" height="400px"><path d="M115 285 C115 400 285 400 285 285 C400 285 400 115 285 115 C285 0 115 0 115 115 C0     115 0 285 115 285 z" style="fill:rgb(255,255,128);stroke:rgb(0,0,0);stroke-width:10"></path>
</svg>

</g>
<g >
<svg viewBox="0 0 400 400" id="_1.S-G-EWMA-------" width="400px" height="400px"><path d="M175 280 L175 118 C180 93 220 93 225 118 L225 280" style="stroke:rgb(0,0,0);stroke-width:10;fill:none"></path>
<line x1="200" y1="100" x2="200" y2="270" style="stroke:rgb(0,0,0);stroke-width:10;fill:none"></line>
<path d="M162 295 C165 265 235 265 238 295 z" style="stroke:rgb(0,0,0);stroke-width:10;fill:none"></path>
</svg>

</g>
<g >
<svg viewBox="0 0 400 400" id="_2.S-G-EWMAL------" width="400px" height="400px"><line x1="175" y1="160" x2="225" y2="160" style="stroke:rgb(0,0,0);stroke-width:10;fill:none"></line>
<line x1="175" y1="180" x2="225" y2="180" style="stroke:rgb(0,0,0);stroke-width:10;fill:none"></line>
<line x1="175" y1="200" x2="225" y2="200" style="stroke:rgb(0,0,0);stroke-width:10;fill:none"></line>
</svg>

</g>
</svg>