<?xml version="1.0"?>
<!DOCTYPE svg PUBLIC "-//W3C//DTD SVG 1.1//EN" "http://www.w3.org/Graphics/SVG/1.1/DTD/svg11.dtd" >
<!-- SVG content generated using Symbology Configuration Management System (SCMS) -->
<!-- Systematic Software Engineering Ltd. - www.systematic.co.uk - do not remove  -->
<svg id="SUGPEWRL--*****" width="400px" height="400px" viewBox="0 0 400 400">
<g >
<svg viewBox="0 0 400 400" id="_0.SUG-E----------" width="400px" height="400px"><path d="M115 285 C115 400 285 400 285 285 C400 285 400 115 285 115 C285 0 115 0 115 115 C0     115 0 285 115 285 z" style="fill:rgb(255,255,128);stroke:rgb(0,0,0);stroke-width:10"></path>
</svg>

</g>
<g transform="translate(167 91) scale(6 5.5)" >
<svg viewBox="0 0 400 400" id="_1.S-G-EWRL-------" width="400px" height="400px"><path d="M11.027 5.572 L9.328 7.055 L6.26 3.795 L6.26 39.75 L4.385 39.75 L4.385 3.988 L1.365
			7.025 L0 5.654 L5.482 0 zM4.385 19.5 L4.385 17.451 L0.299 17.451 L0.299 19.5
			zM4.385 24.004 L4.385 22 L0.299 22 L0.299 24.004 zM10.379 19.5 L10.379 17.523
			L6.26 17.523 L6.26 19.5 zM10.523 24.004 L10.523 22 L6.26 22 L6.26 24.076 z"></path>
</svg>

</g>
</svg>