<?xml version="1.0"?>
<!DOCTYPE svg PUBLIC "-//W3C//DTD SVG 1.1//EN" "http://www.w3.org/Graphics/SVG/1.1/DTD/svg11.dtd" >
<!-- SVG content generated using Symbology Configuration Management System (SCMS) -->
<!-- Systematic Software Engineering Ltd. - www.systematic.co.uk - do not remove  -->
<svg id="G*SPLRT---****X" width="400px" height="400px" viewBox="0 0 400 400">
<g transform="scale(0.6 0.6) translate(205 30)" >
<svg viewBox="0 0 400 400" id="_0.G-----------PTS" width="400px" height="400px"><rect x="175" y="175" width="50" height="50" style="fill:none;stroke:rgb(0,0,0);stroke-width:5" transform="translate(0 0) translate(0 0)"></rect>
<text x="189px" y="213px" style="fill:rgb(0,0,0);stroke:rgb(0,0,0);font-size:36;font-family:Arial">T</text>
</svg>

</g>
<g transform="scale(1 1.25) translate(-16 -72)" >
<svg viewBox="0 0 400 400" id="_1.GAR17---------X" width="400px" height="400px"><polyline points="390,230 390,275 370,295" style="fill:none;stroke:rgb(0,0,0);stroke-width:3"></polyline>
<polygon points="386,240 390,227 394,240" style="fill:rgb(0,0,0);stroke:rgb(0,0,0);stroke-width:3"></polygon>
</svg>

</g>
<g transform="translate(6 -9)" >
<svg viewBox="0 0 400 400" id="_2.GAR16---------X" width="400px" height="400px"><polyline points="10,215 10,260 30,280" style="fill:none;stroke:rgb(0,0,0);stroke-width:3"></polyline>
<polygon points="6,225 10,212 14,225" style="fill:rgb(0,0,0);stroke:rgb(0,0,0);stroke-width:3"></polygon>
</svg>

</g>
<g transform="scale(0.75 0.75) translate(237.333 168)" >
<svg viewBox="0 0 400 400" id="_3.G-O2----------X" width="400px" height="400px"><text x="320px" y="140px" transform="matrix(1 0 0 1 -148.968 68.628)" style="fill:rgb(0,0,0);font-size:24;font-family:Arial">PT. 2</text>
</svg>

</g>
<g transform="scale(0.75 0.75) translate(-121.333 160)" >
<svg viewBox="0 0 400 400" id="_4.G-O1----------X" width="400px" height="400px"><text x="200px" y="200px" transform="matrix(1 0 0 1 -27.396 8.628)" style="fill:rgb(0,0,0);font-size:24;font-family:Arial">PT. 1</text>
</svg>

</g>
<g transform="translate(-25 -60)" >
<svg viewBox="0 0 400 400" id="_5.MSR------------" width="400px" height="400px"><text x="189px" y="184px" transform="matrix(1 0 0 1 -30.184 28.888)" style="fill:rgb(0,0,0);font-size:36;font-family:Arial;font-weight:bold">MSR</text>
</svg>

</g>
<g >
<svg viewBox="0 0 400 400" id="_6.G-SPLRT-------X" width="400px" height="400px"><g transform="translate(0 -40) scale(0.8 0.8)"><path d="M109.5 174 C141.362 180.372 146.381 179.301 179.5 172 C196.424 168.269 235.202 163.871
				253.5 163 C285.336 161.484 301.609 172.189 333.5 169" style="fill:none;stroke:rgb(0,0,0);stroke-width:2" transform="matrix(2 0 0 2 -200 -50)"></path>
</g>
<text x="190px" y="162px" transform="matrix(1 0 0 1 -5.384 0) translate(0 8)" style="fill:rgb(0,0,0);font-size:16;font-family:Arial;font-weight:bold">ALT</text>
<line x1="145" y1="165" x2="175" y2="165" transform="matrix(1 0 0 1 0 0)" style="stroke:rgb(0,0,0);stroke-width:3"></line>
<line x1="225" y1="165" x2="255" y2="165" transform="matrix(1 0 0 1 0 0)" style="stroke:rgb(0,0,0);stroke-width:3"></line>
<polyline points="153,160 143,165 153,170" transform="matrix(1 0 0 1 0 0)" style="fill:none;stroke:rgb(0,0,0);stroke-width:2"></polyline>
<polyline points="248,159 258,164 248,169" transform="matrix(1 0 0 1 0 0)" style="fill:none;stroke:rgb(0,0,0);stroke-width:2"></polyline>
</svg>

</g>
</svg>