<?xml version="1.0"?>
<!DOCTYPE svg PUBLIC "-//W3C//DTD SVG 1.1//EN" "http://www.w3.org/Graphics/SVG/1.1/DTD/svg11.dtd" >
<!-- SVG content generated using Symbology Configuration Management System (SCMS) -->
<!-- Systematic Software Engineering Ltd. - www.systematic.co.uk - do not remove  -->
<svg id="G*FPLN----****X" width="400px" height="400px" viewBox="0 0 400 400">
<g >
<svg viewBox="0 0 400 400" id="_0.G-FPLN--------X" width="400px" height="400px"><g transform="translate(-120 -130) scale(1.25 1.25)"><line x1="148" y1="186" x2="308" y2="186" style="fill:rgb(0,0,0);stroke:rgb(0,0,0);stroke-width:2" transform="matrix(1 0 0 1 28 41)"></line>
<text x="186px" y="334px" transform="matrix(1 0 0 1 -57 -104) translate(11 -1) translate(6 2)" style="fill:rgb(0,0,0);font-family:Arial Black;font-weight:bold;font-size:12">NFL</text>
<text x="228px" y="258px" transform="matrix(1 0 0 1 113 -27)" style="fill:rgb(0,0,0);font-family:Arial Black;font-weight:bold;font-size:12">NFL</text>
<text x="78px" y="267px" transform="matrix(1 0 0 1 0 0) translate(42 -19)" style="fill:rgb(0,0,0);stroke-width:1;font-family:Arial Black;font-weight:bold;font-size:12;    ">(PL</text>
<g id="T1" transform="translate(-27 -28) translate(42 -19)"><rect x="130" y="283" width="18" height="17" transform="matrix(1 0 0 1 0 0)" style="fill:rgb(255,255,255);stroke:rgb(0,0,0);stroke-width:2"></rect>
<text x="134px" y="296px" transform="matrix(1 0 0 1 0 0)" style="fill:rgb(0,0,0);stroke-width:1;font-family:Arial Black;font-weight:bold;font-size:12;     ">T</text>
</g>
<text x="168px" y="269px" transform="matrix(1 0 0 1 0 0) translate(-43 -3) translate(42 -19)" style="fill:rgb(0,0,0);stroke-width:1;font-family:Arial Black;font-weight:bold;font-size:12;    ">)</text>
<text x="294px" y="306px" transform="matrix(1 0 0 1 0 0) translate(46 -61)" style="fill:rgb(0,0,0);stroke-width:1;font-family:Arial Black;font-weight:bold;font-size:12;    ">(PL</text>
<g id="T2" transform="translate(28 -62) translate(46 -61)"><rect x="290" y="355" width="16" height="19" transform="matrix(1 0 0 1 0 0)" style="fill:rgb(255,255,255);stroke:rgb(0,0,0);stroke-width:2"></rect>
<text x="294px" y="369px" transform="matrix(1 0 0 1 0 0)" style="fill:rgb(0,0,0);stroke-width:1;font-family:Arial Black;font-weight:bold;font-size:12;     ">T</text>
</g>
<text x="320px" y="352px" transform="matrix(1 0 0 1 0 0) translate(19 -46) translate(46 -61)" style="fill:rgb(0,0,0);stroke-width:1;font-family:Arial Black;font-weight:bold;font-size:12;    ">)</text>
<g id="PT.%201" transform="translate(44 -102)"><text x="156px" y="388px" transform="matrix(1 0 0 1 0 0)" style="fill:rgb(0,0,0);stroke-width:1;font-family:Arial Black;font-weight:bold;font-size:12;     ">PT. 1</text>
</g>
<g id="PT.%202" transform="translate(77 -125)"><text x="206px" y="412px" transform="matrix(1 0 0 1 0 0)" style="fill:rgb(0,0,0);stroke-width:1;font-family:Arial Black;font-weight:bold;font-size:12;     ">PT. 2</text>
</g>
<line x1="178" y1="240" x2="178" y2="265" transform="matrix(1 0 0 1 0 0)" style="fill:rgb(0,0,0);stroke:rgb(0,0,0);stroke-width:2"></line>
<line x1="177.954" y1="264.448" x2="198" y2="280" transform="matrix(1 0 0 1 0 0)" style="fill:rgb(0,0,0);stroke:rgb(0,0,0);stroke-width:2"></line>
<line x1="334" y1="238" x2="334" y2="261" transform="matrix(1 0 0 1 0 0)" style="fill:rgb(0,0,0);stroke:rgb(0,0,0);stroke-width:2"></line>
<line x1="334.37" y1="260.448" x2="320" y2="278" transform="matrix(1 0 0 1 0 0)" style="fill:rgb(0,0,0);stroke:rgb(0,0,0);stroke-width:2"></line>
<polygon points="68,81.0359 72,87.9641 64,87.9641" transform="matrix(1 0 0 2.45374 0 -122.841) translate(109 63.984) translate(1 0) translate(1 0) translate(-1 0)" style="fill:rgb(0,0,0);stroke:rgb(0,0,0);stroke-width:2"></polygon>
<polygon points="68,81.0359 72,87.9641 64,87.9641" transform="matrix(1 0 0 2.45374 183 44.159) translate(84 -3.26033) translate(-1 0) translate(-1 0)" style="fill:rgb(0,0,0);stroke:rgb(0,0,0);stroke-width:2"></polygon>
</g>
</svg>

</g>
</svg>