<?xml version="1.0"?>
<!DOCTYPE svg PUBLIC "-//W3C//DTD SVG 1.1//EN" "http://www.w3.org/Graphics/SVG/1.1/DTD/svg11.dtd" >
<!-- SVG content generated using Symbology Configuration Management System (SCMS) -->
<!-- Systematic Software Engineering Ltd. - www.systematic.co.uk - do not remove  -->
<svg id="G*TPN-----****X" width="400px" height="400px" viewBox="0 0 400 400">
<g >
<svg viewBox="0 0 400 400" id="_0.G-TPN---------X" width="400px" height="400px"><g transform="translate(-230 -210) scale(1.75 1.75)"><line x1="104.322" y1="280.81" x2="125.656" y2="267.31" style="fill:rgb(0,0,0);stroke:rgb(0,0,0);stroke-width:2" transform="matrix(1 0 0 1 39 6)"></line>
<line x1="132.938" y1="262.787" x2="151.656" y2="251.143" style="fill:rgb(0,0,0);stroke:rgb(0,0,0);stroke-width:2" transform="matrix(1 0 0 1 39 6)"></line>
<line x1="157.756" y1="247.377" x2="181.422" y2="232.543" style="fill:rgb(0,0,0);stroke:rgb(0,0,0);stroke-width:2" transform="matrix(1 0 0 1 39 6)"></line>
<line x1="192.821" y1="226.003" x2="216.154" y2="211.336" style="fill:rgb(0,0,0);stroke:rgb(0,0,0);stroke-width:2" transform="matrix(1 0 0 1 34.9184 8.04082)"></line>
<line x1="220.889" y1="208.01" x2="238.389" y2="196.843" style="fill:rgb(0,0,0);stroke:rgb(0,0,0);stroke-width:2" transform="matrix(1 0 0 1 39 6)"></line>
<line x1="245.722" y1="192.343" x2="259.656" y2="183.543" style="fill:rgb(0,0,0);stroke:rgb(0,0,0);stroke-width:2" transform="matrix(1 0 0 1 39 6)"></line>
<line x1="266.322" y1="179.543" x2="284.322" y2="168.377" style="fill:rgb(0,0,0);stroke:rgb(0,0,0);stroke-width:2" transform="matrix(1 0 0 1 39 6)"></line>
<line x1="291.689" y1="163.91" x2="303.856" y2="156.077" style="fill:rgb(0,0,0);stroke:rgb(0,0,0);stroke-width:2" transform="matrix(1 0 0 1 39 6)"></line>
<line x1="100" y1="153" x2="310" y2="285" style="fill:rgb(0,0,0);stroke:rgb(0,0,0);stroke-width:2" transform="matrix(1 0 0 1 39 6)"></line>
<line x1="222" y1="284" x2="240" y2="236" transform="matrix(1 0 0 1 0 0) rotate(3.79154 231 260)" style="fill:rgb(0,0,0);stroke:rgb(0,0,0);stroke-width:2"></line>
<polygon points="49,68.1699 54,76.8301 44,76.8301" transform="matrix(0.901243 0.433314 -0.550383 1.14473 236.693 133.187)" style="fill:rgb(0,0,0);stroke:rgb(0,0,0);stroke-width:2"></polygon>
<g id="CENTER%20POINT" transform="translate(63 -94)"><text x="126px" y="392px" transform="matrix(1 0 0 1 0 0)" style="fill:rgb(0,0,0);stroke-width:1;font-family:Arial Black;font-weight:bold;font-size:12;      ">CENTER</text>
<text x="236px" y="444px" transform="matrix(1 0 0 1 0 0) translate(-103 -39)" style="fill:rgb(0,0,0);stroke-width:1;font-family:Arial Black;font-weight:bold;font-size:12;      ">POINT</text>
</g>
</g>
</svg>

</g>
</svg>