<?xml version="1.0"?>
<!DOCTYPE svg PUBLIC "-//W3C//DTD SVG 1.1//EN" "http://www.w3.org/Graphics/SVG/1.1/DTD/svg11.dtd" >
<!-- SVG content generated using Symbology Configuration Management System (SCMS) -->
<!-- Systematic Software Engineering Ltd. - www.systematic.co.uk - do not remove  -->
<svg id="SUGPUCDT--*****" width="400px" height="400px" viewBox="0 0 400 400">
<g >
<svg viewBox="0 0 400 400" id="_0.SUG-U----------" width="400px" height="400px"><path d="M115 285 C115 400 285 400 285 285 C400 285 400 115 285 115 C285 0 115 0 115 115 C0     115 0 285 115 285 z" style="fill:rgb(255,255,128);stroke:rgb(0,0,0);stroke-width:10"></path>
</svg>

</g>
<g >
<svg viewBox="0 0 400 400" id="_1.S-G-UCDT-------" width="400px" height="400px"><path d="M140 115 C140 170 170 190 220 185" style="fill:none;stroke:rgb(0,0,0);stroke-width:10"></path>
<ellipse rx="18" ry="18" style="fill:rgb(0,0,0);stroke:none" cx="133" cy="181"></ellipse>
<polyline points="145,150 200,110 200,150 255,110" style="fill:none;stroke:rgb(0,0,0);stroke-width:10"></polyline>
</svg>

</g>
<g >
<svg viewBox="0 0 400 400" id="_2.SUG-UCD--------" width="400px" height="400px"><path d="M59 266 C100 180 300 180 341 266" style="fill:rgb(255,255,128);stroke:rgb(0,0,0);stroke-width:10"></path>
</svg>

</g>
</svg>