<?xml version="1.0"?>
<!DOCTYPE svg PUBLIC "-//W3C//DTD SVG 1.1//EN" "http://www.w3.org/Graphics/SVG/1.1/DTD/svg11.dtd" >
<!-- SVG content generated using Symbology Configuration Management System (SCMS) -->
<!-- Systematic Software Engineering Ltd. - www.systematic.co.uk - do not remove  -->
<svg id="G*MPOFD---****X" width="400px" height="400px" viewBox="0 0 400 400">
<g >
<svg viewBox="0 0 400 400" id="_0.G-MPOFD-------X" width="400px" height="400px"><g transform="translate(-55 -50)"><path d="M283 239 C364.185 239 429 143.276 428 292 C427 440.724 357.185 358 276 358 C194.815      358 128 454.724 134 292 C140 129.276 201.815 239 283 239 z" transform="matrix(1 0 0 1 -25 -48)" style="fill:rgb(255,255,255);stroke:rgb(0,0,0);stroke-width:2"></path>
<g id="H" transform="translate(172 93)"><rect x="210" y="94" width="24" height="20" transform="matrix(1 0 0 1 28 146) translate(-164 -164)" style="fill:rgb(255,255,255);stroke:rgb(0,0,0);stroke-width:2"></rect>
<text x="82px" y="91px" transform="matrix(1 0 0 1 0 0)" style="fill:rgb(0,0,0);stroke-width:1;font-family:Arial Black;font-weight:bold;font-size:12;      ">H</text>
</g>
<g id="N1" transform="translate(51 96)"><rect x="210" y="94" width="24" height="20" transform="matrix(1 0 0 1 28 146) translate(-193 -104) translate(0 1) translate(1 0) translate(1 0)" style="fill:rgb(255,255,255);stroke:rgb(0,0,0);stroke-width:2"></rect>
<text x="54px" y="152px" transform="matrix(1 0 0 1 0 0)" style="fill:rgb(0,0,0);stroke-width:1;font-family:Arial Black;font-weight:bold;font-size:12;      ">N</text>
</g>
<g id="N2" transform="translate(222 170)"><rect x="210" y="94" width="24" height="20" transform="matrix(1 0 0 1 28 146) translate(-72 -180)" style="fill:rgb(255,255,255);stroke:rgb(0,0,0);stroke-width:2"></rect>
<text x="174px" y="75px" transform="matrix(1 0 0 1 0 0)" style="fill:rgb(0,0,0);stroke-width:1;font-family:Arial Black;font-weight:bold;font-size:12;      ">N</text>
</g>
<g id="W" transform="translate(33 217)"><rect x="210" y="94" width="24" height="20" transform="matrix(1 0 0 1 0 0)" style="fill:rgb(255,255,255);stroke:rgb(0,0,0);stroke-width:2"></rect>
<text x="216px" y="109px" transform="matrix(1 0 0 1 0 0)" style="fill:rgb(0,0,0);stroke-width:1;font-family:Arial Black;font-weight:bold;font-size:12;      ">W</text>
</g>
</g>
</svg>

</g>
</svg>