<?xml version="1.0"?>
<!DOCTYPE svg PUBLIC "-//W3C//DTD SVG 1.1//EN" "http://www.w3.org/Graphics/SVG/1.1/DTD/svg11.dtd" >
<!-- SVG content generated using Symbology Configuration Management System (SCMS) -->
<!-- Systematic Software Engineering Ltd. - www.systematic.co.uk - do not remove  -->
<svg id="G*MPOFD---****X" width="400px" height="400px" viewBox="0 0 400 400">
<g >
<svg viewBox="0 0 400 400" id="_0.G-MPOFD-------X" width="400px" height="400px"><g transform="translate(-120 -115) scale(1.25 1.25)"><path d="M283 239 C364.185 239 429 143.276 428 292 C427 440.724 357.185 358 276 358 C194.815      358 128 454.724 134 292 C140 129.276 201.815 239 283 239 z" transform="matrix(1 0 0 1 -25 -48)" style="fill:rgb(255,255,255);stroke:rgb(0,0,0);stroke-width:2"></path>
<circle cx="157" cy="68.5" r="17" transform="translate(22 180) translate(-1 0) translate(-1 0) translate(-1 0) translate(-1 0) translate(-1 0) translate(0 -1)" style="fill:rgb(255,255,255);stroke:rgb(0,0,0);stroke-width:2"></circle>
<circle cx="250" cy="250.5" r="17" transform="translate(0 -1) translate(0 -1) translate(0 -1)" style="fill:rgb(255,255,255);stroke:rgb(0,0,0);stroke-width:2"></circle>
<circle cx="251" cy="250.5" r="17" transform="translate(65 1) translate(0 -1) translate(0 -1) translate(1 0) translate(1 0) translate(1 0) translate(1 0) translate(1 0) translate(1 0) translate(0 -1) translate(0 -1)" style="fill:rgb(255,255,255);stroke:rgb(0,0,0);stroke-width:2"></circle>
</g>
</svg>

</g>
</svg>