<?xml version="1.0"?>
<!DOCTYPE svg PUBLIC "-//W3C//DTD SVG 1.1//EN" "http://www.w3.org/Graphics/SVG/1.1/DTD/svg11.dtd" >
<!-- SVG content generated using Symbology Configuration Management System (SCMS) -->
<!-- Systematic Software Engineering Ltd. - www.systematic.co.uk - do not remove  -->
<svg id="G*GPOLAA--****X" width="400px" height="400px" viewBox="0 0 400 400">
<g >
<svg viewBox="0 0 400 400" id="_0.G-GPOLAA------X" width="400px" height="400px"><g transform="translate(-40 -20)"><line x1="110.022" y1="260.733" x2="334" y2="197" style="fill:rgb(0,0,0);stroke:rgb(0,0,0);stroke-width:2"></line>
<line x1="104.689" y1="188.4" x2="334" y2="256" style="fill:rgb(0,0,0);stroke:rgb(0,0,0);stroke-width:2"></line>
<line x1="333.017" y1="197.226" x2="332.35" y2="168.393" style="fill:rgb(0,0,0);stroke:rgb(0,0,0);stroke-width:2"></line>
<line x1="249.867" y1="255.811" x2="250" y2="233.426" transform="matrix(1 0 0 1 83 22)" style="fill:rgb(0,0,0);stroke:rgb(0,0,0);stroke-width:2"></line>
<line x1="333.333" y1="277.093" x2="407.15" y2="225.193" style="fill:rgb(0,0,0);stroke:rgb(0,0,0);stroke-width:2"></line>
<line x1="406.817" y1="225.693" x2="332.683" y2="169.059" style="fill:rgb(0,0,0);stroke:rgb(0,0,0);stroke-width:2"></line>
<rect x="76" y="64" width="16" height="17" transform="matrix(1.25 0 0 0.941176 12 154.765)" style="fill:rgb(255,255,255);stroke:rgb(0,0,0);stroke-width:2"></rect>
<text x="80px" y="77px" transform="matrix(1 0 0 1 32 150)" style="fill:rgb(0,0,0);stroke-width:1;font-family:Arial Black;font-weight:bold;font-size:12;     ">A</text>
<line x1="90" y1="238" x2="76" y2="256" transform="matrix(1 0 0 1 0 0)" style="fill:rgb(0,0,0);stroke:rgb(0,0,0);stroke-width:2"></line>
<line x1="75.344" y1="255.497" x2="104" y2="283" transform="matrix(1 0 0 1 0 0)" style="fill:rgb(0,0,0);stroke:rgb(0,0,0);stroke-width:2"></line>
<line x1="408" y1="236" x2="408" y2="277" transform="matrix(1 0 0 1 0 0)" style="fill:rgb(0,0,0);stroke:rgb(0,0,0);stroke-width:2"></line>
<line x1="408.266" y1="276.163" x2="372" y2="298" transform="matrix(1 0 0 1 0 0)" style="fill:rgb(0,0,0);stroke:rgb(0,0,0);stroke-width:2"></line>
<line x1="331.877" y1="159.763" x2="332" y2="120" transform="matrix(1 0 0 1 0 0)" style="fill:rgb(0,0,0);stroke:rgb(0,0,0);stroke-width:2"></line>
<line x1="332.766" y1="120.03" x2="294" y2="117" transform="matrix(1 0 0 1 0 0)" style="fill:rgb(0,0,0);stroke:rgb(0,0,0);stroke-width:2"></line>
<polygon points="84,77.8038 90,88.1962 78,88.1962" transform="matrix(0.778607 0.627512 -0.845353 1.0489 95.8909 97.4821)" style="fill:rgb(0,0,0);stroke:rgb(0,0,0);stroke-width:2"></polygon>
<polygon points="84,77.8038 90,88.1962 78,88.1962" transform="matrix(1 0 0 -1.34715 166 360.466) translate(82 70.5192)" style="fill:rgb(0,0,0);stroke:rgb(0,0,0);stroke-width:2"></polygon>
<polygon points="84,77.8038 90,88.1962 78,88.1962" transform="matrix(1 0 0 1.34715 322 126.186) translate(1 0)" style="fill:rgb(0,0,0);stroke:rgb(0,0,0);stroke-width:2"></polygon>
<g id="PT.%201" transform="translate(159 270)"><text x="174px" y="33px" transform="matrix(1 0 0 1 0 0)" style="fill:rgb(0,0,0);stroke-width:1;font-family:Arial Black;font-weight:bold;font-size:12;      ">PT. 1</text>
</g>
<g id="PT.%202" transform="translate(-137 212)"><text x="248px" y="73px" transform="matrix(1 0 0 1 0 0)" style="fill:rgb(0,0,0);stroke-width:1;font-family:Arial Black;font-weight:bold;font-size:12;      ">PT. 2</text>
</g>
<g id="PT.%203" transform="translate(-84 50)"><text x="342px" y="71px" transform="matrix(1 0 0 1 0 0)" style="fill:rgb(0,0,0);stroke-width:1;font-family:Arial Black;font-weight:bold;font-size:12;      ">PT. 3</text>
</g>
</g>
</svg>

</g>
</svg>