<?xml version="1.0"?>
<!DOCTYPE svg PUBLIC "-//W3C//DTD SVG 1.1//EN" "http://www.w3.org/Graphics/SVG/1.1/DTD/svg11.dtd" >
<!-- SVG content generated using Symbology Configuration Management System (SCMS) -->
<!-- Systematic Software Engineering Ltd. - www.systematic.co.uk - do not remove  -->
<svg id="G*GPOLAA--****X" width="400px" height="400px" viewBox="0 0 400 400">
<g >
<svg viewBox="0 0 400 400" id="_0.G-GPOLAA------X" width="400px" height="400px"><g transform="translate(-50 -40)"><line x1="110.022" y1="260.733" x2="334" y2="197" style="fill:rgb(0,0,0);stroke:rgb(0,0,0);stroke-width:2"></line>
<line x1="104.689" y1="188.4" x2="334" y2="256" style="fill:rgb(0,0,0);stroke:rgb(0,0,0);stroke-width:2"></line>
<line x1="333.017" y1="197.226" x2="332.35" y2="168.393" style="fill:rgb(0,0,0);stroke:rgb(0,0,0);stroke-width:2"></line>
<line x1="249.867" y1="255.811" x2="250" y2="233.426" transform="matrix(1 0 0 1 83 22)" style="fill:rgb(0,0,0);stroke:rgb(0,0,0);stroke-width:2"></line>
<line x1="333.333" y1="277.093" x2="407.15" y2="225.193" style="fill:rgb(0,0,0);stroke:rgb(0,0,0);stroke-width:2"></line>
<line x1="406.817" y1="225.693" x2="332.683" y2="169.059" style="fill:rgb(0,0,0);stroke:rgb(0,0,0);stroke-width:2"></line>
<g id="A" transform="translate(133 51) scale(1 0.862745) translate(-133 -51) translate(94 76.5) scale(0.871795 1) translate(-94 -76.5) translate(94 76.5) scale(0.941176 1) translate(-94 -76.5) translate(133 102) scale(1 0.886364) translate(-133 -102) translate(-19.5 194.846) translate(172 76.5) scale(0.6875 1) translate(-172 -76.5) translate(133 102) scale(1 0.794872) translate(-133 -102) translate(1.77273 -6.58065)"><rect x="94" y="51" width="78" height="51" style="fill:rgb(255,255,255);stroke:rgb(0,0,0);stroke-width:2"></rect>
<line x1="94.346" y1="101.625" x2="171.775" y2="51.054" style="fill:rgb(0,0,0);stroke:rgb(0,0,0);stroke-width:2"></line>
<line x1="94.0603" y1="51.3397" x2="171.489" y2="101.625" style="fill:rgb(0,0,0);stroke:rgb(0,0,0);stroke-width:2"></line>
<g transform="matrix(0.896341 0 0 0.824137 37.1604 -13.1412)"><path d="M85.9583 135.667 C85.7333 122.917 106.708 123.047 106.208 135.167" style="fill:none;stroke:rgb(0,0,0);stroke-width:2"></path>
<path d="M117.958 172.667 C117.733 159.917 138.708 161.297 138.208 173.417" transform="translate(-12 -38) translate(0.75 0)" style="fill:none;stroke:rgb(0,0,0);stroke-width:2"></path>
</g>
</g>
</g>
</svg>

</g>
</svg>