<?xml version="1.0"?>
<!DOCTYPE svg PUBLIC "-//W3C//DTD SVG 1.1//EN" "http://www.w3.org/Graphics/SVG/1.1/DTD/svg11.dtd" >
<!-- SVG content generated using Symbology Configuration Management System (SCMS) -->
<!-- Systematic Software Engineering Ltd. - www.systematic.co.uk - do not remove  -->
<svg id="G*SPPAS---****X" width="400px" height="400px" viewBox="0 0 400 400">
<g >
<svg viewBox="0 0 400 400" id="_0.GP------------X" width="400px" height="400px"><rect x="130" y="100" width="140" height="180" style="fill:none;stroke:rgb(0,0,0);stroke-width:5"></rect>
<polyline points="130,281 200,375 270,281" transform="matrix(1 0 0 1 0 0)" style="fill:none;stroke:rgb(0,0,0);stroke-width:5"></polyline>
</svg>

</g>
<g >
<svg viewBox="0 0 400 400" id="_1.G-S-PAS-------X" width="400px" height="400px"><text x="142px" y="160px" style="fill:rgb(0,0,0);stroke:rgb(0,0,0);font-size:60;font-family:Arial">ASP</text>
</svg>

</g>
<g transform="translate(0 -125)" >
<svg viewBox="0 0 400 400" id="_2.G-----------PH-" width="400px" height="400px"><rect x="160" y="175" width="80" height="50" transform="matrix(1 0 0 1 0 0) translate(0 0) translate(0 0)" style="fill:none;stroke:rgb(0,0,0);stroke-width:5"></rect>
<text x="187px" y="213px" transform="matrix(1 0 0 1 0 0)" style="fill:rgb(0,0,0);stroke:rgb(0,0,0);font-size:36;font-family:Arial">H</text>
</svg>

</g>
<g transform="translate(-110 -75)" >
<svg viewBox="0 0 400 400" id="_3.G-----------PW-" width="400px" height="400px"><rect x="160" y="175" width="80" height="50" transform="matrix(1 0 0 1 0 0) translate(0 0) translate(0 0)" style="fill:none;stroke:rgb(0,0,0);stroke-width:5"></rect>
<text x="183px" y="213px" transform="matrix(1 0 0 1 0 0)" style="fill:rgb(0,0,0);stroke:rgb(0,0,0);font-size:36;font-family:Arial">W</text>
</svg>

</g>
<g transform="translate(-110 -25)" >
<svg viewBox="0 0 400 400" id="_4.G-----------PW1" width="400px" height="400px"><rect x="160" y="175" width="80" height="50" transform="matrix(1 0 0 1 0 0) translate(0 0) translate(0 0)" style="fill:none;stroke:rgb(0,0,0);stroke-width:5"></rect>
<text x="176px" y="213px" transform="matrix(1 0 0 1 0 0)" style="fill:rgb(0,0,0);stroke:rgb(0,0,0);font-size:36;font-family:Arial">W1</text>
</svg>

</g>
<g transform="translate(110 -75)" >
<svg viewBox="0 0 400 400" id="_5.G-----------PT-" width="400px" height="400px"><rect x="160" y="175" width="80" height="50" style="fill:none;stroke:rgb(0,0,0);stroke-width:5" transform="translate(0 0)"></rect>
<text x="189px" y="213px" style="fill:rgb(0,0,0);stroke:rgb(0,0,0);font-size:36;font-family:Arial">T</text>
</svg>

</g>
<g transform="translate(140 140)" >
<svg viewBox="0 0 400 400" id="_6.GA------------X" width="400px" height="400px"><text x="148px" y="195px" style="fill:rgb(0,0,0);stroke:rgb(0,0,0);font-size:24;font-family:Arial">ANCHOR</text>
<text x="160px" y="220px" style="fill:rgb(0,0,0);stroke:rgb(0,0,0);font-size:24;font-family:Arial">POINT</text>
</svg>

</g>
<g >
<svg viewBox="0 0 400 400" id="_7.GAR4----------X" width="400px" height="400px"><polyline points="292,343 263,378 215,378" style="fill:none;stroke:rgb(0,0,0);stroke-width:3"></polyline>
<polygon points="210,378 224,370 224,386" style="fill:rgb(0,0,0);stroke:rgb(0,0,0);stroke-width:3"></polygon>
</svg>

</g>
</svg>