<?xml version="1.0"?>
<!DOCTYPE svg PUBLIC "-//W3C//DTD SVG 1.1//EN" "http://www.w3.org/Graphics/SVG/1.1/DTD/svg11.dtd" >
<!-- SVG content generated using Symbology Configuration Management System (SCMS) -->
<!-- Systematic Software Engineering Ltd. - www.systematic.co.uk - do not remove  -->
<svg id="G*MPSL----****X" width="400px" height="400px" viewBox="0 0 400 400">
<g >
<svg viewBox="0 0 400 400" id="_0.G-MPSL--------X" width="400px" height="400px"><g transform="translate(-60 -50) scale(1 1)"><polyline points="76.6504,261.3 87.2171,261.3 87.1504,234.567 114.417,234.567 114.417,261.3 125.05,261.267" transform="matrix(1 0 0 1 18 -25)" style="stroke:rgb(0,0,0);stroke-width:2;fill:rgb(255,255,255)"></polyline>
<polyline points="76.6504,261.3 87.2171,261.3 87.1504,234.567 114.417,234.567 114.417,261.3 125.05,261.267" transform="matrix(1 0 0 1 305.333 -25)" style="stroke:rgb(0,0,0);stroke-width:2;fill:rgb(255,255,255)"></polyline>
<polyline points="76.6504,261.3 87.2171,261.3 87.1504,234.567 114.417,234.567 114.417,261.3 125.05,261.267" transform="matrix(1 0 0 1 257 -25)" style="stroke:rgb(0,0,0);stroke-width:2;fill:rgb(255,255,255)"></polyline>
<polyline points="76.6504,261.3 87.2171,261.3 87.1504,234.567 114.417,234.567 114.417,261.3 125.05,261.267" transform="matrix(1 0 0 1 210 -25)" style="stroke:rgb(0,0,0);stroke-width:2;fill:rgb(255,255,255)"></polyline>
<polyline points="76.6504,261.3 87.2171,261.3 87.1504,234.567 114.417,234.567 114.417,261.3 125.05,261.267" transform="matrix(1 0 0 1 162 -25)" style="stroke:rgb(0,0,0);stroke-width:2;fill:rgb(255,255,255)"></polyline>
<polyline points="76.6504,261.3 87.2171,261.3 87.1504,234.567 114.417,234.567 114.417,261.3 125.05,261.267" transform="matrix(1 0 0 1 114 -25)" style="stroke:rgb(0,0,0);stroke-width:2;fill:rgb(255,255,255)"></polyline>
<polyline points="76.6504,261.3 87.2171,261.3 87.1504,234.567 114.417,234.567 114.417,261.3 125.05,261.267" transform="matrix(1 0 0 1 66 -25)" style="stroke:rgb(0,0,0);stroke-width:2;fill:rgb(255,255,255)"></polyline>
<g id="PT.%201" transform="translate(45 199)"><text x="66px" y="89px" transform="matrix(1 0 0 1 0 0)" style="fill:rgb(0,0,0);stroke-width:1;font-family:Arial Black;font-weight:bold;font-size:12;      ">PT. 1</text>
</g>
<g id="PT.%202" transform="translate(218 195)"><text x="162px" y="95px" transform="matrix(1 0 0 1 0 0)" style="fill:rgb(0,0,0);stroke-width:1;font-family:Arial Black;font-weight:bold;font-size:12;      ">PT. 2</text>
</g>
<line x1="92" y1="248" x2="92" y2="271" transform="matrix(1 0 0 1 0 0)" style="fill:rgb(0,0,0);stroke:rgb(0,0,0);stroke-width:2"></line>
<line x1="91.6667" y1="270.333" x2="108" y2="284" transform="matrix(1 0 0 1 0 0)" style="fill:rgb(0,0,0);stroke:rgb(0,0,0);stroke-width:2"></line>
<line x1="430" y1="247" x2="430" y2="267" transform="matrix(1 0 0 1 0 0)" style="fill:rgb(0,0,0);stroke:rgb(0,0,0);stroke-width:2"></line>
<line x1="430.078" y1="266.333" x2="418" y2="284" transform="matrix(1 0 0 1 0 0)" style="fill:rgb(0,0,0);stroke:rgb(0,0,0);stroke-width:2"></line>
<polygon points="13,87.6699 18,96.3301 8,96.3301" transform="matrix(1 0 0 1.61658 0 -56.7254) translate(78 96.5) translate(1 0)" style="fill:rgb(0,0,0);stroke:rgb(0,0,0);stroke-width:2"></polygon>
<polygon points="13,87.6699 18,96.3301 8,96.3301" transform="matrix(1 0 0 1.61658 237 102.275) translate(178 -2.47436) translate(1 0) translate(1 0)" style="fill:rgb(0,0,0);stroke:rgb(0,0,0);stroke-width:2"></polygon>
</g>
</svg>

</g>
</svg>