<?xml version="1.0"?>
<!DOCTYPE svg PUBLIC "-//W3C//DTD SVG 1.1//EN" "http://www.w3.org/Graphics/SVG/1.1/DTD/svg11.dtd" >
<!-- SVG content generated using Symbology Configuration Management System (SCMS) -->
<!-- Systematic Software Engineering Ltd. - www.systematic.co.uk - do not remove  -->
<svg id="G*MPOWU---****X" width="400px" height="400px" viewBox="0 0 400 400">
<g >
<svg viewBox="0 0 400 400" id="_0.G-MPOWU-------X" width="400px" height="400px"><line x1="140" y1="248" x2="140" y2="272" transform="matrix(1.5 0 0 1.5 -190 -170)" style="fill:rgb(0,0,0);stroke:rgb(0,0,0);stroke-width:2"></line>
<line x1="139.967" y1="271.267" x2="164" y2="286" transform="matrix(1.5 0 0 1.5 -190 -170)" style="fill:rgb(0,0,0);stroke:rgb(0,0,0);stroke-width:2"></line>
<line x1="380" y1="248" x2="380" y2="265" transform="matrix(1.5 0 0 1.5 -190 -170)" style="fill:rgb(0,0,0);stroke:rgb(0,0,0);stroke-width:2"></line>
<line x1="379.989" y1="264.156" x2="364" y2="283" transform="matrix(1.5 0 0 1.5 -190 -170)" style="fill:rgb(0,0,0);stroke:rgb(0,0,0);stroke-width:2"></line>
<polygon points="13,35.1699 18,43.8301 8,43.8301" transform="matrix(1.5 0 0 1.90525 0.5 130.492)" style="fill:rgb(0,0,0);stroke:rgb(0,0,0);stroke-width:2"></polygon>
<polygon points="13,35.1699 18,43.8301 8,43.8301" transform="matrix(1.5 0 0 1.90525 359 128.992)" style="fill:rgb(0,0,0);stroke:rgb(0,0,0);stroke-width:2"></polygon>
<g id="PT.%201" transform="matrix(1.5 0 0 1.5 -167.5 -219.5)"><text x="150px" y="322px" transform="matrix(1 0 0 1 0 0)" style="fill:rgb(0,0,0);stroke-width:1;font-family:Arial Black;font-weight:bold;font-size:12;
			">PT. 1</text>
</g>
<g id="PT.%202" transform="matrix(1.5 0 0 1.5 -163 -329)"><text x="308px" y="394px" transform="matrix(1 0 0 1 0 0)" style="fill:rgb(0,0,0);stroke-width:1;font-family:Arial Black;font-weight:bold;font-size:12;
			">PT. 2</text>
</g>
<text x="22px" y="190px" transform="matrix(1 0 0 1 0 0)" style="fill:rgb(0,0,0);stroke:rgb(0,0,0);font-size:60;font-family:Arial">x x x x x x x x</text>
</svg>

</g>
</svg>