<?xml version="1.0"?>
<!DOCTYPE svg PUBLIC "-//W3C//DTD SVG 1.1//EN" "http://www.w3.org/Graphics/SVG/1.1/DTD/svg11.dtd" >
<!-- SVG content generated using Symbology Configuration Management System (SCMS) -->
<!-- Systematic Software Engineering Ltd. - www.systematic.co.uk - do not remove  -->
<svg id="SHGPUCSW--*****" width="400px" height="400px" viewBox="0 0 400 400">
<g >
<svg viewBox="0 0 400 400" id="_0.SHG-U----------" width="400px" height="400px"><polyline points="200,373 373,200 200,27 27,200 200,373" style="stroke-linecap:square;fill:rgb(255,128,128);stroke:rgb(0,0,0);stroke-width:10"></polyline>
</svg>

</g>
<g transform="translate(21 0) scale(0.9 0.9)" >
<svg viewBox="0 0 400 400" id="_1.S-G-UCS--------" width="400px" height="400px"><text x="200" y="232" style="fill:rgb(0,0,0);text-anchor:middle;font-weight:bold;font-size:90;font-family:Arial;    ">SEC</text>
</svg>

</g>
<g transform="translate(40 80) scale(0.8 0.8)" >
<svg viewBox="0 0 400 400" id="_2.SHG-UCATW------" width="400px" height="400px"><path d="M44 218 C47 217 53 210 53 200 C53 170 95 170 95 200 C95 230 137 230 137 200 C137     170 179 170 179 200 C179 230 221 230 221 200 C221 170 263 170 263 200 C263 230     305 230 305 200 C305 170 347 170 347 200 C347 210 353 217 356 218" style="fill:none;stroke:rgb(0,0,0);stroke-width:10"></path>
</svg>

</g>
</svg>