<?xml version="1.0"?>
<!DOCTYPE svg PUBLIC "-//W3C//DTD SVG 1.1//EN" "http://www.w3.org/Graphics/SVG/1.1/DTD/svg11.dtd" >
<!-- SVG content generated using Symbology Configuration Management System (SCMS) -->
<!-- Systematic Software Engineering Ltd. - www.systematic.co.uk - do not remove  -->
<svg id="G*TPKF----****X" width="400px" height="400px" viewBox="0 0 400 400">
<g >
<svg viewBox="0 0 400 400" id="_0.G-TPKF--------X" width="400px" height="400px"><g transform="translate(-130 -20) scale(1 1)"><text x="244px" y="216px" style="fill:rgb(0,0,0);font-size:14;font-family:Arial Black;font-weight:bold;stroke:rgb(0,0,0);     ">CATK</text>
<line x1="178" y1="174" x2="191" y2="174" style="fill:none;stroke:rgb(0,0,0);stroke-width:2"></line>
<line x1="197" y1="174" x2="212" y2="174" style="fill:none;stroke:rgb(0,0,0);stroke-width:2"></line>
<line x1="220" y1="174" x2="236" y2="174" style="fill:none;stroke:rgb(0,0,0);stroke-width:2"></line>
<line x1="244" y1="174" x2="262" y2="174" style="fill:none;stroke:rgb(0,0,0);stroke-width:2"></line>
<line x1="269" y1="174" x2="289" y2="174" style="fill:none;stroke:rgb(0,0,0);stroke-width:2"></line>
<line x1="297" y1="174" x2="314" y2="174" style="fill:none;stroke:rgb(0,0,0);stroke-width:2"></line>
<line x1="321" y1="174" x2="332" y2="174" style="fill:none;stroke:rgb(0,0,0);stroke-width:2"></line>
<line x1="332" y1="170" x2="332" y2="159" style="fill:none;stroke:rgb(0,0,0);stroke-width:2"></line>
<line x1="332" y1="154" x2="332" y2="144" style="fill:none;stroke:rgb(0,0,0);stroke-width:2"></line>
<line x1="332" y1="139" x2="332" y2="124" style="fill:none;stroke:rgb(0,0,0);stroke-width:2"></line>
<line x1="335" y1="127" x2="345" y2="138" style="fill:none;stroke:rgb(0,0,0);stroke-width:2"></line>
<line x1="349" y1="143" x2="361" y2="156" style="fill:none;stroke:rgb(0,0,0);stroke-width:2"></line>
<line x1="368" y1="164" x2="380" y2="178" style="fill:none;stroke:rgb(0,0,0);stroke-width:2"></line>
<line x1="384" y1="182" x2="393" y2="192" style="fill:none;stroke:rgb(0,0,0);stroke-width:2"></line>
<line x1="399" y1="199" x2="408" y2="210" style="fill:none;stroke:rgb(0,0,0);stroke-width:2"></line>
<line x1="408" y1="210" x2="401" y2="218" style="fill:none;stroke:rgb(0,0,0);stroke-width:2"></line>
<line x1="398" y1="222" x2="388.226" y2="233.02" style="fill:none;stroke:rgb(0,0,0);stroke-width:2"></line>
<line x1="385" y1="237" x2="376" y2="247" style="fill:none;stroke:rgb(0,0,0);stroke-width:2"></line>
<line x1="373.726" y1="249.77" x2="365.226" y2="258.77" style="fill:none;stroke:rgb(0,0,0);stroke-width:2"></line>
<line x1="361" y1="264" x2="351.976" y2="273.77" style="fill:none;stroke:rgb(0,0,0);stroke-width:2"></line>
<line x1="345.476" y1="281.27" x2="337.476" y2="289.77" style="fill:none;stroke:rgb(0,0,0);stroke-width:2"></line>
<line x1="335" y1="293" x2="332" y2="296" style="fill:none;stroke:rgb(0,0,0);stroke-width:2"></line>
<line x1="332" y1="282" x2="332" y2="295" style="fill:none;stroke:rgb(0,0,0);stroke-width:2"></line>
<line x1="332" y1="276" x2="332" y2="262" style="fill:none;stroke:rgb(0,0,0);stroke-width:2"></line>
<line x1="332" y1="254" x2="332" y2="243" style="fill:none;stroke:rgb(0,0,0);stroke-width:2"></line>
<line x1="326" y1="244" x2="309" y2="244" style="fill:none;stroke:rgb(0,0,0);stroke-width:2"></line>
<line x1="299" y1="244" x2="278" y2="244" style="fill:none;stroke:rgb(0,0,0);stroke-width:2"></line>
<line x1="268" y1="244" x2="248" y2="244" style="fill:none;stroke:rgb(0,0,0);stroke-width:2"></line>
<line x1="241" y1="244" x2="227" y2="244" style="fill:none;stroke:rgb(0,0,0);stroke-width:2"></line>
<line x1="218" y1="244" x2="199" y2="244" style="fill:none;stroke:rgb(0,0,0);stroke-width:2"></line>
<line x1="189" y1="244" x2="176" y2="244" style="fill:none;stroke:rgb(0,0,0);stroke-width:2"></line>
<line x1="390.74" y1="82.511" x2="400.074" y2="90.511" style="fill:none;stroke:rgb(0,0,0);stroke-width:2"></line>
<line x1="402.74" y1="92.511" x2="418.407" y2="105.511" style="fill:none;stroke:rgb(0,0,0);stroke-width:2"></line>
<line x1="423.074" y1="109.511" x2="438.074" y2="122.178" style="fill:none;stroke:rgb(0,0,0);stroke-width:2"></line>
<line x1="441.74" y1="125.778" x2="441.74" y2="141.444" style="fill:none;stroke:rgb(0,0,0);stroke-width:2"></line>
<line x1="441.74" y1="147.111" x2="441.74" y2="173.111" style="fill:none;stroke:rgb(0,0,0);stroke-width:2"></line>
<line x1="441.74" y1="180.111" x2="441.74" y2="201.111" style="fill:none;stroke:rgb(0,0,0);stroke-width:2"></line>
<line x1="441.74" y1="209.044" x2="442.074" y2="237.711" style="fill:none;stroke:rgb(0,0,0);stroke-width:2"></line>
<line x1="441.74" y1="243.711" x2="441.74" y2="262.044" style="fill:none;stroke:rgb(0,0,0);stroke-width:2"></line>
<line x1="441.74" y1="267.844" x2="441.74" y2="288.844" style="fill:none;stroke:rgb(0,0,0);stroke-width:2"></line>
<line x1="436.407" y1="294.844" x2="426.407" y2="304.511" style="fill:none;stroke:rgb(0,0,0);stroke-width:2"></line>
<line x1="422.74" y1="308.178" x2="412.074" y2="319.178" style="fill:none;stroke:rgb(0,0,0);stroke-width:2"></line>
<line x1="407.74" y1="323.844" x2="394.407" y2="336.844" style="fill:none;stroke:rgb(0,0,0);stroke-width:2"></line>
<line x1="448" y1="206" x2="467" y2="206" style="fill:none;stroke:rgb(0,0,0);stroke-width:2"></line>
<line x1="474" y1="206" x2="492" y2="206" style="fill:none;stroke:rgb(0,0,0);stroke-width:2"></line>
<line x1="491.231" y1="205.96" x2="480.231" y2="193.96" style="fill:none;stroke:rgb(0,0,0);stroke-width:2"></line>
<line x1="491.231" y1="205.627" x2="479.897" y2="216.294" style="fill:none;stroke:rgb(0,0,0);stroke-width:2"></line>
</g>
</svg>

</g>
</svg>