<?xml version="1.0"?>
<!DOCTYPE svg PUBLIC "-//W3C//DTD SVG 1.1//EN" "http://www.w3.org/Graphics/SVG/1.1/DTD/svg11.dtd" >
<!-- SVG content generated using Symbology Configuration Management System (SCMS) -->
<!-- Systematic Software Engineering Ltd. - www.systematic.co.uk - do not remove  -->
<svg id="G*TPT-----****X" width="400px" height="400px" viewBox="0 0 400 400">
<g >
<svg viewBox="0 0 400 400" id="_0.G-TPT---------X" width="400px" height="400px"><g transform="translate(-40 -80) scale(1 1)"><line x1="73.5" y1="257.928" x2="305.725" y2="257.93" transform="translate(0 18.0723)" style="fill:none;stroke:rgb(0,0,0);stroke-width:2"></line>
<line x1="389" y1="354" x2="121.947" y2="353.78" style="fill:none;stroke:rgb(0,0,0);stroke-width:2"></line>
<line x1="253.122" y1="213.068" x2="121" y2="213" transform="translate(0.60241 -10.8434)" style="fill:none;stroke:rgb(0,0,0);stroke-width:2"></line>
<line x1="389" y1="353" x2="346" y2="338" style="fill:none;stroke:rgb(0,0,0);stroke-width:2"></line>
<line x1="389.228" y1="354.674" x2="347" y2="367" style="fill:none;stroke:rgb(0,0,0);stroke-width:2"></line>
<line x1="389.569" y1="275.558" x2="345" y2="257" style="fill:none;stroke:rgb(0,0,0);stroke-width:2" transform="translate(-85 0)"></line>
<line x1="390.014" y1="276.891" x2="347" y2="291" style="fill:none;stroke:rgb(0,0,0);stroke-width:2" transform="translate(-85 0)"></line>
<line x1="390.614" y1="203.225" x2="346" y2="183" style="fill:none;stroke:rgb(0,0,0);stroke-width:2" transform="translate(-136 -1)"></line>
<line x1="390.614" y1="203.114" x2="346" y2="219" style="fill:none;stroke:rgb(0,0,0);stroke-width:2" transform="translate(-136 0)"></line>
<line x1="122" y1="202" x2="122" y2="354" style="fill:rgb(0,0,0);stroke:rgb(0,0,0);stroke-width:2"></line>
</g>
</svg>

</g>
</svg>