<?xml version="1.0"?>
<!DOCTYPE svg PUBLIC "-//W3C//DTD SVG 1.1//EN" "http://www.w3.org/Graphics/SVG/1.1/DTD/svg11.dtd" >
<!-- SVG content generated using Symbology Configuration Management System (SCMS) -->
<!-- Systematic Software Engineering Ltd. - www.systematic.co.uk - do not remove  -->
<svg id="G*TPQ-----****X" width="400px" height="400px" viewBox="0 0 400 400">
<g >
<svg viewBox="0 0 400 400" id="_0.G-TPQ---------X" width="400px" height="400px"><g transform="translate(-280 -170) scale(1.75 1.75)"><path d="M193.336 206.067 C206.51 101.629 355.935 119.892 351.336 216.467 C347.89 288.819      241.76 316.115 202.136 246.067" style="fill:none;stroke:rgb(0,0,0);stroke-width:2"></path>
<line x1="202" y1="246" x2="202" y2="271" style="fill:rgb(0,0,0);stroke:rgb(0,0,0);stroke-width:2"></line>
<line x1="201.013" y1="245.815" x2="222.416" y2="245.827" style="fill:rgb(0,0,0);stroke:rgb(0,0,0);stroke-width:2"></line>
<line x1="193.333" y1="201.127" x2="177" y2="198" style="fill:rgb(0,0,0);stroke:rgb(0,0,0);stroke-width:2"></line>
<line x1="197" y1="188" x2="181.133" y2="180.727" style="fill:rgb(0,0,0);stroke:rgb(0,0,0);stroke-width:2"></line>
<line x1="203" y1="173" x2="189" y2="165" style="fill:rgb(0,0,0);stroke:rgb(0,0,0);stroke-width:2"></line>
<line x1="213" y1="161" x2="200" y2="150" style="fill:rgb(0,0,0);stroke:rgb(0,0,0);stroke-width:2"></line>
<line x1="223" y1="151" x2="214" y2="138" style="fill:rgb(0,0,0);stroke:rgb(0,0,0);stroke-width:2"></line>
<line x1="236" y1="143" x2="228" y2="129" style="fill:rgb(0,0,0);stroke:rgb(0,0,0);stroke-width:2"></line>
<line x1="249" y1="138" x2="244" y2="122" style="fill:rgb(0,0,0);stroke:rgb(0,0,0);stroke-width:2"></line>
<line x1="266" y1="135" x2="266" y2="118" style="fill:rgb(0,0,0);stroke:rgb(0,0,0);stroke-width:2"></line>
<line x1="283" y1="136" x2="287" y2="118" style="fill:rgb(0,0,0);stroke:rgb(0,0,0);stroke-width:2"></line>
<line x1="299" y1="141" x2="306.333" y2="122.727" style="fill:rgb(0,0,0);stroke:rgb(0,0,0);stroke-width:2"></line>
<line x1="316" y1="148" x2="327.133" y2="132.727" style="fill:rgb(0,0,0);stroke:rgb(0,0,0);stroke-width:2"></line>
<line x1="332" y1="160" x2="344" y2="148" style="fill:rgb(0,0,0);stroke:rgb(0,0,0);stroke-width:2"></line>
<line x1="342" y1="173" x2="357" y2="164" style="fill:rgb(0,0,0);stroke:rgb(0,0,0);stroke-width:2"></line>
<line x1="349" y1="190" x2="366" y2="184" style="fill:rgb(0,0,0);stroke:rgb(0,0,0);stroke-width:2"></line>
<line x1="351" y1="206" x2="370" y2="206" style="fill:rgb(0,0,0);stroke:rgb(0,0,0);stroke-width:2"></line>
<line x1="351" y1="222" x2="371.5" y2="225" style="fill:rgb(0,0,0);stroke:rgb(0,0,0);stroke-width:2"></line>
<line x1="348" y1="237" x2="365.133" y2="242.327" style="fill:rgb(0,0,0);stroke:rgb(0,0,0);stroke-width:2"></line>
<line x1="339.533" y1="251.927" x2="354" y2="262" style="fill:rgb(0,0,0);stroke:rgb(0,0,0);stroke-width:2"></line>
<line x1="328" y1="266" x2="338.733" y2="281.127" style="fill:rgb(0,0,0);stroke:rgb(0,0,0);stroke-width:2"></line>
<line x1="307" y1="279" x2="314" y2="296" style="fill:rgb(0,0,0);stroke:rgb(0,0,0);stroke-width:2"></line>
<line x1="287" y1="286" x2="291" y2="303" style="fill:rgb(0,0,0);stroke:rgb(0,0,0);stroke-width:2"></line>
<line x1="265" y1="287" x2="265.133" y2="304.327" style="fill:rgb(0,0,0);stroke:rgb(0,0,0);stroke-width:2"></line>
<line x1="245" y1="283" x2="239" y2="298" style="fill:rgb(0,0,0);stroke:rgb(0,0,0);stroke-width:2"></line>
<line x1="228" y1="275" x2="220.733" y2="290.327" style="fill:rgb(0,0,0);stroke:rgb(0,0,0);stroke-width:2"></line>
<line x1="217" y1="266" x2="206.333" y2="278.727" style="fill:rgb(0,0,0);stroke:rgb(0,0,0);stroke-width:2"></line>
</g>
</svg>

</g>
</svg>