<?xml version="1.0"?>
<!DOCTYPE svg PUBLIC "-//W3C//DTD SVG 1.1//EN" "http://www.w3.org/Graphics/SVG/1.1/DTD/svg11.dtd" >
<!-- SVG content generated using Symbology Configuration Management System (SCMS) -->
<!-- Systematic Software Engineering Ltd. - www.systematic.co.uk - do not remove  -->
<svg id="G*TPUG----****X" width="400px" height="400px" viewBox="0 0 400 400">
<g >
<svg viewBox="0 0 400 400" id="_0.G-TPUG--------X" width="400px" height="400px"><g transform="translate(-40 -70) scale(1 1)"><g transform="matrix(0.891863 0.452306 -0.452306 0.891863 142.67 -113.895)" style="font-size:14"><line x1="290" y1="203" x2="362" y2="203" style="fill:rgb(0,0,0);stroke:rgb(0,0,0);stroke-width:2" transform="matrix(1 0 0 1 20 38)"></line>
<line x1="361.318" y1="203.364" x2="350.773" y2="212.636" style="fill:rgb(0,0,0);stroke:rgb(0,0,0);stroke-width:2" transform="matrix(1 0 0 1 20 38)"></line>
<line x1="350" y1="213" x2="394" y2="213" style="fill:rgb(0,0,0);stroke:rgb(0,0,0);stroke-width:2" transform="matrix(1 0 0 1 20 38)"></line>
<line x1="393.136" y1="212.636" x2="384.955" y2="205" style="fill:rgb(0,0,0);stroke:rgb(0,0,0);stroke-width:2" transform="matrix(1 0 0 1 20 38)"></line>
<line x1="393.318" y1="213.545" x2="384.227" y2="219.182" style="fill:rgb(0,0,0);stroke:rgb(0,0,0);stroke-width:2" transform="matrix(1 0 0 1 20 38)"></line>
</g>
<g transform="matrix(0.859505 -0.511128 0.511128 0.859505 -106.197 129.223)" style="font-size:14"><line x1="295" y1="214" x2="367" y2="214" transform="matrix(-1 -3.67382e-016 -3.67382e-016 1 480.666 26.3333)" style="fill:rgb(0,0,0);stroke:rgb(0,0,0);stroke-width:2"></line>
<line x1="366.318" y1="214.364" x2="355.773" y2="223.636" transform="matrix(-1 -3.67382e-016 -3.67382e-016 1 480.666 26.3333)" style="fill:rgb(0,0,0);stroke:rgb(0,0,0);stroke-width:2"></line>
<line x1="355" y1="224" x2="399" y2="224" transform="matrix(-1 -3.67382e-016 -3.67382e-016 1 480.666 26.3333)" style="fill:rgb(0,0,0);stroke:rgb(0,0,0);stroke-width:2"></line>
<line x1="398.136" y1="223.636" x2="389.955" y2="216" transform="matrix(-1 -3.67382e-016 -3.67382e-016 1 480.666 26.3333)" style="fill:rgb(0,0,0);stroke:rgb(0,0,0);stroke-width:2"></line>
<line x1="398.318" y1="224.545" x2="389.227" y2="230.182" transform="matrix(-1 -3.67382e-016 -3.67382e-016 1 480.666 26.3333)" style="fill:rgb(0,0,0);stroke:rgb(0,0,0);stroke-width:2"></line>
</g>
<g id="A"><rect x="174" y="77" width="64" height="36" transform="matrix(1 0 0 1 42 143)" style="fill:rgb(128,224,255);stroke:rgb(0,0,0);stroke-width:2"></rect>
<path transform="matrix(1 0 0 1 39 140)" d="M208 89 C220.15 89 230 86.0295 230 98 C230 109.971 220.15 107 208 107 C195.85 107       186 110.971 186 98 C186 85.0295 195.85 89 208 89 z" style="fill:rgb(128,224,255);stroke:rgb(0,0,0);stroke-width:2"></path>
<line x1="173.83" y1="113.182" x2="238.193" y2="76.8182" transform="matrix(1 0 0 1 42 143)" style="fill:rgb(0,0,0);stroke:rgb(0,0,0);stroke-width:2"></line>
<text x="186px" y="42px" transform="matrix(1 0 0 1 58 172)" style="fill:rgb(0,0,0);font-size:14;font-family:Arial Black;font-weight:bold">II</text>
</g>
<g transform="matrix(1 0 0 1.24038 14 -35.1154)" style="font-size:14"><line x1="44" y1="57" x2="44" y2="161" transform="matrix(1 0 0 1 21 139)" style="fill:rgb(0,0,0);stroke:rgb(0,0,0);stroke-width:2"></line>
<rect x="168" y="112" width="32" height="19" transform="matrix(-1.83691e-016 -1 1 -1.83691e-016 -58.5 429.5)" style="fill:rgb(255,255,255);stroke:none;stroke-width:2"></rect>
<text x="172px" y="127px" transform="matrix(-1.83691e-016 -1 1 -1.83691e-016 -58.5 429.5)" style="fill:rgb(0,0,0);font-family:Arial Black;font-weight:bold;font-size:14">XX</text>
</g>
<g transform="matrix(1 0 0 1.23077 -30 -39.1538)" style="font-size:14"><line x1="44" y1="57" x2="44" y2="161" transform="matrix(1 0 0 1 396 143)" style="fill:rgb(0,0,0);stroke:rgb(0,0,0);stroke-width:2"></line>
<rect x="168" y="112" width="32" height="19" transform="matrix(-1.83691e-016 -1 1 -1.83691e-016 316.5 433.5)" style="fill:rgb(255,255,255);stroke:none;stroke-width:2"></rect>
<text x="172px" y="127px" transform="matrix(-1.83691e-016 -1 1 -1.83691e-016 316.5 433.5)" style="fill:rgb(0,0,0);font-family:Arial Black;font-weight:bold;font-size:14">XX</text>
</g>
<text x="290px" y="241px" transform="matrix(1 0 0 1 -1 7)" style="fill:rgb(0,0,0);font-size:14;font-family:Arial Black;font-weight:bold">G</text>
<text x="190px" y="247px" transform="matrix(1 0 0 1 0 0)" style="fill:rgb(0,0,0);font-size:14;font-family:Arial Black;font-weight:bold">G</text>
</g>
</svg>

</g>
</svg>