<?xml version="1.0"?>
<!DOCTYPE svg PUBLIC "-//W3C//DTD SVG 1.1//EN" "http://www.w3.org/Graphics/SVG/1.1/DTD/svg11.dtd" >
<!-- SVG content generated using Symbology Configuration Management System (SCMS) -->
<!-- Systematic Software Engineering Ltd. - www.systematic.co.uk - do not remove  -->
<svg id="G*TPZ-----****X" width="400px" height="400px" viewBox="0 0 400 400">
<g >
<svg viewBox="0 0 400 400" id="_0.G-TPZ---------X" width="400px" height="400px"><g transform="translate(-230 -210) scale(1.75 1.75)"><circle cx="114" cy="139.5" r="19" style="fill:rgb(255,255,255);stroke:rgb(0,0,0);stroke-width:2" transform="matrix(1.52632 0 0 1.55263 -2 -23.5921)"></circle>
<path d="M134 139.5 C199.372 141.474 265.546 169.54 274 243" style="fill:none;stroke:rgb(0,0,0);stroke-width:2" transform="matrix(1 0 0 1 65 54)"></path>
<line x1="255.819" y1="229.73" x2="274.183" y2="243.367" style="fill:rgb(0,0,0);stroke:rgb(0,0,0);stroke-width:2" transform="matrix(1 0 0 1 65 54)"></line>
<line x1="273.274" y1="243.367" x2="288.546" y2="229.185" style="fill:rgb(0,0,0);stroke:rgb(0,0,0);stroke-width:2" transform="matrix(1 0 0 1 65 54)"></line>
<g id="A" transform="translate(112 84.414) scale(0.826087 1) translate(-112 -84.414) translate(135 110) scale(1 0.843665) translate(-135 -110) translate(60.5263 116.16) translate(-101.684 -116.16) translate(90.7895 118.531) translate(135 110) scale(1 0.953674) translate(-135 -110) translate(112 84.414) scale(0.894737 1) translate(-112 -84.414) translate(1.35294 0) translate(0 -1.24288) translate(1.35294 0)"><rect x="112" y="76" width="46" height="34" transform="matrix(1 0 0 1 0 0)" style="fill:rgb(128,224,255);stroke:rgb(0,0,0);stroke-width:2"></rect>
<path transform="matrix(1 0 0 1 0 0) translate(1 0) translate(0 -1)" d="M134 85 C143.941 85 153 82.2533 152 94.5 C151 106.747 143.941 104 134 104 C124.059       104 116 106.747 116 94.5 C116 82.2533 124.059 85 134 85 z" style="fill:rgb(128,224,255);stroke:rgb(0,0,0);stroke-width:2"></path>
<text x="128px" y="63px" transform="matrix(1 0 0 1 0 0) translate(0 1) translate(0 1) translate(0 1) translate(0 1) translate(0 1) translate(0 1) translate(0 1) translate(0 1)" style="fill:rgb(0,0,0);font-size:17;font-family:Arial Black;font-weight:bold">X</text>
</g>
</g>
</svg>

</g>
</svg>