<?xml version="1.0"?>
<!DOCTYPE svg PUBLIC "-//W3C//DTD SVG 1.1//EN" "http://www.w3.org/Graphics/SVG/1.1/DTD/svg11.dtd" >
<!-- SVG content generated using Symbology Configuration Management System (SCMS) -->
<!-- Systematic Software Engineering Ltd. - www.systematic.co.uk - do not remove  -->
<svg id="G*GPAAF---****X" width="400px" height="400px" viewBox="0 0 400 400">
<g >
<svg viewBox="0 0 400 400" id="_0.G-GPAAF-------X" width="400px" height="400px"><g transform="translate(-230 -160) scale(1.5 1.5)"><line x1="124" y1="154" x2="124" y2="314" transform="matrix(1 0 0 0.970455 65.0455 7.2317)" style="fill:none;stroke:rgb(0,0,0);stroke-width:2"></line>
<line x1="124" y1="154" x2="259.331" y2="162.186" transform="matrix(1.00142 0 0 0.785714 63.8011 36.5683)" style="fill:none;stroke:rgb(0,0,0);stroke-width:2"></line>
<line x1="219" y1="161" x2="293.21" y2="227.092" transform="matrix(0.995338 0 0 1.00239 65.6574 2.36534) translate(40.1874 0)" style="fill:none;stroke:rgb(0,0,0);stroke-width:2"></line>
<line x1="290.969" y1="228.563" x2="235" y2="310" transform="matrix(1.06612 0 0 0.99609 47.7799 1.84853) translate(36.5812 0)" style="fill:none;stroke:rgb(0,0,0);stroke-width:2"></line>
<line x1="273.51" y1="308.892" x2="124" y2="309" transform="matrix(1 0 0 1 64.5455 1.31825)" style="fill:none;stroke:rgb(0,0,0);stroke-width:2"></line>
<text x="220px" y="51px" transform="matrix(1 0 0 1 -6.9125 160.614) translate(0 -6)" style="fill:rgb(0,0,0);font-size:12;font-family:Arial Black;font-weight:bold">FAADEZ</text>
<text x="220px" y="72px" transform="matrix(1 0 0 1 -8.0145 160.614)" style="fill:rgb(0,0,0);font-size:12;font-family:Arial Black;font-weight:bold">MIN ALT:</text>
<text x="222px" y="91px" transform="matrix(1 0 0 1 -11.0185 151.614)" style="fill:rgb(0,0,0);font-size:12;font-family:Arial Black;font-weight:bold">MAX ALT:</text>
<text x="221px" y="112px" transform="matrix(1 0 0 1 -8.7225 141.614)" style="fill:rgb(0,0,0);font-size:12;font-family:Arial Black;font-weight:bold">TIME FROM:</text>
<text x="225px" y="135px" transform="matrix(1 0 0 1 -12.7205 128.614)" style="fill:rgb(0,0,0);font-size:12;font-family:Arial Black;font-weight:bold">TIME TO:</text>
<g id="T"><text x="176px" y="111px" transform="matrix(1 0 0 1 0 0) translate(36 109)" style="fill:rgb(0,0,0);font-size:12;font-family:Arial Black;font-weight:bold">(Unit ID)</text>
</g>
<g id="H"><text x="114px" y="99px" transform="matrix(1 0 0 1 0 0) translate(160 134)" style="fill:rgb(0,0,0);font-family:Arial Black;font-weight:bold;font-size:12">100 FT</text>
</g>
<g id="H1"><text x="226px" y="80px" transform="matrix(1 0 0 1 0 0) translate(51 163)" style="fill:rgb(0,0,0);font-family:Arial Black;font-weight:bold;font-size:12">500 FT</text>
</g>
<g id="W"><text x="338px" y="99px" transform="matrix(1 0 0 1 0 0) translate(-45 155)" style="fill:rgb(0,0,0);font-family:Arial Black;font-weight:bold;font-size:12">180530Z</text>
</g>
<g id="W1"><text x="340px" y="142px" transform="matrix(1 0 0 1 0 0) translate(-66 122)" style="fill:rgb(0,0,0);font-family:Arial Black;font-weight:bold;font-size:12">182100Z</text>
</g>
</g>
</svg>

</g>
</svg>