<?xml version="1.0"?>
<!DOCTYPE svg PUBLIC "-//W3C//DTD SVG 1.1//EN" "http://www.w3.org/Graphics/SVG/1.1/DTD/svg11.dtd" >
<!-- SVG content generated using Symbology Configuration Management System (SCMS) -->
<!-- Systematic Software Engineering Ltd. - www.systematic.co.uk - do not remove  -->
<svg id="G*GPAAMH--****X" width="400px" height="400px" viewBox="0 0 400 400">
<g >
<svg viewBox="0 0 400 400" id="_0.G-GPAAMH------X" width="400px" height="400px"><g transform="translate(-220 -240) scale(1.75 1.75)"><line x1="124" y1="154" x2="124" y2="314" transform="matrix(1 0 0 0.970455 25.0455 22.2317)" style="fill:none;stroke:rgb(0,0,0);stroke-width:2"></line>
<line x1="124" y1="154" x2="268.431" y2="163.546" transform="matrix(1.00142 0 0 0.785714 24.6875 51.5)" style="fill:none;stroke:rgb(0,0,0);stroke-width:2"></line>
<line x1="267.453" y1="162.984" x2="308.737" y2="217.002" transform="matrix(0.995338 0 0 1.00239 26.2028 16.479)" style="fill:none;stroke:rgb(0,0,0);stroke-width:2"></line>
<line x1="303.771" y1="216.304" x2="271.198" y2="308.3" transform="matrix(1.06612 0 0 0.99609 8.7345 17.8485)" style="fill:none;stroke:rgb(0,0,0);stroke-width:2"></line>
<line x1="273.455" y1="308" x2="124" y2="309" transform="matrix(1 0 0 1 25.0455 17)" style="fill:none;stroke:rgb(0,0,0);stroke-width:2"></line>
<text x="50px" y="34px" style="fill:rgb(0,0,0);font-size:12;font-family:Arial Black;font-weight:bold" transform="matrix(1 0 0 1 112 188)">HIMEZ</text>
<g id="T"><text x="50px" y="49px" transform="matrix(1 0 0 1 111 188)" style="fill:rgb(0,0,0);font-size:12;font-family:Arial Black;font-weight:bold">(Unit ID)</text>
</g>
<text x="162px" y="376px" transform="matrix(1 0 0 1 0 0) translate(-1 -125)" style="fill:rgb(0,0,0);stroke-width:1;font-family:Arial Black;font-weight:bold;font-size:12;    ">MIN ALT:</text>
<text x="209px" y="411px" transform="matrix(1 0 0 1 0 0) translate(-48 -148)" style="fill:rgb(0,0,0);stroke-width:1;font-family:Arial Black;font-weight:bold;font-size:12;    ">MAX ALT:</text>
<text x="198px" y="431px" transform="matrix(1 0 0 1 0 0) translate(-38 -156)" style="fill:rgb(0,0,0);stroke-width:1;font-family:Arial Black;font-weight:bold;font-size:12;    ">TIME FROM:</text>
<text x="201px" y="449px" transform="matrix(1 0 0 1 0 0) translate(-39 -161) translate(-1 0) translate(0 -1)" style="fill:rgb(0,0,0);stroke-width:1;font-family:Arial Black;font-weight:bold;font-size:12;    ">TIME TO:</text>
<g id="H"><text x="341px" y="351px" transform="matrix(1 0 0 1 0 0) translate(-118 -101)" style="fill:rgb(0,0,0);stroke-width:1;font-family:Arial Black;font-weight:bold;font-size:12;     ">10000 FT</text>
</g>
<g id="H1"><text x="344px" y="374px" transform="matrix(1 0 0 1 0 0) translate(-116 -112)" style="fill:rgb(0,0,0);stroke-width:1;font-family:Arial Black;font-weight:bold;font-size:12;     ">30000 FT</text>
</g>
<g id="W"><text x="338px" y="404px" transform="matrix(1 0 0 1 0 0) translate(-97 -128)" style="fill:rgb(0,0,0);stroke-width:1;font-family:Arial Black;font-weight:bold;font-size:12;     ">180500Z</text>
</g>
<g id="W1"><text x="344px" y="429px" transform="matrix(1 0 0 1 0 0) translate(-122 -142)" style="fill:rgb(0,0,0);stroke-width:1;font-family:Arial Black;font-weight:bold;font-size:12;     ">191800Z</text>
</g>
</g>
</svg>

</g>
</svg>