<?xml version="1.0"?>
<!DOCTYPE svg PUBLIC "-//W3C//DTD SVG 1.1//EN" "http://www.w3.org/Graphics/SVG/1.1/DTD/svg11.dtd" >
<!-- SVG content generated using Symbology Configuration Management System (SCMS) -->
<!-- Systematic Software Engineering Ltd. - www.systematic.co.uk - do not remove  -->
<svg id="G*GPAAML--****X" width="400px" height="400px" viewBox="0 0 400 400">
<g >
<svg viewBox="0 0 400 400" id="_0.G-GPAAML------X" width="400px" height="400px"><g transform="translate(-210 -220) scale(1.75 1.75)"><line x1="124" y1="154" x2="124" y2="314" transform="matrix(1 0 0 0.970455 23.0455 9.2317)" style="fill:none;stroke:rgb(0,0,0);stroke-width:2"></line>
<line x1="124" y1="154" x2="251.455" y2="158.455" transform="matrix(1.00142 0 0 0.785714 22.6875 38.5)" style="fill:none;stroke:rgb(0,0,0);stroke-width:2"></line>
<line x1="250.752" y1="159.283" x2="306.153" y2="226.038" transform="matrix(0.995338 0 0 1.00239 24.2028 3.479)" style="fill:none;stroke:rgb(0,0,0);stroke-width:2"></line>
<line x1="302.212" y1="225.232" x2="271.928" y2="309.275" transform="matrix(1.06612 0 0 0.99609 6.7345 4.8485)" style="fill:none;stroke:rgb(0,0,0);stroke-width:2"></line>
<line x1="274.455" y1="309" x2="124" y2="309" transform="matrix(1 0 0 1 23.0455 4)" style="fill:none;stroke:rgb(0,0,0);stroke-width:2"></line>
<text x="120px" y="72px" transform="matrix(1 0 0 1 36 135)" style="fill:rgb(0,0,0);font-family:Arial Black;font-weight:bold;font-size:12">LOMEZ</text>
<g id="T"><text x="120px" y="91px" transform="matrix(1 0 0 1 34 130)" style="fill:rgb(0,0,0);font-family:Arial Black;font-weight:bold;font-size:12">(Unit ID)</text>
</g>
<text x="152px" y="393px" transform="matrix(1 0 0 1 0 0) translate(0 -158) translate(0 0) translate(1 0)" style="fill:rgb(0,0,0);stroke-width:1;font-size:12;font-family:Arial Black;font-weight:bold;     ">MIN ALT:</text>
<text x="137px" y="427px" transform="matrix(1 0 0 1 0 0) translate(14 -180) translate(0 0) translate(1 0) translate(1 0)" style="fill:rgb(0,0,0);stroke-width:1;font-size:12;font-family:Arial Black;font-weight:bold;     ">MAX ALT:</text>
<text x="156px" y="447px" transform="matrix(1 0 0 1 0 0) translate(-4 -187)" style="fill:rgb(0,0,0);stroke-width:1;font-size:12;font-family:Arial Black;font-weight:bold;     ">TIME FROM:</text>
<text x="165px" y="461px" transform="matrix(1 0 0 1 0 0) translate(-10 -188) translate(-1 0) translate(-1 0) translate(0 -1)" style="fill:rgb(0,0,0);stroke-width:1;font-size:12;font-family:Arial Black;font-weight:bold;     ">TIME TO:</text>
<g id="H"><text x="336px" y="378px" transform="matrix(1 0 0 1 0 0) translate(-120 -142)" style="fill:rgb(0,0,0);stroke-width:1;font-size:12;font-family:Arial Black;font-weight:bold;      ">100 FT</text>
</g>
<g id="H1"><text x="345px" y="411px" transform="matrix(1 0 0 1 0 0) translate(-126 -164)" style="fill:rgb(0,0,0);stroke-width:1;font-size:12;font-family:Arial Black;font-weight:bold;      ">1000 FT</text>
</g>
<g id="W"><text x="327px" y="446px" transform="matrix(1 0 0 1 0 0) translate(-93 -185) translate(0 -1)" style="fill:rgb(0,0,0);stroke-width:1;font-size:12;font-family:Arial Black;font-weight:bold;      ">250500Z</text>
</g>
<g id="W1"><text x="327px" y="461px" transform="matrix(1 0 0 1 0 0) translate(-111 -189)" style="fill:rgb(0,0,0);stroke-width:1;font-size:12;font-family:Arial Black;font-weight:bold;      ">251800Z</text>
</g>
</g>
</svg>

</g>
</svg>