<?xml version="1.0"?>
<!DOCTYPE svg PUBLIC "-//W3C//DTD SVG 1.1//EN" "http://www.w3.org/Graphics/SVG/1.1/DTD/svg11.dtd" >
<!-- SVG content generated using Symbology Configuration Management System (SCMS) -->
<!-- Systematic Software Engineering Ltd. - www.systematic.co.uk - do not remove  -->
<svg id="G*GPAAM---****X" width="400px" height="400px" viewBox="0 0 400 400">
<g >
<svg viewBox="0 0 400 400" id="_0.G-GPAAM-------X" width="400px" height="400px"><g transform="translate(-210 -240) scale(1.75 1.75)"><line x1="124" y1="154" x2="124" y2="314" transform="matrix(1 0 0 0.970455 15.0455 21.2317)" style="fill:none;stroke:rgb(0,0,0);stroke-width:2"></line>
<line x1="124" y1="154" x2="271.427" y2="157.182" transform="matrix(1.00142 0 0 0.785714 14.6875 50.5)" style="fill:none;stroke:rgb(0,0,0);stroke-width:2"></line>
<line x1="270.81" y1="158.293" x2="315.769" y2="232.964" transform="matrix(0.995338 0 0 1.00239 16.2028 15.479)" style="fill:none;stroke:rgb(0,0,0);stroke-width:2"></line>
<line x1="311.4" y1="232.33" x2="271.912" y2="308.357" transform="matrix(1.06612 0 0 0.99609 -1.2655 16.8485)" style="fill:none;stroke:rgb(0,0,0);stroke-width:2"></line>
<line x1="274.455" y1="307" x2="124" y2="309" transform="matrix(1 0 0 1 15.0455 16)" style="fill:none;stroke:rgb(0,0,0);stroke-width:2"></line>
<text x="70px" y="54px" style="fill:rgb(0,0,0);font-size:12;font-family:Arial Black;font-weight:bold" transform="matrix(1 0 0 1 80 164)">MEZ</text>
<g id="T" transform="matrix(1 0 0 1 80 164)"><text x="72px" y="71px" transform="translate(-1 0) translate(0 -1) translate(0 -1) translate(0 -1) translate(-1 0) translate(-1 0) translate(0 1) translate(0 -1)" style="fill:rgb(0,0,0);font-size:12;font-family:Arial Black;font-weight:bold">(Unit ID)</text>
</g>
<text x="80px" y="92px" transform="matrix(1 0 0 1 0 0) translate(69 153)" style="fill:rgb(0,0,0);stroke-width:1;font-family:Arial Black;font-weight:bold;font-size:12;     ">MIN ALT:</text>
<text x="102px" y="143px" transform="matrix(1 0 0 1 0 0) translate(46 115)" style="fill:rgb(0,0,0);stroke-width:1;font-family:Arial Black;font-weight:bold;font-size:12;     ">MAX ALT:</text>
<text x="182px" y="58px" transform="matrix(1 0 0 1 0 0) translate(-33 212)" style="fill:rgb(0,0,0);stroke-width:1;font-family:Arial Black;font-weight:bold;font-size:12;     ">TIME FROM:</text>
<text x="207px" y="78px" transform="matrix(1 0 0 1 0 0) translate(-56 204)" style="fill:rgb(0,0,0);stroke-width:1;font-family:Arial Black;font-weight:bold;font-size:12;     ">TIME TO:</text>
<g id="H"><text x="247px" y="99px" transform="matrix(1 0 0 1 0 0) translate(-34 146)" style="fill:rgb(0,0,0);stroke-width:1;font-family:Arial Black;font-weight:bold;font-size:12;      ">5000 FT</text>
</g>
<g id="H1"><text x="246px" y="121px" transform="matrix(1 0 0 1 0 0) translate(-31 138) translate(0 -1)" style="fill:rgb(0,0,0);stroke-width:1;font-family:Arial Black;font-weight:bold;font-size:12;      ">35000 FT</text>
</g>
<g id="W"><text x="230px" y="136px" transform="matrix(1 0 0 1 0 0) translate(1 133)" style="fill:rgb(0,0,0);stroke-width:1;font-family:Arial Black;font-weight:bold;font-size:12;      ">180500Z</text>
</g>
<g id="W1"><text x="224px" y="152px" transform="matrix(1 0 0 1 0 0) translate(-10 130)" style="fill:rgb(0,0,0);stroke-width:1;font-family:Arial Black;font-weight:bold;font-size:12;      ">191800Z</text>
</g>
</g>
</svg>

</g>
</svg>