<?xml version="1.0"?>
<!DOCTYPE svg PUBLIC "-//W3C//DTD SVG 1.1//EN" "http://www.w3.org/Graphics/SVG/1.1/DTD/svg11.dtd" >
<!-- SVG content generated using Symbology Configuration Management System (SCMS) -->
<!-- Systematic Software Engineering Ltd. - www.systematic.co.uk - do not remove  -->
<svg id="G*TPUS----****X" width="400px" height="400px" viewBox="0 0 400 400">
<g >
<svg viewBox="0 0 400 400" id="_0.G-TPUS--------X" width="400px" height="400px"><g transform="translate(-110 -60) scale(1.25 1.25)"><text x="144px" y="197px" transform="matrix(1 0 0 1 67 35)" style="fill:rgb(0,0,0);font-size:20;font-family:Arial Black;font-weight:bold">S</text>
<text x="202px" y="201px" transform="matrix(1 0 0 1 66 30)" style="fill:rgb(0,0,0);font-size:20;font-family:Arial Black;font-weight:bold">S</text>
<line x1="290" y1="203" x2="362" y2="203" style="fill:rgb(0,0,0);stroke:rgb(0,0,0);stroke-width:2" transform="matrix(1 0 0 1 2 21)"></line>
<line x1="361.318" y1="203.364" x2="350.773" y2="212.636" style="fill:rgb(0,0,0);stroke:rgb(0,0,0);stroke-width:2" transform="matrix(1 0 0 1 2 21)"></line>
<line x1="350" y1="213" x2="394" y2="213" style="fill:rgb(0,0,0);stroke:rgb(0,0,0);stroke-width:2" transform="matrix(1 0 0 1 2 21)"></line>
<line x1="393.136" y1="212.636" x2="384.955" y2="205" style="fill:rgb(0,0,0);stroke:rgb(0,0,0);stroke-width:2" transform="matrix(1 0 0 1 2 21)"></line>
<line x1="393.318" y1="213.545" x2="384.227" y2="219.182" style="fill:rgb(0,0,0);stroke:rgb(0,0,0);stroke-width:2" transform="matrix(1 0 0 1 2 21)"></line>
<line x1="295" y1="214" x2="367" y2="214" transform="matrix(-1 -3.67382e-016 -3.67382e-016 1 496.666 10.3333)" style="fill:rgb(0,0,0);stroke:rgb(0,0,0);stroke-width:2"></line>
<line x1="366.318" y1="214.364" x2="355.773" y2="223.636" transform="matrix(-1 -3.67382e-016 -3.67382e-016 1 496.666 10.3333)" style="fill:rgb(0,0,0);stroke:rgb(0,0,0);stroke-width:2"></line>
<line x1="355" y1="224" x2="399" y2="224" transform="matrix(-1 -3.67382e-016 -3.67382e-016 1 496.666 10.3333)" style="fill:rgb(0,0,0);stroke:rgb(0,0,0);stroke-width:2"></line>
<line x1="398.136" y1="223.636" x2="389.955" y2="216" transform="matrix(-1 -3.67382e-016 -3.67382e-016 1 496.666 10.3333)" style="fill:rgb(0,0,0);stroke:rgb(0,0,0);stroke-width:2"></line>
<line x1="398.318" y1="224.545" x2="389.227" y2="230.182" transform="matrix(-1 -3.67382e-016 -3.67382e-016 1 496.666 10.3333)" style="fill:rgb(0,0,0);stroke:rgb(0,0,0);stroke-width:2"></line>
<g id="A" transform="translate(135 114)"><rect x="102" y="98" width="20" height="20" transform="matrix(1 0 0 1 0 0)" style="fill:rgb(255,255,255);stroke:rgb(0,0,0);stroke-width:2"></rect>
<text x="108px" y="112px" transform="matrix(1 0 0 1 0 0)" style="fill:rgb(0,0,0);stroke-width:1;font-family:Arial Black;font-weight:bold;font-size:12;      ">A</text>
</g>
<g id="PT.%201%20(CENTER%20PT.)" transform="translate(6 74)"><text x="226px" y="80px" transform="matrix(1 0 0 1 0 0)" style="fill:rgb(0,0,0);stroke-width:1;font-family:Arial Black;font-weight:bold;font-size:12;      ">PT. 1</text>
<text x="224px" y="111px" transform="matrix(1 0 0 1 0 0) translate(-24 -19)" style="fill:rgb(0,0,0);stroke-width:1;font-family:Arial Black;font-weight:bold;font-size:12;      ">(CENTER PT.)</text>
</g>
<g id="PT.%202" transform="translate(-81 41)"><text x="182px" y="151px" transform="matrix(1 0 0 1 0 0)" style="fill:rgb(0,0,0);stroke-width:1;font-family:Arial Black;font-weight:bold;font-size:12;      ">PT. 2</text>
</g>
<g id="PT.%203" transform="translate(26 47)"><text x="324px" y="139px" transform="matrix(1 0 0 1 0 0)" style="fill:rgb(0,0,0);stroke-width:1;font-family:Arial Black;font-weight:bold;font-size:12;      ">PT. 3</text>
</g>
<line x1="96" y1="225" x2="96" y2="207" transform="matrix(1 0 0 1 0 0)" style="fill:rgb(0,0,0);stroke:rgb(0,0,0);stroke-width:2"></line>
<line x1="95.7078" y1="207.786" x2="114" y2="197" transform="matrix(1 0 0 1 0 0)" style="fill:rgb(0,0,0);stroke:rgb(0,0,0);stroke-width:2"></line>
<line x1="396" y1="226" x2="396" y2="206" transform="matrix(1 0 0 1 0 0)" style="fill:rgb(0,0,0);stroke:rgb(0,0,0);stroke-width:2"></line>
<line x1="396.265" y1="206.786" x2="372" y2="191" transform="matrix(1 0 0 1 0 0)" style="fill:rgb(0,0,0);stroke:rgb(0,0,0);stroke-width:2"></line>
<line x1="248" y1="195" x2="248" y2="174" transform="matrix(1 0 0 1 0 0)" style="fill:rgb(0,0,0);stroke:rgb(0,0,0);stroke-width:2"></line>
<polygon points="15,53.6699 20,62.3301 10,62.3301" transform="matrix(1 0 0 -1.61658 0 150.145) translate(233 -85.3654)" style="fill:rgb(0,0,0);stroke:rgb(0,0,0);stroke-width:2"></polygon>
<polygon points="15,53.6699 20,62.3301 10,62.3301" transform="matrix(1 0 0 -1.61658 235 343.145) translate(145 16.0833) translate(1 0)" style="fill:rgb(0,0,0);stroke:rgb(0,0,0);stroke-width:2"></polygon>
<polygon points="15,53.6699 20,62.3301 10,62.3301" transform="matrix(1 0 0 -1.61658 235 343.145) translate(-154 17.3205)" style="fill:rgb(0,0,0);stroke:rgb(0,0,0);stroke-width:2"></polygon>
</g>
</svg>

</g>
</svg>