<?xml version="1.0"?>
<!DOCTYPE svg PUBLIC "-//W3C//DTD SVG 1.1//EN" "http://www.w3.org/Graphics/SVG/1.1/DTD/svg11.dtd" >
<!-- SVG content generated using Symbology Configuration Management System (SCMS) -->
<!-- Systematic Software Engineering Ltd. - www.systematic.co.uk - do not remove  -->
<svg id="G*GPGPF---****X" width="400px" height="400px" viewBox="0 0 400 400">
<g >
<svg viewBox="0 0 400 400" id="_0.G-GPGPF-------X" width="400px" height="400px"><g transform="translate(-330 -200) scale(2 2)"><path d="M23.875 24.375 L23.875 47.25 L22.625 47.25 L22.625 24.375 L0 24.375 L0 23 L22.625      23 L22.625 0 L23.875 0 L23.875 23 L47.039 23 L47.039 24.375 z" transform="matrix(3.08338 0 0 2.37566 215 148)"></path>
<line x1="48" y1="76" x2="108" y2="76" transform="matrix(0.7557 0.654918 -0.654916 0.755699 238.708 60.8737)" style="fill:rgb(0,0,0);stroke:rgb(0,0,0);stroke-width:2"></line>
<polygon points="58,30.3038 64,40.6962 52,40.6962" transform="matrix(-0.654916 0.755699 -0.945328 -0.819256 343.215 175.096)" style="fill:rgb(0,0,0);stroke:rgb(0,0,0);stroke-width:2"></polygon>
<g id="CENTER%20POINT" transform="translate(121 23)"><text x="50px" y="123px" transform="matrix(1 0 0 1 0 0)" style="fill:rgb(0,0,0);stroke-width:1;font-family:Arial Black;font-weight:bold;font-size:12;      ">CENTER</text>
<text x="58px" y="149px" transform="matrix(1 0 0 1 0 0) translate(0 -13)" style="fill:rgb(0,0,0);stroke-width:1;font-family:Arial Black;font-weight:bold;font-size:12;      ">POINT</text>
</g>
</g>
</svg>

</g>
</svg>