<?xml version="1.0"?>
<!DOCTYPE svg PUBLIC "-//W3C//DTD SVG 1.1//EN" "http://www.w3.org/Graphics/SVG/1.1/DTD/svg11.dtd" >
<!-- SVG content generated using Symbology Configuration Management System (SCMS) -->
<!-- Systematic Software Engineering Ltd. - www.systematic.co.uk - do not remove  -->
<svg id="G*SPLRT---****X" width="400px" height="400px" viewBox="0 0 400 400">
<g transform="translate(0 -60)" >
<svg viewBox="0 0 400 400" id="_0.MSRC-----------" width="400px" height="400px"><text x="171px" y="191px" transform="matrix(1 0 0 1 -96.37 21.888)" style="fill:rgb(0,0,0);font-size:36;font-family:Arial;font-weight:bold">MSR CHARLIE</text>
</svg>

</g>
<g >
<svg viewBox="0 0 400 400" id="_1.G-SPLRT-------X" width="400px" height="400px"><g transform="translate(0 -40) scale(0.8 0.8)"><path d="M109.5 174 C141.362 180.372 146.381 179.301 179.5 172 C196.424 168.269 235.202 163.871
				253.5 163 C285.336 161.484 301.609 172.189 333.5 169" style="fill:none;stroke:rgb(0,0,0);stroke-width:2" transform="matrix(2 0 0 2 -200 -50)"></path>
</g>
<text x="190px" y="162px" transform="matrix(1 0 0 1 -5.384 0) translate(0 8)" style="fill:rgb(0,0,0);font-size:16;font-family:Arial;font-weight:bold">ALT</text>
<line x1="145" y1="165" x2="175" y2="165" transform="matrix(1 0 0 1 0 0)" style="stroke:rgb(0,0,0);stroke-width:3"></line>
<line x1="225" y1="165" x2="255" y2="165" transform="matrix(1 0 0 1 0 0)" style="stroke:rgb(0,0,0);stroke-width:3"></line>
<polyline points="153,160 143,165 153,170" transform="matrix(1 0 0 1 0 0)" style="fill:none;stroke:rgb(0,0,0);stroke-width:2"></polyline>
<polyline points="248,159 258,164 248,169" transform="matrix(1 0 0 1 0 0)" style="fill:none;stroke:rgb(0,0,0);stroke-width:2"></polyline>
</svg>

</g>
</svg>