<?xml version="1.0"?>
<!DOCTYPE svg PUBLIC "-//W3C//DTD SVG 1.1//EN" "http://www.w3.org/Graphics/SVG/1.1/DTD/svg11.dtd" >
<!-- SVG content generated using Symbology Configuration Management System (SCMS) -->
<!-- Systematic Software Engineering Ltd. - www.systematic.co.uk - do not remove  -->
<svg id="G*SPLCM---****X" width="400px" height="400px" viewBox="0 0 400 400">
<g transform="translate(22 0)" >
<svg viewBox="0 0 400 400" id="_0.12-------------" width="400px" height="400px"><text x="189px" y="193px" transform="matrix(1 0 0 1 -3.004 15.628)" style="fill:rgb(0,0,0);font-size:24;font-family:Arial">12</text>
</svg>

</g>
<g transform="translate(-40 60)" >
<svg viewBox="0 0 400 400" id="_1.250825Z--------" width="400px" height="400px"><text x="188px" y="189px" transform="matrix(1 0 0 1 -36.78 19.472)" style="fill:rgb(0,0,0);font-family:Arial;font-size:24">250825Z</text>
</svg>

</g>
<g transform="translate(-105 0)" >
<svg viewBox="0 0 400 400" id="_2.M1A1-----------" width="400px" height="400px"><text x="176px" y="183px" transform="matrix(1 0 0 1 -6.9 25.64)" style="fill:rgb(0,0,0);font-size:24;font-family:Arial">M1A1</text>
</svg>

</g>
<g transform="translate(-10 25)" >
<svg viewBox="0 0 400 400" id="_3.G-SPLCM-------S" width="400px" height="400px"><line x1="150" y1="145" x2="150" y2="205" transform="matrix(1 0 0 1 0 0)" style="stroke:rgb(0,0,0);stroke-width:3"></line>
<line x1="200" y1="145" x2="200" y2="205" transform="matrix(1 0 0 1 0 0)" style="stroke:rgb(0,0,0);stroke-width:3"></line>
<line x1="150" y1="160" x2="200" y2="160" transform="matrix(1 0 0 1 0 0)" style="stroke:rgb(0,0,0);stroke-width:3"></line>
<line x1="150" y1="190" x2="200" y2="190" transform="matrix(1 0 0 1 0 0)" style="stroke:rgb(0,0,0);stroke-width:3"></line>
<line x1="170" y1="160" x2="170" y2="190" style="stroke:rgb(0,0,0);stroke-width:3"></line>
<line x1="180" y1="160" x2="180" y2="190" transform="matrix(1 0 0 1 0 0)" style="stroke:rgb(0,0,0);stroke-width:3"></line>
</svg>

</g>
<g >
<svg viewBox="0 0 400 400" id="_4.G-SPLCM-------X" width="400px" height="400px"><polygon points="25,165 25,235 275,235 275,255 350,200 275,145 275,165" transform="matrix(1 0 0 1 0 0)" style="fill:none;stroke:rgb(0,0,0);stroke-width:3"></polygon>
</svg>

</g>
</svg>
