<?xml version="1.0"?>
<!DOCTYPE svg PUBLIC "-//W3C//DTD SVG 1.1//EN" "http://www.w3.org/Graphics/SVG/1.1/DTD/svg11.dtd" >
<!-- SVG content generated using Symbology Configuration Management System (SCMS) -->
<!-- Systematic Software Engineering Ltd. - www.systematic.co.uk - do not remove  -->
<svg id="SUSPCL----*****" width="400px" height="400px" viewBox="0 0 400 400">
<g >
<svg viewBox="0 0 400 400" id="_0.SUS------------" width="400px" height="400px"><path d="M115 285 C115 400 285 400 285 285 C400 285 400 115 285 115 C285 0 115 0 115 115 C0     115 0 285 115 285 z" style="fill:rgb(255,255,128);stroke:rgb(0,0,0);stroke-width:10"></path>
</svg>

</g>
<g >
<svg viewBox="0 0 400 400" id="_1.S-S-CL---------" width="400px" height="400px"><path d="M200 290 L85 195 L160 205 L160 165 L188 165 L188 145 L118 145 L118 122 L188 122 L188
			90 L212 90 L212 122 L282 122 L282 145 L212 145 L212 165 L240 165 L240 205
			L315 195 z" style="fill:rgb(0,0,0);stroke:rgb(0,0,0);stroke-width:1" transform="translate(0 10)"></path>
</svg>

</g>
</svg>