<?xml version="1.0"?>
<!DOCTYPE svg PUBLIC "-//W3C//DTD SVG 1.1//EN" "http://www.w3.org/Graphics/SVG/1.1/DTD/svg11.dtd" >
<!-- SVG content generated using Symbology Configuration Management System (SCMS) -->
<!-- Systematic Software Engineering Ltd. - www.systematic.co.uk - do not remove  -->
<svg id="G*MPBDI---****X" width="400px" height="400px" viewBox="0 0 400 400">
<g >
<svg viewBox="0 0 400 400" id="_0.G-MPBDI-------X" width="400px" height="400px"><polyline points="350,320 30,320 30,220" style="fill:none;stroke:rgb(0,0,0);stroke-width:5"></polyline>
<polyline points="30,180 30,80 350,80" style="fill:none;stroke:rgb(0,0,0);stroke-width:5"></polyline>
<polygon points="350,95 350,65 385,80" style="fill:rgb(0,0,0);stroke:rgb(0,0,0);stroke-width:5"></polygon>
<polygon points="350,335 350,305 385,320" style="fill:rgb(0,0,0);stroke:rgb(0,0,0);stroke-width:5"></polygon>
<line x1="15" y1="180" x2="45" y2="180" transform="matrix(1 0 0 1 0 0)" style="fill:none;stroke:rgb(0,0,0);stroke-width:5"></line>
<line x1="15" y1="220" x2="45" y2="220" transform="matrix(1 0 0 1 0 0)" style="fill:none;stroke:rgb(0,0,0);stroke-width:5"></line>
</svg>

</g>
<g >
<svg viewBox="0 0 400 400" id="_1.G-MPBD-------LX" width="400px" height="400px"><polyline points="390,90 390,120 370,140" style="fill:none;stroke:rgb(0,0,0);stroke-width:3"></polyline>
<polyline points="390,310 390,280 370,260" style="fill:none;stroke:rgb(0,0,0);stroke-width:3"></polyline>
<polygon points="386,95 390,85 394,95" style="fill:rgb(0,0,0);stroke:rgb(0,0,0);stroke-width:3"></polygon>
<polygon points="386,305 390,315 394,305" style="fill:rgb(0,0,0);stroke:rgb(0,0,0);stroke-width:3"></polygon>
<line x1="45" y1="200" x2="80" y2="200" transform="matrix(1 0 0 1 0 0)" style="fill:none;stroke:rgb(0,0,0);stroke-width:3"></line>
<polygon points="48,204 38,200 48,196" style="fill:rgb(0,0,0);stroke:rgb(0,0,0);stroke-width:3"></polygon>
<text x="90px" y="209px" transform="matrix(1 0 0 1 0 0)" style="fill:rgb(0,0,0);stroke:rgb(0,0,0);font-size:24;font-family:Arial">PT.3</text>
<text x="315px" y="159px" transform="matrix(1 0 0 1 0 0)" style="fill:rgb(0,0,0);stroke:rgb(0,0,0);font-size:24;font-family:Arial">PT.1</text>
<text x="315px" y="259px" transform="matrix(1 0 0 1 0 0)" style="fill:rgb(0,0,0);stroke:rgb(0,0,0);font-size:24;font-family:Arial">PT.2</text>
</svg>

</g>
</svg>