<?xml version="1.0"?>
<!DOCTYPE svg PUBLIC "-//W3C//DTD SVG 1.1//EN" "http://www.w3.org/Graphics/SVG/1.1/DTD/svg11.dtd" >
<!-- SVG content generated using Symbology Configuration Management System (SCMS) -->
<!-- Systematic Software Engineering Ltd. - www.systematic.co.uk - do not remove  -->
<svg id="G*FPLN----****X" width="400px" height="400px" viewBox="0 0 400 400">
<g >
<svg viewBox="0 0 400 400" id="_0.G-FPLN--------X" width="400px" height="400px"><g transform="translate(-55 -30)"><path d="M157.5 137 C157.5 137 304.5 135.5 349.5 135" style="fill:none;stroke:rgb(0,0,0);stroke-width:2"></path>
<path d="M344.5 106 C354.256 139.17 342.963 162.22 337.5 195 C328.885 246.693 345.5 299.651      345.5 351" style="fill:none;stroke:rgb(0,0,0);stroke-width:2"></path>
<path d="M162.5 89 C162.5 126.03 152.522 168.907 157.5 205 C160.105 223.888 171.819 238.26      172.5 258 C173.666 291.803 160.132 309.264 176.5 342" style="fill:none;stroke:rgb(0,0,0);stroke-width:2"></path>
<text x="86px" y="401px" transform="matrix(1 0 0 1 7 -265)" style="fill:rgb(0,0,0);font-size:12;font-family:Arial Black;font-weight:bold">NFL </text>
<text x="234px" y="425px" transform="matrix(-1.83691e-016 -1 1 -1.83691e-016 -274.398 541.398)" style="fill:rgb(0,0,0);font-size:12;font-family:Arial Black;font-weight:bold">21 ID(L)</text>
<text x="310px" y="448px" transform="matrix(-1.83691e-016 -1 1 -1.83691e-016 -126.694 630.102)" style="fill:rgb(0,0,0);font-size:12;font-family:Arial Black;font-weight:bold">54 ID(M)</text>
<text x="330px" y="403px" transform="matrix(-1.83691e-016 -1 1 -1.83691e-016 -35.972 680.824)" style="fill:rgb(0,0,0);font-size:12;font-family:Arial Black;font-weight:bold">65 ID(M)(SA)</text>
<text x="86px" y="401px" transform="matrix(1 0 0 1 303 -262)" style="fill:rgb(0,0,0);font-size:12;font-family:Arial Black;font-weight:bold">NFL </text>
<text x="223px" y="254px" transform="matrix(-1.83691e-016 -1 1 -1.83691e-016 -53.694 538.102)" style="fill:rgb(0,0,0);font-size:12;font-family:Arial Black;font-weight:bold">54 ID(M)</text>
<g transform="matrix(-1.83691e-016 -1 1 -1.83691e-016 91 542)"><rect x="237" y="242" width="26" height="16" style="fill:rgb(255,255,255);stroke:none;stroke-width:2"></rect>
<text x="241px" y="255px" style="fill:rgb(0,0,0);font-size:12;font-family:Arial Black;font-weight:bold">XX</text>
</g>
<g transform="matrix(-1.83691e-016 -1 1 -1.83691e-016 -273 532)"><rect x="238" y="434" width="26" height="16" style="fill:rgb(255,255,255);stroke:none;stroke-width:2"></rect>
<text x="242px" y="447px" style="fill:rgb(0,0,0);font-size:12;font-family:Arial Black;font-weight:bold">XX</text>
</g>
<text x="58px" y="71px" transform="matrix(1 0 0 1 0 0) translate(6.97674 75.5814) translate(0 1)" style="fill:rgb(0,0,0);stroke-width:1;font-family:Arial Black;font-weight:bold;font-size:12;     ">(PL</text>
<g id="T1"><text x="103px" y="49px" transform="matrix(1 0 0 1 0 0) translate(-12.7907 98.8372)" style="fill:rgb(0,0,0);stroke-width:1;font-size:12;font-family:Arial Black;font-weight:bold;      ">CHARLIE)</text>
</g>
<text x="275px" y="78px" transform="matrix(1 0 0 1 0 0) translate(77.907 72.093) translate(0 1)" style="fill:rgb(0,0,0);stroke-width:1;font-size:12;font-family:Arial Black;font-weight:bold;     ">(PL</text>
<g id="T2"><text x="359px" y="79px" transform="matrix(1 0 0 1 0 0) translate(17.4419 72.093)" style="fill:rgb(0,0,0);stroke-width:1;font-size:12;font-family:Arial Black;font-weight:bold;      ">CHARLIE)</text>
</g>
</g>
</svg>

</g>
</svg>