<?xml version="1.0"?>
<!DOCTYPE svg PUBLIC "-//W3C//DTD SVG 1.1//EN" "http://www.w3.org/Graphics/SVG/1.1/DTD/svg11.dtd" >
<!-- SVG content generated using Symbology Configuration Management System (SCMS) -->
<!-- Systematic Software Engineering Ltd. - www.systematic.co.uk - do not remove  -->
<svg id="G*FPLR----****X" width="400px" height="400px" viewBox="0 0 400 400">
<g >
<svg viewBox="0 0 400 400" id="_0.G-FPLR--------X" width="400px" height="400px"><g transform="translate(-25 -25) scale(0.9 0.9)"><path d="M159.5 218.5 C159.5 218.5 364 216 398.5 215.5" style="fill:none;stroke:rgb(0,0,0);stroke-width:2" transform="matrix(1 0 0 1 -29 3)"></path>
<path d="M328.5 156.5 C336.107 205.949 326.941 269.971 341.5 318.5" transform="matrix(1 0 0 1 38 3)" style="fill:none;stroke:rgb(0,0,0);stroke-width:2"></path>
<path d="M183.5 165.5 C185.288 188.745 198.744 217.057 196.5 239.5 C193.449 270.014 192.5      297.975 192.5 329.5" transform="matrix(1 0 0 1 -66 1)" style="fill:none;stroke:rgb(0,0,0);stroke-width:2"></path>
<g id="W1"><text x="38px" y="310px" transform="matrix(1 0 0 1 103 -71)" style="fill:rgb(0,0,0);font-family:Arial Black;font-weight:bold;font-size:12">202100Z-</text>
</g>
<g id="W2"><text x="44px" y="332px" transform="matrix(1 0 0 1 89 -78) translate(0 0)" style="fill:rgb(0,0,0);font-family:Arial Black;font-weight:bold;font-size:12">270800Z SEP</text>
</g>
<g id="W3"><text x="374px" y="294px" transform="matrix(1 0 0 1 -82 -55) translate(1.1655 1.1655)" style="fill:rgb(0,0,0);font-family:Arial Black;font-weight:bold;font-size:12">202100Z-</text>
</g>
<g id="W4"><text x="388px" y="308px" transform="matrix(1 0 0 1 -112 -54)" style="fill:rgb(0,0,0);font-family:Arial Black;font-weight:bold;font-size:12">270800Z SEP</text>
</g>
<g transform="matrix(-1.83691e-016 -1 1 -1.83691e-016 -241.384 445.412)"><text x="90px" y="420px" transform="translate(-23 -62)" style="fill:rgb(0,0,0);font-family:Arial Black;font-weight:bold;font-size:12">XIX (NO)</text>
<text x="168px" y="452px" transform="translate(-88 -80)" style="fill:rgb(0,0,0);font-family:Arial Black;font-weight:bold;font-size:12">XXX</text>
<text x="176px" y="474px" transform="translate(-102 -89)" style="fill:rgb(0,0,0);font-family:Arial Black;font-weight:bold;font-size:12">X (US)</text>
</g>
<g transform="matrix(-1.83691e-016 -1 1 -1.83691e-016 21.614 655.41)"><text x="402px" y="370px" transform="translate(-113 -20)" style="fill:rgb(0,0,0);font-family:Arial Black;font-weight:bold;font-size:12">X (US)</text>
<text x="418px" y="400px" transform="translate(-123 -36)" style="fill:rgb(0,0,0);font-family:Arial Black;font-weight:bold;font-size:12">XXX</text>
<text x="414px" y="420px" transform="translate(-124 -42)" style="fill:rgb(0,0,0);font-family:Arial Black;font-weight:bold;font-size:12">V (UK)</text>
</g>
<g transform="matrix(-1.83691e-016 -1 1 -1.83691e-016 45.45 225.246)"><text x="92px" y="144px" transform="translate(-26 -69)" style="fill:rgb(0,0,0);font-family:Arial Black;font-weight:bold;font-size:12">XXX</text>
<text x="98px" y="178px" transform="translate(-35 -89)" style="fill:rgb(0,0,0);font-family:Arial Black;font-weight:bold;font-size:12">X(US)</text>
<text x="62px" y="92px" transform="translate(-8 -31)" style="fill:rgb(0,0,0);font-family:Arial Black;font-weight:bold;font-size:12">XIXI (NO)</text>
</g>
<g transform="matrix(-1.83691e-016 -1 1 -1.83691e-016 32.614 424.41)"><text x="284px" y="350px" transform="translate(-18 -26)" style="fill:rgb(0,0,0);font-family:Arial Black;font-weight:bold;font-size:12">X (US)</text>
<text x="304px" y="412px" transform="translate(-38 -61)" style="fill:rgb(0,0,0);font-family:Arial Black;font-weight:bold;font-size:12">V (UK)</text>
<text x="268px" y="348px" transform="translate(4 -10)" style="fill:rgb(0,0,0);font-size:12;font-family:Arial Black;font-weight:bold">XXX</text>
</g>
<g transform="matrix(1 0 0 1 -19 -210)"><text x="192px" y="48px" transform="translate(58 50) translate(0 186)" style="fill:rgb(0,0,0);font-family:Arial Black;font-weight:bold;font-size:12">III</text>
<g><rect x="146" y="26" width="82" height="76" transform="rotate(44.4754 187 64) translate(250.45 140.892) translate(226.121 103.844) scale(1 0.874641) translate(-226.121 -103.844) translate(149.509 106.086) scale(0.809673 1) translate(-149.509 -106.086)" style="fill:rgb(255,128,128);stroke:rgb(0,0,0);stroke-width:2"></rect>
<path d="M71 46 C89.2252 46 105 41.9249 104 57 C103 72.0751 89.2252 68 71 68 C52.7748 68 37        72.0751 38 57 C39 41.9249 52.7748 46 71 46 z" transform="translate(9 6) translate(38 57) scale(0.863636 1) translate(-38 -57) translate(5.78947 1) translate(121.579 -1) translate(94.9474 275) translate(-11.5789 2)" style="fill:rgb(255,128,128);stroke:rgb(0,0,0);stroke-width:2"></path>
</g>
</g>
<path d="M232.5 342.5 C244.125 329.583 250.752 321.241 254.167 304.167" style="fill:none;stroke:rgb(0,0,0);stroke-width:2" transform="matrix(1 0 0 1 -29 3)"></path>
<path d="M298.5 303.5 C301.236 318.545 308.691 330.882 315.5 344.5" style="fill:none;stroke:rgb(0,0,0);stroke-width:2" transform="matrix(1 0 0 1 -29 3)"></path>
<line x1="254" y1="304" x2="229.367" y2="303.856" style="fill:rgb(0,0,0);stroke:rgb(0,0,0);stroke-width:2" transform="matrix(1 0 0 1 -29 3)"></line>
<line x1="230" y1="304" x2="278.367" y2="249.189" style="fill:rgb(0,0,0);stroke:rgb(0,0,0);stroke-width:2" transform="matrix(1 0 0 1 -29 3)"></line>
<line x1="298.367" y1="304.189" x2="324.367" y2="304.189" style="fill:rgb(0,0,0);stroke:rgb(0,0,0);stroke-width:2" transform="matrix(1 0 0 1 -29 3)"></line>
<line x1="324" y1="304" x2="277.7" y2="249.189" style="fill:rgb(0,0,0);stroke:rgb(0,0,0);stroke-width:2" transform="matrix(1 0 0 1 -29 3)"></line>
<g transform="matrix(1 0 0 1 -10 -32)"><text x="358px" y="452px" transform="translate(-108 -64)" style="fill:rgb(0,0,0);font-family:Arial Black;font-weight:bold;font-size:12">XX</text>
<rect x="212" y="390" width="90" height="56" style="fill:rgb(128,224,255);stroke:rgb(0,0,0);stroke-width:2"></rect>
<path d="M259 408 C277.225 408 292 403.373 292 420 C292 436.627 277.225 432 259 432 C240.775       432 226 435.627 226 420 C226 404.373 240.775 408 259 408 z" transform="translate(0 -4) translate(-1 4)" style="fill:rgb(128,224,255);stroke:rgb(0,0,0);stroke-width:2"></path>
</g>
<text x="4px" y="220px" transform="matrix(1 0 0 1 0 0) translate(47.6744 3.48837) translate(0 1) translate(1 0)" style="fill:rgb(0,0,0);stroke-width:1;font-family:Arial Black;font-weight:bold;font-size:12;     ">PL</text>
<g id="T1"><text x="49px" y="271px" transform="matrix(1 0 0 1 0 0) translate(27.907 -46.5116)" style="fill:rgb(0,0,0);stroke-width:1;font-family:Arial Black;font-weight:bold;font-size:12;      ">DELTA</text>
</g>
<text x="418px" y="230px" transform="matrix(1 0 0 1 0 0) translate(-41.8605 -8.13953)" style="fill:rgb(0,0,0);stroke-width:1;font-family:Arial Black;font-weight:bold;font-size:12;     ">PL</text>
<g id="T2"><text x="418px" y="249px" transform="matrix(1 0 0 1 0 0) translate(-19.7674 -25.5814) translate(0 0) translate(0 -1)" style="fill:rgb(0,0,0);stroke-width:1;font-family:Arial Black;font-weight:bold;font-size:12;      ">DELTA</text>
</g>
<text x="137px" y="213px" transform="matrix(1 0 0 1 0 0)" style="fill:rgb(0,0,0);stroke-width:1;font-family:Arial Black;font-weight:bold;font-size:12;     ">RFL</text>
<g id="T3" transform="translate(-10.4651 3.48837)"><text x="172px" y="209px" transform="matrix(1 0 0 1 0 0) translate(-2.32558 5.81395) translate(11.6279 -4.65116)" style="fill:rgb(0,0,0);stroke-width:1;font-family:Arial Black;font-weight:bold;font-size:12;      ">X</text>
<text x="194px" y="210px" transform="matrix(1 0 0 1 0 0)" style="fill:rgb(0,0,0);stroke-width:1;font-family:Arial Black;font-weight:bold;font-size:12;      ">CORPS</text>
</g>
<text x="291px" y="208px" transform="matrix(1 0 0 1 0 0) translate(-4.65116 2.32558) translate(0 0) translate(-1 0) translate(-1 0) translate(-1 0) translate(-1 0) translate(-1 0) translate(-1 0) translate(-1 0) translate(-1 0) translate(-1 0) translate(-1 0) translate(-1 0) translate(0 1) translate(0 1) translate(0 -1)" style="fill:rgb(0,0,0);stroke-width:1;font-family:Arial Black;font-weight:bold;font-size:12;     ">RFL</text>
<g id="T4" transform="translate(8.13953 25.5814)"><text x="327px" y="206px" transform="matrix(1 0 0 1 0 0) translate(-29.0698 -19.7674)" style="fill:rgb(0,0,0);stroke-width:1;font-family:Arial Black;font-weight:bold;font-size:12;      ">X</text>
<text x="312px" y="180px" transform="matrix(1 0 0 1 0 0) translate(-1.16279 5.81395)" style="fill:rgb(0,0,0);stroke-width:1;font-family:Arial Black;font-weight:bold;font-size:12;      ">CORPS</text>
</g>
</g>
</svg>

</g>
</svg>