<?xml version="1.0"?>
<!DOCTYPE svg PUBLIC "-//W3C//DTD SVG 1.1//EN" "http://www.w3.org/Graphics/SVG/1.1/DTD/svg11.dtd" >
<!-- SVG content generated using Symbology Configuration Management System (SCMS) -->
<!-- Systematic Software Engineering Ltd. - www.systematic.co.uk - do not remove  -->
<svg id="G*GPOLC---****X" width="400px" height="400px" viewBox="0 0 400 400">
<g >
<svg viewBox="0 0 400 400" id="_0.G-GPOLC-------X" width="400px" height="400px"><g transform="translate(-205 -160) scale(1.5 1.5)"><line x1="164" y1="205" x2="296" y2="205" style="fill:rgb(0,0,0);stroke:rgb(0,0,0);stroke-width:2" transform="matrix(1 0 0 1 43 6)"></line>
<text x="214px" y="343px" transform="matrix(1 0 0 1 -73 -128) translate(20 -1)" style="fill:rgb(0,0,0);font-family:Arial Black;font-weight:bold;font-size:12">LD/LC</text>
<text x="218px" y="258px" transform="matrix(1 0 0 1 124 -42)" style="fill:rgb(0,0,0);font-family:Arial Black;font-weight:bold;font-size:12">LD/LC</text>
<text x="102px" y="76px" transform="matrix(1 0 0 1 0 0) translate(48 152)" style="fill:rgb(0,0,0);stroke-width:1;font-family:Arial Black;font-weight:bold;font-size:12;     ">(PL</text>
<g id="T1" transform="translate(-11 -27) translate(48 152)"><rect x="136" y="91" width="16" height="14" transform="matrix(1 0 0 1 0 0)" style="fill:rgb(255,255,255);stroke:rgb(0,0,0);stroke-width:2"></rect>
<text x="140px" y="103px" transform="matrix(1 0 0 1 0 0)" style="fill:rgb(0,0,0);stroke-width:1;font-family:Arial Black;font-weight:bold;font-size:12;      ">T</text>
</g>
<text x="148px" y="47px" transform="matrix(1 0 0 1 0 0) translate(-3 28) translate(48 152)" style="fill:rgb(0,0,0);stroke-width:1;font-family:Arial Black;font-weight:bold;font-size:12;     ">)</text>
<text x="316px" y="91px" transform="matrix(1 0 0 1 0 0) translate(26 139)" style="fill:rgb(0,0,0);stroke-width:1;font-family:Arial Black;font-weight:bold;font-size:12;     ">(PL</text>
<g id="T2" transform="translate(6 -38) translate(1 1) translate(0 1) translate(26 139)"><rect x="136" y="91" width="16" height="14" transform="matrix(1 0 0 1 106 152) translate(90 -127)" style="fill:rgb(255,255,255);stroke:rgb(0,0,0);stroke-width:2"></rect>
<text x="336px" y="128px" transform="matrix(1 0 0 1 0 0)" style="fill:rgb(0,0,0);stroke-width:1;font-family:Arial Black;font-weight:bold;font-size:12;      ">T</text>
</g>
<text x="374px" y="104px" transform="matrix(1 0 0 1 0 0) translate(-18 -14) translate(26 139)" style="fill:rgb(0,0,0);stroke-width:1;font-family:Arial Black;font-weight:bold;font-size:12;     ">)</text>
<g id="PT.%201" transform="translate(-10 108) translate(1 0)"><text x="230px" y="160px" transform="matrix(1 0 0 1 0 0)" style="fill:rgb(0,0,0);stroke-width:1;font-family:Arial Black;font-weight:bold;font-size:12;      ">PT. 1</text>
</g>
<g id="PT.%202" transform="translate(-50 90) translate(0 1) translate(0 1) translate(0 1)"><text x="336px" y="175px" transform="matrix(1 0 0 1 0 0)" style="fill:rgb(0,0,0);stroke-width:1;font-family:Arial Black;font-weight:bold;font-size:12;      ">PT. 2</text>
</g>
<line x1="208" y1="221" x2="208" y2="249" transform="matrix(1 0 0 1 0 0)" style="fill:rgb(0,0,0);stroke:rgb(0,0,0);stroke-width:2"></line>
<line x1="207.798" y1="248.298" x2="220" y2="261" transform="matrix(1 0 0 1 0 0)" style="fill:rgb(0,0,0);stroke:rgb(0,0,0);stroke-width:2"></line>
<line x1="336" y1="222" x2="336" y2="244" transform="matrix(1 0 0 1 0 0)" style="fill:rgb(0,0,0);stroke:rgb(0,0,0);stroke-width:2"></line>
<line x1="336.231" y1="243.298" x2="322" y2="258" transform="matrix(1 0 0 1 0 0)" style="fill:rgb(0,0,0);stroke:rgb(0,0,0);stroke-width:2"></line>
<polygon points="101,67.4019 104,72.5981 98,72.5981" transform="matrix(1 0 0 2.3094 0 -91.6581) translate(108 67.117) translate(-1 0)" style="fill:rgb(0,0,0);stroke:rgb(0,0,0);stroke-width:2"></polygon>
<polygon points="101,67.4019 104,72.5981 98,72.5981" transform="matrix(1 0 0 2.3094 149 90.3419) translate(85 -12.1244) translate(1 0)" style="fill:rgb(0,0,0);stroke:rgb(0,0,0);stroke-width:2"></polygon>
</g>
</svg>

</g>
</svg>