<?xml version="1.0"?>
<!DOCTYPE svg PUBLIC "-//W3C//DTD SVG 1.1//EN" "http://www.w3.org/Graphics/SVG/1.1/DTD/svg11.dtd" >
<!-- SVG content generated using Symbology Configuration Management System (SCMS) -->
<!-- Systematic Software Engineering Ltd. - www.systematic.co.uk - do not remove  -->
<svg id="G*OPSBW---****X" width="400px" height="400px" viewBox="0 0 400 400">
<g >
<svg viewBox="0 0 400 400" id="_0.G-OPSBW-------X" width="400px" height="400px"><g transform="translate(-40 -30) scale(1.25 1.25)"><g transform="translate(24.125 0) scale(1 3.58201) translate(-24.125 0) translate(0 11.8125) scale(5.22798 1) translate(0 -11.8125) translate(11.668 33.7799)"><path d="M25.25 13.25 L25.25 23.625 L23.25 23.625 L23.25 13.25 L0 13.25 L0 11.375 L23.25 11.375       L23.25 0 L25.25 0 L25.25 11.375 L48.25 11.375 L48.25 13.25 zM5.5 6.125       L7.5 6.125 L7.5 18.5 L5.5 18.5 zM40.375 6.125 L42.375 6.125 L42.375 18.5       L40.375 18.5 z"></path>
</g>
<g transform="rotate(37.1847 220 192)"><line x1="208" y1="192" x2="246" y2="192" transform="matrix(1 0 0 1 0 0) translate(208 192) scale(1.92488 1.91437) translate(-208 -192)" style="fill:rgb(0,0,0);stroke:rgb(0,0,0);stroke-width:2"></line>
<polygon points="97,145 105.66,160 88.3397,160" transform="matrix(-1.90897e-016 -1.03923 1 -1.83691e-016 -55 252.805) translate(-38.49 104)" style="fill:rgb(0,0,0);stroke:rgb(0,0,0);stroke-width:2"></polygon>
</g>
<g id="CENTER%20POINT" transform="translate(102 -84)"><text x="172px" y="312px" transform="matrix(1 0 0 1 0 0)" style="fill:rgb(0,0,0);stroke-width:1;font-family:Arial Black;font-weight:bold;font-size:12;      ">CENTER</text>
<text x="174px" y="338px" transform="matrix(1 0 0 1 0 0) translate(4 -15)" style="fill:rgb(0,0,0);stroke-width:1;font-family:Arial Black;font-weight:bold;font-size:12;      ">POINT</text>
</g>
</g>
</svg>

</g>
</svg>