<?xml version="1.0"?>
<!DOCTYPE svg PUBLIC "-//W3C//DTD SVG 1.1//EN" "http://www.w3.org/Graphics/SVG/1.1/DTD/svg11.dtd" >
<!-- SVG content generated using Symbology Configuration Management System (SCMS) -->
<!-- Systematic Software Engineering Ltd. - www.systematic.co.uk - do not remove  -->
<svg id="SHGPEWT---*****" width="400px" height="400px" viewBox="0 0 400 400">
<g >
<svg viewBox="0 0 400 400" id="_0.SHG-E----------" width="400px" height="400px"><polyline points="200,373 373,200 200,27 27,200 200,373" style="stroke-linecap:square;fill:rgb(255,128,128);stroke:rgb(0,0,0);stroke-width:10"></polyline>
</svg>

</g>
<g transform="translate(158 91) scale(6.5 6)" >
<svg viewBox="0 0 400 400" id="_1.S-G-EWT--------" width="400px" height="400px"><path d="M1.438 7.887 L0 6.52 L6.408 0 L12.824 6.311 L11.289 7.872 L6.4 2.99 zM12.023 34.512
			L10.511 35.875 L6.407 31.863 L2.376 35.875 L0.792 34.512 L6.48 28.84 zM11.943
			11.117 L10.537 12.541 L7.375 9.516 L7.375 30.352 L5.375 30.352 L5.375 9.609
			L2.391 12.468 L0.877 11.114 L6.41 5.514 z"></path>
</svg>

</g>
</svg>