<?xml version="1.0"?>
<!DOCTYPE svg PUBLIC "-//W3C//DTD SVG 1.1//EN" "http://www.w3.org/Graphics/SVG/1.1/DTD/svg11.dtd" >
<!-- SVG content generated using Symbology Configuration Management System (SCMS) -->
<!-- Systematic Software Engineering Ltd. - www.systematic.co.uk - do not remove  -->
<svg id="G*TPO-----****X" width="400px" height="400px" viewBox="0 0 400 400">
<g >
<svg viewBox="0 0 400 400" id="_0.G-TPO---------X" width="400px" height="400px"><g transform="translate(-220 -160) scale(1.75 1.75)"><path d="M193.336 206.067 C206.51 101.629 355.935 119.892 351.336 216.467 C347.89 288.819      241.76 316.115 202.136 246.067" style="fill:none;stroke:rgb(0,0,0);stroke-width:2" transform="matrix(1 0 0 1 -12 16)"></path>
<ellipse cx="271.5" cy="206" rx="1.5" ry="2" transform="matrix(1.13725 0 0 0.838237 -47.2797 54.2741)" style="fill:rgb(0,0,0);stroke:rgb(0,0,0);stroke-width:1"></ellipse>
<line x1="84.9778" y1="91.1326" x2="41.8349" y2="78.2754" transform="matrix(1 0 0 1 128 179)" style="fill:rgb(0,0,0);stroke:rgb(0,0,0);stroke-width:2"></line>
<line x1="55.8349" y1="103.99" x2="80.9778" y2="73.4183" transform="matrix(1 0 0 1 122.286 174.143)" style="fill:rgb(0,0,0);stroke:rgb(0,0,0);stroke-width:2"></line>
<line x1="172" y1="217" x2="157.823" y2="194.518" transform="matrix(1 0 0 1 0 0)" style="fill:rgb(0,0,0);stroke:rgb(0,0,0);stroke-width:2"></line>
<line x1="158" y1="195" x2="158" y2="157" transform="matrix(1 0 0 1 0 0)" style="fill:rgb(0,0,0);stroke:rgb(0,0,0);stroke-width:2"></line>
<polygon points="61,95.6699 66,104.33 56,104.33" transform="matrix(-0.751819 0.659369 -0.761374 -0.868126 294.513 261.867)" style="fill:rgb(0,0,0);stroke:rgb(0,0,0);stroke-width:2"></polygon>
<g id="PT.%202%20(START%20POINT)" transform="translate(56 40)"><text x="80px" y="62px" transform="matrix(1 0 0 1 0 0) translate(6 15)" style="fill:rgb(0,0,0);stroke-width:1;font-family:Arial Black;font-weight:bold;font-size:12;      ">PT. 2</text>
<text x="78px" y="91px" transform="matrix(1 0 0 1 0 0)" style="fill:rgb(0,0,0);stroke-width:1;font-family:Arial Black;font-weight:bold;font-size:12;      ">(START</text>
<text x="92px" y="112px" transform="matrix(1 0 0 1 0 0) translate(-13 -6)" style="fill:rgb(0,0,0);stroke-width:1;font-family:Arial Black;font-weight:bold;font-size:12;      ">POINT)</text>
</g>
<g id="PT.%201%20(CENTER%20POINT)" transform="translate(-5 174)"><text x="250px" y="68px" transform="matrix(1 0 0 1 0 0)" style="fill:rgb(0,0,0);stroke-width:1;font-family:Arial Black;font-weight:bold;font-size:12;      ">PT. 1</text>
<text x="230px" y="77px" transform="matrix(1 0 0 1 0 0) translate(-17 6) translate(0 -4)" style="fill:rgb(0,0,0);stroke-width:1;font-family:Arial Black;font-weight:bold;font-size:12;      ">(CENTER POINT)</text>
</g>
</g>
</svg>

</g>
</svg>