<?xml version="1.0"?>
<!DOCTYPE svg PUBLIC "-//W3C//DTD SVG 1.1//EN" "http://www.w3.org/Graphics/SVG/1.1/DTD/svg11.dtd" >
<!-- SVG content generated using Symbology Configuration Management System (SCMS) -->
<!-- Systematic Software Engineering Ltd. - www.systematic.co.uk - do not remove  -->
<svg id="WA--OT---------" width="400px" height="400px" viewBox="0 0 400 400">
<g >
<svg viewBox="0 0 400 400" id="_0.WA--OT---------" width="400px" height="400px"><g transform="translate(110 20) scale(7 7)"><path d="M13.607 27.125 L21.488 36.328 L20.447 37.228 C17.998 34.326 14.998 30.917 11.447      26.999 C8.887 26.953 5.07 26.883 0 26.787 L0.072 25.375 L10.152 25.375 C10.007      25.184 7.822 22.723 3.599 17.996 C1.199 15.295 -0.001 12.762 -0.001 10.398      C0 8.904 0.539 7.266 1.619 5.48 C2.699 3.694 4.08 2.369 5.76 1.5 L6.48 2.732      C4.957 3.699 3.766 4.906 2.91 6.355 C2.053 7.804 1.625 9.158 1.625 10.412      C1.625 12.103 2.393 13.939 3.93 15.92 C5.323 17.467 6.715 19.012 8.11 20.557      C8.971 21.635 10.335 23.276 12.202 25.479 C16.079 25.528 20.1 25.577 24.265      25.625 L24.265 27.125 zM12.33 52.625 C10.115 52.625 7.494 51.789 4.465 50.113      L5.188 48.82 C7.02 49.804 8.37 50.437 9.237 50.718 C9.91 50.906 10.947 51      12.346 51 C15.19 51 17.598 50.045 19.575 48.131 C21.358 46.361 22.251 44.33      22.251 42.033 C22.251 40.838 21.698 39.258 20.593 37.297 L21.833 36.58 C23.194      38.932 23.876 40.754 23.876 42.049 C23.876 44.83 22.733 47.289 20.448 49.424      C18.163 51.559 15.455 52.625 12.33 52.625 zM6.48 2.885 L5.76 1.594 L10.512      0 L10.512 1.822 zM12.672 1.658 L9.865 1.586 L8.568 0 L13.031 0.145 C13.943      0.145 15.142 0.469 16.631 1.118 C18.12 1.767 19.104 2.38 19.584 2.956 L18.432      3.894 C18.047 3.414 17.196 2.933 15.875 2.453 C14.554 1.973 13.488 1.707      12.672 1.658 zM21.961 28.877 L21.291 27.674 L23.475 26.334 L21.108 24.682      L21.889 23.549 L26.424 26.428 z" style="fill:rgb(128,98,16)"></path>
</g>
</svg>

</g>
</svg>