<?xml version="1.0"?>
<!DOCTYPE svg PUBLIC "-//W3C//DTD SVG 1.1//EN" "http://www.w3.org/Graphics/SVG/1.1/DTD/svg11.dtd" >
<!-- SVG content generated using Symbology Configuration Management System (SCMS) -->
<!-- Systematic Software Engineering Ltd. - www.systematic.co.uk - do not remove  -->
<svg id="G*MPOMD---****X" width="400px" height="400px" viewBox="0 0 400 400">
<g >
<svg viewBox="0 0 400 400" id="_0.G-MPOMD-------X" width="400px" height="400px"><g transform="translate(-190 -240) scale(2 2)"><circle cx="218" cy="204.5" r="34" transform="matrix(1 0 0 1 21 -22)" style="fill:rgb(0,0,0);stroke:rgb(0,0,0);stroke-width:2"></circle>
<line x1="258" y1="266" x2="258" y2="341" style="fill:rgb(0,0,0);stroke:rgb(0,0,0);stroke-width:2" transform="matrix(1 0 0 1 -19 -49)"></line>
<line x1="258.231" y1="340.395" x2="274" y2="321" style="fill:rgb(0,0,0);stroke:rgb(0,0,0);stroke-width:2" transform="matrix(1 0 0 1 -19 -49)"></line>
<line x1="162" y1="211" x2="226" y2="189" transform="matrix(1 0 0 1 0 0)" style="fill:rgb(128,128,128);stroke:rgb(128,128,128);stroke-width:2"></line>
<polygon points="56,54.0718 64,67.9282 48,67.9282" transform="matrix(0.342769 0.93942 -1.22034 0.445269 281.775 108.584)" style="fill:rgb(128,128,128);stroke:rgb(128,128,128);stroke-width:2"></polygon>
<g id="CENTER%20POINT" transform="translate(9 98)"><text x="98px" y="108px" transform="matrix(1 0 0 1 0 0)" style="fill:rgb(0,0,0);stroke-width:1;font-family:Arial Black;font-weight:bold;font-size:12;      ">CENTER</text>
<text x="110px" y="130px" transform="matrix(1 0 0 1 0 0) translate(-5 -10)" style="fill:rgb(0,0,0);stroke-width:1;font-family:Arial Black;font-weight:bold;font-size:12;      ">POINT</text>
</g>
</g>
</svg>

</g>
</svg>