<?xml version="1.0"?>
<!DOCTYPE svg PUBLIC "-//W3C//DTD SVG 1.1//EN" "http://www.w3.org/Graphics/SVG/1.1/DTD/svg11.dtd" >
<!-- SVG content generated using Symbology Configuration Management System (SCMS) -->
<!-- Systematic Software Engineering Ltd. - www.systematic.co.uk - do not remove  -->
<svg id="SNGPEWDM--*****" width="400px" height="400px" viewBox="0 0 400 400">
<g >
<svg viewBox="0 0 400 400" id="_0.SNG-E----------" width="400px" height="400px"><rect x="68" y="68" width="264" height="264" style="fill:rgb(170,255,170);stroke:rgb(0,0,0);stroke-width:10"></rect>
</svg>

</g>
<g transform="translate(156 96) scale(6.5 5.9)" >
<svg viewBox="0 0 400 400" id="_1.S-G-EWDM-------" width="400px" height="400px"><path d="M0 7.125 L1.75 7.125 L1.75 23.375 L0 23.375 zM5.75 14.125 L5.75 12.004 L1.75 12.004
			L1.75 14.125 zM5.75 18.34 L5.75 16.25 L1.75 16.25 L1.75 18.34 zM7.625 0 L7.625
			35.375 L5.75 35.303 L5.75 0 zM11.25 14.125 L11.25 12.004 L7.625 12.004 L7.625
			14.125 zM11.25 18.484 L11.25 16.25 L7.625 16.25 L7.625 18.484 zM11.25 7.125
			L13.125 7.125 L13.125 23.375 L11.25 23.375 z"></path>
</svg>

</g>
</svg>