<?xml version="1.0"?>
<!DOCTYPE svg PUBLIC "-//W3C//DTD SVG 1.1//EN" "http://www.w3.org/Graphics/SVG/1.1/DTD/svg11.dtd" >
<!-- SVG content generated using Symbology Configuration Management System (SCMS) -->
<!-- Systematic Software Engineering Ltd. - www.systematic.co.uk - do not remove  -->
<svg id="WA--PFS--------" width="400px" height="400px" viewBox="0 0 400 400">
<g >
<svg viewBox="0 0 400 400" id="_0.WA--PFS--------" width="400px" height="400px"><g transform="translate(0 50) scale(0.8 0.8)"><g transform="translate(-420 -500) scale(2.7 3)"><line x1="156" y1="236" x2="339.389" y2="236.169" style="fill:rgb(0,0,0);stroke:rgb(0,0,0);stroke-width:1"></line>
<path d="M164.692 235.121 C165.15 222.77 193.056 219.461 194.146 235.849" transform="matrix(1 0 0 -1 5.38743 460.443) translate(-1 -11) translate(0.4 0) translate(0.181818 1.27273) translate(164.058 224.708) scale(0.996353 0.950135) translate(-164.058 -224.708) translate(194.521 224.708) scale(1 1.05248) translate(-194.521 -224.708) translate(164.058 224.708) scale(1 0.930189) translate(-164.058 -224.708) translate(0.223036 0.836151) translate(164.058 224.708) scale(0.996339 0.882063) translate(-164.058 -224.708) rotate(358.074 179.289 230.278) translate(-0.37201 1.07147) translate(0.0136563 -0.406034) translate(-0.0136563 0.406034) translate(0.0182084 -0.541379) translate(0.0753124 -0.241363)" style="fill:rgb(255,0,0);stroke:rgb(255,0,0);stroke-width:2"></path>
<path d="M164.692 235.121 C165.15 222.77 193.056 219.461 194.146 235.849" transform="matrix(1 0 0 -1 94.8348 460.063) translate(0 -11) translate(1.2 -1.6) translate(0 1.2) rotate(356.609 179.419 230.278) rotate(1.73013 179.722 230.376) translate(-0.0128834 0.444258) translate(0.0917393 0.669607) translate(0.0128834 -0.444258) translate(-0.125547 -0.27042)" style="fill:rgb(255,0,0);stroke:rgb(255,0,0);stroke-width:2"></path>
<polygon points="195,71.7776 212,101.222 178,101.222" transform="matrix(1 0 0 1.25659 0 -22.1947) translate(20 104.251) translate(16.4 -0.954969) translate(-0.333333 1.76846) translate(-0.222222 -0.618961) translate(0 0.265269) translate(0.333333 -0.530538)" style="fill:rgb(0,0,255);stroke:rgb(0,0,255);stroke-width:1"></polygon>
<polygon points="195,71.7776 212,101.222 178,101.222" transform="matrix(1 0 0 1.25659 55 141.805) translate(27 -27.8532) translate(42.4 0.636644) translate(-0.444444 1.85688) translate(-0.222222 -0.353691) translate(0 -0.265268) translate(-0.111111 0.265268) translate(0.333333 -0.795805) translate(0.119261 0.616903) translate(0.119261 -0.189816) translate(0.119261 -0.23727) translate(0.119261 0.142362) translate(0.119261 -0.142362) translate(0.119261 0.189816)" style="fill:rgb(0,0,255);stroke:rgb(0,0,255);stroke-width:1"></polygon>
</g>
</g>
</svg>

</g>
</svg>