<?xml version="1.0"?>
<!DOCTYPE svg PUBLIC "-//W3C//DTD SVG 1.1//EN" "http://www.w3.org/Graphics/SVG/1.1/DTD/svg11.dtd" >
<!-- SVG content generated using Symbology Configuration Management System (SCMS) -->
<!-- Systematic Software Engineering Ltd. - www.systematic.co.uk - do not remove  -->
<svg id="G*SPASD---****X" width="400px" height="400px" viewBox="0 0 400 400">
<g >
<svg viewBox="0 0 400 400" id="_0.G-SPASD-------X" width="400px" height="400px"><path d="M271 102 C381.558 93 423 34.8618 407 195.5 C391 356.138 345.558 289 271 289 C196.442
			289 164 292.138 136 195.5 C108 98.862 160.442 111 271 102 z" style="fill:rgb(255,255,255);stroke:rgb(0,0,0);stroke-width:2" transform="matrix(1 0 0 1 -69.4346 6.36928)"></path>
<text x="155px" y="195px" style="fill:rgb(0,0,0);font-size:45;font-family:Arial;font-weight:bold" transform="matrix(1 0 0 1 -4.05 0)">DSA</text>
</svg>

</g>
<g transform="matrix(0.6 0 0 0.6 80 108)" >
<svg viewBox="0 0 400 400" id="_1.G-----------PTS" width="400px" height="400px"><rect x="175" y="175" width="50" height="50" style="fill:none;stroke:rgb(0,0,0);stroke-width:5" transform="translate(0 0) translate(0 0)"></rect>
<text x="189px" y="213px" style="fill:rgb(0,0,0);stroke:rgb(0,0,0);font-size:36;font-family:Arial">T</text>
</svg>

</g>
</svg>