<?xml version="1.0"?>
<!DOCTYPE svg PUBLIC "-//W3C//DTD SVG 1.1//EN" "http://www.w3.org/Graphics/SVG/1.1/DTD/svg11.dtd" >
<!-- SVG content generated using Symbology Configuration Management System (SCMS) -->
<!-- Systematic Software Engineering Ltd. - www.systematic.co.uk - do not remove  -->
<svg id="G*MPOEF---****X" width="400px" height="400px" viewBox="0 0 400 400">
<g >
<svg viewBox="0 0 400 400" id="_0.G-MPOEF-------X" width="400px" height="400px"><g transform="translate(-290 -300) scale(2 2)"><polyline points="157.7,195.4 190.1,195.4 197.7,219.4 215.7,175.4 228.9,219 240.9,175.8 249.3,196.6      293.3,196.6" style="stroke:rgb(0,0,0);stroke-width:2;fill:rgb(255,255,255)" transform="matrix(1 0 0 1 40 37)"></polyline>
<polygon points="118,73.1077 130,93.8923 106,93.8923" transform="matrix(-1.83691e-016 -1 1.68394 -3.09324e-016 38.2331 348.658)" style="fill:rgb(0,0,0);stroke:rgb(0,0,0);stroke-width:2"></polygon>
<g id="PT.%201" transform="translate(112 -42)"><text x="72px" y="325px" transform="matrix(1 0 0 1 0 0)" style="fill:rgb(0,0,0);stroke-width:1;font-family:Arial Black;font-weight:bold;font-size:12;      ">PT. 1</text>
</g>
<g id="PT.%202" transform="translate(40 -66)"><text x="242px" y="344px" transform="matrix(1 0 0 1 0 0)" style="fill:rgb(0,0,0);stroke-width:1;font-family:Arial Black;font-weight:bold;font-size:12;      ">PT. 2</text>
</g>
<line x1="158" y1="240" x2="158" y2="265" transform="matrix(1 0 0 1 0 0)" style="fill:rgb(0,0,0);stroke:rgb(0,0,0);stroke-width:2"></line>
<line x1="157.539" y1="264.125" x2="180" y2="279" transform="matrix(1 0 0 1 0 0)" style="fill:rgb(0,0,0);stroke:rgb(0,0,0);stroke-width:2"></line>
<line x1="334" y1="243" x2="334" y2="263" transform="matrix(1 0 0 1 0 0)" style="fill:rgb(0,0,0);stroke:rgb(0,0,0);stroke-width:2"></line>
<line x1="334.309" y1="262.125" x2="320" y2="273" transform="matrix(1 0 0 1 0 0)" style="fill:rgb(0,0,0);stroke:rgb(0,0,0);stroke-width:2"></line>
<polygon points="61,75.1699 66,83.8301 56,83.8301" transform="matrix(1 0 0 1.96299 0 -76.5578) translate(98 83.0366) translate(-1 0) translate(0 0.509427) translate(0 0.509427)" style="fill:rgb(0,0,0);stroke:rgb(0,0,0);stroke-width:2"></polygon>
<polygon points="61,75.1699 66,83.8301 56,83.8301" transform="matrix(1 0 0 1.96299 189 95.4422) translate(83 -3.56599) translate(1 0) translate(0 0.509427)" style="fill:rgb(0,0,0);stroke:rgb(0,0,0);stroke-width:2"></polygon>
</g>
</svg>

</g>
</svg>