<?xml version="1.0"?>
<!DOCTYPE svg PUBLIC "-//W3C//DTD SVG 1.1//EN" "http://www.w3.org/Graphics/SVG/1.1/DTD/svg11.dtd" >
<!-- SVG content generated using Symbology Configuration Management System (SCMS) -->
<!-- Systematic Software Engineering Ltd. - www.systematic.co.uk - do not remove  -->
<svg id="WA--FV---------" width="400px" height="400px" viewBox="0 0 400 400">
<g >
<svg viewBox="0 0 400 400" id="_0.WA--FV---------" width="400px" height="400px"><g transform="scale(0.8 0.8)"><g style="fill:rgb(0,0,255)" transform="translate(-150 -250) scale(1.55 2)"><path d="M161.5 213 C161.5 174.476 217.808 171.918 213.5 215" transform="matrix(0.981686 0 0 0.639396 -28.6694 76.1339)" style="fill:none;stroke:rgb(64,64,255);stroke-width:4"></path>
<path d="M224.5 265 C224.5 226.476 280.808 223.918 276.5 267" transform="matrix(0.981686 0 0 0.639396 13.5431 45.4428)" style="fill:none;stroke:rgb(64,64,255);stroke-width:4"></path>
<path d="M224.5 265 C224.5 226.476 280.808 223.918 276.5 267" transform="matrix(0.981686 0 0 0.639396 115.638 45.4428)" style="fill:none;stroke:rgb(64,64,255);stroke-width:4"></path>
<path d="M224.5 265 C224.5 226.476 280.808 223.918 276.5 267" transform="matrix(0.981686 0 0 0.639396 64.5908 46.0822)" style="fill:none;stroke:rgb(64,64,255);stroke-width:4"></path>
<path d="M224.5 265 C224.5 226.476 280.808 223.918 276.5 267" transform="matrix(0.981686 0 0 0.639396 -37.5045 44.164)" style="fill:none;stroke:rgb(64,64,255);stroke-width:4"></path>
<path d="M161.5 213 C161.5 174.476 217.808 171.918 213.5 215" transform="matrix(0.981686 0 0 -0.639396 -35.5412 415.276)" style="fill:none;stroke:rgb(64,64,255);stroke-width:4"></path>
<path d="M224.5 265 C224.5 226.476 280.808 223.918 276.5 267" transform="matrix(0.981686 0 0 -0.639396 6.67133 445.967)" style="fill:none;stroke:rgb(64,64,255);stroke-width:4"></path>
<path d="M224.5 265 C224.5 226.476 280.808 218.918 276.5 262" transform="matrix(0.981686 0 0 -0.639396 108.767 445.967)" style="fill:none;stroke:rgb(64,64,255);stroke-width:4"></path>
<path d="M224.5 265 C224.5 226.476 280.808 223.918 276.5 267" transform="matrix(0.981686 0 0 -0.639396 57.719 445.328)" style="fill:none;stroke:rgb(64,64,255);stroke-width:4"></path>
<path d="M224.5 265 C224.5 226.476 280.808 223.918 276.5 267" transform="matrix(0.981686 0 0 -0.639396 -44.3763 447.246)" style="fill:none;stroke:rgb(64,64,255);stroke-width:4"></path>
<path d="M224.5 265 C224.5 226.476 282.372 235.123 276.5 267" transform="matrix(-1.80327e-016 -0.639396 0.981686 -1.17451e-016 -130.901 390.251)" style="fill:none;stroke:rgb(64,64,255);stroke-width:4"></path>
<path d="M224.5 265 C219.808 241.756 280.808 223.918 276.5 267" transform="matrix(-1.80327e-016 -0.639396 0.981686 -1.17451e-016 -134.828 423.499)" style="fill:none;stroke:rgb(64,64,255);stroke-width:4"></path>
<path d="M224.5 265 C224.5 226.476 280.808 226.974 276.5 267" transform="matrix(1.80327e-016 -0.639396 -0.981686 -1.17451e-016 646.996 392.808)" style="fill:none;stroke:rgb(64,64,255);stroke-width:4"></path>
<path d="M230.5 274 C223.5 222.476 284.628 241.123 276.5 268" transform="matrix(1.80327e-016 -0.639396 -0.981686 -1.17451e-016 650.923 426.057)" style="fill:none;stroke:rgb(64,64,255);stroke-width:4"></path>
</g>
</g>
</svg>

</g>
</svg>