<?xml version="1.0"?>
<!DOCTYPE svg PUBLIC "-//W3C//DTD SVG 1.1//EN" "http://www.w3.org/Graphics/SVG/1.1/DTD/svg11.dtd" >
<!-- SVG content generated using Symbology Configuration Management System (SCMS) -->
<!-- Systematic Software Engineering Ltd. - www.systematic.co.uk - do not remove  -->
<svg id="WA--PXT--------" width="400px" height="400px" viewBox="0 0 400 400">
<g >
<svg viewBox="0 0 400 400" id="_0.WA--PXT--------" width="400px" height="400px"><g transform="scale(0.8 0.8)"><g transform="translate(-120 -150) scale(1.5 2)"><path d="M100.738 183.479 C106.696 184.892 114.098 188.15 119.421 190.812" style="fill:none;stroke:rgb(0,0,0);stroke-width:2"></path>
<path d="M122.741 192.292 C122.741 192.292 136.041 198.192 140.558 200.075" style="fill:none;stroke:rgb(0,0,0);stroke-width:2"></path>
<path d="M143.694 201.292 C143.694 201.292 159.844 206.359 164.311 205.825" style="fill:none;stroke:rgb(0,0,0);stroke-width:2"></path>
<path d="M169.248 205.959 C169.248 205.959 181.298 204.592 184.148 202.525" style="fill:none;stroke:rgb(0,0,0);stroke-width:2"></path>
<path d="M188.861 200.559 C188.861 200.559 198.278 194.509 200.778 191.909" style="fill:none;stroke:rgb(0,0,0);stroke-width:2"></path>
<path d="M204.521 189.009 C209.109 184.586 213.542 181.108 218.521 178.075" style="fill:none;stroke:rgb(0,0,0);stroke-width:2"></path>
<path d="M223.291 175.355 C228.886 173.397 233.367 171.53 239.874 172.822" style="fill:none;stroke:rgb(0,0,0);stroke-width:2"></path>
<path d="M246.294 174.489 C251.634 175.905 256.972 179.373 260.661 181.672" style="fill:none;stroke:rgb(0,0,0);stroke-width:2"></path>
<path d="M265.208 184.892 C268.999 187.379 272.123 190.753 275.508 193.292" style="fill:none;stroke:rgb(0,0,0);stroke-width:2"></path>
<path d="M279.038 196.382 C279.038 196.382 287.938 203.965 290.988 206.132" style="fill:none;stroke:rgb(0,0,0);stroke-width:2"></path>
<path d="M295.221 209.185 C301.044 212.079 303.403 214.019 310.088 215.519" style="fill:none;stroke:rgb(0,0,0);stroke-width:2"></path>
<path d="M315.604 216.919 C319.634 217.684 324.827 218.119 328.988 218.119" style="fill:none;stroke:rgb(0,0,0);stroke-width:2"></path>
<path d="M332.574 218.085 C332.574 218.085 344.841 217.469 348.458 216.319" style="fill:none;stroke:rgb(0,0,0);stroke-width:2"></path>
<path d="M355.111 215.219 C355.111 215.219 371.228 210.719 376.544 207.135" style="fill:none;stroke:rgb(0,0,0);stroke-width:2"></path>
<path d="M378.921 205.849 C383.479 203.592 388.957 199.057 391.938 194.799" style="fill:none;stroke:rgb(0,0,0);stroke-width:2"></path>
</g>
</g>
</svg>

</g>
</svg>