<?xml version="1.0"?>
<!DOCTYPE svg PUBLIC "-//W3C//DTD SVG 1.1//EN" "http://www.w3.org/Graphics/SVG/1.1/DTD/svg11.dtd" >
<!-- SVG content generated using Symbology Configuration Management System (SCMS) -->
<!-- Systematic Software Engineering Ltd. - www.systematic.co.uk - do not remove  -->
<svg id="G*GPGPWM--****X" width="400px" height="400px" viewBox="0 0 400 400">
<g >
<svg viewBox="0 0 400 400" id="_0.G-GPGPWM------X" width="400px" height="400px"><g transform="translate(-110 -170) scale(1.5 1.5)"><g transform="translate(181 199) translate(22.2005 47.625) scale(1 3.12073) translate(-22.2005 -47.625) translate(0 23.8125) scale(5.61701 1) translate(0 -23.8125) translate(-17.8031 14.7401) translate(0.178031 0)"><path d="M0.061 47.625 L0 46.25 L44.34 46.25 L44.401 47.625 zM14.102 13.904 L23.041 0 L31.801       13.904 zM25 13.846 L25 46.545 L20.5 46.545 L20.5 13.846 z"></path>
</g>
<line x1="208" y1="252" x2="208" y2="278" transform="matrix(1 0 0 1 0 0) translate(4 56)" style="fill:rgb(0,0,0);stroke:rgb(0,0,0);stroke-width:2"></line>
<line x1="206.947" y1="278.009" x2="246" y2="278" transform="matrix(1 0 0 1 0 0) translate(4 56)" style="fill:rgb(0,0,0);stroke:rgb(0,0,0);stroke-width:2"></line>
<polygon points="164,193 170.351,204 157.649,204" transform="matrix(1.25967 0 0 1 -42.5864 0) translate(34.9297 49) translate(3.17543 56)" style="fill:rgb(0,0,0);stroke:rgb(0,0,0);stroke-width:2"></polygon>
<g id="ANCHOR%20POINT" transform="translate(-12 -5) translate(4 56)"><text x="262px" y="277px" transform="matrix(1 0 0 1 0 0)" style="fill:rgb(0,0,0);stroke-width:1;font-size:12;font-family:Arial Black;font-weight:bold;      ">ANCHOR</text>
<text x="270px" y="297px" transform="matrix(1 0 0 1 0 0) translate(0 -8)" style="fill:rgb(0,0,0);stroke-width:1;font-size:12;font-family:Arial Black;font-weight:bold;      ">POINT</text>
</g>
</g>
</svg>

</g>
</svg>