<?xml version="1.0"?>
<!DOCTYPE svg PUBLIC "-//W3C//DTD SVG 1.1//EN" "http://www.w3.org/Graphics/SVG/1.1/DTD/svg11.dtd" >
<!-- SVG content generated using Symbology Configuration Management System (SCMS) -->
<!-- Systematic Software Engineering Ltd. - www.systematic.co.uk - do not remove  -->
<svg id="SUAPWD----*****" width="400px" height="400px" viewBox="0 0 400 400">
<g >
<svg viewBox="0 0 400 400" id="_0.SUA------------" width="400px" height="400px"><path d="M285 320 C410 320 410 115 285 115 C285 -24 115 -24 115 115 C-10 115 -10 320 115 320" style="fill:rgb(255,255,128);stroke:rgb(0,0,0);stroke-width:10"></path>
</svg>

</g>
<g >
<svg viewBox="0 0 400 400" id="_1.S-A-WD---------" width="400px" height="400px"><g><polyline points="180,180 220,135 220,225 180,180" style="stroke-width:10;stroke:rgb(0,0,0);fill:rgb(255,255,255)" transform="translate(0 0)"></polyline>
<polyline points="180,180 220,135 220,225 180,180" style="stroke-width:10;stroke:rgb(0,0,0);fill:rgb(255,255,255)" transform="translate(60 0)"></polyline>
<polyline points="180,180 220,135 220,225 180,180" style="stroke-width:10;stroke:rgb(0,0,0);fill:rgb(255,255,255)" transform="translate(-60 0)"></polyline>
<rect x="120" y="250" width="160" height="20" style="fill:rgb(255,255,255);stroke-width:10;stroke:rgb(0,0,0)"></rect>
</g>
</svg>

</g>
</svg>