<?xml version="1.0"?>
<!DOCTYPE svg PUBLIC "-//W3C//DTD SVG 1.1//EN" "http://www.w3.org/Graphics/SVG/1.1/DTD/svg11.dtd" >
<!-- SVG content generated using Symbology Configuration Management System (SCMS) -->
<!-- Systematic Software Engineering Ltd. - www.systematic.co.uk - do not remove  -->
<svg id="G*TPZ-----****X" width="400px" height="400px" viewBox="0 0 400 400">
<g >
<svg viewBox="0 0 400 400" id="_0.G-TPZ---------X" width="400px" height="400px"><g transform="translate(-240 -220) scale(1.75 1.75)"><g transform="translate(65 54)"><circle cx="114" cy="139.5" r="19" style="fill:rgb(255,255,255);stroke:rgb(0,0,0);stroke-width:2"></circle>
<path d="M134 139.5 C199.372 141.474 265.546 169.54 274 243" style="fill:none;stroke:rgb(0,0,0);stroke-width:2"></path>
<line x1="255.819" y1="229.73" x2="274.183" y2="243.367" style="fill:rgb(0,0,0);stroke:rgb(0,0,0);stroke-width:2"></line>
<line x1="273.274" y1="243.367" x2="288.546" y2="229.185" style="fill:rgb(0,0,0);stroke:rgb(0,0,0);stroke-width:2"></line>
</g>
<g id="A" transform="translate(92 -35) translate(2 2)"><rect x="76" y="219" width="16" height="16" transform="matrix(1 0 0 1 0 0) translate(2 1) translate(-1 0) translate(0 -1)" style="fill:rgb(255,255,255);stroke:rgb(0,0,0);stroke-width:2"></rect>
<text x="80px" y="232px" transform="matrix(1 0 0 1 0 0)" style="fill:rgb(0,0,0);stroke-width:1;font-family:Arial Black;font-weight:bold;font-size:12;      ">A</text>
</g>
<g id="PT.%201%20(CENTER%20POINT)" transform="translate(63 6)"><text x="110px" y="273px" transform="matrix(1 0 0 1 0 0)" style="fill:rgb(0,0,0);stroke-width:1;font-family:Arial Black;font-weight:bold;font-size:12;      ">PT. 1</text>
<text x="92px" y="328px" transform="matrix(1 0 0 1 0 0) translate(-12 -43)" style="fill:rgb(0,0,0);stroke-width:1;font-family:Arial Black;font-weight:bold;font-size:12;      ">(CENTER PT.)</text>
</g>
<g id="PT.%202" transform="translate(52 -103)"><text x="212px" y="381px" transform="matrix(1 0 0 1 0 0)" style="fill:rgb(0,0,0);stroke-width:1;font-family:Arial Black;font-weight:bold;font-size:12;      ">PT. 2</text>
</g>
<line x1="176" y1="223" x2="176" y2="251" transform="matrix(1 0 0 1 0 0)" style="fill:rgb(0,0,0);stroke:rgb(0,0,0);stroke-width:2"></line>
<line x1="175.903" y1="250.289" x2="186" y2="265" transform="matrix(1 0 0 1 0 0)" style="fill:rgb(0,0,0);stroke:rgb(0,0,0);stroke-width:2"></line>
<line x1="328" y1="301" x2="310" y2="301" transform="matrix(1 0 0 1 0 0)" style="fill:rgb(0,0,0);stroke:rgb(0,0,0);stroke-width:2"></line>
<line x1="310.781" y1="301.133" x2="290" y2="281" transform="matrix(1 0 0 1 0 0)" style="fill:rgb(0,0,0);stroke:rgb(0,0,0);stroke-width:2"></line>
<polygon points="71,117.17 76,125.83 66,125.83" transform="matrix(1 0 0 1.27017 0 -32.8257) translate(106 81.0915) translate(-1 0)" style="fill:rgb(0,0,0);stroke:rgb(0,0,0);stroke-width:2"></polygon>
<polygon points="71,117.17 76,125.83 66,125.83" transform="matrix(6.12303e-017 1 -1.27017 7.77729e-017 403.691 179.865) translate(49 -62.9837)" style="fill:rgb(0,0,0);stroke:rgb(0,0,0);stroke-width:2"></polygon>
</g>
</svg>

</g>
</svg>