<?xml version="1.0"?>
<!DOCTYPE svg PUBLIC "-//W3C//DTD SVG 1.1//EN" "http://www.w3.org/Graphics/SVG/1.1/DTD/svg11.dtd" >
<!-- SVG content generated using Symbology Configuration Management System (SCMS) -->
<!-- Systematic Software Engineering Ltd. - www.systematic.co.uk - do not remove  -->
<svg id="G*OPSB----****X" width="400px" height="400px" viewBox="0 0 400 400">
<g >
<svg viewBox="0 0 400 400" id="_0.G-OPSB--------X" width="400px" height="400px"><g transform="translate(-360 -320) scale(2.5 2.5)"><g transform="translate(148 111) translate(17.2805 20.875) scale(1 3.77844) translate(-17.2805 -20.875) translate(-1.64313e-014 10.4375) scale(3.9513 1) translate(1.64313e-014 -10.4375) translate(0 22.496) translate(0 0.264659) translate(0 0.264659) translate(0 0.264659) translate(0 0.264659)"><path d="M34.561 20.875 L0 20.875 L6.42 8.516 L11.221 18.176 L17.82 0 L22.621 18.176 L28.441       5.096 z"></path>
</g>
<line x1="158" y1="149" x2="158" y2="169" transform="matrix(1 0 0 1.7 56 -18.3001)" style="fill:rgb(0,0,0);stroke:rgb(0,0,0);stroke-width:2"></line>
<line x1="157.25" y1="169" x2="178" y2="169" transform="matrix(1 0 0 1 56 100)" style="fill:rgb(0,0,0);stroke:rgb(0,0,0);stroke-width:2"></line>
<polygon points="153,119 159.928,131 146.072,131" transform="matrix(1.01036 0 0 1 59.4146 107)" style="fill:rgb(0,0,0);stroke:rgb(0,0,0);stroke-width:2"></polygon>
<g id="ANCHOR%20POINT" transform="matrix(1 0 0 1 131 29)"><text x="106px" y="234px" transform="matrix(1 0 0 1 0 0)" style="fill:rgb(0,0,0);stroke-width:1;font-family:Arial Black;font-weight:bold;font-size:12;      ">ANCHOR</text>
<text x="112px" y="265px" transform="matrix(1 0 0 1 0 0) translate(2 -18)" style="fill:rgb(0,0,0);stroke-width:1;font-family:Arial Black;font-weight:bold;font-size:12;      ">POINT</text>
</g>
</g>
</svg>

</g>
</svg>