<?xml version="1.0"?>
<!DOCTYPE svg PUBLIC "-//W3C//DTD SVG 1.1//EN" "http://www.w3.org/Graphics/SVG/1.1/DTD/svg11.dtd" >
<!-- SVG content generated using Symbology Configuration Management System (SCMS) -->
<!-- Systematic Software Engineering Ltd. - www.systematic.co.uk - do not remove  -->
<svg id="G*TPP-----****X" width="400px" height="400px" viewBox="0 0 400 400">
<g >
<svg viewBox="0 0 400 400" id="_0.G-TPP---------X" width="400px" height="400px"><g transform="translate(-170 -140) scale(1.5 1.5)"><line x1="325" y1="131" x2="325" y2="279" style="fill:rgb(0,0,0);stroke:rgb(0,0,0);stroke-width:2" transform="matrix(1 0 0 1 1 20)"></line>
<line x1="324.296" y1="207.184" x2="155" y2="207" style="fill:rgb(0,0,0);stroke:rgb(0,0,0);stroke-width:2" transform="matrix(1 0 0 1 1 20)"></line>
<line x1="324.868" y1="207.47" x2="297" y2="184" style="fill:rgb(0,0,0);stroke:rgb(0,0,0);stroke-width:2" transform="matrix(1 0 0 1 1 20)"></line>
<line x1="324.582" y1="207.327" x2="298" y2="227" style="fill:rgb(0,0,0);stroke:rgb(0,0,0);stroke-width:2" transform="matrix(1 0 0 1 1 20)"></line>
<g id="PT.%201" transform="translate(188 30)"><text x="78px" y="93px" transform="matrix(1 0 0 1 0 0)" style="fill:rgb(0,0,0);stroke-width:1;font-family:Arial Black;font-weight:bold;font-size:12;      ">PT. 1</text>
</g>
<g id="PT.%202" transform="translate(93 243)"><text x="172px" y="94px" transform="matrix(1 0 0 1 0 0)" style="fill:rgb(0,0,0);stroke-width:1;font-family:Arial Black;font-weight:bold;font-size:12;      ">PT. 2</text>
</g>
<g id="PT.%203" transform="translate(-149 91)"><text x="308px" y="94px" transform="matrix(1 0 0 1 0 0)" style="fill:rgb(0,0,0);stroke-width:1;font-family:Arial Black;font-weight:bold;font-size:12;      ">PT. 3</text>
</g>
<line x1="34" y1="158" x2="48" y2="135" transform="matrix(1 0 0 1 0 0) translate(127 56)" style="fill:rgb(0,0,0);stroke:rgb(0,0,0);stroke-width:2"></line>
<polygon points="58,193.536 62,200.464 54,200.464" transform="matrix(-0.824633 -0.564324 0.91172 -1.43988 -99.5103 477.615) translate(-137.449 14.9774)" style="fill:rgb(0,0,0);stroke:rgb(0,0,0);stroke-width:2"></polygon>
<line x1="34" y1="158" x2="48" y2="135" transform="matrix(-1 0 0 -1 375.142 470.575) translate(25 5)" style="fill:rgb(0,0,0);stroke:rgb(0,0,0);stroke-width:2"></line>
<polygon points="58,193.536 62,200.464 54,200.464" transform="matrix(0.824633 0.564324 -0.91172 1.43988 474.653 -7.03966) translate(-23.8299 5.86701)" style="fill:rgb(0,0,0);stroke:rgb(0,0,0);stroke-width:2"></polygon>
<line x1="34" y1="158" x2="48" y2="135" transform="matrix(-1 0 0 1 288.142 99) translate(-64 -117)" style="fill:rgb(0,0,0);stroke:rgb(0,0,0);stroke-width:2"></line>
<polygon points="58,193.536 62,200.464 54,200.464" transform="matrix(0.824633 -0.564324 -0.91172 -1.43988 387.653 576.615) translate(116.826 35.4698)" style="fill:rgb(0,0,0);stroke:rgb(0,0,0);stroke-width:2"></polygon>
</g>
</svg>

</g>
</svg>