<?xml version="1.0"?>
<!DOCTYPE svg PUBLIC "-//W3C//DTD SVG 1.1//EN" "http://www.w3.org/Graphics/SVG/1.1/DTD/svg11.dtd" >
<!-- SVG content generated using Symbology Configuration Management System (SCMS) -->
<!-- Systematic Software Engineering Ltd. - www.systematic.co.uk - do not remove  -->
<svg id="G*TPC-----****X" width="400px" height="400px" viewBox="0 0 400 400">
<g >
<svg viewBox="0 0 400 400" id="_0.G-TPC---------X" width="400px" height="400px"><g transform="translate(-120 -80) scale(1.25 1.25)"><line x1="172.086" y1="153.528" x2="171.836" y2="289.878" style="fill:none;stroke:rgb(0,0,0);stroke-width:2" transform="matrix(1 0 0 1 -48 0)"></line>
<line x1="172" y1="289" x2="394.946" y2="288.942" style="fill:none;stroke:rgb(0,0,0);stroke-width:2" transform="matrix(1 0 0 1 -48 0)"></line>
<line x1="171.461" y1="153.828" x2="393.588" y2="153.978" style="fill:none;stroke:rgb(0,0,0);stroke-width:2" transform="matrix(1 0 0 1 -48 0)"></line>
<ellipse cx="172" cy="220.5" rx="4" ry="4.5" transform="matrix(1 0 0 1 -48 4.8)" style="fill:rgb(0,0,0);stroke:rgb(0,0,0);stroke-width:1"></ellipse>
<line x1="387.345" y1="164.19" x2="400.145" y2="142.99" style="fill:none;stroke:rgb(0,0,0);stroke-width:2" transform="matrix(1 0 0 1 -48 0)"></line>
<line x1="387" y1="277" x2="404" y2="302" style="fill:none;stroke:rgb(0,0,0);stroke-width:2" transform="matrix(1 0 0 1 -48 0)"></line>
<line x1="348" y1="164" x2="360.002" y2="177.634" transform="matrix(1 0 0 1 0 0) translate(348 164) scale(1.1 1.06667) translate(-348 -164) translate(1.81818 0) translate(-0.909091 0) translate(-0.909091 0) translate(0 0.9375) translate(0.909091 0)" style="fill:rgb(0,0,0);stroke:rgb(0,0,0);stroke-width:2"></line>
<line x1="140" y1="225" x2="180" y2="225" transform="matrix(1 0 0 1 0 0) translate(0 1)" style="fill:rgb(0,0,0);stroke:rgb(0,0,0);stroke-width:2"></line>
<polygon points="71,51.1699 76,59.8301 66,59.8301" transform="matrix(0.746799 -0.665049 0.844726 0.948563 249.095 159.073)" style="fill:rgb(0,0,0);stroke:rgb(0,0,0);stroke-width:2"></polygon>
<line x1="348" y1="164" x2="360.002" y2="177.634" transform="matrix(1.1 0 0 -1.06667 -136.8 429.677) translate(95.4545 -23.4374) translate(2.72727 -0.937497)" style="fill:rgb(0,0,0);stroke:rgb(0,0,0);stroke-width:2"></line>
<polygon points="71,51.1699 76,59.8301 66,59.8301" transform="matrix(0.746799 0.665049 0.844726 -0.948563 146.095 260.67) translate(95.0402 40.2782) translate(2.90545 0.98282)" style="fill:rgb(0,0,0);stroke:rgb(0,0,0);stroke-width:2"></polygon>
<polygon points="90,110.036 94,116.964 86,116.964" transform="matrix(-1.83691e-016 -1 1.29904 -2.38622e-016 -56.7913 202.85) translate(-113 34.641)" style="fill:rgb(0,0,0);stroke:rgb(0,0,0);stroke-width:2"></polygon>
<g id="PT.%201" transform="translate(202 -188)"><text x="158px" y="379px" transform="matrix(1 0 0 1 0 0)" style="fill:rgb(0,0,0);stroke-width:1;font-family:Arial Black;font-weight:bold;font-size:12;      ">PT. 1</text>
</g>
<g id="PT.%202" transform="translate(176 -133)"><text x="180px" y="394px" transform="matrix(1 0 0 1 0 0)" style="fill:rgb(0,0,0);stroke-width:1;font-family:Arial Black;font-weight:bold;font-size:12;      ">PT. 2</text>
</g>
<g id="PT.%203" transform="translate(-22 -211)"><text x="204px" y="441px" transform="matrix(1 0 0 1 0 0)" style="fill:rgb(0,0,0);stroke-width:1;font-family:Arial Black;font-weight:bold;font-size:12;      ">PT. 3</text>
</g>
</g>
</svg>

</g>
</svg>