<?xml version="1.0"?>
<!DOCTYPE svg PUBLIC "-//W3C//DTD SVG 1.1//EN" "http://www.w3.org/Graphics/SVG/1.1/DTD/svg11.dtd" >
<!-- SVG content generated using Symbology Configuration Management System (SCMS) -->
<!-- Systematic Software Engineering Ltd. - www.systematic.co.uk - do not remove  -->
<svg id="SUGPEVAC--*****" width="400px" height="400px" viewBox="0 0 400 400">
<g >
<svg viewBox="0 0 400 400" id="_0.SUG-E----------" width="400px" height="400px"><path d="M115 285 C115 400 285 400 285 285 C400 285 400 115 285 115 C285 0 115 0 115 115 C0     115 0 285 115 285 z" style="fill:rgb(255,255,128);stroke:rgb(0,0,0);stroke-width:10"></path>
</svg>

</g>
<g >
<svg viewBox="0 0 400 400" id="_1.S-G-EVAC-------" width="400px" height="400px"><line x1="130" y1="130" x2="130" y2="270" style="fill:none;stroke:rgb(0,0,0);stroke-width:10"></line>
<line x1="270" y1="130" x2="270" y2="270" style="fill:none;stroke:rgb(0,0,0);stroke-width:10"></line>
<line x1="130" y1="200" x2="203" y2="133" style="fill:none;stroke:rgb(0,0,0);stroke-width:10"></line>
<line x1="270" y1="200" x2="196" y2="133" style="fill:none;stroke:rgb(0,0,0);stroke-width:10"></line>
<line x1="130" y1="200" x2="203" y2="267" style="fill:none;stroke:rgb(0,0,0);stroke-width:10"></line>
<line x1="270" y1="200" x2="196" y2="267" style="fill:none;stroke:rgb(0,0,0);stroke-width:10"></line>
<path d="M163 170 L200 205 L200 185 L245 227" style="fill:none;stroke:rgb(0,0,0);stroke-width:10"></path>
</svg>

</g>
</svg>