<?xml version="1.0"?>
<!DOCTYPE svg PUBLIC "-//W3C//DTD SVG 1.1//EN" "http://www.w3.org/Graphics/SVG/1.1/DTD/svg11.dtd" >
<!-- SVG content generated using Symbology Configuration Management System (SCMS) -->
<!-- Systematic Software Engineering Ltd. - www.systematic.co.uk - do not remove  -->
<svg id="G*TPKF----****X" width="400px" height="400px" viewBox="0 0 400 400">
<g >
<svg viewBox="0 0 400 400" id="_0.G-TPKF--------X" width="400px" height="400px"><g transform="translate(-50 -10) scale(0.9 0.9)"><text x="244px" y="216px" style="fill:rgb(0,0,0);font-size:14;font-family:Arial Black;font-weight:bold;stroke:rgb(0,0,0);     ">CATK</text>
<line x1="91" y1="305" x2="99" y2="296" style="fill:none;stroke:rgb(0,0,0);stroke-width:1"></line>
<line x1="101" y1="294" x2="107" y2="287" style="fill:none;stroke:rgb(0,0,0);stroke-width:1"></line>
<line x1="109.296" y1="283.876" x2="114.796" y2="277.543" style="fill:none;stroke:rgb(0,0,0);stroke-width:1"></line>
<line x1="118" y1="274" x2="124" y2="267" style="fill:none;stroke:rgb(0,0,0);stroke-width:1"></line>
<line x1="126.296" y1="263.876" x2="131.63" y2="257.71" style="fill:none;stroke:rgb(0,0,0);stroke-width:1"></line>
<line x1="134" y1="255" x2="140" y2="248" style="fill:none;stroke:rgb(0,0,0);stroke-width:1"></line>
<line x1="143" y1="245" x2="149" y2="238" style="fill:none;stroke:rgb(0,0,0);stroke-width:1"></line>
<line x1="152.13" y1="234.21" x2="157.63" y2="227.71" style="fill:none;stroke:rgb(0,0,0);stroke-width:1"></line>
<line x1="160" y1="225" x2="164.963" y2="219.076" style="fill:none;stroke:rgb(0,0,0);stroke-width:1"></line>
<line x1="167" y1="217" x2="171.796" y2="211.243" style="fill:none;stroke:rgb(0,0,0);stroke-width:1"></line>
<line x1="173" y1="210" x2="183" y2="210" style="fill:none;stroke:rgb(0,0,0);stroke-width:1"></line>
<line x1="187" y1="210" x2="198" y2="210" style="fill:none;stroke:rgb(0,0,0);stroke-width:1"></line>
<line x1="204" y1="210" x2="214" y2="210" style="fill:none;stroke:rgb(0,0,0);stroke-width:1"></line>
<line x1="220" y1="210" x2="229" y2="210" style="fill:none;stroke:rgb(0,0,0);stroke-width:1"></line>
<line x1="233" y1="210" x2="242" y2="210" style="fill:none;stroke:rgb(0,0,0);stroke-width:1"></line>
<line x1="296" y1="209" x2="305" y2="209" style="fill:none;stroke:rgb(0,0,0);stroke-width:1"></line>
<line x1="310" y1="209" x2="317" y2="209" style="fill:none;stroke:rgb(0,0,0);stroke-width:1"></line>
<line x1="323" y1="209" x2="336" y2="209" style="fill:none;stroke:rgb(0,0,0);stroke-width:1"></line>
<line x1="340" y1="209" x2="348" y2="209" style="fill:none;stroke:rgb(0,0,0);stroke-width:1"></line>
<line x1="351" y1="209" x2="361" y2="209" style="fill:none;stroke:rgb(0,0,0);stroke-width:1"></line>
<line x1="366" y1="209" x2="376" y2="209" style="fill:none;stroke:rgb(0,0,0);stroke-width:1"></line>
<line x1="382" y1="209" x2="392" y2="209" style="fill:none;stroke:rgb(0,0,0);stroke-width:1"></line>
<line x1="397" y1="209" x2="406" y2="209" style="fill:none;stroke:rgb(0,0,0);stroke-width:1"></line>
<line x1="67.0628" y1="293.19" x2="78.3961" y2="280.524" style="fill:none;stroke:rgb(0,0,0);stroke-width:2"></line>
<line x1="82.3961" y1="276.524" x2="94.3961" y2="262.524" style="fill:none;stroke:rgb(0,0,0);stroke-width:2"></line>
<line x1="99.0628" y1="257.19" x2="110.729" y2="243.857" style="fill:none;stroke:rgb(0,0,0);stroke-width:2"></line>
<line x1="117.063" y1="236.857" x2="129.396" y2="223.19" style="fill:none;stroke:rgb(0,0,0);stroke-width:2"></line>
<line x1="135.396" y1="216.857" x2="145.729" y2="204.524" style="fill:none;stroke:rgb(0,0,0);stroke-width:2"></line>
<line x1="149.063" y1="201.19" x2="159.063" y2="189.19" style="fill:none;stroke:rgb(0,0,0);stroke-width:2"></line>
<line x1="165.063" y1="183.59" x2="173.396" y2="173.59" style="fill:none;stroke:rgb(0,0,0);stroke-width:2"></line>
<line x1="178" y1="174" x2="191" y2="174" style="fill:none;stroke:rgb(0,0,0);stroke-width:2"></line>
<line x1="197" y1="174" x2="212" y2="174" style="fill:none;stroke:rgb(0,0,0);stroke-width:2"></line>
<line x1="220" y1="174" x2="236" y2="174" style="fill:none;stroke:rgb(0,0,0);stroke-width:2"></line>
<line x1="244" y1="174" x2="262" y2="174" style="fill:none;stroke:rgb(0,0,0);stroke-width:2"></line>
<line x1="269" y1="174" x2="289" y2="174" style="fill:none;stroke:rgb(0,0,0);stroke-width:2"></line>
<line x1="297" y1="174" x2="314" y2="174" style="fill:none;stroke:rgb(0,0,0);stroke-width:2"></line>
<line x1="321" y1="174" x2="332" y2="174" style="fill:none;stroke:rgb(0,0,0);stroke-width:2"></line>
<line x1="332" y1="170" x2="332" y2="159" style="fill:none;stroke:rgb(0,0,0);stroke-width:2"></line>
<line x1="332" y1="154" x2="332" y2="144" style="fill:none;stroke:rgb(0,0,0);stroke-width:2"></line>
<line x1="332" y1="139" x2="332" y2="124" style="fill:none;stroke:rgb(0,0,0);stroke-width:2"></line>
<line x1="335" y1="127" x2="345" y2="138" style="fill:none;stroke:rgb(0,0,0);stroke-width:2"></line>
<line x1="349" y1="143" x2="361" y2="156" style="fill:none;stroke:rgb(0,0,0);stroke-width:2"></line>
<line x1="368" y1="164" x2="380" y2="178" style="fill:none;stroke:rgb(0,0,0);stroke-width:2"></line>
<line x1="384" y1="182" x2="393" y2="192" style="fill:none;stroke:rgb(0,0,0);stroke-width:2"></line>
<line x1="399" y1="199" x2="408" y2="210" style="fill:none;stroke:rgb(0,0,0);stroke-width:2"></line>
<line x1="408" y1="210" x2="401" y2="218" style="fill:none;stroke:rgb(0,0,0);stroke-width:2"></line>
<line x1="398" y1="222" x2="388.226" y2="233.02" style="fill:none;stroke:rgb(0,0,0);stroke-width:2"></line>
<line x1="385" y1="237" x2="376" y2="247" style="fill:none;stroke:rgb(0,0,0);stroke-width:2"></line>
<line x1="373.726" y1="249.77" x2="365.226" y2="258.77" style="fill:none;stroke:rgb(0,0,0);stroke-width:2"></line>
<line x1="361" y1="264" x2="351.976" y2="273.77" style="fill:none;stroke:rgb(0,0,0);stroke-width:2"></line>
<line x1="345.476" y1="281.27" x2="337.476" y2="289.77" style="fill:none;stroke:rgb(0,0,0);stroke-width:2"></line>
<line x1="335" y1="293" x2="332" y2="296" style="fill:none;stroke:rgb(0,0,0);stroke-width:2"></line>
<line x1="332" y1="282" x2="332" y2="295" style="fill:none;stroke:rgb(0,0,0);stroke-width:2"></line>
<line x1="332" y1="276" x2="332" y2="262" style="fill:none;stroke:rgb(0,0,0);stroke-width:2"></line>
<line x1="332" y1="254" x2="332" y2="243" style="fill:none;stroke:rgb(0,0,0);stroke-width:2"></line>
<line x1="326" y1="244" x2="309" y2="244" style="fill:none;stroke:rgb(0,0,0);stroke-width:2"></line>
<line x1="299" y1="244" x2="278" y2="244" style="fill:none;stroke:rgb(0,0,0);stroke-width:2"></line>
<line x1="268" y1="244" x2="248" y2="244" style="fill:none;stroke:rgb(0,0,0);stroke-width:2"></line>
<line x1="241" y1="244" x2="227" y2="244" style="fill:none;stroke:rgb(0,0,0);stroke-width:2"></line>
<line x1="218" y1="244" x2="199" y2="244" style="fill:none;stroke:rgb(0,0,0);stroke-width:2"></line>
<line x1="189" y1="244" x2="176" y2="244" style="fill:none;stroke:rgb(0,0,0);stroke-width:2"></line>
<line x1="173.101" y1="247.62" x2="166" y2="256" style="fill:none;stroke:rgb(0,0,0);stroke-width:2"></line>
<line x1="163.351" y1="259.37" x2="155.351" y2="268.87" style="fill:none;stroke:rgb(0,0,0);stroke-width:2"></line>
<line x1="152.101" y1="273.37" x2="142" y2="286" style="fill:none;stroke:rgb(0,0,0);stroke-width:2"></line>
<line x1="138.101" y1="290.62" x2="128" y2="303" style="fill:none;stroke:rgb(0,0,0);stroke-width:2"></line>
<line x1="125" y1="307" x2="113" y2="322" style="fill:none;stroke:rgb(0,0,0);stroke-width:2"></line>
<line x1="390.74" y1="82.511" x2="400.074" y2="90.511" style="fill:none;stroke:rgb(0,0,0);stroke-width:2"></line>
<line x1="402.74" y1="92.511" x2="418.407" y2="105.511" style="fill:none;stroke:rgb(0,0,0);stroke-width:2"></line>
<line x1="423.074" y1="109.511" x2="438.074" y2="122.178" style="fill:none;stroke:rgb(0,0,0);stroke-width:2"></line>
<line x1="441.74" y1="125.778" x2="441.74" y2="141.444" style="fill:none;stroke:rgb(0,0,0);stroke-width:2"></line>
<line x1="441.74" y1="147.111" x2="441.74" y2="173.111" style="fill:none;stroke:rgb(0,0,0);stroke-width:2"></line>
<line x1="441.74" y1="180.111" x2="441.74" y2="201.111" style="fill:none;stroke:rgb(0,0,0);stroke-width:2"></line>
<line x1="441.74" y1="209.044" x2="442.074" y2="237.711" style="fill:none;stroke:rgb(0,0,0);stroke-width:2"></line>
<line x1="441.74" y1="243.711" x2="441.74" y2="262.044" style="fill:none;stroke:rgb(0,0,0);stroke-width:2"></line>
<line x1="441.74" y1="267.844" x2="441.74" y2="288.844" style="fill:none;stroke:rgb(0,0,0);stroke-width:2"></line>
<line x1="436.407" y1="294.844" x2="426.407" y2="304.511" style="fill:none;stroke:rgb(0,0,0);stroke-width:2"></line>
<line x1="422.74" y1="308.178" x2="412.074" y2="319.178" style="fill:none;stroke:rgb(0,0,0);stroke-width:2"></line>
<line x1="407.74" y1="323.844" x2="394.407" y2="336.844" style="fill:none;stroke:rgb(0,0,0);stroke-width:2"></line>
<line x1="448" y1="206" x2="467" y2="206" style="fill:none;stroke:rgb(0,0,0);stroke-width:2"></line>
<line x1="474" y1="206" x2="492" y2="206" style="fill:none;stroke:rgb(0,0,0);stroke-width:2"></line>
<line x1="491.231" y1="205.96" x2="480.231" y2="193.96" style="fill:none;stroke:rgb(0,0,0);stroke-width:2"></line>
<line x1="491.231" y1="205.627" x2="479.897" y2="216.294" style="fill:none;stroke:rgb(0,0,0);stroke-width:2"></line>
<g id="CENTER%20LINE" transform="translate(58 -160)"><text x="124px" y="433px" transform="matrix(1 0 0 1 0 0)" style="fill:rgb(0,0,0);stroke-width:1;font-size:12;font-family:Arial Black;font-weight:bold;      ">CENTER LINE</text>
</g>
<g id="PT.%201" transform="translate(190 -133)"><text x="266px" y="430px" transform="matrix(1 0 0 1 0 0)" style="fill:rgb(0,0,0);stroke-width:1;font-size:12;font-family:Arial Black;font-weight:bold;      ">PT. 1</text>
</g>
<g id="PT.%202" transform="translate(-136 -300)"><text x="270px" y="456px" transform="matrix(1 0 0 1 0 0)" style="fill:rgb(0,0,0);stroke-width:1;font-size:12;font-family:Arial Black;font-weight:bold;      ">PT. 2</text>
</g>
<g id="PT.%203" transform="translate(-27 -373)"><text x="336px" y="455px" transform="matrix(1 0 0 1 0 0)" style="fill:rgb(0,0,0);stroke-width:1;font-size:12;font-family:Arial Black;font-weight:bold;      ">PT. 3</text>
</g>
<g id="PT.%202.1" transform="translate(-241 -46)"><text x="350px" y="426px" transform="matrix(1 0 0 1 0 0)" style="fill:rgb(0,0,0);stroke-width:1;font-size:12;font-family:Arial Black;font-weight:bold;      ">PT. 2.1</text>
</g>
<line x1="40" y1="76" x2="52" y2="107" transform="matrix(-1 0 0 -1 85.6732 166.602) translate(-119 -101)" style="fill:rgb(0,0,0);stroke:rgb(0,0,0);stroke-width:2"></line>
<polygon points="45,36.1699 50,44.8301 40,44.8301" transform="matrix(-0.908883 0.417052 -0.722355 -1.57423 118.515 142.385) translate(-66.0348 -81.6525)" style="fill:rgb(0,0,0);stroke:rgb(0,0,0);stroke-width:2"></polygon>
<line x1="40" y1="76" x2="52" y2="107" transform="matrix(1 0 0 1 208 167) translate(-32 -15)" style="fill:rgb(0,0,0);stroke:rgb(0,0,0);stroke-width:2"></line>
<polygon points="45,36.1699 50,44.8301 40,44.8301" transform="matrix(0.908883 -0.417052 0.722355 1.57423 175.158 191.217) translate(-22.8285 -15.5763)" style="fill:rgb(0,0,0);stroke:rgb(0,0,0);stroke-width:2"></polygon>
<line x1="382" y1="82" x2="346" y2="77" transform="matrix(1 0 0 1 0 0)" style="fill:rgb(0,0,0);stroke:rgb(0,0,0);stroke-width:2"></line>
<polygon points="60,45.3038 66,55.6962 54,55.6962" transform="matrix(-0.314275 0.949332 -1.18754 -0.393134 460.827 45.3933)" style="fill:rgb(0,0,0);stroke:rgb(0,0,0);stroke-width:2"></polygon>
<line x1="56" y1="329" x2="56" y2="365" transform="matrix(-1 0 0 1 124.032 0) translate(-425 -103)" style="fill:rgb(0,0,0);stroke:rgb(0,0,0);stroke-width:2"></line>
<line x1="55.6579" y1="364.285" x2="74" y2="386" transform="matrix(-1 0 0 1 124.032 0) translate(-425 -103)" style="fill:rgb(0,0,0);stroke:rgb(0,0,0);stroke-width:2"></line>
<polygon points="49,308.17 54,316.83 44,316.83" transform="matrix(-1 0 0 1.73205 117.032 -217.766) translate(-425 -59.4671)" style="fill:rgb(0,0,0);stroke:rgb(0,0,0);stroke-width:2"></polygon>
<line x1="56" y1="329" x2="56" y2="365" transform="matrix(1 0 0 1 188 -99) translate(-80 95) translate(-76 -5)" style="fill:rgb(0,0,0);stroke:rgb(0,0,0);stroke-width:2"></line>
<line x1="55.6579" y1="364.285" x2="74" y2="386" transform="matrix(1 0 0 1 188 -99) translate(-80 95) translate(-76 -5)" style="fill:rgb(0,0,0);stroke:rgb(0,0,0);stroke-width:2"></line>
<polygon points="49,308.17 54,316.83 44,316.83" transform="matrix(1 0 0 1.73205 195 -316.766) translate(-80 54.8483) translate(-76 -2.88675)" style="fill:rgb(0,0,0);stroke:rgb(0,0,0);stroke-width:2"></polygon>
</g>
</svg>

</g>
</svg>