<?xml version="1.0"?>
<!DOCTYPE svg PUBLIC "-//W3C//DTD SVG 1.1//EN" "http://www.w3.org/Graphics/SVG/1.1/DTD/svg11.dtd" >
<!-- SVG content generated using Symbology Configuration Management System (SCMS) -->
<!-- Systematic Software Engineering Ltd. - www.systematic.co.uk - do not remove  -->
<svg id="SUGPEWTL--*****" width="400px" height="400px" viewBox="0 0 400 400">
<g >
<svg viewBox="0 0 400 400" id="_0.SUG-E----------" width="400px" height="400px"><path d="M115 285 C115 400 285 400 285 285 C400 285 400 115 285 115 C285 0 115 0 115 115 C0     115 0 285 115 285 z" style="fill:rgb(255,255,128);stroke:rgb(0,0,0);stroke-width:10"></path>
</svg>

</g>
<g transform="translate(158 91) scale(6.5 6)" >
<svg viewBox="0 0 400 400" id="_1.S-G-EWTL-------" width="400px" height="400px"><path d="M1.578 8.023 L0 6.584 L6.48 0 L12.755 6.449 L11.327 7.902 L6.453 3.057 zM12.082 33.168
			L10.584 34.5 L6.48 30.488 L2.449 34.5 L0.865 33.141 L6.455 27.493 zM11.961
			11.055 L10.557 12.657 L7.375 9.477 L7.375 29.049 L5.5 29.049 L5.5 9.371 L2.43
			12.49 L0.948 11.181 L6.48 5.576 zM5.5 20.408 L5.5 18.392 L1.369 18.392 L1.369
			20.408 zM11.16 20.408 L11.16 18.32 L7.375 18.392 L7.375 20.48 z"></path>
</svg>

</g>
</svg>