<?xml version="1.0"?>
<!DOCTYPE svg PUBLIC "-//W3C//DTD SVG 1.1//EN" "http://www.w3.org/Graphics/SVG/1.1/DTD/svg11.dtd" >
<!-- SVG content generated using Symbology Configuration Management System (SCMS) -->
<!-- Systematic Software Engineering Ltd. - www.systematic.co.uk - do not remove  -->
<svg id="G*GPOLKA--****X" width="400px" height="400px" viewBox="0 0 400 400">
<g >
<svg viewBox="0 0 400 400" id="_0.G-GPOLKA------X" width="400px" height="400px"><path d="M8.5 203 C129.982 150.102 231.264 265.172 383.5 218" style="fill:none;stroke:rgb(0,0,0);stroke-width:5"></path>
<polyline points="367.273,210.667 385.455,217.212 373.818,233.212" style="fill:none;stroke:rgb(0,0,0);stroke-width:5"></polyline>
</svg>

</g>
<g transform="translate(-1.77778 -49.3333) translate(41 71.5) rotate(9.0906 200 200) rotate(1.11612 199.922 199.512) translate(-3.53441 -2.07318) translate(-0.043633 2.26581)" >
<svg viewBox="0 0 400 400" id="_1.G-GPOLKA-----AX" width="400px" height="400px"><polygon points="175,213 175,187 225,212 225,187" style="fill:rgb(255,255,255);stroke:rgb(0,0,0);stroke-width:5"></polygon>
</svg>

</g>
<g transform="translate(-47 0.5) rotate(12.1264 200 200) translate(14.7452 0.923106)" >
<svg viewBox="0 0 400 400" id="_2.G-----------PNF" width="400px" height="400px"><rect x="175" y="175" width="50" height="50" style="fill:rgb(255,255,255);stroke:rgb(0,0,0);stroke-width:5" transform="translate(0 0) translate(0 0)"></rect>
<text x="187px" y="213px" style="fill:rgb(0,0,0);stroke:rgb(0,0,0);font-size:36;font-family:Arial">N</text>
</svg>

</g>
<g >
<svg viewBox="0 0 400 400" id="_3.GAR16---------X" width="400px" height="400px"><polyline points="10,215 10,260 30,280" style="fill:none;stroke:rgb(0,0,0);stroke-width:3"></polyline>
<polygon points="6,225 10,212 14,225" style="fill:rgb(0,0,0);stroke:rgb(0,0,0);stroke-width:3"></polygon>
</svg>

</g>
<g transform="translate(135 100)" >
<svg viewBox="0 0 400 400" id="_4.G-O1----------X" width="400px" height="400px"><text x="200px" y="200px" transform="matrix(1 0 0 1 -27.396 8.628)" style="fill:rgb(0,0,0);font-size:24;font-family:Arial">PT. 1</text>
</svg>

</g>
<g >
<svg viewBox="0 0 400 400" id="_5.GAR17---------X" width="400px" height="400px"><polyline points="390,230 390,275 370,295" style="fill:none;stroke:rgb(0,0,0);stroke-width:3"></polyline>
<polygon points="386,240 390,227 394,240" style="fill:rgb(0,0,0);stroke:rgb(0,0,0);stroke-width:3"></polygon>
</svg>

</g>
<g transform="translate(-135 85)" >
<svg viewBox="0 0 400 400" id="_6.G-O2----------X" width="400px" height="400px"><text x="320px" y="140px" transform="matrix(1 0 0 1 -148.968 68.628)" style="fill:rgb(0,0,0);font-size:24;font-family:Arial">PT. 2</text>
</svg>

</g>
</svg>