<?xml version="1.0"?>
<!DOCTYPE svg PUBLIC "-//W3C//DTD SVG 1.1//EN" "http://www.w3.org/Graphics/SVG/1.1/DTD/svg11.dtd" >
<!-- SVG content generated using Symbology Configuration Management System (SCMS) -->
<!-- Systematic Software Engineering Ltd. - www.systematic.co.uk - do not remove  -->
<svg id="G*MPNEC---****X"
     width="400px"
     height="400px"
     viewBox="0 0 400 400">
  <g transform="translate(45 0)">
    <svg viewBox="0 0 400 400"
         id="_0.G-M-C---------X"
         width="400px"
         height="400px">
      <circle cx="200"
              cy="235"
              r="40"
              transform="matrix(1 0 0 1 0 0) translate(160 220) scale(1 1) translate(-160 -220)"
              style="fill:rgb(255,255,128);stroke:rgb(0,0,0);stroke-width:5"></circle>
      <polyline points="185,199.75 185,125 215,125 215,199.75"
                style="fill:rgb(255,255,128);stroke:rgb(0,0,0);stroke-width:5"></polyline>
      <text x="188px"
            y="245px"
            transform="matrix(1 0 0 1 0 0) translate(0 0)"
            style="fill:rgb(0,0,0);stroke:rgb(0,0,0);font-size:32;font-family:Arial">C</text>
    </svg>
  </g>
  <g transform="translate(35 0)">
    <svg viewBox="0 0 400 400"
         id="_1.G-M-C--------LX"
         width="400px"
         height="400px">
      <rect x="60"
            y="184"
            width="80"
            height="32"
            style="fill:rgb(255,255,255);stroke:rgb(255,255,255);stroke-width:1"
            transform="translate(67 200) scale(1 1) translate(-67 -200)"></rect>
      <text x="62px"
            y="213px"
            style="fill:rgb(0,0,0);stroke:rgb(0,0,0);font-size:36;font-family:Arial">CML</text>
    </svg>
  </g>
  <g>
    <svg viewBox="0 0 400 400"
         id="_2.G-M-C--------EX"
         width="400px"
         height="400px">
      <text x="5px"
            y="157px"
            transform="matrix(1 0 0 1 0 0) translate(0 0) translate(0 0)"
            style="fill:rgb(0,0,0);stroke:rgb(0,0,0);font-size:20;font-family:Arial">10095900ZFEB94</text>
      <text x="119px"
            y="257px"
            transform="matrix(1 0 0 1 0 0)"
            style="fill:rgb(0,0,0);stroke:rgb(0,0,0);font-size:20;font-family:Arial">X344</text>
      <text x="168px"
            y="307px"
            transform="matrix(1 0 0 1 0 0)"
            style="fill:rgb(0,0,0);stroke:rgb(0,0,0);font-size:20;font-family:Arial">45 31"N009 59"E</text>
      <polyline points="245,315 245,390 295,340"
                style="fill:none;stroke:rgb(0,0,0);stroke-width:3"></polyline>
      <polygon points="287.84,340.441 298.965,335.441 294.59,346.691"
               style="fill:rgb(0,0,0);stroke:rgb(0,0,0);stroke-width:3"></polygon>
      <text x="191px"
            y="295px"
            style="fill:rgb(0,0,0);stroke:rgb(0,0,0);font-size:8;font-family:Arial">o</text>
      <text x="273px"
            y="295px"
            style="fill:rgb(0,0,0);stroke:rgb(0,0,0);font-size:8;font-family:Arial">o</text>
      <text x="290px"
            y="147px"
            transform="matrix(1 0 0 1 0 0)"
            style="fill:rgb(0,0,0);stroke:rgb(0,0,0);font-size:20;font-family:Arial">MUSTARD</text>
      <text x="275px"
            y="188px"
            transform="matrix(1 0 0 1 0 0)"
            style="fill:rgb(0,0,0);stroke:rgb(0,0,0);font-size:20;font-family:Arial">CONFIRMED</text>
      <text x="315px"
            y="168px"
            transform="matrix(1 0 0 1 0 0)"
            style="fill:rgb(0,0,0);stroke:rgb(0,0,0);font-size:20;font-family:Arial">GAS</text>
    </svg>
  </g>
</svg>
