<?xml version="1.0"?>
<!DOCTYPE svg PUBLIC "-//W3C//DTD SVG 1.1//EN" "http://www.w3.org/Graphics/SVG/1.1/DTD/svg11.dtd" >
<!-- SVG content generated using Symbology Configuration Management System (SCMS) -->
<!-- Systematic Software Engineering Ltd. - www.systematic.co.uk - do not remove  -->
<svg id="G*MPOMC---****X" width="400px" height="400px" viewBox="0 0 400 400">
<g >
<svg viewBox="0 0 400 400" id="_0.G-MPOMC-------X" width="400px" height="400px"><g transform="translate(-300 -290) scale(2 2)"><line x1="160" y1="215" x2="173" y2="215" style="fill:rgb(0,0,0);stroke:rgb(0,0,0);stroke-width:2" transform="matrix(1 0 0 1 15.7407 41.6667)"></line>
<line x1="180" y1="215" x2="199" y2="215" style="fill:rgb(0,0,0);stroke:rgb(0,0,0);stroke-width:2" transform="matrix(1 0 0 1 15.7407 41.6667)"></line>
<line x1="210.916" y1="215.044" x2="226.583" y2="215.044" style="fill:rgb(0,0,0);stroke:rgb(0,0,0);stroke-width:2" transform="matrix(1 0 0 1 15.7407 41.6667)"></line>
<line x1="233" y1="215" x2="250" y2="215" style="fill:rgb(0,0,0);stroke:rgb(0,0,0);stroke-width:2" transform="matrix(1 0 0 1 15.7407 41.6667)"></line>
<line x1="257.616" y1="215.044" x2="272.283" y2="215.044" style="fill:rgb(0,0,0);stroke:rgb(0,0,0);stroke-width:2" transform="matrix(1 0 0 1 15.7407 41.6667)"></line>
<line x1="281" y1="215" x2="297" y2="215" style="fill:rgb(0,0,0);stroke:rgb(0,0,0);stroke-width:2" transform="matrix(1 0 0 1 15.7407 41.6667)"></line>
<line x1="302.083" y1="215.044" x2="311.416" y2="215.044" style="fill:rgb(0,0,0);stroke:rgb(0,0,0);stroke-width:2" transform="matrix(1 0 0 1 15.7407 41.6667)"></line>
<path d="M160.916 211.811 C160.916 211.811 161.208 205.811 162.083 201.144" style="fill:none;stroke:rgb(0,0,0);stroke-width:2" transform="matrix(1 0 0 1 15.7407 41.6667)"></path>
<path d="M164.583 190.644 C164.583 190.644 166.75 183.311 169.75 178.644" style="fill:none;stroke:rgb(0,0,0);stroke-width:2" transform="matrix(1 0 0 1 15.7407 41.6667)"></path>
<path d="M173.416 171.911 C173.416 171.911 177.791 165.161 181.916 161.578" style="fill:none;stroke:rgb(0,0,0);stroke-width:2" transform="matrix(1 0 0 1 15.7407 41.6667)"></path>
<path d="M187.416 156.078 C187.416 156.078 193.541 151.244 198.583 148.244" style="fill:none;stroke:rgb(0,0,0);stroke-width:2" transform="matrix(1 0 0 1 15.7407 41.6667)"></path>
<path d="M205.75 144.578 C205.75 144.578 213.208 141.578 220.583 140.244" style="fill:none;stroke:rgb(0,0,0);stroke-width:2" transform="matrix(1 0 0 1 15.7407 41.6667)"></path>
<path d="M225.283 139.411 C225.283 139.411 231.533 138.328 238.283 138.578" style="fill:none;stroke:rgb(0,0,0);stroke-width:2" transform="matrix(1 0 0 1 15.7407 41.6667)"></path>
<path d="M245.616 139.244 C245.616 139.244 252.491 140.119 258.95 142.244" style="fill:none;stroke:rgb(0,0,0);stroke-width:2" transform="matrix(1 0 0 1 15.7407 41.6667)"></path>
<path d="M264.983 144.578 C264.983 144.578 270.9 146.203 275.316 150.078" style="fill:none;stroke:rgb(0,0,0);stroke-width:2" transform="matrix(1 0 0 1 15.7407 41.6667)"></path>
<path d="M280.65 153.244 C280.65 153.244 286.108 157.328 289.483 160.911" style="fill:none;stroke:rgb(0,0,0);stroke-width:2" transform="matrix(1 0 0 1 15.7407 41.6667)"></path>
<path d="M293.65 165.411 C293.65 165.411 297.9 170.661 300.983 176.244" style="fill:none;stroke:rgb(0,0,0);stroke-width:2" transform="matrix(1 0 0 1 15.7407 41.6667)"></path>
<path d="M303.816 182.078 C303.816 182.078 307.858 190.786 308.483 194.578" style="fill:none;stroke:rgb(0,0,0);stroke-width:2" transform="matrix(1 0 0 1 15.7407 41.6667)"></path>
<path d="M310.15 201.911 C310.15 201.911 311.275 209.619 310.983 212.744" style="fill:none;stroke:rgb(0,0,0);stroke-width:2" transform="matrix(1 0 0 1 15.7407 41.6667)"></path>
<g id="PT.%201" transform="translate(30 -36)"><text x="164px" y="341px" transform="matrix(1 0 0 1 0 0)" style="fill:rgb(0,0,0);stroke-width:1;font-family:Arial Black;font-weight:bold;font-size:12;      ">PT. 1</text>
</g>
<g id="PT.%202" transform="translate(-3 -44)"><text x="268px" y="349px" transform="matrix(1 0 0 1 0 0)" style="fill:rgb(0,0,0);stroke-width:1;font-family:Arial Black;font-weight:bold;font-size:12;      ">PT. 2</text>
</g>
<line x1="176" y1="270" x2="176" y2="288" transform="matrix(1 0 0 1 0 0)" style="fill:rgb(0,0,0);stroke:rgb(0,0,0);stroke-width:2"></line>
<line x1="175.616" y1="287.184" x2="192" y2="301" transform="matrix(1 0 0 1 0 0)" style="fill:rgb(0,0,0);stroke:rgb(0,0,0);stroke-width:2"></line>
<line x1="326" y1="270" x2="326" y2="285" transform="matrix(1 0 0 1 0 0)" style="fill:rgb(0,0,0);stroke:rgb(0,0,0);stroke-width:2"></line>
<line x1="326.149" y1="284.184" x2="302" y2="300" transform="matrix(1 0 0 1 0 0)" style="fill:rgb(0,0,0);stroke:rgb(0,0,0);stroke-width:2"></line>
<polygon points="109,108.67 114,117.33 104,117.33" transform="matrix(1 0 0 1.38564 0 -43.5774) translate(67 113.305)" style="fill:rgb(0,0,0);stroke:rgb(0,0,0);stroke-width:2"></polygon>
<polygon points="109,108.67 114,117.33 104,117.33" transform="matrix(1 0 0 1.38564 141 94.4226) translate(76 13.7121) translate(-1 0)" style="fill:rgb(0,0,0);stroke:rgb(0,0,0);stroke-width:2"></polygon>
</g>
</svg>

</g>
</svg>