<?xml version="1.0"?>
<!DOCTYPE svg PUBLIC "-//W3C//DTD SVG 1.1//EN" "http://www.w3.org/Graphics/SVG/1.1/DTD/svg11.dtd" >
<!-- SVG content generated using Symbology Configuration Management System (SCMS) -->
<!-- Systematic Software Engineering Ltd. - www.systematic.co.uk - do not remove  -->
<svg id="G*GPGAY---****X" width="400px" height="400px" viewBox="0 0 400 400">
<g >
<svg viewBox="0 0 400 400" id="_0.G-GPGAY-------X" width="400px" height="400px"><g transform="translate(-125 -100) scale(1.25 1.25)"><path d="M372 301 C422.45 311 450 333.326 438 366.5 C426 399.674 437.45 419 372 432 C306.55      445 307 399.674 312 366.5 C317 333.326 321.55 291 372 301 z" transform="matrix(1 0 0 1 -39 -45)" style="fill:rgb(255,255,255);stroke:rgb(0,0,0);stroke-width:2"></path>
<line x1="124" y1="124" x2="123.696" y2="227.901" style="fill:rgb(0,0,0);stroke:rgb(0,0,0);stroke-width:2" transform="matrix(1 0 0 1 -4 -29)"></line>
<line x1="122.863" y1="123.901" x2="194.974" y2="123.901" style="fill:rgb(0,0,0);stroke:rgb(0,0,0);stroke-width:2" transform="matrix(1 0 0 1 -4 -29)"></line>
<line x1="194" y1="124" x2="194.085" y2="226.19" style="fill:rgb(0,0,0);stroke:rgb(0,0,0);stroke-width:2" transform="matrix(1 0 0 1 -4 -29)"></line>
<line x1="123.363" y1="227.123" x2="158.54" y2="250.167" style="fill:rgb(0,0,0);stroke:rgb(0,0,0);stroke-width:2" transform="matrix(1 0 0 1 -4 -29)"></line>
<line x1="157.429" y1="250.167" x2="194.529" y2="225.412" style="fill:rgb(0,0,0);stroke:rgb(0,0,0);stroke-width:2" transform="matrix(1 0 0 1 -4 -29)"></line>
<line x1="156" y1="249" x2="312" y2="354" style="fill:rgb(0,0,0);stroke:rgb(0,0,0);stroke-width:2" transform="matrix(1 0 0 1 -4 -29)"></line>
<g id="H" transform="translate(81 212)"><rect x="244" y="103" width="20" height="20" transform="matrix(1 0 0 1 0 0) translate(0 -1) translate(-1 0)" style="fill:rgb(255,255,255);stroke:rgb(0,0,0);stroke-width:2"></rect>
<text x="248px" y="117px" transform="matrix(1 0 0 1 0 0)" style="fill:rgb(0,0,0);stroke-width:1;font-family:Arial Black;font-weight:bold;font-size:12;      ">H</text>
</g>
</g>
</svg>

</g>
</svg>