<?xml version="1.0"?>
<!DOCTYPE svg PUBLIC "-//W3C//DTD SVG 1.1//EN" "http://www.w3.org/Graphics/SVG/1.1/DTD/svg11.dtd" >
<!-- SVG content generated using Symbology Configuration Management System (SCMS) -->
<!-- Systematic Software Engineering Ltd. - www.systematic.co.uk - do not remove  -->
<svg id="G*GPGAY---****X" width="400px" height="400px" viewBox="0 0 400 400">
<g >
<svg viewBox="0 0 400 400" id="_0.G-GPGAY-------X" width="400px" height="400px"><g transform="translate(-30 -10) scale(0.9 0.9)"><path d="M372 301 C422.45 311 450 333.326 438 366.5 C426 399.674 437.45 419 372 432 C306.55      445 307 399.674 312 366.5 C317 333.326 321.55 291 372 301 z" transform="matrix(1 0 0 1 -107.8 -57)" style="fill:rgb(255,255,255);stroke:rgb(0,0,0);stroke-width:2"></path>
<line x1="124" y1="124" x2="123.696" y2="227.901" style="fill:rgb(0,0,0);stroke:rgb(0,0,0);stroke-width:2" transform="matrix(1 0 0 1 -72.8 -41)"></line>
<line x1="122.863" y1="123.901" x2="194.974" y2="123.901" style="fill:rgb(0,0,0);stroke:rgb(0,0,0);stroke-width:2" transform="matrix(1 0 0 1 -72.8 -41)"></line>
<line x1="194" y1="124" x2="194.085" y2="226.19" style="fill:rgb(0,0,0);stroke:rgb(0,0,0);stroke-width:2" transform="matrix(1 0 0 1 -72.8 -41)"></line>
<line x1="123.363" y1="227.123" x2="158.54" y2="250.167" style="fill:rgb(0,0,0);stroke:rgb(0,0,0);stroke-width:2" transform="matrix(1 0 0 1 -72.8 -41)"></line>
<line x1="157.429" y1="250.167" x2="194.529" y2="225.412" style="fill:rgb(0,0,0);stroke:rgb(0,0,0);stroke-width:2" transform="matrix(1 0 0 1 -72.8 -41)"></line>
<line x1="156" y1="249" x2="312" y2="354" style="fill:rgb(0,0,0);stroke:rgb(0,0,0);stroke-width:2" transform="matrix(1 0 0 1 -72.8 -41)"></line>
<g id="H"><text x="106px" y="371px" transform="translate(205 -38) translate(-68.8 -12)" style="fill:rgb(0,0,0);font-size:18;font-family:Arial Black;font-weight:bold">CHEM</text>
</g>
<polyline points="356.25,177.5 356.25,95.5 428.25,95.5 428.25,178.5 392.25,212.5 356,177.5" transform="translate(36 -80) translate(-3.2 140.8)" style="stroke:rgb(0,0,0);stroke-width:2;fill:rgb(255,255,255)"></polyline>
<line x1="424.792" y1="273.127" x2="317" y2="316" style="fill:rgb(0,0,0);stroke:rgb(0,0,0);stroke-width:2"></line>
<path d="M427 189 C443.016 189 455 185.373 456 201 C457 216.627 443.016 213 427 213 C410.984      213 397 216.627 398 201 C399 185.373 410.984 189 427 189 z" transform="translate(-2 -18)" style="fill:rgb(255,255,255);stroke:rgb(0,0,0);stroke-width:2"></path>
<line x1="51.75" y1="185.3" x2="120.25" y2="83.8" style="fill:rgb(0,0,0);stroke:rgb(0,0,0);stroke-width:2"></line>
<line x1="51.75" y1="83.3" x2="120.75" y2="183.8" style="fill:rgb(0,0,0);stroke:rgb(0,0,0);stroke-width:2"></line>
<line x1="202" y1="336" x2="246" y2="243" style="fill:rgb(0,0,0);stroke:rgb(0,0,0);stroke-width:2"></line>
<line x1="205.68" y1="354.988" x2="260" y2="244" style="fill:rgb(0,0,0);stroke:rgb(0,0,0);stroke-width:2"></line>
<line x1="212" y1="366" x2="270.547" y2="245.299" style="fill:rgb(0,0,0);stroke:rgb(0,0,0);stroke-width:2"></line>
<line x1="222" y1="374" x2="248" y2="323" style="fill:rgb(0,0,0);stroke:rgb(0,0,0);stroke-width:2"></line>
<line x1="256" y1="304" x2="284" y2="249" style="fill:rgb(0,0,0);stroke:rgb(0,0,0);stroke-width:2"></line>
<line x1="236" y1="377" x2="264" y2="324" style="fill:rgb(0,0,0);stroke:rgb(0,0,0);stroke-width:2"></line>
<line x1="270" y1="304" x2="296.547" y2="253.743" style="fill:rgb(0,0,0);stroke:rgb(0,0,0);stroke-width:2"></line>
<line x1="251.68" y1="376.988" x2="278" y2="324" style="fill:rgb(0,0,0);stroke:rgb(0,0,0);stroke-width:2"></line>
<line x1="286" y1="305" x2="310" y2="260" style="fill:rgb(0,0,0);stroke:rgb(0,0,0);stroke-width:2"></line>
<line x1="267.014" y1="374.321" x2="294" y2="324" style="fill:rgb(0,0,0);stroke:rgb(0,0,0);stroke-width:2"></line>
<line x1="302" y1="303" x2="320.769" y2="268.632" style="fill:rgb(0,0,0);stroke:rgb(0,0,0);stroke-width:2"></line>
<line x1="285.014" y1="369.877" x2="330.547" y2="282.543" style="fill:rgb(0,0,0);stroke:rgb(0,0,0);stroke-width:2"></line>
<line x1="301.902" y1="363.21" x2="332.102" y2="302.988" style="fill:rgb(0,0,0);stroke:rgb(0,0,0);stroke-width:2"></line>
<line x1="206" y1="296" x2="228" y2="249" style="fill:rgb(0,0,0);stroke:rgb(0,0,0);stroke-width:2"></line>
</g>
</svg>

</g>
</svg>