<?xml version="1.0"?>
<!DOCTYPE svg PUBLIC "-//W3C//DTD SVG 1.1//EN" "http://www.w3.org/Graphics/SVG/1.1/DTD/svg11.dtd" >
<!-- SVG content generated using Symbology Configuration Management System (SCMS) -->
<!-- Systematic Software Engineering Ltd. - www.systematic.co.uk - do not remove  -->
<svg id="G*GPPF----****X" width="400px" height="400px" viewBox="0 0 400 400">
<g >
<svg viewBox="0 0 400 400" id="_0.G-GPPF--------X" width="400px" height="400px"><g transform="translate(-120 -110) scale(1.25 1.25)"><path d="M102.5 220 C125.762 222.326 149.219 223.82 172.5 218 C193.83 212.667 212.552 205.684      235.5 205 C269.701 203.98 294.413 213.52 325.167 207.444" transform="matrix(1 0 0 1 28 18)" style="fill:none;stroke:rgb(0,0,0);stroke-width:2"></path>
<line x1="284.322" y1="163.822" x2="326.544" y2="207.378" transform="matrix(1 0 0 1 28 19)" style="fill:rgb(0,0,0);stroke:rgb(0,0,0);stroke-width:2"></line>
<line x1="326.896" y1="206.274" x2="282.544" y2="248.711" transform="matrix(1 0 0 1 28 19)" style="fill:rgb(0,0,0);stroke:rgb(0,0,0);stroke-width:2"></line>
<line x1="281.778" y1="162.228" x2="289.889" y2="170.339" style="fill:rgb(0,0,0);stroke:rgb(0,0,0);stroke-width:1" transform="matrix(1 0 0 1 33.3333 6)"></line>
<line x1="293.778" y1="174.339" x2="301.889" y2="182.45" style="fill:rgb(0,0,0);stroke:rgb(0,0,0);stroke-width:1" transform="matrix(1 0 0 1 33.3333 6)"></line>
<line x1="306.889" y1="187.228" x2="312.889" y2="193.117" style="fill:rgb(0,0,0);stroke:rgb(0,0,0);stroke-width:1" transform="matrix(1 0 0 1 33.3333 6)"></line>
<line x1="316.767" y1="197.139" x2="322.878" y2="203.25" style="fill:rgb(0,0,0);stroke:rgb(0,0,0);stroke-width:1" transform="matrix(1 0 0 1 33.3333 6)"></line>
<line x1="328.767" y1="209.139" x2="335.878" y2="216.25" style="fill:rgb(0,0,0);stroke:rgb(0,0,0);stroke-width:1" transform="matrix(1 0 0 1 33.3333 6)"></line>
<line x1="337.2" y1="217.673" x2="340.062" y2="220.45" style="fill:rgb(0,0,0);stroke:rgb(0,0,0);stroke-width:1" transform="matrix(1 0 0 1 33.3333 6)"></line>
<line x1="339.901" y1="220.169" x2="336.644" y2="222.895" style="fill:rgb(0,0,0);stroke:rgb(0,0,0);stroke-width:1" transform="matrix(1 0 0 1 33.3333 6)"></line>
<line x1="334.311" y1="225.339" x2="326.311" y2="233.339" style="fill:rgb(0,0,0);stroke:rgb(0,0,0);stroke-width:1" transform="matrix(1 0 0 1 33.3333 6)"></line>
<line x1="322.2" y1="237.45" x2="314.644" y2="245.006" style="fill:rgb(0,0,0);stroke:rgb(0,0,0);stroke-width:1" transform="matrix(1 0 0 1 33.3333 6)"></line>
<line x1="311.856" y1="247.561" x2="306.411" y2="253.006" style="fill:rgb(0,0,0);stroke:rgb(0,0,0);stroke-width:1" transform="matrix(1 0 0 1 33.3333 6)"></line>
<line x1="302.633" y1="257.006" x2="297.078" y2="262.339" style="fill:rgb(0,0,0);stroke:rgb(0,0,0);stroke-width:1" transform="matrix(1 0 0 1 33.3333 6)"></line>
<line x1="292.3" y1="267.117" x2="286.744" y2="272.673" style="fill:rgb(0,0,0);stroke:rgb(0,0,0);stroke-width:1" transform="matrix(1 0 0 1 33.3333 6)"></line>
<line x1="287.99" y1="271.452" x2="280.967" y2="278.561" style="fill:rgb(0,0,0);stroke:rgb(0,0,0);stroke-width:1" transform="matrix(1 0 0 1 33.3333 6)"></line>
<g id="PT.%202"><text x="50px" y="115px" transform="matrix(1 0 0 1 59 183) translate(17.4699 11.4458) translate(2.40964 -7.83133) translate(14.4578 -7.22892)" style="fill:rgb(0,0,0);stroke-width:1;font-family:Arial Black;font-weight:bold;font-size:12;      ">PT. 2</text>
</g>
<line x1="130" y1="283" x2="119.277" y2="272.702" transform="matrix(1 0 0 1 0 0) translate(10.241 4.81928)" style="fill:rgb(0,0,0);stroke:rgb(0,0,0);stroke-width:2"></line>
<line x1="119.527" y1="273.452" x2="120" y2="245" transform="matrix(1 0 0 1 0 0) translate(10.241 4.81928)" style="fill:rgb(0,0,0);stroke:rgb(0,0,0);stroke-width:2"></line>
<line x1="342" y1="305" x2="378.414" y2="282.702" transform="matrix(1 0 0 1 0 0)" style="fill:rgb(0,0,0);stroke:rgb(0,0,0);stroke-width:2"></line>
<line x1="377.914" y1="283.577" x2="378" y2="238" transform="matrix(1 0 0 1 0 0)" style="fill:rgb(0,0,0);stroke:rgb(0,0,0);stroke-width:2"></line>
<g id="PT.%201"><text x="176px" y="119px" transform="matrix(1 0 0 1 128.928 190.566)" style="fill:rgb(0,0,0);stroke-width:1;font-family:Arial Black;font-weight:bold;font-size:12;      ">PT. 1</text>
</g>
<polygon points="114,61.3038 120,71.6962 108,71.6962" transform="matrix(1 0 0 1.25093 1.31894e-013 -16.6866) translate(6 139.896) translate(108 66.5) scale(0.698795 1) translate(-108 -66.5) translate(114 71.6962) scale(1 0.814643) translate(-114 -71.6962) translate(1.43103 0) translate(1.43103 0) translate(1.43103 0) translate(-1.43103 0) translate(-1.43103 0) translate(1.43103 0) translate(14.6552 4.72915)" style="fill:rgb(0,0,0);stroke:rgb(0,0,0);stroke-width:2"></polygon>
<polygon points="114,61.3038 120,71.6962 108,71.6962" transform="matrix(0.799197 0 0 1.01906 287.096 169.937)" style="fill:rgb(0,0,0);stroke:rgb(0,0,0);stroke-width:2"></polygon>
<g id="T" transform="translate(125.882 125.882)"><rect x="122" y="76" width="19" height="19" transform="matrix(1 0 0 1 0 0) translate(1 0) translate(1 0)" style="fill:rgb(255,255,255);stroke:rgb(0,0,0);stroke-width:2"></rect>
<text x="129px" y="90px" transform="matrix(1 0 0 1 0 0)" style="fill:rgb(0,0,0);stroke-width:1;font-family:Arial Black;font-weight:bold;font-size:12;      ">T</text>
</g>
</g>
</svg>

</g>
</svg>