<?xml version="1.0"?>
<!DOCTYPE svg PUBLIC "-//W3C//DTD SVG 1.1//EN" "http://www.w3.org/Graphics/SVG/1.1/DTD/svg11.dtd" >
<!-- SVG content generated using Symbology Configuration Management System (SCMS) -->
<!-- Systematic Software Engineering Ltd. - www.systematic.co.uk - do not remove  -->
<svg id="G*GPPF----****X" width="400px" height="400px" viewBox="0 0 400 400">
<g >
<svg viewBox="0 0 400 400" id="_0.G-GPPF--------X" width="400px" height="400px"><g transform="translate(-180 -150) scale(1.5 1.5)"><path d="M102.5 220 C125.762 222.326 149.219 223.82 172.5 218 C193.83 212.667 212.552 205.684     235.5 205 C269.701 203.98 294.413 213.52 325.167 207.444" transform="matrix(1 0 0 1 28 18)" style="fill:none;stroke:rgb(0,0,0);stroke-width:2"></path>
<line x1="284.322" y1="163.822" x2="326.544" y2="207.378" transform="matrix(1 0 0 1 28 19)" style="fill:rgb(0,0,0);stroke:rgb(0,0,0);stroke-width:2"></line>
<line x1="326.896" y1="206.274" x2="282.544" y2="248.711" transform="matrix(1 0 0 1 28 19)" style="fill:rgb(0,0,0);stroke:rgb(0,0,0);stroke-width:2"></line>
<line x1="281.778" y1="162.228" x2="289.889" y2="170.339" style="fill:rgb(0,0,0);stroke:rgb(0,0,0);stroke-width:1" transform="matrix(1 0 0 1 33.3333 6)"></line>
<line x1="293.778" y1="174.339" x2="301.889" y2="182.45" style="fill:rgb(0,0,0);stroke:rgb(0,0,0);stroke-width:1" transform="matrix(1 0 0 1 33.3333 6)"></line>
<line x1="306.889" y1="187.228" x2="312.889" y2="193.117" style="fill:rgb(0,0,0);stroke:rgb(0,0,0);stroke-width:1" transform="matrix(1 0 0 1 33.3333 6)"></line>
<line x1="316.767" y1="197.139" x2="322.878" y2="203.25" style="fill:rgb(0,0,0);stroke:rgb(0,0,0);stroke-width:1" transform="matrix(1 0 0 1 33.3333 6)"></line>
<line x1="328.767" y1="209.139" x2="335.878" y2="216.25" style="fill:rgb(0,0,0);stroke:rgb(0,0,0);stroke-width:1" transform="matrix(1 0 0 1 33.3333 6)"></line>
<line x1="337.2" y1="217.673" x2="340.062" y2="220.45" style="fill:rgb(0,0,0);stroke:rgb(0,0,0);stroke-width:1" transform="matrix(1 0 0 1 33.3333 6)"></line>
<line x1="339.901" y1="220.169" x2="336.644" y2="222.895" style="fill:rgb(0,0,0);stroke:rgb(0,0,0);stroke-width:1" transform="matrix(1 0 0 1 33.3333 6)"></line>
<line x1="334.311" y1="225.339" x2="326.311" y2="233.339" style="fill:rgb(0,0,0);stroke:rgb(0,0,0);stroke-width:1" transform="matrix(1 0 0 1 33.3333 6)"></line>
<line x1="322.2" y1="237.45" x2="314.644" y2="245.006" style="fill:rgb(0,0,0);stroke:rgb(0,0,0);stroke-width:1" transform="matrix(1 0 0 1 33.3333 6)"></line>
<line x1="311.856" y1="247.561" x2="306.411" y2="253.006" style="fill:rgb(0,0,0);stroke:rgb(0,0,0);stroke-width:1" transform="matrix(1 0 0 1 33.3333 6)"></line>
<line x1="302.633" y1="257.006" x2="297.078" y2="262.339" style="fill:rgb(0,0,0);stroke:rgb(0,0,0);stroke-width:1" transform="matrix(1 0 0 1 33.3333 6)"></line>
<line x1="292.3" y1="267.117" x2="286.744" y2="272.673" style="fill:rgb(0,0,0);stroke:rgb(0,0,0);stroke-width:1" transform="matrix(1 0 0 1 33.3333 6)"></line>
<line x1="287.99" y1="271.452" x2="280.967" y2="278.561" style="fill:rgb(0,0,0);stroke:rgb(0,0,0);stroke-width:1" transform="matrix(1 0 0 1 33.3333 6)"></line>
<g id="T"><text x="226px" y="219px" transform="translate(20 -3)" style="fill:rgb(0,0,0);font-size:12;font-family:Arial Black;font-weight:bold">DAVID</text>
</g>
</g>
</svg>

</g>
</svg>