<?xml version="1.0"?>
<!DOCTYPE svg PUBLIC "-//W3C//DTD SVG 1.1//EN" "http://www.w3.org/Graphics/SVG/1.1/DTD/svg11.dtd" >
<!-- SVG content generated using Symbology Configuration Management System (SCMS) -->
<!-- Systematic Software Engineering Ltd. - www.systematic.co.uk - do not remove  -->
<svg id="SUGPUUAD--*****" width="400px" height="400px" viewBox="0 0 400 400">
<g >
<svg viewBox="0 0 400 400" id="_0.SUG-U----------" width="400px" height="400px"><path d="M115 285 C115 400 285 400 285 285 C400 285 400 115 285 115 C285 0 115 0 115 115 C0     115 0 285 115 285 z" style="fill:rgb(255,255,128);stroke:rgb(0,0,0);stroke-width:10"></path>
</svg>

</g>
<g >
<svg viewBox="0 0 400 400" id="_1.S-G-UUA--------" width="400px" height="400px"><ellipse cx="130" cy="160" rx="18" ry="18" style="fill:rgb(0,0,0);stroke:rgb(0,0,0);stroke-width:10"></ellipse>
<ellipse cx="270" cy="160" rx="18" ry="18" style="fill:rgb(0,0,0);stroke:rgb(0,0,0);stroke-width:10"></ellipse>
<path d="M140 145 C200 180 210 200 235 290" style="fill:none;stroke:rgb(0,0,0);stroke-width:10"></path>
<path d="M260 145 C200 180 190 200 165 290" style="fill:none;stroke:rgb(0,0,0);stroke-width:10"></path>
</svg>

</g>
<g transform="translate(100 38) scale(0.5 0.5)" >
<svg viewBox="0 0 400 400" id="_2.S-A-MFD--------" width="400px" height="400px"><text x="200" y="230" style="fill:rgb(0,0,0);text-anchor:middle;font-weight:bold;font-size:150;font-family:Arial">D</text>
</svg>

</g>
</svg>