<?xml version="1.0"?>
<!DOCTYPE svg PUBLIC "-//W3C//DTD SVG 1.1//EN" "http://www.w3.org/Graphics/SVG/1.1/DTD/svg11.dtd" >
<!-- SVG content generated using Symbology Configuration Management System (SCMS) -->
<!-- Systematic Software Engineering Ltd. - www.systematic.co.uk - do not remove  -->
<svg id="SFGPEWDMS-*****" width="400px" height="400px" viewBox="0 0 400 400">
<g transform="translate(122 86) scale(5.5 5.5)" >
<svg viewBox="0 0 400 400" id="_0.SFG-EWDMS------" width="400px" height="400px"><path style="fill:rgb(128,224,255)" d="M23.617 35.928 L4.896 35.928 C1.631 35.928 0 34.92 0 32.904 C0 31.513 0.816 30.625
			2.449 30.24 C3.215 30.049 4.584 29.951 6.553 29.951 L24.553 29.951 C27.721
			29.951 29.305 30.935 29.305 32.904 C29.305 34.92 27.408 35.928 23.617 35.928
			zM4.752 30.887 C3.072 30.887 2.232 31.561 2.232 32.905 C2.232 34.249 3.671 34.921
			6.552 34.921 L24.335 34.921 C26.159 34.921 27.071 34.249 27.071 32.905 C27.071
			31.897 26.591 31.274 25.632 31.032 C25.296 30.985 24.407 30.96 22.968
			30.96 zM8.064 6.768 L9.648 6.768 L9.648 18.288 L8.064 18.288 zM13.393 11.16 L13.393
			9.576 L9.648 9.576 L9.648 11.16 zM13.393 15.119 L13.393 13.535 L9.648
			13.535 L9.648 15.119 zM15.121 0 L15.121 29.879 L13.32 29.951 L13.32 0 zM18.432
			11.16 L18.432 9.504 L15.121 9.576 L15.121 11.232 zM18.432 15.119 L18.432 13.535
			L15.121 13.535 L15.121 15.191 zM18.432 6.695 L20.161 6.695 L20.161 18.215
			L18.432 18.215 z"></path>
</svg>

</g>
</svg>