<?xml version="1.0"?>
<!DOCTYPE svg PUBLIC "-//W3C//DTD SVG 1.1//EN" "http://www.w3.org/Graphics/SVG/1.1/DTD/svg11.dtd" >
<!-- SVG content generated using Symbology Configuration Management System (SCMS) -->
<!-- Systematic Software Engineering Ltd. - www.systematic.co.uk - do not remove  -->
<svg id="G*MPOGR---****X" width="400px" height="400px" viewBox="0 0 400 400">
<g >
<svg viewBox="0 0 400 400" id="_0.G-MPOGR-------X" width="400px" height="400px"><g transform="translate(-110 -90) scale(1.25 1.25)"><polyline points="103.263,181.118 156.5,181 173.946,208.816 190.944,181.667 246.944,181.556 266.466,209.415      283.5,181 334.5,181.333 351.02,208.594 365.056,181.333 396.385,181.159" transform="matrix(0.974393 0.224853 -0.224853 0.974393 46.1006 -74.9017)" style="stroke:rgb(0,0,0);stroke-width:2;fill:rgb(255,255,255)"></polyline>
<polyline points="112.389,181 156.5,181 173.833,208.5 190.944,181.667 246.944,181.556 265.741,208.611      283.5,181 334.5,181.333 350.907,206.778 365.056,181.333 397.944,181.333" transform="matrix(-1 0 0 -1 503.619 514.898)" style="stroke:rgb(0,0,0);stroke-width:2;fill:rgb(255,255,255)"></polyline>
<polyline points="179.82,313.748 179.768,250.16 209.131,235.614 180.131,221.796 180.131,190.16 208.631,172.933      179.768,159.978 179.768,102.968" transform="matrix(1 0 0 -1 -74.4594 437.568)" style="stroke:rgb(0,0,0);stroke-width:2;fill:rgb(255,255,255)"></polyline>
<polyline points="177.416,231.017 205.729,231.017 220.274,259.88 234.093,231.38 265.729,231.38 282.456,260.38      295.911,231.017 322.544,231.017" transform="matrix(6.12303e-017 -1 -1 -6.12303e-017 622.002 512.322)" style="stroke:rgb(0,0,0);stroke-width:2;fill:rgb(255,255,255)"></polyline>
<line x1="104" y1="170" x2="136" y2="150" style="fill:rgb(0,0,0);stroke:rgb(0,0,0);stroke-width:1" transform="matrix(1 0 0 1 1.92308 -18.2692)"></line>
<line x1="104" y1="194" x2="157.829" y2="159.722" style="fill:rgb(0,0,0);stroke:rgb(0,0,0);stroke-width:1" transform="matrix(1 0 0 1 1.92308 -18.2692)"></line>
<line x1="117.742" y1="212.295" x2="164.896" y2="181.348" style="fill:rgb(0,0,0);stroke:rgb(0,0,0);stroke-width:1" transform="matrix(1 0 0 1 1.92308 -18.2692)"></line>
<line x1="104" y1="245" x2="221.729" y2="170.415" style="fill:rgb(0,0,0);stroke:rgb(0,0,0);stroke-width:1" transform="matrix(1 0 0 1 1.92308 -18.2692)"></line>
<line x1="110" y1="269" x2="247.316" y2="184.148" style="fill:rgb(0,0,0);stroke:rgb(0,0,0);stroke-width:1" transform="matrix(1 0 0 1 1.92308 -18.2692)"></line>
<line x1="132" y1="282" x2="256" y2="205" style="fill:rgb(0,0,0);stroke:rgb(0,0,0);stroke-width:1" transform="matrix(1 0 0 1 1.92308 -18.2692)"></line>
<line x1="104" y1="323" x2="320" y2="193" style="fill:rgb(0,0,0);stroke:rgb(0,0,0);stroke-width:1" transform="matrix(1 0 0 1 1.92308 -18.2692)"></line>
<line x1="108" y1="352" x2="150" y2="327" style="fill:rgb(0,0,0);stroke:rgb(0,0,0);stroke-width:1" transform="matrix(1 0 0 1 1.92308 -18.2692)"></line>
<line x1="151.682" y1="326.175" x2="336" y2="216" style="fill:rgb(0,0,0);stroke:rgb(0,0,0);stroke-width:1" transform="matrix(1 0 0 1 1.92308 -18.2692)"></line>
<line x1="166" y1="349" x2="388.876" y2="216.548" style="fill:rgb(0,0,0);stroke:rgb(0,0,0);stroke-width:1" transform="matrix(1 0 0 1 1.92308 -18.2692)"></line>
<line x1="202" y1="352" x2="226.216" y2="339.775" style="fill:rgb(0,0,0);stroke:rgb(0,0,0);stroke-width:1" transform="matrix(1 0 0 1 1.92308 -18.2692)"></line>
<line x1="244" y1="336" x2="375.376" y2="257.175" style="fill:rgb(0,0,0);stroke:rgb(0,0,0);stroke-width:1" transform="matrix(1 0 0 1 1.92308 -18.2692)"></line>
<line x1="273.849" y1="351.308" x2="388" y2="283" style="fill:rgb(0,0,0);stroke:rgb(0,0,0);stroke-width:1" transform="matrix(1 0 0 1 1.92308 -18.2692)"></line>
<line x1="336" y1="338" x2="374" y2="317" style="fill:rgb(0,0,0);stroke:rgb(0,0,0);stroke-width:1" transform="matrix(1 0 0 1 1.92308 -18.2692)"></line>
<line x1="353.009" y1="351.575" x2="388.742" y2="330.442" style="fill:rgb(0,0,0);stroke:rgb(0,0,0);stroke-width:1" transform="matrix(1 0 0 1 1.92308 -18.2692)"></line>
<g transform="translate(43 -162)"><rect x="134" y="380" width="138" height="56" transform="matrix(1 0 0 1 0 0)" style="fill:rgb(255,255,255);stroke:none;stroke-width:2"></rect>
<g id="T"><text x="138px" y="396px" transform="matrix(1 0 0 1 1 1)" style="fill:rgb(0,0,0);font-family:Arial Black;font-weight:bold;font-size:18">23 AD</text>
</g>
<g id="W"><text x="134px" y="414px" transform="matrix(1 0 0 1 4 0)" style="fill:rgb(0,0,0);font-family:Arial Black;font-weight:bold;font-size:18">200900-</text>
</g>
<g id="W1"><text x="102px" y="439px" transform="matrix(1 0 0 1 36 -9)" style="fill:rgb(0,0,0);font-family:Arial Black;font-weight:bold;font-size:18">272100Z SEP</text>
</g>
</g>
</g>
</svg>

</g>
</svg>