<?xml version="1.0"?>
<!DOCTYPE svg PUBLIC "-//W3C//DTD SVG 1.1//EN" "http://www.w3.org/Graphics/SVG/1.1/DTD/svg11.dtd" >
<!-- SVG content generated using Symbology Configuration Management System (SCMS) -->
<!-- Systematic Software Engineering Ltd. - www.systematic.co.uk - do not remove  -->
<svg id="SUGPIMA---H****" width="400px" height="400px" viewBox="0 0 400 400">
<g >
<svg viewBox="0 0 400 400" id="_0.SUG-I----------" width="400px" height="400px"><rect x="150" y="10" width="100" height="50" style="fill:rgb(0,0,0);stroke:none"></rect>
<path d="M115 285 C115 400 285 400 285 285 C400 285 400 115 285 115 C285 0 115 0 115 115 C0     115 0 285 115 285 z" style="fill:rgb(255,255,128);stroke:rgb(0,0,0);stroke-width:10"></path>
</svg>

</g>
<g >
<svg viewBox="0 0 400 400" id="_1.S-G-IMA---H----" width="400px" height="400px"><g transform="translate(106 155) scale(5 5)"><path d="M37.656 9.836 C37.271 10.223 36.886 10.414 36.504 10.414 L30.455 9.191 C29.975 9.433
				29.256 9.746 28.295 10.13 C26.807 10.419 24.576 10.948 21.6 11.718 L34.272
				16.845 C33.887 17.23 33.024 17.615 31.68 17.999 L15.192 13.149 C13.321 13.583
				11.448 14.038 9.577 14.516 C5.975 15.381 3.696 15.813 2.737 15.813 C0.912
				15.814 0 15.504 0 14.879 C0 14.447 0.336 13.859 1.008 13.115 C1.68 12.371
				2.256 11.951 2.737 11.855 C4.991 11.279 8.352 10.486 12.817 9.478 C13.249 8.134
				13.944 6.046 14.905 3.214 C15.624 2.927 16.225 2.735 16.706 2.638 C16.706
				4.56 16.849 6.527 17.138 8.542 C19.633 8.012 22.92 7.24 27 6.227 C27.238
				6.131 27.432 5.817 27.576 5.286 C27.767 4.466 27.863 4.032 27.863 3.983 C28.152
				3.936 28.535 3.815 29.015 3.62 C29.351 2.897 29.855 1.956 30.527 0.798 C30.574
				0.798 31.367 0.532 32.904 0.001 L31.463 7.378 z"></path>
</g>
</svg>

</g>
</svg>