<?xml version="1.0"?>
<!DOCTYPE svg PUBLIC "-//W3C//DTD SVG 1.1//EN" "http://www.w3.org/Graphics/SVG/1.1/DTD/svg11.dtd" >
<!-- SVG content generated using Symbology Configuration Management System (SCMS) -->
<!-- Systematic Software Engineering Ltd. - www.systematic.co.uk - do not remove  -->
<svg id="SUGPUULF--*****" width="400px" height="400px" viewBox="0 0 400 400">
<g >
<svg viewBox="0 0 400 400" id="_0.SUG-U----------" width="400px" height="400px"><path d="M115 285 C115 400 285 400 285 285 C400 285 400 115 285 115 C285 0 115 0 115 115 C0     115 0 285 115 285 z" style="fill:rgb(255,255,128);stroke:rgb(0,0,0);stroke-width:10"></path>
</svg>

</g>
<g transform="translate(42 -20) scale(0.8 0.8)" >
<svg viewBox="0 0 400 400" id="_1.S-G-UULS-------" width="400px" height="400px"><text x="200" y="232" style="fill:rgb(0,0,0);text-anchor:middle;font-weight:bold;font-size:90;font-family:Arial">SP</text>
</svg>

</g>
<g >
<svg viewBox="0 0 400 400" id="_2.S-G-UCVF-------" width="400px" height="400px"><path d="M200 200 L145 175 C90 150 90 250 145 225 L200 200 L255 175 C310 150 310 250 255 225     L200 200" style="fill:rgb(0,0,0);stroke:none"></path>
</svg>

</g>
</svg>