<?xml version="1.0"?>
<!DOCTYPE svg PUBLIC "-//W3C//DTD SVG 1.1//EN" "http://www.w3.org/Graphics/SVG/1.1/DTD/svg11.dtd" >
<!-- SVG content generated using Symbology Configuration Management System (SCMS) -->
<!-- Systematic Software Engineering Ltd. - www.systematic.co.uk - do not remove  -->
<svg id="G*GPALM---****X" width="400px" height="400px" viewBox="0 0 400 400">
<g >
<svg viewBox="0 0 400 400" id="_0.G-GPALM-------X" width="400px" height="400px"><g transform="translate(-190 -150) scale(1.5 1.5)"><line x1="142" y1="171" x2="331.5" y2="170.857" style="fill:none;stroke:rgb(0,0,0);stroke-width:2" transform="matrix(1 0 0 1 25 36)"></line>
<line x1="152.757" y1="250.486" x2="349.786" y2="250.286" transform="matrix(1 0 0 1 11 14)" style="fill:none;stroke:rgb(0,0,0);stroke-width:2"></line>
<line x1="168" y1="199" x2="303" y2="199" style="fill:none;stroke:rgb(0,0,0);stroke-width:2" transform="matrix(1 0 0 1 25 36)"></line>
<text x="204px" y="191px" transform="matrix(1 0 0 1 38 36)" style="fill:rgb(0,0,0);font-size:12;font-family:Arial Black;font-weight:bold">MRR</text>
<circle cx="359" cy="239" r="29" transform="matrix(1 0 0 0.990147 -1 -1.07376)" style="fill:rgb(255,255,255);stroke:rgb(0,0,0);stroke-width:2"></circle>
<circle cx="359" cy="239" r="29" transform="matrix(1 0 0 0.990147 -195 -1.07383)" style="fill:rgb(255,255,255);stroke:rgb(0,0,0);stroke-width:2"></circle>
<g id="PT.%201"><text x="206px" y="125px" transform="matrix(1 0 0 1 -57 112)" style="fill:rgb(0,0,0);font-family:Arial Black;font-weight:bold;font-size:12">ACP</text>
<text x="220px" y="135px" transform="matrix(1 0 0 1 -60 114)" style="fill:rgb(0,0,0);font-family:Arial Black;font-weight:bold;font-size:12">1</text>
</g>
<g id="PT.%202"><text x="280px" y="133px" transform="matrix(1 0 0 1 74 116)" style="fill:rgb(0,0,0);font-family:Arial Black;font-weight:bold;font-size:12">2</text>
<text x="206px" y="125px" transform="matrix(1 0 0 1 139 111)" style="fill:rgb(0,0,0);font-family:Arial Black;font-weight:bold;font-size:12">ACP</text>
</g>
<g id="W"><text x="171px" y="413px" transform="matrix(1 0 0 1 0 0) translate(31 -161)" style="fill:rgb(0,0,0);stroke-width:1;font-size:12;font-family:Arial Black;font-weight:bold;     ">270600Z-</text>
</g>
<g id="W1"><text x="289px" y="406px" transform="matrix(1 0 0 1 0 0) translate(-23 -154)" style="fill:rgb(0,0,0);stroke-width:1;font-size:12;font-family:Arial Black;font-weight:bold;     ">280600Z</text>
</g>
</g>
</svg>

</g>
</svg>