<?xml version="1.0"?>
<!DOCTYPE svg PUBLIC "-//W3C//DTD SVG 1.1//EN" "http://www.w3.org/Graphics/SVG/1.1/DTD/svg11.dtd" >
<!-- SVG content generated using Symbology Configuration Management System (SCMS) -->
<!-- Systematic Software Engineering Ltd. - www.systematic.co.uk - do not remove  -->
<svg id="G*GPPD----****X" width="400px" height="400px" viewBox="0 0 400 400">
<g >
<svg viewBox="0 0 400 400" id="_0.G-GPPD--------X" width="400px" height="400px"><g transform="translate(-280 -250) scale(2 2)"><line x1="118" y1="219" x2="128.615" y2="211.196" style="fill:rgb(0,0,0);stroke:rgb(0,0,0);stroke-width:2" transform="translate(37 37)"></line>
<line x1="131.295" y1="209.196" x2="147.562" y2="197.263" style="fill:rgb(0,0,0);stroke:rgb(0,0,0);stroke-width:2" transform="translate(37 37)"></line>
<line x1="153.835" y1="192.756" x2="168.302" y2="182.156" style="fill:rgb(0,0,0);stroke:rgb(0,0,0);stroke-width:2" transform="translate(37 37)"></line>
<line x1="176.695" y1="175.89" x2="191.428" y2="165.156" style="fill:rgb(0,0,0);stroke:rgb(0,0,0);stroke-width:2" transform="translate(37 37)"></line>
<line x1="198.695" y1="159.73" x2="207.295" y2="153.463" style="fill:rgb(0,0,0);stroke:rgb(0,0,0);stroke-width:2" transform="translate(37 37)"></line>
<line x1="209" y1="154" x2="217.562" y2="161.93" style="fill:rgb(0,0,0);stroke:rgb(0,0,0);stroke-width:2" transform="translate(37 37)"></line>
<line x1="222.462" y1="166.37" x2="237.062" y2="179.836" style="fill:rgb(0,0,0);stroke:rgb(0,0,0);stroke-width:2" transform="translate(37 37)"></line>
<line x1="242.895" y1="185.236" x2="256.028" y2="197.303" style="fill:rgb(0,0,0);stroke:rgb(0,0,0);stroke-width:2" transform="translate(37 37)"></line>
<line x1="262" y1="203" x2="270.995" y2="211.25" style="fill:rgb(0,0,0);stroke:rgb(0,0,0);stroke-width:2" transform="translate(37 37)"></line>
<line x1="274.462" y1="214.383" x2="284.395" y2="223.583" style="fill:rgb(0,0,0);stroke:rgb(0,0,0);stroke-width:2" transform="translate(37 37)"></line>
</g>
</svg>

</g>
</svg>