<?xml version="1.0"?>
<!DOCTYPE svg PUBLIC "-//W3C//DTD SVG 1.1//EN" "http://www.w3.org/Graphics/SVG/1.1/DTD/svg11.dtd" >
<!-- SVG content generated using Symbology Configuration Management System (SCMS) -->
<!-- Systematic Software Engineering Ltd. - www.systematic.co.uk - do not remove  -->
<svg id="G*OPSM----****X" width="400px" height="400px" viewBox="0 0 400 400">
<g >
<svg viewBox="0 0 400 400" id="_0.G-OPSM--------X" width="400px" height="400px"><g transform="translate(-450 -220) scale(1.75 1.75)"><g transform="translate(277 242) translate(21.5705 15.375) scale(1 9.13008) translate(-21.5705 -15.375) translate(5.68434e-014 7.6875) scale(4.87103 1) translate(-5.68434e-014 -7.6875) translate(21.5705 9.45424e-017) scale(1 0.67943) translate(-21.5705 -9.45424e-017) translate(-0.615886 7.73788) translate(-1.02648 1.77326)"><path d="M12.42 15.375 L0 7.867 L12.42 0 zM13.199 0 L36.24 7.867 L13.199 15.375 zM43.141 10.516       L36.241 7.875 L43.141 4.994 z"></path>
</g>
<line x1="158" y1="149" x2="158" y2="169" transform="matrix(1 0 0 1 0 0) translate(111 124) translate(158 169) scale(1 4.2) translate(-158 -169) translate(158 169) scale(1 0.404762) translate(-158 -169)" style="fill:rgb(0,0,0);stroke:rgb(0,0,0);stroke-width:2"></line>
<line x1="157.25" y1="169" x2="178" y2="169" transform="matrix(1 0 0 1 0 0) translate(111 124)" style="fill:rgb(0,0,0);stroke:rgb(0,0,0);stroke-width:2"></line>
<polygon points="153,119 159.928,131 146.072,131" transform="matrix(1.01036 0 0 1 -1.58553 0) translate(3.95897 20) translate(0.989743 0) translate(0.989743 0) translate(-0.989743 0) translate(109.862 124) translate(4.94872 -66) translate(-0.989743 0) translate(-0.989743 0) translate(-0.989743 0) translate(-0.989743 0) translate(-0.989743 0) translate(-0.989743 0) translate(-0.989743 0) translate(0.989743 0) translate(-0.989743 53) translate(0.989743 0) translate(0.989743 0)" style="fill:rgb(0,0,0);stroke:rgb(0,0,0);stroke-width:2"></polygon>
<g id="ANCHOR%20POINT" transform="translate(186 53)"><text x="106px" y="234px" transform="matrix(1 0 0 1 0 0)" style="fill:rgb(0,0,0);stroke-width:1;font-family:Arial Black;font-weight:bold;font-size:12;      ">ANCHOR</text>
<text x="112px" y="265px" transform="matrix(1 0 0 1 0 0) translate(2 -18)" style="fill:rgb(0,0,0);stroke-width:1;font-family:Arial Black;font-weight:bold;font-size:12;      ">POINT</text>
</g>
</g>
</svg>

</g>
</svg>