<?xml version="1.0"?>
<!DOCTYPE svg PUBLIC "-//W3C//DTD SVG 1.1//EN" "http://www.w3.org/Graphics/SVG/1.1/DTD/svg11.dtd" >
<!-- SVG content generated using Symbology Configuration Management System (SCMS) -->
<!-- Systematic Software Engineering Ltd. - www.systematic.co.uk - do not remove  -->
<svg id="G*FPPTN---****X" width="400px" height="400px" viewBox="0 0 400 400">
<g >
<svg viewBox="0 0 400 400" id="_0.G-F-PTN-------X" width="400px" height="400px"><circle cx="200" cy="200" r="10" transform="matrix(1 0 0 1 0 0)" style="fill:rgb(0,0,0);stroke:rgb(0,0,0);stroke-width:1"></circle>
<line x1="220" y1="200" x2="350" y2="200" transform="matrix(1 0 0 1 0 0)" style="fill:none;stroke:rgb(0,0,0);stroke-width:10"></line>
<line x1="180" y1="200" x2="50" y2="200" transform="matrix(1 0 0 1 0 0)" style="fill:none;stroke:rgb(0,0,0);stroke-width:10"></line>
<line x1="200" y1="180" x2="200" y2="50" transform="matrix(1 0 0 1 0 0)" style="fill:none;stroke:rgb(0,0,0);stroke-width:10"></line>
<line x1="200" y1="220" x2="200" y2="350" transform="matrix(1 0 0 1 0 0)" style="fill:none;stroke:rgb(0,0,0);stroke-width:10"></line>
</svg>

</g>
<g transform="translate(75 -75)" >
<svg viewBox="0 0 400 400" id="_1.G-----------PTS" width="400px" height="400px"><rect x="175" y="175" width="50" height="50" style="fill:none;stroke:rgb(0,0,0);stroke-width:5" transform="translate(0 0) translate(0 0)"></rect>
<text x="189px" y="213px" style="fill:rgb(0,0,0);stroke:rgb(0,0,0);font-size:36;font-family:Arial">T</text>
</svg>

</g>
<g transform="translate(-140 -140)" >
<svg viewBox="0 0 400 400" id="_2.GC------------X" width="400px" height="400px"><text x="149px" y="195px" style="fill:rgb(0,0,0);stroke:rgb(0,0,0);font-size:24;font-family:Arial">CENTER</text>
<text x="160px" y="220px" style="fill:rgb(0,0,0);stroke:rgb(0,0,0);font-size:24;font-family:Arial">POINT</text>
</svg>

</g>
<g transform="translate(-20 -110)" >
<svg viewBox="0 0 400 400" id="_3.GAR1----------X" width="400px" height="400px"><line x1="110" y1="194" x2="200" y2="284" transform="matrix(1 0 0 1 0 0)" style="fill:none;stroke:rgb(0,0,0);stroke-width:3"></line>
<polygon points="203,287 191,283 199,275" style="fill:rgb(0,0,0);stroke:rgb(0,0,0);stroke-width:2"></polygon>
</svg>

</g>
</svg>