<?xml version="1.0"?>
<!DOCTYPE svg PUBLIC "-//W3C//DTD SVG 1.1//EN" "http://www.w3.org/Graphics/SVG/1.1/DTD/svg11.dtd" >
<!-- SVG content generated using Symbology Configuration Management System (SCMS) -->
<!-- Systematic Software Engineering Ltd. - www.systematic.co.uk - do not remove  -->
<svg id="G*TPY-----****X" width="400px" height="400px" viewBox="0 0 400 400">
<g >
<svg viewBox="0 0 400 400" id="_0.G-TPY---------X" width="400px" height="400px"><g transform="translate(-110 -80) scale(1.25 1.25)"><line x1="172.086" y1="153.528" x2="171.836" y2="289.878" style="fill:none;stroke:rgb(0,0,0);stroke-width:2" transform="matrix(1 0 0 1 -40 -2)"></line>
<line x1="172" y1="289" x2="394.946" y2="288.942" style="fill:none;stroke:rgb(0,0,0);stroke-width:2" transform="matrix(1 0 0 1 -40 -2)"></line>
<line x1="171.461" y1="153.828" x2="393.588" y2="153.978" style="fill:none;stroke:rgb(0,0,0);stroke-width:2" transform="matrix(1 0 0 1 -40 -2)"></line>
<ellipse cx="172" cy="220.5" rx="4" ry="4.5" transform="matrix(1 0 0 1 -40 2.8)" style="fill:rgb(0,0,0);stroke:rgb(0,0,0);stroke-width:1"></ellipse>
<line x1="374.573" y1="139.642" x2="393" y2="154" style="fill:none;stroke:rgb(0,0,0);stroke-width:2" transform="matrix(1 0 0 1 -40 -2)"></line>
<line x1="393.071" y1="154.142" x2="373.373" y2="169.242" style="fill:none;stroke:rgb(0,0,0);stroke-width:2" transform="matrix(1 0 0 1 -40 -2)"></line>
<line x1="374.173" y1="272.442" x2="394.571" y2="288.942" style="fill:none;stroke:rgb(0,0,0);stroke-width:2" transform="matrix(1 0 0 1 -40 -2)"></line>
<line x1="394.571" y1="288.942" x2="373.373" y2="302.842" style="fill:none;stroke:rgb(0,0,0);stroke-width:2" transform="matrix(1 0 0 1 -40 -2)"></line>
<g id="PT.%201" transform="translate(297 119)"><text x="42px" y="79px" transform="matrix(1 0 0 1 0 0)" style="fill:rgb(0,0,0);stroke-width:1;font-family:Arial Black;font-weight:bold;font-size:12;      ">PT. 1</text>
</g>
<g id="PT.%202" transform="translate(215 173)"><text x="124px" y="78px" transform="matrix(1 0 0 1 0 0)" style="fill:rgb(0,0,0);stroke-width:1;font-family:Arial Black;font-weight:bold;font-size:12;      ">PT. 2</text>
</g>
<g id="PT.%203" transform="translate(0 163)"><text x="200px" y="65px" transform="matrix(1 0 0 1 0 0)" style="fill:rgb(0,0,0);stroke-width:1;font-family:Arial Black;font-weight:bold;font-size:12;      ">PT. 3</text>
</g>
<line x1="144" y1="224" x2="196" y2="224" transform="matrix(1 0 0 1 0 0)" style="fill:rgb(0,0,0);stroke:rgb(0,0,0);stroke-width:2"></line>
<polygon points="36,120.304 42,130.696 30,130.696" transform="matrix(-1.83691e-016 -1 1.82828 -3.35838e-016 -192.534 160.586) translate(-99 60.7129)" style="fill:rgb(0,0,0);stroke:rgb(0,0,0);stroke-width:2"></polygon>
<line x1="144" y1="224" x2="196" y2="224" transform="matrix(6.12303e-017 0.46166 -1 2.82676e-017 577.966 94.7211)" style="fill:rgb(0,0,0);stroke:rgb(0,0,0);stroke-width:2"></line>
<polygon points="36,120.304 42,130.696 30,130.696" transform="matrix(1 -1.1307e-016 4.47784e-016 0.844044 318.38 57.0802)" style="fill:rgb(0,0,0);stroke:rgb(0,0,0);stroke-width:2"></polygon>
<line x1="144" y1="224" x2="196" y2="224" transform="matrix(6.12303e-017 -0.46166 -0.722147 -2.04133e-017 516.842 347.451)" style="fill:rgb(0,0,0);stroke:rgb(0,0,0);stroke-width:2"></line>
<polygon points="36,120.304 42,130.696 30,130.696" transform="matrix(1 1.1307e-016 3.23366e-016 -0.609523 319.38 356.878)" style="fill:rgb(0,0,0);stroke:rgb(0,0,0);stroke-width:2"></polygon>
</g>
</svg>

</g>
</svg>