<?xml version="1.0"?>
<!DOCTYPE svg PUBLIC "-//W3C//DTD SVG 1.1//EN" "http://www.w3.org/Graphics/SVG/1.1/DTD/svg11.dtd" >
<!-- SVG content generated using Symbology Configuration Management System (SCMS) -->
<!-- Systematic Software Engineering Ltd. - www.systematic.co.uk - do not remove  -->
<svg id="G*GPGAG---****X" width="400px" height="400px" viewBox="0 0 400 400">
<g >
<svg viewBox="0 0 400 400" id="_0.G-GPGAG-------X" width="400px" height="400px"><path d="M258.5 286.5 C115.865 348.404 33.5 336.5 32.5 225.5 C31.5 114.5 48.5 93.5 97.5 95.5
			C146.5 97.5 202.5 127.5 233.5 124.5 C264.5 121.5 271.5 81.5 306.5 81.5 C341.5
			81.5 371.502 91.278 365.5 195.5 C359.498 299.722 289.597 273.004 258.5 286.5
			z" style="fill:none;stroke:rgb(0,0,0);stroke-width:5"></path>
</svg>

</g>
<g >
<svg viewBox="0 0 400 400" id="_1.G-----------PTS" width="400px" height="400px"><rect x="175" y="175" width="50" height="50" style="fill:none;stroke:rgb(0,0,0);stroke-width:5" transform="translate(0 0) translate(0 0)"></rect>
<text x="189px" y="213px" style="fill:rgb(0,0,0);stroke:rgb(0,0,0);font-size:36;font-family:Arial">T</text>
</svg>

</g>
<g transform="translate(163 -64)" >
<svg viewBox="0 0 400 400" id="_2.G-----------PNF" width="400px" height="400px"><rect x="175" y="175" width="50" height="50" style="fill:rgb(255,255,255);stroke:rgb(0,0,0);stroke-width:5" transform="translate(0 0) translate(0 0)"></rect>
<text x="187px" y="213px" style="fill:rgb(0,0,0);stroke:rgb(0,0,0);font-size:36;font-family:Arial">N</text>
</svg>

</g>
<g transform="translate(-166 34)" >
<svg viewBox="0 0 400 400" id="_3.G-----------PNF" width="400px" height="400px"><rect x="175" y="175" width="50" height="50" style="fill:rgb(255,255,255);stroke:rgb(0,0,0);stroke-width:5" transform="translate(0 0) translate(0 0)"></rect>
<text x="187px" y="213px" style="fill:rgb(0,0,0);stroke:rgb(0,0,0);font-size:36;font-family:Arial">N</text>
</svg>

</g>
</svg>