<?xml version="1.0"?>
<!DOCTYPE svg PUBLIC "-//W3C//DTD SVG 1.1//EN" "http://www.w3.org/Graphics/SVG/1.1/DTD/svg11.dtd" >
<!-- SVG content generated using Symbology Configuration Management System (SCMS) -->
<!-- Systematic Software Engineering Ltd. - www.systematic.co.uk - do not remove  -->
<svg id="G*MPBCD---****X" width="400px" height="400px" viewBox="0 0 400 400">
<g >
<svg viewBox="0 0 400 400" id="_0.G-MPBCE-------X" width="400px" height="400px"><line x1="25" y1="137" x2="375" y2="137" style="fill:none;stroke:rgb(0,0,0);stroke-width:12;stroke-dasharray:100 25"></line>
<line x1="25" y1="263" x2="375" y2="263" style="fill:none;stroke:rgb(0,0,0);stroke-width:12;stroke-dasharray:100 25"></line>
</svg>

</g>
<g >
<svg viewBox="0 0 400 400" id="_1.G-MPBCD-------X" width="400px" height="400px"><polyline points="185,119 215,137 185,155 215,173 185,191 215,209 185,227 215,245 185,263 215,281" style="fill:none;stroke:rgb(0,0,0);stroke-width:5"></polyline>
</svg>

</g>
<g >
<svg viewBox="0 0 400 400" id="_2.G-MPBC------L1X" width="400px" height="400px"><polyline points="25,285 25,305 40,315" style="fill:none;stroke:rgb(0,0,0);stroke-width:3"></polyline>
<polygon points="21,289 25,279 29,289" style="fill:rgb(0,0,0);stroke:rgb(0,0,0);stroke-width:3"></polygon>
<polyline points="375,285 375,305 360,315" style="fill:none;stroke:rgb(0,0,0);stroke-width:3"></polyline>
<polygon points="371,289 375,279 379,289" style="fill:rgb(0,0,0);stroke:rgb(0,0,0);stroke-width:3"></polygon>
<text x="45px" y="325px" transform="matrix(1 0 0 1 0 0)" style="fill:rgb(0,0,0);stroke:rgb(0,0,0);font-size:24;font-family:Arial">PT.1</text>
<text x="304px" y="325px" transform="matrix(1 0 0 1 0 0) translate(0 0)" style="fill:rgb(0,0,0);stroke:rgb(0,0,0);font-size:24;font-family:Arial">PT.2</text>
</svg>

</g>
<g transform="translate(100 0)" >
<svg viewBox="0 0 400 400" id="_3.G-MPBC------L3X" width="400px" height="400px"><text x="175px" y="75px" style="fill:rgb(0,0,0);stroke:rgb(0,0,0);font-size:24;font-family:Arial">PT.3</text>
<line x1="200" y1="120" x2="200" y2="85" style="fill:none;stroke:rgb(0,0,0);stroke-width:3"></line>
<polygon points="196,115 200,125 204,115" style="fill:rgb(0,0,0);stroke:rgb(0,0,0);stroke-width:3"></polygon>
</svg>

</g>
</svg>