<?xml version="1.0"?>
<!DOCTYPE svg PUBLIC "-//W3C//DTD SVG 1.1//EN" "http://www.w3.org/Graphics/SVG/1.1/DTD/svg11.dtd" >
<!-- SVG content generated using Symbology Configuration Management System (SCMS) -->
<!-- Systematic Software Engineering Ltd. - www.systematic.co.uk - do not remove  -->
<svg id="G*GPAAMH--****X" width="400px" height="400px" viewBox="0 0 400 400">
<g >
<svg viewBox="0 0 400 400" id="_0.G-GPAAMH------X" width="400px" height="400px"><g transform="translate(-300 -300) scale(2 2)"><line x1="124" y1="154" x2="124" y2="314" transform="matrix(1 0 0 0.970455 61.0455 21.2317)" style="fill:none;stroke:rgb(0,0,0);stroke-width:2"></line>
<line x1="124" y1="154" x2="220" y2="161" transform="matrix(1.00142 0 0 0.785714 60.6875 50.5)" style="fill:none;stroke:rgb(0,0,0);stroke-width:2"></line>
<line x1="219" y1="161" x2="258" y2="218" transform="matrix(0.995338 0 0 1.00239 62.2028 15.479)" style="fill:none;stroke:rgb(0,0,0);stroke-width:2"></line>
<line x1="257" y1="217" x2="235" y2="310" transform="matrix(1.06612 0 0 0.99609 44.7345 16.8485)" style="fill:none;stroke:rgb(0,0,0);stroke-width:2"></line>
<line x1="235" y1="309" x2="124" y2="309" transform="matrix(1 0 0 1 61.0455 16)" style="fill:none;stroke:rgb(0,0,0);stroke-width:2"></line>
<text x="220px" y="72px" transform="matrix(1 0 0 1 -11.9882 174.447) translate(-12 -21) translate(-2 11)" style="fill:rgb(0,0,0);font-size:12;font-family:Arial Black;font-weight:bold">MIN ALT:</text>
<text x="222px" y="91px" transform="matrix(1 0 0 1 -14.3176 166.212) translate(-12 -13) translate(-2 11)" style="fill:rgb(0,0,0);font-size:12;font-family:Arial Black;font-weight:bold">MAX ALT:</text>
<text x="221px" y="112px" transform="matrix(1 0 0 1 -12.3412 156) translate(-13 -3) translate(-2 11)" style="fill:rgb(0,0,0);font-size:12;font-family:Arial Black;font-weight:bold">TIME FROM:</text>
<text x="225px" y="135px" transform="matrix(1 0 0 1 -15.9176 143.059) translate(-12 8) translate(-2 11)" style="fill:rgb(0,0,0);font-size:12;font-family:Arial Black;font-weight:bold">TIME TO:</text>
<text x="198px" y="110px" transform="matrix(1 0 0 1 8 114) translate(-9 -34) translate(-2 11)" style="fill:rgb(0,0,0);font-size:12;font-family:Arial Black;font-weight:bold">HIMEZ</text>
<g id="T" transform="translate(136 135) translate(-2 11)"><rect x="272" y="114" width="22" height="17" transform="matrix(1 0 0 1 -33 128) translate(-177 -186) translate(0 1) translate(0 1) translate(0 1)" style="fill:rgb(255,255,255);stroke:rgb(0,0,0);stroke-width:2"></rect>
<text x="68px" y="72px" transform="matrix(1 0 0 1 0 0)" style="fill:rgb(0,0,0);stroke-width:1;font-family:Arial Black;font-weight:bold;font-size:12;     ">T</text>
</g>
<g id="H" transform="translate(61 150) translate(-2 11)"><rect x="272" y="114" width="22" height="17" transform="matrix(1 0 0 1 -33 128) translate(-43 -182) translate(1 0)" style="fill:rgb(255,255,255);stroke:rgb(0,0,0);stroke-width:2"></rect>
<text x="202px" y="73px" transform="matrix(1 0 0 1 0 0)" style="fill:rgb(0,0,0);stroke-width:1;font-family:Arial Black;font-weight:bold;font-size:12;     ">H</text>
</g>
<g id="H1" transform="translate(-16 163) translate(-2 11) translate(1 0)"><rect x="272" y="114" width="22" height="17" transform="matrix(1 0 0 1 -33 128) translate(38 -175)" style="fill:rgb(255,255,255);stroke:rgb(0,0,0);stroke-width:2"></rect>
<text x="280px" y="81px" transform="matrix(1 0 0 1 0 0)" style="fill:rgb(0,0,0);stroke-width:1;font-family:Arial Black;font-weight:bold;font-size:12;     ">H1</text>
</g>
<g id="W" transform="translate(97 152) translate(-2 11)"><rect x="272" y="114" width="22" height="17" transform="matrix(1 0 0 1 -33 128) translate(-56 -144) translate(0 1) translate(-1 0) translate(-1 0) translate(0 1)" style="fill:rgb(255,255,255);stroke:rgb(0,0,0);stroke-width:2"></rect>
<text x="186px" y="113px" transform="matrix(1 0 0 1 0 0)" style="fill:rgb(0,0,0);stroke-width:1;font-family:Arial Black;font-weight:bold;font-size:12;     ">W</text>
</g>
<g id="W1" transform="translate(-15 157) translate(-2 11)"><rect x="272" y="114" width="22" height="17" transform="matrix(1 0 0 1 0 0) translate(1 0) translate(0 1) translate(1 0) translate(1 0) translate(-1 0)" style="fill:rgb(255,255,255);stroke:rgb(0,0,0);stroke-width:2"></rect>
<text x="276px" y="128px" transform="matrix(1 0 0 1 0 0)" style="fill:rgb(0,0,0);stroke-width:1;font-family:Arial Black;font-weight:bold;font-size:12;     ">W1</text>
</g>
</g>
</svg>

</g>
</svg>