<?xml version="1.0"?>
<!DOCTYPE svg PUBLIC "-//W3C//DTD SVG 1.1//EN" "http://www.w3.org/Graphics/SVG/1.1/DTD/svg11.dtd" >
<!-- SVG content generated using Symbology Configuration Management System (SCMS) -->
<!-- Systematic Software Engineering Ltd. - www.systematic.co.uk - do not remove  -->
<svg id="SFGPUUSRS-*****" width="400px" height="400px" viewBox="0 0 400 400">
<g >
<svg viewBox="0 0 400 400" id="_0.SFG-U----------" width="400px" height="400px"><rect x="20" y="80" width="360" height="240" style="fill:rgb(128,224,255);stroke:rgb(0,0,0);stroke-width:10"></rect>
</svg>

</g>
<g >
<svg viewBox="0 0 400 400" id="_1.SFG-UUS--------" width="400px" height="400px"><polyline points="20,80 200,220 200,180 380,320" style="fill:none;stroke:rgb(0,0,0);stroke-width:10"></polyline>
</svg>

</g>
<g >
<svg viewBox="0 0 400 400" id="_2.S-G-UUSRS------" width="400px" height="400px"><rect x="115" y="145" width="50" height="100" style="stroke:rgb(0,0,0);fill:none;stroke-width:10"></rect>
<rect x="235" y="145" width="50" height="100" style="stroke:rgb(0,0,0);fill:none;stroke-width:10"></rect>
<rect x="177" y="155" width="46" height="80" style="stroke:rgb(0,0,0);fill:none;stroke-width:10"></rect>
<line x1="165" y1="195" x2="177" y2="195" style="stroke:rgb(0,0,0);stroke-width:10" transform="translate(171 195) scale(1 1) translate(-171 -195)"></line>
<line x1="223" y1="195" x2="235" y2="195" style="stroke:rgb(0,0,0);stroke-width:10"></line>
<line x1="200" y1="235" x2="200" y2="260" style="stroke:rgb(0,0,0);stroke-width:10" transform="translate(200 247.5) scale(1 1) translate(-200 -247.5)"></line>
<path d="M150 275 C175 255 225 255 250 275" style="fill:none;stroke:rgb(0,0,0);stroke-width:10"></path>
</svg>

</g>
</svg>