<?xml version="1.0"?>
<!DOCTYPE svg PUBLIC "-//W3C//DTD SVG 1.1//EN" "http://www.w3.org/Graphics/SVG/1.1/DTD/svg11.dtd" >
<!-- SVG content generated using Symbology Configuration Management System (SCMS) -->
<!-- Systematic Software Engineering Ltd. - www.systematic.co.uk - do not remove  -->
<svg id="SNGPEWSH--*****" width="400px" height="400px" viewBox="0 0 400 400">
<g transform="translate(158 91) scale(6.5 5.5)" >
<svg viewBox="0 0 400 400" id="_0.SNG-EWSH-------" width="400px" height="400px"><path style="fill:rgb(170,255,170)" d="M1.578 7.951 L0 6.584 L6.48 0 L12.703 6.326 L11.328 7.902 L6.453 3.057 zM11.998 11.092
			L10.68 12.604 L7.25 9.219 L7.25 39.5 L5.375 39.5 L5.375 9.502 L2.41 12.691
			L0.949 11.252 L6.482 5.65 zM5.375 27.752 L5.375 25.75 L1.225 25.75 L1.225
			27.752 zM5.375 18.375 L5.375 16.377 L1.369 16.377 L1.369 18.375 zM5.375 23 L5.375
			20.875 L1.369 20.875 L1.369 23 zM11.16 18.375 L11.16 16.447 L7.25 16.447
			L7.25 18.375 zM11.16 23 L11.16 20.875 L7.25 20.875 L7.25 23 zM11.018 27.824
			L11.018 25.75 L7.25 25.75 L7.25 27.824 z"></path>
</svg>

</g>
</svg>