<?xml version="1.0"?>
<!DOCTYPE svg PUBLIC "-//W3C//DTD SVG 1.1//EN" "http://www.w3.org/Graphics/SVG/1.1/DTD/svg11.dtd" >
<!-- SVG content generated using Symbology Configuration Management System (SCMS) -->
<!-- Systematic Software Engineering Ltd. - www.systematic.co.uk - do not remove  -->
<svg id="G*TPWP----****X" width="400px" height="400px" viewBox="0 0 400 400">
<g >
<svg viewBox="0 0 400 400" id="_0.G-TPWP--------X" width="400px" height="400px"><g transform="translate(-110 -80) scale(1.25 1.25)"><path d="M319 171 C399.069 171 417.652 276.535 313 282" style="fill:none;stroke:rgb(0,0,0);stroke-width:2" transform="matrix(1 0 0 1 -6 -14)"></path>
<line x1="313" y1="282" x2="247.6" y2="282" style="fill:none;stroke:rgb(0,0,0);stroke-width:2" transform="matrix(1 0 0 1 -6 -14)"></line>
<line x1="205" y1="282" x2="126" y2="282" style="fill:none;stroke:rgb(0,0,0);stroke-width:2" transform="matrix(1 0 0 1 -6 -14)"></line>
<line x1="127" y1="282" x2="141" y2="270" style="fill:none;stroke:rgb(0,0,0);stroke-width:2" transform="matrix(1 0 0 1 -6 -14)"></line>
<line x1="126.987" y1="282.733" x2="139.387" y2="295.533" style="fill:none;stroke:rgb(0,0,0);stroke-width:2" transform="matrix(1 0 0 1 -6 -14)"></line>
<text x="173px" y="144px" transform="matrix(1 0 0 1 30 128.4)" style="fill:rgb(0,0,0);font-size:20;font-family:Arial Black;font-weight:bold">WP</text>
<line x1="118" y1="278" x2="118" y2="298" transform="matrix(1 0 0 1 0 0)" style="fill:rgb(0,0,0);stroke:rgb(0,0,0);stroke-width:2"></line>
<line x1="117.511" y1="297.353" x2="138" y2="311" transform="matrix(1 0 0 1 0 0)" style="fill:rgb(0,0,0);stroke:rgb(0,0,0);stroke-width:2"></line>
<line x1="310" y1="277" x2="310" y2="297" transform="matrix(1 0 0 1 0 0)" style="fill:rgb(0,0,0);stroke:rgb(0,0,0);stroke-width:2"></line>
<line x1="310.444" y1="296.131" x2="296" y2="306" transform="matrix(1 0 0 1 0 0)" style="fill:rgb(0,0,0);stroke:rgb(0,0,0);stroke-width:2"></line>
<line x1="308" y1="151" x2="295" y2="138.486" transform="matrix(1 0 0 1 0 0)" style="fill:rgb(0,0,0);stroke:rgb(0,0,0);stroke-width:2"></line>
<line x1="296" y1="139" x2="264" y2="139" transform="matrix(1 0 0 1 0 0)" style="fill:rgb(0,0,0);stroke:rgb(0,0,0);stroke-width:2"></line>
<polygon points="34,67.8038 40,78.1962 28,78.1962" transform="matrix(-0.562247 0.497445 -0.969519 -1.03626 396.37 207.864)" style="fill:rgb(0,0,0);stroke:rgb(0,0,0);stroke-width:2"></polygon>
<polygon points="34,67.8038 40,78.1962 28,78.1962" transform="matrix(1 0 0 1.73205 216 124.56) translate(-132 18.4752)" style="fill:rgb(0,0,0);stroke:rgb(0,0,0);stroke-width:2"></polygon>
<polygon points="34,67.8038 40,78.1962 28,78.1962" transform="matrix(1 0 0 1.73205 216 124.56) translate(60 16.7432)" style="fill:rgb(0,0,0);stroke:rgb(0,0,0);stroke-width:2"></polygon>
<g id="PT.%201" transform="translate(63 238)"><text x="76px" y="77px" transform="matrix(1 0 0 1 0 0)" style="fill:rgb(0,0,0);stroke-width:1;font-family:Arial Black;font-weight:bold;font-size:12;      ">PT. 1</text>
</g>
<g id="PT.%202" transform="translate(47 247)"><text x="214px" y="68px" transform="matrix(1 0 0 1 0 0)" style="fill:rgb(0,0,0);stroke-width:1;font-family:Arial Black;font-weight:bold;font-size:12;      ">PT. 2</text>
</g>
<g id="PT.%203" transform="translate(-58 61)"><text x="286px" y="82px" transform="matrix(1 0 0 1 0 0)" style="fill:rgb(0,0,0);stroke-width:1;font-family:Arial Black;font-weight:bold;font-size:12;      ">PT. 3</text>
</g>
</g>
</svg>

</g>
</svg>